<svg id="Øsm" xmlns="http://www.w3.org/2000/svg" width="188.04" height="71.37" viewBox="0 0 188.04 71.37">
  <defs>
    <style>
      .cls-1 {
        fill: #fff;
      }
    </style>
  </defs>
  <title>kalklogo-kalklandet-footer</title>
  <g id="New_Symbol_15" data-name="New Symbol 15">
    <polygon class="cls-1" points="7.51 4.42 47.88 4.42 48.34 4.88 48.34 7.87 31.14 25.07 31.14 27.37 48.34 44.57 48.34 47.55 47.88 48.01 7.51 48.01 7.05 47.55 7.05 4.88 7.51 4.42"/>
  </g>
  <g id="Kalklandet_navn_hvid_1" data-name="Kalklandet navn hvid 1">
    <g>
      <path class="cls-1" d="M56,30.64l.39.45v6.33h.82l4.94-6.78h2.46L65,31v1.17L60.4,38.69V39l4.75,6v1.21l-.4.39H62.24L57.61,40.8H56.4v5.53l-.39.35H53.4l-.32-.37V30.92l.36-.34Z"/>
      <path class="cls-1" d="M97.61,30.64l.38.45v6.33h.82l4.94-6.78h2.42l.38.34v1.17L102,38.69V39l4.77,6v1.21l-.4.39h-2.5L99.23,40.8H98v5.53l-.38.35H95l-.35-.35V30.92l.35-.34Z"/>
      <path class="cls-1" d="M80.61,46.65H77.29l-.84-3.76H70.67l-.85,3.76H66.5v-.53l3.84-15.48H76.8l3.81,15.48ZM75.81,40l-1.44-6.64H72.78L71.33,40Z"/>
      <path class="cls-1" d="M92.54,43.81v2.5l-.47.34H82.8l-.35-.34V31l.39-.31h2.68l.38.34V43.5h6.24Z"/>
      <path class="cls-1" d="M127.94,30.56h-4.65l-3.65,15.89v.18h2l1-4.51h5.85l1,4.51h2v-.2q-1.85-7.92-3.63-15.87Zm-4.84,9.8,1.8-8.11h1.43l1.8,8.11Z"/>
      <path class="cls-1" d="M153.3,30.56h-5.53l-.22.19V46.48a1.49,1.49,0,0,0,.18.17h5.69a4,4,0,0,0,4.23-3.84,3.53,3.53,0,0,0,0-.46V34.84a4.07,4.07,0,0,0-3.84-4.28h-.51Zm2.48,11.71a2.2,2.2,0,0,1-1.86,2.51,2.17,2.17,0,0,1-.44,0H149.4V32.44h4.06a2.21,2.21,0,0,1,2.34,2.07,2.26,2.26,0,0,1,0,.45Z"/>
      <path class="cls-1" d="M144.26,30.56h-1.59l-.17.17v13l-.39-1.11L136.25,30.6H134l-.18.19V46.45l.18.18h1.63l.16-.18V33.51l.33,1,5.85,12.06h2.37l.15-.2V30.73Z"/>
      <path class="cls-1" d="M177.82,46.63l.17-.18V32.57h3.93l.22-.22V30.73l-.15-.17h-9.76l-.17.19v1.67l.17.15H176V46.63Z"/>
      <path class="cls-1" d="M118.34,44.68h-7V30.75a.76.76,0,0,1-.12-.19h-1.8l-.16.19v15.7l.16.18h8.94l.17-.18V44.86Z"/>
      <g>
        <polygon class="cls-1" points="160.38 37.34 160.38 39.6 169.13 39.6 169.29 39.41 169.29 37.52 169.13 37.34 160.38 37.34"/>
        <polygon class="cls-1" points="160.38 44.46 160.38 46.41 160.62 46.63 169.65 46.63 169.81 46.45 169.81 44.66 169.63 44.46 160.38 44.46"/>
        <polygon class="cls-1" points="169.59 30.56 160.5 30.56 160.33 30.71 160.33 32.8 162.11 32.8 162.11 32.8 169.56 32.8 169.74 32.63 169.74 30.71 169.59 30.56"/>
      </g>
    </g>
  </g>
</svg>
