<?xml version="1.0" encoding="utf-8"?>
<!-- Generator: Adobe Illustrator 23.0.2, SVG Export Plug-In . SVG Version: 6.00 Build 0)  -->
<svg version="1.1" id="Øsm" xmlns="http://www.w3.org/2000/svg" xmlns:xlink="http://www.w3.org/1999/xlink" x="0px" y="0px"
	 viewBox="0 0 188 71.4" style="enable-background:new 0 0 188 71.4;" xml:space="preserve">
<style type="text/css">
	.st0{fill:#B5A984;}
	.st1{font-family:'LimeStone';}
	.st2{font-size:13.2px;}
</style>
<title>kalklogo-kalklandet</title>
<g id="New_Symbol_15">
	<polygon class="st0" points="7.5,4.4 47.9,4.4 48.3,4.9 48.3,7.9 31.1,25.1 31.1,27.4 48.3,44.6 48.3,47.5 47.9,48 7.5,48
		7.1,47.5 7.1,4.9 	"/>
</g>
<g id="Kalklandet_navn_hvid_1">
	<g>
		<path class="st0" d="M56,30.6l0.4,0.5v6.3h0.8l4.9-6.8h2.5L65,31v1.2l-4.6,6.5V39l4.8,6v1.2l-0.4,0.4h-2.5l-4.6-5.8h-1.2v5.5
			L56,46.7h-2.6l-0.3-0.4V30.9l0.4-0.3L56,30.6z"/>
		<path class="st0" d="M97.6,30.6l0.4,0.5v6.3h0.8l4.9-6.8h2.4l0.4,0.3v1.2l-4.5,6.5V39l4.8,6v1.2l-0.4,0.4h-2.5l-4.6-5.8H98v5.5
			l-0.4,0.3H95l-0.3-0.3V30.9l0.3-0.3L97.6,30.6z"/>
		<path class="st0" d="M80.6,46.7h-3.3l-0.8-3.8h-5.8l-0.8,3.8h-3.3v-0.5l3.8-15.5h6.5l3.8,15.5V46.7z M75.8,40l-1.4-6.6h-1.6
			L71.3,40H75.8z"/>
		<path class="st0" d="M92.5,43.8v2.5l-0.5,0.3h-9.3l-0.3-0.3V31l0.4-0.3h2.7l0.4,0.3v12.5h6.2L92.5,43.8z"/>
		<path class="st0" d="M127.9,30.6h-4.7l-3.7,15.9v0.2h2l1-4.5h5.9l1,4.5h2v-0.2C130.3,41.2,129,35.9,127.9,30.6L127.9,30.6z
			 M123.1,40.4l1.8-8.1h1.4l1.8,8.1H123.1z"/>
		<path class="st0" d="M153.3,30.6h-5.5l-0.2,0.2v15.7c0.1,0.1,0.1,0.1,0.2,0.2h5.7c2.2,0.1,4.1-1.6,4.2-3.8c0,0,0-0.1,0-0.1
			c0-0.2,0-0.3,0-0.5v-7.5c0.1-2.2-1.6-4.2-3.8-4.3H153.3z M155.8,42.3c0.2,1.2-0.6,2.3-1.8,2.5c0,0,0,0,0,0c-0.1,0-0.3,0-0.4,0
			h-4.1V32.4h4.1c1.2-0.1,2.3,0.9,2.3,2.1c0,0.1,0,0.3,0,0.5L155.8,42.3z"/>
		<path class="st0" d="M144.3,30.6h-1.6l-0.2,0.2v13l-0.4-1.1l-5.9-12H134l-0.2,0.2v15.7l0.2,0.2h1.6l0.2-0.2V33.5l0.3,1l5.9,12.1
			h2.4l0.1-0.2V30.7L144.3,30.6z"/>
		<path class="st0" d="M177.8,46.6l0.2-0.2V32.6h3.9l0.2-0.2v-1.6l-0.1-0.2h-9.8l-0.2,0.2v1.7l0.2,0.2h3.8v14.1H177.8z"/>
		<path class="st0" d="M118.3,44.7h-7V30.8c0-0.1-0.1-0.1-0.1-0.2h-1.8l-0.2,0.2v15.7l0.2,0.2h8.9l0.2-0.2v-1.6L118.3,44.7z"/>
		<g>
			<polygon class="st0" points="160.4,37.3 160.4,39.6 169.1,39.6 169.3,39.4 169.3,37.5 169.1,37.3 			"/>
			<polygon class="st0" points="160.4,44.5 160.4,46.4 160.6,46.6 169.6,46.6 169.8,46.5 169.8,44.7 169.6,44.5 			"/>
			<polygon class="st0" points="169.6,30.6 160.5,30.6 160.3,30.7 160.3,32.8 162.1,32.8 162.1,32.8 169.6,32.8 169.7,32.6
				169.7,30.7 			"/>
		</g>
	</g>
</g>
<text transform="matrix(1 0 0 1 6.61 60.86)" class="st0 st1 st2">En del af Østsjællands Museum</text>
</svg>
