<svg id="Layer_2" data-name="Layer 2" xmlns="http://www.w3.org/2000/svg" width="300mm" height="300mm" viewBox="0 0 850.39 850.39"><defs><style>.cls-1{fill:#fff;}.cls-2{fill:#f1ebe3;}.cls-3{fill:none;stroke:#b7a595;stroke-miterlimit:10;stroke-width:5px;}.cls-4{font-size:18px;font-family:LimeStone-Bold, LimeStone;font-weight:700;}.cls-5{letter-spacing:0.04em;}.cls-6{letter-spacing:0.05em;}</style></defs><title>map_final</title><rect class="cls-1" x="-11.06" y="-4.78" width="877.05" height="880.72"/><path class="cls-2" d="M355.73,1.51s4.71,19.53,4,26.94,8.75,4,8.75,7.4-8.75,3.37-8.75,6.73-3.37,8.76-.68,11.45,6.74,4.71,4.72,8.75-8.08,10.1-6.74,14.14,0,14.14,2,15.49,6.06,12.79,8.08,16.83,16.84,33.67,20.2,34.34,12.8,2,13.47,4.71,3.37,8.08,8.08,10.78,43.76,17.5,48.48,20.2,16.83,11.44,23.56,14.81,33,18.85,38.38,21.55S528.77,219,535.5,217s27.61-2,38.38,1.35,31,8.75,40.4,9.43S738.17,348.94,740.19,360.39s-1.35,28.28,2,33.66,10.77,5.39,10.1,10.1-12.8,19.53-11.45,26.94-5.39,35-.67,53.19c0,0,12.79,10.1,13.46,20.87s-8.08,40.4-17.5,46.46-12.12-1.35-19.53,8.75-6.06,13.47-10.77,15.49-8.08,6.73-10.77,11.44-17.51,6.74-21.55,12.8-4,10.1-10.1,10.1-20.2-7.41-24.24-2.7-14.14,4-16.16,4-12.12,12.8-12.79,18.18-.67,18.18-7.41,24.24-28.28-.67-28.28-.67-44.44-8.76-68.67-4c0,0-22.9-2-29-5.39S414.31,660,414.31,660s-26.26,20.87-41.75,24.91-37,10.1-56.56,34.34c0,0-6.06,1.35-8.08-2s-35,44.44-35,44.44-.67,12.12-13.47,20.87S227.13,794,221.07,827.67l-.68,22.89,629.55.67L849.26.84Z"/><path class="cls-2" d="M100.65,848.51h86.92s25.3-25.3,18.7-30.81-28.6-8.8-45.11,0-26.41,13.21-34.11,12.11S100.65,848.51,100.65,848.51Z"/><path class="cls-3" d="M-1.84,804.92S21,770.3,25.06,751.71s0-29.1.81-46.89,9.7-37.18,9.7-37.18c5.66-45.27,12.12-57.39,24.25-74.37s11.32-25.87,12.93-42,29.1-65.48,33.14-86.5,15.36-63.85,15.36-63.85l7.28-20.21c7.27-20.21,36.37-17.79,40.42-34.76s14.55-42,27.48-59.82,8.89-59,13.74-88.92,12.93-30.71,26.68-55.77,1.7-42.14,7.36-85.79S276.15.4,276.15.4,248,5.28,219.31,5.28s-38.44,18.94-55.76,27.61S68.27,60,44.45,63.74,10.89,64.83-3.73,63.2"/><text class="cls-4" transform="translate(315.2 70.83)">KØGE</text><text class="cls-4" transform="translate(235.42 191.65)">HERFØLGE</text><text class="cls-4" transform="translate(375 190.08)">STRØBY EGEDE</text><text class="cls-4" transform="translate(459.45 267.67)">STRØBY</text><text class="cls-4" transform="translate(387.18 360.59)">HÅRLEV</text><text class="cls-4" transform="translate(514.56 360.8)">KLIPPINGE</text><text class="cls-4" transform="translate(625.37 456.92)">STORE <tspan x="-13.14" y="18">HEDDINGE</tspan></text><text class="cls-4" transform="translate(333.12 472.96)">KARISE</text><text class="cls-4" transform="translate(43.68 510.67)">ULSE</text><path d="M181,587.46l1.16-1.35h1.48c0,1.68,0,4.86,0,7V596l-.4.4h-1l-1.29,0v-.79l-3.24,1c-5.1,0-6-2.4-6-5.59v-8.82c0-1.7.78-5.19,6-5.19,4.75,0,5.86,1.68,5.94,4.78l-.35.43h-1.89l-.38-.4c-.13-1.94-1-2.24-3.32-2.24-1.7,0-3.4.3-3.4,2.67V591c0,2.38,1,3,3.4,3,.32,0,3.27-.35,3.27-.35Z"/><path d="M186.78,595.91V577.45l.38-.35H198l.33.35v1.89l-.35.38H189.4v5.18h7.93l.35.35v1.89l-.35.35H189.4v6.29H198l.33.41V596l-.33.38H187.21Z"/><path d="M206.51,596.72c-4.34,0-6.07-2.29-6.07-5v-10c0-2.46,1.65-5.19,6.1-5.19,4.29,0,6.1,2.57,6.1,5.21v10C212.64,594.43,210.91,596.72,206.51,596.72ZM210,581.85c0-2.16-1.56-2.78-3.48-2.78-2.16,0-3.54.7-3.54,2.78v9.91c0,2,2.32,2.48,3.35,2.48h.38c1,0,3.29-.4,3.29-2.46Z"/><path d="M230.38,577.45V596l-.35.38h-1.92l-.35-.36v-14.3l-.62,1.83-3.27,6.75h-2.1l-3.48-7.21-.44-1.45V596l-.29.36h-2l-.3-.36V577.48l.36-.38h2.67l4.56,9.37,4.51-9.37h2.72Z"/><path d="M245.17,577.45v13.69c0,3.69-1.83,5.48-6.1,5.48s-6.1-1.81-6.1-5.51V577.48l.33-.38h1.89l.37.38v13.63c0,2.21,1.3,3,3.51,3s3.49-.92,3.49-3V577.48l.35-.38h1.91Z"/><path d="M259.67,591.35c0,3.56-1.62,5.35-6.15,5.35-4.32,0-5.88-1.89-6-5l.35-.35h1.9l.34.35c.11,1.76,1.27,2.38,3.35,2.38,2.86,0,3.62-.68,3.62-2.78a2.36,2.36,0,0,0-1.48-2.43c-.6-.3-3.35-1.68-5.16-2.54-1.54-.78-2.62-1.81-2.62-4.48,0-2.91,1.4-5,5.7-5s5.77,1.22,5.88,4.84l-.35.35h-1.94l-.35-.41c-.06-1.78-.6-2.24-3.24-2.24s-3.11.86-3.11,2.3a2.41,2.41,0,0,0,1.46,2.42c3,1.35,4,1.79,4.72,2.16C258.67,587.28,259.67,588.27,259.67,591.35Z"/><path d="M262.27,595.91V577.45l.38-.35h10.79l.33.35v1.89l-.35.38h-8.53v5.18h7.93l.35.35v1.89l-.35.35h-7.93v6.29h8.55l.33.41V596l-.33.38H262.7Z"/><path d="M288,577.45v13.69c0,3.69-1.83,5.48-6.1,5.48s-6.1-1.81-6.1-5.51V577.48l.32-.38H278l.37.38v13.63c0,2.21,1.3,3,3.51,3s3.48-.92,3.48-3V577.48l.35-.38h1.92Z"/><path d="M305.87,577.45V596l-.35.38H303.6l-.35-.36v-14.3l-.62,1.83-3.27,6.75h-2.1l-3.48-7.21-.44-1.45V596l-.29.36h-2l-.3-.36V577.48l.36-.38h2.67l4.56,9.37,4.51-9.37h2.73Z"/><path d="M314.84,596.35v-18.9l.37-.35H326l.32.35v1.89l-.35.38h-8.53v5.18h7.94l.35.35v1.89l-.35.35h-7.94V596l-.37.38Z"/><path d="M337.32,577.53l4.3,18.28v.54h-2.57l-1.19-5.24H331c-.35,1.67-.81,3.59-1.14,5.24h-2.59v-.52l4.21-18.3.49-.43h5Zm-.1,11c-.62-3-1.3-5.86-1.92-8.91h-1.75l-1.95,8.91Z"/><path d="M355,596.35h-1.76l-4.21-7c-.35.6-.68,1.08-4.29,7H343l-.4-.36v-1.16l4.94-8.12-4.94-8.13v-1.05l.32-.43h1.81L349,584c1.08-1.76,2.24-3.57,4.32-6.94H355l.38.43v1.16l-4.92,8c1.68,2.65,3.27,5.38,4.92,8V596Z"/><path d="M357.71,595.91V577.45l.38-.35h10.8l.32.35v1.89l-.35.38h-8.53v5.18h7.94l.35.35v1.89l-.35.35h-7.94v6.29h8.56l.32.41V596l-.32.38H358.14Z"/><path d="M667,513.72c0,3.56-1.62,5.34-6.15,5.34-4.32,0-5.89-1.89-6-5l.35-.35h1.89l.35.35c.11,1.75,1.27,2.37,3.35,2.37,2.86,0,3.62-.67,3.62-2.78a2.34,2.34,0,0,0-1.49-2.42c-.59-.3-3.35-1.68-5.15-2.54-1.54-.78-2.62-1.81-2.62-4.48,0-2.92,1.4-5,5.69-5s5.78,1.22,5.89,4.83l-.35.35h-2l-.35-.4c0-1.78-.59-2.24-3.24-2.24s-3.1.86-3.1,2.29a2.41,2.41,0,0,0,1.46,2.43c3,1.35,4,1.78,4.72,2.16C666,509.64,667,510.64,667,513.72Z"/><path d="M673.14,518.71v-16.6h-4.45l-.35-.35v-1.92l.35-.37h11.58l.32.35v1.86l-.4.43h-4.43v16.22l-.35.38Z"/><path d="M682.54,518.28V499.82l.38-.35h10.8l.32.35v1.89l-.35.38h-8.53v5.18h7.93l.36.35v1.89l-.36.35h-7.93v6.29h8.56l.32.4v1.78l-.32.38H683Z"/><path d="M709.92,499.84v.9l-5.11,18h-4.5c-3.46-11.87-4.35-15-5.11-17.81v-1l.38-.4h1.86c1.44,5.23,3,10.44,4.75,16.54v.14h.63V516l4.8-16.54h1.92Z"/><path d="M724,499.84v18.47l-.3.4h-2.62l-6.26-12.52-.73-2v14.14l-.35.38h-1.89l-.35-.38V499.87l.35-.38h2.51l6.48,12.85.59,1.76V499.84l.38-.35h1.86Z"/><path d="M738.56,513.72c0,3.56-1.62,5.34-6.15,5.34-4.32,0-5.89-1.89-6-5l.35-.35h1.89l.35.35c.11,1.75,1.27,2.37,3.35,2.37,2.86,0,3.62-.67,3.62-2.78a2.34,2.34,0,0,0-1.49-2.42c-.59-.3-3.34-1.68-5.15-2.54-1.54-.78-2.62-1.81-2.62-4.48,0-2.92,1.4-5,5.69-5s5.78,1.22,5.89,4.83l-.35.35h-2l-.35-.4c0-1.78-.59-2.24-3.24-2.24s-3.1.86-3.1,2.29a2.41,2.41,0,0,0,1.46,2.43c3,1.35,4,1.78,4.72,2.16C737.56,509.64,738.56,510.64,738.56,513.72Z"/><path d="M752.68,509.08v.35c2.08,2.59,4.21,5.29,6.27,7.88v1l-.33.38h-1.86c-2.21-2.53-4.18-5.26-6.37-7.93h-1.3v7.55l-.35.38h-1.91l-.36-.38V499.84l.36-.37h1.91l.35.37v8.4h1.06c2-2.89,4.1-5.91,6.1-8.77H758l.35.37v1Z"/><path d="M772.28,516.5v1.83l-.32.38H761.32l-.35-.38V499.84l.41-.37h1.89l.32.37v16.31H772Z"/><path d="M777.66,518.33l-.35.38h-1.86l-.38-.38V499.84l.38-.37h1.88l.33.37Z"/><path d="M793.67,499.84v18.47l-.3.4h-2.62l-6.26-12.52-.73-2v14.14l-.35.38h-1.89l-.35-.38V499.87l.35-.38H784l6.48,12.85.59,1.76V499.84l.38-.35h1.86Z"/><path d="M800.15,518.71v-16.6h-4.46l-.35-.35v-1.92l.35-.37h11.58l.33.35v1.86l-.41.43h-4.42v16.22l-.35.38Z"/><text class="cls-4" transform="translate(308.08 698.95)">FAXE<tspan class="cls-5" x="-24.67" y="18">L</tspan><tspan x="-15.18" y="18">ADEP</tspan><tspan class="cls-6" x="23.66" y="18">L</tspan><tspan x="33.15" y="18">ADS</tspan></text><text class="cls-4" transform="translate(121.72 296)">TUREBY</text><circle cx="264.43" cy="560.03" r="9.65"/><path d="M586.52,609.52v.35c2.08,2.59,4.21,5.29,6.27,7.88v1l-.33.37H590.6c-2.21-2.53-4.18-5.26-6.37-7.93h-1.3v7.56l-.35.37h-1.91l-.36-.37V600.29l.36-.38h1.91l.35.38v8.39H584c2-2.89,4.1-5.91,6.1-8.77h1.75l.35.38v1Z"/><path d="M601.1,619.53c-4.34,0-6.07-2.29-6.07-5v-10c0-2.46,1.65-5.19,6.1-5.19,4.29,0,6.1,2.57,6.1,5.21v10C607.23,617.24,605.5,619.53,601.1,619.53Zm3.51-14.87c0-2.16-1.56-2.78-3.48-2.78-2.16,0-3.54.7-3.54,2.78v9.91c0,2,2.33,2.48,3.35,2.48h.38c1,0,3.29-.41,3.29-2.46Z"/><path d="M620.84,616.94v1.84l-.33.37H609.88l-.35-.37V600.29l.4-.38h1.89l.33.38v16.3h8.39Z"/><path d="M635.15,605.15v8.74c0,1.7-.87,5.26-5.21,5.26H623.7l-.48-.4V600.23l.46-.35h6.15A5,5,0,0,1,635.15,605.15Zm-2.57.08c0-2.3-1.53-2.73-2.53-2.73h-4.21v14.09h4.23c1,0,2.51-.46,2.51-2.73Z"/><path d="M643.63,609.52v.35c2.08,2.59,4.21,5.29,6.26,7.88v1l-.32.37H647.7c-2.21-2.53-4.18-5.26-6.37-7.93H640v7.56l-.35.37h-1.92l-.35-.37V600.29l.35-.38h1.92l.35.38v8.39h1.05c2-2.89,4.1-5.91,6.1-8.77H649l.35.38v1Z"/><path d="M664.52,619.15h-2l-4.69-8.09c-.57,0-1.25-.06-1.79-.06l-.81-.51v8.29l-.35.37h-1.89l-.35-.37V600.26l.33-.35h6.29c4.1,0,5.07,2.37,5.07,5v1.45c0,1.06-.43,4.32-3.53,4.65,1.32,2.32,2.78,4.75,4.13,7.07v.75Zm-5.58-10.44c2,0,2.72-.57,2.72-2.4V605c0-1.87-.75-2.43-2.51-2.43h-4v6.18Z"/><path d="M670.74,618.78l-.35.37h-1.87l-.38-.37V600.29l.38-.38h1.89l.33.38Z"/><path d="M683.29,610.27l1.16-1.35h1.48c0,1.68,0,4.86,0,7v2.84l-.4.4h-1l-1.3,0v-.78l-3.24,1c-5.1,0-6-2.4-6-5.59V605c0-1.7.78-5.19,6-5.19,4.75,0,5.86,1.68,5.94,4.78l-.35.43h-1.89l-.38-.4c-.13-1.94-1-2.24-3.32-2.24-1.7,0-3.4.3-3.4,2.67v8.77c0,2.38,1,3,3.4,3,.33,0,3.27-.35,3.27-.35Z"/><path d="M700.62,614.16c0,3.56-1.62,5.35-6.15,5.35-4.32,0-5.89-1.89-6-5l.35-.35h1.89l.35.35c.11,1.76,1.27,2.38,3.35,2.38,2.86,0,3.62-.68,3.62-2.78a2.35,2.35,0,0,0-1.49-2.43c-.59-.3-3.34-1.68-5.15-2.54-1.54-.78-2.62-1.81-2.62-4.48,0-2.92,1.4-5,5.7-5s5.77,1.22,5.88,4.83l-.35.36h-1.94l-.36-.41c-.05-1.78-.59-2.24-3.23-2.24s-3.11.86-3.11,2.29a2.4,2.4,0,0,0,1.46,2.43c3,1.35,4,1.79,4.72,2.16C699.62,610.09,700.62,611.08,700.62,614.16Z"/><path d="M718.12,600.26v18.52l-.35.37h-1.92l-.35-.35V604.5l-.62,1.83-3.27,6.75h-2.1L706,605.87l-.43-1.45V618.8l-.29.35h-2l-.3-.35V600.29l.35-.38H706l4.56,9.37,4.51-9.37h2.72Z"/><path d="M732.91,600.26V614c0,3.69-1.83,5.48-6.1,5.48s-6.1-1.81-6.1-5.51V600.29l.33-.38h1.89l.37.38v13.63c0,2.21,1.3,3.05,3.51,3.05s3.49-.92,3.49-3.05V600.29l.35-.38h1.91Z"/><path d="M747.41,614.16c0,3.56-1.62,5.35-6.15,5.35-4.32,0-5.89-1.89-6-5l.35-.35h1.89l.35.35c.11,1.76,1.27,2.38,3.35,2.38,2.86,0,3.62-.68,3.62-2.78a2.35,2.35,0,0,0-1.49-2.43c-.59-.3-3.34-1.68-5.15-2.54-1.54-.78-2.62-1.81-2.62-4.48,0-2.92,1.4-5,5.7-5s5.77,1.22,5.88,4.83l-.35.36h-1.94l-.36-.41c0-1.78-.59-2.24-3.23-2.24s-3.11.86-3.11,2.29a2.4,2.4,0,0,0,1.46,2.43c3,1.35,4,1.79,4.72,2.16C746.41,610.09,747.41,611.08,747.41,614.16Z"/><path d="M750,618.72V600.26l.38-.35h10.79l.33.35v1.89l-.36.38h-8.52v5.18h7.93l.35.35V610l-.35.35h-7.93v6.29h8.55l.33.41v1.78l-.33.37H750.44Z"/><path d="M775.76,600.26V614c0,3.69-1.83,5.48-6.1,5.48s-6.1-1.81-6.1-5.51V600.29l.32-.38h1.89l.38.38v13.63c0,2.21,1.3,3.05,3.51,3.05s3.48-.92,3.48-3.05V600.29l.35-.38h1.92Z"/><path d="M793.61,600.26v18.52l-.35.37h-1.92l-.35-.35V604.5l-.62,1.83-3.27,6.75H785l-3.49-7.21-.43-1.45V618.8l-.29.35h-2l-.3-.35V600.29l.35-.38h2.68l4.56,9.37,4.51-9.37h2.72Z"/><path d="M629.26,646.56c0,3.56-1.62,5.35-6.15,5.35-4.32,0-5.89-1.89-6-5l.35-.35h1.89l.35.35c.11,1.76,1.27,2.38,3.35,2.38,2.86,0,3.62-.68,3.62-2.78a2.35,2.35,0,0,0-1.49-2.43c-.59-.3-3.34-1.68-5.15-2.54-1.54-.78-2.62-1.81-2.62-4.48,0-2.92,1.4-5,5.7-5s5.77,1.22,5.88,4.84l-.35.35h-1.95l-.35-.41c0-1.78-.59-2.24-3.23-2.24s-3.11.86-3.11,2.3a2.4,2.4,0,0,0,1.46,2.42c3,1.35,4,1.79,4.72,2.16C628.26,642.49,629.26,643.48,629.26,646.56Z"/><path d="M635.37,651.56V635h-4.46l-.35-.35v-1.91l.35-.38h11.58l.33.35v1.86l-.41.43H638v16.23l-.35.38Z"/><path d="M644.76,651.12V632.66l.38-.35h10.8l.32.35v1.89l-.35.38h-8.53v5.18h7.94l.35.35v1.89l-.35.35h-7.94V649h8.56l.32.41v1.78l-.32.38H645.19Z"/><path d="M672.14,632.69v.89l-5.1,18h-4.51c-3.46-11.88-4.35-15-5.1-17.82v-1l.37-.4h1.87c1.43,5.24,3.05,10.45,4.75,16.55V649H665v-.13l4.8-16.55h1.92Z"/><path d="M686.26,632.69v18.46l-.3.41h-2.62L677.08,639l-.73-2v14.15l-.35.38h-1.89l-.35-.38V632.71l.35-.37h2.51l6.48,12.85.59,1.75V632.69l.38-.35h1.86Z"/><path d="M700.78,646.56c0,3.56-1.62,5.35-6.15,5.35-4.32,0-5.89-1.89-6-5l.35-.35h1.89l.36.35c.1,1.76,1.26,2.38,3.34,2.38,2.86,0,3.62-.68,3.62-2.78a2.35,2.35,0,0,0-1.49-2.43c-.59-.3-3.34-1.68-5.15-2.54-1.54-.78-2.62-1.81-2.62-4.48,0-2.92,1.4-5,5.7-5s5.77,1.22,5.88,4.84l-.35.35h-1.94l-.35-.41c-.06-1.78-.6-2.24-3.24-2.24s-3.11.86-3.11,2.3a2.41,2.41,0,0,0,1.46,2.42c3,1.35,4,1.79,4.72,2.16C699.78,642.49,700.78,643.48,700.78,646.56Z"/><path d="M703.38,651.56v-18.9l.38-.35h10.79l.33.35v1.89l-.35.38H706v5.18h7.93l.35.35v1.89l-.35.35H706v8.48l-.38.38Z"/><path d="M722.84,651.93c-4.34,0-6.07-2.29-6.07-5V637c0-2.46,1.65-5.19,6.1-5.19,4.29,0,6.1,2.57,6.1,5.21v10C729,649.64,727.24,651.93,722.84,651.93Zm3.51-14.87c0-2.16-1.56-2.78-3.48-2.78-2.16,0-3.54.7-3.54,2.78V647c0,2,2.33,2.48,3.35,2.48h.38c1,0,3.29-.41,3.29-2.46Z"/><path d="M743.87,651.56h-2l-4.69-8.1c-.57,0-1.24-.06-1.79-.06l-.8-.51v8.29l-.36.38h-1.89l-.35-.38V632.66l.33-.35h6.29c4.1,0,5.07,2.38,5.07,5v1.45c0,1.06-.43,4.32-3.53,4.65,1.32,2.32,2.78,4.75,4.13,7.07v.75Zm-5.58-10.45c2,0,2.72-.57,2.72-2.4v-1.35c0-1.87-.75-2.43-2.51-2.43h-4v6.18Z"/><path d="M750.46,651.56V635H746l-.35-.35v-1.91l.35-.38h11.58l.32.35v1.86l-.4.43h-4.43v16.23l-.35.38Z"/><circle cx="684.47" cy="580.96" r="9.65"/><circle cx="737.94" cy="538.53" r="9.65"/><circle cx="194.52" cy="620.2" r="9.65"/><path d="M146.67,637v17.79l-.29.39h-2.52l-6-12.07-.7-1.92v13.62l-.34.37H135l-.34-.37V637.06l.34-.36h2.41l6.24,12.37.57,1.69V637l.37-.33h1.79Z"/><path d="M150.54,636.64l4.42,8.79,4.21-8.79h1.72l.33.37v1c-.8,1.63-1.56,3.3-2.28,4.94s-1.64,3.56-2.5,5.27h-.21v6.58l-.39.39h-2.13v-7h-.26l-5.07-10.29V637l.36-.37Z"/><path d="M163.28,654.79V637l.36-.34H174l.31.34v1.82l-.33.36H165.8v5h7.64l.34.34v1.82l-.34.34H165.8v6.06H174l.31.39v1.71l-.31.37H163.69Z"/><path d="M188.37,655.21h-2l-4.52-7.8c-.55,0-1.2,0-1.72,0l-.78-.5v8l-.34.37h-1.82l-.33-.37V637l.31-.34h6.06c3.95,0,4.88,2.29,4.88,4.78v1.41c0,1-.41,4.16-3.4,4.47,1.27,2.24,2.68,4.58,4,6.81v.73ZM183,645.15c1.95,0,2.62-.55,2.62-2.32v-1.3c0-1.79-.73-2.34-2.42-2.34h-3.82v6Z"/><path d="M191.33,654.79V637l.37-.34h10.4l.31.34v1.82l-.34.36h-8.22v5h7.65l.34.34v1.82l-.34.34h-7.65v6.06h8.25l.31.39v1.71l-.31.37H191.75Z"/><path d="M213.9,655.21v-16h-4.29l-.34-.34V637l.34-.36h11.15l.32.34v1.79l-.4.42h-4.26v15.62l-.34.37Z"/><path d="M226,654.84l-.34.37h-1.79l-.36-.37V637l.36-.36h1.82l.31.36Z"/><path d="M241.07,641.71v8.43a4.78,4.78,0,0,1-5,5.07h-6l-.46-.39V637l.44-.34H236A4.83,4.83,0,0,1,241.07,641.71Zm-2.47.08a2.3,2.3,0,0,0-2.45-2.62H232.1v13.57h4.08a2.3,2.3,0,0,0,2.42-2.63Z"/><path d="M255,650.4c0,3.43-1.56,5.15-5.93,5.15-4.16,0-5.67-1.82-5.75-4.81l.34-.34h1.82l.34.34c.1,1.69,1.22,2.28,3.22,2.28,2.76,0,3.49-.65,3.49-2.67a2.25,2.25,0,0,0-1.43-2.34c-.57-.29-3.23-1.62-5-2.45-1.48-.75-2.52-1.74-2.52-4.31,0-2.81,1.35-4.79,5.49-4.79s5.56,1.17,5.66,4.66l-.33.33h-1.88l-.33-.39c-.06-1.71-.58-2.15-3.12-2.15s-3,.83-3,2.21a2.33,2.33,0,0,0,1.4,2.34c2.86,1.3,3.82,1.71,4.55,2.08C254,646.47,255,647.43,255,650.4Z"/><path d="M123,677.13v.33c2,2.5,4.06,5.1,6,7.6v1l-.32.37h-1.79c-2.13-2.45-4-5.07-6.14-7.65H119.5V686l-.34.37h-1.85L117,686V668.23l.34-.36h1.85l.34.36v8.09h1c1.92-2.78,3.95-5.69,5.88-8.45h1.69l.33.36v.94Z"/><path d="M142.79,668.21v13.18c0,3.56-1.77,5.28-5.87,5.28s-5.88-1.74-5.88-5.31V668.23l.31-.36h1.82l.37.36v13.13c0,2.14,1.24,2.94,3.38,2.94s3.35-.88,3.35-2.94V668.23l.34-.36h1.84Z"/><path d="M156,684.28V686l-.31.37H145.44l-.34-.37V668.23l.4-.36h1.82l.31.36v15.71h8.08Z"/><path d="M160,686.41v-16h-4.29l-.34-.34v-1.85l.34-.36h11.15l.31.34V670l-.39.42H162.5V686l-.34.37Z"/><path d="M180.36,668.21v13.18c0,3.56-1.77,5.28-5.87,5.28s-5.88-1.74-5.88-5.31V668.23l.31-.36h1.82l.37.36v13.13c0,2.14,1.24,2.94,3.38,2.94s3.35-.88,3.35-2.94V668.23l.34-.36H180Z"/><path d="M194.82,686.41h-2l-4.52-7.8c-.55,0-1.2-.05-1.72-.05l-.78-.5v8l-.34.37h-1.82l-.33-.37V668.21l.31-.34h6.06c4,0,4.88,2.29,4.88,4.78v1.41c0,1-.41,4.16-3.4,4.47,1.27,2.24,2.68,4.58,4,6.81v.73Zm-5.38-10.06c1.95,0,2.62-.55,2.62-2.32v-1.3c0-1.79-.73-2.34-2.42-2.34h-3.82v6Z"/><path d="M212.13,668.21V686l-.33.37H210l-.34-.34V672.29l-.6,1.77-3.14,6.5h-2l-3.36-6.94-.41-1.41v13.86l-.29.34h-1.95l-.28-.34V668.23l.33-.36h2.58l4.39,9,4.34-9h2.63Z"/><path d="M226.38,668.21v13.18c0,3.56-1.77,5.28-5.88,5.28s-5.87-1.74-5.87-5.31V668.23l.31-.36h1.82l.36.36v13.13c0,2.14,1.25,2.94,3.38,2.94s3.36-.88,3.36-2.94V668.23l.34-.36H226Z"/><path d="M240.34,681.6c0,3.43-1.56,5.15-5.93,5.15-4.16,0-5.66-1.82-5.74-4.81l.34-.34h1.82l.33.34c.11,1.69,1.23,2.29,3.23,2.29,2.75,0,3.48-.66,3.48-2.68a2.25,2.25,0,0,0-1.43-2.34c-.57-.29-3.22-1.62-5-2.45C230,676,229,675,229,672.45c0-2.81,1.36-4.79,5.49-4.79s5.56,1.17,5.67,4.66l-.34.33H237.9l-.34-.39c-.05-1.71-.57-2.15-3.12-2.15s-3,.83-3,2.21a2.33,2.33,0,0,0,1.4,2.34c2.86,1.3,3.83,1.71,4.55,2.08C239.38,677.67,240.34,678.63,240.34,681.6Z"/><path d="M242.84,686V668.21l.36-.34h10.4l.31.34V670l-.33.36h-8.22v5H253l.34.34v1.82l-.34.34h-7.64v6.06h8.24l.31.39V686l-.31.37H243.25Z"/><path d="M267.64,668.21v13.18c0,3.56-1.77,5.28-5.87,5.28s-5.88-1.74-5.88-5.31V668.23l.31-.36H258l.37.36v13.13c0,2.14,1.24,2.94,3.38,2.94s3.35-.88,3.35-2.94V668.23l.34-.36h1.84Z"/><path d="M284.83,668.21V686l-.34.37h-1.85l-.33-.34V672.29l-.6,1.77-3.15,6.5h-2l-3.35-6.94-.42-1.41v13.86l-.28.34h-2l-.29-.34V668.23l.34-.36h2.57l4.4,9,4.34-9h2.63Z"/></svg>
