<?xml version="1.0" encoding="utf-8"?>
<!-- Generator: Adobe Illustrator 23.0.2, SVG Export Plug-In . SVG Version: 6.00 Build 0)  -->
<svg version="1.1" id="Layer_2" xmlns="http://www.w3.org/2000/svg" xmlns:xlink="http://www.w3.org/1999/xlink" x="0px" y="0px"
	 viewBox="0 0 850.4 850.4" style="enable-background:new 0 0 850.4 850.4;" xml:space="preserve">
<style type="text/css">
	.st0{fill:#FFFFFF;}
	.st1{fill:#D9D1BA;}
	.st2{fill:#F1EBE3;}
	.st3{fill:none;stroke:#B5A984;stroke-width:5;stroke-miterlimit:10;}
	.st4{fill:#5C553E;}
	.st5{font-family:'LimeStone-Bold';}
	.st6{font-size:18px;}
</style>
<title>map_final</title>
<rect x="-11.1" y="-4.8" class="st0" width="877" height="880.7"/>
<path class="st1" d="M355.7,1.5c0,0,4.7,19.5,4,26.9s8.8,4,8.8,7.4s-8.8,3.4-8.8,6.7s-3.4,8.8-0.7,11.5s6.7,4.7,4.7,8.8
	s-8.1,10.1-6.7,14.1s0,14.1,2,15.5s6.1,12.8,8.1,16.8s16.8,33.7,20.2,34.3s12.8,2,13.5,4.7s3.4,8.1,8.1,10.8s43.8,17.5,48.5,20.2
	s16.8,11.4,23.6,14.8s33,18.9,38.4,21.6s9.5,3.4,16.2,1.4s27.6-2,38.4,1.4s31,8.8,40.4,9.4s123.9,121.2,125.9,132.6
	s-1.3,28.3,2,33.7s10.8,5.4,10.1,10.1s-12.8,19.5-11.5,26.9s-5.4,35-0.7,53.2c0,0,12.8,10.1,13.5,20.9c0.7,10.8-8.1,40.4-17.5,46.5
	s-12.1-1.3-19.5,8.8s-6.1,13.5-10.8,15.5s-8.1,6.7-10.8,11.4s-17.5,6.7-21.5,12.8s-4,10.1-10.1,10.1s-20.2-7.4-24.2-2.7
	s-14.1,4-16.2,4s-12.1,12.8-12.8,18.2s-0.7,18.2-7.4,24.2s-28.3-0.7-28.3-0.7s-44.4-8.8-68.7-4c0,0-22.9-2-29-5.4
	S414.3,660,414.3,660s-26.3,20.9-41.8,24.9s-37,10.1-56.6,34.3c0,0-6.1,1.3-8.1-2s-35,44.4-35,44.4s-0.7,12.1-13.5,20.9
	s-32.3,11.4-38.4,45.1l-0.7,22.9l629.5,0.7L849.3,0.8L355.7,1.5z"/>
<path class="st2" d="M100.7,848.5h86.9c0,0,25.3-25.3,18.7-30.8s-28.6-8.8-45.1,0s-26.4,13.2-34.1,12.1S100.7,848.5,100.7,848.5z"/>
<path class="st3" d="M-1.8,804.9c0,0,22.8-34.6,26.9-53.2s0-29.1,0.8-46.9s9.7-37.2,9.7-37.2c5.7-45.3,12.1-57.4,24.2-74.4
	s11.3-25.9,12.9-42s29.1-65.5,33.1-86.5s15.4-63.9,15.4-63.9l7.3-20.2c7.3-20.2,36.4-17.8,40.4-34.8s14.6-42,27.5-59.8
	s8.9-59,13.7-88.9s12.9-30.7,26.7-55.8s1.7-42.1,7.4-85.8s31.9-55.2,31.9-55.2S248,5.3,219.3,5.3s-38.4,18.9-55.8,27.6
	S68.3,60,44.5,63.7s-33.6,1.1-48.2-0.5"/>
<text transform="matrix(1 0 0 1 315.2 70.83)" class="st4 st5 st6">KØGE</text>
<text transform="matrix(1 0 0 1 235.42 191.65)" class="st4 st5 st6">HERFØLGE</text>
<text transform="matrix(1 0 0 1 375 190.08)" class="st4 st5 st6">STRØBY EGEDE</text>
<text transform="matrix(1 0 0 1 459.45 267.67)" class="st4 st5 st6">STRØBY</text>
<text transform="matrix(1 0 0 1 387.18 360.59)" class="st4 st5 st6">HÅRLEV</text>
<text transform="matrix(1 0 0 1 514.56 360.8)" class="st4 st5 st6">KLIPPINGE</text>
<text transform="matrix(1 0 0 1 625.37 456.92)" class="st4 st5 st6">STORE </text>
<text transform="matrix(1 0 0 1 612.23 474.92)" class="st4 st5 st6">HEDDINGE</text>
<text transform="matrix(1 0 0 1 333.12 472.96)" class="st4 st5 st6">KARISE</text>
<text transform="matrix(1 0 0 1 43.68 510.67)" class="st4 st5 st6">ULSE</text>
<path class="st4" d="M181,587.5l1.2-1.3h1.5c0,1.7,0,4.9,0,7v2.9l-0.4,0.4h-1H181v-0.8l-3.2,1c-5.1,0-6-2.4-6-5.6v-8.8
	c0-1.7,0.8-5.2,6-5.2c4.8,0,5.9,1.7,5.9,4.8l-0.4,0.4h-1.9l-0.4-0.4c-0.1-1.9-1-2.2-3.3-2.2c-1.7,0-3.4,0.3-3.4,2.7v8.8
	c0,2.4,1,3,3.4,3c0.3,0,3.3-0.3,3.3-0.3L181,587.5z"/>
<path class="st4" d="M186.8,595.9v-18.5l0.4-0.3H198l0.3,0.3v1.9l-0.4,0.4h-8.6v5.2h7.9l0.4,0.3v1.9l-0.4,0.3h-7.9v6.3h8.6l0.3,0.4
	v1.8l-0.3,0.4h-10.8L186.8,595.9z"/>
<path class="st4" d="M206.5,596.7c-4.3,0-6.1-2.3-6.1-5v-10c0-2.5,1.6-5.2,6.1-5.2c4.3,0,6.1,2.6,6.1,5.2v10
	C212.6,594.4,210.9,596.7,206.5,596.7z M210,581.8c0-2.2-1.6-2.8-3.5-2.8c-2.2,0-3.5,0.7-3.5,2.8v9.9c0,2,2.3,2.5,3.4,2.5h0.4
	c1,0,3.3-0.4,3.3-2.5L210,581.8z"/>
<path class="st4" d="M230.4,577.5V596l-0.4,0.4h-1.9l-0.4-0.4v-14.3l-0.6,1.8l-3.3,6.8h-2.1l-3.5-7.2l-0.4-1.5V596l-0.3,0.4h-2
	l-0.3-0.4v-18.5l0.4-0.4h2.7l4.6,9.4l4.5-9.4h2.7L230.4,577.5z"/>
<path class="st4" d="M245.2,577.5v13.7c0,3.7-1.8,5.5-6.1,5.5s-6.1-1.8-6.1-5.5v-13.6l0.3-0.4h1.9l0.4,0.4v13.6c0,2.2,1.3,3,3.5,3
	s3.5-0.9,3.5-3v-13.6l0.4-0.4h1.9L245.2,577.5z"/>
<path class="st4" d="M259.7,591.3c0,3.6-1.6,5.3-6.1,5.3c-4.3,0-5.9-1.9-6-5l0.4-0.3h1.9l0.3,0.3c0.1,1.8,1.3,2.4,3.4,2.4
	c2.9,0,3.6-0.7,3.6-2.8c0.1-1-0.5-2-1.5-2.4c-0.6-0.3-3.4-1.7-5.2-2.5c-1.5-0.8-2.6-1.8-2.6-4.5c0-2.9,1.4-5,5.7-5
	c4.3,0,5.8,1.2,5.9,4.8l-0.4,0.3h-1.9l-0.4-0.4c-0.1-1.8-0.6-2.2-3.2-2.2s-3.1,0.9-3.1,2.3c-0.1,1,0.5,2,1.5,2.4
	c3,1.3,4,1.8,4.7,2.2C258.7,587.3,259.7,588.3,259.7,591.3z"/>
<path class="st4" d="M262.3,595.9v-18.5l0.4-0.3h10.8l0.3,0.3v1.9l-0.4,0.4h-8.5v5.2h7.9l0.4,0.3v1.9l-0.4,0.3h-7.9v6.3h8.5l0.3,0.4
	v1.8l-0.3,0.4h-10.7L262.3,595.9z"/>
<path class="st4" d="M288,577.5v13.7c0,3.7-1.8,5.5-6.1,5.5s-6.1-1.8-6.1-5.5v-13.6l0.3-0.4h1.9l0.4,0.4v13.6c0,2.2,1.3,3,3.5,3
	s3.5-0.9,3.5-3v-13.6l0.4-0.4h1.9L288,577.5z"/>
<path class="st4" d="M305.9,577.5V596l-0.4,0.4h-1.9l-0.4-0.4v-14.3l-0.6,1.8l-3.3,6.8h-2.1l-3.5-7.2l-0.4-1.5V596l-0.3,0.4h-2
	l-0.3-0.4v-18.5l0.4-0.4h2.7l4.6,9.4l4.5-9.4h2.7L305.9,577.5z"/>
<path class="st4" d="M314.8,596.3v-18.9l0.4-0.3H326l0.3,0.3v1.9l-0.4,0.4h-8.5v5.2h7.9l0.4,0.3v1.9l-0.4,0.3h-7.9v8.5l-0.4,0.4
	L314.8,596.3z"/>
<path class="st4" d="M337.3,577.5l4.3,18.3v0.5H339l-1.2-5.2H331c-0.4,1.7-0.8,3.6-1.1,5.2h-2.6v-0.5l4.2-18.3l0.5-0.4h5
	L337.3,577.5z M337.2,588.5c-0.6-3-1.3-5.9-1.9-8.9h-1.8l-2,8.9H337.2z"/>
<path class="st4" d="M355,596.3h-1.8l-4.2-7c-0.4,0.6-0.7,1.1-4.3,7H343l-0.4-0.4v-1.2l4.9-8.1l-4.9-8.1v-1l0.3-0.4h1.8l4.3,6.9
	c1.1-1.8,2.2-3.6,4.3-6.9h1.7l0.4,0.4v1.2l-4.9,8c1.7,2.7,3.3,5.4,4.9,8v1.4L355,596.3z"/>
<path class="st4" d="M357.7,595.9v-18.5l0.4-0.3h10.8l0.3,0.3v1.9l-0.4,0.4h-8.5v5.2h7.9l0.4,0.3v1.9l-0.4,0.3h-7.9v6.3h8.6l0.3,0.4
	v1.8l-0.3,0.4h-10.7L357.7,595.9z"/>
<path class="st4" d="M667,513.7c0,3.6-1.6,5.3-6.2,5.3c-4.3,0-5.9-1.9-6-5l0.3-0.3h1.9l0.3,0.3c0.1,1.8,1.3,2.4,3.3,2.4
	c2.9,0,3.6-0.7,3.6-2.8c0.1-1.1-0.5-2-1.5-2.4c-0.6-0.3-3.3-1.7-5.2-2.5c-1.5-0.8-2.6-1.8-2.6-4.5c0-2.9,1.4-5,5.7-5
	s5.8,1.2,5.9,4.8l-0.3,0.4h-2L664,504c0-1.8-0.6-2.2-3.2-2.2s-3.1,0.9-3.1,2.3c-0.1,1,0.5,2,1.5,2.4c3,1.4,4,1.8,4.7,2.2
	C666,509.6,667,510.6,667,513.7z"/>
<path class="st4" d="M673.1,518.7v-16.6h-4.5l-0.3-0.4v-1.9l0.3-0.4h11.6l0.3,0.4v1.9l-0.4,0.4h-4.4v16.2l-0.3,0.4L673.1,518.7z"/>
<path class="st4" d="M682.5,518.3v-18.5l0.4-0.4h10.8l0.3,0.4v1.9l-0.3,0.4h-8.5v5.2h7.9l0.4,0.4v1.9l-0.4,0.4h-7.9v6.3h8.6l0.3,0.4
	v1.8l-0.3,0.4H683L682.5,518.3z"/>
<path class="st4" d="M709.9,499.8v0.9l-5.1,18h-4.5c-3.5-11.9-4.3-15-5.1-17.8v-1l0.4-0.4h1.9c1.4,5.2,3,10.4,4.8,16.5v0.1h0.6V516
	l4.8-16.5h1.9L709.9,499.8z"/>
<path class="st4" d="M724,499.8v18.5l-0.3,0.4h-2.6l-6.3-12.5l-0.7-2v14.1l-0.3,0.4h-1.9l-0.3-0.4v-18.5l0.3-0.4h2.5l6.5,12.8
	l0.6,1.8v-14.3l0.4-0.4h1.9L724,499.8z"/>
<path class="st4" d="M738.6,513.7c0,3.6-1.6,5.3-6.2,5.3c-4.3,0-5.9-1.9-6-5l0.3-0.3h1.9l0.3,0.3c0.1,1.8,1.3,2.4,3.3,2.4
	c2.9,0,3.6-0.7,3.6-2.8c0.1-1.1-0.5-2-1.5-2.4c-0.6-0.3-3.3-1.7-5.2-2.5c-1.5-0.8-2.6-1.8-2.6-4.5c0-2.9,1.4-5,5.7-5
	s5.8,1.2,5.9,4.8l-0.3,0.4h-2l-0.3-0.4c0-1.8-0.6-2.2-3.2-2.2s-3.1,0.9-3.1,2.3c-0.1,1,0.5,2,1.5,2.4c3,1.4,4,1.8,4.7,2.2
	C737.6,509.6,738.6,510.6,738.6,513.7z"/>
<path class="st4" d="M752.7,509.1v0.4c2.1,2.6,4.2,5.3,6.3,7.9v1l-0.3,0.4h-1.9c-2.2-2.5-4.2-5.3-6.4-7.9h-1.3v7.5l-0.3,0.4h-1.9
	l-0.4-0.4v-18.5l0.4-0.4h1.9l0.3,0.4v8.4h1.1c2-2.9,4.1-5.9,6.1-8.8h1.8l0.3,0.4v1L752.7,509.1z"/>
<path class="st4" d="M772.3,516.5v1.8l-0.3,0.4h-10.6l-0.3-0.4v-18.5l0.4-0.4h1.9l0.3,0.4v16.3h8.4L772.3,516.5z"/>
<path class="st4" d="M777.7,518.3l-0.3,0.4h-1.9l-0.4-0.4v-18.5l0.4-0.4h1.9l0.3,0.4L777.7,518.3z"/>
<path class="st4" d="M793.7,499.8v18.5l-0.3,0.4h-2.6l-6.3-12.5l-0.7-2v14.1l-0.3,0.4h-1.9l-0.3-0.4v-18.5l0.3-0.4h2.5l6.5,12.8
	l0.6,1.8v-14.3l0.4-0.4h1.9L793.7,499.8z"/>
<path class="st4" d="M800.2,518.7v-16.6h-4.5l-0.3-0.4v-1.9l0.3-0.4h11.6l0.3,0.4v1.9l-0.4,0.4h-4.4v16.2l-0.3,0.4L800.2,518.7z"/>
<text transform="matrix(1 0 0 1 308.08 698.95)" class="st4 st5 st6">FAXE</text>
<text transform="matrix(1 0 0 1 283.41 716.95)" class="st4 st5 st6">L</text>
<text transform="matrix(1 0 0 1 292.9 716.95)" class="st4 st5 st6">ADEP</text>
<text transform="matrix(1 0 0 1 331.74 716.95)" class="st4 st5 st6">L</text>
<text transform="matrix(1 0 0 1 341.23 716.95)" class="st4 st5 st6">ADS</text>
<text transform="matrix(1 0 0 1 121.72 296)" class="st4 st5 st6">TUREBY</text>
<circle class="st4" cx="264.4" cy="560" r="9.7"/>
<path class="st4" d="M586.5,609.5v0.3c2.1,2.6,4.2,5.3,6.3,7.9v1l-0.3,0.4h-1.9c-2.2-2.5-4.2-5.3-6.4-7.9h-1.3v7.6l-0.3,0.4h-1.9
	l-0.4-0.4v-18.5l0.4-0.4h1.9l0.3,0.4v8.4h1.1c2-2.9,4.1-5.9,6.1-8.8h1.8l0.3,0.4v1L586.5,609.5z"/>
<path class="st4" d="M601.1,619.5c-4.3,0-6.1-2.3-6.1-5v-10c0-2.5,1.7-5.2,6.1-5.2c4.3,0,6.1,2.6,6.1,5.2v10
	C607.2,617.2,605.5,619.5,601.1,619.5z M604.6,604.7c0-2.2-1.6-2.8-3.5-2.8c-2.2,0-3.5,0.7-3.5,2.8v9.9c0,2,2.3,2.5,3.3,2.5h0.4
	c1,0,3.3-0.4,3.3-2.5V604.7z"/>
<path class="st4" d="M620.8,616.9v1.8l-0.3,0.4h-10.6l-0.3-0.4v-18.5l0.4-0.4h1.9l0.3,0.4v16.3h8.4L620.8,616.9z"/>
<path class="st4" d="M635.2,605.2v8.7c0,1.7-0.9,5.3-5.2,5.3h-6.2l-0.5-0.4v-18.5l0.5-0.3h6.2c2.8-0.2,5.1,1.9,5.3,4.7
	C635.2,604.7,635.2,604.9,635.2,605.2z M632.6,605.2c0-2.3-1.5-2.7-2.5-2.7h-4.2v14.1h4.2c1,0,2.5-0.5,2.5-2.7L632.6,605.2z"/>
<path class="st4" d="M643.6,609.5v0.3c2.1,2.6,4.2,5.3,6.3,7.9v1l-0.3,0.4h-1.9c-2.2-2.5-4.2-5.3-6.4-7.9H640v7.6l-0.3,0.4h-1.9
	l-0.3-0.4v-18.5l0.3-0.4h1.9l0.3,0.4v8.4h1c2-2.9,4.1-5.9,6.1-8.8h1.9l0.3,0.4v1L643.6,609.5z"/>
<path class="st4" d="M664.5,619.2h-2l-4.7-8.1c-0.6,0-1.2-0.1-1.8-0.1l-0.8-0.5v8.3l-0.3,0.4H653l-0.3-0.4v-18.5l0.3-0.3h6.3
	c4.1,0,5.1,2.4,5.1,5v1.5c0,1.1-0.4,4.3-3.5,4.7c1.3,2.3,2.8,4.8,4.1,7.1v0.8L664.5,619.2z M658.9,608.7c2,0,2.7-0.6,2.7-2.4V605
	c0-1.9-0.8-2.4-2.5-2.4h-4v6.2L658.9,608.7z"/>
<path class="st4" d="M670.7,618.8l-0.3,0.4h-1.9l-0.4-0.4v-18.5l0.4-0.4h1.9l0.3,0.4L670.7,618.8z"/>
<path class="st4" d="M683.3,610.3l1.2-1.3h1.5c0,1.7,0,4.9,0,7v2.8l-0.4,0.4h-1h-1.3v-0.8l-3.2,1c-5.1,0-6-2.4-6-5.6V605
	c0-1.7,0.8-5.2,6-5.2c4.8,0,5.9,1.7,5.9,4.8l-0.3,0.4h-1.9l-0.4-0.4c-0.1-1.9-1-2.2-3.3-2.2c-1.7,0-3.4,0.3-3.4,2.7v8.8
	c0,2.4,1,3,3.4,3c0.3,0,3.3-0.3,3.3-0.3L683.3,610.3z"/>
<path class="st4" d="M700.6,614.2c0,3.6-1.6,5.3-6.2,5.3c-4.3,0-5.9-1.9-6-5l0.3-0.3h1.9l0.3,0.3c0.1,1.8,1.3,2.4,3.3,2.4
	c2.9,0,3.6-0.7,3.6-2.8c0.1-1.1-0.5-2-1.5-2.4c-0.6-0.3-3.3-1.7-5.2-2.5c-1.5-0.8-2.6-1.8-2.6-4.5c0-2.9,1.4-5,5.7-5
	s5.8,1.2,5.9,4.8l-0.3,0.4h-1.9l-0.4-0.4c0-1.8-0.6-2.2-3.2-2.2s-3.1,0.9-3.1,2.3c-0.1,1,0.5,2,1.5,2.4c3,1.3,4,1.8,4.7,2.2
	C699.6,610.1,700.6,611.1,700.6,614.2z"/>
<path class="st4" d="M718.1,600.3v18.5l-0.3,0.4h-1.9l-0.3-0.3v-14.3l-0.6,1.8l-3.3,6.8h-2.1l-3.5-7.2l-0.4-1.5v14.4l-0.3,0.3h-2
	l-0.3-0.3v-18.5l0.3-0.4h2.7l4.6,9.4l4.5-9.4h2.7L718.1,600.3z"/>
<path class="st4" d="M732.9,600.3V614c0,3.7-1.8,5.5-6.1,5.5s-6.1-1.8-6.1-5.5v-13.7l0.3-0.4h1.9l0.4,0.4v13.6c0,2.2,1.3,3,3.5,3
	s3.5-0.9,3.5-3v-13.6l0.3-0.4h1.9L732.9,600.3z"/>
<path class="st4" d="M747.4,614.2c0,3.6-1.6,5.3-6.2,5.3c-4.3,0-5.9-1.9-6-5l0.3-0.3h1.9l0.3,0.3c0.1,1.8,1.3,2.4,3.3,2.4
	c2.9,0,3.6-0.7,3.6-2.8c0.1-1.1-0.5-2-1.5-2.4c-0.6-0.3-3.3-1.7-5.2-2.5c-1.5-0.8-2.6-1.8-2.6-4.5c0-2.9,1.4-5,5.7-5
	s5.8,1.2,5.9,4.8l-0.3,0.4h-1.9l-0.4-0.4c0-1.8-0.6-2.2-3.2-2.2s-3.1,0.9-3.1,2.3c-0.1,1,0.5,2,1.5,2.4c3,1.3,4,1.8,4.7,2.2
	C746.4,610.1,747.4,611.1,747.4,614.2z"/>
<path class="st4" d="M750,618.7v-18.5l0.4-0.3h10.8l0.3,0.3v1.9l-0.4,0.4h-8.5v5.2h7.9l0.3,0.3v1.9l-0.3,0.3h-7.9v6.3h8.5l0.3,0.4
	v1.8l-0.3,0.4h-10.7L750,618.7z"/>
<path class="st4" d="M775.8,600.3V614c0,3.7-1.8,5.5-6.1,5.5s-6.1-1.8-6.1-5.5v-13.7l0.3-0.4h1.9l0.4,0.4v13.6c0,2.2,1.3,3,3.5,3
	s3.5-0.9,3.5-3v-13.6l0.3-0.4h1.9L775.8,600.3z"/>
<path class="st4" d="M793.6,600.3v18.5l-0.3,0.4h-1.9l-0.3-0.3v-14.3l-0.6,1.8l-3.3,6.8H785l-3.5-7.2l-0.4-1.5v14.4l-0.3,0.3h-2
	l-0.3-0.3v-18.5l0.3-0.4h2.7l4.6,9.4l4.5-9.4h2.7L793.6,600.3z"/>
<path class="st4" d="M629.3,646.6c0,3.6-1.6,5.3-6.2,5.3c-4.3,0-5.9-1.9-6-5l0.3-0.3h1.9l0.3,0.3c0.1,1.8,1.3,2.4,3.3,2.4
	c2.9,0,3.6-0.7,3.6-2.8c0.1-1.1-0.5-2-1.5-2.4c-0.6-0.3-3.3-1.7-5.2-2.5c-1.5-0.8-2.6-1.8-2.6-4.5c0-2.9,1.4-5,5.7-5
	s5.8,1.2,5.9,4.8l-0.3,0.3h-2l-0.3-0.4c0-1.8-0.6-2.2-3.2-2.2s-3.1,0.9-3.1,2.3c-0.1,1,0.5,2,1.5,2.4c3,1.3,4,1.8,4.7,2.2
	C628.3,642.5,629.3,643.5,629.3,646.6z"/>
<path class="st4" d="M635.4,651.6V635h-4.5l-0.3-0.3v-1.9l0.3-0.4h11.6l0.3,0.3v1.9l-0.4,0.4H638v16.2l-0.3,0.4L635.4,651.6z"/>
<path class="st4" d="M644.8,651.1v-18.5l0.4-0.3h10.8l0.3,0.3v1.9l-0.3,0.4h-8.5v5.2h7.9l0.3,0.3v1.9l-0.3,0.3h-7.9v6.3h8.6l0.3,0.4
	v1.8l-0.3,0.4h-10.8L644.8,651.1z"/>
<path class="st4" d="M672.1,632.7v0.9l-5.1,18h-4.5c-3.5-11.9-4.3-15-5.1-17.8v-1l0.4-0.4h1.9c1.4,5.2,3,10.5,4.8,16.5v0.1h0.6v-0.1
	l4.8-16.5h1.9L672.1,632.7z"/>
<path class="st4" d="M686.3,632.7v18.5l-0.3,0.4h-2.6l-6.3-12.6l-0.7-2v14.2l-0.3,0.4h-1.9l-0.3-0.4v-18.4l0.3-0.4h2.5l6.5,12.8
	l0.6,1.8v-14.2l0.4-0.3h1.9L686.3,632.7z"/>
<path class="st4" d="M700.8,646.6c0,3.6-1.6,5.3-6.2,5.3c-4.3,0-5.9-1.9-6-5l0.3-0.3h1.9l0.4,0.3c0.1,1.8,1.3,2.4,3.3,2.4
	c2.9,0,3.6-0.7,3.6-2.8c0.1-1.1-0.5-2-1.5-2.4c-0.6-0.3-3.3-1.7-5.2-2.5c-1.5-0.8-2.6-1.8-2.6-4.5c0-2.9,1.4-5,5.7-5
	s5.8,1.2,5.9,4.8l-0.3,0.3h-1.9l-0.3-0.4c-0.1-1.8-0.6-2.2-3.2-2.2s-3.1,0.9-3.1,2.3c-0.1,1,0.5,2,1.5,2.4c3,1.3,4,1.8,4.7,2.2
	C699.8,642.5,700.8,643.5,700.8,646.6z"/>
<path class="st4" d="M703.4,651.6v-18.9l0.4-0.3h10.8l0.3,0.3v1.9l-0.3,0.4H706v5.2h7.9l0.3,0.3v1.9l-0.3,0.3H706v8.5l-0.4,0.4
	L703.4,651.6z"/>
<path class="st4" d="M722.8,651.9c-4.3,0-6.1-2.3-6.1-5V637c0-2.5,1.7-5.2,6.1-5.2c4.3,0,6.1,2.6,6.1,5.2v10
	C729,649.6,727.2,651.9,722.8,651.9z M726.4,637.1c0-2.2-1.6-2.8-3.5-2.8c-2.2,0-3.5,0.7-3.5,2.8v9.9c0,2,2.3,2.5,3.3,2.5h0.4
	c1,0,3.3-0.4,3.3-2.5V637.1z"/>
<path class="st4" d="M743.9,651.6h-2l-4.7-8.1c-0.6,0-1.2-0.1-1.8-0.1l-0.8-0.5v8.3l-0.4,0.4h-1.9l-0.3-0.4v-18.5l0.3-0.3h6.3
	c4.1,0,5.1,2.4,5.1,5v1.5c0,1.1-0.4,4.3-3.5,4.7c1.3,2.3,2.8,4.8,4.1,7.1v0.8L743.9,651.6z M738.3,641.1c2,0,2.7-0.6,2.7-2.4v-1.3
	c0-1.9-0.8-2.4-2.5-2.4h-4v6.2H738.3z"/>
<path class="st4" d="M750.5,651.6V635H746l-0.3-0.3v-1.9l0.3-0.4h11.6l0.3,0.3v1.9l-0.4,0.4h-4.4v16.2l-0.3,0.4L750.5,651.6z"/>
<circle class="st4" cx="684.5" cy="581" r="9.7"/>
<circle class="st4" cx="737.9" cy="538.5" r="9.7"/>
<circle class="st4" cx="194.5" cy="620.2" r="9.7"/>
<path class="st4" d="M146.7,637v17.8l-0.3,0.4h-2.5l-6-12.1l-0.7-1.9v13.6l-0.3,0.4H135l-0.3-0.4v-17.8l0.3-0.4h2.4l6.2,12.4
	l0.6,1.7V637l0.4-0.3h1.8L146.7,637z"/>
<path class="st4" d="M150.5,636.6l4.4,8.8l4.2-8.8h1.7l0.3,0.4v1c-0.8,1.6-1.6,3.3-2.3,4.9s-1.6,3.6-2.5,5.3h-0.2v6.6l-0.4,0.4h-2.1
	v-7h-0.3l-5.1-10.3V637l0.4-0.4L150.5,636.6z"/>
<path class="st4" d="M163.3,654.8V637l0.4-0.3H174l0.3,0.3v1.8l-0.3,0.4h-8.2v5h7.6l0.3,0.3v1.8l-0.3,0.3h-7.6v6.1h8.2l0.3,0.4v1.7
	l-0.3,0.4h-10.3L163.3,654.8z"/>
<path class="st4" d="M188.4,655.2h-2l-4.5-7.8c-0.6,0-1.2,0-1.7,0l-0.8-0.5v8l-0.3,0.4h-1.8l-0.3-0.4V637l0.3-0.3h6.1
	c3.9,0,4.9,2.3,4.9,4.8v1.4c0,1-0.4,4.2-3.4,4.5c1.3,2.2,2.7,4.6,4,6.8v0.7L188.4,655.2z M183,645.2c1.9,0,2.6-0.5,2.6-2.3v-1.3
	c0-1.8-0.7-2.3-2.4-2.3h-3.8v6L183,645.2z"/>
<path class="st4" d="M191.3,654.8V637l0.4-0.3h10.4l0.3,0.3v1.8l-0.3,0.4h-8.2v5h7.6l0.3,0.3v1.8l-0.3,0.3h-7.6v6.1h8.2l0.3,0.4v1.7
	l-0.3,0.4h-10.3L191.3,654.8z"/>
<path class="st4" d="M213.9,655.2v-16h-4.3l-0.3-0.3V637l0.3-0.4h11.1l0.3,0.3v1.8l-0.4,0.4h-4.3v15.6l-0.3,0.4L213.9,655.2z"/>
<path class="st4" d="M226,654.8l-0.3,0.4h-1.8l-0.4-0.4V637l0.4-0.4h1.8l0.3,0.4L226,654.8z"/>
<path class="st4" d="M241.1,641.7v8.4c0.2,2.6-1.8,4.9-4.5,5.1c-0.2,0-0.3,0-0.5,0h-6l-0.5-0.4V637l0.4-0.3h5.9
	c2.7-0.1,4.9,1.9,5.1,4.6C241.1,641.4,241.1,641.6,241.1,641.7z M238.6,641.8c0.2-1.3-0.7-2.4-2-2.6c-0.2,0-0.3,0-0.5,0h-4.1v13.6
	h4.1c1.3,0.1,2.4-0.9,2.4-2.2c0-0.2,0-0.3,0-0.5V641.8z"/>
<path class="st4" d="M255,650.4c0,3.4-1.6,5.2-5.9,5.2c-4.2,0-5.7-1.8-5.8-4.8l0.3-0.3h1.8l0.3,0.3c0.1,1.7,1.2,2.3,3.2,2.3
	c2.8,0,3.5-0.7,3.5-2.7c0.1-1-0.5-2-1.4-2.3c-0.6-0.3-3.2-1.6-5-2.5c-1.5-0.8-2.5-1.7-2.5-4.3c0-2.8,1.4-4.8,5.5-4.8
	s5.6,1.2,5.7,4.7l-0.3,0.3h-1.9l-0.3-0.4c-0.1-1.7-0.6-2.2-3.1-2.2s-3,0.8-3,2.2c-0.1,1,0.5,1.9,1.4,2.3c2.9,1.3,3.8,1.7,4.6,2.1
	C254,646.5,255,647.4,255,650.4z"/>
<path class="st4" d="M123,677.1v0.3c2,2.5,4.1,5.1,6,7.6v1l-0.3,0.4h-1.8c-2.1-2.5-4-5.1-6.1-7.7h-1.2v7.2l-0.3,0.4h-1.8L117,686
	v-17.8l0.3-0.4h1.8l0.3,0.4v8.1h1c1.9-2.8,3.9-5.7,5.9-8.5h1.7l0.3,0.4v0.9L123,677.1z"/>
<path class="st4" d="M142.8,668.2v13.2c0,3.6-1.8,5.3-5.9,5.3s-5.9-1.7-5.9-5.3v-13.1l0.3-0.4h1.8l0.4,0.4v13.1
	c0,2.1,1.2,2.9,3.4,2.9s3.4-0.9,3.4-2.9v-13.1l0.3-0.4h1.8L142.8,668.2z"/>
<path class="st4" d="M156,684.3v1.7l-0.3,0.4h-10.2l-0.3-0.4v-17.8l0.4-0.4h1.8l0.3,0.4v15.7h8.1L156,684.3z"/>
<path class="st4" d="M160,686.4v-16h-4.3l-0.3-0.3v-1.8l0.3-0.4h11.1l0.3,0.3v1.8l-0.4,0.4h-4.3V686l-0.3,0.4L160,686.4z"/>
<path class="st4" d="M180.4,668.2v13.2c0,3.6-1.8,5.3-5.9,5.3s-5.9-1.7-5.9-5.3v-13.1l0.3-0.4h1.8l0.4,0.4v13.1
	c0,2.1,1.2,2.9,3.4,2.9s3.4-0.9,3.4-2.9v-13.1l0.3-0.4h1.8L180.4,668.2z"/>
<path class="st4" d="M194.8,686.4h-2l-4.5-7.8c-0.6,0-1.2,0-1.7,0l-0.8-0.5v8l-0.3,0.4h-1.8l-0.3-0.4v-17.8l0.3-0.3h6.1
	c4,0,4.9,2.3,4.9,4.8v1.4c0,1-0.4,4.2-3.4,4.5c1.3,2.2,2.7,4.6,4,6.8v0.7L194.8,686.4z M189.4,676.3c1.9,0,2.6-0.5,2.6-2.3v-1.3
	c0-1.8-0.7-2.3-2.4-2.3h-3.8v6L189.4,676.3z"/>
<path class="st4" d="M212.1,668.2V686l-0.3,0.4H210l-0.3-0.3v-13.7l-0.6,1.8l-3.1,6.5h-2l-3.4-6.9l-0.4-1.4v13.9l-0.3,0.3h-1.9
	l-0.3-0.3v-17.8l0.3-0.4h2.6l4.4,9l4.3-9h2.6L212.1,668.2z"/>
<path class="st4" d="M226.4,668.2v13.2c0,3.6-1.8,5.3-5.9,5.3s-5.9-1.7-5.9-5.3v-13.1l0.3-0.4h1.8l0.4,0.4v13.1
	c0,2.1,1.2,2.9,3.4,2.9s3.4-0.9,3.4-2.9v-13.1l0.3-0.4h1.8L226.4,668.2z"/>
<path class="st4" d="M240.3,681.6c0,3.4-1.6,5.2-5.9,5.2c-4.2,0-5.7-1.8-5.7-4.8l0.3-0.3h1.8l0.3,0.3c0.1,1.7,1.2,2.3,3.2,2.3
	c2.8,0,3.5-0.7,3.5-2.7c0.1-1-0.5-2-1.4-2.3c-0.6-0.3-3.2-1.6-5-2.5c-1.4-0.8-2.4-1.8-2.4-4.3c0-2.8,1.4-4.8,5.5-4.8
	s5.6,1.2,5.7,4.7l-0.3,0.3h-1.9l-0.3-0.4c-0.1-1.7-0.6-2.2-3.1-2.2s-3,0.8-3,2.2c-0.1,1,0.5,1.9,1.4,2.3c2.9,1.3,3.8,1.7,4.6,2.1
	C239.4,677.7,240.3,678.6,240.3,681.6z"/>
<path class="st4" d="M242.8,686v-17.8l0.4-0.3h10.4l0.3,0.3v1.8l-0.3,0.4h-8.2v5h7.6l0.3,0.3v1.8l-0.3,0.3h-7.6v6.1h8.2l0.3,0.4v1.7
	l-0.3,0.4h-10.4L242.8,686z"/>
<path class="st4" d="M267.6,668.2v13.2c0,3.6-1.8,5.3-5.9,5.3s-5.9-1.7-5.9-5.3v-13.1l0.3-0.4h1.8l0.4,0.4v13.1
	c0,2.1,1.2,2.9,3.4,2.9s3.4-0.9,3.4-2.9v-13.1l0.3-0.4h1.8L267.6,668.2z"/>
<path class="st4" d="M284.8,668.2V686l-0.3,0.4h-1.9l-0.3-0.3v-13.7l-0.6,1.8l-3.1,6.5h-2l-3.4-6.9l-0.4-1.4v13.9l-0.3,0.3h-2
	l-0.3-0.3v-17.8l0.3-0.4h2.6l4.4,9l4.3-9h2.6L284.8,668.2z"/>
</svg>
