<svg id="Layer_1" data-name="Layer 1" xmlns="http://www.w3.org/2000/svg" xmlns:xlink="http://www.w3.org/1999/xlink" width="232.75" height="43.81" viewBox="0 0 232.75 43.81">
  <defs>
    <style>
      .cls-1 {
        fill: none;
      }

      .cls-2 {
        fill: #fff;
      }

      .cls-3 {
        clip-path: url(#clip-path);
      }

      .cls-4 {
        fill: #9ab04c;
      }

      .cls-5 {
        clip-path: url(#clip-path-3);
      }
    </style>
    <clipPath id="clip-path">
      <polyline class="cls-1" points="40.99 21 40.99 39.37 0.99 39.37 0.99 21"/>
    </clipPath>
    <clipPath id="clip-path-3">
      <rect class="cls-1" x="48.99" width="129.71" height="43.26"/>
    </clipPath>
  </defs>
  <title>nyeretid-footer</title>
  <path class="cls-2" d="M0,23.52H0l.09-.07h0Z"/>
  <polygon class="cls-2" points="2.86 -0.33 43.33 -0.33 43.8 0.13 43.8 3.12 26.55 20.37 26.55 22.67 43.8 39.92 43.8 42.91 43.33 43.37 2.86 43.37 2.4 42.91 2.4 0.13 2.86 -0.33"/>
  <g id="Vector_Smart_Object" data-name="Vector Smart Object">
    <g class="cls-3">
      <g class="cls-3">
        <g>
          <path class="cls-2" d="M39.88,22.47c.33.13.5-.18.29-.27"/>
          <path class="cls-2" d="M37.44,22.82a.15.15,0,0,0,.07-.2.16.16,0,0,0-.07-.07"/>
          <path class="cls-2" d="M28.52,22.49c0-.09-.12-.09-.2,0"/>
          <path class="cls-4" d="M30.08,27.15c-.09,0-.21,0-.21.17,0,1-.54,1.32-1.16,2a2.16,2.16,0,0,0-.41,1.27c-.25,1.59-.46,3.17-.66,4.72l.24.09a7.4,7.4,0,0,1,4.22-6l-.21-.35a26.23,26.23,0,0,0-1.44,5.2c0,.52.16,1.32.74.83L31,35a11.76,11.76,0,0,1,.09,1.67c-.13,1-.29,1.19-1.2,1.28A2.5,2.5,0,0,1,27,36.21c-.05-.13-.17-.17-.25-.08-1,.92-1.74-1.41-2.28-1.9A1,1,0,0,0,23.38,34c-.08,0-.12.13-.12.22.24.61,1.24,3.52,2.27,2.9.37-.22.45-.92.58-1.27.41-1.24.78-2.47,1.2-3.66,0-.13-.17-.26-.25-.17a2.09,2.09,0,0,1-2.52.74.36.36,0,0,0,.08.27c.62-.62,1.49-.66,2.07-1.37a3.28,3.28,0,0,0,.66-1.89c0-1-.58-1.94-.29-2.86.2-.71.66-1.06.54-1.85-.25-1.59-1.58-1.72-2.73-1.24a2.67,2.67,0,0,0-1.61,1.46c-.21.53.12,1-.25,1.45v.18a6.46,6.46,0,0,0,0,.88.16.16,0,0,0,.09.21.08.08,0,0,0,.07,0c.91.09.54,1.67.58,2.33a3.36,3.36,0,0,1-.25,2.29c-.7,1.24-1.44,2.48-2.14,3.71a.39.39,0,0,0,.3,0c.09-1.06.19-2.4-.59-3.19a3.64,3.64,0,0,0-1.29-.57,2.24,2.24,0,0,1-1.4-1.1c-.5-.88-.13-1.37.16-2.16a1.32,1.32,0,0,0,.09-1.1,8.05,8.05,0,0,0-1.28-2.14c-.75-.83-2.19.06-3,.32.08.09.08.25.16.34.79-2.42,3.55-2.77,4.75-.57a3.59,3.59,0,0,1,.45,1.72,7.08,7.08,0,0,1-.37,1.59c-.21,1,.41,1.8-.54,2.64a16.69,16.69,0,0,0-1.62,1.26c-.21.27-.33.71-.74.49s-.54-1-.58-1.46c0-.83,0-.64.57-.86.41-.13.87-.11,1-.5a.19.19,0,0,0-.25-.18c-1.2.57-2-.79-2.2-1.79a9.94,9.94,0,0,1-.13-2.25c0-.17-.29-.22-.29,0-.12.88-.28,1.8-.41,2.69-.12.66-.58,1.1-.74,1.67a.89.89,0,0,0,.12.79c.13.18.41.27.46.44.12.53-1,1.54-1.24,1.94a6.08,6.08,0,0,0-.83,1.41,5,5,0,0,0,0,3.57.16.16,0,0,0,.25.09,3.85,3.85,0,0,0,.82-3c-.16-1.54-1.07-2.38-2-3.48-.21-.26-.29-.13-.33-.53a7.21,7.21,0,0,1,.32-.84,5.38,5.38,0,0,0,.12-2,10.71,10.71,0,0,0-1.57-4.14c-.25-.39-.74-1.54-1.36-1.05s-.41,2.29-.08,2.86.78.48.78,1.76a4.71,4.71,0,0,1-.21,1.19,6.83,6.83,0,0,0-.24,2.2c.12.62.62,1.15,1.2.71l-.25-.14c-.13,2.3-3.68,2.43-4.88,1.15-1.41-1.5-.7-4,0-5.64.29-.66.58-1.27.83-1.94.16-.44.29-.92.45-1.4a.44.44,0,0,1,.08-.31c.09-.8.58-1,1.45-.49.12.4-.29,1.24-.29,1.63a1,1,0,0,0,.26.75c0-.09.07-.09.15-.18-1.65-.35-2.1,2.43-1.94,3.66A3.19,3.19,0,0,0,6,31.55c.33.48.83,1.18.21,1.54-.25.17-.71.17-1,.31a8.69,8.69,0,0,0-.86.44c-.19.11-2,.48-1.95,1.5,0,.13,0-.05,0,.13s0,0,0,.09a2.19,2.19,0,0,1,0,.4v.14c0,.19,0,.7,0,0,0,0,0,0,0,0,.32-.47.62-.85.63-.87a6,6,0,0,1,3.52-1.84s.12,0,.12-.09a1.89,1.89,0,0,0-.41-1.93,3.72,3.72,0,0,1-.54-2.28c.08-.79.46-2.51,1.57-2.29.17,0,.25-.13.17-.26-.58-.75.41-1.89,0-2.77a.86.86,0,0,0-1.14-.42.91.91,0,0,0-.23.15c-.78.62-.9,2.29-1.28,3.17a20.42,20.42,0,0,0-1.4,3.75c-.37,2,.25,4.27,2.35,4.62,1.49.27,3.68-.31,3.81-2.2a.15.15,0,0,0-.13-.16.13.13,0,0,0-.12,0c-1,.79-.62-1.63-.62-1.72l.12-.79a7.6,7.6,0,0,0,.25-1.72,1.25,1.25,0,0,0-.29-.84c-.16-.22-.45-.39-.62-.66A2.69,2.69,0,0,1,8,25.51c0-.57.25-1,.83-.53a2.56,2.56,0,0,1,.46.8,12.79,12.79,0,0,1,1,1.93,5.66,5.66,0,0,1-.13,4.63.22.22,0,0,0,0,.22c1.78,1.41,3.43,4.27,1.62,6.38a1.53,1.53,0,0,0,.27.11,4.79,4.79,0,0,1,.79-4.62,6.29,6.29,0,0,0,1.43-2.38c0-.09,0-.22-.16-.22-1.12,0,0-1.28,0-1.54a4.55,4.55,0,0,0,.17-.66c.16-1,.26-2.26.42-3.23-.08,0-.17.13-.26.13,0,1.23-.08,2.83.7,3.85a1.61,1.61,0,0,0,2.07.57c-.08-.05-.23.06-.31,0-.41.18-.81.11-1.22.29a.22.22,0,0,0-.21.12,2.74,2.74,0,0,0,1,2.87.15.15,0,0,0,.2,0A7.42,7.42,0,0,1,19,32.05a1.25,1.25,0,0,0,.58-1.19,4.43,4.43,0,0,1-.13-1.5,11.47,11.47,0,0,0,.35-1.31,3.49,3.49,0,0,0-.37-2,2.84,2.84,0,0,0-5.43.3c-.05.13.08.22.2.22.79-.22,1.66-.71,2.4-.44A3.3,3.3,0,0,1,18,27.85c.41,1-.25,1.32-.38,2.2a1.93,1.93,0,0,0,.17,1.23,2.6,2.6,0,0,0,1.74,1.41c.74.22,1.36.44,1.61,1.37a7.47,7.47,0,0,1,.08,2.11.16.16,0,0,0,.16.16.15.15,0,0,0,.13-.07l2-3.48a2.77,2.77,0,0,0,.46-2.2c-.17-.93.2-2.07-.42-2.87-.08-.08-.28-.17-.33-.22a1.08,1.08,0,0,1,.21-1c.21-.12.08-.13,0-.22-1-2.15,3.72-3.92,3.68-1.05,0,.57-.41.88-.58,1.36a1.7,1.7,0,0,0,0,1,5.57,5.57,0,0,1,.13,3.08c-.5,1.28-1.62,1.19-2.44,2a.16.16,0,0,0,0,.22.13.13,0,0,0,.09,0,2.35,2.35,0,0,0,2.81-.83c-.08,0-.11.09-.2,0-.37,1.15-.79,2.11-1.2,3.3-.05.13-.21,1-.34,1-.37.14-1-.44-1.15-.7a4.78,4.78,0,0,1-.32-.64c-.07-.15-.2-.44-.24-.57.33-.31.56-.08.77.27.66.66,1.24,2.64,2.44,1.54-.08,0-.14,0-.22,0,.62,2.11,2.62,2.07,4.35,1.72.05,0,.09,0,.13-.13a12,12,0,0,0,.08-3,.15.15,0,0,0-.13-.16.13.13,0,0,0-.12,0,.92.92,0,0,1-.16-1.06c.08-.26.12-.53.2-.75.09-.38.21-.76.34-1.14.24-.89.57-1.77.86-2.6,0-.14-.08-.27-.2-.22a7.59,7.59,0,0,0-4.38,6.25c-.05.22.28.31.28.09.17-1.15.34-2.29.5-3.44a11.2,11.2,0,0,1,.25-1.71c.54-1.55.41-.53.87-1.15a2.39,2.39,0,0,0,.49-.79,4.57,4.57,0,0,1,.17-.71c0-.09.45-.17.7-.39"/>
          <path class="cls-2" d="M27.24,23.27c.5,0,1-.49,1.2.22a.15.15,0,0,0,.25.08"/>
          <path class="cls-2" d="M38.94,25.81a.16.16,0,0,0,.15.17.17.17,0,0,0,.1,0"/>
        </g>
      </g>
    </g>
  </g>
  <g id="Vector_Smart_Object-2" data-name="Vector Smart Object-2">
    <g class="cls-5">
      <g>
        <polygon class="cls-2" points="53.24 36.16 51.05 39.16 50.69 39.16 50.69 36.35 50.53 36.16 49.38 36.16 49.23 36.31 49.23 43.11 49.38 43.26 50.53 43.26 50.69 43.11 50.69 40.69 51.24 40.69 53.29 43.26 54.4 43.26 54.58 43.09 54.58 42.55 52.48 39.85 52.48 39.71 54.49 36.82 54.49 36.31 54.33 36.16 53.24 36.16"/>
        <polygon class="cls-2" points="71.65 36.16 69.46 39.16 69.1 39.16 69.1 36.35 68.93 36.16 67.79 36.16 67.63 36.31 67.63 43.11 67.79 43.26 68.93 43.26 69.1 43.11 69.1 40.69 69.65 40.69 71.7 43.26 72.81 43.26 72.98 43.09 72.98 42.55 70.89 39.85 70.89 39.71 72.9 36.82 72.9 36.31 72.73 36.16 71.65 36.16"/>
        <path class="cls-2" d="M58,37.37h.7l.63,2.94h-2Zm-1.09-1.22L55.19,43v.24h1.45L57,41.6h2.57L60,43.26h1.44V43l-1.68-6.86Z"/>
        <polygon class="cls-2" points="62.4 36.16 62.23 36.31 62.23 43.11 62.39 43.26 66.48 43.26 66.69 43.11 66.69 42 66.51 41.87 63.75 41.87 63.75 36.31 63.59 36.16 62.4 36.16"/>
        <g class="cls-5">
          <g>
            <path class="cls-2" d="M82.34,36.15H80.28l-1.61,7v.08h.89l.46-2h2.59l.46,2H84v-.09q-.81-3.49-1.61-7M80.2,40.48l.8-3.59h.63l.8,3.59Z"/>
            <path class="cls-2" d="M93.56,36.15H91.1l-.1.07v7a.6.6,0,0,0,.08.08H93.6a1.78,1.78,0,0,0,1.87-1.7V38a1.8,1.8,0,0,0-1.7-1.89h-.21m1.09,5.17c0,.93-.61,1.12-1,1.12H91.83V37h1.8a1,1,0,0,1,1,1,.53.53,0,0,1,0,.13Z"/>
            <polygon class="cls-2" points="89.56 36.15 88.84 36.15 88.77 36.22 88.77 41.98 88.59 41.48 86 36.15 84.98 36.15 84.9 36.23 84.9 43.17 84.98 43.25 85.7 43.25 85.78 43.17 85.78 37.45 85.92 37.91 88.51 43.24 89.56 43.25 89.63 43.16 89.63 36.22 89.56 36.15"/>
            <polygon class="cls-2" points="104.39 43.25 104.47 43.17 104.47 37.03 106.21 37.03 106.31 36.94 106.31 36.22 106.24 36.15 101.92 36.15 101.85 36.23 101.85 36.97 101.92 37.03 103.59 37.03 103.59 43.25 104.39 43.25"/>
            <path class="cls-2" d="M78.11,42.39H75V36.15h-.8l-.07.07v7l.07.08h4l.07-.08v-.7Z"/>
            <polygon class="cls-2" points="96.69 39.14 96.69 40.14 100.55 40.14 100.63 40.05 100.63 39.22 100.55 39.14 96.69 39.14"/>
            <polygon class="cls-2" points="96.69 42.29 96.69 43.15 96.79 43.25 100.78 43.25 100.85 43.17 100.85 42.38 100.77 42.29 96.69 42.29"/>
            <polygon class="cls-2" points="100.76 36.14 96.74 36.14 96.66 36.21 96.66 37.14 97.45 37.14 100.75 37.14 100.83 37.06 100.83 36.21 100.76 36.14"/>
            <polygon class="cls-2" points="58.81 0.33 58.81 14 58.67 14.18 56.91 14.16 51.55 3.67 51.25 2.77 51.25 14.02 51.11 14.18 49.83 14.18 49.67 14.02 49.67 0.35 49.83 0.2 51.53 0.2 56.91 10.69 57.25 11.69 57.25 0.33 57.41 0.2 58.67 0.2 58.81 0.33"/>
            <path class="cls-2" d="M65.36,7.31V7.12l3.4-7h1.16l.16.15V1c-1.3,2.63-2.4,5.16-3.7,7.76h-.26V14l-.18.18H64.52V8.74h-.28L60.32.9V.31l.16-.15H61.7l3.58,7v.19Z"/>
            <polygon class="cls-2" points="71.62 13.96 71.62 0.31 71.78 0.18 79.84 0.18 79.98 0.31 79.98 1.57 79.82 1.73 73.2 1.73 73.2 6 79.38 6 79.52 6.14 79.52 7.39 79.38 7.55 73.2 7.55 73.2 12.63 79.82 12.63 79.98 12.8 79.98 14 79.84 14.16 71.82 14.16 71.62 13.96"/>
            <path class="cls-2" d="M91.37,14.16H90L86.45,8.1,85,8.06l-.88-.51V14l-.18.16H82.73L82.55,14V.31l.14-.13h4.7c3,0,3.68,1.66,3.68,3.51V4.77c0,.8-.34,3.29-2.84,3.29l3.28,5.53V14ZM87.19,6.74c1.68,0,2.28-.48,2.28-2v-1c0-1.55-.64-2-2.12-2H84.13v5Z"/>
            <polygon class="cls-2" points="93.21 13.96 93.21 0.31 93.37 0.18 101.43 0.18 101.57 0.31 101.57 1.57 101.41 1.73 94.79 1.73 94.79 6 100.97 6 101.11 6.14 101.11 7.39 100.97 7.55 94.79 7.55 94.79 12.63 101.41 12.63 101.57 12.8 101.57 14 101.43 14.16 93.41 14.16 93.21 13.96"/>
            <polygon class="cls-2" points="110.82 14.16 110.82 1.75 107.3 1.75 107.16 1.61 107.16 0.33 107.3 0.18 115.96 0.18 116.1 0.31 116.1 1.55 115.9 1.75 112.42 1.75 112.42 14 112.26 14.16 110.82 14.16"/>
            <polygon class="cls-2" points="119.72 14 119.58 14.16 118.3 14.16 118.14 14 118.14 0.33 118.3 0.18 119.58 0.18 119.72 0.33 119.72 14"/>
            <path class="cls-2" d="M131.59,3.88v6.53a3.56,3.56,0,0,1-3.36,3.75h-5.17L122.9,14V.31l.2-.15h4.64a3.58,3.58,0,0,1,3.84,3.3,3,3,0,0,1,0,.42M130,3.94a2,2,0,0,0-1.75-2.22,1.53,1.53,0,0,0-.37,0h-3.42V12.63h3.44A2,2,0,0,0,130,10.75a2.17,2.17,0,0,0,0-.36Z"/>
            <path class="cls-2" d="M142.23,10.63c0,2.51-1.18,3.78-4.48,3.78s-4.3-1.31-4.36-3.45l.16-.14h1.28L135,11c.08,1.39,1,1.9,2.76,1.9,2.34,0,2.94-.57,2.94-2.27a1.9,1.9,0,0,0-1.22-2c-1.24-.63-2.46-1.18-4-1.9a3,3,0,0,1-1.86-3.16c0-2.06,1-3.53,4.14-3.53S142,.88,142,3.37l-.16.16h-1.3l-.16-.18c0-1.41-.52-1.8-2.66-1.8s-2.58.72-2.58,1.9a1.93,1.93,0,0,0,1.24,2c1,.47,2.58,1.14,3.6,1.61,1.48.68,2.2,1.39,2.2,3.61"/>
            <path class="cls-2" d="M53.91,24.75h0c.86,1.06,1.8,2.15,4.52,5.55v.86l-.37.41H56.47c-1.56-1.76-3-3.67-4.54-5.57h-.6v5.16l-.4.41H49.39l-.4-.41V18l.42-.43h1.52l.4.43v5.75h.42l4.34-6.18h1.48L58,18v.82Z"/>
            <path class="cls-2" d="M69.58,18v9.69c0,2.74-1.4,4.08-4.62,4.08s-4.6-1.36-4.6-4.1V18l.4-.43h1.5l.42.43v9.65c0,1.37.86,1.9,2.28,1.9s2.28-.57,2.28-1.9V18l.4-.43h1.52Z"/>
            <polygon class="cls-2" points="79.74 29.73 79.74 31.18 79.36 31.59 71.58 31.59 71.18 31.18 71.18 18.02 71.64 17.61 73.14 17.61 73.52 18.04 73.52 29.34 79.42 29.34 79.74 29.73"/>
            <polygon class="cls-2" points="82.61 31.59 82.61 19.92 79.57 19.92 79.17 19.53 79.17 18.04 79.57 17.61 88.03 17.61 88.41 18.02 88.41 19.47 87.97 19.92 84.95 19.92 84.95 31.18 84.55 31.59 82.61 31.59"/>
            <path class="cls-2" d="M98.49,18v9.69c0,2.74-1.4,4.08-4.62,4.08s-4.6-1.36-4.6-4.1V18l.4-.43h1.5l.42.43v9.65c0,1.37.86,1.9,2.28,1.9s2.28-.57,2.28-1.9V18l.4-.43h1.52Z"/>
            <path class="cls-2" d="M109.16,31.59h-1.68l-3.37-5.69H103l-.38-.37v5.65l-.4.41h-1.58l-.34-.41V18l.4-.41h4.59c3.12,0,3.86,1.78,3.86,3.72v1c0,.77-.24,3-2.42,3.44.54.94,1.1,1.86,1.66,2.78l1.18,2v.67Zm-4.08-7.78c1.28,0,1.72-.36,1.72-1.48v-.94c0-1.13-.46-1.49-1.56-1.49h-2.63v3.91Z"/>
            <path class="cls-2" d="M122.76,18V31.18l-.42.41h-1.52l-.4-.39V22.06L120,23.33c-.62,1.24-1.4,2.83-2,4h-1.8l-2-4.08-.4-1.18V31.2l-.32.39H111.8l-.34-.39V18l.4-.43H114l3.1,6.25,3.08-6.25h2.2Z"/>
            <path class="cls-2" d="M133.91,18v9.69c0,2.74-1.4,4.08-4.62,4.08s-4.61-1.36-4.61-4.1V18l.41-.43h1.5L127,18v9.65c0,1.37.86,1.9,2.28,1.9s2.28-.57,2.28-1.9V18l.4-.43h1.52Z"/>
            <path class="cls-2" d="M142.13,24.1c1.58.71,2.32,1.47,2.32,3.76,0,2.65-1.22,4-4.64,4s-4.46-1.45-4.52-3.82l.42-.39h1.5l.42.39c.06,1.12.82,1.53,2.16,1.53,1.88,0,2.36-.43,2.36-1.72a1.42,1.42,0,0,0-.94-1.51l-3.68-1.79a3.2,3.2,0,0,1-2-3.35c0-2.18,1.06-3.71,4.32-3.71s4.36.92,4.44,3.69l-.4.41h-1.58l-.38-.47c0-1.12-.36-1.39-2.08-1.39s-2,.51-2,1.37a1.51,1.51,0,0,0,.92,1.51Z"/>
            <polygon class="cls-2" points="146.19 31.14 146.19 18.02 146.61 17.61 154.51 17.61 154.9 18.02 154.9 19.49 154.5 19.9 148.53 19.9 148.53 23.1 154.08 23.1 154.47 23.49 154.47 24.98 154.08 25.37 148.53 25.37 148.53 29.34 154.53 29.34 154.9 29.79 154.9 31.18 154.51 31.59 146.65 31.59 146.19 31.14"/>
            <path class="cls-2" d="M165.66,18v9.69c0,2.74-1.4,4.08-4.62,4.08s-4.6-1.36-4.6-4.1V18l.4-.43h1.5l.42.43v9.65c0,1.37.86,1.9,2.28,1.9s2.28-.57,2.28-1.9V18l.4-.43h1.52Z"/>
            <path class="cls-2" d="M178.71,18V31.18l-.42.41h-1.52l-.41-.39V22.06l-.43,1.27c-.62,1.24-1.41,2.83-2,4h-1.82l-2-4.08-.4-1.18V31.2l-.32.39h-1.68l-.34-.39V18l.4-.43h2.16l3.1,6.25,3.09-6.25h2.2Z"/>
          </g>
        </g>
      </g>
    </g>
  </g>
</svg>
