<svg id="Layer_1" data-name="Layer 1" xmlns="http://www.w3.org/2000/svg" xmlns:xlink="http://www.w3.org/1999/xlink" width="232.75" height="43.81" viewBox="0 0 232.75 43.81"><defs><style>.cls-1{fill:none;}.cls-2{fill:#fff;}.cls-3{fill:#9ab04c;}.cls-4{clip-path:url(#clip-path);}.cls-5{clip-path:url(#clip-path-3);}.cls-6{clip-path:url(#clip-path-4);}</style><clipPath id="clip-path"><rect class="cls-1" x="0.99" y="21" width="40" height="18.37"/></clipPath><clipPath id="clip-path-3"><rect class="cls-1" x="48.99" width="129.71" height="43.26"/></clipPath><clipPath id="clip-path-4"><rect class="cls-1" x="48.99" width="129.71" height="43.26"/></clipPath></defs><title>Artboard 2</title><path class="cls-2" d="M0,23.52H0l.09-.07h0Z"/><polygon class="cls-3" points="2.86 -0.33 43.33 -0.33 43.8 0.13 43.8 3.12 26.55 20.37 26.55 22.67 43.8 39.92 43.8 42.91 43.33 43.37 2.86 43.37 2.4 42.91 2.4 0.13 2.86 -0.33"/><g id="Vector_Smart_Object" data-name="Vector Smart Object"><g class="cls-4"><g class="cls-4"><path class="cls-2" d="M40.14,22.2A4.44,4.44,0,0,0,36.71,22a.19.19,0,0,0,0,.31c.24.18.49.4.74.57V22.6c-.29.22-.62.4-.91.62a.16.16,0,0,0,.08.3,2.61,2.61,0,0,1,2.07.49c.41.48.29,1.14.25,1.8a.16.16,0,0,0,.25.14,7.13,7.13,0,0,1,.86-.88c.27-.3.62-.43.62.13,0,.11,0,.17,0,.26,0,.57-.45,1.1-.45,1.72A13.76,13.76,0,0,0,40.51,29a.87.87,0,0,1,0,.62,10.58,10.58,0,0,1-.95.48c-.41.18-2.31.92-2.15-.44a.26.26,0,0,0-.12-.18c-.62-.13-1.49-.57-2,0a11,11,0,0,0-.7,1.72,13.54,13.54,0,0,1-1.12,2c.09,0,.16,0,.24.06a7.18,7.18,0,0,0-.15-2.61c-.25-.88-.71-1.63-.87-2.51a12.4,12.4,0,0,1-.37-2.82,3,3,0,0,0-.09-1.81c-.41-1.1-1.11-2.37-2.35-2.51A2.81,2.81,0,0,0,27.12,23c0,.09,0,.27.12.27.5,0,1-.49,1.2.22,0,.08.13.17.25.08.33-.26,1.16,1.32,1.36,1.55.05.08.21.17.25.26s.08,0,.13.09c.49.31.37.88-.33,1.63-.09,0-.21,0-.21.17,0,1-.54,1.32-1.16,2a2.19,2.19,0,0,0-.41,1.27c-.25,1.59-.46,3.17-.66,4.72l.24.09a7.39,7.39,0,0,1,4.22-6L31.91,29a26.3,26.3,0,0,0-1.44,5.2c0,.52.16,1.32.74.83L31,34.93a11.76,11.76,0,0,1,.09,1.67c-.13,1-.29,1.19-1.2,1.28A2.51,2.51,0,0,1,27,36.16c-.05-.13-.17-.17-.25-.08-1,.92-1.74-1.41-2.28-1.9a1,1,0,0,0-1.07-.26c-.08,0-.12.13-.12.22.24.61,1.24,3.52,2.27,2.9.37-.22.45-.92.58-1.27.41-1.24.78-2.47,1.2-3.66,0-.13-.17-.26-.25-.17a2.09,2.09,0,0,1-2.52.74c0,.09,0,.18.08.27.62-.62,1.49-.66,2.07-1.37a3.37,3.37,0,0,0,.66-1.89c0-1-.58-1.94-.29-2.86.2-.71.66-1.06.54-1.85-.25-1.59-1.58-1.72-2.73-1.24a2.66,2.66,0,0,0-1.61,1.46c-.21.53.12,1-.25,1.45,0,0,0,.09,0,.18a6.48,6.48,0,0,0,0,.88.16.16,0,0,0,.16.22c.91.09.54,1.67.58,2.33a3.36,3.36,0,0,1-.25,2.29c-.7,1.24-1.44,2.48-2.14,3.71a.39.39,0,0,0,.3,0c.09-1.06.19-2.4-.59-3.19a3.4,3.4,0,0,0-1.29-.57,2.27,2.27,0,0,1-1.4-1.1c-.5-.88-.13-1.37.16-2.16a1.3,1.3,0,0,0,.09-1.1A7.94,7.94,0,0,0,17.37,26c-.75-.83-2.19.06-3,.32.08.09.08.25.16.34.79-2.42,3.55-2.77,4.75-.57a3.53,3.53,0,0,1,.45,1.72,7.08,7.08,0,0,1-.37,1.59c-.21,1,.41,1.8-.54,2.64A14.3,14.3,0,0,0,17.2,33.3c-.21.27-.33.71-.74.49s-.54-1-.58-1.46c0-.83,0-.64.57-.86.41-.13.87-.11,1-.5,0-.14-.13-.22-.25-.18C16,31.36,15.17,30,15,29a10,10,0,0,1-.13-2.25c0-.17-.29-.22-.29,0-.12.88-.28,1.8-.41,2.69-.12.66-.58,1.1-.74,1.67a.89.89,0,0,0,.12.79c.13.18.41.27.46.44.12.53-1,1.54-1.24,1.94a6,6,0,0,0-.83,1.41,5,5,0,0,0,0,3.57c0,.09.16.17.25.09a3.87,3.87,0,0,0,.82-3c-.16-1.54-1.07-2.38-2-3.48-.21-.26-.29-.13-.33-.53A6.83,6.83,0,0,1,11,31.5a5.37,5.37,0,0,0,.12-2,10.55,10.55,0,0,0-1.57-4.14c-.25-.39-.74-1.54-1.36-1.05s-.41,2.29-.08,2.86.78.48.78,1.76a5,5,0,0,1-.21,1.19,6.61,6.61,0,0,0-.24,2.2c.12.62.62,1.15,1.2.71l-.25-.14c-.13,2.3-3.68,2.43-4.88,1.15-1.41-1.5-.7-4,0-5.64.29-.66.58-1.27.83-1.94.16-.44.29-.92.45-1.4,0-.09,0-.23.08-.31.09-.8.58-1,1.45-.49.12.4-.29,1.24-.29,1.63a1,1,0,0,0,.26.75c0-.09.07-.09.15-.18-1.65-.35-2.1,2.43-1.94,3.66A3.26,3.26,0,0,0,6,31.5c.33.48.83,1.18.21,1.54-.25.17-.71.17-1,.31a7,7,0,0,0-.86.44,9,9,0,0,0-3.1,2.86C.87,37.27.83,38,1.66,38c.21,0,.21-.31,0-.35-1.12,0,1.07-2.25,1.4-2.51A6,6,0,0,1,6.58,33.3s.12,0,.12-.09a1.86,1.86,0,0,0-.41-1.93A3.7,3.7,0,0,1,5.75,29c.08-.79.46-2.51,1.57-2.29.17,0,.25-.13.17-.26-.58-.75.41-1.89,0-2.77a.86.86,0,0,0-1.37-.27c-.78.62-.9,2.29-1.28,3.17a20.88,20.88,0,0,0-1.4,3.75c-.37,2,.25,4.27,2.35,4.62,1.49.27,3.68-.31,3.81-2.2a.15.15,0,0,0-.25-.13c-1,.79-.62-1.63-.62-1.72l.12-.79a7.94,7.94,0,0,0,.25-1.72,1.21,1.21,0,0,0-.29-.84c-.16-.22-.45-.39-.62-.66A2.72,2.72,0,0,1,8,25.46c.05-.57.25-1,.83-.53a2.5,2.5,0,0,1,.46.8,11.91,11.91,0,0,1,.95,1.93,5.66,5.66,0,0,1-.13,4.63.21.21,0,0,0,0,.22c1.78,1.41,3.43,4.27,1.62,6.38A2.34,2.34,0,0,0,12,39a4.77,4.77,0,0,1,.79-4.62A6.36,6.36,0,0,0,14.22,32c0-.09,0-.22-.16-.22-1.12,0,0-1.28,0-1.54a5.33,5.33,0,0,0,.17-.66c.16-1,.26-2.26.42-3.23-.08,0-.17.13-.26.13,0,1.23-.08,2.83.7,3.85a1.63,1.63,0,0,0,2.07.57c-.08-.05-.23.06-.31,0-.41.18-.81.11-1.22.29a.21.21,0,0,0-.21.12,2.75,2.75,0,0,0,1,2.87.16.16,0,0,0,.2,0A7.35,7.35,0,0,1,19,32a1.26,1.26,0,0,0,.58-1.19,4.38,4.38,0,0,1-.13-1.5A12,12,0,0,0,19.8,28,3.42,3.42,0,0,0,19.43,26,2.84,2.84,0,0,0,14,26.3c-.05.13.08.22.2.22.79-.22,1.66-.71,2.4-.44A3.24,3.24,0,0,1,18,27.8c.41,1.05-.25,1.32-.38,2.2a2,2,0,0,0,.17,1.23,2.6,2.6,0,0,0,1.74,1.41c.74.22,1.36.44,1.61,1.37a7.42,7.42,0,0,1,.08,2.11.16.16,0,0,0,.29.09c.66-1.15,1.32-2.29,2-3.48a2.78,2.78,0,0,0,.46-2.2c-.17-.93.2-2.07-.42-2.87-.08-.08-.28-.17-.33-.22-.12-.22,0-.88.21-1s.08-.13,0-.22c-1-2.15,3.72-3.92,3.68-1.05,0,.57-.41.88-.58,1.36a1.77,1.77,0,0,0,0,1,5.56,5.56,0,0,1,.13,3.08c-.5,1.28-1.62,1.19-2.44,2a.15.15,0,0,0,.08.26,2.36,2.36,0,0,0,2.81-.83c-.08,0-.11.09-.2,0-.37,1.15-.79,2.11-1.2,3.3-.05.13-.21,1-.34,1-.37.14-1-.44-1.15-.7A6.77,6.77,0,0,1,23.9,35c-.07-.15-.2-.44-.24-.57.33-.31.56-.08.77.27.66.66,1.24,2.64,2.44,1.54-.08-.05-.14,0-.22-.05.62,2.11,2.62,2.07,4.35,1.72.05,0,.09,0,.13-.13a12.2,12.2,0,0,0,.08-3,.15.15,0,0,0-.25-.13.93.93,0,0,1-.16-1.06c.08-.26.12-.53.2-.75a11.46,11.46,0,0,1,.34-1.14c.24-.89.57-1.77.86-2.6,0-.14-.08-.27-.2-.22a7.58,7.58,0,0,0-4.38,6.25c-.05.22.28.31.28.09.17-1.15.34-2.29.5-3.44a10.51,10.51,0,0,1,.25-1.71c.54-1.55.41-.53.87-1.15a2.52,2.52,0,0,0,.49-.79c0-.09.13-.62.17-.71s.45-.17.7-.39c.83-.8,0-1.63-.5-2.25s-.7-1.36-1.28-1.76-.29.13-.58-.53c0-.09-.12-.09-.2,0a1.78,1.78,0,0,1-1,.3l.13.27c.66-1.5,2.44-2.47,3.68-1.06a4.32,4.32,0,0,1,1.07,2.47,12,12,0,0,0-.2,1.32c0,.57.24,1.14.33,1.72a6.1,6.1,0,0,0,.24,1.45c.21.62.54,1.15.71,1.76a7.83,7.83,0,0,1,.16,2.56.16.16,0,0,0,.29.09,14.4,14.4,0,0,0,1.45-2.74,4.3,4.3,0,0,1,.25-.74,1.35,1.35,0,0,1,1.24-.18c.41.18.24.22.41.53.83,1.32,2.93,0,3.88-.57a.15.15,0,0,0,0-.22,4.63,4.63,0,0,1-.42-3.31c.13-.44.46-1.05.29-1.54-.41-1.14-1.56.67-1.89,1,.08,0,.07.08.16.13,0-.62,0-1.28,0-1.9,0,0,0-.13-.09-.13a4.75,4.75,0,0,0-2.48-.5c0,.09-.08.15,0,.24.29-.22.62-.4.91-.62a.15.15,0,0,0,0-.27c-.25-.17-.49-.39-.74-.57,0,.09,0,.22,0,.31a4.18,4.18,0,0,1,3.18.18c.33.13.5-.18.29-.27"/></g></g></g><g id="Vector_Smart_Object-2" data-name="Vector Smart Object"><g class="cls-5"><polygon class="cls-2" points="53.24 36.16 51.05 39.16 50.69 39.16 50.69 36.35 50.53 36.16 49.38 36.16 49.23 36.31 49.23 43.11 49.38 43.26 50.53 43.26 50.69 43.11 50.69 40.69 51.24 40.69 53.29 43.26 54.4 43.26 54.58 43.09 54.58 42.55 52.48 39.85 52.48 39.71 54.49 36.82 54.49 36.31 54.33 36.16 53.24 36.16"/><polygon class="cls-2" points="71.65 36.16 69.46 39.16 69.1 39.16 69.1 36.35 68.93 36.16 67.79 36.16 67.63 36.31 67.63 43.11 67.79 43.26 68.93 43.26 69.1 43.11 69.1 40.69 69.65 40.69 71.7 43.26 72.81 43.26 72.98 43.09 72.98 42.55 70.89 39.85 70.89 39.71 72.9 36.82 72.9 36.31 72.73 36.16 71.65 36.16"/><path class="cls-2" d="M58,37.37h.7l.63,2.94h-2Zm-1.09-1.22L55.19,43v.24h1.45L57,41.6h2.57L60,43.26h1.44V43l-1.68-6.86Z"/><polygon class="cls-2" points="62.4 36.16 62.23 36.31 62.23 43.11 62.39 43.26 66.48 43.26 66.69 43.11 66.69 42 66.51 41.87 63.75 41.87 63.75 36.31 63.59 36.16 62.4 36.16"/><g class="cls-6"><path class="cls-2" d="M82.34,36.15H80.28l-1.61,7v.08h.89l.46-2h2.59l.46,2H84v-.09q-.81-3.49-1.61-7M80.2,40.48l.8-3.59h.63l.8,3.59Z"/><path class="cls-2" d="M93.56,36.15H91.1l-.1.07v7s.07.08.08.08H93.6a1.79,1.79,0,0,0,1.87-1.9V38a1.8,1.8,0,0,0-1.91-1.89m1.09,5.17c0,.93-.61,1.12-1,1.12H91.83V37h1.8a1,1,0,0,1,1,1.12Z"/><polygon class="cls-2" points="89.56 36.15 88.84 36.15 88.77 36.22 88.77 41.98 88.59 41.48 86 36.15 84.98 36.15 84.9 36.23 84.9 43.17 84.98 43.25 85.7 43.25 85.78 43.17 85.78 37.45 85.92 37.91 88.51 43.24 89.56 43.25 89.63 43.16 89.63 36.22 89.56 36.15"/><polygon class="cls-2" points="104.39 43.25 104.47 43.17 104.47 37.03 106.21 37.03 106.31 36.94 106.31 36.22 106.24 36.15 101.92 36.15 101.85 36.23 101.85 36.97 101.92 37.03 103.59 37.03 103.59 43.25 104.39 43.25"/><path class="cls-2" d="M78.11,42.39H75V36.22l0-.07h-.8l-.07.07v7l.07.08h4l.07-.08v-.7Z"/><polygon class="cls-2" points="96.69 39.14 96.69 40.14 100.55 40.14 100.63 40.05 100.63 39.22 100.55 39.14 96.69 39.14"/><polygon class="cls-2" points="96.69 42.29 96.69 43.15 96.79 43.25 100.78 43.25 100.85 43.17 100.85 42.38 100.77 42.29 96.69 42.29"/><polygon class="cls-2" points="100.76 36.14 96.74 36.14 96.66 36.21 96.66 37.14 97.45 37.14 100.75 37.14 100.83 37.06 100.83 36.21 100.76 36.14"/><polygon class="cls-2" points="58.81 0.33 58.81 14 58.67 14.18 56.91 14.16 51.55 3.67 51.25 2.77 51.25 14.02 51.11 14.18 49.83 14.18 49.67 14.02 49.67 0.35 49.83 0.2 51.53 0.2 56.91 10.69 57.25 11.69 57.25 0.33 57.41 0.2 58.67 0.2 58.81 0.33"/><path class="cls-2" d="M65.36,7.31V7.12l3.4-7h1.16l.16.15V1c-1.3,2.63-2.4,5.16-3.7,7.76l-.26,0V14l-.18.18H64.52V8.74l-.28,0L60.32.9V.31l.16-.15H61.7l3.58,7v.19Z"/><polygon class="cls-2" points="71.62 13.96 71.62 0.31 71.78 0.18 79.84 0.18 79.98 0.31 79.98 1.57 79.82 1.73 73.2 1.73 73.2 6 79.38 6 79.52 6.14 79.52 7.39 79.38 7.55 73.2 7.55 73.2 12.63 79.82 12.63 79.98 12.8 79.98 14 79.84 14.16 71.82 14.16 71.62 13.96"/><path class="cls-2" d="M91.37,14.16H90L86.45,8.1,85,8.06l-.88-.51V14l-.18.16H82.73L82.55,14V.31l.14-.13h4.7c3,0,3.68,1.66,3.68,3.51V4.77c0,.8-.34,3.29-2.84,3.29l3.28,5.53V14ZM87.19,6.74c1.68,0,2.28-.48,2.28-2v-1c0-1.55-.64-2-2.12-2H84.13v5Z"/><polygon class="cls-2" points="93.21 13.96 93.21 0.31 93.37 0.18 101.43 0.18 101.57 0.31 101.57 1.57 101.41 1.73 94.79 1.73 94.79 6 100.97 6 101.11 6.14 101.11 7.39 100.97 7.55 94.79 7.55 94.79 12.63 101.41 12.63 101.57 12.8 101.57 14 101.43 14.16 93.41 14.16 93.21 13.96"/><polygon class="cls-2" points="110.82 14.16 110.82 1.75 107.3 1.75 107.16 1.61 107.16 0.33 107.3 0.18 115.96 0.18 116.1 0.31 116.1 1.55 115.9 1.75 112.42 1.75 112.42 14 112.26 14.16 110.82 14.16"/><polygon class="cls-2" points="119.72 14 119.58 14.16 118.3 14.16 118.14 14 118.14 0.33 118.3 0.18 119.58 0.18 119.72 0.33 119.72 14"/><path class="cls-2" d="M131.59,3.88v6.53a3.56,3.56,0,0,1-3.77,3.75h-4.76s-.14-.14-.16-.16V.31l.2-.15h4.64a3.58,3.58,0,0,1,3.85,3.72M130,3.94a2,2,0,0,0-2.12-2.23h-3.42V12.63h3.44a2,2,0,0,0,2.1-2.24Z"/><path class="cls-2" d="M142.23,10.63c0,2.51-1.18,3.78-4.48,3.78s-4.3-1.31-4.36-3.45l.16-.14h1.28L135,11c.08,1.39,1,1.9,2.76,1.9,2.34,0,2.94-.57,2.94-2.27a1.91,1.91,0,0,0-1.22-2c-1.24-.63-2.46-1.18-4-1.9a3,3,0,0,1-1.86-3.16c0-2.06,1-3.53,4.14-3.53s4.2.84,4.28,3.33l-.16.16h-1.3l-.16-.18c0-1.41-.52-1.8-2.66-1.8s-2.58.72-2.58,1.9a1.93,1.93,0,0,0,1.24,2c1,.47,2.58,1.14,3.6,1.61,1.48.68,2.2,1.39,2.2,3.61"/><path class="cls-2" d="M53.91,24.75v0c.86,1.06,1.8,2.15,4.52,5.55v.86l-.37.41H56.47c-1.56-1.76-3-3.67-4.54-5.57h-.6v5.16l-.4.41H49.39l-.4-.41V18l.42-.43h1.52l.4.43v5.75h.42l4.34-6.18h1.48L58,18v.82Z"/><path class="cls-2" d="M69.58,18v9.69c0,2.74-1.4,4.08-4.62,4.08s-4.6-1.36-4.6-4.1V18l.4-.43h1.5l.42.43v9.65c0,1.37.86,1.9,2.28,1.9s2.28-.57,2.28-1.9V18l.4-.43h1.52Z"/><polygon class="cls-2" points="79.74 29.73 79.74 31.18 79.36 31.59 71.58 31.59 71.18 31.18 71.18 18.02 71.64 17.61 73.14 17.61 73.52 18.04 73.52 29.34 79.42 29.34 79.74 29.73"/><polygon class="cls-2" points="82.61 31.59 82.61 19.92 79.57 19.92 79.17 19.53 79.17 18.04 79.57 17.61 88.03 17.61 88.41 18.02 88.41 19.47 87.97 19.92 84.95 19.92 84.95 31.18 84.55 31.59 82.61 31.59"/><path class="cls-2" d="M98.49,18v9.69c0,2.74-1.4,4.08-4.62,4.08s-4.6-1.36-4.6-4.1V18l.4-.43h1.5l.42.43v9.65c0,1.37.86,1.9,2.28,1.9s2.28-.57,2.28-1.9V18l.4-.43h1.52Z"/><path class="cls-2" d="M109.16,31.59h-1.68l-3.37-5.69H103l-.38-.37v5.65l-.4.41h-1.58l-.34-.41V18l.4-.41h4.59c3.12,0,3.86,1.78,3.86,3.72v1c0,.77-.24,3-2.42,3.44.54.94,1.1,1.86,1.66,2.78l1.18,2v.67Zm-4.08-7.78c1.28,0,1.72-.36,1.72-1.48v-.94c0-1.13-.46-1.49-1.56-1.49h-2.63v3.91Z"/><path class="cls-2" d="M122.76,18V31.18l-.42.41h-1.52l-.4-.39V22.06L120,23.33c-.62,1.24-1.4,2.83-2,4H116.2l-2-4.08-.4-1.18V31.2l-.32.39h-1.68l-.34-.39V18l.4-.43H114l3.1,6.25,3.08-6.25h2.2Z"/><path class="cls-2" d="M133.91,18v9.69c0,2.74-1.4,4.08-4.62,4.08s-4.61-1.36-4.61-4.1V18l.41-.43h1.5L127,18v9.65c0,1.37.86,1.9,2.28,1.9s2.28-.57,2.28-1.9V18l.4-.43h1.52Z"/><path class="cls-2" d="M142.13,24.1c1.58.71,2.32,1.47,2.32,3.76,0,2.65-1.22,4-4.64,4s-4.46-1.45-4.52-3.82l.42-.39h1.5l.42.39c.06,1.12.82,1.53,2.16,1.53,1.88,0,2.36-.43,2.36-1.72a1.42,1.42,0,0,0-.94-1.51l-3.68-1.79a3.21,3.21,0,0,1-2-3.35c0-2.18,1.06-3.71,4.32-3.71s4.36.92,4.44,3.69l-.4.41h-1.58l-.38-.47c0-1.12-.36-1.39-2.08-1.39s-2,.51-2,1.37a1.52,1.52,0,0,0,.92,1.51Z"/><polygon class="cls-2" points="146.19 31.14 146.19 18.02 146.61 17.61 154.51 17.61 154.9 18.02 154.9 19.49 154.5 19.9 148.53 19.9 148.53 23.1 154.08 23.1 154.47 23.49 154.47 24.98 154.08 25.37 148.53 25.37 148.53 29.34 154.53 29.34 154.9 29.79 154.9 31.18 154.51 31.59 146.65 31.59 146.19 31.14"/><path class="cls-2" d="M165.66,18v9.69c0,2.74-1.4,4.08-4.62,4.08s-4.6-1.36-4.6-4.1V18l.4-.43h1.5l.42.43v9.65c0,1.37.86,1.9,2.28,1.9s2.28-.57,2.28-1.9V18l.4-.43h1.52Z"/><path class="cls-2" d="M178.71,18V31.18l-.42.41h-1.52l-.41-.39V22.06l-.43,1.27c-.62,1.24-1.41,2.83-2,4h-1.82l-2-4.08-.4-1.18V31.2l-.32.39h-1.68l-.34-.39V18l.4-.43h2.16l3.1,6.25,3.09-6.25h2.2Z"/></g></g></g></svg>
