<?xml version="1.0" encoding="utf-8"?>
<!-- Generator: Adobe Illustrator 23.0.2, SVG Export Plug-In . SVG Version: 6.00 Build 0)  -->
<svg version="1.1" id="Layer_1" xmlns="http://www.w3.org/2000/svg" xmlns:xlink="http://www.w3.org/1999/xlink" x="0px" y="0px"
	 viewBox="0 0 232.8 43.8" style="enable-background:new 0 0 232.8 43.8;" xml:space="preserve">
<style type="text/css">
	.st0{fill:#FFFFFF;}
	.st1{clip-path:url(#SVGID_2_);}
	.st2{clip-path:url(#SVGID_4_);}
	.st3{fill:#9AB04C;stroke:#9AB04C;stroke-width:0.25;stroke-miterlimit:10;}
	.st4{clip-path:url(#SVGID_6_);}
	.st5{clip-path:url(#SVGID_8_);}
</style>
<title>nyeretid-footer</title>
<path class="st0" d="M0,23.5L0,23.5L0,23.5L0,23.5L0,23.5z"/>
<polygon class="st0" points="2.9,-0.3 43.3,-0.3 43.8,0.1 43.8,3.1 26.5,20.4 26.5,22.7 43.8,39.9 43.8,42.9 43.3,43.4 2.9,43.4
	2.4,42.9 2.4,0.1 "/>
<g id="Vector_Smart_Object">
	<g>
		<defs>
			<polyline id="SVGID_1_" points="41,21 41,39.4 1,39.4 1,21 			"/>
		</defs>
		<clipPath id="SVGID_2_">
			<use xlink:href="#SVGID_1_"  style="overflow:visible;"/>
		</clipPath>
		<g class="st1">
			<g>
				<defs>
					<polyline id="SVGID_3_" points="41,21 41,39.4 1,39.4 1,21 					"/>
				</defs>
				<clipPath id="SVGID_4_">
					<use xlink:href="#SVGID_3_"  style="overflow:visible;"/>
				</clipPath>
				<g class="st2">
					<g>
						<path class="st3" d="M30.1,27.1c-0.1,0-0.2,0-0.2,0.2c0,1-0.5,1.3-1.2,2c-0.3,0.4-0.4,0.8-0.4,1.3c-0.2,1.6-0.5,3.2-0.7,4.7
							l0.2,0.1c0.2-2.6,1.9-4.9,4.2-6l-0.2-0.4c-0.7,1.7-1.1,3.4-1.4,5.2c0,0.5,0.2,1.3,0.7,0.8L31,35c0.1,0.6,0.1,1.1,0.1,1.7
							c-0.1,1-0.3,1.2-1.2,1.3c-1.3,0.3-2.5-0.5-2.9-1.7c0-0.1-0.2-0.2-0.2-0.1c-1,0.9-1.7-1.4-2.3-1.9c-0.3-0.3-0.7-0.4-1.1-0.2
							c-0.1,0-0.1,0.1-0.1,0.2c0.2,0.6,1.2,3.5,2.3,2.9c0.4-0.2,0.5-0.9,0.6-1.3c0.4-1.2,0.8-2.5,1.2-3.7c0-0.1-0.2-0.3-0.2-0.2
							c-0.6,0.8-1.6,1.1-2.5,0.7c0,0.1,0,0.2,0.1,0.3c0.6-0.6,1.5-0.7,2.1-1.4c0.4-0.5,0.6-1.2,0.7-1.9c0-1-0.6-1.9-0.3-2.9
							c0.2-0.7,0.7-1.1,0.5-1.9c-0.2-1.6-1.6-1.7-2.7-1.2c-0.7,0.2-1.3,0.8-1.6,1.5c-0.2,0.5,0.1,1-0.2,1.5v0.2c0,0.3,0,0.6,0,0.9
							c0,0.1,0,0.2,0.1,0.2c0,0,0,0,0,0c0,0,0,0,0.1,0c0.9,0.1,0.5,1.7,0.6,2.3c0.2,0.8,0.1,1.6-0.2,2.3c-0.7,1.2-1.4,2.5-2.1,3.7
							c0.1,0,0.2,0,0.3,0c0.1-1.1,0.2-2.4-0.6-3.2c-0.4-0.3-0.8-0.5-1.3-0.6c-0.6-0.2-1.1-0.6-1.4-1.1c-0.5-0.9-0.1-1.4,0.2-2.2
							c0.2-0.3,0.2-0.7,0.1-1.1c-0.3-0.8-0.7-1.5-1.3-2.1c-0.8-0.8-2.2,0.1-3,0.3c0.1,0.1,0.1,0.2,0.2,0.3c0.8-2.4,3.5-2.8,4.8-0.6
							c0.3,0.5,0.4,1.1,0.5,1.7c-0.1,0.5-0.2,1.1-0.4,1.6c-0.2,1,0.4,1.8-0.5,2.6c-0.6,0.4-1.1,0.8-1.6,1.3
							c-0.2,0.3-0.3,0.7-0.7,0.5s-0.5-1-0.6-1.5c0-0.8,0-0.6,0.6-0.9c0.4-0.1,0.9-0.1,1-0.5c0-0.1-0.1-0.2-0.2-0.2c0,0,0,0-0.1,0
							c-1.2,0.6-2-0.8-2.2-1.8c-0.1-0.7-0.2-1.5-0.1-2.2c0-0.2-0.3-0.2-0.3,0c-0.1,0.9-0.3,1.8-0.4,2.7c-0.1,0.7-0.6,1.1-0.7,1.7
							c-0.1,0.3,0,0.6,0.1,0.8c0.1,0.2,0.4,0.3,0.5,0.4c0.1,0.5-1,1.5-1.2,1.9c-0.3,0.4-0.6,0.9-0.8,1.4c-0.4,1.1-0.4,2.4,0,3.6
							c0,0.1,0.1,0.1,0.2,0.1c0,0,0,0,0.1,0c0.7-0.8,1-1.9,0.8-3c-0.2-1.5-1.1-2.4-2-3.5c-0.2-0.3-0.3-0.1-0.3-0.5
							c0.1-0.3,0.2-0.6,0.3-0.8c0.2-0.7,0.2-1.3,0.1-2c-0.2-1.5-0.8-2.9-1.6-4.1c-0.2-0.4-0.7-1.5-1.4-1s-0.4,2.3-0.1,2.9
							s0.8,0.5,0.8,1.8c0,0.4-0.1,0.8-0.2,1.2c-0.2,0.7-0.3,1.5-0.2,2.2C8.5,33,9,33.5,9.6,33.1L9.4,33c-0.1,2.3-3.7,2.4-4.9,1.2
							c-1.4-1.5-0.7-4,0-5.6c0.3-0.7,0.6-1.3,0.8-1.9c0.2-0.4,0.3-0.9,0.4-1.4c0-0.1,0-0.2,0.1-0.3c0.1-0.8,0.6-1,1.4-0.5
							C7.4,24.7,7,25.6,7,26c0,0.3,0.1,0.5,0.3,0.8c0-0.1,0.1-0.1,0.2-0.2c-1.7-0.4-2.1,2.4-1.9,3.7c0.1,0.5,0.2,1,0.5,1.4
							c0.3,0.5,0.8,1.2,0.2,1.5c-0.2,0.2-0.7,0.2-1,0.3c-0.3,0.1-0.6,0.3-0.9,0.4c-0.2,0.1-2,0.5-2,1.5c0,0.1,0,0,0,0.1s0,0,0,0.1
							c0,0.1,0,0.3,0,0.4v0.1c0,0.2,0,0.7,0,0l0,0C2.7,35.6,3,35.3,3,35.2c0.9-1,2.2-1.6,3.5-1.8c0,0,0.1,0,0.1-0.1
							c0.2-0.7,0.1-1.4-0.4-1.9c-0.4-0.7-0.6-1.5-0.5-2.3c0.1-0.8,0.5-2.5,1.6-2.3c0.2,0,0.2-0.1,0.2-0.3c-0.6-0.8,0.4-1.9,0-2.8
							c-0.2-0.4-0.7-0.6-1.1-0.4c-0.1,0-0.2,0.1-0.2,0.1c-0.8,0.6-0.9,2.3-1.3,3.2c-0.6,1.2-1.1,2.5-1.4,3.8c-0.4,2,0.2,4.3,2.3,4.6
							c1.5,0.3,3.7-0.3,3.8-2.2c0-0.1-0.1-0.1-0.1-0.2c0,0-0.1,0-0.1,0c-1,0.8-0.6-1.6-0.6-1.7l0.1-0.8C9,29.6,9.1,29,9.1,28.5
							c0-0.3-0.1-0.6-0.3-0.8c-0.2-0.2-0.4-0.4-0.6-0.7C8,26.5,7.9,26,8,25.5c0-0.6,0.2-1,0.8-0.5c0.2,0.2,0.4,0.5,0.5,0.8
							c0.4,0.6,0.7,1.3,1,1.9c0.6,1.5,0.6,3.2-0.1,4.6c0,0.1,0,0.2,0,0.2c1.8,1.4,3.4,4.3,1.6,6.4c0.1,0,0.2,0.1,0.3,0.1
							c-0.6-1.6-0.3-3.3,0.8-4.6c0.6-0.7,1.1-1.5,1.4-2.4c0-0.1,0-0.2-0.2-0.2c-1.1,0,0-1.3,0-1.5c0.1-0.2,0.1-0.4,0.2-0.7
							c0.2-1,0.3-2.3,0.4-3.2c-0.1,0-0.2,0.1-0.3,0.1c0,1.2-0.1,2.8,0.7,3.9c0.4,0.7,1.3,0.9,2.1,0.6c-0.1,0-0.2,0.1-0.3,0
							c-0.4,0.2-0.8,0.1-1.2,0.3c-0.1,0-0.2,0-0.2,0.1c-0.3,1.1,0.1,2.2,1,2.9c0.1,0.1,0.1,0.1,0.2,0c0.6-0.9,1.4-1.6,2.3-2.2
							c0.4-0.3,0.6-0.7,0.6-1.2c-0.1-0.5-0.2-1-0.1-1.5c0.1-0.4,0.3-0.9,0.4-1.3c0.1-0.7-0.1-1.4-0.4-2c-0.5-1.5-2.2-2.2-3.6-1.7
							c-0.9,0.3-1.6,1.1-1.8,2c-0.1,0.1,0.1,0.2,0.2,0.2c0.8-0.2,1.7-0.7,2.4-0.4c0.7,0.4,1.1,1,1.4,1.7c0.4,1-0.2,1.3-0.4,2.2
							c-0.1,0.4,0,0.8,0.2,1.2c0.3,0.7,1,1.2,1.7,1.4c0.7,0.2,1.4,0.4,1.6,1.4c0.1,0.7,0.2,1.4,0.1,2.1c0,0.1,0.1,0.2,0.2,0.2
							c0.1,0,0.1,0,0.1-0.1l2-3.5c0.5-0.6,0.6-1.4,0.5-2.2c-0.2-0.9,0.2-2.1-0.4-2.9c-0.1-0.1-0.3-0.2-0.3-0.2c-0.1-0.3,0-0.7,0.2-1
							c0.2-0.1,0.1-0.1,0-0.2c-1-2.1,3.7-3.9,3.7-1c0,0.6-0.4,0.9-0.6,1.4c-0.1,0.3-0.1,0.7,0,1c0.3,1,0.4,2.1,0.1,3.1
							c-0.5,1.3-1.6,1.2-2.4,2c-0.1,0.1-0.1,0.2,0,0.2c0,0,0.1,0,0.1,0c1,0.4,2.2,0.1,2.8-0.8c-0.1,0-0.1,0.1-0.2,0
							c-0.4,1.2-0.8,2.1-1.2,3.3c0,0.1-0.2,1-0.3,1c-0.4,0.1-1-0.4-1.1-0.7c-0.1-0.2-0.2-0.4-0.3-0.6c-0.1-0.2-0.2-0.4-0.2-0.6
							c0.3-0.3,0.6-0.1,0.8,0.3c0.7,0.7,1.2,2.6,2.4,1.5c-0.1,0-0.1,0-0.2,0c0.6,2.1,2.6,2.1,4.4,1.7c0,0,0.1,0,0.1-0.1
							c0.2-1,0.2-2,0.1-3c0-0.1-0.1-0.1-0.1-0.2c0,0-0.1,0-0.1,0c-0.3-0.3-0.3-0.7-0.2-1.1c0.1-0.3,0.1-0.5,0.2-0.8
							c0.1-0.4,0.2-0.8,0.3-1.1c0.2-0.9,0.6-1.8,0.9-2.6c0-0.1-0.1-0.3-0.2-0.2c-2.5,1.1-4.1,3.5-4.4,6.2c0,0.2,0.3,0.3,0.3,0.1
							c0.2-1.2,0.3-2.3,0.5-3.4c0-0.6,0.1-1.1,0.2-1.7c0.5-1.5,0.4-0.5,0.9-1.1c0.2-0.2,0.4-0.5,0.5-0.8c0-0.2,0.1-0.5,0.2-0.7
							c0-0.1,0.5-0.2,0.7-0.4"/>
						<path class="st3" d="M28.7,23.6"/>
					</g>
				</g>
			</g>
		</g>
	</g>
</g>
<g id="Vector_Smart_Object-2">
	<g>
		<defs>
			<rect id="SVGID_5_" x="49" width="129.7" height="43.3"/>
		</defs>
		<clipPath id="SVGID_6_">
			<use xlink:href="#SVGID_5_"  style="overflow:visible;"/>
		</clipPath>
		<g class="st4">
			<g>
				<polygon class="st0" points="53.2,36.2 51,39.2 50.7,39.2 50.7,36.3 50.5,36.2 49.4,36.2 49.2,36.3 49.2,43.1 49.4,43.3
					50.5,43.3 50.7,43.1 50.7,40.7 51.2,40.7 53.3,43.3 54.4,43.3 54.6,43.1 54.6,42.5 52.5,39.8 52.5,39.7 54.5,36.8 54.5,36.3
					54.3,36.2 				"/>
				<polygon class="st0" points="71.7,36.2 69.5,39.2 69.1,39.2 69.1,36.3 68.9,36.2 67.8,36.2 67.6,36.3 67.6,43.1 67.8,43.3
					68.9,43.3 69.1,43.1 69.1,40.7 69.7,40.7 71.7,43.3 72.8,43.3 73,43.1 73,42.5 70.9,39.8 70.9,39.7 72.9,36.8 72.9,36.3
					72.7,36.2 				"/>
				<path class="st0" d="M58,37.4h0.7l0.6,2.9h-2L58,37.4z M56.9,36.1L55.2,43v0.2h1.5l0.4-1.6h2.6l0.4,1.7h1.4V43l-1.7-6.9
					L56.9,36.1z"/>
				<polygon class="st0" points="62.4,36.2 62.2,36.3 62.2,43.1 62.4,43.3 66.5,43.3 66.7,43.1 66.7,42 66.5,41.9 63.8,41.9
					63.8,36.3 63.6,36.2 				"/>
				<g>
					<defs>
						<rect id="SVGID_7_" x="49" width="129.7" height="43.3"/>
					</defs>
					<clipPath id="SVGID_8_">
						<use xlink:href="#SVGID_7_"  style="overflow:visible;"/>
					</clipPath>
					<g class="st5">
						<g>
							<path class="st0" d="M82.3,36.2h-2.1l-1.6,7v0.1h0.9l0.5-2h2.6l0.5,2H84v-0.1C83.5,40.8,82.9,38.5,82.3,36.2 M80.2,40.5
								l0.8-3.6h0.6l0.8,3.6H80.2z"/>
							<path class="st0" d="M93.6,36.2h-2.5L91,36.2v7c0,0,0.1,0.1,0.1,0.1h2.5c1,0.1,1.8-0.7,1.9-1.7c0,0,0,0,0,0V38
								c0.1-1-0.7-1.8-1.7-1.9L93.6,36.2 M94.7,41.3c0,0.9-0.6,1.1-1,1.1h-1.8V37h1.8c0.6,0,1,0.4,1,1c0,0,0,0.1,0,0.1L94.7,41.3z"
								/>
							<polygon class="st0" points="89.6,36.2 88.8,36.2 88.8,36.2 88.8,42 88.6,41.5 86,36.2 85,36.2 84.9,36.2 84.9,43.2 85,43.2
								85.7,43.2 85.8,43.2 85.8,37.5 85.9,37.9 88.5,43.2 89.6,43.2 89.6,43.2 89.6,36.2 							"/>
							<polygon class="st0" points="104.4,43.2 104.5,43.2 104.5,37 106.2,37 106.3,36.9 106.3,36.2 106.2,36.2 101.9,36.2
								101.8,36.2 101.8,37 101.9,37 103.6,37 103.6,43.2 							"/>
							<path class="st0" d="M78.1,42.4H75v-6.2h-0.8l-0.1,0.1v7l0.1,0.1h4l0.1-0.1v-0.7L78.1,42.4z"/>
							<polygon class="st0" points="96.7,39.1 96.7,40.1 100.6,40.1 100.6,40 100.6,39.2 100.6,39.1 							"/>
							<polygon class="st0" points="96.7,42.3 96.7,43.2 96.8,43.2 100.8,43.2 100.8,43.2 100.8,42.4 100.8,42.3 							"/>
							<polygon class="st0" points="100.8,36.1 96.7,36.1 96.7,36.2 96.7,37.1 97.4,37.1 100.8,37.1 100.8,37.1 100.8,36.2
								"/>
							<polygon class="st0" points="58.8,0.3 58.8,14 58.7,14.2 56.9,14.2 51.5,3.7 51.2,2.8 51.2,14 51.1,14.2 49.8,14.2 49.7,14
								49.7,0.3 49.8,0.2 51.5,0.2 56.9,10.7 57.2,11.7 57.2,0.3 57.4,0.2 58.7,0.2 							"/>
							<path class="st0" d="M65.4,7.3V7.1l3.4-7h1.2l0.2,0.2V1c-1.3,2.6-2.4,5.2-3.7,7.8h-0.3V14l-0.2,0.2h-1.4V8.7h-0.3l-3.9-7.8
								V0.3l0.2-0.2h1.2l3.6,7L65.4,7.3L65.4,7.3z"/>
							<polygon class="st0" points="71.6,14 71.6,0.3 71.8,0.2 79.8,0.2 80,0.3 80,1.6 79.8,1.7 73.2,1.7 73.2,6 79.4,6 79.5,6.1
								79.5,7.4 79.4,7.6 73.2,7.6 73.2,12.6 79.8,12.6 80,12.8 80,14 79.8,14.2 71.8,14.2 							"/>
							<path class="st0" d="M91.4,14.2H90l-3.6-6.1l-1.4,0l-0.9-0.5V14l-0.2,0.2h-1.2L82.6,14V0.3l0.1-0.1h4.7c3,0,3.7,1.7,3.7,3.5
								v1.1c0,0.8-0.3,3.3-2.8,3.3l3.3,5.5V14L91.4,14.2z M87.2,6.7c1.7,0,2.3-0.5,2.3-2v-1c0-1.5-0.6-2-2.1-2h-3.2v5H87.2z"/>
							<polygon class="st0" points="93.2,14 93.2,0.3 93.4,0.2 101.4,0.2 101.6,0.3 101.6,1.6 101.4,1.7 94.8,1.7 94.8,6 101,6
								101.1,6.1 101.1,7.4 101,7.6 94.8,7.6 94.8,12.6 101.4,12.6 101.6,12.8 101.6,14 101.4,14.2 93.4,14.2 							"/>
							<polygon class="st0" points="110.8,14.2 110.8,1.8 107.3,1.8 107.2,1.6 107.2,0.3 107.3,0.2 116,0.2 116.1,0.3 116.1,1.5
								115.9,1.8 112.4,1.8 112.4,14 112.3,14.2 							"/>
							<polygon class="st0" points="119.7,14 119.6,14.2 118.3,14.2 118.1,14 118.1,0.3 118.3,0.2 119.6,0.2 119.7,0.3 							"/>
							<path class="st0" d="M131.6,3.9v6.5c0.1,2-1.4,3.6-3.4,3.7c0,0,0,0,0,0h-5.2l-0.2-0.2V0.3l0.2-0.2h4.6c2-0.1,3.7,1.3,3.8,3.3
								c0,0,0,0,0,0C131.6,3.6,131.6,3.7,131.6,3.9 M130,3.9c0.1-1.1-0.7-2.1-1.8-2.2c-0.1,0-0.2,0-0.4,0h-3.4v10.9h3.4
								c1.1,0.1,2-0.8,2.1-1.9c0-0.1,0-0.2,0-0.4V3.9z"/>
							<path class="st0" d="M142.2,10.6c0,2.5-1.2,3.8-4.5,3.8s-4.3-1.3-4.4-3.4l0.2-0.1h1.3L135,11c0.1,1.4,1,1.9,2.8,1.9
								c2.3,0,2.9-0.6,2.9-2.3c0.1-0.9-0.4-1.7-1.2-2c-1.2-0.6-2.5-1.2-4-1.9c-1.3-0.5-2-1.8-1.9-3.2c0-2.1,1-3.5,4.1-3.5
								s4.2,0.8,4.2,3.3l-0.2,0.2h-1.3l-0.2-0.2c0-1.4-0.5-1.8-2.7-1.8s-2.6,0.7-2.6,1.9c-0.1,0.9,0.4,1.7,1.2,2
								c1,0.5,2.6,1.1,3.6,1.6C141.5,7.7,142.2,8.4,142.2,10.6"/>
							<path class="st0" d="M53.9,24.8L53.9,24.8c0.9,1.1,1.8,2.1,4.5,5.5v0.9l-0.4,0.4h-1.6c-1.6-1.8-3-3.7-4.5-5.6h-0.6v5.2
								l-0.4,0.4h-1.5L49,31.2V18l0.4-0.4h1.5l0.4,0.4v5.8h0.4l4.3-6.2h1.5L58,18v0.8L53.9,24.8z"/>
							<path class="st0" d="M69.6,18v9.7c0,2.7-1.4,4.1-4.6,4.1s-4.6-1.4-4.6-4.1V18l0.4-0.4h1.5l0.4,0.4v9.6c0,1.4,0.9,1.9,2.3,1.9
								s2.3-0.6,2.3-1.9V18l0.4-0.4h1.5L69.6,18z"/>
							<polygon class="st0" points="79.7,29.7 79.7,31.2 79.4,31.6 71.6,31.6 71.2,31.2 71.2,18 71.6,17.6 73.1,17.6 73.5,18
								73.5,29.3 79.4,29.3 							"/>
							<polygon class="st0" points="82.6,31.6 82.6,19.9 79.6,19.9 79.2,19.5 79.2,18 79.6,17.6 88,17.6 88.4,18 88.4,19.5 88,19.9
								84.9,19.9 84.9,31.2 84.6,31.6 							"/>
							<path class="st0" d="M98.5,18v9.7c0,2.7-1.4,4.1-4.6,4.1s-4.6-1.4-4.6-4.1V18l0.4-0.4h1.5l0.4,0.4v9.6c0,1.4,0.9,1.9,2.3,1.9
								s2.3-0.6,2.3-1.9V18l0.4-0.4h1.5L98.5,18z"/>
							<path class="st0" d="M109.2,31.6h-1.7l-3.4-5.7H103l-0.4-0.4v5.6l-0.4,0.4h-1.6l-0.3-0.4V18l0.4-0.4h4.6
								c3.1,0,3.9,1.8,3.9,3.7v1c0,0.8-0.2,3-2.4,3.4c0.5,0.9,1.1,1.9,1.7,2.8l1.2,2v0.7L109.2,31.6z M105.1,23.8
								c1.3,0,1.7-0.4,1.7-1.5v-0.9c0-1.1-0.5-1.5-1.6-1.5h-2.6v3.9H105.1z"/>
							<path class="st0" d="M122.8,18v13.2l-0.4,0.4h-1.5l-0.4-0.4v-9.1l-0.4,1.3c-0.6,1.2-1.4,2.8-2,4h-1.8l-2-4.1l-0.4-1.2v9.1
								l-0.3,0.4h-1.7l-0.3-0.4V18l0.4-0.4h2.1l3.1,6.2l3.1-6.2h2.2L122.8,18z"/>
							<path class="st0" d="M133.9,18v9.7c0,2.7-1.4,4.1-4.6,4.1s-4.6-1.4-4.6-4.1V18l0.4-0.4h1.5L127,18v9.6c0,1.4,0.9,1.9,2.3,1.9
								s2.3-0.6,2.3-1.9V18l0.4-0.4h1.5L133.9,18z"/>
							<path class="st0" d="M142.1,24.1c1.6,0.7,2.3,1.5,2.3,3.8c0,2.6-1.2,4-4.6,4s-4.5-1.5-4.5-3.8l0.4-0.4h1.5l0.4,0.4
								c0.1,1.1,0.8,1.5,2.2,1.5c1.9,0,2.4-0.4,2.4-1.7c0.1-0.7-0.3-1.3-0.9-1.5l-3.7-1.8c-1.3-0.5-2.2-1.9-2-3.4
								c0-2.2,1.1-3.7,4.3-3.7s4.4,0.9,4.4,3.7l-0.4,0.4h-1.6l-0.4-0.5c0-1.1-0.4-1.4-2.1-1.4s-2,0.5-2,1.4
								c-0.1,0.6,0.3,1.3,0.9,1.5L142.1,24.1z"/>
							<polygon class="st0" points="146.2,31.1 146.2,18 146.6,17.6 154.5,17.6 154.9,18 154.9,19.5 154.5,19.9 148.5,19.9
								148.5,23.1 154.1,23.1 154.5,23.5 154.5,25 154.1,25.4 148.5,25.4 148.5,29.3 154.5,29.3 154.9,29.8 154.9,31.2 154.5,31.6
								146.6,31.6 							"/>
							<path class="st0" d="M165.7,18v9.7c0,2.7-1.4,4.1-4.6,4.1s-4.6-1.4-4.6-4.1V18l0.4-0.4h1.5l0.4,0.4v9.6
								c0,1.4,0.9,1.9,2.3,1.9s2.3-0.6,2.3-1.9V18l0.4-0.4h1.5L165.7,18z"/>
							<path class="st0" d="M178.7,18v13.2l-0.4,0.4h-1.5l-0.4-0.4v-9.1l-0.4,1.3c-0.6,1.2-1.4,2.8-2,4h-1.8l-2-4.1l-0.4-1.2v9.1
								l-0.3,0.4h-1.7l-0.3-0.4V18l0.4-0.4h2.2l3.1,6.2l3.1-6.2h2.2L178.7,18z"/>
						</g>
					</g>
				</g>
			</g>
		</g>
	</g>
</g>
</svg>
