<svg id="Layer_2" data-name="Layer 2" xmlns="http://www.w3.org/2000/svg" width="12.43mm" height="12.8mm" viewBox="0 0 35.24 36.3"><defs><style>.cls-1{fill:#1d1d1b;}.cls-2{fill:#020202;}</style></defs><title>pil</title><path class="cls-1" d="M18.47,33.73a14,14,0,1,1,14-14A14,14,0,0,1,18.47,33.73Zm0-27a13,13,0,1,0,13,13A13,13,0,0,0,18.47,6.7Z"/><polygon class="cls-2" points="18.56 21.88 13.11 16.56 13.83 15.82 18.57 20.46 23.58 15.74 24.28 16.49 18.56 21.88"/><polygon class="cls-2" points="18.56 25.77 13.11 20.45 13.83 19.71 18.57 24.35 23.58 19.64 24.28 20.38 18.56 25.77"/></svg>
