<svg id="stevnsfort" xmlns="http://www.w3.org/2000/svg" width="35mm" height="35mm" viewBox="0 0 99.21 99.21">
  <defs>
    <style>
      .cls-1 {
        fill: #e66126;
      }

      .cls-2 {
        fill: #fff;
      }
    </style>
  </defs>
  <title>kalklandet-sidebar</title>
  <rect class="cls-1" x="0.13" y="-0.38" width="99.42" height="99.42"/>
  <polygon class="cls-2" points="19.37 16.93 79.93 16.93 80.62 17.51 80.62 21.29 54.81 43.07 54.81 45.97 80.62 67.75 80.62 71.52 79.93 72.1 19.37 72.1 18.68 71.52 18.68 17.51 19.37 16.93"/>
  <g>
    <path class="cls-2" d="M20.34,76.74l.18.23v3.22h.39l2.35-3.45h1.16l.18.17v.6l-2.16,3.32V81l2.25,3.11v.62l-.19.2H23.31l-2.2-3h-.59v2.79l-.18.17H19.12L19,84.75V76.91l.17-.17Z"/>
    <path class="cls-2" d="M40.09,76.74l.17.23v3.22h.39L43,76.74h1.16l.18.17v.6l-2.16,3.32V81l2.25,3.11v.62l-.19.2H43.05l-2.2-3h-.59v2.79l-.17.17H38.86l-.17-.17V76.91l.17-.17Z"/>
    <path class="cls-2" d="M32,84.92H30.47L30.07,83H27.31l-.41,1.92H25.34v-.28l1.81-7.9h3.07L32,84.63Zm-2.27-3.4-.68-3.38h-.76l-.69,3.38Z"/>
    <path class="cls-2" d="M37.68,83.47v1.28l-.22.17h-4.4l-.16-.17V76.92l.18-.18h1.27l.18.17v6.4h3Z"/>
    <path class="cls-2" d="M54.47,76.73H52.26l-1.73,8.08v.1h1l.49-2.3h2.77l.5,2.3h1V84.8c-.59-2.68-1.16-5.38-1.73-8.07Zm-2.3,5L53,77.59h.67l.86,4.13Z"/>
    <path class="cls-2" d="M66.5,76.73H63.87l-.11.09v8s.07.09.09.09h2.69a2,2,0,0,0,2-2.19V78.91a2,2,0,0,0-2-2.18Zm1.18,6c0,1.07-.66,1.29-1.1,1.29H64.65v-6.3h1.92c.44,0,1.11.22,1.11,1.29Z"/>
    <path class="cls-2" d="M62.21,76.73h-.77l-.08.08v6.64l-.18-.59-2.79-6.13H57.3l-.08.09v8l.08.1h.78l.07-.1V78.23l.16.53,2.78,6.13,1.12,0,.07-.11v-8Z"/>
    <path class="cls-2" d="M78.12,84.91l.09-.1V77.75h1.86l.1-.11v-.83l-.07-.08H75.47l-.07.09v.85l.07.08h1.79v7.16Z"/>
    <path class="cls-2" d="M49.93,83.91H46.59V76.82l-.05-.09h-.85l-.08.09v8l.08.1h4.24l.08-.1V84Z"/>
    <g>
      <polygon class="cls-2" points="69.86 80.18 69.86 81.33 74 81.33 74.08 81.23 74.08 80.27 74 80.18 69.86 80.18"/>
      <polygon class="cls-2" points="69.86 83.8 69.86 84.79 69.96 84.91 74.25 84.91 74.33 84.81 74.33 83.91 74.24 83.8 69.86 83.8"/>
      <polygon class="cls-2" points="74.22 76.72 69.92 76.72 69.83 76.8 69.83 77.87 70.67 77.87 70.67 77.87 74.21 77.87 74.3 77.78 74.3 76.8 74.22 76.72"/>
    </g>
  </g>
</svg>
