<svg id="Layer_1" data-name="Layer 1" xmlns="http://www.w3.org/2000/svg" xmlns:xlink="http://www.w3.org/1999/xlink" width="232.75" height="43.81" viewBox="0 0 232.75 43.81"><defs><style>.cls-1{fill:none;}.cls-2{fill:#fff;}.cls-3{clip-path:url(#clip-path);}.cls-4{fill:#2385a8;}</style><clipPath id="clip-path"><rect class="cls-1" x="48.99" width="181" height="43.65"/></clipPath><symbol id="New_Symbol_23" data-name="New Symbol 23" viewBox="0 0 135.19 133.9"><polygon class="cls-2" points="70.86 75.14 75 75.8 75.29 76.34 87.98 75.58 87.31 74.81 83.17 75.03 79.81 74.16 73.75 75.14 74.04 74.7 70.86 75.14"/><polygon class="cls-2" points="52.88 64.75 58.36 68.69 60.77 69.01 60.86 70.11 72.59 70.11 73.46 69.23 74.42 67.15 74.9 64.31 73.27 61.14 69.61 61.14 68.65 60.15 67.88 61.25 64.52 60.26 63.27 61.68 63.46 63.22 64.13 64.42 65.58 65.62 59.23 65.07 56.54 64.31 57.59 62.34 59.13 62.56 59.71 61.47 59.04 60.48 58.75 61.03 55.96 60.59 56.73 58.84 54.61 58.29 53.84 58.51 49.61 55.67 50.19 57.86 50.96 58.84 50.77 63.87 52.88 64.75"/><path class="cls-2" d="M78.24,71.17,76.09,70l.8-4.77,2.73-7.15-2.73-1.8L75.1,54.74l-2.55-.22-3.14-1.8L66.69,54l1,.59,1.64-1,3.07,2h2.4L76,56.87l2.79,2-2.6,5.58-.29,3.39L74.61,70l3,2.51h57.6V71.15Z"/><path class="cls-2" d="M19.13,81.48l-1-3.06,5.87-3,.47.32,8.27-1,.58.66,10.58-1.1,1.35-.54L77,73.28l-1.73-1.75-2.21.33-1.16-.55-2.12.11.58-.44H67.69l.39,1.32-1.45-.55-6.44-.44.19,1.09H56.63L52.88,71l-9.62-1.86-1.44-1.31-3.75-1.53.1.22L37,65.84l-15.29-3L20.09,63,14.9,64.86l-7,1.31,1.63,1.42-5.19-.66L1.63,68.25V55.67l.67,2.08L18,58.51l3.55-.43,1.35,1.2,4.52,1.86,1-.66,2.41.66h.86l2.5,1.09,4.23,1,5.19,3.61,1.54.1,1,.66,2.12.77,3.56.33-1.45-1.1.49-.55L48,64.75,48.17,62l-1.92-8.2-2.7.44-3.84-3.07-.77.22L34.8,47.14l-.19-1.32-3.75-2.51-4.23-2-4.13,8,.38-4.26-1.73-.77,3.75-3.72-4.33-2.84,1.83-3.28-.87-1.64-3.75-3.5-2.5-1.43-2-3.82L7.4,18.48,2.78,16.73,1.63,16V2.25L6.9,1.51l.1.55L24.13,9.51l-.29,4,1,2.52L24,18.26l2.59,2.84L26.05,23l1.45,5.8-.2,4.59.29,1.86,1.35-.76.57.11.39-.33,3.27-.11,5.48,1.31.87,2.19.67-.44,4,1v1.64l2,.76.48,1.32H48l.77,1.53-.1,1.2.48,1.53.58-.66,1.34,2.63L51,50.2l2.59,1.09,1.54-.54,8.75,1.53L66.69,54l-2.77-2.83-7-1L54,49.45H52.41l-1-4-1.17-1.85L48.8,40.79l-2.1-.91L44.49,37l-4.32-1.13-1-1.35-3.34-1.35a51.7,51.7,0,0,1-5.3,0,3.12,3.12,0,0,0-2.55.68l.26-5.51-.73-5,.58-3L25,17.9l1.17-3-1.17-2V7.5L7.82,0,0,1V133.9H1.63V94.61l5.58-7L9.13,86.3h3.75L17,84.11Zm32.12-8.86.38.88-.58-.66Zm-9.14-15.2,1.35,2,1.73,1.53,2.4.66-1.82.32.19.77-4-.77L41.44,61l-.1.33L40,56ZM14.8,75.14l.1-1,1.15-.44.1,1.09L18,78.09l-2.22-2.73Z"/></symbol></defs><title>Artboard 2</title><path class="cls-2" d="M0,23.52H0l.09-.07h0Z"/><g id="Vector_Smart_Object" data-name="Vector Smart Object"><g class="cls-3"><polygon class="cls-2" points="54.05 36.44 51.83 39.48 51.46 39.48 51.46 36.64 51.29 36.44 50.13 36.44 49.98 36.59 49.98 43.5 50.13 43.65 51.29 43.65 51.46 43.5 51.46 41.04 52.02 41.04 54.1 43.65 55.23 43.65 55.41 43.48 55.41 42.93 53.28 40.19 53.28 40.05 55.32 37.11 55.32 36.59 55.15 36.44 54.05 36.44"/><polygon class="cls-2" points="72.74 36.44 70.52 39.48 70.15 39.48 70.15 36.64 69.98 36.44 68.82 36.44 68.66 36.59 68.66 43.5 68.82 43.65 69.98 43.65 70.15 43.5 70.15 41.04 70.71 41.04 72.79 43.65 73.91 43.65 74.09 43.48 74.09 42.93 71.97 40.19 71.97 40.05 74.01 37.11 74.01 36.59 73.84 36.44 72.74 36.44"/><path class="cls-2" d="M58.84,37.67h.71l.65,3h-2Zm-1.1-1.24L56,43.4v.25H57.5L57.89,42H60.5l.38,1.69h1.47v-.26l-1.71-7Z"/><polygon class="cls-2" points="63.35 36.44 63.18 36.6 63.18 43.5 63.34 43.65 67.49 43.65 67.7 43.5 67.7 42.37 67.52 42.23 64.72 42.23 64.72 36.59 64.55 36.44 63.35 36.44"/><g class="cls-3"><path class="cls-2" d="M83.6,36.43H81.51l-1.64,7.13v.08h.9l.47-2h2.62l.47,2h.9v-.09c-.56-2.37-1.1-4.75-1.63-7.12m-2.18,4.4.81-3.65h.64l.81,3.65Z"/><path class="cls-2" d="M95,36.43H92.49l-.1.08v7.06s.07.08.08.08H95a1.82,1.82,0,0,0,1.9-1.93V38.35A1.82,1.82,0,0,0,95,36.43m1.12,5.25a1,1,0,0,1-1,1.14H93.23V37.27h1.82a1,1,0,0,1,1,1.13Z"/><polygon class="cls-2" points="90.92 36.42 90.2 36.42 90.12 36.49 90.12 42.35 89.94 41.84 87.31 36.42 86.28 36.42 86.2 36.51 86.2 43.56 86.28 43.64 87.01 43.64 87.08 43.56 87.08 37.75 87.23 38.22 89.86 43.63 90.92 43.64 90.99 43.55 90.99 36.49 90.92 36.42"/><polygon class="cls-2" points="105.98 43.64 106.06 43.56 106.06 37.33 107.82 37.33 107.93 37.23 107.93 36.5 107.86 36.43 103.47 36.43 103.41 36.51 103.41 37.26 103.47 37.33 105.17 37.33 105.17 43.64 105.98 43.64"/><path class="cls-2" d="M79.3,42.76H76.14V36.51l0-.08h-.81l-.07.08v7.05l.07.08h4l.07-.08v-.72Z"/><polygon class="cls-2" points="98.16 39.47 98.16 40.48 102.08 40.48 102.16 40.39 102.16 39.55 102.08 39.47 98.16 39.47"/><polygon class="cls-2" points="98.16 42.66 98.16 43.54 98.26 43.64 102.32 43.64 102.39 43.56 102.39 42.76 102.31 42.66 98.16 42.66"/><polygon class="cls-2" points="102.29 36.42 98.21 36.42 98.13 36.49 98.13 37.43 98.93 37.43 102.28 37.43 102.36 37.35 102.36 36.49 102.29 36.42"/><path class="cls-2" d="M58.27,10.78c0,2.55-1.2,3.84-4.55,3.84s-4.36-1.33-4.42-3.5l.16-.14h1.3l.14.14c.08,1.41,1,1.93,2.8,1.93,2.37,0,3-.58,3-2.31a2,2,0,0,0-1.23-2c-1.26-.63-2.5-1.19-4-1.93a3.07,3.07,0,0,1-1.89-3.2c0-2.09,1-3.58,4.2-3.58S58,.86,58.08,3.38l-.16.16H56.6l-.16-.18c0-1.43-.53-1.83-2.7-1.83s-2.62.74-2.62,1.93a2,2,0,0,0,1.26,2C53.44,6,55,6.64,56,7.12c1.51.7,2.24,1.41,2.24,3.66"/><polygon class="cls-2" points="63.05 14.36 63.05 1.77 59.48 1.77 59.34 1.63 59.34 0.34 59.48 0.18 68.27 0.18 68.41 0.32 68.41 1.57 68.21 1.77 64.68 1.77 64.68 14.2 64.51 14.36 63.05 14.36"/><polygon class="cls-2" points="69.87 14.16 69.87 0.32 70.03 0.18 78.21 0.18 78.35 0.32 78.35 1.59 78.19 1.75 71.47 1.75 71.47 6.09 77.74 6.09 77.89 6.23 77.89 7.5 77.74 7.66 71.47 7.66 71.47 12.81 78.19 12.81 78.35 12.99 78.35 14.2 78.21 14.36 70.07 14.36 69.87 14.16"/><path class="cls-2" d="M90.49.34V.88L86.67,14.36H83.32C82.08,10,80.74,5.37,79.51,1V.36l.18-.18h1.2C82,4.12,83.4,8.65,84.52,12.57v.24h.89v-.24L89.08.18h1.24Z"/><polygon class="cls-2" points="101.04 0.34 101.04 14.2 100.89 14.38 99.11 14.36 93.67 3.72 93.36 2.81 93.36 14.22 93.22 14.38 91.92 14.38 91.76 14.22 91.76 0.36 91.92 0.2 93.65 0.2 99.11 10.84 99.45 11.86 99.45 0.34 99.62 0.2 100.89 0.2 101.04 0.34"/><path class="cls-2" d="M112,10.78c0,2.55-1.2,3.84-4.54,3.84s-4.37-1.33-4.43-3.5l.16-.14h1.3l.15.14c.08,1.41,1,1.93,2.8,1.93,2.37,0,3-.58,3-2.31a2,2,0,0,0-1.24-2c-1.26-.63-2.49-1.19-4-1.93a3.07,3.07,0,0,1-1.88-3.2c0-2.09,1-3.58,4.2-3.58s4.26.86,4.34,3.38l-.16.16h-1.32l-.16-.18c0-1.43-.53-1.83-2.7-1.83s-2.62.74-2.62,1.93a2,2,0,0,0,1.26,2c1.05.48,2.61,1.15,3.65,1.63,1.5.7,2.23,1.41,2.23,3.66"/><path class="cls-2" d="M122.46,7.28v.3l4.81,6v.64l-.14.16h-1.22c-1.77-2-3.25-4-4.91-6h-1.32V14.2l-.14.16H118.2l-.14-.16V.34l.16-.16h1.32l.14.16V6.82h1.11L125.52.18h1.2a.83.83,0,0,0,.12.16V.93Z"/><path class="cls-2" d="M137.41,13V14.2l-.14.16h-8.06l-.14-.16V.34l.14-.16h1.37a.7.7,0,0,0,.1.16V12.81h6.59Z"/><polygon class="cls-2" points="141.21 14.2 141.06 14.36 139.77 14.36 139.6 14.2 139.6 0.34 139.77 0.18 141.06 0.18 141.21 0.34 141.21 14.2"/><polygon class="cls-2" points="153.36 0.34 153.36 14.2 153.22 14.38 151.43 14.36 146 3.72 145.69 2.81 145.69 14.22 145.55 14.38 144.25 14.38 144.09 14.22 144.09 0.36 144.25 0.2 145.97 0.2 151.43 10.84 151.78 11.86 151.78 0.34 151.94 0.2 153.22 0.2 153.36 0.34"/><polygon class="cls-2" points="158.49 14.36 158.49 1.77 154.92 1.77 154.78 1.63 154.78 0.34 154.92 0.18 163.71 0.18 163.85 0.32 163.85 1.57 163.65 1.77 160.12 1.77 160.12 14.2 159.95 14.36 158.49 14.36"/><path class="cls-2" d="M58.35,18.27V28.1c0,2.79-1.42,4.14-4.69,4.14S49,30.86,49,28.08V18.29l.41-.43h1.52l.43.43v9.79c0,1.39.87,1.93,2.31,1.93S56,29.43,56,28.08V18.29l.41-.43h1.54Z"/><polygon class="cls-2" points="69.69 18.29 69.69 31.58 69.36 32.04 67.17 32.04 62.99 23.82 62.48 22.63 62.48 31.62 62.08 32.04 60.56 32.04 60.13 31.62 60.13 18.32 60.56 17.88 62.59 17.88 66.87 26.23 67.36 27.56 67.36 18.29 67.78 17.88 69.33 17.88 69.69 18.29"/><polygon class="cls-2" points="71.72 31.58 71.72 18.27 72.14 17.86 80.16 17.86 80.54 18.27 80.54 19.77 80.14 20.18 74.09 20.18 74.09 23.43 79.71 23.43 80.12 23.82 80.12 25.34 79.71 25.73 74.09 25.73 74.09 29.75 80.18 29.75 80.54 30.21 80.54 31.62 80.16 32.04 72.18 32.04 71.72 31.58"/><path class="cls-2" d="M88.74,24.44c1.6.72,2.35,1.49,2.35,3.82,0,2.69-1.23,4-4.7,4s-4.53-1.47-4.59-3.88l.43-.4h1.52l.42.4c.07,1.13.84,1.55,2.2,1.55,1.9,0,2.39-.44,2.39-1.75a1.46,1.46,0,0,0-1-1.53l-3.74-1.81a3.26,3.26,0,0,1-2-3.4c0-2.21,1.08-3.76,4.39-3.76s4.42.93,4.5,3.74l-.4.41H88.9l-.38-.47c0-1.14-.37-1.42-2.11-1.42s-2,.52-2,1.4a1.53,1.53,0,0,0,.93,1.53Z"/><path class="cls-2" d="M102,28.06c-.1,2.39-1.36,4.16-4.59,4.16S92.88,30.41,92.88,28V21.89c0-1.75,1-4.09,4.58-4.09,3.33,0,4.51,1.77,4.57,4l-.43.41h-1.54l-.41-.38c-.08-1.23-.56-1.73-2.19-1.77h-.24c-1.18,0-2,.54-2,1.87V28a1.79,1.79,0,0,0,2,1.91h.24c1.55,0,2.09-.56,2.19-1.85l.49-.46h1.48Z"/><path class="cls-2" d="M108.24,32.32c-3.35,0-4.65-1.95-4.65-4v-6.9c0-1.87,1.24-3.92,4.67-3.92,3.26,0,4.66,1.95,4.66,3.94v6.92c0,2-1.31,3.94-4.68,3.94m2.31-10.84c0-1.36-1-1.75-2.29-1.75-1.44,0-2.34.43-2.34,1.75v6.86c0,1.39,1.53,1.73,2.2,1.73h.26c.65,0,2.17-.26,2.17-1.71Z"/><path class="cls-2" d="M129.52,18.29v.76l-3.77,13h-3.68c-2.72-9.57-3.3-11.36-3.73-12.87v-.84l.43-.47h1.68l3.35,11.89h.2l3.39-11.89h1.69Z"/><polygon class="cls-2" points="130.45 31.58 130.45 18.27 130.88 17.86 138.9 17.86 139.28 18.27 139.28 19.77 138.88 20.18 132.83 20.18 132.83 23.43 138.45 23.43 138.85 23.82 138.85 25.34 138.45 25.73 132.83 25.73 132.83 29.75 138.92 29.75 139.28 30.21 139.28 31.62 138.9 32.04 130.92 32.04 130.45 31.58"/><path class="cls-2" d="M150,32h-1.7l-3.41-5.77H143.7l-.38-.38v5.73l-.41.42h-1.6l-.35-.42V18.27l.41-.41H146c3.16,0,3.91,1.81,3.91,3.78v1c0,.78-.24,3.08-2.45,3.48.55,1,1.11,1.89,1.68,2.83l1.2,2v.67Zm-4.14-7.9c1.3,0,1.75-.36,1.75-1.49V21.7c0-1.16-.47-1.52-1.59-1.52h-2.65v4Z"/><path class="cls-2" d="M161.7,21.83v6.23a3.79,3.79,0,0,1-4,4h-4.63l-.5-.4V18.24l.5-.4h4.55a3.83,3.83,0,0,1,4.1,4m-2.33.06a1.54,1.54,0,0,0-1.63-1.73h-2.82v9.59h2.84A1.53,1.53,0,0,0,159.37,28Z"/><polygon class="cls-2" points="163.58 31.58 163.58 18.27 164.01 17.86 172.03 17.86 172.41 18.27 172.41 19.77 172.01 20.18 165.96 20.18 165.96 23.43 171.58 23.43 171.99 23.82 171.99 25.34 171.58 25.73 165.96 25.73 165.96 29.75 172.05 29.75 172.41 30.21 172.41 31.62 172.03 32.04 164.05 32.04 163.58 31.58"/><polygon class="cls-2" points="183.61 18.29 183.61 31.58 183.29 32.04 181.09 32.04 176.91 23.82 176.41 22.63 176.41 31.62 176 32.04 174.48 32.04 174.05 31.62 174.05 18.32 174.48 17.88 176.51 17.88 180.79 26.23 181.28 27.56 181.28 18.29 181.7 17.88 183.25 17.88 183.61 18.29"/><path class="cls-2" d="M192.15,24.44c1.61.72,2.36,1.49,2.36,3.82,0,2.69-1.24,4-4.71,4s-4.53-1.47-4.59-3.88l.43-.4h1.52l.43.4c.06,1.13.83,1.55,2.19,1.55,1.91,0,2.39-.44,2.39-1.75a1.45,1.45,0,0,0-.95-1.53l-3.73-1.81a3.26,3.26,0,0,1-2.05-3.4c0-2.21,1.07-3.76,4.38-3.76s4.42.93,4.51,3.74l-.41.41h-1.6l-.39-.47c0-1.14-.37-1.42-2.11-1.42s-2,.52-2,1.4a1.54,1.54,0,0,0,.93,1.53Z"/><path class="cls-2" d="M203.64,18.27l3.12,13.09V32h-2.29l-.87-3.74H199c-.26,1.23-.55,2.47-.83,3.74h-2.32v-.66L199,18.29l.49-.43h3.73ZM203.05,26c-.2-.93-.41-1.83-.63-2.78s-.45-2-.69-3.09h-.87L199.56,26Z"/><path class="cls-2" d="M217.17,32h-1.7l-3.41-5.77h-1.14l-.39-.38v5.73l-.4.42h-1.61l-.34-.42V18.27l.41-.41h4.64c3.17,0,3.92,1.81,3.92,3.78v1c0,.78-.24,3.08-2.46,3.48.55,1,1.12,1.89,1.69,2.83l1.2,2v.67ZM213,24.14c1.3,0,1.75-.36,1.75-1.49V21.7c0-1.16-.47-1.52-1.59-1.52h-2.66v4Z"/><path class="cls-2" d="M230,18.29v.76l-3.77,13h-3.68c-2.71-9.57-3.3-11.36-3.73-12.87v-.84l.43-.47h1.68l3.35,11.89h.2l3.39-11.89h1.69Z"/></g></g></g><polygon class="cls-4" points="2.86 -0.33 43.33 -0.33 43.8 0.13 43.8 3.12 26.55 20.37 26.55 22.67 43.8 39.92 43.8 42.91 43.33 43.37 2.86 43.37 2.4 42.91 2.4 0.13 2.86 -0.33"/><use width="135.19" height="133.9" transform="translate(1.93 8.03) scale(0.29 0.27)" xlink:href="#New_Symbol_23"/></svg>
