<?xml version="1.0" encoding="utf-8"?>
<!-- Generator: Adobe Illustrator 23.0.3, SVG Export Plug-In . SVG Version: 6.00 Build 0)  -->
<svg version="1.1" id="Layer_1" xmlns="http://www.w3.org/2000/svg" xmlns:xlink="http://www.w3.org/1999/xlink" x="0px" y="0px"
	 viewBox="0 0 235 45" style="enable-background:new 0 0 235 45;" xml:space="preserve">
<style type="text/css">
	.st0{fill:#FFFFFF;}
	.st1{fill:#2385A8;}
</style>
<symbol  id="New_Symbol_23" viewBox="-67.6 -66.9 135.2 133.9">
	<polygon class="st0" points="3.3,-8.2 7.4,-8.8 7.7,-9.4 20.4,-8.6 19.7,-7.9 15.6,-8.1 12.2,-7.2 6.1,-8.2 6.4,-7.7 	"/>
	<polygon class="st0" points="-14.7,2.2 -9.2,-1.7 -6.8,-2.1 -6.7,-3.2 5,-3.2 5.9,-2.3 6.8,-0.2 7.3,2.6 5.7,5.8 2,5.8 1,6.8
		0.3,5.7 -3.1,6.7 -4.3,5.3 -4.1,3.7 -3.5,2.5 -2,1.3 -8.4,1.9 -11.1,2.6 -10,4.6 -8.5,4.4 -7.9,5.5 -8.6,6.5 -8.9,5.9 -11.6,6.4
		-10.9,8.1 -13,8.7 -13.8,8.4 -18,11.3 -17.4,9.1 -16.6,8.1 -16.8,3.1 	"/>
	<path class="st0" d="M10.6-4.2L8.5-3l0.8,4.8L12,8.9l-2.7,1.8l-1.8,1.5l-2.6,0.2l-3.1,1.8L-0.9,13l1-0.6l1.6,1l3.1-2h2.4l1.2-1.3
		l2.8-2L8.6,2.5L8.3-0.9L7-3l3-2.5h57.6v1.4L10.6-4.2z"/>
	<path class="st0" d="M-48.5-14.5l-1,3.1l5.9,3l0.5-0.3l8.3,1l0.6-0.7l10.6,1.1l1.3,0.5L9.4-6.3L7.7-4.6L5.5-4.9L4.3-4.4L2.2-4.5
		l0.6,0.4H0.1l0.4-1.3L-1-4.8l-6.4,0.4l0.2-1.1H-11l-3.8,1.4l-9.6,1.9l-1.4,1.3l-3.8,1.6l0.1-0.2l-1.2,0.7l-15.3,3l-1.6-0.2
		l-5.2-1.9l-7-1.3l1.6-1.4l-5.2,0.7L-66-1.3v12.6l0.7-2.1l15.7-0.8l3.5,0.4l1.4-1.2l4.5-1.9l1,0.7l2.4-0.7h0.9l2.5-1.1l4.2-1
		l5.2-3.6l1.5-0.1l1-0.7l2.1-0.8l3.6-0.3l-1.5,1.1l0.5,0.6l-2.9,2.3l0.2,2.8l-1.9,8.2l-2.7-0.4l-3.8,3.1l-0.8-0.2l-4.1,4.3l-0.2,1.3
		l-3.8,2.5l-4.2,2l-4.1-8l0.4,4.3l-1.7,0.8l3.8,3.7l-4.3,2.8l1.8,3.3l-0.9,1.6l-3.8,3.5l-2.5,1.4l-2,3.8l-5.9,5.6l-4.6,1.8L-66,51
		v13.7l5.3,0.7l0.1-0.6l17.1-7.4l-0.3-4l1-2.5l-0.8-2.2l2.6-2.8l-0.5-1.9l1.5-5.8l-0.2-4.6l0.3-1.9l1.4,0.8l0.6-0.1l0.4,0.3l3.3,0.1
		l5.5-1.3l0.9-2.2l0.7,0.4l4-1v-1.7l2-0.8l0.5-1.2h1.3l0.8-1.5l-0.1-1.2l0.5-1.5l0.6,0.7l1.3-2.6l-0.1-2l2.6-1.1l1.5,0.5l8.8-1.5
		l2.8-1.7l-2.8,2.8l-7,1l-2.9,0.6h-1.6l-1,4l-1.2,1.9l-1.4,2.8l-2.1,0.9l-2.2,2.9l-4.3,1.1l-1,1.3l-3.3,1.3c-1.8-0.1-3.5-0.1-5.3,0
		c-0.9,0.2-1.8-0.1-2.5-0.7l0.3,5.5l-0.7,5l0.6,3l-3.1,2.5l1.2,3l-1.2,2v5.4l-17.2,7.5l-7.8-1V-66.9h1.6v39.3l5.6,7l1.9,1.3h3.8
		l4.1,2.2L-48.5-14.5z M-16.4-5.7l0.4-0.9l-0.6,0.7L-16.4-5.7z M-25.5,9.5l1.3-2l1.7-1.5l2.4-0.7l-1.8-0.3l0.2-0.8l-4,0.8L-26.1,6
		l-0.1-0.3l-1.4,5.3L-25.5,9.5z M-52.8-8.2l0.1,1l1.2,0.4l0.1-1.1l1.8-3.3l-2.2,2.7L-52.8-8.2z"/>
</symbol>
<title>Artboard 2</title>
<path class="st1" d="M58.5,12c0,2.6-1.2,3.9-4.5,3.9s-4.4-1.4-4.5-3.6l0.2-0.1H51l0.2,0.1c0,1.4,1,2,2.8,2c2.2,0,3-0.6,3-2.2
	c0.1-0.9-0.4-1.7-1.2-2.1c-1.3-0.7-2.5-1.2-4-2c-1.3-0.5-2.1-1.9-1.9-3.3c0-2.2,1-3.7,4.2-3.7s4.2,0.9,4.3,3.4l-0.2,0.2h-1.3
	l-0.2-0.2c0-1.5-0.5-1.9-2.7-1.9s-2.6,0.7-2.6,2c-0.1,0.9,0.4,1.6,1.2,2l3.7,1.7C57.8,8.8,58.8,10.4,58.5,12z"/>
<path class="st1" d="M63.3,15.6V2.8h-3.6l-0.1-0.1V1.3l0.1-0.2h8.9l0.1,0.1v1.3l-0.2,0.2H65v12.7l-0.2,0.2L63.3,15.6z"/>
<path class="st1" d="M70.1,15.4V1.3l0.2-0.1h8.2l0.1,0.1v1.3l-0.2,0.2h-6.8v4.5h6.3l0.2,0.2v1.3l-0.2,0.1h-6.3v5.3h6.8l0.2,0.2v1.2
	l-0.1,0.2h-8.1L70.1,15.4z"/>
<path class="st1" d="M90.7,1.3v0.5l-3.8,13.8h-3.3c-1.2-4.5-2.6-9.2-3.8-13.5V1.4l0.2-0.2h1.2c1.1,4,2.5,8.6,3.6,12.6v0.2h0.9v-0.2
	l3.7-12.6h1.2L90.7,1.3z"/>
<path class="st1" d="M101.3,1.3v14.1l-0.2,0.2h-1.8L93.9,4.8l-0.3-0.9v11.6l-0.1,0.2h-1.3L92,15.5V1.3l0.2-0.1h1.7L99.3,12l0.3,1
	V1.3l0.2-0.1h1.3L101.3,1.3z"/>
<path class="st1" d="M112.2,12c0,2.6-1.2,3.9-4.5,3.9s-4.4-1.4-4.5-3.6l0.2-0.1h1.3l0.2,0.1c0,1.4,1,2,2.8,2c2.2,0,3-0.6,3-2.2
	c0.1-0.9-0.4-1.7-1.2-2.1c-1.3-0.7-2.5-1.2-4-2c-1.3-0.5-2.1-1.9-1.9-3.3c0-2.2,1-3.7,4.2-3.7s4.2,0.9,4.3,3.4l-0.2,0.2h-1.3
	l-0.2-0.2c0-1.5-0.5-1.9-2.7-1.9s-2.6,0.7-2.6,2c-0.1,0.9,0.4,1.7,1.2,2.1l3.7,1.7C111.5,8.9,112.4,10.4,112.2,12z"/>
<path class="st1" d="M122.7,8.3v0.3l4.8,6.1v0.6l-0.1,0.2h-1.2c-1.8-2-3.2-4-4.9-6.1h-1.3v6l-0.2,0.2h-1.3l-0.2-0.2V1.3l0.2-0.2h1.3
	l0.2,0.2v6.6h1.1l4.7-6.8h1.2c0,0.1,0.1,0.1,0.1,0.1v0.6L122.7,8.3z"/>
<path class="st1" d="M137.6,14.2v1.3l-0.1,0.2h-8l-0.1-0.2V1.3l0.1-0.2h1.4c0,0.1,0,0.1,0,0.2V14h6.6L137.6,14.2z"/>
<path class="st1" d="M141.4,15.4l-0.1,0.2H140l-0.2-0.2V1.3l0.2-0.2h1.3l0.1,0.2L141.4,15.4z"/>
<path class="st1" d="M153.5,1.3v14.1l-0.2,0.2h-1.8l-5.4-10.9l-0.3-1v11.6l-0.1,0.2h-1.3l-0.2-0.2V1.3l0.2-0.1h1.7l5.5,10.8l0.3,1
	V1.3l0.2-0.1h1.3L153.5,1.3z"/>
<path class="st1" d="M158.7,15.6V2.8h-3.6L155,2.6V1.3l0.1-0.2h8.8l0.1,0.1v1.3l-0.2,0.2h-3.5v12.7l-0.2,0.2L158.7,15.6z"/>
<path class="st1" d="M58.6,19.8v9.7c0,2.8-1.4,4.1-4.5,4.1s-4.6-1.3-4.6-4.1v-9.7l0.4-0.4h1.5l0.4,0.4v9.7c0,1.4,0.8,1.9,2.2,1.9
	s2.2-0.6,2.2-1.9v-9.7l0.4-0.4h1.7L58.6,19.8z"/>
<path class="st1" d="M69.6,19.8v13.1l-0.3,0.4h-2.2L63,25.2L62.6,24v9l-0.4,0.4h-1.5L60.4,33V19.9l0.4-0.4h2l4.2,8.2l0.5,1.3v-9.2
	l0.4-0.4h1.5L69.6,19.8z"/>
<path class="st1" d="M71.6,32.9V19.8l0.4-0.4h7.8l0.4,0.4v1.5l-0.4,0.4h-5.9v3.2h5.5l0.4,0.4v1.5l-0.4,0.4h-5.5v4h5.9l0.4,0.5V33
	l-0.4,0.4H72L71.6,32.9z"/>
<path class="st1" d="M88.1,25.9c1.5,0.6,2.5,2.1,2.2,3.8c0,2.7-1.2,4-4.6,4s-4.4-1.5-4.4-3.8l0.4-0.4h1.5l0.4,0.4
	c0,1.1,0.8,1.5,2.2,1.5c1.8,0,2.3-0.4,2.3-1.7c0.1-0.7-0.3-1.3-0.9-1.5l-3.7-1.9c-1.3-0.5-2.2-1.9-2-3.4c0-2.2,1-3.7,4.3-3.7
	s4.4,0.9,4.4,3.7l-0.4,0.4h-1.6l-0.4-0.5c0-1.1-0.3-1.4-2-1.4s-2,0.5-2,1.4c-0.1,0.6,0.3,1.3,0.9,1.5L88.1,25.9z"/>
<path class="st1" d="M100.9,29.4c0.1,2.2-1.6,4-3.8,4.1c-0.2,0-0.4,0-0.6,0c-2.1,0.3-4-1.2-4.4-3.3c0-0.3-0.1-0.6,0-0.9v-6.1
	c-0.1-2.2,1.6-4,3.8-4.1c0,0,0,0,0,0c0.2,0,0.4,0,0.6,0c3.2,0,4.4,1.8,4.4,4l-0.4,0.4H99l-0.4-0.4c0-1.2-0.6-1.7-2.2-1.8h-0.2
	c-0.9-0.1-1.8,0.5-1.9,1.4c0,0,0,0,0,0c0,0.1,0,0.3,0,0.4v6c-0.1,0.9,0.6,1.8,1.6,1.9c0.1,0,0.3,0,0.4,0h0.2c1.5,0,2-0.5,2.2-1.8
	l0.5-0.4h1.4L100.9,29.4z"/>
<path class="st1" d="M107,33.7c-3.2,0-4.5-1.9-4.5-3.9v-6.8c0-1.9,1.2-3.9,4.5-3.9c2.2-0.3,4.2,1.2,4.5,3.4c0,0.2,0,0.3,0,0.5v6.8
	C111.5,31.7,110.2,33.7,107,33.7z M109.2,22.9c0-1.3-1-1.7-2.2-1.7s-2.2,0.4-2.2,1.7v6.8c0,1.4,1.5,1.7,2.2,1.7h0.2
	c0.6,0,2.2-0.2,2.2-1.7L109.2,22.9z"/>
<path class="st1" d="M127.6,19.8v0.8l-3.7,12.8h-3.6c-2.6-9.5-3.2-11.2-3.6-12.7v-0.8l0.4-0.5h1.6l3.2,11.8h0.2l3.3-11.8h1.6
	L127.6,19.8z"/>
<path class="st1" d="M128.5,32.9V19.8l0.4-0.4h7.8l0.4,0.4v1.5l-0.4,0.4h-5.9v3.2h5.4l0.4,0.4v1.5l-0.4,0.4h-5.4v4h5.9l0.4,0.5V33
	l-0.4,0.4h-7.7L128.5,32.9z"/>
<path class="st1" d="M147.4,33.4h-1.7l-3.3-5.7h-1.2l-0.4-0.4V33l-0.4,0.4h-1.4l-0.3-0.4V19.9l0.4-0.4h4.5c1.8-0.3,3.5,1,3.8,2.8
	c0.1,0.3,0.1,0.7,0,1V24c0,0.8-0.2,3.1-2.4,3.5c0.5,0.9,1.1,1.9,1.6,2.8l1.2,2v0.7L147.4,33.4z M143.4,25.6c1.2,0,1.7-0.4,1.7-1.5
	v-1c0-1.1-0.4-1.5-1.5-1.5H141v3.9L143.4,25.6z"/>
<path class="st1" d="M158.7,23.3v6.1c0.1,2-1.4,3.8-3.5,3.9c0,0,0,0,0,0c-0.1,0-0.3,0-0.4,0h-4.4L150,33V19.6l0.5-0.4h4.4
	c2.1-0.1,3.8,1.5,3.9,3.6c0,0,0,0,0,0C158.8,23,158.8,23.2,158.7,23.3z M156.6,23.3c0.1-0.8-0.5-1.6-1.3-1.7c0,0,0,0,0,0h-3.1v9.5
	h2.8c0.8,0,1.5-0.6,1.6-1.4c0-0.1,0-0.2,0-0.3L156.6,23.3z"/>
<path class="st1" d="M160.6,32.9V19.8l0.4-0.4h7.8l0.4,0.4v1.5l-0.4,0.4h-5.9v3.2h5.5l0.4,0.4v1.5l-0.4,0.4h-5.5v4h5.9l0.4,0.5V33
	l-0.4,0.4h-7.7L160.6,32.9z"/>
<path class="st1" d="M180,19.8v13.1l-0.3,0.4h-2.2l-4.1-8.1L173,24v9l-0.4,0.4h-1.5l-0.4-0.4V19.9l0.4-0.4h2l4.1,8.3l0.4,1.3v-9.1
	l0.4-0.4h1.5L180,19.8z"/>
<path class="st1" d="M188.3,25.9c1.6,0.5,2.6,2.1,2.3,3.8c0,2.7-1.2,4-4.6,4s-4.4-1.5-4.4-3.8l0.4-0.4h1.5l0.4,0.4
	c0,1.1,0.8,1.5,2.2,1.5c1.9,0,2.3-0.4,2.3-1.7c0.1-0.7-0.3-1.3-0.9-1.5l-3.8-1.9c-1.3-0.5-2.2-1.9-2-3.4c0-2.2,1.1-3.7,4.3-3.7
	s4.4,0.9,4.4,3.7l-0.4,0.4h-1.6l-0.4-0.5c0-1.1-0.4-1.4-2.1-1.4s-2,0.5-2,1.4c-0.1,0.6,0.3,1.2,0.9,1.5L188.3,25.9z"/>
<path class="st1" d="M199.4,19.8l3,13v0.7h-2.2l-0.9-3.7H195c-0.3,1.2-0.5,2.5-0.8,3.7H192v-0.7l3-13l0.5-0.4h3.6L199.4,19.8z
	 M198.9,27.4c-0.2-0.9-0.4-1.8-0.6-2.8s-0.4-1.9-0.7-3.1h-0.8l-1.3,5.8H198.9z"/>
<path class="st1" d="M212.6,33.4h-1.6l-3.3-5.7h-1.1l-0.4-0.4V33l-0.4,0.4h-1.6l-0.4-0.4V19.9l0.4-0.4h4.5c1.8-0.3,3.5,0.9,3.8,2.7
	c0.1,0.3,0.1,0.7,0,1V24c0,0.8-0.2,3.1-2.4,3.5l1.6,2.8l1.2,2v0.7L212.6,33.4z M208.6,25.6c1.2,0,1.7-0.4,1.7-1.5v-1
	c0-1.1-0.5-1.5-1.5-1.5h-2.6v3.9L208.6,25.6z"/>
<path class="st1" d="M225,19.8v0.8l-3.6,12.8h-3.6c-2.6-9.5-3.2-11.2-3.6-12.7v-0.8l0.4-0.5h1.6l3.2,11.8h0.2l3.3-11.8h1.6L225,19.8
	z"/>
<polygon class="st1" points="2.9,1.2 43.3,1.2 43.8,1.6 43.8,4.6 26.5,21.9 26.5,24.2 43.8,41.4 43.8,44.4 43.3,44.9 2.9,44.9
	2.4,44.4 2.4,1.6 "/>
<use xlink:href="#New_Symbol_23"  width="135.2" height="133.9" x="-67.6" y="-66.9" transform="matrix(0.29 0 0 -0.27 21.7262 27.9917)" style="overflow:visible;"/>
<path class="st1" d="M51.2,36.7l0.2,0.2v3.2h0.4l2.3-3.5h1.2l0.2,0.2v0.6l-2.2,3.3v0.2l2.2,3.1v0.6l-0.2,0.2h-1.2l-2.2-3h-0.6v2.8
	l-0.2,0.2h-1.2l-0.2-0.2v-7.8l0.2-0.2L51.2,36.7z"/>
<path class="st1" d="M70.9,36.7l0.2,0.2v3.2h0.4l2.3-3.5H75l0.2,0.2v0.6L73,40.8V41l2.2,3.1v0.6l-0.2,0.2h-1.2l-2.2-3h-0.6v2.8
	l-0.2,0.2h-1.2l-0.2-0.2v-7.9l0.2-0.2L70.9,36.7z"/>
<path class="st1" d="M62.8,44.9h-1.6L60.9,43h-2.8l-0.4,1.9h-1.6v-0.3l1.8-8h3l1.8,7.9L62.8,44.9z M60.6,41.5l-0.7-3.4h-0.8
	l-0.7,3.4H60.6z"/>
<path class="st1" d="M68.5,43.4v1.2l-0.2,0.2h-4.4l-0.2-0.2v-7.8l0.2-0.2h1.3l0.2,0.2v6.4h3L68.5,43.4z"/>
<path class="st1" d="M85.3,36.7h-2.2l-1.7,8.1v0.1h1l0.5-2.3h2.8l0.5,2.3h1v-0.1C86.5,42.1,85.9,39.4,85.3,36.7L85.3,36.7z M83,41.7
	l0.9-4.1h0.7l0.9,4.1H83z"/>
<path class="st1" d="M97.3,36.7h-2.6l-0.1,0.1v8l0.1,0.1h2.7c1.1,0,2-0.9,2-2c0-0.1,0-0.1,0-0.2v-3.8c0.1-1.1-0.7-2.1-1.8-2.2
	c0,0,0,0,0,0L97.3,36.7L97.3,36.7z M98.5,42.7c0,1.1-0.7,1.3-1.1,1.3h-1.9v-6.3h1.9c0.4,0,1.1,0.2,1.1,1.3V42.7z"/>
<path class="st1" d="M93,36.7h-0.8l-0.1,0.1v6.6L92,42.8l-2.8-6.1h-1.1L88,36.8v8l0.1,0.1h0.8l0.1-0.1v-6.6l0.2,0.5l2.8,6.1H93
	l0.1-0.1L93,36.7L93,36.7z"/>
<path class="st1" d="M108.9,44.9L108.9,44.9l0.1-7.2h1.9l0.1-0.1v-0.8l-0.1-0.1h-4.6l-0.1,0.1v0.9l0.1,0.1h1.8v7.2L108.9,44.9z"/>
<path class="st1" d="M80.7,43.9h-3.3v-7.1l-0.1-0.1h-0.9l-0.1,0.1v8l0.1,0.1h4.2l0.1-0.1V44L80.7,43.9z"/>
<polygon class="st1" points="100.7,40.1 100.7,41.3 104.8,41.3 104.9,41.2 104.9,40.2 104.8,40.1 "/>
<polygon class="st1" points="100.7,43.8 100.7,44.7 100.8,44.9 105.1,44.9 105.1,44.8 105.1,43.9 105.1,43.8 "/>
<polygon class="st1" points="105,36.7 100.7,36.7 100.6,36.8 100.6,37.8 101.5,37.8 101.5,37.8 105,37.8 105.1,37.7 105.1,36.8 "/>
</svg>
