<svg id="Layer_1" data-name="Layer 1" xmlns="http://www.w3.org/2000/svg" xmlns:xlink="http://www.w3.org/1999/xlink" width="235" height="45" viewBox="0 0 235 45"><defs><style>.cls-1{fill:#fff;}.cls-2{fill:#2385a8;}</style><symbol id="New_Symbol_23" data-name="New Symbol 23" viewBox="0 0 135.21 133.9"><polygon class="cls-1" points="70.86 58.76 75 58.1 75.29 57.56 87.98 58.32 87.31 59.09 83.17 58.87 79.81 59.74 73.75 58.76 74.04 59.2 70.86 58.76"/><polygon class="cls-1" points="52.88 69.15 58.36 65.21 60.77 64.89 60.86 63.79 72.59 63.79 73.46 64.67 74.42 66.75 74.9 69.59 73.27 72.76 69.61 72.76 68.65 73.75 67.88 72.65 64.52 73.64 63.27 72.22 63.46 70.68 64.13 69.48 65.58 68.28 59.23 68.83 56.54 69.59 57.59 71.56 59.13 71.34 59.71 72.43 59.04 73.42 58.75 72.87 55.96 73.31 56.73 75.06 54.61 75.61 53.84 75.39 49.61 78.23 50.19 76.04 50.96 75.06 50.77 70.03 52.88 69.15"/><path class="cls-1" d="M78.24,62.73,76.09,63.9l.8,4.77,2.73,7.15-2.73,1.8L75.1,79.16l-2.55.22-3.14,1.8L66.69,79.9l1-.59,1.64,1,3.07-2h2.4L76,77l2.79-2-2.6-5.58-.29-3.39L74.61,63.9l3-2.51h57.6v1.36Z"/><path class="cls-1" d="M19.13,52.42l-1,3.06,5.87,3,.47-.32,8.27,1,.58-.66L43.9,59.6l1.35.54L77,60.62l-1.73,1.75L73.06,62l-1.16.55-2.12-.11.58.44H67.69l.39-1.32-1.45.55-6.44.44.19-1.09H56.63l-3.75,1.4-9.62,1.86-1.44,1.31L38.07,67.6l.1-.22L37,68.06l-15.29,3-1.62-.16L14.9,69l-7-1.31,1.63-1.42L4.34,67,1.63,65.65V78.23l.67-2.08L18,75.39l3.55.43,1.35-1.2,4.52-1.86,1,.66,2.41-.66h.86l2.5-1.09,4.23-1,5.19-3.61,1.54-.1,1-.66,2.12-.77,3.56-.33-1.45,1.1.49.55L48,69.15l.17,2.75-1.92,8.2-2.7-.44-3.84,3.07-.77-.22L34.8,86.76l-.19,1.32-3.75,2.51-4.23,2-4.13-8,.38,4.26-1.73.77,3.75,3.72-4.33,2.84,1.83,3.28-.87,1.64-3.75,3.5L15.28,106l-2,3.82L7.4,115.42l-4.62,1.75-1.15.73v13.75l5.27.74.1-.55,17.13-7.45-.29-4,1-2.52L24,115.64l2.59-2.84-.54-1.9,1.45-5.8-.2-4.59.29-1.86,1.35.76.57-.11.39.33,3.27.11,5.48-1.31.87-2.19.67.44,4-1V94l2-.76L46.67,92H48l.77-1.53-.1-1.2.48-1.53.58.66,1.34-2.63-.07-2,2.59-1.09,1.54.54,8.75-1.53,2.81-1.72-2.77,2.83-7,1L54,84.45H52.41l-1,4L50.24,90.3,48.8,93.11,46.7,94,44.49,96.9,40.17,98l-1,1.35-3.34,1.35a52.05,52.05,0,0,0-5.3,0,3.14,3.14,0,0,1-2.55-.68l.26,5.51-.73,5,.58,3L25,116l1.17,3L25,121v5.4L7.82,133.9,0,132.9V0H1.63V39.29l5.58,7L9.13,47.6h3.75L17,49.79Zm32.12,8.86.38-.88-.58.66Zm-9.14,15.2,1.35-2L45.19,73l2.4-.66L45.77,72,46,71.2,42,72l-.52.93-.1-.33L40,77.9ZM14.8,58.76l.1,1,1.15.44.1-1.09L18,55.81l-2.22,2.73Z"/></symbol><symbol id="New_Symbol_2" data-name="New Symbol 2" viewBox="0 0 135.19 133.9"><polygon class="cls-1" points="70.86 75.14 75 75.8 75.29 76.34 87.98 75.58 87.31 74.81 83.17 75.03 79.81 74.16 73.75 75.14 74.04 74.7 70.86 75.14"/><polygon class="cls-1" points="52.88 64.75 58.36 68.69 60.77 69.01 60.86 70.11 72.59 70.11 73.46 69.23 74.42 67.15 74.9 64.31 73.27 61.14 69.61 61.14 68.65 60.15 67.88 61.25 64.52 60.26 63.27 61.68 63.46 63.22 64.13 64.42 65.58 65.62 59.23 65.07 56.54 64.31 57.59 62.34 59.13 62.56 59.71 61.47 59.04 60.48 58.75 61.03 55.96 60.59 56.73 58.84 54.61 58.29 53.84 58.51 49.61 55.67 50.19 57.86 50.96 58.84 50.77 63.87 52.88 64.75"/><path class="cls-1" d="M78.24,71.17,76.09,70l.8-4.77,2.73-7.15-2.73-1.8L75.1,54.74l-2.55-.22-3.14-1.8L66.69,54l1,.59,1.64-1,3.07,2h2.4L76,56.87l2.79,2-2.6,5.58-.29,3.39L74.61,70l3,2.51h57.6V71.15Z"/><path class="cls-1" d="M19.13,81.48l-1-3.06,5.87-3,.47.32,8.27-1,.58.66,10.58-1.1,1.35-.54L77,73.28l-1.73-1.75-2.21.33-1.16-.55-2.12.11.58-.44H67.69l.39,1.32-1.45-.55-6.44-.44.19,1.09H56.63L52.88,71l-9.62-1.86-1.44-1.31-3.75-1.53.1.22L37,65.84l-15.29-3L20.09,63,14.9,64.86l-7,1.31,1.63,1.42-5.19-.66L1.63,68.25V55.67l.67,2.08L18,58.51l3.55-.43,1.35,1.2,4.52,1.86,1-.66,2.41.66h.86l2.5,1.09,4.23,1,5.19,3.61,1.54.1,1,.66,2.12.77,3.56.33-1.45-1.1.49-.55L48,64.75,48.17,62l-1.92-8.2-2.7.44-3.84-3.07-.77.22L34.8,47.14l-.19-1.32-3.75-2.51-4.23-2-4.13,8,.38-4.26-1.73-.77,3.75-3.72-4.33-2.84,1.83-3.28-.87-1.64-3.75-3.5-2.5-1.43-2-3.82L7.4,18.48,2.78,16.73,1.63,16V2.25L6.9,1.51l.1.55L24.13,9.51l-.29,4,1,2.52L24,18.26l2.59,2.84L26.05,23l1.45,5.8-.2,4.59.29,1.86,1.35-.76.57.11.39-.33,3.27-.11,5.48,1.31.87,2.19.67-.44,4,1v1.64l2,.76.48,1.32H48l.77,1.53-.1,1.2.48,1.53.58-.66,1.34,2.63L51,50.2l2.59,1.09,1.54-.54,8.75,1.53L66.69,54l-2.77-2.83-7-1L54,49.45H52.41l-1-4-1.17-1.85L48.8,40.79l-2.1-.91L44.49,37l-4.32-1.13-1-1.35-3.34-1.35a51.7,51.7,0,0,1-5.3,0,3.12,3.12,0,0,0-2.55.68l.26-5.51-.73-5,.58-3L25,17.9l1.17-3-1.17-2V7.5L7.82,0,0,1V133.9H1.63V94.61l5.58-7L9.13,86.3h3.75L17,84.11Zm32.12-8.86.38.88-.58-.66Zm-9.14-15.2,1.35,2,1.73,1.53,2.4.66-1.82.32.19.77-4-.77L41.44,61l-.1.33L40,56ZM14.8,75.14l.1-1,1.15-.44.1,1.09L18,78.09l-2.22-2.73Z"/></symbol><symbol id="New_Symbol_26" data-name="New Symbol 26" viewBox="0 0 112.04 120.07"><polygon class="cls-2" points="2.16 0 110.8 0 112.04 1.24 112.04 9.26 65.74 55.56 65.74 61.73 112.04 108.02 112.04 116.05 110.8 117.28 2.16 117.28 0.93 116.05 0.93 1.24 2.16 0"/><use width="135.19" height="133.9" transform="translate(0 23.52) scale(0.77 0.72)" xlink:href="#New_Symbol_2"/></symbol></defs><title>Artboard 2</title><path class="cls-2" d="M58.52,12c0,2.59-1.19,3.92-4.5,3.92s-4.37-1.37-4.5-3.58l.18-.14H51l.16.14c0,1.44,1,2,2.79,2,2.25,0,3-.59,3-2.25a2,2,0,0,0-1.24-2.07c-1.26-.66-2.49-1.22-4-2a3.16,3.16,0,0,1-1.9-3.27c0-2.25,1-3.65,4.22-3.65s4.25.86,4.32,3.45l-.16.16h-1.3l-.18-.18c0-1.47-.52-1.87-2.68-1.87s-2.64.74-2.64,2A2,2,0,0,0,52.6,6.64L56.25,8.3A3.38,3.38,0,0,1,58.52,12Z"/><path class="cls-2" d="M63.32,15.6V2.76H59.74l-.13-.13V1.3l.13-.16h8.87l.14.14V2.56l-.2.2H65V15.44l-.18.16Z"/><path class="cls-2" d="M70.12,15.4V1.28l.16-.14h8.17l.14.14v1.3l-.16.16H71.68V7.25h6.26l.15.15V8.69l-.15.15H71.68v5.27h6.75l.16.18v1.24l-.14.16H70.32Z"/><path class="cls-2" d="M90.73,1.3v.54L86.9,15.6H83.56C82.33,11.1,81,6.44,79.76,2.09V1.44l.18-.18h1.19c1.13,4,2.5,8.62,3.63,12.63v.25h.88v-.25L89.31,1.26h1.24Z"/><path class="cls-2" d="M101.26,1.3V15.44l-.15.18H99.33L93.9,4.77l-.31-.92V15.47l-.14.18H92.14L92,15.47V1.32l.15-.15h1.74L99.33,12l.34,1V1.3l.18-.13h1.26Z"/><path class="cls-2" d="M112.21,12c0,2.59-1.2,3.92-4.51,3.92s-4.36-1.37-4.5-3.58l.16-.14h1.28l.16.14c0,1.44,1,2,2.79,2,2.25,0,3-.59,3-2.25a2,2,0,0,0-1.23-2.07c-1.27-.66-2.48-1.22-4-2a3.14,3.14,0,0,1-1.89-3.27c0-2.25,1-3.65,4.21-3.65s4.25.86,4.32,3.45l-.16.16h-1.3l-.18-.18c0-1.47-.52-1.87-2.68-1.87s-2.62.74-2.62,2a2,2,0,0,0,1.24,2.07l3.65,1.66A3.39,3.39,0,0,1,112.21,12Z"/><path class="cls-2" d="M122.66,8.28V8.6l4.79,6.1v.65l-.13.16H126.1c-1.75-2-3.24-4-4.91-6.12h-1.3v6l-.16.16H118.4l-.16-.16V1.3l.18-.16h1.31l.16.16V7.92H121l4.73-6.75h1.19a.57.57,0,0,0,.12.15v.61Z"/><path class="cls-2" d="M137.59,14.18v1.26l-.14.16h-8l-.13-.16V1.3l.13-.16h1.38a.43.43,0,0,0,0,.16V14h6.59Z"/><path class="cls-2" d="M141.37,15.44l-.14.16H140l-.18-.16V1.3l.18-.16h1.28l.14.16Z"/><path class="cls-2" d="M153.53,1.3V15.44l-.16.18h-1.78L146.17,4.77l-.32-1V15.4l-.13.18h-1.31l-.16-.18V1.32l.16-.15h1.73L151.59,12l.34,1V1.3l.18-.13h1.26Z"/><path class="cls-2" d="M158.69,15.6V2.76h-3.61L155,2.63V1.3l.13-.16h8.78l.14.14V2.56l-.2.2h-3.54V15.44l-.16.16Z"/><path class="cls-2" d="M58.59,19.78v9.7c0,2.76-1.38,4.09-4.55,4.09s-4.59-1.35-4.59-4.11V19.78l.39-.42h1.49l.39.42v9.68c0,1.38.85,1.93,2.19,1.93s2.18-.57,2.18-1.93V19.78l.4-.42h1.7Z"/><path class="cls-2" d="M69.58,19.78V32.89l-.31.44H67.09L63,25.22,62.56,24v9l-.39.39H60.68l-.3-.39V19.87l.41-.44h2l4.17,8.22L67.42,29V19.78l.41-.42h1.49Z"/><path class="cls-2" d="M71.55,32.94V19.82l.41-.41h7.78l.37.41v1.47l-.39.41H73.84v3.22h5.47l.39.39V26.8l-.39.39H73.84v4h5.9l.37.46V33l-.37.4H72Z"/><path class="cls-2" d="M88.05,25.88a3.38,3.38,0,0,1,2.18,3.76c0,2.66-1.2,4-4.56,4s-4.38-1.45-4.38-3.83l.42-.39H83.2l.41.39c0,1.12.81,1.53,2.19,1.53,1.85,0,2.31-.44,2.31-1.72a1.46,1.46,0,0,0-.91-1.53l-3.68-1.88a3.25,3.25,0,0,1-2-3.37c0-2.19,1-3.72,4.27-3.72s4.37.94,4.37,3.72l-.4.39H88.2l-.37-.46c0-1.13-.35-1.39-2-1.39s-2,.5-2,1.37a1.5,1.5,0,0,0,.9,1.51Z"/><path class="cls-2" d="M100.94,29.44a4,4,0,0,1-3.75,4.15,4.28,4.28,0,0,1-.62,0A3.84,3.84,0,0,1,92.2,29.4V23.34A3.93,3.93,0,0,1,96,19.28a3.62,3.62,0,0,1,.57,0c3.24,0,4.37,1.75,4.37,3.95l-.41.42H99l-.39-.37c0-1.23-.55-1.73-2.19-1.75H96.2A1.7,1.7,0,0,0,94.27,23a1.76,1.76,0,0,0,0,.4v6a1.73,1.73,0,0,0,1.56,1.88,1.7,1.7,0,0,0,.39,0h.24c1.51,0,2-.55,2.19-1.84l.48-.44h1.44Z"/><path class="cls-2" d="M107,33.66c-3.23,0-4.5-1.92-4.5-3.94V22.91c0-1.86,1.2-3.9,4.53-3.9a4,4,0,0,1,4.48,3.4,3,3,0,0,1,0,.52v6.84C111.5,31.74,110.23,33.66,107,33.66Zm2.19-10.73c0-1.34-1-1.73-2.19-1.73s-2.18.44-2.18,1.73v6.79c0,1.38,1.48,1.71,2.18,1.71h.24c.64,0,2.19-.24,2.19-1.68Z"/><path class="cls-2" d="M127.59,19.78v.76l-3.65,12.83h-3.57c-2.64-9.46-3.21-11.23-3.62-12.72v-.83l.41-.46h1.64L122,31.12h.2l3.3-11.76h1.62Z"/><path class="cls-2" d="M128.48,32.94V19.82l.42-.41h7.78l.37.41v1.47l-.39.41H130.8v3.22h5.44l.39.39V26.8l-.39.39H130.8v4h5.9l.35.46V33l-.37.4h-7.74Z"/><path class="cls-2" d="M147.41,33.37h-1.66l-3.3-5.7h-1.2l-.38-.37V33l-.39.39h-1.42l-.33-.39V19.87l.4-.42h4.5a3.32,3.32,0,0,1,3.79,2.77,3.16,3.16,0,0,1,0,1V24c0,.79-.24,3.06-2.38,3.45.52.94,1.07,1.88,1.62,2.8l1.18,2v.68Zm-4-7.8c1.25,0,1.68-.35,1.68-1.46v-1c0-1.14-.43-1.49-1.53-1.49H141v3.91Z"/><path class="cls-2" d="M158.73,23.3v6.14a3.71,3.71,0,0,1-3.48,3.93,3.08,3.08,0,0,1-.43,0h-4.37L150,33V19.65l.48-.39h4.37a3.75,3.75,0,0,1,3.92,3.59A3.38,3.38,0,0,1,158.73,23.3Zm-2.18,0a1.51,1.51,0,0,0-1.3-1.7h-3.08v9.49h2.76a1.49,1.49,0,0,0,1.56-1.41,1.22,1.22,0,0,0,0-.27Z"/><path class="cls-2" d="M160.61,32.94V19.82l.42-.41h7.78l.37.41v1.47l-.39.41h-5.88v3.22h5.46l.39.39V26.8l-.39.39h-5.46v4h5.92l.35.46V33l-.37.4h-7.74Z"/><path class="cls-2" d="M180,19.78V32.89l-.33.44h-2.18l-4.05-8.11L173,24V33l-.39.39h-1.47l-.41-.39V19.87l.41-.44h2l4.13,8.28L177.7,29V19.85l.42-.42h1.48Z"/><path class="cls-2" d="M188.3,25.88a3.37,3.37,0,0,1,2.3,3.76c0,2.66-1.2,4-4.57,4s-4.37-1.45-4.37-3.83l.39-.39h1.49l.41.39c0,1.12.81,1.53,2.19,1.53,1.86,0,2.32-.44,2.32-1.72a1.44,1.44,0,0,0-.92-1.53l-3.76-1.88a3.24,3.24,0,0,1-2-3.37c0-2.19,1.05-3.72,4.26-3.72s4.37.94,4.37,3.72l-.39.39h-1.55l-.37-.46c0-1.13-.38-1.39-2.06-1.39s-2,.5-2,1.37a1.52,1.52,0,0,0,.9,1.51Z"/><path class="cls-2" d="M199.45,19.78l3,13v.66h-2.18l-.85-3.7H195c-.26,1.23-.54,2.45-.8,3.7H192v-.66l3-13,.49-.41h3.6Zm-.57,7.63c-.2-.94-.39-1.82-.61-2.76s-.44-1.94-.68-3.06h-.83l-1.27,5.82Z"/><path class="cls-2" d="M212.56,33.37h-1.64l-3.32-5.7h-1.09l-.37-.37V33l-.4.39h-1.55l-.35-.39V19.87l.4-.42h4.52a3.29,3.29,0,0,1,3.78,3.74V24c0,.79-.24,3.06-2.38,3.45l1.64,2.8,1.16,2v.68Zm-4-7.8c1.25,0,1.69-.35,1.69-1.46v-1c0-1.14-.46-1.49-1.53-1.49h-2.58v3.91Z"/><path class="cls-2" d="M225,19.78v.76l-3.65,12.83h-3.61c-2.64-9.46-3.21-11.23-3.62-12.72v-.83l.41-.46h1.64l3.23,11.76h.2l3.28-11.76h1.64Z"/><path class="cls-1" d="M0,25H0L.09,25h0Z"/><use width="135.21" height="133.9" transform="matrix(0.29, 0, 0, -0.27, 1.93, 45.68)" xlink:href="#New_Symbol_23"/><path class="cls-2" d="M51.15,36.68l.18.23v3.22h.39l2.34-3.45h1.17l.18.17v.6l-2.16,3.33v.16l2.25,3.11v.63l-.19.2H54.12l-2.2-3h-.59v2.8l-.18.17H49.93l-.17-.17V36.87l.17-.17Z"/><path class="cls-2" d="M70.89,36.68l.18.23v3.22h.39l2.34-3.45H75l.18.17v.6L73,40.8V41l2.25,3.11v.61l-.19.2h-1.2l-2.2-3h-.59v2.8l-.18.17H69.67l-.17-.17V36.87l.17-.17Z"/><path class="cls-2" d="M62.83,44.88H61.28L60.88,43H58.11l-.4,1.91H56.15v-.27L58,36.68h3l1.81,7.89Zm-2.28-3.4-.68-3.38h-.75l-.69,3.38Z"/><path class="cls-2" d="M68.49,43.43v1.25l-.23.17H63.87l-.17-.17v-7.8l.18-.18h1.28l.18.17v6.4h3Z"/><path class="cls-2" d="M85.28,36.68H83.07l-1.73,8.09v.09h1l.5-2.3h2.77l.49,2.3h1v-.1c-.58-2.69-1.16-5.39-1.72-8.08Zm-2.28,5,.86-4.13h.67l.86,4.13Z"/><path class="cls-2" d="M97.31,36.68H94.67l-.1.09v8l.08.09h2.7a2,2,0,0,0,2-2c0-.06,0-.13,0-.19v-3.8a2,2,0,0,0-1.82-2.18h-.22Zm1.17,6c0,1.07-.65,1.29-1.09,1.29H95.45V37.68h1.93c.44,0,1.1.22,1.1,1.29Z"/><path class="cls-2" d="M93,36.68h-.76l-.09.08V43.4L92,42.82,89.2,36.68H88.11l-.09.09v8l.09.09h.77l.08-.09V38.19l.16.53,2.77,6.14H93l.08-.1v-8Z"/><path class="cls-2" d="M108.93,44.87l.08-.09v-7.1h1.86l.11-.11v-.83l-.07-.08h-4.63l-.08.09v.93l.08.08h1.79v7.16Z"/><path class="cls-2" d="M80.74,43.88H77.4v-7.1l-.05-.09h-.86l-.07.09v8l.07.09h4.25l.07-.09V44Z"/><polygon class="cls-2" points="100.66 40.13 100.66 41.28 104.81 41.28 104.89 41.19 104.89 40.23 104.81 40.13 100.66 40.13"/><polygon class="cls-2" points="100.66 43.76 100.66 44.74 100.77 44.87 105.06 44.87 105.13 44.77 105.13 43.87 105.05 43.76 100.66 43.76"/><polygon class="cls-2" points="105.03 36.68 100.72 36.68 100.64 36.76 100.64 37.83 101.48 37.83 101.48 37.83 105.02 37.83 105.1 37.73 105.1 36.76 105.03 36.68"/><use width="112.04" height="120.07" transform="translate(2.36 0.5) scale(0.38)" xlink:href="#New_Symbol_26"/></svg>
