<svg id="Layer_1" data-name="Layer 1" xmlns="http://www.w3.org/2000/svg" width="300mm" height="300mm" viewBox="0 0 850.39 850.39"><defs><style>.cls-1{fill:#fff;}.cls-2{fill:#f1ebe3;}.cls-3{fill:#b7a595;}.cls-4{isolation:isolate;}</style></defs><title>Artboard 1</title><rect class="cls-1" x="-11.06" y="-4.78" width="877.05" height="880.72"/><path class="cls-2" d="M355.73,1.51s4.71,19.53,4,26.94,8.75,4,8.75,7.4-8.75,3.37-8.75,6.73-3.37,8.76-.68,11.45,6.74,4.71,4.72,8.75-8.08,10.1-6.74,14.14,0,14.14,2,15.49,6.06,12.79,8.08,16.83,16.84,33.67,20.2,34.34,12.8,2,13.47,4.71,3.37,8.08,8.08,10.78,43.76,17.5,48.48,20.2,16.83,11.44,23.56,14.81,33,18.85,38.38,21.55S528.77,219,535.5,217s27.61-2,38.38,1.35,31,8.75,40.4,9.43S738.17,348.94,740.19,360.39s-1.35,28.28,2,33.66,10.77,5.39,10.1,10.1-12.8,19.53-11.45,26.94-5.39,35-.67,53.19c0,0,12.79,10.1,13.46,20.87s-8.08,40.4-17.5,46.46-12.12-1.35-19.53,8.75-6.06,13.47-10.77,15.49-8.08,6.73-10.77,11.44-17.51,6.74-21.55,12.8-4,10.1-10.1,10.1-20.2-7.41-24.24-2.7-14.14,4-16.16,4-12.12,12.8-12.79,18.18-.67,18.18-7.41,24.24-28.28-.67-28.28-.67-44.44-8.76-68.67-4c0,0-22.9-2-29-5.39S414.31,660,414.31,660s-26.26,20.87-41.75,24.91-37,10.1-56.56,34.34c0,0-6.06,1.35-8.08-2s-35,44.44-35,44.44-.67,12.12-13.47,20.87S227.13,794,221.07,827.67l-.68,22.89,629.55.67L849.26.84Z"/><path class="cls-2" d="M100.65,848.51h86.92s25.3-25.3,18.7-30.81-28.6-8.8-45.11,0-26.41,13.21-34.11,12.11S100.65,848.51,100.65,848.51Z"/><path class="cls-3" d="M.25,806.3l-4.18-2.76c.23-.34,22.63-34.44,26.55-52.36,2.43-11.13,1.85-19.38,1.24-28.11a150.59,150.59,0,0,1-.49-18.36c.77-17,8.51-34.93,9.77-37.75,5.6-44.63,11.82-57.2,24.65-75.14C68,577.57,68.66,569.36,69.73,556.93c.16-1.87.32-3.83.53-5.91.86-8.56,8.27-25.17,16.12-42.76,7.43-16.64,15.11-33.85,17.06-44,4-20.86,15.28-63.59,15.39-64l.07-.21,7.28-20.21c4.08-11.36,14.36-16.13,23.43-20.34,8.16-3.8,15.22-7.07,16.91-14.15,3.81-16,14.17-41.8,27.89-60.71,8.06-11.12,9.24-33.05,10.37-54.26.61-11.41,1.24-23.21,2.92-33.59,3.38-20.84,8.46-28.18,15.49-38.34a191.67,191.67,0,0,0,11.47-18.23c7.59-13.85,7-25.13,6.08-40.75-.64-11.35-1.43-25.49,1-44.16C245.38,27.18,257.31,12,265.88,4.44a371.37,371.37,0,0,1-46.57,3.34c-18.52,0-28.86,8.34-38.85,16.4-4.89,3.94-9.94,8-15.79,11-17.95,9-97.56,27.58-119.83,31.08C24.65,69.38,14.12,68,3,66.55c-2.25-.29-4.55-.59-7-.87l.56-5c2.47.27,4.81.58,7.07.87,11.25,1.47,21,2.74,40.44-.32C68.91,57.37,145.73,39,162.43,30.65c5.37-2.68,10-6.41,14.89-10.36,10.17-8.21,21.7-17.51,42-17.51,28.13,0,56.13-4.8,56.41-4.84L295.8-5.54,277.16,2.69c-.24.11-25.08,11.71-30.47,53.28-2.36,18.21-1.61,31.51-1,43.24.89,15.83,1.6,28.33-6.69,43.43a196.15,196.15,0,0,1-11.74,18.68c-6.91,10-11.47,16.57-14.66,36.29-1.64,10.12-2.26,21.78-2.87,33-1.22,23-2.38,44.63-11.32,56.94C185.14,306,175.08,331,171.38,346.53c-2.25,9.43-11.1,13.54-19.67,17.52s-17.45,8.11-20.83,17.51l-7.24,20.1c-.63,2.39-11.41,43.39-15.29,63.58-2.06,10.68-9.86,28.15-17.4,45.06C83.61,526.75,76,543.76,75.24,551.52c-.21,2.05-.37,4-.53,5.84-1.09,12.77-1.88,22-12.86,37.36-11.34,15.88-18,27.11-23.8,73.23l0,.38-.16.35c-.08.19-8.69,19.17-9.47,36.25a144,144,0,0,0,.48,17.79c.63,9.1,1.24,17.69-1.35,29.52C23.39,771.07,1.19,804.87.25,806.3Z"/><g class="cls-4"><path d="M319.94,64.4v.24l4.17,5.25v.69l-.21.25h-1.25c-1.47-1.69-2.79-3.51-4.24-5.29h-.87v5l-.23.25H316l-.24-.25V58.24L316,58h1.28l.23.25v5.6h.7L322.31,58h1.17l.24.25v.65Z"/><path d="M332.43,58.89a3.86,3.86,0,0,1,1,2.54v6.05A3.53,3.53,0,0,1,329.75,71a4.29,4.29,0,0,1-1.19-.16c-.09.28-.24.63-.33.91h-1.08l-.29-.27v-.86l.2-.63a3.36,3.36,0,0,1-1-2.56v-6a3.47,3.47,0,0,1,3.73-3.47,5.78,5.78,0,0,1,1.22.14l.13-.36v0l.23-.68h1.1l.23.23v.92ZM329,64l1.42-4.27a3.81,3.81,0,0,0-.68-.07,1.78,1.78,0,0,0-2,1.8v6.09c0,.1.05.46.05.46Zm2.68-2.52v-.69c-.14.65-.31,1.23-.45,1.7-.45,1.49-1,3.43-2.12,6.77a3.08,3.08,0,0,0,.63,0,1.74,1.74,0,0,0,1.94-1.82Z"/><path d="M341.59,64.91l.77-.9h1c0,1.11,0,3.24,0,4.68v1.89l-.27.27h-.65l-.86,0v-.52l-2.16.66c-3.4,0-4-1.6-4-3.72V61.36c0-1.14.52-3.46,4-3.46,3.17,0,3.91,1.12,4,3.19l-.23.29h-1.26l-.25-.27c-.09-1.3-.69-1.5-2.22-1.5-1.13,0-2.27.2-2.27,1.79v5.85c0,1.58.65,2,2.27,2,.22,0,2.18-.24,2.18-.24Z"/><path d="M345.44,70.54V58.23l.25-.24h7.2l.22.24v1.26l-.23.25h-5.69V63.2h5.29l.23.23v1.26l-.23.23h-5.29v4.2h5.7l.22.27v1.19l-.22.25h-7.16Z"/></g><g class="cls-4"><path d="M244.53,179.06V191.4l-.23.25H243l-.25-.25v-5.6h-4.7v5.6l-.24.25h-1.26l-.23-.25V179.06l.23-.25h1.26l.24.25v5h4.7v-5l.25-.25h1.29Z"/><path d="M246.83,191.36V179.05l.25-.24h7.21l.21.24v1.26l-.23.25h-5.69V184h5.29l.24.23v1.26l-.24.23h-5.29v4.2h5.71l.21.27v1.19l-.21.25h-7.17Z"/><path d="M264.2,191.65h-1.36l-3.14-5.4c-.38,0-.83,0-1.19,0l-.54-.34v5.53l-.23.25h-1.26l-.23-.25V179.05l.21-.24h4.2c2.73,0,3.38,1.59,3.38,3.32v1c0,.7-.29,2.88-2.36,3.09.89,1.55,1.86,3.17,2.76,4.72v.51Zm-3.72-7c1.35,0,1.82-.38,1.82-1.6v-.9c0-1.24-.51-1.62-1.68-1.62H258v4.12Z"/><path d="M266.25,191.65v-12.6l.26-.24h7.2l.21.24v1.26l-.23.25H268V184h5.29l.24.23v1.26l-.24.23H268v5.66l-.25.25Z"/><path d="M282,179.71a3.86,3.86,0,0,1,1,2.54v6.05a3.53,3.53,0,0,1-3.73,3.55,4.34,4.34,0,0,1-1.19-.16c-.09.28-.23.63-.32.91h-1.08l-.29-.27v-.86l.2-.63a3.36,3.36,0,0,1-1-2.56v-6.05a3.46,3.46,0,0,1,3.72-3.47,5.88,5.88,0,0,1,1.23.14l.12-.36v0l.24-.68H282l.23.23V179Zm-3.43,5.1,1.43-4.27a4,4,0,0,0-.69-.07,1.78,1.78,0,0,0-2,1.8v6.08c0,.11.06.47.06.47Zm2.69-2.52v-.69c-.15.65-.31,1.23-.45,1.7-.45,1.49-1.05,3.43-2.13,6.77a3.1,3.1,0,0,0,.63,0,1.75,1.75,0,0,0,1.95-1.82Z"/><path d="M292.39,190.17v1.23l-.21.25h-7.1l-.23-.25V179.06l.27-.25h1.26l.21.25v10.88h5.6Z"/><path d="M299.84,185.73l.78-.9h1c0,1.11,0,3.24,0,4.68v1.89l-.27.27h-.65l-.87,0v-.52l-2.16.66c-3.4,0-4-1.6-4-3.72v-5.89c0-1.14.52-3.46,4-3.46,3.17,0,3.91,1.12,4,3.19l-.24.29h-1.26l-.25-.27c-.09-1.3-.69-1.5-2.22-1.5-1.13,0-2.26.2-2.26,1.79v5.85c0,1.58.64,2,2.26,2,.22,0,2.18-.24,2.18-.24Z"/><path d="M303.69,191.36V179.05l.26-.24h7.2l.21.24v1.26l-.23.25h-5.69V184h5.29l.24.23v1.26l-.24.23h-5.29v4.2h5.71l.21.27v1.19l-.21.25H304Z"/></g><g class="cls-4"><path d="M383.71,186.75c0,2.38-1.08,3.56-4.1,3.56s-3.93-1.26-4-3.33l.23-.23h1.26l.24.23c.07,1.17.85,1.59,2.23,1.59,1.91,0,2.41-.45,2.41-1.86a1.57,1.57,0,0,0-1-1.62c-.39-.2-2.23-1.11-3.44-1.69a2.88,2.88,0,0,1-1.74-3c0-1.94.93-3.31,3.8-3.31s3.85.81,3.92,3.22l-.23.24H382l-.23-.27c0-1.19-.4-1.5-2.16-1.5s-2.07.58-2.07,1.53a1.61,1.61,0,0,0,1,1.62c2,.9,2.65,1.19,3.15,1.44C383.05,184,383.71,184.7,383.71,186.75Z"/><path d="M387.78,190.08V179h-3l-.23-.24v-1.28l.23-.25h7.72l.22.24v1.24l-.27.29h-3v10.82l-.24.25Z"/><path d="M402.09,190.08h-1.37l-3.13-5.4c-.38,0-.83,0-1.19,0l-.54-.34v5.53l-.23.25h-1.26l-.24-.25V177.48l.22-.24h4.2c2.73,0,3.38,1.59,3.38,3.32v1c0,.7-.29,2.88-2.36,3.09.88,1.55,1.86,3.17,2.76,4.72v.51Zm-3.72-7c1.35,0,1.81-.38,1.81-1.6v-.9c0-1.24-.5-1.62-1.67-1.62h-2.65v4.12Z"/><path d="M410.75,178.14a3.86,3.86,0,0,1,1,2.54v6a3.53,3.53,0,0,1-3.72,3.55,4.29,4.29,0,0,1-1.19-.16c-.09.28-.24.63-.33.91h-1.08l-.28-.27v-.86l.19-.63a3.36,3.36,0,0,1-1-2.56v-6.05a3.47,3.47,0,0,1,3.73-3.47,5.78,5.78,0,0,1,1.22.14l.13-.36v0l.23-.68h1.1l.23.23v.92Zm-3.42,5.1,1.42-4.27a3.81,3.81,0,0,0-.68-.07,1.78,1.78,0,0,0-2,1.8v6.09c0,.1.05.46.05.46Zm2.68-2.52V180c-.14.65-.3,1.23-.45,1.7-.45,1.49-1,3.43-2.12,6.77a3.08,3.08,0,0,0,.63,0,1.74,1.74,0,0,0,1.94-1.82Z"/><path d="M421.46,183.9a8.29,8.29,0,0,1,.34,2.71c0,2.32-.59,3.47-3.55,3.47H414l-.24-.25V177.51l.27-.27h4c2.87,0,3.64.76,3.64,3.67a6.54,6.54,0,0,1-.29,1.79l-1.13.7v.07Zm-6-1.27h2.72c1,0,1.64-.24,1.64-1.75v-.18c0-1.66-.58-1.71-1.57-1.71H415.5Zm4.57,3.54c0-1.56-.34-1.83-1.26-1.83H415.5v4h2.7c1.41,0,1.87-.23,1.87-1.78Z"/><path d="M424.63,177.22l3.06,6.09,2.91-6.09h1.19l.24.26v.68c-.56,1.13-1.08,2.29-1.59,3.42s-1.13,2.47-1.73,3.66h-.14v4.55l-.27.27h-1.48v-4.82h-.18l-3.51-7.13v-.63l.25-.26Z"/><path d="M437.41,189.79V177.48l.25-.24h7.2l.22.24v1.26l-.24.25h-5.69v3.46h5.3l.23.23v1.26l-.23.23h-5.3v4.2h5.71l.22.27v1.19l-.22.25h-7.17Z"/><path d="M452.69,184.16l.77-.9h1c0,1.11,0,3.24,0,4.68v1.89l-.27.27h-.65l-.86,0v-.52l-2.16.66c-3.41,0-4-1.6-4-3.72v-5.89c0-1.14.52-3.46,4-3.46,3.17,0,3.91,1.12,4,3.19l-.23.29H453l-.26-.27c-.09-1.3-.68-1.5-2.21-1.5-1.13,0-2.27.2-2.27,1.79v5.85c0,1.58.65,2,2.27,2,.22,0,2.18-.24,2.18-.24Z"/><path d="M456.54,189.79V177.48l.25-.24H464l.22.24v1.26L464,179h-5.68v3.46h5.29l.23.23v1.26l-.23.23h-5.29v4.2H464l.22.27v1.19l-.22.25h-7.16Z"/><path d="M473.91,180.74v5.83a3.32,3.32,0,0,1-3.47,3.51h-4.16l-.33-.27V177.46l.31-.24h4.1A3.35,3.35,0,0,1,473.91,180.74Zm-1.71,0a1.6,1.6,0,0,0-1.69-1.82H467.7v9.4h2.83a1.6,1.6,0,0,0,1.67-1.82Z"/><path d="M475.83,189.79V177.48l.26-.24h7.2l.21.24v1.26l-.23.25h-5.69v3.46h5.3l.23.23v1.26l-.23.23h-5.3v4.2h5.71l.21.27v1.19l-.21.25h-7.17Z"/></g><g class="cls-4"><path d="M468.17,264.34c0,2.38-1.09,3.56-4.11,3.56s-3.93-1.26-4-3.33l.23-.23h1.26l.24.23c.07,1.17.85,1.59,2.23,1.59,1.91,0,2.41-.45,2.41-1.86a1.57,1.57,0,0,0-1-1.62c-.39-.2-2.23-1.11-3.44-1.69a2.88,2.88,0,0,1-1.74-3c0-1.94.93-3.31,3.8-3.31s3.85.81,3.92,3.22l-.23.24h-1.3l-.23-.27c0-1.19-.4-1.5-2.16-1.5S462,257,462,257.91a1.61,1.61,0,0,0,1,1.62c2,.9,2.65,1.19,3.15,1.44C467.5,261.62,468.17,262.29,468.17,264.34Z"/><path d="M472.23,267.67V256.6h-3l-.23-.24v-1.28l.23-.25H477l.22.24v1.24l-.27.29H474v10.82l-.24.25Z"/><path d="M486.54,267.67h-1.37l-3.13-5.4c-.38,0-.83,0-1.19,0l-.54-.34v5.53l-.23.25h-1.26l-.24-.25V255.07l.22-.24H483c2.73,0,3.38,1.59,3.38,3.32v1c0,.7-.29,2.88-2.36,3.09.88,1.55,1.86,3.17,2.76,4.72v.51Zm-3.72-7c1.35,0,1.81-.38,1.81-1.6v-.9c0-1.24-.5-1.62-1.67-1.62h-2.65v4.12Z"/><path d="M495.2,255.73a3.86,3.86,0,0,1,1,2.54v6.05a3.53,3.53,0,0,1-3.72,3.55,4.29,4.29,0,0,1-1.19-.16c-.09.28-.24.63-.33.91h-1.08l-.28-.27v-.86l.19-.63a3.36,3.36,0,0,1-1-2.56v-6.05a3.47,3.47,0,0,1,3.73-3.47,5.78,5.78,0,0,1,1.22.14l.13-.36v0l.23-.68h1.1l.23.23v.92Zm-3.42,5.1,1.42-4.27a3.81,3.81,0,0,0-.68-.07,1.78,1.78,0,0,0-2,1.8v6.09c0,.1.05.46.05.46Zm2.68-2.52v-.69c-.14.65-.3,1.23-.45,1.7-.45,1.49-1,3.44-2.12,6.77a3.08,3.08,0,0,0,.63,0,1.74,1.74,0,0,0,1.94-1.82Z"/><path d="M505.91,261.49a8.29,8.29,0,0,1,.34,2.71c0,2.32-.59,3.47-3.54,3.47h-4.27l-.24-.25V255.1l.27-.27h4c2.87,0,3.64.76,3.64,3.68a6.54,6.54,0,0,1-.29,1.78l-1.13.7v.07Zm-6-1.27h2.72c1,0,1.64-.24,1.64-1.75v-.18c0-1.66-.58-1.71-1.57-1.71H500Zm4.57,3.54c0-1.56-.34-1.83-1.26-1.83H500v4h2.7c1.41,0,1.87-.23,1.87-1.78Z"/><path d="M509.08,254.81l3.06,6.09,2.91-6.09h1.19l.24.26v.68c-.56,1.14-1.08,2.29-1.59,3.42s-1.13,2.47-1.73,3.66H513v4.55l-.27.27h-1.48v-4.82h-.18l-3.51-7.13v-.63l.25-.26Z"/></g><g class="cls-4"><path d="M396.29,348v12.34l-.23.25h-1.28l-.25-.25v-5.6h-4.7v5.6l-.24.25h-1.26l-.23-.25V348l.23-.25h1.26l.24.25v5h4.7v-5l.25-.25h1.29Z"/><path d="M404.44,348l2.87,12.19v.36H405.6l-.8-3.49h-4.57c-.23,1.11-.54,2.39-.76,3.49h-1.72v-.34l2.8-12.21.33-.29h3.35Zm-2-3.62c1.29,0,2.19.38,2.19,2,0,.07-.23.74-.32,1H403l.09-.92c.05-.43-.32-.55-.68-.55s-.65.12-.65.55l.09.92h-1.28c-.09-.25-.33-.92-.34-1C400.27,344.82,401.19,344.42,402.45,344.42Zm1.92,10.95c-.41-2-.86-3.91-1.28-5.94h-1.17l-1.29,5.94Z"/><path d="M416.67,360.59H415.3l-3.13-5.4c-.38,0-.83,0-1.19,0l-.54-.34v5.53l-.24.25h-1.26l-.23-.25V348l.21-.24h4.2c2.74,0,3.38,1.59,3.38,3.32v1c0,.7-.28,2.88-2.35,3.09.88,1.55,1.85,3.17,2.75,4.72v.51Zm-3.73-7c1.35,0,1.82-.38,1.82-1.6v-.9c0-1.24-.51-1.62-1.68-1.62h-2.64v4.12Z"/><path d="M425.9,359.11v1.23l-.22.25h-7.09l-.23-.25V348l.27-.25h1.26l.21.25v10.88h5.6Z"/><path d="M427.39,360.3V348l.25-.24h7.21l.21.24v1.26l-.23.25h-5.69V353h5.29l.24.23v1.26l-.24.23h-5.29v4.2h5.71l.21.27v1.19l-.21.25h-7.17Z"/><path d="M445.65,348v.6l-3.41,12h-3c-2.31-7.92-2.9-10-3.41-11.88V348l.25-.27h1.25c.95,3.5,2,7,3.17,11v.09h.41v-.09l3.21-11h1.27Z"/></g><g class="cls-4"><path d="M519.29,354.37v.24c1.39,1.73,2.81,3.53,4.18,5.25v.69l-.21.25H522c-1.47-1.69-2.79-3.51-4.25-5.29h-.86v5l-.23.25h-1.28l-.24-.25V348.21l.24-.25h1.28l.23.25v5.6h.7l4.07-5.85h1.17l.24.25v.65Z"/><path d="M532.36,359.32v1.23l-.21.25h-7.1l-.23-.25V348.21l.27-.25h1.26l.22.25v10.88h5.6Z"/><path d="M535.94,360.55l-.23.25h-1.24l-.25-.25V348.21l.25-.25h1.26l.21.25Z"/><path d="M546.4,351.11v1.62a2.9,2.9,0,0,1-3.11,3.17h-2l-1.06-.43v5.1l-.23.23h-1.51V348.2l.25-.24h4.52A2.92,2.92,0,0,1,546.4,351.11Zm-1.71,0a1.3,1.3,0,0,0-1.36-1.44h-3.14v4.48h3.17c.65,0,1.33-.23,1.33-1.47Z"/><path d="M555.93,351.11v1.62a2.91,2.91,0,0,1-3.12,3.17h-2l-1.07-.43v5.1l-.23.23H548V348.2l.25-.24h4.52A2.93,2.93,0,0,1,555.93,351.11Zm-1.71,0a1.3,1.3,0,0,0-1.37-1.44h-3.14v4.48h3.17c.65,0,1.34-.23,1.34-1.47Z"/><path d="M559.49,360.55l-.24.25H558l-.25-.25V348.21L558,348h1.26l.22.25Z"/><path d="M570.16,348.21v12.32l-.19.27h-1.75L564,352.45l-.48-1.34v9.44l-.24.25h-1.26l-.23-.25V348.23l.23-.25h1.68l4.32,8.57.39,1.17v-9.51l.26-.23H570Z"/><path d="M578.1,354.88l.78-.9h1c0,1.11,0,3.24,0,4.68v1.89l-.27.27H579l-.87,0v-.52l-2.16.66c-3.4,0-4-1.6-4-3.72v-5.89c0-1.14.53-3.46,4-3.46,3.17,0,3.91,1.12,4,3.19l-.23.29h-1.26l-.25-.27c-.09-1.3-.69-1.5-2.22-1.5-1.13,0-2.27.2-2.27,1.79v5.85c0,1.58.65,2,2.27,2,.22,0,2.18-.24,2.18-.24Z"/><path d="M582,360.51V348.2l.25-.24h7.21l.21.24v1.26l-.23.25H583.7v3.46H589l.24.23v1.26l-.24.23H583.7v4.2h5.71l.21.27v1.19l-.21.25h-7.17Z"/></g><g class="cls-4"><g class="cls-4"><path d="M634.08,453.59c0,2.38-1.08,3.56-4.1,3.56s-3.93-1.26-4-3.33l.23-.23h1.26l.24.23c.07,1.17.85,1.59,2.23,1.59,1.91,0,2.41-.45,2.41-1.86a1.57,1.57,0,0,0-1-1.62c-.39-.2-2.23-1.11-3.44-1.69a2.88,2.88,0,0,1-1.74-3c0-1.94.93-3.31,3.8-3.31s3.85.81,3.92,3.22l-.23.24h-1.3l-.23-.27c0-1.19-.4-1.5-2.16-1.5s-2.07.58-2.07,1.53a1.61,1.61,0,0,0,1,1.62c2,.9,2.65,1.19,3.15,1.44C633.42,450.87,634.08,451.54,634.08,453.59Z"/><path d="M638.15,456.92V445.85h-3l-.23-.24v-1.28l.23-.25h7.72l.22.24v1.24l-.27.29h-3v10.82l-.24.25Z"/><path d="M648.25,457.17c-2.9,0-4-1.53-4-3.31v-6.64c0-1.64,1.1-3.46,4.07-3.46s4.07,1.71,4.07,3.47v6.66C652.34,455.64,651.18,457.17,648.25,457.17Zm2.34-9.92c0-1.44-1.05-1.85-2.32-1.85-1.44,0-2.36.46-2.36,1.85v6.61c0,1.31,1.55,1.66,2.23,1.66h.25c.67,0,2.2-.27,2.2-1.64Z"/><path d="M662.27,456.92H660.9l-3.13-5.4c-.38,0-.83,0-1.19,0l-.54-.34v5.53l-.23.25h-1.26l-.24-.25V444.32l.22-.24h4.2c2.73,0,3.38,1.59,3.38,3.32v1c0,.7-.29,2.88-2.36,3.09.88,1.55,1.86,3.17,2.76,4.72v.51Zm-3.73-7c1.36,0,1.82-.38,1.82-1.6v-.9c0-1.24-.5-1.62-1.67-1.62H656V450Z"/><path d="M664.32,456.63V444.32l.25-.24h7.21l.21.24v1.26l-.23.25h-5.69v3.46h5.29l.24.23v1.26l-.24.23h-5.29v4.2h5.71l.21.27v1.19l-.21.25h-7.17Z"/></g><g class="cls-4"><path d="M621.34,462.33v12.34l-.23.25h-1.28l-.25-.25v-5.6h-4.7v5.6l-.24.25h-1.26l-.23-.25V462.33l.23-.25h1.26l.24.25v5h4.7v-5l.25-.25h1.29Z"/><path d="M623.64,474.63V462.32l.25-.24h7.21l.21.24v1.26l-.23.25h-5.69v3.46h5.29l.24.23v1.26l-.24.23h-5.29v4.2h5.71l.21.27v1.19l-.21.25h-7.17Z"/><path d="M641,465.58v5.83a3.31,3.31,0,0,1-3.47,3.51h-4.16l-.32-.27V462.3l.3-.24h4.11A3.34,3.34,0,0,1,641,465.58Zm-1.71.05a1.59,1.59,0,0,0-1.69-1.82H634.8v9.4h2.83a1.6,1.6,0,0,0,1.67-1.82Z"/><path d="M651,465.58v5.83a3.32,3.32,0,0,1-3.48,3.51h-4.16l-.32-.27V462.3l.3-.24h4.11A3.35,3.35,0,0,1,651,465.58Zm-1.71.05a1.6,1.6,0,0,0-1.7-1.82h-2.81v9.4h2.83a1.6,1.6,0,0,0,1.68-1.82Z"/><path d="M655,474.67l-.24.25h-1.24l-.25-.25V462.33l.25-.25h1.26l.22.25Z"/><path d="M665.67,462.33v12.32l-.19.27h-1.75l-4.18-8.35-.48-1.34v9.44l-.24.25h-1.26l-.23-.25V462.35l.23-.25h1.68l4.32,8.57.39,1.17v-9.51l.25-.23h1.25Z"/><path d="M673.61,469l.77-.9h1c0,1.11,0,3.24,0,4.68v1.89l-.27.27h-.65l-.86,0v-.52l-2.16.66c-3.4,0-4-1.6-4-3.72v-5.89c0-1.14.52-3.46,4-3.46,3.17,0,3.91,1.12,4,3.19l-.23.29H673.9l-.25-.27c-.09-1.3-.69-1.5-2.22-1.5-1.13,0-2.27.2-2.27,1.79v5.85c0,1.58.65,2,2.27,2,.22,0,2.18-.24,2.18-.24Z"/><path d="M677.46,474.63V462.32l.25-.24h7.21l.21.24v1.26l-.23.25h-5.69v3.46h5.29l.23.23v1.26l-.23.23h-5.29v4.2h5.71l.21.27v1.19l-.21.25h-7.17Z"/></g></g><g class="cls-4"><path d="M337.86,466.53v.24L342,472v.69l-.21.25h-1.25c-1.47-1.69-2.79-3.51-4.24-5.29h-.87v5l-.23.25H334l-.24-.25V460.37l.24-.25h1.28l.23.25V466h.7l4.07-5.85h1.17l.24.25V461Z"/><path d="M349.59,460.41l2.87,12.19V473h-1.72l-.79-3.49h-4.57c-.24,1.11-.54,2.39-.76,3.49h-1.73v-.34l2.81-12.21.33-.29h3.35Zm-.07,7.33c-.41-2-.86-3.91-1.28-5.94h-1.17l-1.3,5.94Z"/><path d="M361.81,473h-1.36l-3.14-5.4c-.37,0-.83,0-1.19,0l-.54-.34v5.53l-.23.25h-1.26l-.23-.25V460.36l.21-.24h4.2c2.73,0,3.38,1.59,3.38,3.32v1c0,.7-.29,2.88-2.36,3.09.89,1.55,1.86,3.17,2.76,4.72v.51Zm-3.72-7c1.35,0,1.82-.38,1.82-1.6v-.9c0-1.24-.51-1.62-1.68-1.62h-2.65V466Z"/><path d="M366,472.71l-.23.25h-1.24l-.26-.25V460.37l.26-.25h1.26l.21.25Z"/><path d="M376.07,469.63c0,2.38-1.08,3.56-4.11,3.56-2.88,0-3.92-1.26-4-3.33l.23-.23h1.26l.23.23c.08,1.17.85,1.59,2.24,1.59,1.91,0,2.41-.45,2.41-1.86a1.58,1.58,0,0,0-1-1.62c-.4-.2-2.23-1.11-3.44-1.69a2.88,2.88,0,0,1-1.75-3c0-1.94.94-3.31,3.8-3.31s3.86.81,3.93,3.22l-.24.24h-1.29l-.24-.27c0-1.19-.39-1.5-2.16-1.5s-2.07.58-2.07,1.53a1.62,1.62,0,0,0,1,1.62c2,.9,2.65,1.19,3.16,1.44C375.4,466.91,376.07,467.58,376.07,469.63Z"/><path d="M377.8,472.67V460.36l.25-.24h7.2l.22.24v1.26l-.24.25h-5.69v3.46h5.3l.23.23v1.26l-.23.23h-5.3v4.2h5.71l.22.27v1.19l-.22.25h-7.17Z"/></g><g class="cls-4"><path d="M52.54,498.07v9.13c0,2.46-1.23,3.65-4.07,3.65s-4.07-1.21-4.07-3.67v-9.1l.22-.25h1.26l.25.25v9.1c0,1.47.86,2,2.34,2s2.32-.61,2.32-2v-9.1l.24-.25H52.3Z"/><path d="M61.68,509.19v1.23l-.21.25h-7.1l-.23-.25V498.08l.27-.25h1.26l.21.25V509h5.6Z"/><path d="M70.88,507.34c0,2.38-1.08,3.56-4.1,3.56s-3.93-1.26-4-3.33l.23-.23h1.26l.23.23c.08,1.17.85,1.59,2.24,1.59,1.91,0,2.41-.45,2.41-1.86a1.58,1.58,0,0,0-1-1.62c-.4-.2-2.23-1.11-3.44-1.69A2.88,2.88,0,0,1,63,501c0-1.94.94-3.31,3.8-3.31s3.86.81,3.93,3.22l-.24.24H69.19l-.24-.27c0-1.19-.39-1.5-2.16-1.5s-2.07.58-2.07,1.53a1.62,1.62,0,0,0,1,1.62c2,.9,2.65,1.19,3.16,1.44C70.21,504.62,70.88,505.29,70.88,507.34Z"/><path d="M72.61,510.38V498.07l.25-.24h7.2l.22.24v1.26l-.24.25H74.35V503h5.3l.23.23v1.26l-.23.23h-5.3V509h5.71l.22.27v1.19l-.22.25H72.89Z"/></g><g class="cls-4"><path d="M165.57,635.83l1.16-1.35h1.48c0,1.67,0,4.86,0,7v2.83l-.41.41h-1l-1.29,0v-.78l-3.24,1c-5.1,0-6-2.41-6-5.59v-8.83c0-1.7.79-5.18,6-5.18,4.75,0,5.86,1.67,5.94,4.78l-.35.43H166l-.38-.41c-.13-1.94-1-2.24-3.32-2.24-1.7,0-3.4.3-3.4,2.68v8.77c0,2.37,1,3,3.4,3,.32,0,3.27-.35,3.27-.35Z"/><path d="M171.35,644.28V625.82l.37-.36h10.8l.33.36v1.88l-.36.38H174v5.19h7.94l.35.35v1.89l-.35.35H174v6.29h8.56l.33.4v1.78l-.33.38H171.78Z"/><path d="M191.08,645.09c-4.34,0-6.07-2.3-6.07-5v-10c0-2.46,1.65-5.18,6.1-5.18,4.29,0,6.1,2.56,6.1,5.21v10C197.21,642.79,195.48,645.09,191.08,645.09Zm3.51-14.87c0-2.16-1.56-2.79-3.48-2.79-2.16,0-3.54.71-3.54,2.79v9.9c0,2,2.32,2.48,3.35,2.48h.38c1,0,3.29-.4,3.29-2.45Z"/><path d="M215,625.82v18.51l-.35.38h-1.92l-.35-.35V630.05l-.62,1.84-3.27,6.75h-2.1l-3.49-7.21-.43-1.46v14.39l-.29.35h-2l-.3-.35V625.84l.36-.38h2.67l4.56,9.37,4.51-9.37h2.72Z"/><path d="M229.74,625.82V639.5c0,3.7-1.83,5.48-6.1,5.48s-6.1-1.81-6.1-5.51V625.84l.33-.38h1.89l.37.38v13.63c0,2.22,1.3,3,3.51,3s3.49-.91,3.49-3V625.84l.35-.38h1.91Z"/><path d="M244.24,639.72c0,3.56-1.62,5.34-6.15,5.34-4.32,0-5.89-1.89-6-5l.35-.35h1.89l.35.35c.11,1.75,1.27,2.37,3.35,2.37,2.86,0,3.62-.67,3.62-2.78a2.35,2.35,0,0,0-1.49-2.43c-.59-.29-3.34-1.67-5.15-2.53-1.54-.79-2.62-1.81-2.62-4.48,0-2.92,1.4-5,5.7-5s5.77,1.21,5.88,4.83l-.35.35h-1.94l-.36-.4c0-1.79-.59-2.24-3.23-2.24s-3.11.86-3.11,2.29a2.42,2.42,0,0,0,1.46,2.43c3,1.35,4,1.78,4.72,2.16C243.24,635.64,244.24,636.64,244.24,639.72Z"/><path d="M246.84,644.28V625.82l.38-.36H258l.33.36v1.88l-.35.38h-8.53v5.19h7.93l.35.35v1.89l-.35.35h-7.93v6.29H258l.33.4v1.78l-.33.38H247.27Z"/><path d="M272.59,625.82V639.5c0,3.7-1.83,5.48-6.1,5.48s-6.1-1.81-6.1-5.51V625.84l.33-.38h1.88l.38.38v13.63c0,2.22,1.3,3,3.51,3s3.48-.91,3.48-3V625.84l.35-.38h1.92Z"/><path d="M290.44,625.82v18.51l-.35.38h-1.92l-.35-.35V630.05l-.62,1.84-3.27,6.75h-2.1l-3.48-7.21-.44-1.46v14.39l-.29.35h-2l-.29-.35V625.84l.35-.38h2.67l4.56,9.37,4.51-9.37h2.72Z"/><path d="M299.41,644.71V625.82l.37-.36h10.8l.32.36v1.88l-.35.38H302v5.19H310l.35.35v1.89l-.35.35H302v8.47l-.37.38Z"/><path d="M321.89,625.9l4.3,18.27v.54h-2.57l-1.19-5.24h-6.85c-.35,1.68-.81,3.59-1.14,5.24h-2.59v-.51l4.21-18.3.49-.44h5Zm-.1,11c-.62-3-1.3-5.86-1.92-8.91h-1.75l-1.95,8.91Z"/><path d="M339.6,644.71h-1.75l-4.21-7c-.35.59-.68,1.08-4.29,7h-1.76l-.4-.35V643.2l4.94-8.13L327.19,627V625.9l.32-.44h1.81l4.24,6.94c1.08-1.75,2.24-3.56,4.32-6.94h1.7l.38.44v1.16L335,635c1.68,2.65,3.27,5.37,4.92,8v1.29Z"/><path d="M342.28,644.28V625.82l.38-.36h10.8l.32.36v1.88l-.35.38H344.9v5.19h7.94l.35.35v1.89l-.35.35H344.9v6.29h8.56l.32.4v1.78l-.32.38H342.71Z"/></g><g class="cls-4"><path d="M667,513.72c0,3.56-1.62,5.34-6.15,5.34-4.32,0-5.88-1.89-6-5l.36-.35h1.89l.35.35c.1,1.75,1.27,2.37,3.34,2.37,2.86,0,3.62-.67,3.62-2.78a2.36,2.36,0,0,0-1.48-2.43c-.6-.29-3.35-1.67-5.16-2.53-1.54-.79-2.62-1.81-2.62-4.48,0-2.92,1.4-5,5.7-5s5.77,1.21,5.88,4.83l-.35.35h-1.94l-.35-.4c-.06-1.79-.6-2.24-3.24-2.24s-3.11.86-3.11,2.29a2.43,2.43,0,0,0,1.46,2.43c3,1.35,4,1.78,4.72,2.16C666.05,509.64,667,510.64,667,513.72Z"/><path d="M673.15,518.71v-16.6h-4.46l-.35-.35v-1.92l.35-.38h11.58l.33.36v1.86l-.41.43h-4.42v16.22l-.35.38Z"/><path d="M682.54,518.28V499.82l.38-.36h10.8l.32.36v1.88l-.35.38h-8.53v5.19h7.94l.35.35v1.89l-.35.35h-7.94v6.29h8.56l.32.4v1.78l-.32.38H683Z"/><path d="M709.92,499.84v.89l-5.1,18h-4.51c-3.46-11.88-4.35-15-5.1-17.82v-1l.38-.41h1.86c1.43,5.24,3,10.45,4.75,16.55v.14h.62V516l4.8-16.55h1.92Z"/><path d="M724,499.84v18.47l-.3.4h-2.62l-6.26-12.52-.73-2v14.14l-.35.38h-1.89l-.35-.38V499.87l.35-.38h2.51l6.48,12.85.6,1.75V499.84l.37-.35h1.87Z"/><path d="M738.57,513.72c0,3.56-1.62,5.34-6.16,5.34-4.32,0-5.88-1.89-6-5l.35-.35h1.89l.35.35c.11,1.75,1.27,2.37,3.34,2.37,2.87,0,3.62-.67,3.62-2.78a2.36,2.36,0,0,0-1.48-2.43c-.6-.29-3.35-1.67-5.16-2.53-1.54-.79-2.62-1.81-2.62-4.48,0-2.92,1.41-5,5.7-5s5.77,1.21,5.88,4.83l-.35.35H736l-.35-.4c-.06-1.79-.6-2.24-3.24-2.24s-3.11.86-3.11,2.29a2.43,2.43,0,0,0,1.46,2.43c3,1.35,4,1.78,4.73,2.16C737.57,509.64,738.57,510.64,738.57,513.72Z"/><path d="M752.69,509.07v.36c2.08,2.59,4.21,5.29,6.26,7.88v1l-.32.38h-1.87c-2.21-2.54-4.18-5.26-6.37-7.94H749.1v7.56l-.35.38h-1.92l-.35-.38V499.84l.35-.38h1.92l.35.38v8.4h1c2-2.89,4.1-5.91,6.1-8.78H758l.35.38v1Z"/><path d="M772.29,516.5v1.83l-.33.38H761.33l-.35-.38V499.84l.4-.38h1.89l.33.38v16.31H772Z"/><path d="M777.66,518.33l-.35.38h-1.86l-.38-.38V499.84l.38-.38h1.89l.32.38Z"/><path d="M793.67,499.84v18.47l-.29.4h-2.62l-6.27-12.52-.72-2v14.14l-.35.38h-1.89l-.36-.38V499.87l.36-.38H784l6.47,12.85.6,1.75V499.84l.38-.35h1.86Z"/><path d="M800.15,518.71v-16.6H795.7l-.35-.35v-1.92l.35-.38h11.58l.32.36v1.86l-.4.43h-4.43v16.22l-.35.38Z"/></g><g class="cls-4"><g class="cls-4"><path d="M305.27,693.44v-12.6l.25-.24h7.2l.22.24v1.26l-.24.25H307v3.46h5.3l.23.23v1.26l-.23.23H307v5.66l-.25.25Z"/><path d="M320.26,680.89l2.87,12.19v.36h-1.71l-.8-3.49h-4.57c-.23,1.11-.54,2.39-.76,3.49h-1.72v-.34l2.81-12.21.32-.29h3.35Zm-.07,7.33c-.41-2-.86-3.91-1.28-5.94h-1.17l-1.29,5.94Z"/><path d="M332.07,693.44H330.9l-2.81-4.65c-.23.4-.45.73-2.86,4.65h-1.17l-.27-.23v-.78l3.29-5.42-3.29-5.42v-.7l.22-.29h1.2l2.83,4.63c.72-1.17,1.49-2.38,2.88-4.63h1.13l.26.29v.77L329,687c1.12,1.76,2.18,3.58,3.28,5.34v.87Z"/><path d="M333.85,693.15V680.84l.25-.24h7.21l.21.24v1.26l-.23.25H335.6v3.46h5.29l.24.23v1.26l-.24.23H335.6v4.2h5.71l.21.27v1.19l-.21.25h-7.17Z"/></g><g class="cls-4"><path d="M287.78,710v1.23l-.21.25h-7.1l-.23-.25V698.85l.27-.25h1.26l.21.25v10.88h5.6Z"/></g><g class="cls-4"><path d="M295.94,698.89l2.86,12.19v.36h-1.71L296.3,708h-4.57c-.24,1.11-.54,2.39-.76,3.49h-1.73v-.34l2.81-12.21.33-.29h3.34Zm-.07,7.33c-.42-2-.87-3.91-1.28-5.94h-1.17l-1.3,5.94Z"/><path d="M308.16,702.1v5.83a3.31,3.31,0,0,1-3.47,3.51h-4.16l-.33-.27V698.82l.31-.24h4.11A3.34,3.34,0,0,1,308.16,702.1Zm-1.71,0a1.59,1.59,0,0,0-1.69-1.82H302v9.4h2.83a1.6,1.6,0,0,0,1.67-1.82Z"/><path d="M310.09,711.15V698.84l.25-.24h7.2l.22.24v1.26l-.24.25h-5.69v3.46h5.3l.23.23v1.26l-.23.23h-5.3v4.2h5.71l.22.27v1.19l-.22.25h-7.17Z"/><path d="M327.46,701.75v1.62a2.91,2.91,0,0,1-3.12,3.17h-2l-1.06-.43v5.1l-.24.23H319.5v-12.6l.25-.24h4.52A2.93,2.93,0,0,1,327.46,701.75Zm-1.71,0a1.3,1.3,0,0,0-1.37-1.44h-3.13v4.48h3.17c.64,0,1.33-.23,1.33-1.47Z"/></g><g class="cls-4"><path d="M336.11,710v1.23l-.21.25h-7.1l-.23-.25V698.85l.27-.25h1.26l.21.25v10.88h5.6Z"/></g><g class="cls-4"><path d="M344.27,698.89l2.86,12.19v.36h-1.71l-.79-3.49h-4.57c-.24,1.11-.54,2.39-.76,3.49h-1.73v-.34l2.81-12.21.33-.29h3.34Zm-.07,7.33c-.42-2-.87-3.91-1.28-5.94h-1.17l-1.3,5.94Z"/><path d="M356.49,702.1v5.83a3.31,3.31,0,0,1-3.47,3.51h-4.16l-.33-.27V698.82l.31-.24H353A3.34,3.34,0,0,1,356.49,702.1Zm-1.71,0a1.59,1.59,0,0,0-1.69-1.82h-2.81v9.4h2.83a1.6,1.6,0,0,0,1.67-1.82Z"/><path d="M366.12,708.11c0,2.38-1.08,3.56-4.1,3.56s-3.93-1.26-4-3.33l.23-.23h1.26l.24.23c.07,1.17.84,1.59,2.23,1.59,1.91,0,2.41-.45,2.41-1.86a1.57,1.57,0,0,0-1-1.62c-.39-.2-2.23-1.11-3.44-1.69a2.88,2.88,0,0,1-1.74-3c0-1.94.93-3.31,3.8-3.31s3.85.81,3.92,3.22l-.23.24h-1.3l-.23-.28c0-1.18-.4-1.49-2.16-1.49s-2.08.58-2.08,1.53a1.61,1.61,0,0,0,1,1.62c2,.9,2.64,1.19,3.15,1.44C365.46,705.39,366.12,706.06,366.12,708.11Z"/></g></g><g class="cls-4"><path d="M125.07,296V284.93h-3l-.24-.24v-1.28l.24-.25h7.72l.22.24v1.24l-.27.29h-3v10.82l-.24.25Z"/><path d="M139.18,283.4v9.13c0,2.46-1.22,3.65-4.07,3.65S131,295,131,292.51v-9.1l.22-.25h1.26l.25.25v9.1c0,1.47.87,2,2.34,2s2.33-.61,2.33-2v-9.1l.23-.25H139Z"/><path d="M149.19,296h-1.37l-3.13-5.4c-.38,0-.83,0-1.19,0l-.54-.34v5.53l-.23.25h-1.26l-.24-.25V283.4l.22-.24h4.19c2.74,0,3.39,1.59,3.39,3.32v1c0,.7-.29,2.88-2.36,3.09.88,1.55,1.85,3.17,2.76,4.72v.51Zm-3.73-7c1.35,0,1.82-.38,1.82-1.6v-.9c0-1.24-.5-1.62-1.67-1.62H143V289Z"/><path d="M151.24,295.71V283.4l.25-.24h7.2l.22.24v1.26l-.23.25H153v3.46h5.29l.23.23v1.26l-.23.23H153v4.2h5.7l.22.27v1.19l-.22.25h-7.16Z"/><path d="M168.07,289.82a8.29,8.29,0,0,1,.34,2.71c0,2.32-.59,3.47-3.54,3.47H160.6l-.23-.25V283.43l.27-.27h4c2.86,0,3.63.76,3.63,3.67a6.51,6.51,0,0,1-.28,1.79l-1.14.7v.07Zm-6-1.27h2.72c1,0,1.64-.24,1.64-1.75v-.18c0-1.66-.58-1.71-1.57-1.71h-2.79Zm4.58,3.54c0-1.56-.35-1.83-1.26-1.83h-3.32v4h2.7c1.41,0,1.88-.23,1.88-1.78Z"/><path d="M171.24,283.14l3.06,6.09,2.92-6.09h1.18l.24.26v.68c-.56,1.13-1.08,2.29-1.59,3.42s-1.13,2.47-1.72,3.66h-.15v4.55l-.27.27h-1.48v-4.82h-.18L169.74,284v-.63l.26-.26Z"/></g><circle cx="244.65" cy="607.23" r="9.65"/><g class="cls-4"><g class="cls-4"><path d="M586.52,609.51v.35c2.08,2.6,4.21,5.29,6.26,7.89v1l-.32.38h-1.87c-2.21-2.54-4.18-5.26-6.37-7.94h-1.29v7.56l-.35.38h-1.92l-.35-.38V600.28l.35-.38h1.92l.35.38v8.4H584c2-2.89,4.1-5.91,6.1-8.78h1.76l.35.38v1Z"/><path d="M601.1,619.53c-4.35,0-6.07-2.3-6.07-5v-10c0-2.46,1.64-5.18,6.1-5.18,4.29,0,6.1,2.56,6.1,5.21v10C607.23,617.23,605.5,619.53,601.1,619.53Zm3.51-14.88c0-2.15-1.57-2.78-3.48-2.78-2.16,0-3.54.71-3.54,2.78v9.91c0,2,2.32,2.48,3.35,2.48h.38c1,0,3.29-.4,3.29-2.45Z"/><path d="M620.83,616.94v1.83l-.32.38H609.88l-.36-.38V600.28l.41-.38h1.89l.32.38v16.31h8.4Z"/><path d="M635.14,605.14v8.75c0,1.7-.86,5.26-5.21,5.26H623.7l-.49-.41V600.23l.46-.35h6.16A5,5,0,0,1,635.14,605.14Zm-2.56.08A2.39,2.39,0,0,0,630,602.5h-4.21v14.09h4.24c1,0,2.51-.46,2.51-2.73Z"/><path d="M643.62,609.51v.35c2.08,2.6,4.21,5.29,6.27,7.89v1l-.33.38H647.7c-2.21-2.54-4.18-5.26-6.37-7.94H640v7.56l-.35.38h-1.91l-.35-.38V600.28l.35-.38h1.91l.35.38v8.4h1.06c2-2.89,4.1-5.91,6.1-8.78h1.75l.35.38v1Z"/><path d="M664.52,619.15h-2l-4.7-8.1c-.56,0-1.24,0-1.78,0l-.81-.52v8.29l-.35.38h-1.89l-.35-.38V600.26l.32-.36h6.29c4.11,0,5.08,2.38,5.08,5v1.46c0,1-.44,4.32-3.54,4.64,1.32,2.32,2.78,4.75,4.13,7.07v.76Zm-5.59-10.45c2,0,2.73-.56,2.73-2.4V605c0-1.86-.76-2.43-2.51-2.43h-4v6.18Z"/><path d="M670.73,618.77l-.35.38h-1.86l-.38-.38V600.28l.38-.38h1.89l.32.38Z"/><path d="M683.29,610.27l1.16-1.35h1.48c0,1.67,0,4.86,0,7v2.83l-.41.41h-1l-1.29,0v-.78l-3.24,1c-5.11,0-6-2.41-6-5.59V605c0-1.7.79-5.18,6-5.18,4.75,0,5.86,1.67,5.94,4.78l-.35.43h-1.89l-.38-.41c-.14-1.94-1-2.24-3.32-2.24-1.7,0-3.4.3-3.4,2.68v8.77c0,2.37,1,3,3.4,3,.32,0,3.27-.35,3.27-.35Z"/><path d="M700.62,614.16c0,3.56-1.62,5.34-6.16,5.34-4.31,0-5.88-1.89-6-5l.35-.35h1.89l.35.35c.11,1.75,1.27,2.37,3.35,2.37,2.86,0,3.61-.67,3.61-2.78a2.35,2.35,0,0,0-1.48-2.43c-.59-.29-3.35-1.67-5.16-2.53-1.53-.79-2.61-1.81-2.61-4.49,0-2.91,1.4-5,5.69-5s5.78,1.21,5.89,4.83l-.36.35h-1.94l-.35-.4c-.05-1.79-.59-2.25-3.24-2.25s-3.1.87-3.1,2.3a2.43,2.43,0,0,0,1.45,2.43c3,1.35,4,1.78,4.73,2.16C699.62,610.08,700.62,611.08,700.62,614.16Z"/><path d="M718.11,600.26v18.51l-.35.38h-1.91l-.35-.35V604.49l-.63,1.84-3.26,6.75H709.5L706,605.87l-.43-1.46V618.8l-.3.35h-2l-.3-.35V600.28l.35-.38H706l4.57,9.37,4.5-9.37h2.73Z"/><path d="M732.91,600.26v13.68c0,3.7-1.84,5.48-6.1,5.48s-6.1-1.81-6.1-5.51V600.28l.32-.38h1.89l.38.38v13.63c0,2.22,1.3,3.05,3.51,3.05s3.48-.91,3.48-3.05V600.28l.35-.38h1.92Z"/><path d="M747.41,614.16c0,3.56-1.62,5.34-6.16,5.34-4.31,0-5.88-1.89-6-5l.35-.35h1.89l.35.35c.11,1.75,1.27,2.37,3.35,2.37,2.86,0,3.61-.67,3.61-2.78a2.35,2.35,0,0,0-1.48-2.43c-.59-.29-3.35-1.67-5.16-2.53-1.53-.79-2.61-1.81-2.61-4.49,0-2.91,1.4-5,5.69-5s5.78,1.21,5.89,4.83l-.35.35h-2l-.35-.4c0-1.79-.59-2.25-3.24-2.25s-3.1.87-3.1,2.3a2.43,2.43,0,0,0,1.45,2.43c3,1.35,4,1.78,4.73,2.16C746.41,610.08,747.41,611.08,747.41,614.16Z"/><path d="M750,618.72V600.26l.38-.36h10.8l.32.36v1.88l-.35.38h-8.53v5.18h7.94l.35.36V610l-.35.35h-7.94v6.29h8.56l.32.4v1.78l-.32.38H750.44Z"/><path d="M775.76,600.26v13.68c0,3.7-1.84,5.48-6.1,5.48s-6.1-1.81-6.1-5.51V600.28l.32-.38h1.89l.38.38v13.63c0,2.22,1.29,3.05,3.51,3.05s3.48-.91,3.48-3.05V600.28l.35-.38h1.92Z"/><path d="M793.6,600.26v18.51l-.35.38h-1.91l-.35-.35V604.49l-.62,1.84-3.27,6.75H785l-3.48-7.21-.43-1.46V618.8l-.3.35h-2l-.3-.35V600.28l.35-.38h2.67l4.57,9.37,4.5-9.37h2.73Z"/></g><g class="cls-4"><path d="M629.25,646.56c0,3.56-1.62,5.34-6.15,5.34-4.32,0-5.88-1.89-6-5l.36-.35h1.89l.35.35c.1,1.75,1.27,2.37,3.34,2.37,2.86,0,3.62-.67,3.62-2.78a2.36,2.36,0,0,0-1.48-2.43c-.6-.29-3.35-1.67-5.16-2.53-1.54-.79-2.62-1.81-2.62-4.48,0-2.92,1.41-5,5.7-5s5.77,1.21,5.88,4.83l-.35.35h-1.94l-.35-.4c-.06-1.79-.6-2.24-3.24-2.24s-3.11.86-3.11,2.29a2.43,2.43,0,0,0,1.46,2.43c3,1.35,4,1.78,4.72,2.16C628.26,642.48,629.25,643.48,629.25,646.56Z"/><path d="M635.36,651.55V635H630.9l-.35-.35v-1.92l.35-.38h11.58l.33.36v1.86l-.41.43H638v16.22l-.35.38Z"/><path d="M644.76,651.12V632.66l.37-.36h10.8l.32.36v1.88l-.35.38h-8.53v5.18h7.94l.35.36v1.89l-.35.35h-7.94V649h8.56l.32.4v1.78l-.32.38H645.19Z"/><path d="M672.13,632.68v.89l-5.1,18h-4.51c-3.46-11.88-4.35-15-5.1-17.82v-1l.38-.41h1.86c1.43,5.24,3.05,10.45,4.75,16.55V649H665v-.14l4.8-16.55h1.92Z"/><path d="M686.25,632.68v18.46l-.3.41h-2.62L677.07,639l-.73-2v14.14l-.35.38H674.1l-.35-.38V632.71l.35-.38h2.51l6.48,12.85.6,1.75V632.68l.37-.35h1.87Z"/><path d="M700.78,646.56c0,3.56-1.62,5.34-6.16,5.34-4.32,0-5.88-1.89-6-5l.35-.35h1.89l.35.35c.11,1.75,1.27,2.37,3.35,2.37,2.86,0,3.61-.67,3.61-2.78a2.36,2.36,0,0,0-1.48-2.43c-.6-.29-3.35-1.67-5.16-2.53-1.54-.79-2.62-1.81-2.62-4.48,0-2.92,1.41-5,5.7-5s5.78,1.21,5.88,4.83l-.35.35h-1.94l-.35-.4c-.06-1.79-.6-2.24-3.24-2.24s-3.11.86-3.11,2.29a2.43,2.43,0,0,0,1.46,2.43c3,1.35,4,1.78,4.73,2.16C699.78,642.48,700.78,643.48,700.78,646.56Z"/><path d="M703.37,651.55V632.66l.38-.36h10.8l.32.36v1.88l-.35.38H706v5.18h7.94l.35.36v1.89l-.35.35H706v8.47l-.38.38Z"/><path d="M722.84,651.93c-4.35,0-6.08-2.3-6.08-5V637c0-2.46,1.65-5.18,6.1-5.18,4.3,0,6.1,2.56,6.1,5.21v10C729,649.63,727.24,651.93,722.84,651.93Zm3.51-14.87c0-2.16-1.57-2.79-3.49-2.79-2.16,0-3.53.71-3.53,2.79V647c0,2,2.32,2.48,3.34,2.48h.38c1,0,3.3-.4,3.3-2.45Z"/><path d="M743.87,651.55h-2l-4.7-8.1c-.57,0-1.24-.05-1.78-.05l-.81-.51v8.28l-.35.38h-1.89l-.35-.38V632.66l.32-.36h6.29c4.1,0,5.07,2.38,5.07,5v1.46c0,1-.43,4.32-3.53,4.64,1.32,2.32,2.78,4.75,4.13,7.07v.76Zm-5.59-10.45c2,0,2.73-.56,2.73-2.4v-1.35c0-1.86-.76-2.43-2.51-2.43h-4v6.18Z"/><path d="M750.46,651.55V635H746l-.35-.35v-1.92l.35-.38h11.58l.33.36v1.86l-.41.43h-4.42v16.22l-.35.38Z"/></g></g><circle cx="684.47" cy="580.96" r="9.65"/><circle cx="737.94" cy="538.53" r="9.65"/></svg>