<svg id="geomuseum" xmlns="http://www.w3.org/2000/svg" xmlns:xlink="http://www.w3.org/1999/xlink" width="53.32mm" height="15.48mm" viewBox="0 0 151.15 43.89"><defs><style>.cls-1{fill:#fff;}.cls-2{fill:#00a6a3;}</style><symbol id="Kalklandet_navn_hvid_9" data-name="Kalklandet_navn_hvid 9" viewBox="0 0 671.53 83.75"><path class="cls-1" d="M15.27.17l2,2.34V35.45H21.5L47.22.17H60l2,1.76V8L38.28,42v1.63L63,75.42v6.33l-2.1,2h-13L23.71,53.51H17.24V82l-2,1.75H1.84L0,82V1.93L1.84.17Z"/><path class="cls-1" d="M231.81.17l2,2.34V35.45H238L263.76.17h12.78l2,1.76V8L254.82,42v1.63l24.67,31.77v6.33l-2.09,2h-13L240.25,53.51h-6.47V82l-2,1.75H218.38L216.54,82V1.93L218.38.17Z"/><path class="cls-1" d="M143.37,83.74h-17L122,64.18H91.67L87.23,83.74H70.12v-2.8L89.93.17h33.63l19.81,80.64ZM118.43,49l-7.49-34.5h-8.26L95.09,49Z"/><path class="cls-1" d="M205.43,69V82L203,83.74H154.81L153,82V2.05l2-1.88h14l2,1.76v65.4h32.43Z"/><path class="cls-1" d="M389.59.05H365.38l-19,82.64v.94h10.48l5.39-23.45H392.7l5.39,23.45h10.45V82.57q-9.68-41.14-19-82.52ZM364.38,51l9.41-42.2h7.39L390.59,51Z"/><path class="cls-1" d="M521.53.05H492.66L491.48,1V82.81a7.57,7.57,0,0,0,.94.94H522c18.41,0,22-15.13,22-22.39v-39C544,15.17,540.41.05,521.53.05ZM534.44,61c0,11-7.18,13.16-12,13.16H501.2V9.8h21.15c4.79,0,12.09,2.19,12.09,13.16Z"/><path class="cls-1" d="M474.47.05h-8.39l-.94.82V68.74l-2-6L432.62.05h-12l-.93.93V82.69l.93.94h8.51l.82-.94V15.4l1.75,5.39,30.42,62.72,12.32.12.82-1.06V.87Z"/><path class="cls-1" d="M649,83.63l.94-.94V10.51h20.39l1.18-1.17V.87l-.82-.82H620l-.82.93V9.69l.82.82h19.63V83.63Z"/><path class="cls-1" d="M339.79,73.48H303.21V1a4,4,0,0,1-.59-.93h-9.37l-.82.93V82.69l.82.94h46.54l.82-.94V74.42Z"/><polygon class="cls-1" points="558.36 35.32 558.36 47.05 603.85 47.05 604.67 46.05 604.67 36.21 603.85 35.32 558.36 35.32"/><polygon class="cls-1" points="558.36 72.35 558.36 82.46 559.54 83.63 606.54 83.63 607.36 82.69 607.36 73.41 606.43 72.35 558.36 72.35"/><polygon class="cls-1" points="606.23 0 558.99 0 558.05 0.82 558.05 11.73 567.32 11.73 567.32 11.73 606.12 11.73 607.05 10.79 607.05 0.82 606.23 0"/></symbol><symbol id="New_Symbol_35" data-name="New Symbol 35" viewBox="0 0 111.11 117.28"><path class="cls-2" d="M27.75,61.38l-.26.37a8.14,8.14,0,0,1,.66,2.3c0,.14,0,.46,0,.81A6.23,6.23,0,0,1,28,66.75c-.06.13-.34,1.07-.58,1.89a28.75,28.75,0,0,1-1.17,3.61,9.47,9.47,0,0,0-.65,3.51c.18.89,1,2.8,2.12,3.4l.57.3a3.41,3.41,0,0,0,1.43.56h.07a34.57,34.57,0,0,0,4.45,0,45.9,45.9,0,0,0,4.84-1.52c.51-.27,4.74-1.66,5.2-1.79l2.27-.66,2.62-.76a12,12,0,0,1,3.39-.46,1.13,1.13,0,0,1,.35.08,3,3,0,0,1,1.43,1.93,9.12,9.12,0,0,1,.16,4.55c-.38,2.07-.9,4-1.27,5.29a17.51,17.51,0,0,1-.89,2.6s0,0,0,0-.94,1.39-1.7,2.52c-1,1.48-1.66,2.47-1.78,2.62-.23.31-2.49,2.78-2.73,3a42.89,42.89,0,0,0-2.69,5.5c-.21,1-.25,6.34-.24,6.8a9.33,9.33,0,0,0,.4,2.2q.08.14.15.3h0l.23.1.16,0a1.63,1.63,0,0,0,1.23-.38c.56-.44,1.18-.88,1.78-1.3s1.18-.84,1.72-1.26a28.84,28.84,0,0,0,3.86-4.18,19.22,19.22,0,0,1,1.74-2.18c.39-.45.92-1.07,1.05-1.26a10.78,10.78,0,0,1,1.74-2c.38-.4.89-1,1-1.1.17-.35.78-2.27,1.28-4h0L59,95l-.15-.18a10.34,10.34,0,0,1-1.74-2.88L57,91.39a10.73,10.73,0,0,1-.56-5.14c.22-1,.32-1.9.41-2.62.1-.94.16-1.34.35-1.54a19.86,19.86,0,0,0,.9-4,50.72,50.72,0,0,0,.17-6.73,32.22,32.22,0,0,0-1.43-5.93c-.13-.3-.27-.65-.4-1-.23-.61-.63-1.63-.91-1.7a1.77,1.77,0,0,0-1.24.05c-.19.12-1.27,1-2,1.67s-1.28,1.07-1.41,1.16-2.65,2.71-3,3.14-3.62,4.32-4.08,4.65-3.62,2-4.65,2l-.32,0a10.63,10.63,0,0,1-2,0,3.54,3.54,0,0,1-2.25-1,15.42,15.42,0,0,1-2.42-4.17C32,70,31.5,67.47,31.48,67s-.87-3.55-1-3.83-.67-1.69-.78-1.89a7.89,7.89,0,0,0-.89-.56Z"/><path class="cls-2" d="M62.51,49.14a60.58,60.58,0,0,0-3.38-5.29c-.13-.14-.38-.45-.73-.88-.61-.76-1.53-1.92-2.39-2.91a12.57,12.57,0,0,0-1.8-1.86,2.67,2.67,0,0,1-1-.36c-.17.39-.32.41-.42.42a4.15,4.15,0,0,1-.72,0,34,34,0,0,1-3.9-.85L47,36.85c-.84-.35-1.87-.8-2.33-1l-.13-.06a20.87,20.87,0,0,0-3.22-1.31,29.82,29.82,0,0,0-4.3-1,3.39,3.39,0,0,0-.49,0h-.7c-.57,0-1.29,0-1.91,0-1,.07-1.1.25-1.11.26a.86.86,0,0,0-.07.1c-.36.48-.46.61-.09,1,.18.19.42.49.7.84.62.75,1.46,1.77,2,2.28.83.76,1.79,1.82,1.93,2s.69,1,.85,1.2a4.51,4.51,0,0,1,.78.89c.09.14.21.3.39.54A5.44,5.44,0,0,1,40,43.89c.05.13.12.28.2.46.54.85.56,1,.57,1a4.91,4.91,0,0,0,.14.5c.38,1.3.72,2.62.28,3.19a5.63,5.63,0,0,1-2.61,1.51,17.72,17.72,0,0,1-3.46.39H35c-.95,0-2.56,0-2.78.09l-.43.09a10.42,10.42,0,0,0-3,.85c-.39.35-.17,1.56,0,1.8a.42.42,0,0,1,.09.14l0,0,.28-.15a2.43,2.43,0,0,1,1.83-.35l.2,0a33.28,33.28,0,0,1,3.35.63c.53.15,3.88,1.83,4.26,2a10.28,10.28,0,0,0,2.53.78h.23c.19,0,.47-.12.75-.2l.65-.18a2.63,2.63,0,0,0,1.25-.5,4.43,4.43,0,0,0,1.11-2.94,36,36,0,0,0-1.45-6.42A29.41,29.41,0,0,1,42.75,43c-1-3.53-.8-3.88-.74-4,.2-.41.71-1.35,1.31-1.27h.06c.27.07,5.23,1.73,5.61,2l.53.4a59.46,59.46,0,0,1,5.08,4c.07.1.73.83,1.3,1.49,1.18,1.34,2,2.22,2.08,2.42a43.81,43.81,0,0,0,3.94,4c.16.06.5.24.93.46s.73.38,1.11.56c-.17-.46-.39-1-.58-1.53A22.46,22.46,0,0,1,62.51,49.14Z"/><path class="cls-2" d="M13.94,99.22c4-1.93,7.75-3.3,8.5-4.12,1.38-1.48,1.14-1.69,1.36-3.5.31-2.51-7.45-3-13.48-8.11A50.58,50.58,0,0,0,6,80.16a28.6,28.6,0,0,1-6-5.7v34.76a15,15,0,0,1,2.76-4C4.2,103.92,8.93,101.64,13.94,99.22Z"/><path class="cls-2" d="M30.67,60.3c.17.4,1.5,3.69,1.75,4.53a12.6,12.6,0,0,1,.25,1.93,12.29,12.29,0,0,0,.34,2.4c.08.22.17.51.27.84a8.47,8.47,0,0,0,1.17,2.69l.28.29a3.74,3.74,0,0,0,1.83,1.3h.23l.79-.08a12.34,12.34,0,0,0,3.12-.49,18.63,18.63,0,0,0,2.85-1.89c.16-.19.61-.64,1.14-1.16.68-.69,1.54-1.54,1.78-1.86.43-.57,1.54-1.91,2-2.45.2-.24.62-.69,1.06-1.15s1.1-1.19,1.4-1.54a9.92,9.92,0,0,1,2.55-2.29,4.26,4.26,0,0,1,2-.73.62.62,0,0,1,.23.07.1.1,0,0,0,.06,0h.11c.31,0,.54.24.94.82.69,1,2.41,6.67,2.62,7.8a38.63,38.63,0,0,1,.44,6l0,.2A23.54,23.54,0,0,1,59,80.93a28,28,0,0,0-1.35,4.89,28.81,28.81,0,0,0,0,3.82,25.3,25.3,0,0,0,1.46,3.79c.3.45.58.85.58.85l.05.07,0-.1.47-.09a13.49,13.49,0,0,0,1.41-.35,7.38,7.38,0,0,0,1.52-1.5,14.4,14.4,0,0,0,2.16-4.61c.18-.82.54-1.94.85-2.94.23-.73.5-1.56.53-1.8.23-1.88.66-5.19,1-6.31A2.42,2.42,0,0,0,67.42,75l-.58-1,.35-.06-.31-.28-.71-.48a8.6,8.6,0,0,1-1-.7l-.28-.24a10.32,10.32,0,0,1-1.47-1.4l-.21-.28a22.86,22.86,0,0,1-1.51-2.22,39.78,39.78,0,0,1-1.37-4.84c-.18-.7-.33-1.31-.37-1.42s-.26-.77-.47-1.46c-.29-.9-.65-2-.73-2.23s-.44-.87-.75-1.47-.6-1.15-.69-1.36c-.17-.38-1.41-2.57-1.56-2.8a20.27,20.27,0,0,0-3.09-3h0a5.55,5.55,0,0,0-1-.34h0a50.08,50.08,0,0,0-1.75,4.82c-.07.41-.41,1.65-.75,2.86-.26.94-.55,2-.57,2.18-.06.47-1.68,5.29-2.66,6.06C44.43,66.45,43.31,67,42.5,67l-.35,0a6.46,6.46,0,0,1-2.35-.69l0,0s-.27-.2-.5-.36a14.16,14.16,0,0,1-2.78-2.22c-.44-.67-3-3.83-3.65-4.42a3.91,3.91,0,0,0-1.51-1s-.08,0-.11,0-.28.19-.42.28-.64.4-.66.57a1.38,1.38,0,0,0,.25.7A5.14,5.14,0,0,1,30.67,60.3Z"/><path class="cls-2" d="M111.11,1.24,109.87,0H1.23L0,1.24V36.89l.15-.21c.31-.41,2.14-2.63,3-3.51a8.48,8.48,0,0,1,2.67-1.54,15.61,15.61,0,0,1,2.6-2.09c.44-.23,1.09-.54,1.79-.85s1.59-.74,1.91-.93c.61-.36,4.42-2,5.68-2a5.84,5.84,0,0,1,.73.05l.45.07.27,0a.85.85,0,0,0,.32,0,.5.5,0,0,0,.2-.11,2.65,2.65,0,0,1,1.54-.52,8.25,8.25,0,0,0,1-.2,14,14,0,0,1,3.76-.42,49.3,49.3,0,0,1,6.54.46l.82.1.83.1a10.41,10.41,0,0,1,4,1l1.16.69c.52.19,4,1.51,5.26,1.9a16.8,16.8,0,0,1,4.93,3,23.87,23.87,0,0,1,3.82,4l.13.17a1.41,1.41,0,0,0,.91.53c.65.08,1.55.87,5.14,5.33l.68.84c.36.41,1.33,1.89,2.06,3,1.52,2.4,1.66,2.79,1.69,3s.48,1.34.79,2.13a18.2,18.2,0,0,1,.92,2.61c0,.14.2.43.33.68l45-45Z"/><path class="cls-2" d="M37.58,116.36a26.75,26.75,0,0,0,3.59-2.12c.35-.32,1.21-1.24,1.51-1.56l.1-.1a13,13,0,0,1-.49-2.47c0-.23,0-.78-.07-1.36a19.81,19.81,0,0,1-.06-2.78,8.15,8.15,0,0,0,0-1.08,7.16,7.16,0,0,1,.19-2.1l.07-.17c1.37-3.7,2.41-5.89,3.08-6.51a21.08,21.08,0,0,0,2.49-3c.1-.17.35-.49.65-.91.59-.8,1.48-2,1.66-2.38s.79-2,1.15-2.86l.28-.71c.18-.44.88-3.21,1-3.7s.2-3.92.15-4.32a2.59,2.59,0,0,1-.07-.31c-.24-1.16-.44-1.3-.52-1.32a18.32,18.32,0,0,0-5.44.7c-3.25,1-8.92,2.75-9.61,3a33.18,33.18,0,0,1-6.8,1.33l-.3,0a6.55,6.55,0,0,1-3-1.13l-.06,0c-.65-.55-2.36-2-2.44-3.34a15.05,15.05,0,0,1,.22-4.16c.09-.21.32-.9.57-1.62a25.55,25.55,0,0,1,.9-2.42,23.72,23.72,0,0,0,.9-3.22,8.91,8.91,0,0,0,0-1.43c0-.76-.21-.95-.25-1a1.68,1.68,0,0,0-1.32.32,7,7,0,0,0-.6,1.49,8,8,0,0,1-.53,1.38c-.21.33-1.22,1.41-2.52,2.8-.58.6-1.07,1.13-1.27,1.35a9.2,9.2,0,0,1-1.05.92c-1.09.87-2.73,2.18-3,3.11-.4,1.52-.7,3.12.22,4.4a15.18,15.18,0,0,0,4.2,3.29,60.08,60.08,0,0,0,6.81,2c.6.07,6.65.38,7.1.4.28,0,3.76.27,6.23.58a7.18,7.18,0,0,1,2.52.5c.7.44,2,1.58,1.7,2.69,0,.06-1.34,5.61-4.76,8.71-2.18,2-5.07,4.33-6.63,5.6-.62.5-1.1.89-1.18,1-.34.34-5.15,5.27-5.65,6-.14.21-.38.53-.66.9a12.65,12.65,0,0,0-1.92,3.05c0,.28-.06.6-.1.93-.07.63-.14,1.3-.14,1.8a4.77,4.77,0,0,1-.07.76H35.21C36.15,117,37.05,116.6,37.58,116.36Z"/><path class="cls-2" d="M.69,56.19c0,.07.09.19.17.34.27.56.78,1.61,1,1.94a5.44,5.44,0,0,1,.41.86,7.2,7.2,0,0,0,1.09,2c.22.23.4.44.56.62A4.59,4.59,0,0,0,5,62.9a5.58,5.58,0,0,0,1.65.79.67.67,0,0,0,.2,0,1.94,1.94,0,0,1,.52,0c.26,0,.33,0,.48-.25.06-.12.13-.22.18-.33a2.8,2.8,0,0,0,.48-1.43c0-.36,0-.78,0-1.19s0-1,.06-1.35,0-.47,0-.76a7,7,0,0,1,0-1.45v-.06a9.3,9.3,0,0,1,.43-2l.13-.29a3.2,3.2,0,0,1,1-1.52l.13-.09a3.46,3.46,0,0,1,2-.79l.11,0a6.72,6.72,0,0,1,1.33.55,1.78,1.78,0,0,1,.41.22,5.09,5.09,0,0,1,.79.52c.15.13.47.44.84.79s1.11,1.08,1.33,1.24l.16.13a7,7,0,0,0,1.28.84h0l.11-.85a2.41,2.41,0,0,0-.06-.79.87.87,0,0,1,0-.39c0-.12,0-.12-.07-.18a3.26,3.26,0,0,1-.78-.91,5.32,5.32,0,0,1-.45-.89l-.16-.36c-.11-.22-.21-.46-.32-.74s-.16-.4-.26-.63a4.17,4.17,0,0,1-.2-.63,6,6,0,0,0-.21-.67,6.87,6.87,0,0,1-.29-.92l0-.12-.09-.14a2.39,2.39,0,0,0-1.3-1.18,2.48,2.48,0,0,1-.78-.31h0l-.21,0-.29.06A3.19,3.19,0,0,0,11,48.14a27.3,27.3,0,0,0-2.53,4.41,22.44,22.44,0,0,1-2.19,3.23L6,56c-.42.56-.85,1.14-1.33,1.07l-.09,0-.22,0-.2,0A1.86,1.86,0,0,1,3,56.28,9.09,9.09,0,0,1,1.55,54,10.56,10.56,0,0,1,.94,51.5a17.38,17.38,0,0,1,0-2.69c0-.35.08-.68.13-1a4.76,4.76,0,0,0,0-2.19,1.51,1.51,0,0,1-.05-1H1l-.14-.1a3.43,3.43,0,0,1-.64-.56A2.13,2.13,0,0,0,0,43.65v11.5A10.49,10.49,0,0,1,.69,56.19Z"/><path class="cls-2" d="M.14,72a36.44,36.44,0,0,0,2.94,4,5.24,5.24,0,0,1,.89.88,1.65,1.65,0,0,1,.2.19.76.76,0,0,0,.54-.27,4.12,4.12,0,0,1-.4-2.64A9.48,9.48,0,0,1,5,72.44l0,0H5c.09-.18.19-.35.29-.51s0-.09,0-.14c-1.21.26-1.08-.33-1.72-.6s-1.71-3-2.6-3.89a11.87,11.87,0,0,0-1-.89v5.39C.05,71.84.09,71.92.14,72Z"/><path class="cls-2" d="M2,44.18a12.92,12.92,0,0,1,.21,4A13.79,13.79,0,0,0,2,51.31v.13a3.72,3.72,0,0,0,.8,2.27c.26.32.49.66.69,1s.56.81.7.84l.15,0a2,2,0,0,0,1.31-.84,9.86,9.86,0,0,1,.83-1.06,8.29,8.29,0,0,0,.66-.8,7.23,7.23,0,0,0,.74-1.34c.1-.19.19-.39.3-.6s.25-.5.37-.74c.22-.44.42-.85.63-1.19l0,0a5.13,5.13,0,0,1,1.09-1.43,5.76,5.76,0,0,1,1.87-1.29h0a4,4,0,0,1,1.54-.26,1.18,1.18,0,0,1,.39.1c.07,0,1.73.75,2,1.29.12.23.4.94.77,1.91.14.39.28.75.35.94s.13.32.2.54a6,6,0,0,0,.85,1.81l.23.27c.22.27.4.47.5.49h.07a1.35,1.35,0,0,1,.45,0,1.08,1.08,0,0,0,.32,0,.41.41,0,0,0,0-.09,9.1,9.1,0,0,0-.18-1.32,10.19,10.19,0,0,1-.14-1.11c0-.24-.05-.48-.07-.67a9.7,9.7,0,0,1,0-2.52c.06-.24.17-.86.37-2.42,0-.05,0-.09,0-.15a2.56,2.56,0,0,0,0-1.23l-.13-.34a2.36,2.36,0,0,0-.38-.74,4.51,4.51,0,0,0-1.07-.71,1.87,1.87,0,0,0-.35-.07,4.2,4.2,0,0,0-1.76.17,8,8,0,0,0-2.46,1.28,23,23,0,0,1-2.17,1.48l-.73.47c-.65.43-1.83,1.09-2.61,1.53L7.81,47a5.93,5.93,0,0,0-.54.38A2,2,0,0,1,5.83,48l-.21,0-.39-.11c-.44-.1-.6-.18-.82-.72a1.26,1.26,0,0,0-.17-.33,1.09,1.09,0,0,1-.19-.64,16.28,16.28,0,0,1,.17-2.85A2.87,2.87,0,0,0,4.3,43,10,10,0,0,1,5,40.86,8.77,8.77,0,0,0,5.38,40a14.4,14.4,0,0,1,1-1.92,12.3,12.3,0,0,0,.82-1.31c.17-.29.33-.58.47-.8a2.81,2.81,0,0,0,.62-1.45A3.11,3.11,0,0,0,8,33.11a2.92,2.92,0,0,1-.44-.19,4.18,4.18,0,0,0-.53-.21H7l-.18.18L6.7,33l-.17.06a7.23,7.23,0,0,0-2.24,1.23c-.77.77-2.55,2.9-2.87,3.34s-.89,1.21-1.42,2v2.89A2.36,2.36,0,0,1,2,44.18Z"/><path class="cls-2" d="M19.84,61.82l-.59.14L18,62.07a4.29,4.29,0,0,0-1,.19,8.33,8.33,0,0,1-1.26,1.49L16,65.28l.75.88a20,20,0,0,0,3.68-1.87l1-1.69a1.58,1.58,0,0,1,.28-.46l.32-.58-.35-.42Z"/><path class="cls-2" d="M4.08,69.87c.5.75,2.44.29,2.44.29a17.05,17.05,0,0,1,2.94-1.83,40.07,40.07,0,0,1,3.82-1.4l-1.49-3.19v0c-.07-.24-.37-1.44-.39-1.63,0,0,0-.06,0-.12a4.52,4.52,0,0,1-.09-1.52l.08-.25a3.68,3.68,0,0,1,.56-1.41.75.75,0,0,0,.15-.16,1.64,1.64,0,0,1,.6-.47.44.44,0,0,0,.18-.14.85.85,0,0,1,.79-.23c.57,0,.95.1,1.47.16a16,16,0,0,1,1.57.38l.35.1a.55.55,0,0,1,.18,0,3.06,3.06,0,0,0,.54.13.68.68,0,0,0,.32,0,.58.58,0,0,1,.28,0l.2-.37c.1-.18.1-.18.1-.3a.23.23,0,0,0-.07-.2l0,0-.8-.58a6.48,6.48,0,0,1-.93-.7c-.07-.09-.86-.84-1.2-1.12s-.76-.67-1.16-1a3.36,3.36,0,0,1-.32-.37,2.27,2.27,0,0,0-.34-.35l-.32-.17-.06,0a5.16,5.16,0,0,0-.92-.2,2.27,2.27,0,0,0-.69,0,3.9,3.9,0,0,0-1.58,1.25,16.29,16.29,0,0,0-.58,2.76c0,.12,0,.71,0,1.23a15.84,15.84,0,0,1,0,1.83c0,.13-.09.72-.16,1.35-.11.94-.23,2-.29,2.35S8.82,65.42,8,65.53a2.25,2.25,0,0,1-.63,0A3.33,3.33,0,0,1,5.81,65,10.79,10.79,0,0,1,3.9,63.42c-.28-.35-1.92-2.71-2-3S.5,57.62.42,57.47L0,56.8v8.14C1.23,66.27,3.67,69.25,4.08,69.87Z"/><path class="cls-2" d="M1.23,117.28H22.79a2.23,2.23,0,0,0,.49-.46,10.32,10.32,0,0,0,.33-2c.06-.47,1.26-4.67,2.42-6l.65-.74a72,72,0,0,1,5.6-6h0A35.53,35.53,0,0,0,36,99.51c.34-.31.71-.63,1.09-1a15.83,15.83,0,0,0,2.17-2.06,28.36,28.36,0,0,0,3.58-5.67c.44-1.34.4-2.46-.09-2.77A87.37,87.37,0,0,0,34,85.72h0l-1.26,0c-1.9,0-5.45-.07-6.6-.21l-.26,0c-.06,0-6.22-1.45-7.7-2.86l-.28-.28c-1.29-1.21-3.24-3-3-5.12a7.2,7.2,0,0,1,2.73-5.33,51.23,51.23,0,0,0,4.89-4.5,11.76,11.76,0,0,0,1-1.52c.49-.85.42-1.1.41-1.12a1.4,1.4,0,0,0-.75-.39,10,10,0,0,1-3.3,2.36,30.81,30.81,0,0,1-3.67,1.48l-.62.22c-.31.12-.73.3-1.21.51l-.08.29L14.24,69l-1.16.51c-1.22.54-2.48,1.09-3.32,1.42-1,.38-2.93,1.58-3.4,5.36-.15,1.21,2,3.09,4.94,5.22a38.83,38.83,0,0,0,6.86,4c4,1.61,6.74,2.9,8.35,3.71l.93.48h.08a1.38,1.38,0,0,1,.82.46c3.11,1.71,4.78,3.07,5.08,4.16.61,2.26-1.34,3.44-3.05,4.48a14.58,14.58,0,0,0-1.69,1.13c-1.69,1.4-7.67,4-9.92,4.95l-.65.28a52.33,52.33,0,0,1-8.44,1.49l-.17,0-.58.12a21.11,21.11,0,0,0-4,1.83c-.58.31-1.13.61-1.64.85-.82.9-1.6,1.84-2.22,2.65-.19.36-.37.76-.55,1.18s-.34.85-.48,1.25v1.56Z"/><path class="cls-2" d="M24.51,49.13a2.28,2.28,0,0,1,.8-.85,6.35,6.35,0,0,0,.7-.61c.57-.6,1.71-1.73,2.34-2.36a5.58,5.58,0,0,1,.42-.37,2.65,2.65,0,0,0,.87-1.19,5.43,5.43,0,0,1,.54-.89c.25-.33.37-.49.36-1.51,0-.31,0-.58,0-.81,0-1,0-1.2-.6-1.72a6.9,6.9,0,0,0-2.26-1.09l-.29-.09A21.35,21.35,0,0,0,25.23,37l-1.12-.24c-.51-.1-.95-.19-1.22-.27a28.06,28.06,0,0,1-2.82-1.16c-.55-.28-1.21-1-1-1.45A3.68,3.68,0,0,1,20,32.52l.49-.39a8.11,8.11,0,0,1,1.35-1l.32-.14c.53-.24,1.33-.6,1.73-.73l.27-.09a11.42,11.42,0,0,1,2.29-.61c.71-.06,2.15-.1,3-.12h.43l.85-.05a12.88,12.88,0,0,1,2-.05l.26,0,.28,0a4.93,4.93,0,0,0,1.76,0l.54-.13A4.26,4.26,0,0,0,37,28.8,7,7,0,0,0,38,28l-.5-.29a9.65,9.65,0,0,0-3.35-.82l-.82-.1-.83-.09a46.74,46.74,0,0,0-6.36-.46,12.87,12.87,0,0,0-3.39.38,7.92,7.92,0,0,1-1.25.23c-.53.05-.62.12-.74.21a1.39,1.39,0,0,1-.27.18,3.87,3.87,0,0,1,.14,2.1,7.25,7.25,0,0,1-1.93,1.94A21.9,21.9,0,0,0,15.8,32.9l-.47.36c-.73.57-2.69,2.06-2.87,2.64a7.16,7.16,0,0,1-.28.69c-.28.63-.57,1.28-.27,1.79a1.56,1.56,0,0,0,1.43.86A14.67,14.67,0,0,0,16.4,39a36.89,36.89,0,0,1,5.6-.66h0c.71.11,3.33,1.07,3.72,2.87a6.38,6.38,0,0,1-.48,3.94c-.29.62-.77,1.58-.86,1.73l-.12.18a10.59,10.59,0,0,0-1.36,2.49c-.05.25-.12.53-.2.81s-.19.75-.23,1a2.74,2.74,0,0,0,1.23-.55,10.55,10.55,0,0,0,.78-1.67Z"/><path class="cls-2" d="M20.51,47.83c0,.11,0,.27-.06.45a9.3,9.3,0,0,0-.15,1.35,3.28,3.28,0,0,1,0,.53A4.19,4.19,0,0,0,20.54,52l.17.15a1.13,1.13,0,0,0,.16.13,1,1,0,0,0,.35-.17c.19-.11.33-.17.42-.22l.06,0s0-.13,0-.2a2.76,2.76,0,0,0,0-.38,5.09,5.09,0,0,1,.17-1.19c.06-.25.1-.45.13-.62a2.56,2.56,0,0,1,.57-1.35A12.27,12.27,0,0,0,23.33,47a6.25,6.25,0,0,1,.49-.77,3.64,3.64,0,0,0,.6-1.4c0-.13.1-.33.18-.57A4.26,4.26,0,0,0,25,42.9c0-.09,0-.19,0-.28a4,4,0,0,0-.3-1.68,3.13,3.13,0,0,0-1.25-1.17l-.29-.16a2.26,2.26,0,0,0-.87-.34H22a26.18,26.18,0,0,0-3.81.28c-.51.09-1.07.16-1.6.24S15.38,40,15,40l-.19,0a7.14,7.14,0,0,1-2.68.22l-.45-.06-.28,0a2,2,0,0,0-.24,0A2.19,2.19,0,0,1,10,39.81c-.81-.62.32-2.75.37-2.84a9.43,9.43,0,0,1,1.54-2.16l.46-.46a10.51,10.51,0,0,1,1.73-1.55l.83-.54A23.76,23.76,0,0,1,17,31a9.7,9.7,0,0,0,1.58-.83,4.89,4.89,0,0,0,1-1.13,2.75,2.75,0,0,0,.16-.78,1.53,1.53,0,0,0-.06-.71,0,0,0,0,1,0,0,2.11,2.11,0,0,1-.66,0l-.34-.06-.37-.05a3.14,3.14,0,0,0-.53,0A23,23,0,0,0,13,29.12c-.39.23-1.2.61-2.06,1-.65.3-1.32.61-1.72.82a10.07,10.07,0,0,0-1.5,1.15,2.12,2.12,0,0,1,.51.21h0a2.1,2.1,0,0,1,.9,2.45A13.58,13.58,0,0,1,8,37.51c0,.09-.08.16-.12.24-.14.29-.44.77-.76,1.28s-.75,1.21-.89,1.54a13.81,13.81,0,0,0-1.06,4.5c.18,1.19.44,1.35.69,1.42l.31.07a1.74,1.74,0,0,0,.95-.21,16.68,16.68,0,0,0,2.28-1.18c.4-.31,2.11-1.45,2.58-1.74l.27-.16c.46-.27,1.08-.65,1.54-1a11.4,11.4,0,0,1,2.27-1l.1,0A3,3,0,0,1,17.65,41a5.06,5.06,0,0,1,1.26.34,3.12,3.12,0,0,1,2,2.86C20.9,44.63,20.65,46.66,20.51,47.83Z"/><path class="cls-2" d="M14.7,64.16a2,2,0,0,1,.65-1.56C17,61,18.05,61,18.71,61a1.05,1.05,0,0,0,.43,0,2.89,2.89,0,0,1,.71-.19c.14,0,.35-.06.4-.12v0a3,3,0,0,0-.51-1l-.62-.07c-.15,0-1.33-.05-2.19-.15s-.95-.2-1.06-.34a8.14,8.14,0,0,0-2.09-.43,3.68,3.68,0,0,0-1.57,1.08.4.4,0,0,0-.08.29,12,12,0,0,1,.26,1.49A8.63,8.63,0,0,0,12.67,63l.45,1c.29.62.64,1.38.94,2.09.11.24.19.44.27.63h0c.11.23.7,0,1.72-.38A3.59,3.59,0,0,1,14.7,64.16Z"/><path class="cls-2" d="M64.81,55.56l.12-.12-.16-.31A11.58,11.58,0,0,1,64.24,54c-.3-.1-.56-.18-.63-.19-.28,0-3.14-1.36-4-2.69A16.25,16.25,0,0,0,57,48.36l0,0,0,0c-1.21-1.46-2.59-3.09-2.8-3.28a6.64,6.64,0,0,1-.59-.47c-1.19-1-4-3.33-5.59-3.92-.8-.29-1.47-.56-2-.77a8,8,0,0,0-1.65-.57h-.1c-.46,0-.89.53-1,1a53.1,53.1,0,0,0,1.4,5.79v0c0,.06,2.69,6.68,1.76,8.43-1.07,2-1.94,3-2.83,3.19a7.36,7.36,0,0,1-2.49,0,28.56,28.56,0,0,1-3.21-1.11c-1.26-.47-2.81-1.05-3.09-1.09s-.49-.09-.88-.18c-.62-.14-1.44-.34-2.11-.42s-1,0-1,0c-.2.17-.43.32-.64.47a2.85,2.85,0,0,0-.66.51,7.77,7.77,0,0,0,.71,1.41c.14,0,.42,0,.62-.06a4.12,4.12,0,0,1,.6-.06h.1a6.87,6.87,0,0,1,1.81.6c.06,0,.25.26,1.36,1.6s2.88,3.44,3.14,3.65a5.67,5.67,0,0,1,.86.71c.31.27.65.58,1,.86a5.39,5.39,0,0,0,2.59.81,2.9,2.9,0,0,0,1.84-.6,5.26,5.26,0,0,0,1.85-2l.09-.21a13.17,13.17,0,0,0,1.07-2.82c0-.36.15-.83.25-1.33s.25-1.14.32-1.65a12.44,12.44,0,0,1,.74-3c.16-.37.53-1.85.79-2.92.17-.67.3-1.2.36-1.39s0-.17.09-.3c.18-.69.49-1.86,1.33-1.75h0a1.5,1.5,0,0,0,.42,0,2,2,0,0,1,.61,0A3.3,3.3,0,0,1,54,48.53c1.52,1.54,4.9,5.51,5.72,7.95.38,1.13,1.08,3.29,1.68,5.25,1.11,3.59,1.09,3.8,1.07,3.91a14.24,14.24,0,0,0,.81,2.76,24.24,24.24,0,0,0,2.05,2.84,19.25,19.25,0,0,0,1.77,1.42c.48.36.72.54.8.62a.92.92,0,0,1,.15.25c0-.2,0-.41,0-.57s0-.55,0-.79c0-.52-.31-3.85-.51-5.84-.1-1-.17-1.77-.2-2.12l-2.48-2.48Z"/><path class="cls-2" d="M27.72,51.14l.47-.1c.24,0,.53-.11.79-.18l.09,0a16.57,16.57,0,0,1,1.76-.44A27.69,27.69,0,0,1,34,49.93a3.16,3.16,0,0,1,.62,0,5.27,5.27,0,0,1,.6.12,1.37,1.37,0,0,0,.65.07l.54-.07a7.49,7.49,0,0,0,2.09-.46,4.57,4.57,0,0,1,.58-.22c.35-.1.48-.14.73-.74a5.05,5.05,0,0,1,.38-.73c.18-.31.22-.38.08-1-.08-.38-.14-.69-.18-.95a4.73,4.73,0,0,0-.37-1.32l0,0C39,43.55,38,42,37.65,41.52l-.07-.07c-.4-.36-.68-.66-.92-.92a7.67,7.67,0,0,0-.69-.71c-.4-.36-.81-.78-1.27-1.27L34,37.77l-.47-.49a3.67,3.67,0,0,0-.73-.65,5.55,5.55,0,0,1-1.63-1.78,4.49,4.49,0,0,0-.26-.45,1.47,1.47,0,0,1-.28-.6.66.66,0,0,1,.37-.67l.32-.22A3,3,0,0,1,33,32.19l.69-.06A18.74,18.74,0,0,1,37,32l.28,0,1.44.34c.58.14,1.13.28,1.49.33a18,18,0,0,1,3.17,1,11.51,11.51,0,0,1,1.19.66,14.59,14.59,0,0,0,1.35.74,14.57,14.57,0,0,1,1.55.83,11.41,11.41,0,0,0,1.37.74c.45.12,1.95.43,2.44.52l.12,0,.3.07a7.91,7.91,0,0,0,.81.19h.1v0s0,0,0-.08a1.33,1.33,0,0,1-.21-.22l-.2-.24a21.91,21.91,0,0,0-3.52-3.76,15.44,15.44,0,0,0-4.46-2.7c-1.19-.38-4.38-1.57-5.2-1.88l-.16.15,0,.05a12.51,12.51,0,0,1-2.3,1.46,15,15,0,0,1-3,.34c-.62,0-3.28.14-3.89.18S27,31.08,26,31.3a15.78,15.78,0,0,0-2.91,1l-.25.13a3.82,3.82,0,0,0-1.5,1.12,3.32,3.32,0,0,1-.39.54.73.73,0,0,1-.1.13l0,0a12.64,12.64,0,0,0,2.39,1.39l.67.17a20.46,20.46,0,0,1,2.72.75c.14.06.47.16.84.27,1.89.59,3.6,1.19,3.8,2.1a11,11,0,0,1,.05,3.43c-.11.37-.74,1.71-.81,1.87l0,0,0,0c-.24.27-1.46,1.61-1.63,1.77s-3,2.79-3.26,3.05a8.52,8.52,0,0,0-1.1,1.74,6.54,6.54,0,0,0,1.11.26,1.33,1.33,0,0,0,.4,0l.07-.12.2,0,.36,0A5.16,5.16,0,0,0,27.72,51.14Z"/><path class="cls-2" d="M69.58,72.24c0,.2,0,.44,0,.7a10.38,10.38,0,0,1,0,1.13,1.49,1.49,0,0,1-.42,1,3.69,3.69,0,0,1,0,2,58.76,58.76,0,0,0-.93,6.08,18.11,18.11,0,0,1-.59,2.08c-.31,1-.65,2.05-.81,2.79a16.15,16.15,0,0,1-2.51,5.32,7.88,7.88,0,0,1-2.08,1.91,8.53,8.53,0,0,1-1.28.35,26.09,26.09,0,0,1-1.34,3.91,13.63,13.63,0,0,1-1.17,1.32c-.49.52-1.29,1.38-1.46,1.63a10.33,10.33,0,0,1-1.29,1.64A20.74,20.74,0,0,0,54.15,106a28.36,28.36,0,0,1-4.27,4.65c-.56.44-1.18.88-1.78,1.3s-1.18.84-1.72,1.25a3.18,3.18,0,0,1-2.39.71l-.23,0-.07,0c-.32.34-1.08,1.15-1.45,1.48a21.51,21.51,0,0,1-3,1.88h70.63l1.24-1.23v-8L69.05,66a1.5,1.5,0,0,0,0,.22C69.37,69.26,69.6,71.66,69.58,72.24Z"/><path class="cls-1" d="M64.86,51c-.31-.79-.73-1.87-.79-2.13s-.17-.6-1.69-3c-.73-1.13-1.7-2.61-2.06-3L59.64,42c-3.59-4.46-4.49-5.25-5.14-5.33a1.41,1.41,0,0,1-.91-.53L53.46,36a23.87,23.87,0,0,0-3.82-4,16.8,16.8,0,0,0-4.93-3c-1.22-.39-4.74-1.71-5.26-1.9l-1.16-.69a10.41,10.41,0,0,0-4-1l-.83-.1-.82-.1a49.3,49.3,0,0,0-6.54-.46,14,14,0,0,0-3.76.42,8.25,8.25,0,0,1-1,.2,2.65,2.65,0,0,0-1.54.52.5.5,0,0,1-.2.11.85.85,0,0,1-.32,0l-.27,0-.45-.07a5.84,5.84,0,0,0-.73-.05c-1.26,0-5.07,1.63-5.68,2-.32.19-1.16.58-1.91.93s-1.35.62-1.79.85a15.61,15.61,0,0,0-2.6,2.09,8.48,8.48,0,0,0-2.67,1.54c-.88.88-2.71,3.1-3,3.51L0,36.89v2.74c.53-.79,1.14-1.63,1.42-2s2.1-2.57,2.87-3.34a7.23,7.23,0,0,1,2.24-1.23L6.7,33l.13-.12L7,32.7h0a4.18,4.18,0,0,1,.53.21,2.92,2.92,0,0,0,.44.19,3.11,3.11,0,0,1,.29,1.4A2.81,2.81,0,0,1,7.7,36c-.14.22-.3.51-.47.8a12.3,12.3,0,0,1-.82,1.31,14.4,14.4,0,0,0-1,1.92,8.77,8.77,0,0,1-.43.87A10,10,0,0,0,4.3,43a2.87,2.87,0,0,1-.08.32,16.28,16.28,0,0,0-.17,2.85,1.09,1.09,0,0,0,.19.64,1.26,1.26,0,0,1,.17.33c.22.54.38.62.82.72l.39.11.21,0a2,2,0,0,0,1.44-.62A5.93,5.93,0,0,1,7.81,47l.46-.27c.78-.44,2-1.1,2.61-1.53l.73-.47a23,23,0,0,0,2.17-1.48A8,8,0,0,1,16.24,42,4.2,4.2,0,0,1,18,41.82a1.87,1.87,0,0,1,.35.07,4.51,4.51,0,0,1,1.07.71,2.36,2.36,0,0,1,.38.74l.13.34a2.56,2.56,0,0,1,0,1.23c0,.06,0,.1,0,.15-.2,1.56-.31,2.18-.37,2.42a9.7,9.7,0,0,0,0,2.52c0,.19,0,.43.07.67a10.19,10.19,0,0,0,.14,1.11,9.1,9.1,0,0,1,.18,1.32.41.41,0,0,1,0,.09,1.08,1.08,0,0,1-.32,0,1.35,1.35,0,0,0-.45,0h-.07c-.1,0-.28-.22-.5-.49l-.23-.27a6,6,0,0,1-.85-1.81c-.07-.22-.14-.4-.2-.54s-.21-.55-.35-.94c-.37-1-.65-1.68-.77-1.91-.31-.54-2-1.26-2-1.29a1.18,1.18,0,0,0-.39-.1,4,4,0,0,0-1.54.26h0a5.76,5.76,0,0,0-1.87,1.29,5.13,5.13,0,0,0-1.09,1.43l0,0c-.21.34-.41.75-.63,1.19-.12.24-.24.5-.37.74s-.2.41-.3.6a7.23,7.23,0,0,1-.74,1.34,8.29,8.29,0,0,1-.66.8,9.86,9.86,0,0,0-.83,1.06,2,2,0,0,1-1.31.84l-.15,0c-.14,0-.49-.54-.7-.84s-.43-.64-.69-1A3.72,3.72,0,0,1,2,51.44v-.13a13.79,13.79,0,0,1,.14-3.09,12.92,12.92,0,0,0-.21-4A2.36,2.36,0,0,0,0,42.52v1.13a2.13,2.13,0,0,1,.26.26,3.43,3.43,0,0,0,.64.56l.14.1H1a1.51,1.51,0,0,0,.05,1,4.76,4.76,0,0,1,0,2.19c-.05.32-.1.65-.13,1a17.38,17.38,0,0,0,0,2.69A10.56,10.56,0,0,0,1.55,54,9.09,9.09,0,0,0,3,56.28,1.86,1.86,0,0,0,4.2,57l.2,0,.22,0,.09,0c.48.07.91-.51,1.33-1.07l.2-.25a22.44,22.44,0,0,0,2.19-3.23A27.3,27.3,0,0,1,11,48.14a3.19,3.19,0,0,1,2.16-1.28l.29-.06.21,0h0a2.48,2.48,0,0,0,.78.31,2.39,2.39,0,0,1,1.3,1.18l.09.14,0,.12a6.87,6.87,0,0,0,.29.92,6,6,0,0,1,.21.67,4.17,4.17,0,0,0,.2.63c.1.23.19.44.26.63s.21.52.32.74l.16.36a5.32,5.32,0,0,0,.45.89,3.26,3.26,0,0,0,.78.91c.08.06.08.06.07.18a.87.87,0,0,0,0,.39,2.41,2.41,0,0,1,.06.79l-.11.85h0a7,7,0,0,1-1.28-.84l-.16-.13c-.22-.16-.84-.76-1.33-1.24s-.69-.66-.84-.79a5.09,5.09,0,0,0-.79-.52,1.78,1.78,0,0,0-.41-.22,6.72,6.72,0,0,0-1.33-.55l-.11,0a3.46,3.46,0,0,0-2,.79l-.13.09a3.2,3.2,0,0,0-1,1.52l-.13.29a9.3,9.3,0,0,0-.43,2v.06a7,7,0,0,0,0,1.45c0,.29,0,.57,0,.76s0,.81-.06,1.35,0,.83,0,1.19A2.8,2.8,0,0,1,8,63.08c0,.11-.12.21-.18.33-.15.27-.22.27-.48.25a1.94,1.94,0,0,0-.52,0,.67.67,0,0,1-.2,0A5.58,5.58,0,0,1,5,62.9a4.59,4.59,0,0,1-1.08-1c-.16-.18-.34-.39-.56-.62a7.2,7.2,0,0,1-1.09-2,5.44,5.44,0,0,0-.41-.86c-.23-.33-.74-1.38-1-1.94-.08-.15-.13-.27-.17-.34a10.49,10.49,0,0,0-.69-1V56.8l.42.67c.08.15,1.33,2.73,1.43,3s1.77,2.63,2.05,3A10.79,10.79,0,0,0,5.81,65a3.33,3.33,0,0,0,1.51.54,2.25,2.25,0,0,0,.63,0c.87-.11,1.18-1.34,1.26-1.71s.18-1.41.29-2.35c.07-.63.14-1.22.16-1.35a15.84,15.84,0,0,0,0-1.83c0-.52,0-1.11,0-1.23a16.29,16.29,0,0,1,.58-2.76,3.9,3.9,0,0,1,1.58-1.25,2.27,2.27,0,0,1,.69,0,5.16,5.16,0,0,1,.92.2l.06,0,.32.17a2.27,2.27,0,0,1,.34.35,3.36,3.36,0,0,0,.32.37c.4.37.8.75,1.16,1s1.13,1,1.2,1.12a6.48,6.48,0,0,0,.93.7l.8.58,0,0a.23.23,0,0,1,.07.2c0,.12,0,.12-.1.3l-.2.37a.58.58,0,0,0-.28,0,.68.68,0,0,1-.32,0,3.06,3.06,0,0,1-.54-.13.55.55,0,0,0-.18,0l-.35-.1a16,16,0,0,0-1.57-.38c-.52-.06-.9-.11-1.47-.16a.85.85,0,0,0-.79.23.44.44,0,0,1-.18.14,1.64,1.64,0,0,0-.6.47.75.75,0,0,1-.15.16,3.68,3.68,0,0,0-.56,1.41l-.08.25A4.52,4.52,0,0,0,11.38,62c0,.06,0,.1,0,.12,0,.19.32,1.39.39,1.63v0l1.49,3.19a40.07,40.07,0,0,0-3.82,1.4,17.05,17.05,0,0,0-2.94,1.83s-1.94.46-2.44-.29S1.23,66.27,0,64.94v1.45a11.87,11.87,0,0,1,1,.89c.89.92,1.91,3.59,2.6,3.89s.51.86,1.72.6c0,0,0,.1,0,.14s-.2.33-.29.51H5l0,0a9.48,9.48,0,0,0-.69,1.72,4.12,4.12,0,0,0,.4,2.64.76.76,0,0,1-.54.27,1.65,1.65,0,0,0-.2-.19A5.24,5.24,0,0,0,3.08,76,36.44,36.44,0,0,1,.14,72c-.05-.06-.09-.14-.14-.2v2.68a28.6,28.6,0,0,0,6,5.7,50.58,50.58,0,0,1,4.32,3.33c6,5.08,13.79,5.6,13.48,8.11-.22,1.81,0,2-1.36,3.5-.75.82-4.52,2.19-8.5,4.12-5,2.42-9.74,4.7-11.18,6a15,15,0,0,0-2.76,4v5.27c.14-.4.3-.82.48-1.25s.36-.82.55-1.18c.62-.81,1.4-1.75,2.22-2.65.51-.24,1.06-.54,1.64-.85a21.11,21.11,0,0,1,4-1.83l.58-.12.17,0a52.33,52.33,0,0,0,8.44-1.49l.65-.28c2.25-1,8.23-3.55,9.92-4.95a14.58,14.58,0,0,1,1.69-1.13c1.71-1,3.66-2.22,3.05-4.48-.3-1.09-2-2.45-5.08-4.16a1.38,1.38,0,0,0-.82-.46h-.08l-.93-.48c-1.61-.81-4.36-2.1-8.35-3.71a38.83,38.83,0,0,1-6.86-4c-2.92-2.13-5.09-4-4.94-5.22.47-3.78,2.37-5,3.4-5.36.84-.33,2.1-.88,3.32-1.42L14.24,69l.11.21.08-.29c.48-.21.9-.39,1.21-.51l.62-.22a30.81,30.81,0,0,0,3.67-1.48,10,10,0,0,0,3.3-2.36,1.4,1.4,0,0,1,.75.39s.08.27-.41,1.12a11.76,11.76,0,0,1-1,1.52,51.23,51.23,0,0,1-4.89,4.5,7.2,7.2,0,0,0-2.73,5.33c-.28,2.07,1.67,3.91,3,5.12l.28.28c1.48,1.41,7.64,2.84,7.7,2.86l.26,0c1.15.14,4.7.18,6.6.21l1.26,0h0a87.37,87.37,0,0,1,8.72,2.34c.49.31.53,1.43.09,2.77a28.36,28.36,0,0,1-3.58,5.67,15.83,15.83,0,0,1-2.17,2.06c-.38.32-.75.64-1.09,1a35.53,35.53,0,0,1-3.66,2.57h0a72,72,0,0,0-5.6,6l-.65.74c-1.16,1.31-2.36,5.51-2.42,6a10.32,10.32,0,0,1-.33,2,2.23,2.23,0,0,1-.49.46h1.67a4.77,4.77,0,0,0,.07-.76c0-.5.07-1.17.14-1.8,0-.33.07-.65.1-.93a12.65,12.65,0,0,1,1.92-3.05c.28-.37.52-.69.66-.9.5-.76,5.31-5.69,5.65-6,.08-.08.56-.47,1.18-1,1.56-1.27,4.45-3.63,6.63-5.6,3.42-3.1,4.74-8.65,4.76-8.71.25-1.11-1-2.25-1.7-2.69a7.18,7.18,0,0,0-2.52-.5c-2.47-.31-6-.57-6.23-.58-.45,0-6.5-.33-7.1-.4a60.08,60.08,0,0,1-6.81-2A15.18,15.18,0,0,1,17,79.05c-.92-1.28-.62-2.88-.22-4.4.25-.93,1.89-2.24,3-3.11a9.2,9.2,0,0,0,1.05-.92c.2-.22.69-.75,1.27-1.35,1.3-1.39,2.31-2.47,2.52-2.8a8,8,0,0,0,.53-1.38,7,7,0,0,1,.6-1.49,1.68,1.68,0,0,1,1.32-.32s.2.2.25,1a8.91,8.91,0,0,1,0,1.43,23.72,23.72,0,0,1-.9,3.22,25.55,25.55,0,0,0-.9,2.42c-.25.72-.48,1.41-.57,1.62a15.05,15.05,0,0,0-.22,4.16c.08,1.32,1.79,2.79,2.44,3.34l.06,0a6.55,6.55,0,0,0,3,1.13l.3,0a33.18,33.18,0,0,0,6.8-1.33c.69-.28,6.36-2,9.61-3a18.32,18.32,0,0,1,5.44-.7c.08,0,.28.16.52,1.32a2.59,2.59,0,0,0,.07.31c.05.4-.07,3.88-.15,4.32s-.8,3.26-1,3.7l-.28.71c-.36.9-1,2.42-1.15,2.86s-1.07,1.58-1.66,2.38c-.3.42-.55.74-.65.91a21.08,21.08,0,0,1-2.49,3c-.67.62-1.71,2.81-3.08,6.51l-.07.17a7.16,7.16,0,0,0-.19,2.1,8.15,8.15,0,0,1,0,1.08,19.81,19.81,0,0,0,.06,2.78c0,.58.07,1.13.07,1.36a13,13,0,0,0,.49,2.47l-.1.1c-.3.32-1.16,1.24-1.51,1.56a26.75,26.75,0,0,1-3.59,2.12c-.53.24-1.43.59-2.37.92h4a21.51,21.51,0,0,0,3-1.88c.37-.33,1.13-1.14,1.45-1.48l.07,0,.23,0a3.18,3.18,0,0,0,2.39-.71c.54-.41,1.14-.84,1.72-1.25s1.22-.86,1.78-1.3A28.36,28.36,0,0,0,54.15,106a20.74,20.74,0,0,1,1.56-1.92A10.33,10.33,0,0,0,57,102.47c.17-.25,1-1.11,1.46-1.63a13.63,13.63,0,0,0,1.17-1.32A26.09,26.09,0,0,0,61,95.61a8.53,8.53,0,0,0,1.28-.35,7.88,7.88,0,0,0,2.08-1.91A16.15,16.15,0,0,0,66.84,88c.16-.74.5-1.83.81-2.79a18.11,18.11,0,0,0,.59-2.08,58.76,58.76,0,0,1,.93-6.08,3.69,3.69,0,0,0,0-2,1.49,1.49,0,0,0,.42-1,10.38,10.38,0,0,0,0-1.13c0-.26,0-.5,0-.7,0-.58-.21-3-.51-6.06a1.5,1.5,0,0,1,0-.22l-1.76-1.75c0,.35.1,1.1.2,2.12.2,2,.53,5.32.51,5.84,0,.24,0,.52,0,.79s0,.37,0,.57a.92.92,0,0,0-.15-.25c-.08-.08-.32-.26-.8-.62a19.25,19.25,0,0,1-1.77-1.42,24.24,24.24,0,0,1-2.05-2.84,14.24,14.24,0,0,1-.81-2.76c0-.11,0-.32-1.07-3.91-.6-2-1.3-4.12-1.68-5.25-.82-2.44-4.2-6.41-5.72-7.95a3.3,3.3,0,0,0-1.82-1.16,2,2,0,0,0-.61,0,1.5,1.5,0,0,1-.42,0h0c-.84-.11-1.15,1.06-1.33,1.75,0,.13-.06.23-.09.3s-.19.72-.36,1.39c-.26,1.07-.63,2.55-.79,2.92a12.44,12.44,0,0,0-.74,3c-.07.51-.2,1.09-.32,1.65s-.21,1-.25,1.33a13.17,13.17,0,0,1-1.07,2.82l-.09.21a5.26,5.26,0,0,1-1.85,2,2.9,2.9,0,0,1-1.84.6,5.39,5.39,0,0,1-2.59-.81c-.36-.28-.7-.59-1-.86a5.67,5.67,0,0,0-.86-.71c-.26-.21-2.06-2.36-3.14-3.65s-1.3-1.55-1.36-1.6a6.87,6.87,0,0,0-1.81-.6h-.1a4.12,4.12,0,0,0-.6.06c-.2,0-.48.06-.62.06a7.77,7.77,0,0,1-.71-1.41,2.85,2.85,0,0,1,.66-.51c.21-.15.44-.3.64-.47,0,0,.16-.12,1,0s1.49.28,2.11.42c.39.09.71.16.88.18s1.83.62,3.09,1.09a28.56,28.56,0,0,0,3.21,1.11,7.36,7.36,0,0,0,2.49,0c.89-.18,1.76-1.16,2.83-3.19.93-1.75-1.73-8.37-1.76-8.43v0a53.1,53.1,0,0,1-1.4-5.79c.06-.45.49-1,1-1h.1a8,8,0,0,1,1.65.57c.53.21,1.2.48,2,.77,1.62.59,4.4,2.92,5.59,3.92a6.64,6.64,0,0,0,.59.47c.21.19,1.59,1.82,2.8,3.28l0,0,0,0a16.25,16.25,0,0,1,2.65,2.75c.84,1.33,3.7,2.66,4,2.69.07,0,.33.09.63.19a11.58,11.58,0,0,0,.53,1.14l.16.31,1.18-1.18c-.13-.25-.28-.54-.33-.68A18.2,18.2,0,0,0,64.86,51Zm-45.95-9.6A5.06,5.06,0,0,0,17.65,41a3,3,0,0,0-1.47.17l-.1,0a11.4,11.4,0,0,0-2.27,1c-.46.33-1.08.71-1.54,1l-.27.16c-.47.29-2.18,1.43-2.58,1.74a16.68,16.68,0,0,1-2.28,1.18,1.74,1.74,0,0,1-.95.21l-.31-.07c-.25-.07-.51-.23-.69-1.42a13.81,13.81,0,0,1,1.06-4.5c.14-.33.55-1,.89-1.54s.62-1,.76-1.28c0-.08.08-.15.12-.24A13.58,13.58,0,0,0,9.1,34.76a2.1,2.1,0,0,0-.9-2.45h0a2.12,2.12,0,0,0-.51-.21,10.07,10.07,0,0,1,1.5-1.15c.4-.21,1.07-.52,1.72-.82.86-.39,1.67-.77,2.06-1a23,23,0,0,1,4.88-1.76,3.14,3.14,0,0,1,.53,0l.37.05.34.06a2.11,2.11,0,0,0,.66,0,0,0,0,0,0,0,0,1.53,1.53,0,0,1,.06.71,2.75,2.75,0,0,1-.16.78,4.89,4.89,0,0,1-1,1.13A9.7,9.7,0,0,1,17,31,23.76,23.76,0,0,0,15,32.26l-.83.54a10.51,10.51,0,0,0-1.73,1.55l-.46.46A9.43,9.43,0,0,0,10.4,37c-.05.09-1.18,2.22-.37,2.84a2.19,2.19,0,0,0,1.09.37,2,2,0,0,1,.24,0l.28,0,.45.06a7.14,7.14,0,0,0,2.68-.22L15,40c.42-.09,1-.17,1.64-.26s1.09-.15,1.6-.24A26.18,26.18,0,0,1,22,39.26h.22a2.26,2.26,0,0,1,.87.34l.29.16a3.13,3.13,0,0,1,1.25,1.17,4,4,0,0,1,.3,1.68c0,.09,0,.19,0,.28a4.26,4.26,0,0,1-.35,1.37c-.08.24-.15.44-.18.57a3.64,3.64,0,0,1-.6,1.4,6.25,6.25,0,0,0-.49.77,12.27,12.27,0,0,1-.71,1.07,2.56,2.56,0,0,0-.57,1.35c0,.17-.07.37-.13.62a5.09,5.09,0,0,0-.17,1.19,2.76,2.76,0,0,1,0,.38c0,.07,0,.15,0,.2l-.06,0c-.09,0-.23.11-.42.22a1,1,0,0,1-.35.17,1.13,1.13,0,0,1-.16-.13L20.54,52a4.19,4.19,0,0,1-.22-1.79,3.28,3.28,0,0,0,0-.53,9.3,9.3,0,0,1,.15-1.35c0-.18.05-.34.06-.45.14-1.17.39-3.2.38-3.6A3.12,3.12,0,0,0,18.91,41.37ZM14.33,66.75h0c-.08-.19-.16-.39-.27-.63-.3-.71-.65-1.47-.94-2.09l-.45-1a8.63,8.63,0,0,1-.28-1.54A12,12,0,0,0,12.13,60a.4.4,0,0,1,.08-.29,3.68,3.68,0,0,1,1.57-1.08,8.14,8.14,0,0,1,2.09.43c.11.14.33.25,1.06.34s2,.14,2.19.15l.62.07a3,3,0,0,1,.51,1v0c-.05.06-.26.09-.4.12a2.89,2.89,0,0,0-.71.19,1.05,1.05,0,0,1-.43,0C18.05,61,17,61,15.35,62.6a2,2,0,0,0-.65,1.56,3.59,3.59,0,0,0,1.35,2.21C15,66.71,14.44,67,14.33,66.75Zm7.42-4.61a1.58,1.58,0,0,0-.28.46l-1,1.69a20,20,0,0,1-3.68,1.87L16,65.28l-.22-1.53A8.33,8.33,0,0,0,17,62.26a4.29,4.29,0,0,1,1-.19L19.25,62l.59-.14,1.88-.68.35.42Zm2-11.32a2.74,2.74,0,0,1-1.23.55c0-.24.15-.68.23-1s.15-.56.2-.81a10.59,10.59,0,0,1,1.36-2.49l.12-.18c.09-.15.57-1.11.86-1.73a6.38,6.38,0,0,0,.48-3.94c-.39-1.8-3-2.76-3.72-2.87h0a36.89,36.89,0,0,0-5.6.66,14.67,14.67,0,0,1-3.06.22,1.56,1.56,0,0,1-1.43-.86c-.3-.51,0-1.16.27-1.79a7.16,7.16,0,0,0,.28-.69c.18-.58,2.14-2.07,2.87-2.64l.47-.36a21.9,21.9,0,0,1,2.88-1.61,7.25,7.25,0,0,0,1.93-1.94,3.87,3.87,0,0,0-.14-2.1,1.39,1.39,0,0,0,.27-.18c.12-.09.21-.16.74-.21a7.92,7.92,0,0,0,1.25-.23,12.87,12.87,0,0,1,3.39-.38,46.74,46.74,0,0,1,6.36.46l.83.09.82.1a9.65,9.65,0,0,1,3.35.82L38,28a7,7,0,0,1-1,.79,4.26,4.26,0,0,1-1.38.49l-.54.13a4.93,4.93,0,0,1-1.76,0l-.28,0-.26,0a12.88,12.88,0,0,0-2,.05l-.85.05h-.43c-.86,0-2.3.06-3,.12a11.42,11.42,0,0,0-2.29.61l-.27.09c-.4.13-1.2.49-1.73.73l-.32.14a8.11,8.11,0,0,0-1.35,1l-.49.39A3.68,3.68,0,0,0,19,33.9c-.18.48.48,1.17,1,1.45a28.06,28.06,0,0,0,2.82,1.16c.27.08.71.17,1.22.27l1.12.24a21.35,21.35,0,0,1,2.17.62l.29.09A6.9,6.9,0,0,1,30,38.82c.62.52.62.73.6,1.72,0,.23,0,.5,0,.81,0,1-.11,1.18-.36,1.51a5.43,5.43,0,0,0-.54.89,2.65,2.65,0,0,1-.87,1.19,5.58,5.58,0,0,0-.42.37c-.63.63-1.77,1.76-2.34,2.36a6.35,6.35,0,0,1-.7.61,2.28,2.28,0,0,0-.8.85v0A10.55,10.55,0,0,1,23.73,50.82Zm2.9.23-.36,0-.2,0L26,51.1a1.33,1.33,0,0,1-.4,0,6.54,6.54,0,0,1-1.11-.26,8.52,8.52,0,0,1,1.1-1.74c.25-.26,3.09-2.9,3.26-3.05s1.39-1.5,1.63-1.77l0,0,0,0c.07-.16.7-1.5.81-1.87a11,11,0,0,0-.05-3.43c-.2-.91-1.91-1.51-3.8-2.1-.37-.11-.7-.21-.84-.27a20.46,20.46,0,0,0-2.72-.75l-.67-.17a12.64,12.64,0,0,1-2.39-1.39l0,0a.73.73,0,0,0,.1-.13,3.32,3.32,0,0,0,.39-.54,3.82,3.82,0,0,1,1.5-1.12l.25-.13a15.78,15.78,0,0,1,2.91-1c1-.22,3-.47,3.65-.54s3.27-.19,3.89-.18a15,15,0,0,0,3-.34,12.51,12.51,0,0,0,2.3-1.46l0-.05.16-.15c.82.31,4,1.5,5.2,1.88a15.44,15.44,0,0,1,4.46,2.7,21.91,21.91,0,0,1,3.52,3.76l.2.24a1.33,1.33,0,0,0,.21.22s0,.07,0,.08v0h-.1a7.91,7.91,0,0,1-.81-.19l-.3-.07-.12,0c-.49-.09-2-.4-2.44-.52a11.41,11.41,0,0,1-1.37-.74,14.57,14.57,0,0,0-1.55-.83,14.59,14.59,0,0,1-1.35-.74,11.51,11.51,0,0,0-1.19-.66,18,18,0,0,0-3.17-1c-.36,0-.91-.19-1.49-.33l-1.44-.34L37,32a18.74,18.74,0,0,0-3.24.09l-.69.06a3,3,0,0,0-1.75.72l-.32.22a.66.66,0,0,0-.37.67,1.47,1.47,0,0,0,.28.6,4.49,4.49,0,0,1,.26.45,5.55,5.55,0,0,0,1.63,1.78,3.67,3.67,0,0,1,.73.65l.47.49.73.78c.46.49.87.91,1.27,1.27a7.67,7.67,0,0,1,.69.71c.24.26.52.56.92.92l.07.07c.34.49,1.39,2,2.07,3.11l0,0A4.73,4.73,0,0,1,40.11,46c0,.26.1.57.18.95.14.6.1.67-.08,1a5.05,5.05,0,0,0-.38.73c-.25.6-.38.64-.73.74a4.57,4.57,0,0,0-.58.22,7.49,7.49,0,0,1-2.09.46l-.54.07a1.37,1.37,0,0,1-.65-.07,5.27,5.27,0,0,0-.6-.12,3.16,3.16,0,0,0-.62,0,27.69,27.69,0,0,0-3.19.46,16.57,16.57,0,0,0-1.76.44l-.09,0c-.26.07-.55.13-.79.18l-.47.1A5.16,5.16,0,0,1,26.63,51.05Zm4.22,7.51c.14-.09.29-.18.42-.28s.08,0,.11,0a3.91,3.91,0,0,1,1.51,1c.62.59,3.21,3.75,3.65,4.42a14.16,14.16,0,0,0,2.78,2.22c.23.16.46.32.5.36l0,0a6.46,6.46,0,0,0,2.35.69l.35,0c.81,0,1.93-.5,3.41-1.66,1-.77,2.6-5.59,2.66-6.06,0-.18.31-1.24.57-2.18.34-1.21.68-2.45.75-2.86a50.08,50.08,0,0,1,1.75-4.82h0a5.55,5.55,0,0,1,1,.34h0a20.27,20.27,0,0,1,3.09,3c.15.23,1.39,2.42,1.56,2.8.09.21.38.77.69,1.36s.68,1.28.75,1.47.44,1.33.73,2.23c.21.69.41,1.28.47,1.46s.19.72.37,1.42a39.78,39.78,0,0,0,1.37,4.84,22.86,22.86,0,0,0,1.51,2.22l.21.28a10.32,10.32,0,0,0,1.47,1.4l.28.24a8.6,8.6,0,0,0,1,.7l.71.48.31.28-.35.06.58,1a2.42,2.42,0,0,1,.23,1.67c-.32,1.12-.75,4.43-1,6.31,0,.24-.3,1.07-.53,1.8-.31,1-.67,2.12-.85,2.94a14.4,14.4,0,0,1-2.16,4.61,7.38,7.38,0,0,1-1.52,1.5,13.49,13.49,0,0,1-1.41.35l-.47.09,0,.1-.05-.07s-.28-.4-.58-.85a25.3,25.3,0,0,1-1.46-3.79,28.81,28.81,0,0,1,0-3.82A28,28,0,0,1,59,80.93a23.54,23.54,0,0,0,.85-5.39l0-.2a38.63,38.63,0,0,0-.44-6c-.21-1.13-1.93-6.79-2.62-7.8-.4-.58-.63-.78-.94-.82h-.11a.1.1,0,0,1-.06,0,.62.62,0,0,0-.23-.07,4.26,4.26,0,0,0-2,.73,9.92,9.92,0,0,0-2.55,2.29c-.3.35-.88,1-1.4,1.54s-.86.91-1.06,1.15c-.46.54-1.57,1.88-2,2.45-.24.32-1.1,1.17-1.78,1.86-.53.52-1,1-1.14,1.16a18.63,18.63,0,0,1-2.85,1.89,12.34,12.34,0,0,1-3.12.49l-.79.08h-.23A3.74,3.74,0,0,1,34.73,73l-.28-.29A8.47,8.47,0,0,1,33.28,70c-.1-.33-.19-.62-.27-.84a12.29,12.29,0,0,1-.34-2.4,12.6,12.6,0,0,0-.25-1.93c-.25-.84-1.58-4.13-1.75-4.53a5.14,5.14,0,0,0-.23-.47,1.38,1.38,0,0,1-.25-.7C30.21,59,30.59,58.72,30.85,58.56Zm-1.12,2.76c.11.2.72,1.72.78,1.89s1,3.5,1,3.83.48,2.92.58,3.28a15.42,15.42,0,0,0,2.42,4.17,3.54,3.54,0,0,0,2.25,1,10.63,10.63,0,0,0,2,0l.32,0c1,0,4.24-1.76,4.65-2s3.81-4.29,4.08-4.65,2.72-3,3-3.14.62-.5,1.41-1.16,1.86-1.55,2-1.67a1.77,1.77,0,0,1,1.24-.05c.28.07.68,1.09.91,1.7.13.33.27.68.4,1a32.22,32.22,0,0,1,1.43,5.93,50.72,50.72,0,0,1-.17,6.73,19.86,19.86,0,0,1-.9,4c-.19.2-.25.6-.35,1.54-.09.72-.19,1.62-.41,2.62A10.73,10.73,0,0,0,57,91.39l.16.54a10.34,10.34,0,0,0,1.74,2.88L59,95l.58-.29h0c-.5,1.68-1.11,3.6-1.28,4-.12.15-.63.7-1,1.1a10.78,10.78,0,0,0-1.74,2c-.13.19-.66.81-1.05,1.26a19.22,19.22,0,0,0-1.74,2.18,28.84,28.84,0,0,1-3.86,4.18c-.54.42-1.14.85-1.72,1.26s-1.22.86-1.78,1.3a1.63,1.63,0,0,1-1.23.38l-.16,0-.23-.1h0q-.08-.16-.15-.3a9.33,9.33,0,0,1-.4-2.2c0-.46,0-5.85.24-6.8a42.89,42.89,0,0,1,2.69-5.5c.24-.26,2.5-2.73,2.73-3,.12-.15.78-1.14,1.78-2.62.76-1.13,1.61-2.41,1.7-2.52s0,0,0,0a17.51,17.51,0,0,0,.89-2.6c.37-1.27.89-3.22,1.27-5.29a9.12,9.12,0,0,0-.16-4.55,3,3,0,0,0-1.43-1.93,1.13,1.13,0,0,0-.35-.08,12,12,0,0,0-3.39.46l-2.62.76-2.27.66c-.46.13-4.69,1.52-5.2,1.79A45.9,45.9,0,0,1,34.25,80a34.57,34.57,0,0,1-4.45,0h-.07a3.41,3.41,0,0,1-1.43-.56l-.57-.3c-1.14-.6-1.94-2.51-2.12-3.4a9.47,9.47,0,0,1,.65-3.51,28.75,28.75,0,0,0,1.17-3.61c.24-.82.52-1.76.58-1.89a6.23,6.23,0,0,0,.14-1.89c0-.35,0-.67,0-.81a8.14,8.14,0,0,0-.66-2.3l.26-.37,1.09-.62A7.89,7.89,0,0,1,29.73,61.32Zm33.12-8.81c-.43-.22-.77-.4-.93-.46a43.81,43.81,0,0,1-3.94-4c-.11-.2-.9-1.08-2.08-2.42-.57-.66-1.23-1.39-1.3-1.49a59.46,59.46,0,0,0-5.08-4l-.53-.4c-.38-.3-5.34-2-5.61-2h-.06c-.6-.08-1.11.86-1.31,1.27-.06.13-.22.48.74,4a29.41,29.41,0,0,0,1.18,3.67,36,36,0,0,1,1.45,6.42A4.43,4.43,0,0,1,44.27,56a2.63,2.63,0,0,1-1.25.5l-.65.18c-.28.08-.56.16-.75.2h-.23a10.28,10.28,0,0,1-2.53-.78c-.38-.19-3.73-1.87-4.26-2a33.28,33.28,0,0,0-3.35-.63l-.2,0a2.43,2.43,0,0,0-1.83.35l-.28.15,0,0a.42.42,0,0,0-.09-.14c-.14-.24-.36-1.45,0-1.8a10.42,10.42,0,0,1,3-.85l.43-.09C32.48,51,34.09,51,35,51h.12a17.72,17.72,0,0,0,3.46-.39,5.63,5.63,0,0,0,2.61-1.51c.44-.57.1-1.89-.28-3.19a4.91,4.91,0,0,1-.14-.5c0-.08,0-.2-.57-1-.08-.18-.15-.33-.2-.46a5.44,5.44,0,0,0-.77-1.33c-.18-.24-.3-.4-.39-.54a4.51,4.51,0,0,0-.78-.89c-.16-.24-.75-1.09-.85-1.2s-1.1-1.22-1.93-2c-.53-.51-1.37-1.53-2-2.28-.28-.35-.52-.65-.7-.84-.37-.43-.27-.56.09-1a.86.86,0,0,1,.07-.1s.14-.19,1.11-.26c.62,0,1.34,0,1.91,0h.7a3.39,3.39,0,0,1,.49,0,29.82,29.82,0,0,1,4.3,1,20.87,20.87,0,0,1,3.22,1.31l.13.06c.46.22,1.49.67,2.33,1l1.19.52a34,34,0,0,0,3.9.85,4.15,4.15,0,0,0,.72,0c.1,0,.25,0,.42-.42a2.67,2.67,0,0,0,1,.36A12.57,12.57,0,0,1,56,40.06c.86,1,1.78,2.15,2.39,2.91.35.43.6.74.73.88a60.58,60.58,0,0,1,3.38,5.29,22.46,22.46,0,0,0,.87,2.4c.19.49.41,1.07.58,1.53C63.58,52.89,63.15,52.66,62.85,52.51Z"/></symbol></defs><title>Artboard 2</title><path class="cls-1" d="M54.93,8.18l.8-.94h.82c0,2.06,0,6.5,0,7.24l-.18.18-1.46,0V14l-2.72.84c-3.68,0-4.32-1.74-4.32-4.06V4c0-1.24.58-3.76,4.36-3.76,3.46,0,4.26,1.18,4.32,3.4l-.16.18H55.15L55,3.66c-.12-1.6-.86-1.84-2.72-1.84-1.4,0-2.8.26-2.8,2.24v6.68c0,2,.8,2.46,2.8,2.46l2.68-.06Z"/><path class="cls-1" d="M59.33,14.44V.52l.16-.14h8.06l.14.14V1.8L67.53,2H60.91V6.32h6.18l.14.14V7.74l-.14.16H60.91v5.18h6.62l.16.18v1.22l-.14.16h-8Z"/><path class="cls-1" d="M74.79,14.92c-3.18,0-4.44-1.84-4.44-3.78V3.76C70.35,2,71.55,0,74.81,0s4.44,1.86,4.44,3.78v7.4C79.25,13.08,78,14.92,74.79,14.92ZM77.65,3.8c0-1.82-1.26-2.32-2.84-2.32-1.78,0-2.9.56-2.9,2.32v7.34c0,1.84,1.9,2.3,2.76,2.3H75c.82,0,2.7-.38,2.7-2.28Z"/><path class="cls-1" d="M92.73.52v14l-.16.16h-1.3l-.14-.14V3l-.3.92c-.94,1.94-2.06,4.18-3,6.14H86.49l-3-6.14-.34-1V14.5l-.16.14H81.77l-.18-.16V.54l.14-.16h1.84l3.6,7.4L90.73.38h1.86Z"/><path class="cls-1" d="M104.25.52V10.86c0,2.68-1.34,4-4.44,4s-4.46-1.32-4.46-4V.54l.14-.16h1.28l.16.16v10.3c0,1.84,1.08,2.54,2.88,2.54s2.86-.76,2.86-2.54V.54l.14-.16h1.28Z"/><path class="cls-1" d="M115.37,11c0,2.56-1.18,3.86-4.48,3.86s-4.3-1.34-4.36-3.52l.16-.14H108l.14.14c.08,1.42,1,1.94,2.76,1.94,2.34,0,2.94-.58,2.94-2.32a2,2,0,0,0-1.22-2c-1.24-.64-2.46-1.2-4-1.94a3.1,3.1,0,0,1-1.86-3.22c0-2.1,1-3.6,4.14-3.6s4.2.86,4.28,3.4l-.16.16h-1.3l-.16-.18c0-1.44-.52-1.84-2.66-1.84s-2.58.74-2.58,1.94a2,2,0,0,0,1.24,2c1,.48,2.58,1.16,3.6,1.64C114.65,8.06,115.37,8.78,115.37,11Z"/><path class="cls-1" d="M117.75,14.44V.52l.16-.14H126l.14.14V1.8L126,2h-6.62V6.32h6.18l.14.14V7.74l-.14.16h-6.18v5.18H126l.16.18v1.22l-.14.16h-8Z"/><path class="cls-1" d="M137.49.52V10.86c0,2.68-1.34,4-4.44,4s-4.46-1.32-4.46-4V.54l.14-.16H130l.16.16v10.3c0,1.84,1.08,2.54,2.88,2.54s2.86-.76,2.86-2.54V.54l.14-.16h1.28Z"/><path class="cls-1" d="M151.15.52v14l-.16.16h-1.3l-.14-.14V3l-.3.92c-.94,1.94-2.06,4.18-3,6.14h-1.36l-3-6.14-.34-1V14.5l-.16.14h-1.26l-.18-.16V.54l.14-.16H142l3.6,7.4,3.56-7.4H151Z"/><path class="cls-1" d="M47.81,31.64V17.8l.42-.42h7.9l.38.42v1.5l-.4.42h-6V23h5.54l.4.4V24.9l-.4.4H50.15v5.92l-.42.42Z"/><path class="cls-1" d="M64.73,17.8,67.81,31v.68H65.55l-.86-3.76H60.17c-.26,1.24-.54,2.48-.82,3.76H57.07V31l3-13.16.48-.44h3.68Zm-.58,7.76c-.2-.94-.4-1.84-.62-2.8s-.44-2-.68-3.1H62l-1.28,5.9Z"/><path class="cls-1" d="M78.43,31.64H77l-2.9-4.8-3,4.8H69.69l-.48-.38v-1l3.5-5.76-3.5-5.76v-.86l.38-.5h1.5L74,22.16c1.42-2.24,2.14-3.38,3-4.78h1.44l.4.5v.94l-3.48,5.62c1.18,1.86,2.26,3.78,3.48,5.72v1.08Z"/><path class="cls-1" d="M80.67,31.18V17.8l.42-.42H89l.38.42v1.5l-.4.42H83V23h5.54l.4.4V24.9l-.4.4H83v4h6l.36.46v1.42l-.38.42H81.13Z"/><use width="671.53" height="83.75" transform="translate(48.01 35.94) scale(0.09)" xlink:href="#Kalklandet_navn_hvid_9"/><use width="111.11" height="117.28" transform="translate(0 0.08) scale(0.37 0.37)" xlink:href="#New_Symbol_35"/></svg>
