<svg id="geomuseum" xmlns="http://www.w3.org/2000/svg" xmlns:xlink="http://www.w3.org/1999/xlink" width="111.99" height="32.1" viewBox="0 0 111.99 32.1">
  <defs>
    <style>
      .cls-1 {
        fill: #00a5a3;
      }

      .cls-2 {
        fill: #00a6a3;
      }

      .cls-3 {
        fill: #fff;
      }
    </style>
    <symbol id="Kalklandet_navn_hvid_9" data-name="Kalklandet navn hvid 9" viewBox="0 0 671.51 83.75">
      <path class="cls-1" d="M15.27,83.58l2-2.34V48.3H21.5L47.22,83.58H60l2-1.76V75.75l-23.72-34V40.12L63,8.33V2L60.9,0h-13L23.71,30.24H17.24V1.75L15.24,0H1.84L0,1.75V81.82l1.84,1.76Z"/>
      <path class="cls-1" d="M231.81,83.58l2-2.34V48.3H238l25.76,35.28h12.78l2-1.76V75.75l-23.72-34V40.12L279.49,8.35V2L277.4,0h-13L240.25,30.24h-6.47V1.75l-2-1.75h-13.4l-1.84,1.75V81.82l1.84,1.76Z"/>
      <path class="cls-1" d="M143.37,0h-17L122,19.57H91.67L87.23,0H70.12v2.8L89.93,83.58h33.63L143.37,2.94ZM118.43,34.75l-7.49,34.5h-8.26l-7.59-34.5Z"/>
      <path class="cls-1" d="M205.43,14.75v-13L203,0H154.81L153,1.75v80l2,1.88h14l2-1.76V16.42h32.43Z"/>
      <path class="cls-1" d="M389.59,83.7H365.38l-19-82.64V.12h10.48l5.39,23.45H392.7L398.09.12h10.45V1.18q-9.68,41.15-19,82.52ZM364.38,32.75,373.79,75h7.39l9.41-42.2Z"/>
      <path class="cls-1" d="M521.53,83.7H492.66l-1.18-1V.94a8.34,8.34,0,0,1,.94-.94H522c18.41,0,22,15.13,22,22.39v39C544,68.58,540.41,83.7,521.53,83.7Zm12.91-60.95c0-11-7.18-13.16-12-13.16H501.2V74h21.15c4.79,0,12.09-2.19,12.09-13.16Z"/>
      <path class="cls-1" d="M474.47,83.7h-8.39l-.94-.82V15l-2,6L432.62,83.7h-12l-.93-.93V1.06l.93-.94h8.51l.82.94V68.35L431.7,63,462.12.24,474.44.12l.82,1.06v81.7Z"/>
      <path class="cls-1" d="M649,.12l.94.94V73.24h20.39l1.18,1.17v8.47l-.82.82H620l-.82-.93V74.06l.82-.82h19.63V.12Z"/>
      <path class="cls-1" d="M339.79,10.27H303.21V82.75a3.76,3.76,0,0,0-.59.93h-9.37l-.82-.93V1.06l.82-.94h46.54l.82.94V9.33Z"/>
      <polygon class="cls-1" points="558.36 48.43 558.36 36.7 603.85 36.7 604.67 37.7 604.67 47.54 603.85 48.43 558.36 48.43"/>
      <polygon class="cls-1" points="558.36 11.4 558.36 1.29 559.54 0.12 606.54 0.12 607.36 1.06 607.36 10.34 606.43 11.4 558.36 11.4"/>
      <polygon class="cls-1" points="606.23 83.75 558.99 83.75 558.05 82.93 558.05 72.02 567.32 72.02 567.32 72.02 606.12 72.02 607.05 72.96 607.05 82.93 606.23 83.75"/>
    </symbol>
    <symbol id="New_Symbol_35" data-name="New Symbol 35" viewBox="0 0 111.14 117.29">
      <path class="cls-2" d="M27.78,55.91l-.26-.37a8.31,8.31,0,0,0,.66-2.3v-.81A6,6,0,0,0,28,50.54c-.06-.13-.34-1.07-.58-1.89A28.67,28.67,0,0,0,26.28,45a9.38,9.38,0,0,1-.65-3.51c.18-.89,1-2.8,2.12-3.4l.57-.3a3.54,3.54,0,0,1,1.43-.56h.07a33,33,0,0,1,4.45,0,45.26,45.26,0,0,1,4.84,1.52c.51.27,4.74,1.66,5.2,1.79l2.27.66L49.2,42a12.11,12.11,0,0,0,3.39.46,1.05,1.05,0,0,0,.35-.08,3,3,0,0,0,1.43-1.93,9.11,9.11,0,0,0,.16-4.55c-.38-2.07-.9-4-1.27-5.29a18.11,18.11,0,0,0-.89-2.6h0l-1.7-2.52C49.67,24,49,23,48.89,22.87c-.23-.31-2.49-2.78-2.73-3a41.75,41.75,0,0,1-2.69-5.5c-.21-1-.25-6.34-.24-6.8a9.08,9.08,0,0,1,.4-2.2l.15-.3h0L44,5h.16a1.63,1.63,0,0,1,1.23.38c.56.44,1.18.88,1.78,1.3s1.18.84,1.72,1.26a28.86,28.86,0,0,1,3.86,4.18,19.34,19.34,0,0,0,1.74,2.18c.39.45.92,1.07,1,1.26a10.73,10.73,0,0,0,1.74,2c.38.4.89,1,1,1.1.17.35.78,2.27,1.28,4h0L59,22.29l-.15.18a10.45,10.45,0,0,0-1.74,2.88L57,25.9A10.71,10.71,0,0,0,56.47,31c.22,1,.32,1.9.41,2.62.1.94.16,1.34.35,1.54a19.62,19.62,0,0,1,.9,4,50.43,50.43,0,0,1,.17,6.73,32.64,32.64,0,0,1-1.43,5.93c-.13.3-.27.65-.4,1-.23.61-.63,1.63-.91,1.7a1.76,1.76,0,0,1-1.24-.05c-.19-.12-1.27-1-2-1.67a14.73,14.73,0,0,0-1.41-1.16c-.13-.09-2.65-2.71-3-3.14s-3.62-4.32-4.08-4.65-3.62-2-4.65-2h-.32a11.13,11.13,0,0,0-2,0,3.53,3.53,0,0,0-2.25,1,15.26,15.26,0,0,0-2.42,4.17,19.47,19.47,0,0,0-.68,3.23,33.82,33.82,0,0,1-1,3.83c-.13.28-.67,1.69-.78,1.89a7.41,7.41,0,0,1-.89.56Z"/>
      <path class="cls-2" d="M62.54,68.15a58.5,58.5,0,0,1-3.38,5.29c-.13.14-.38.45-.73.88-.61.76-1.53,1.92-2.39,2.91a12.66,12.66,0,0,1-1.8,1.86,2.62,2.62,0,0,0-1,.36c-.17-.39-.32-.41-.42-.42a4.33,4.33,0,0,0-.72,0,34.28,34.28,0,0,0-3.9.85L47,80.44c-.84.35-1.87.8-2.33,1l-.13.06a20.9,20.9,0,0,1-3.22,1.31,30.14,30.14,0,0,1-4.3,1H34c-1-.07-1.1-.25-1.11-.26a.61.61,0,0,1-.07-.1c-.36-.48-.46-.61-.09-1,.18-.19.42-.49.7-.84.62-.75,1.46-1.77,2-2.28a25.88,25.88,0,0,0,1.93-2c.14-.18.69-1,.85-1.2a4.41,4.41,0,0,0,.78-.89c.09-.14.21-.3.39-.54a5.44,5.44,0,0,0,.7-1.3c0-.13.12-.28.2-.46a6.44,6.44,0,0,0,.57-1,4.1,4.1,0,0,1,.14-.5c.38-1.3.72-2.62.28-3.19a5.69,5.69,0,0,0-2.61-1.51,18.34,18.34,0,0,0-3.46-.39H35a21.86,21.86,0,0,1-2.78-.09l-.43-.09a10.41,10.41,0,0,1-3-.85c-.39-.35-.17-1.56,0-1.8a.42.42,0,0,0,.09-.14h0l.28.15a2.42,2.42,0,0,0,1.83.35h.2a31.87,31.87,0,0,0,3.35-.63c.53-.15,3.88-1.83,4.26-2a10.29,10.29,0,0,1,2.53-.78h.23a3.68,3.68,0,0,1,.75.2l.65.18a2.73,2.73,0,0,1,1.25.5,4.43,4.43,0,0,1,1.11,2.94,36.15,36.15,0,0,1-1.45,6.42,29.7,29.7,0,0,0-1.12,3.58c-1,3.53-.8,3.88-.74,4,.2.41.71,1.35,1.31,1.27h.06c.27-.07,5.23-1.73,5.61-2l.53-.4a61.15,61.15,0,0,0,5.08-4c.07-.1.73-.83,1.3-1.49,1.18-1.34,2-2.22,2.08-2.42a43.75,43.75,0,0,1,3.94-4c.16-.06.5-.24.93-.46s.73-.38,1.11-.56c-.17.46-.39,1-.58,1.53A22.76,22.76,0,0,0,62.54,68.15Z"/>
      <path class="cls-2" d="M14,18.07c4,1.93,7.75,3.3,8.5,4.12,1.38,1.48,1.14,1.69,1.36,3.5.31,2.51-7.45,3-13.48,8.11A49.63,49.63,0,0,1,6,37.13a28.47,28.47,0,0,0-6,5.7V8.07a15.11,15.11,0,0,0,2.76,4C4.23,13.37,9,15.65,14,18.07Z"/>
      <path class="cls-2" d="M30.7,57c.17-.4,1.5-3.69,1.75-4.53a12.59,12.59,0,0,0,.25-1.93,12.18,12.18,0,0,1,.34-2.4c.08-.22.17-.51.27-.84a8.5,8.5,0,0,1,1.17-2.69l.28-.29A3.75,3.75,0,0,1,36.59,43h.23l.79.08a12.16,12.16,0,0,1,3.12.49,18.06,18.06,0,0,1,2.85,1.89c.16.19.61.64,1.14,1.16.68.69,1.54,1.54,1.78,1.86.43.57,1.54,1.91,2,2.45.2.24.62.69,1.06,1.15s1.1,1.19,1.4,1.54a9.78,9.78,0,0,0,2.55,2.29,4.22,4.22,0,0,0,2,.73.62.62,0,0,0,.23-.07h.17c.31,0,.54-.24.94-.82.69-1,2.41-6.67,2.62-7.8a38.9,38.9,0,0,0,.44-6v-.2a23.51,23.51,0,0,0-.88-5.4,27.69,27.69,0,0,1-1.35-4.89,30.43,30.43,0,0,1,0-3.82,24.51,24.51,0,0,1,1.46-3.79c.3-.45.58-.85.58-.85l.05-.07V23l.47.09a13.2,13.2,0,0,1,1.41.35A7.21,7.21,0,0,1,63.17,25a14.41,14.41,0,0,1,2.16,4.61c.18.82.54,1.94.85,2.94.23.73.5,1.56.53,1.8a59.38,59.38,0,0,0,1,6.31,2.43,2.43,0,0,1-.26,1.65l-.58,1,.35.06-.31.28-.71.48a8.55,8.55,0,0,0-1,.7l-.28.24a10.82,10.82,0,0,0-1.47,1.4l-.21.28A22.24,22.24,0,0,0,61.73,49a38.66,38.66,0,0,0-1.37,4.84c-.18.7-.33,1.31-.37,1.42s-.26.77-.47,1.46c-.29.9-.65,2-.73,2.23s-.44.87-.75,1.47-.6,1.15-.69,1.36c-.17.38-1.41,2.57-1.56,2.8a20.39,20.39,0,0,1-3.09,3h0a5.89,5.89,0,0,1-1,.34h0A48.66,48.66,0,0,1,50,63.05c-.07-.41-.41-1.65-.75-2.86-.26-.94-.55-2-.57-2.18C48.57,57.54,47,52.72,46,52c-1.51-1.11-2.63-1.66-3.44-1.66h-.35a6.44,6.44,0,0,0-2.35.69h0l-.5.36a14.2,14.2,0,0,0-2.78,2.22A51.49,51.49,0,0,1,32.9,58a3.92,3.92,0,0,1-1.51,1h-.11s-.28-.19-.42-.28-.64-.4-.66-.57a1.38,1.38,0,0,1,.25-.7C30.54,57.29,30.62,57.14,30.7,57Z"/>
      <path class="cls-2" d="M111.14,116.05l-1.24,1.24H1.26L0,116.05V80.4l.15.21c.31.41,2.14,2.63,3,3.51a8.58,8.58,0,0,0,2.67,1.54,15.37,15.37,0,0,0,2.6,2.09c.44.23,1.09.54,1.79.85s1.59.74,1.91.93c.61.36,4.42,2,5.68,2a6,6,0,0,0,.73,0l.45-.07h.27a.86.86,0,0,1,.32,0,.56.56,0,0,1,.2.11,2.67,2.67,0,0,0,1.54.52,8.43,8.43,0,0,1,1,.2,14,14,0,0,0,3.76.42,49.34,49.34,0,0,0,6.54-.46l.82-.1.83-.1a10.26,10.26,0,0,0,4-1l1.16-.69c.52-.19,4-1.51,5.26-1.9a16.85,16.85,0,0,0,4.93-3,23.72,23.72,0,0,0,3.82-4l.13-.17a1.38,1.38,0,0,1,.91-.53c.65-.08,1.55-.87,5.14-5.33l.68-.84c.36-.41,1.33-1.89,2.06-3,1.52-2.4,1.66-2.79,1.69-3s.48-1.34.79-2.13a18.81,18.81,0,0,0,.92-2.61,2.71,2.71,0,0,1,.33-.68l45,45Z"/>
      <path class="cls-2" d="M37.61.93A26.43,26.43,0,0,1,41.2,3.05c.35.32,1.21,1.24,1.51,1.56l.1.1a13,13,0,0,0-.49,2.47,11.47,11.47,0,0,1-.07,1.36,18.41,18.41,0,0,0-.06,2.78,9.73,9.73,0,0,1,0,1.08,7.07,7.07,0,0,0,.19,2.1l.07.17c1.37,3.7,2.41,5.89,3.08,6.51a21.67,21.67,0,0,1,2.49,3c.1.17.35.49.65.91a28.6,28.6,0,0,1,1.66,2.38c.18.38.79,2,1.15,2.86l.28.71c.18.44.88,3.21,1,3.7a37.37,37.37,0,0,1,.15,4.32c0,.1,0,.21-.07.31-.24,1.16-.44,1.3-.52,1.32a18.19,18.19,0,0,1-5.44-.7c-3.25-1-8.92-2.75-9.61-3a32.73,32.73,0,0,0-6.8-1.33h-.3a6.5,6.5,0,0,0-3,1.13h-.06c-.65.55-2.36,2-2.44,3.34a14.89,14.89,0,0,0,.22,4.16c.09.21.32.9.57,1.62s.56,1.63.9,2.42a22.63,22.63,0,0,1,.9,3.22,8.54,8.54,0,0,1,0,1.43c0,.76-.21,1-.25,1a1.69,1.69,0,0,1-1.32-.32,6.64,6.64,0,0,1-.6-1.49,7.42,7.42,0,0,0-.53-1.38c-.21-.33-1.22-1.41-2.52-2.8-.58-.6-1.07-1.13-1.27-1.35a10.17,10.17,0,0,0-1.05-.92c-1.09-.87-2.73-2.18-3-3.11-.4-1.52-.7-3.12.22-4.4a15.08,15.08,0,0,1,4.2-3.29,59.68,59.68,0,0,1,6.81-2c.6-.07,6.65-.38,7.1-.4.28,0,3.76-.27,6.23-.58a7,7,0,0,0,2.52-.5c.7-.44,2-1.58,1.7-2.69,0-.06-1.34-5.61-4.76-8.71-2.18-2-5.07-4.33-6.63-5.6a13.87,13.87,0,0,1-1.18-1c-.34-.34-5.15-5.27-5.65-6-.14-.21-.38-.53-.66-.9a12.75,12.75,0,0,1-1.92-3,8.46,8.46,0,0,0-.1-.93c-.07-.63-.14-1.3-.14-1.8A4.88,4.88,0,0,0,24.39,0H35.24A20.66,20.66,0,0,1,37.61.93Z"/>
      <path class="cls-2" d="M.72,61.1a1.29,1.29,0,0,1,.17-.34c.27-.56.78-1.61,1-1.94A5.22,5.22,0,0,0,2.3,58a7,7,0,0,1,1.09-2c.22-.23.4-.44.56-.62a4.67,4.67,0,0,1,1.08-1,5.58,5.58,0,0,1,1.65-.79h.2a2.26,2.26,0,0,0,.52,0c.26,0,.33,0,.48.25s.13.22.18.33a2.81,2.81,0,0,1,.48,1.43V56.8a9.72,9.72,0,0,0,.06,1.35,3.21,3.21,0,0,1,0,.76,7,7,0,0,0,0,1.45v.06a9.15,9.15,0,0,0,.43,2l.13.29a3.25,3.25,0,0,0,1,1.52l.13.09a3.45,3.45,0,0,0,2,.79h.11a7,7,0,0,0,1.33-.55,2,2,0,0,0,.41-.22,5.13,5.13,0,0,0,.79-.52c.15-.13.47-.44.84-.79S16.88,62,17.1,61.79l.16-.13a6.43,6.43,0,0,1,1.28-.84h0l.11.85a2.64,2.64,0,0,1-.06.79.86.86,0,0,0,0,.39c0,.12,0,.12-.07.18a3.25,3.25,0,0,0-.78.91,5,5,0,0,0-.45.89l-.16.36c-.11.22-.21.46-.32.74s-.16.4-.26.63a4.61,4.61,0,0,0-.2.63c-.06.23-.13.45-.21.67a6.13,6.13,0,0,0-.29.92v.12l-.09.14a2.39,2.39,0,0,1-1.3,1.18,2.4,2.4,0,0,0-.78.31h-.21l-.29-.06A3.18,3.18,0,0,1,11,69.15,26.78,26.78,0,0,1,8.5,64.74a22.09,22.09,0,0,0-2.19-3.23L6,61.29c-.42-.56-.85-1.14-1.33-1.07H4.19A1.89,1.89,0,0,0,3,61a9.19,9.19,0,0,0-1.45,2.28A10.75,10.75,0,0,0,1,65.79a17.26,17.26,0,0,0,0,2.69,6.35,6.35,0,0,0,.13,1,4.77,4.77,0,0,1,0,2.19,1.49,1.49,0,0,0-.05,1H1l-.14.1a3.43,3.43,0,0,0-.64.56,2.18,2.18,0,0,1-.22.31V62.14A10.41,10.41,0,0,0,.72,61.1Z"/>
      <path class="cls-2" d="M.17,45.29a36.08,36.08,0,0,1,2.94-4A5.29,5.29,0,0,0,4,40.41a1.8,1.8,0,0,0,.2-.19.75.75,0,0,1,.54.27,4.16,4.16,0,0,0-.4,2.64A9.09,9.09,0,0,0,5,44.85H5c.09.18.19.35.29.51s0,.09,0,.14c-1.21-.26-1.08.33-1.72.6S1.89,49.1,1,50a12,12,0,0,1-1,.89V45.49A.48.48,0,0,0,.17,45.29Z"/>
      <path class="cls-2" d="M2,73.11a12.78,12.78,0,0,0,.21-4A13.67,13.67,0,0,1,2,66v-.13a3.76,3.76,0,0,1,.8-2.27,8.11,8.11,0,0,0,.69-1,2.55,2.55,0,0,1,.7-.84h.15a2,2,0,0,1,1.31.84,9.45,9.45,0,0,0,.83,1.06,7.19,7.19,0,0,1,.66.8,7.61,7.61,0,0,1,.74,1.34c.1.19.19.39.3.6l.37.74c.22.44.42.85.63,1.19h0a5.27,5.27,0,0,0,1.09,1.43A5.75,5.75,0,0,0,12.17,71h0a3.84,3.84,0,0,0,1.54.26,1.07,1.07,0,0,0,.39-.1c.07,0,1.73-.75,2-1.29.12-.23.4-.94.77-1.91.14-.39.28-.75.35-.94s.13-.32.2-.54a6,6,0,0,1,.85-1.81l.23-.27c.22-.27.4-.47.5-.49h.07a1.14,1.14,0,0,0,.45,0,.86.86,0,0,1,.32,0V64a9.74,9.74,0,0,1-.18,1.32,10.52,10.52,0,0,0-.14,1.11,6,6,0,0,1-.07.67,9.66,9.66,0,0,0,0,2.52c.06.24.17.86.37,2.42v.15a2.56,2.56,0,0,1,0,1.23l-.13.34a2.26,2.26,0,0,1-.38.74,4.24,4.24,0,0,1-1.07.71,2,2,0,0,1-.35.07,4.2,4.2,0,0,1-1.76-.17,7.91,7.91,0,0,1-2.46-1.28,23,23,0,0,0-2.17-1.48l-.73-.47c-.65-.43-1.83-1.09-2.61-1.53l-.32-.09a5.22,5.22,0,0,1-.54-.38,2,2,0,0,0-1.44-.62H5.65l-.39.11c-.44.1-.6.18-.82.72a1.29,1.29,0,0,1-.17.33,1,1,0,0,0-.19.64,16,16,0,0,0,.17,2.85,3.59,3.59,0,0,1,.08.35A9.93,9.93,0,0,0,5,76.43a9.37,9.37,0,0,1,.38.86,14,14,0,0,0,1,1.92,13.67,13.67,0,0,1,.82,1.31c.17.29.33.58.47.8a2.78,2.78,0,0,1,.62,1.45A3.1,3.1,0,0,1,8,84.18a2.44,2.44,0,0,0-.44.19,4.87,4.87,0,0,1-.53.21H7l-.18-.18-.12-.11-.17-.06A7.22,7.22,0,0,1,4.32,83c-.77-.77-2.55-2.9-2.87-3.34s-.89-1.21-1.42-2V74.77A2.35,2.35,0,0,0,2,73.11Z"/>
      <path class="cls-2" d="M19.87,55.47l-.59-.14L18,55.22A4.21,4.21,0,0,1,17,55a8.5,8.5,0,0,0-1.26-1.49L16,52l.75-.88A19.59,19.59,0,0,1,20.46,53l1,1.69a1.67,1.67,0,0,0,.28.46l.32.58-.35.42Z"/>
      <path class="cls-2" d="M4.11,47.42c.5-.75,2.44-.29,2.44-.29A17.19,17.19,0,0,0,9.49,49a39.64,39.64,0,0,0,3.82,1.4l-1.49,3.19h0c-.07.24-.37,1.44-.39,1.63v.12a4.32,4.32,0,0,0-.09,1.52l.08.25A3.83,3.83,0,0,0,12,58.48a.75.75,0,0,1,.15.16,1.72,1.72,0,0,0,.6.47.49.49,0,0,1,.18.14.85.85,0,0,0,.79.23,11.21,11.21,0,0,0,1.47-.16c.53-.1,1-.23,1.57-.38l.35-.1h.18a3.53,3.53,0,0,1,.54-.13.58.58,0,0,1,.32,0,.66.66,0,0,0,.28,0l.2.37c.1.18.1.18.1.3a.25.25,0,0,1-.07.2h0l-.8.58a6.29,6.29,0,0,0-.93.7c-.07.09-.86.84-1.2,1.12s-.76.67-1.16,1a3.68,3.68,0,0,0-.32.37,1.88,1.88,0,0,1-.34.35l-.32.17h-.06a5.8,5.8,0,0,1-.92.2,2,2,0,0,1-.69,0,3.87,3.87,0,0,1-1.58-1.25,16.12,16.12,0,0,1-.58-2.76V58.83a14,14,0,0,0,0-1.83c0-.13-.09-.72-.16-1.35-.11-.94-.23-2-.29-2.35S8.85,51.87,8,51.76a2.22,2.22,0,0,0-.63,0,3.34,3.34,0,0,0-1.56.53,10.36,10.36,0,0,0-1.91,1.58,32.54,32.54,0,0,0-2,3c-.08.29-1.4,2.8-1.48,3L0,60.49V52.35C1.26,51,3.7,48,4.11,47.42Z"/>
      <path class="cls-2" d="M1.26,0H22.82a2.14,2.14,0,0,1,.49.46,9.6,9.6,0,0,1,.33,2c.06.47,1.26,4.67,2.42,6l.65.74a72.16,72.16,0,0,0,5.6,6h0A36.68,36.68,0,0,1,36,17.78c.34.31.71.63,1.09,1a16.27,16.27,0,0,1,2.17,2.06,28.38,28.38,0,0,1,3.58,5.67c.44,1.34.4,2.46-.09,2.77A88.61,88.61,0,0,1,34,31.57H32.77c-1.9,0-5.45.07-6.6.21h-.26c-.06,0-6.22,1.45-7.7,2.86l-.28.28c-1.29,1.21-3.24,3-3,5.12a7.2,7.2,0,0,0,2.73,5.33,50.82,50.82,0,0,1,4.89,4.5,11.72,11.72,0,0,1,1,1.52c.49.85.42,1.1.41,1.12a1.43,1.43,0,0,1-.75.39,10,10,0,0,0-3.3-2.36,30.59,30.59,0,0,0-3.67-1.48l-.62-.22c-.31-.12-.73-.3-1.21-.51L14.33,48l-.06.25-1.16-.51c-1.22-.54-2.48-1.09-3.32-1.42-1-.38-2.93-1.58-3.4-5.36-.15-1.21,2-3.09,4.94-5.22a39.14,39.14,0,0,1,6.86-4c4-1.61,6.74-2.9,8.35-3.71l.93-.48h.08a1.38,1.38,0,0,0,.82-.46c3.11-1.71,4.78-3.07,5.08-4.16.61-2.26-1.34-3.44-3.05-4.48a14.63,14.63,0,0,1-1.69-1.13C27,16,21,13.36,18.79,12.41l-.65-.28A52.53,52.53,0,0,0,9.7,10.64H9.53L9,10.52A21.24,21.24,0,0,1,5,8.69c-.58-.31-1.13-.61-1.64-.85C2.49,6.94,1.71,6,1.09,5.19.9,4.83.72,4.43.54,4S.2,3.16.06,2.76V1.2Z"/>
      <path class="cls-2" d="M24.54,68.16a2.25,2.25,0,0,0,.8.85,6.8,6.8,0,0,1,.7.61c.57.6,1.71,1.73,2.34,2.36a5,5,0,0,0,.42.37,2.64,2.64,0,0,1,.87,1.19,5.42,5.42,0,0,0,.54.89c.25.33.37.49.36,1.51v.81c0,1,0,1.2-.6,1.72a6.86,6.86,0,0,1-2.26,1.09l-.29.09c-.71.25-1.43.46-2.16.64l-1.12.24c-.51.1-.95.19-1.22.27A28.8,28.8,0,0,0,20.1,82c-.55.28-1.21,1-1,1.45A3.63,3.63,0,0,0,20,84.77l.49.39a8.28,8.28,0,0,0,1.35,1l.32.14c.53.24,1.33.6,1.73.73l.27.09a11.38,11.38,0,0,0,2.29.61c.71.06,2.15.1,3,.12h.43l.85.05a12.13,12.13,0,0,0,2,0h.54a4.73,4.73,0,0,1,1.76,0l.54.13a4.2,4.2,0,0,1,1.43.41,7,7,0,0,1,1,.8l-.5.29a9.69,9.69,0,0,1-3.35.82l-.82.1-.83.09a46.68,46.68,0,0,1-6.36.46,12.92,12.92,0,0,1-3.39-.38,7.63,7.63,0,0,0-1.25-.23c-.53,0-.62-.12-.74-.21a1.27,1.27,0,0,0-.27-.18,3.85,3.85,0,0,0,.14-2.1A7.27,7.27,0,0,0,18.73,86a22.17,22.17,0,0,1-2.9-1.62L15.36,84c-.73-.57-2.69-2.06-2.87-2.64a6.65,6.65,0,0,0-.28-.69c-.28-.63-.57-1.28-.27-1.79a1.57,1.57,0,0,1,1.43-.86,14.26,14.26,0,0,1,3.06.24A37.69,37.69,0,0,0,22,79h0c.71-.11,3.33-1.07,3.72-2.87a6.44,6.44,0,0,0-.48-3.94c-.29-.62-.77-1.58-.86-1.73l-.12-.18a10.75,10.75,0,0,1-1.36-2.49c-.05-.25-.12-.53-.2-.81s-.19-.75-.23-1a2.8,2.8,0,0,1,1.23.55,10.15,10.15,0,0,1,.78,1.67Z"/>
      <path class="cls-2" d="M20.54,69.46a1.36,1.36,0,0,0-.06-.45,10.32,10.32,0,0,1-.15-1.35,4.69,4.69,0,0,0,0-.53,4.13,4.13,0,0,1,.24-1.84l.17-.15L20.9,65a.88.88,0,0,1,.35.17c.19.11.33.17.42.22h.06v.2a2.41,2.41,0,0,1,0,.38,5.34,5.34,0,0,0,.17,1.19c.06.25.1.45.13.62a2.48,2.48,0,0,0,.57,1.35,12.7,12.7,0,0,1,.76,1.15,5.58,5.58,0,0,0,.49.77,3.63,3.63,0,0,1,.6,1.4,2.7,2.7,0,0,0,.18.57,4.35,4.35,0,0,1,.4,1.36v.28a4,4,0,0,1-.3,1.68,3.13,3.13,0,0,1-1.25,1.17l-.29.16a2.26,2.26,0,0,1-.87.34H22a25.51,25.51,0,0,1-3.81-.28c-.51-.09-1.07-.16-1.6-.24A14.3,14.3,0,0,0,15,77.29h-.19a7.13,7.13,0,0,0-2.68-.22l-.45.06h-.52a2.28,2.28,0,0,0-1.16.35c-.81.62.32,2.75.37,2.84a9.43,9.43,0,0,0,1.54,2.16l.46.46a10.6,10.6,0,0,0,1.73,1.55L15,85c.67.45,1.36.88,2.07,1.26a10.33,10.33,0,0,1,1.58.83,4.69,4.69,0,0,1,1,1.13,2.92,2.92,0,0,1,.16.78,1.43,1.43,0,0,1-.06.71h0a2.43,2.43,0,0,0-.66,0l-.34.06-.37,0a4.69,4.69,0,0,1-.53,0A23.2,23.2,0,0,1,13,88.17c-.39-.23-1.2-.61-2.06-1-.65-.3-1.32-.61-1.72-.82a10.47,10.47,0,0,1-1.5-1.15A2.28,2.28,0,0,0,8.26,85h0a2.1,2.1,0,0,0,.9-2.45A13.24,13.24,0,0,0,8,79.78c0-.09-.08-.16-.12-.24-.14-.29-.44-.77-.76-1.28a15.87,15.87,0,0,1-.89-1.54,14,14,0,0,1-1.06-4.5c.18-1.19.44-1.35.69-1.42l.31-.07a1.75,1.75,0,0,1,1,.21,16.4,16.4,0,0,1,2.28,1.18c.4.31,2.11,1.45,2.58,1.74l.27.16a16.76,16.76,0,0,1,1.54,1,11.78,11.78,0,0,0,2.27,1h.1a3,3,0,0,0,1.49.27A5,5,0,0,0,18.94,76a3.12,3.12,0,0,0,2-2.86C20.93,72.66,20.68,70.63,20.54,69.46Z"/>
      <path class="cls-2" d="M14.73,53.13a2,2,0,0,0,.65,1.56c1.65,1.6,2.7,1.6,3.36,1.6a1,1,0,0,1,.43,0,3,3,0,0,0,.71.19.7.7,0,0,1,.4.12h0a3.16,3.16,0,0,1-.51,1l-.62.07c-.15,0-1.33,0-2.19.15s-.95.2-1.06.34a8.27,8.27,0,0,1-2.09.43,3.73,3.73,0,0,1-1.57-1.08.43.43,0,0,1-.08-.29,12.55,12.55,0,0,0,.26-1.49,8.73,8.73,0,0,1,.28-1.44l.45-1c.29-.62.64-1.38.94-2.09.11-.24.19-.44.27-.63h0c.11-.23.7,0,1.72.38A3.63,3.63,0,0,0,14.73,53.13Z"/>
      <path class="cls-2" d="M64.84,61.73l.12.12-.16.31a11.62,11.62,0,0,0-.53,1.13c-.3.1-.56.18-.63.19a9.73,9.73,0,0,0-4,2.69A16.26,16.26,0,0,1,57,68.93h0c-1.21,1.46-2.59,3.09-2.8,3.28a6.75,6.75,0,0,0-.59.47c-1.19,1-4,3.33-5.59,3.92-.8.29-1.47.56-2,.77a8.05,8.05,0,0,1-1.65.57h-.1c-.46,0-.89-.53-1-1a54.83,54.83,0,0,1,1.4-5.79h0c0-.06,2.69-6.68,1.76-8.43-1.07-2-1.94-3-2.83-3.19a7.43,7.43,0,0,0-2.49,0,30.43,30.43,0,0,0-3.21,1.11c-1.26.47-2.81,1-3.09,1.09s-.49.09-.88.18c-.62.14-1.44.34-2.11.42a3.14,3.14,0,0,1-1,0c-.2-.17-.43-.32-.64-.47a3,3,0,0,1-.66-.51,8.09,8.09,0,0,1,.71-1.41,2.39,2.39,0,0,1,.62.06l.6.06h.1a6.76,6.76,0,0,0,1.81-.6,13.7,13.7,0,0,0,1.36-1.6c1.11-1.34,2.88-3.44,3.14-3.65a5.9,5.9,0,0,0,.86-.71c.31-.27.65-.58,1-.86a5.3,5.3,0,0,1,2.59-.81,2.92,2.92,0,0,1,1.84.6,5.23,5.23,0,0,1,1.85,2l.09.21a13.54,13.54,0,0,1,1.07,2.82,8.38,8.38,0,0,0,.25,1.33c.1.5.25,1.14.32,1.65a12.43,12.43,0,0,0,.74,3c.16.37.53,1.85.79,2.92.17.67.3,1.2.36,1.39s0,.17.09.3c.18.69.49,1.86,1.33,1.75h0a1.48,1.48,0,0,1,.42,0,2.08,2.08,0,0,0,.61,0,3.32,3.32,0,0,0,1.93-1c1.52-1.54,4.9-5.51,5.72-8,.38-1.13,1.08-3.29,1.68-5.25,1.11-3.59,1.09-3.8,1.07-3.91a14.8,14.8,0,0,1,.81-2.76,24.64,24.64,0,0,1,2-2.84,18.64,18.64,0,0,1,1.77-1.42c.48-.36.72-.54.8-.62a1,1,0,0,0,.15-.25v1.36c0,.52-.31,3.85-.51,5.84-.1,1-.17,1.77-.2,2.12l-2.48,2.48Z"/>
      <path class="cls-2" d="M27.75,66.15l.47.1a3.44,3.44,0,0,1,.79.18h.09a15.61,15.61,0,0,0,1.76.44,28.22,28.22,0,0,0,3.17.49,3.21,3.21,0,0,0,.62,0q.3,0,.6-.12a1.31,1.31,0,0,1,.65-.07l.54.07a7.45,7.45,0,0,1,2.09.46,4.07,4.07,0,0,0,.58.22c.35.1.48.14.73.74a5.06,5.06,0,0,0,.38.73c.18.31.22.38.08,1-.08.38-.14.69-.18,1a4.63,4.63,0,0,1-.37,1.32h0C39,73.74,38,75.29,37.68,75.77l-.07.07c-.4.36-.68.66-.92.92a6.6,6.6,0,0,1-.69.71c-.4.36-.81.78-1.27,1.27l-.7.78-.47.49a3.47,3.47,0,0,1-.73.65,5.55,5.55,0,0,0-1.63,1.78,4,4,0,0,1-.26.45,1.5,1.5,0,0,0-.28.6.67.67,0,0,0,.37.67l.32.22A3,3,0,0,0,33,85.1l.69.06a19.26,19.26,0,0,0,3.31.13h.28L38.75,85c.58-.14,1.13-.28,1.49-.33a17.43,17.43,0,0,0,3.17-1A12.47,12.47,0,0,0,44.6,83,14.79,14.79,0,0,1,46,82.22a15.38,15.38,0,0,0,1.55-.83,12.07,12.07,0,0,1,1.37-.74c.45-.12,2-.43,2.44-.52h.12l.3-.07a7.91,7.91,0,0,1,.81-.19h.1V80a1.45,1.45,0,0,0-.21.22l-.2.24a21.63,21.63,0,0,1-3.52,3.76,15.29,15.29,0,0,1-4.46,2.7c-1.19.38-4.38,1.57-5.2,1.88l-.16-.15v0a12.26,12.26,0,0,0-2.3-1.46,15.16,15.16,0,0,0-3-.34c-.62,0-3.28-.14-3.89-.18S27,86.21,26,86a15.88,15.88,0,0,1-2.91-1l-.25-.13a3.78,3.78,0,0,1-1.5-1.12A3.36,3.36,0,0,0,21,83.2a.64.64,0,0,0-.1-.13h0a12.12,12.12,0,0,1,2.39-1.39l.67-.17a21.48,21.48,0,0,0,2.72-.75c.14-.06.47-.16.84-.27,1.89-.59,3.6-1.19,3.8-2.1A11,11,0,0,0,31.35,75c-.11-.37-.74-1.71-.81-1.87h0c-.24-.27-1.46-1.61-1.63-1.77s-3-2.79-3.26-3a8.11,8.11,0,0,1-1.1-1.74,6,6,0,0,1,1.11-.26,1.34,1.34,0,0,1,.4,0l.07.12h.56A4.79,4.79,0,0,1,27.75,66.15Z"/>
      <path class="cls-2" d="M69.61,45.05v-.7a10.65,10.65,0,0,0,0-1.13,1.51,1.51,0,0,0-.42-1,3.77,3.77,0,0,0,0-2,56.84,56.84,0,0,1-.93-6.08,18.92,18.92,0,0,0-.59-2.08c-.31-1-.65-2.05-.81-2.79A16,16,0,0,0,64.35,24,7.89,7.89,0,0,0,62.27,22,8.08,8.08,0,0,0,61,21.69a25.77,25.77,0,0,0-1.34-3.91,13.3,13.3,0,0,0-1.17-1.32c-.49-.52-1.29-1.38-1.46-1.63a10.24,10.24,0,0,0-1.29-1.64,21.76,21.76,0,0,1-1.55-1.9,29,29,0,0,0-4.27-4.65c-.56-.44-1.18-.88-1.78-1.3S47,4.5,46.41,4.09A3.19,3.19,0,0,0,44,3.38h-.3C43.4,3,42.64,2.23,42.27,1.9a21.23,21.23,0,0,0-3-1.88H109.9l1.24,1.23v8l-42.06,42a.81.81,0,0,1,0-.22C69.4,48,69.63,45.63,69.61,45.05Z"/>
      <path class="cls-3" d="M64.89,66.29c-.31.79-.73,1.87-.79,2.13s-.17.6-1.69,3c-.73,1.13-1.7,2.61-2.06,3l-.68.87c-3.59,4.46-4.49,5.25-5.14,5.33a1.38,1.38,0,0,0-.91.53l-.13.14a23.72,23.72,0,0,1-3.82,4,16.85,16.85,0,0,1-4.93,3c-1.22.39-4.74,1.71-5.26,1.9l-1.16.69a10.26,10.26,0,0,1-4,1l-.83.1-.82.1a49.34,49.34,0,0,1-6.54.46,14,14,0,0,1-3.76-.42,8.43,8.43,0,0,0-1-.2,2.67,2.67,0,0,1-1.54-.52.56.56,0,0,0-.2-.11.86.86,0,0,0-.32,0H19l-.45.07a6,6,0,0,1-.73,0c-1.26,0-5.07-1.63-5.68-2-.32-.19-1.16-.58-1.91-.93s-1.35-.62-1.79-.85a15.37,15.37,0,0,1-2.6-2.09A8.58,8.58,0,0,1,3.21,84c-.88-.88-2.71-3.1-3-3.51L0,80.4V77.66c.53.79,1.14,1.63,1.42,2S3.55,82.23,4.32,83a7.22,7.22,0,0,0,2.24,1.23l.17.06.13.12.17.18H7a4.87,4.87,0,0,0,.53-.21A2.44,2.44,0,0,1,8,84.19a3.23,3.23,0,0,0,.29-1.4,2.84,2.84,0,0,0-.56-1.5c-.14-.22-.3-.51-.47-.8a13.67,13.67,0,0,0-.82-1.31,14,14,0,0,1-1-1.92A8.79,8.79,0,0,0,5,76.39a10.3,10.3,0,0,1-.68-2.1c0-.11,0-.21-.08-.32a16,16,0,0,1-.17-2.85,1,1,0,0,1,.19-.64,1.29,1.29,0,0,0,.17-.33c.22-.54.38-.62.82-.72l.39-.11h.21a2,2,0,0,1,1.44.62,5,5,0,0,0,.54.35l.46.27c.78.44,2,1.1,2.61,1.53l.73.47A23,23,0,0,1,13.81,74a7.83,7.83,0,0,0,2.46,1.25,4.21,4.21,0,0,0,1.76.18,2,2,0,0,0,.35-.07,4.24,4.24,0,0,0,1.07-.71,2.26,2.26,0,0,0,.38-.74l.13-.34a2.56,2.56,0,0,0,0-1.23v-.15c-.2-1.56-.31-2.18-.37-2.42a9.66,9.66,0,0,1,0-2.52,2.35,2.35,0,0,1,.07-.67,10.52,10.52,0,0,1,.14-1.11A9.74,9.74,0,0,0,20,64.19V64.1a.86.86,0,0,0-.32,0,1.14,1.14,0,0,1-.45,0h-.07c-.1,0-.28.22-.5.49l-.23.27a6,6,0,0,0-.85,1.81c-.07.22-.14.4-.2.54s-.21.55-.35.94c-.37,1-.65,1.68-.77,1.91-.31.54-2,1.26-2,1.29a1.07,1.07,0,0,1-.39.1,3.84,3.84,0,0,1-1.54-.26h0a5.75,5.75,0,0,1-1.87-1.29,5.27,5.27,0,0,1-1.09-1.43h0c-.21-.34-.41-.75-.63-1.19-.12-.24-.24-.5-.37-.74s-.2-.41-.3-.6a7.61,7.61,0,0,0-.74-1.34,7.19,7.19,0,0,0-.66-.8,9.45,9.45,0,0,1-.83-1.06,2,2,0,0,0-1.31-.84H4.36c-.14,0-.49.54-.7.84s-.43.64-.69,1A3.7,3.7,0,0,0,2,65.85V66a13.9,13.9,0,0,0,.14,3.09,12.78,12.78,0,0,1-.21,4A2.37,2.37,0,0,1,0,74.77V73.64a3.19,3.19,0,0,0,.26-.26,3.43,3.43,0,0,1,.64-.56l.14-.1H1a1.49,1.49,0,0,1,.05-1,4.77,4.77,0,0,0,0-2.19c-.05-.32-.1-.65-.13-1a17.26,17.26,0,0,1,0-2.69,10.24,10.24,0,0,1,.63-2.55A9.19,9.19,0,0,1,3,61a1.82,1.82,0,0,1,1.2-.72h.51c.48-.07.91.51,1.33,1.07l.2.25a22.09,22.09,0,0,1,2.19,3.23A26.8,26.8,0,0,0,11,69.15a3.19,3.19,0,0,0,2.16,1.28l.29.06h.21a2.4,2.4,0,0,1,.78-.31A2.39,2.39,0,0,0,15.77,69l.09-.14v-.12a6.13,6.13,0,0,1,.29-.92c.08-.22.15-.44.21-.67a4.61,4.61,0,0,1,.2-.63c.1-.23.19-.44.26-.63s.21-.52.32-.74l.16-.36a5,5,0,0,1,.45-.89,3.25,3.25,0,0,1,.78-.91c.08-.06.08-.06.07-.18a.86.86,0,0,1,0-.39,2.64,2.64,0,0,0,.06-.79l-.11-.85h0a6.43,6.43,0,0,0-1.28.84l-.16.13c-.22.16-.84.76-1.33,1.24s-.69.66-.84.79a5.13,5.13,0,0,1-.79.52,2,2,0,0,1-.41.22,7,7,0,0,1-1.33.55H12.3a3.45,3.45,0,0,1-2-.79l-.13-.09a3.25,3.25,0,0,1-1-1.52L9,62.38a9.15,9.15,0,0,1-.43-2v-.06a7,7,0,0,1,0-1.45v-.76a13.19,13.19,0,0,0-.06-1.35,7.78,7.78,0,0,1,0-1.19A2.81,2.81,0,0,0,8,54.21c0-.11-.12-.21-.18-.33-.15-.27-.22-.27-.48-.25a2.26,2.26,0,0,1-.52,0,.67.67,0,0,0-.2,0A5.46,5.46,0,0,0,5,54.39a4.47,4.47,0,0,0-1.08,1c-.16.18-.34.39-.56.62A7,7,0,0,0,2.3,58a5.22,5.22,0,0,1-.41.86,20.07,20.07,0,0,0-1,1.94l-.17.34a9.86,9.86,0,0,1-.69,1V60.49l.42-.67c.08-.15,1.33-2.73,1.43-3s1.77-2.63,2.05-3a11.25,11.25,0,0,1,1.91-1.53,3.28,3.28,0,0,1,1.51-.54,2.22,2.22,0,0,1,.63,0c.87.11,1.18,1.34,1.26,1.71s.18,1.41.29,2.35c.07.63.14,1.22.16,1.35a14,14,0,0,1,0,1.83v1.23A16.12,16.12,0,0,0,10.27,63a3.87,3.87,0,0,0,1.58,1.25,2,2,0,0,0,.69,0,5.8,5.8,0,0,0,.92-.2h.06l.32-.17a1.88,1.88,0,0,0,.34-.35,3.68,3.68,0,0,1,.32-.37,12,12,0,0,1,1.16-1A8.59,8.59,0,0,0,16.86,61a6.29,6.29,0,0,1,.93-.7l.8-.58h0a.25.25,0,0,0,.07-.2c0-.12,0-.12-.1-.3l-.2-.37a.66.66,0,0,1-.28,0,.58.58,0,0,0-.32,0,3.53,3.53,0,0,0-.54.13H17l-.35.1c-.52.15-1,.28-1.57.38s-.9.11-1.47.16a.85.85,0,0,1-.79-.23.49.49,0,0,0-.18-.14,1.72,1.72,0,0,1-.6-.47.75.75,0,0,0-.15-.16,3.83,3.83,0,0,1-.56-1.41L11.29,57a4.37,4.37,0,0,1,.12-1.69v-.12a16.59,16.59,0,0,1,.39-1.63h0l1.49-3.19A39.64,39.64,0,0,1,9.47,49a17.19,17.19,0,0,1-2.94-1.83s-1.94-.46-2.44.29S1.26,51,0,52.35V50.9A12,12,0,0,0,1,50c.89-.92,1.91-3.59,2.6-3.89s.51-.86,1.72-.6v-.14s-.2-.33-.29-.51H5a9.09,9.09,0,0,1-.69-1.72,4.16,4.16,0,0,1,.4-2.64.75.75,0,0,0-.54-.27,1.8,1.8,0,0,1-.2.19,5.18,5.18,0,0,1-.89.86,36.08,36.08,0,0,0-2.94,4c-.05.06-.09.14-.14.2V42.81a28.47,28.47,0,0,1,6-5.7,49.63,49.63,0,0,0,4.32-3.33c6-5.08,13.79-5.6,13.48-8.11-.22-1.81,0-2-1.36-3.5C21.72,21.35,18,20,14,18.05c-5-2.42-9.74-4.7-11.18-6A15.11,15.11,0,0,1,0,8.05V2.78c.14.4.3.82.48,1.25s.36.82.55,1.18C1.68,6,2.46,7,3.28,7.86c.51.24,1.06.54,1.64.85a21.24,21.24,0,0,0,4,1.83l.58.12h.17a52.53,52.53,0,0,1,8.44,1.49l.65.28C21,13.43,27,16,28.68,17.38a14.63,14.63,0,0,0,1.69,1.13c1.71,1,3.66,2.22,3.05,4.48-.3,1.09-2,2.45-5.08,4.16a1.38,1.38,0,0,1-.82.46h-.08l-.93.48c-1.61.81-4.36,2.1-8.35,3.71a39.14,39.14,0,0,0-6.86,4c-2.92,2.13-5.09,4-4.94,5.22.47,3.78,2.37,5,3.4,5.36.84.33,2.1.88,3.32,1.42l1.19.49.11-.21.08.29c.48.21.9.39,1.21.51l.62.22A30.59,30.59,0,0,1,20,50.58a10,10,0,0,1,3.3,2.36,1.43,1.43,0,0,0,.75-.39s.08-.27-.41-1.12a11.72,11.72,0,0,0-1-1.52,50.82,50.82,0,0,0-4.89-4.5A7.2,7.2,0,0,1,15,40.08C14.7,38,16.65,36.17,18,35l.28-.28c1.48-1.41,7.64-2.84,7.7-2.86h.26c1.15-.14,4.7-.18,6.6-.21h1.26a86.85,86.85,0,0,0,8.72-2.34c.49-.31.53-1.43.09-2.77a28.38,28.38,0,0,0-3.58-5.67,16.27,16.27,0,0,0-2.17-2.06,12.92,12.92,0,0,1-1.09-1,35.88,35.88,0,0,0-3.66-2.57h0a72.16,72.16,0,0,1-5.6-6l-.65-.74C25,7.15,23.78,3,23.72,2.46a9.6,9.6,0,0,0-.33-2A2.14,2.14,0,0,0,22.9,0h1.67a4.88,4.88,0,0,1,.07.76c0,.5.07,1.17.14,1.8a8.29,8.29,0,0,0,.1.93A12.75,12.75,0,0,0,26.8,6.54c.28.37.52.69.66.9.5.76,5.31,5.69,5.65,6,.08.08.56.47,1.18,1,1.56,1.27,4.45,3.63,6.63,5.6,3.42,3.1,4.74,8.65,4.76,8.71.25,1.11-1,2.25-1.7,2.69a7,7,0,0,1-2.52.5c-2.47.31-6,.57-6.23.58-.45,0-6.5.33-7.1.4a59.68,59.68,0,0,0-6.81,2A15.07,15.07,0,0,0,17,38.24c-.92,1.28-.62,2.88-.22,4.4.25.93,1.89,2.24,3,3.11a10.17,10.17,0,0,1,1.05.92c.2.22.69.75,1.27,1.35,1.3,1.39,2.31,2.47,2.52,2.8a7.42,7.42,0,0,1,.53,1.38,6.64,6.64,0,0,0,.6,1.49A1.69,1.69,0,0,0,27.1,54s.2-.2.25-1a8.54,8.54,0,0,0,0-1.43,22.63,22.63,0,0,0-.9-3.22c-.34-.79-.64-1.6-.9-2.42s-.48-1.41-.57-1.62a14.89,14.89,0,0,1-.22-4.16c.08-1.32,1.79-2.79,2.44-3.34h.06a6.5,6.5,0,0,1,3-1.13h.3A32.73,32.73,0,0,1,37.36,37c.69.28,6.36,2,9.61,3a18.19,18.19,0,0,0,5.44.7c.08,0,.28-.16.52-1.32,0-.1,0-.21.07-.31,0-.4-.07-3.88-.15-4.32s-.8-3.26-1-3.7l-.28-.71c-.36-.9-1-2.42-1.15-2.86a17.78,17.78,0,0,0-1.66-2.38c-.3-.42-.55-.74-.65-.91a21.67,21.67,0,0,0-2.49-3c-.67-.62-1.71-2.81-3.08-6.51l-.07-.17a7.07,7.07,0,0,1-.19-2.1,9.73,9.73,0,0,0,0-1.08,18.41,18.41,0,0,1,.06-2.78c0-.58.07-1.13.07-1.36a13,13,0,0,1,.49-2.47l-.1-.1c-.3-.32-1.16-1.24-1.51-1.56A26.43,26.43,0,0,0,37.7,1C37.17.72,36.27.37,35.33,0h4a21.23,21.23,0,0,1,3,1.88c.37.33,1.13,1.14,1.45,1.48h.3a3.19,3.19,0,0,1,2.39.71c.54.41,1.14.84,1.72,1.25s1.22.86,1.78,1.3a28.46,28.46,0,0,1,4.21,4.63,20.43,20.43,0,0,0,1.56,1.92A10.59,10.59,0,0,1,57,14.82c.17.25,1,1.11,1.46,1.63a13.3,13.3,0,0,1,1.17,1.32A25.51,25.51,0,0,1,61,21.68a8.08,8.08,0,0,1,1.28.35,7.89,7.89,0,0,1,2.08,1.91,16.12,16.12,0,0,1,2.48,5.35c.16.74.5,1.83.81,2.79a18.92,18.92,0,0,1,.59,2.08,56.84,56.84,0,0,0,.93,6.08,3.77,3.77,0,0,1,0,2,1.51,1.51,0,0,1,.42,1,10.65,10.65,0,0,1,0,1.13v.7c0,.58-.21,3-.51,6.06a.81.81,0,0,0,0,.22L67.35,53.1c0-.35.1-1.1.2-2.12.2-2,.53-5.32.51-5.84V43.78a1,1,0,0,1-.15.25c-.08.08-.32.26-.8.62a18.64,18.64,0,0,0-1.77,1.42,24.64,24.64,0,0,0-2.05,2.84,14.8,14.8,0,0,0-.81,2.76,26.44,26.44,0,0,1-1.07,3.91c-.6,2-1.3,4.12-1.68,5.25-.82,2.44-4.2,6.41-5.72,8a3.29,3.29,0,0,1-1.82,1.16,2.08,2.08,0,0,1-.61,0,1.48,1.48,0,0,0-.42,0h0c-.84.11-1.15-1.06-1.33-1.75a.71.71,0,0,0-.09-.3c0-.07-.19-.72-.36-1.39-.26-1.07-.63-2.55-.79-2.92a12.43,12.43,0,0,1-.74-3c-.07-.51-.2-1.09-.32-1.65s-.21-1-.25-1.33a13.54,13.54,0,0,0-1.07-2.82l-.09-.21a5.23,5.23,0,0,0-1.85-2,2.92,2.92,0,0,0-1.84-.6,5.3,5.3,0,0,0-2.59.81c-.36.28-.7.59-1,.86a5.9,5.9,0,0,1-.86.71c-.26.21-2.06,2.36-3.14,3.65s-1.3,1.55-1.36,1.6a6.76,6.76,0,0,1-1.81.6h-.1l-.6-.06c-.2,0-.48-.06-.62-.06a8.09,8.09,0,0,0-.71,1.41,3,3,0,0,0,.66.51c.21.15.44.3.64.47,0,0,.16.12,1,0s1.49-.28,2.11-.42c.39-.09.71-.16.88-.18s1.83-.62,3.09-1.09a30.43,30.43,0,0,1,3.21-1.11,7.43,7.43,0,0,1,2.49,0c.89.18,1.76,1.16,2.83,3.19.93,1.75-1.73,8.37-1.76,8.43h0a54.83,54.83,0,0,0-1.4,5.79,1.17,1.17,0,0,0,1,1h.1a8.05,8.05,0,0,0,1.65-.57c.53-.21,1.2-.48,2-.77,1.62-.59,4.4-2.92,5.59-3.92a6.75,6.75,0,0,1,.59-.47c.21-.19,1.59-1.82,2.8-3.28h0a16,16,0,0,0,2.65-2.75c.84-1.33,3.7-2.66,4-2.69a4.53,4.53,0,0,0,.63-.19,11.79,11.79,0,0,1,.53-1.14l.16-.31,1.18,1.18c-.13.25-.28.54-.33.68A18.12,18.12,0,0,1,64.89,66.29Zm-45.95,9.6a5,5,0,0,1-1.26.4,3,3,0,0,1-1.47-.17h-.1a11.78,11.78,0,0,1-2.27-1c-.46-.33-1.08-.71-1.54-1L12,74c-.47-.29-2.18-1.43-2.58-1.74A16.4,16.4,0,0,0,7.17,71a1.75,1.75,0,0,0-1-.21l-.31.07c-.25.07-.51.23-.69,1.42a14,14,0,0,0,1.06,4.5,15.28,15.28,0,0,0,.89,1.54c.34.54.62,1,.76,1.28,0,.08.08.15.12.24a13.9,13.9,0,0,1,1.08,2.65A2.1,2.1,0,0,1,8.23,85h0a2.28,2.28,0,0,1-.51.21,10.47,10.47,0,0,0,1.5,1.15c.4.21,1.07.52,1.72.82.86.39,1.67.77,2.06,1a23,23,0,0,0,4.88,1.76,4.69,4.69,0,0,0,.53,0l.37,0,.34-.06a2.43,2.43,0,0,1,.66,0h0a1.43,1.43,0,0,0,.06-.71,2.92,2.92,0,0,0-.16-.78,4.69,4.69,0,0,0-1-1.13,10.13,10.13,0,0,0-1.65-.9c-.69-.39-1.35-.81-2-1.26l-.83-.54a10.6,10.6,0,0,1-1.73-1.55L12,82.48a9.47,9.47,0,0,1-1.58-2.19c0-.09-1.18-2.22-.37-2.84a2.12,2.12,0,0,1,1.09-.37h.52l.45-.06a7.13,7.13,0,0,1,2.68.22l.23.05c.42.09,1,.17,1.64.26s1.09.15,1.6.24A26.28,26.28,0,0,0,22,78h.22a2.26,2.26,0,0,0,.87-.34l.29-.16a3.13,3.13,0,0,0,1.25-1.17,4,4,0,0,0,.3-1.68V74.4A4.32,4.32,0,0,0,24.61,73c-.08-.24-.15-.44-.18-.57a3.63,3.63,0,0,0-.6-1.4,5.58,5.58,0,0,1-.49-.77,11,11,0,0,0-.71-1.07,2.48,2.48,0,0,1-.57-1.35,3.13,3.13,0,0,0-.13-.62,5.34,5.34,0,0,1-.17-1.19,2.41,2.41,0,0,0,0-.38v-.2H21.7a1.41,1.41,0,0,1-.42-.22.88.88,0,0,0-.35-.17l-.16.13-.2.07a4.17,4.17,0,0,0-.22,1.79,4.69,4.69,0,0,1,0,.53A10.32,10.32,0,0,0,20.5,69a3.54,3.54,0,0,0,.06.45c.14,1.17.39,3.2.38,3.6a3.12,3.12,0,0,1-2,2.91ZM14.36,50.54h0c-.08.19-.16.39-.27.63-.3.71-.65,1.47-.94,2.09l-.45,1a8.88,8.88,0,0,0-.28,1.54,12.55,12.55,0,0,1-.26,1.49.43.43,0,0,0,.08.29,3.73,3.73,0,0,0,1.57,1.08,8.27,8.27,0,0,0,2.09-.43c.11-.14.33-.25,1.06-.34s2-.14,2.19-.15l.62-.07a3.16,3.16,0,0,0,.51-1h0c-.05-.06-.26-.09-.4-.12a3,3,0,0,1-.71-.19,1,1,0,0,0-.43,0,4.76,4.76,0,0,1-3.36-1.67,2,2,0,0,1-.65-1.56,3.58,3.58,0,0,1,1.35-2.21C15,50.58,14.47,50.29,14.36,50.54Zm7.42,4.61a1.67,1.67,0,0,1-.28-.46L20.5,53a19.59,19.59,0,0,0-3.68-1.87L16,52l-.22,1.53A8.72,8.72,0,0,1,17,55a4.21,4.21,0,0,0,1,.19l1.25.07.59.14,1.88.68.35-.42Zm2,11.32a2.8,2.8,0,0,0-1.23-.55,5.83,5.83,0,0,0,.23,1c.08.32.15.56.2.81a10.75,10.75,0,0,0,1.36,2.49l.12.18c.09.15.57,1.11.86,1.73a6.44,6.44,0,0,1,.48,3.94c-.39,1.8-3,2.76-3.72,2.87h0a37.69,37.69,0,0,1-5.6-.66,15,15,0,0,0-3.06-.22,1.57,1.57,0,0,0-1.43.86c-.3.51,0,1.16.27,1.79a6.65,6.65,0,0,1,.28.69c.18.58,2.14,2.07,2.87,2.64l.47.36A21.38,21.38,0,0,0,18.76,86,7.27,7.27,0,0,1,20.69,88a3.85,3.85,0,0,1-.14,2.1,1.27,1.27,0,0,1,.27.18c.12.09.21.16.74.21a7.63,7.63,0,0,1,1.25.23,12.92,12.92,0,0,0,3.39.38,46.68,46.68,0,0,0,6.36-.46l.83-.09.82-.1a9.69,9.69,0,0,0,3.35-.82l.47-.29a7,7,0,0,0-1-.79A4.3,4.3,0,0,0,35.65,88l-.54-.13a4.73,4.73,0,0,0-1.76,0h-.54a12.13,12.13,0,0,1-2,0l-.85,0h-.43c-.86,0-2.3-.06-3-.12a11.38,11.38,0,0,1-2.29-.61L24,87c-.4-.13-1.2-.49-1.73-.73l-.32-.14a8.28,8.28,0,0,1-1.35-1l-.49-.39a3.61,3.61,0,0,1-1-1.31c-.18-.48.48-1.17,1-1.45a28.8,28.8,0,0,1,2.82-1.16c.27-.08.71-.17,1.22-.27l1.12-.24c.73-.17,1.46-.38,2.17-.62l.29-.09A7,7,0,0,0,30,78.47c.62-.52.62-.73.6-1.72v-.81c0-1-.11-1.18-.36-1.51a5.42,5.42,0,0,1-.54-.89,2.64,2.64,0,0,0-.87-1.19,5,5,0,0,1-.42-.37c-.63-.63-1.77-1.76-2.34-2.36a6.8,6.8,0,0,0-.7-.61,2.25,2.25,0,0,1-.8-.85h0a10.64,10.64,0,0,0-.84-1.69Zm2.9-.23h-.56l-.09,0a1.34,1.34,0,0,0-.4,0,6,6,0,0,0-1.11.26,8.11,8.11,0,0,0,1.1,1.74c.25.26,3.09,2.9,3.26,3s1.39,1.5,1.63,1.77h0c.07.16.7,1.5.81,1.87a11,11,0,0,1-.05,3.43c-.2.91-1.91,1.51-3.8,2.1-.37.11-.7.21-.84.27a21.48,21.48,0,0,1-2.72.75l-.67.17A12.12,12.12,0,0,0,20.85,83h0a.64.64,0,0,1,.1.13,3.36,3.36,0,0,1,.39.54,3.78,3.78,0,0,0,1.5,1.12l.25.13a15.88,15.88,0,0,0,2.91,1c1,.22,3,.47,3.65.54s3.27.19,3.89.18a15.16,15.16,0,0,1,3,.34,12.26,12.26,0,0,1,2.3,1.46v0l.16.15c.82-.31,4-1.5,5.2-1.88a15.29,15.29,0,0,0,4.46-2.7,21.63,21.63,0,0,0,3.52-3.76l.2-.24a1.45,1.45,0,0,1,.21-.22v-.08h-.1a7.91,7.91,0,0,0-.81.19l-.3.07h-.12c-.49.09-2,.4-2.44.52a12.07,12.07,0,0,0-1.37.74,15.38,15.38,0,0,1-1.55.83,14.79,14.79,0,0,0-1.35.74,12.47,12.47,0,0,1-1.19.66,17.43,17.43,0,0,1-3.17,1,8.6,8.6,0,0,0-1.49.33l-1.44.34-.23.12a19.5,19.5,0,0,1-3.24-.09l-.69-.06a3,3,0,0,1-1.75-.72L31,84.2a.67.67,0,0,1-.37-.67,1.5,1.5,0,0,1,.28-.6,4,4,0,0,0,.26-.45,5.55,5.55,0,0,1,1.63-1.78,3.47,3.47,0,0,0,.73-.65l.47-.49.73-.78c.46-.49.87-.91,1.27-1.27a6.6,6.6,0,0,0,.69-.71c.24-.26.52-.56.92-.92l.07-.07c.34-.49,1.39-2,2.07-3.11h0a4.88,4.88,0,0,0,.36-1.41,5.49,5.49,0,0,1,.18-1c.14-.6.1-.67-.08-1a5.06,5.06,0,0,1-.38-.73c-.25-.6-.38-.64-.73-.74a4.07,4.07,0,0,1-.58-.22,7.45,7.45,0,0,0-2.09-.46l-.54-.07a1.31,1.31,0,0,0-.65.07q-.3.07-.6.12a3.21,3.21,0,0,1-.62,0,26.35,26.35,0,0,1-3.19-.46,15.61,15.61,0,0,1-1.76-.44H29c-.26-.07-.55-.13-.79-.18l-.47-.1a5,5,0,0,0-1.09.11Zm4.22-7.51c.14.09.29.18.42.28s.08,0,.11,0a3.92,3.92,0,0,0,1.51-1c.62-.59,3.21-3.75,3.65-4.42a14.2,14.2,0,0,1,2.78-2.22c.23-.16.46-.32.5-.36h0a6.44,6.44,0,0,1,2.35-.69h.35A6.24,6.24,0,0,1,46,52c1,.77,2.6,5.59,2.66,6.06,0,.18.31,1.24.57,2.18.34,1.21.68,2.45.75,2.86a48.66,48.66,0,0,0,1.75,4.82h0a5.89,5.89,0,0,0,1-.34h0a20.39,20.39,0,0,0,3.09-3c.15-.23,1.39-2.42,1.56-2.8.09-.21.38-.77.69-1.36s.68-1.28.75-1.47.44-1.33.73-2.23c.21-.69.41-1.28.47-1.46s.19-.72.37-1.42A38.66,38.66,0,0,1,61.74,49a22.24,22.24,0,0,1,1.51-2.22l.21-.28a10.82,10.82,0,0,1,1.47-1.4l.28-.24a8.55,8.55,0,0,1,1-.7l.71-.48.31-.28-.35-.06.58-1a2.42,2.42,0,0,0,.23-1.67c-.32-1.12-.75-4.43-1-6.31a13.64,13.64,0,0,0-.53-1.8c-.31-1-.67-2.12-.85-2.94A14.41,14.41,0,0,0,63.15,25a7.21,7.21,0,0,0-1.52-1.5,13.2,13.2,0,0,0-1.41-.35l-.47-.09V23l0,.07s-.28.4-.58.85a24.51,24.51,0,0,0-1.46,3.79,30.43,30.43,0,0,0,0,3.82A28.52,28.52,0,0,0,59,36.36a23.48,23.48,0,0,1,.85,5.39V42a38.9,38.9,0,0,1-.44,6c-.21,1.13-1.93,6.79-2.62,7.8-.4.58-.63.78-.94.82h-.17a.62.62,0,0,1-.23.07,4.22,4.22,0,0,1-2-.73,9.78,9.78,0,0,1-2.55-2.29c-.3-.35-.88-1-1.4-1.54s-.86-.91-1.06-1.15c-.46-.54-1.57-1.88-2-2.45-.24-.32-1.1-1.17-1.78-1.86-.53-.52-1-1-1.14-1.16a18.06,18.06,0,0,0-2.85-1.89,12.16,12.16,0,0,0-3.12-.49L36.79,43h-.23a3.76,3.76,0,0,0-1.8,1.29l-.28.29a8.48,8.48,0,0,0-1.17,2.71c-.1.33-.19.62-.27.84a12.18,12.18,0,0,0-.34,2.4,12.59,12.59,0,0,1-.25,1.93c-.25.84-1.58,4.13-1.75,4.53-.07.16-.15.32-.23.47a1.38,1.38,0,0,0-.25.7c0,.13.4.41.66.57ZM29.78,56c.11-.2.72-1.72.78-1.89s1-3.5,1-3.83.48-2.92.58-3.28a15.26,15.26,0,0,1,2.42-4.17,3.53,3.53,0,0,1,2.25-1,11.13,11.13,0,0,1,2,0h.32c1,0,4.24,1.76,4.65,2s3.81,4.29,4.08,4.65a39.49,39.49,0,0,0,3,3.14,13.08,13.08,0,0,1,1.41,1.16l2,1.67a1.76,1.76,0,0,0,1.24,0c.28-.07.68-1.09.91-1.7l.4-1a32.64,32.64,0,0,0,1.43-5.93,50.43,50.43,0,0,0-.17-6.73,19.62,19.62,0,0,0-.9-4c-.19-.2-.25-.6-.35-1.54-.09-.72-.19-1.62-.41-2.62A10.72,10.72,0,0,1,57,25.9l.16-.54a10.45,10.45,0,0,1,1.74-2.88l.1-.19.58.29h0c-.5-1.68-1.11-3.6-1.28-4-.12-.15-.63-.7-1-1.1a10.73,10.73,0,0,1-1.74-2c-.13-.19-.66-.81-1.05-1.26A19.34,19.34,0,0,1,52.8,12a28.86,28.86,0,0,0-3.86-4.18C48.4,7.44,47.8,7,47.22,6.6S46,5.74,45.44,5.3a1.63,1.63,0,0,0-1.23-.38h-.16l-.23.1h0l-.15.3a9.08,9.08,0,0,0-.4,2.2c0,.46,0,5.85.24,6.8a41.75,41.75,0,0,0,2.69,5.5c.24.26,2.5,2.73,2.73,3s.78,1.14,1.78,2.62c.76,1.13,1.61,2.41,1.7,2.52h0a18.11,18.11,0,0,1,.89,2.6c.37,1.27.89,3.22,1.27,5.29a9.11,9.11,0,0,1-.16,4.55A3,3,0,0,1,53,42.33a1.05,1.05,0,0,1-.35.08A12.11,12.11,0,0,1,49.24,42l-2.62-.76-2.27-.66c-.46-.13-4.69-1.52-5.2-1.79a46.11,46.11,0,0,0-4.87-1.45,33,33,0,0,0-4.45,0h-.07a3.54,3.54,0,0,0-1.43.56l-.57.3c-1.14.6-1.94,2.51-2.12,3.4a9.38,9.38,0,0,0,.65,3.51,28.67,28.67,0,0,1,1.17,3.61c.24.82.52,1.76.58,1.89a6.33,6.33,0,0,1,.14,1.89v.81a8.31,8.31,0,0,1-.66,2.3l.26.37,1.09.62a7.55,7.55,0,0,0,.89-.58ZM62.9,64.78c-.43.22-.77.4-.93.46a43.75,43.75,0,0,0-3.94,4c-.11.2-.9,1.08-2.08,2.42-.57.66-1.23,1.39-1.3,1.49a61.15,61.15,0,0,1-5.08,4l-.53.4a48.15,48.15,0,0,1-5.61,2h-.06c-.6.08-1.11-.86-1.31-1.27-.06-.13-.22-.48.74-4A29.58,29.58,0,0,1,44,70.61a36.15,36.15,0,0,0,1.45-6.42,4.39,4.39,0,0,0-1.13-2.9,2.73,2.73,0,0,0-1.25-.5l-.65-.18c-.28-.08-.56-.16-.75-.2h-.23a10.29,10.29,0,0,0-2.53.78c-.38.19-3.73,1.87-4.26,2a31.87,31.87,0,0,1-3.35.63h-.2a2.42,2.42,0,0,1-1.83-.35L29,63.32h0a.42.42,0,0,1-.09.14c-.14.24-.36,1.45,0,1.8a10.41,10.41,0,0,0,3,.85l.43.09a21,21,0,0,0,2.72.09h.12a18.34,18.34,0,0,1,3.46.39,5.69,5.69,0,0,1,2.61,1.51c.44.57.1,1.89-.28,3.19a4.1,4.1,0,0,0-.14.5c0,.08,0,.2-.57,1-.08.18-.15.33-.2.46a5.19,5.19,0,0,1-.77,1.33c-.18.24-.3.4-.39.54a4.41,4.41,0,0,1-.78.89c-.16.24-.75,1.09-.85,1.2s-1.1,1.22-1.93,2c-.53.51-1.37,1.53-2,2.28-.28.35-.52.65-.7.84-.37.43-.27.56.09,1a.61.61,0,0,0,.07.1s.14.19,1.11.26h2.61a4,4,0,0,0,.49,0,30.14,30.14,0,0,0,4.3-1,20.9,20.9,0,0,0,3.22-1.31l.13-.06c.46-.22,1.49-.67,2.33-1l1.19-.52a34.28,34.28,0,0,1,3.9-.85,4.33,4.33,0,0,1,.72,0c.1,0,.25,0,.42.42a2.62,2.62,0,0,1,1-.36A12.51,12.51,0,0,0,56,77.23c.86-1,1.78-2.15,2.39-2.91.35-.43.6-.74.73-.88a58.5,58.5,0,0,0,3.38-5.29,20.2,20.2,0,0,1,.87-2.4c.19-.49.41-1.07.58-1.53l-1.1.56Z"/>
    </symbol>
  </defs>
  <title>logo-geo</title>
  <path class="cls-1" d="M40,6l.58-.68h.6v5.27l-.13.13H40v-.48l-2,.61c-2.68,0-3.15-1.27-3.15-3V2.91c0-.9.42-2.74,3.17-2.74,2.52,0,3.1.86,3.15,2.48L41,2.78h-.9L40,2.66c-.09-1.16-.63-1.34-2-1.34-1,0-2,.19-2,1.63V7.81c0,1.46.59,1.79,2,1.79l2,0Z"/>
  <path class="cls-1" d="M43.18,10.51V.38l.12-.1h5.86l.1.1v.93l-.11.15H44.33V4.6h4.5l.1.1v.93l-.1.12h-4.5V9.52h4.82l.11.13v.89l-.1.11H43.34Z"/>
  <path class="cls-1" d="M54.43,10.86c-2.32,0-3.23-1.34-3.23-2.75V2.74c0-1.28.87-2.74,3.24-2.74s3.23,1.35,3.23,2.75V8.13C57.67,9.52,56.76,10.86,54.43,10.86Zm2.08-8.1c0-1.32-.92-1.68-2.07-1.68s-2.11.4-2.11,1.68V8.11c0,1.33,1.39,1.67,2,1.67h.24c.6,0,2-.28,2-1.66Z"/>
  <path class="cls-1" d="M67.48.38V10.56l-.12.12h-.94l-.1-.1V2.18l-.22.67c-.69,1.41-1.5,3-2.18,4.47h-1L60.76,2.85l-.25-.73v8.43l-.12.1h-.88l-.13-.11V.39l.1-.11h1.34l2.62,5.38L66,.28h1.35Z"/>
  <path class="cls-1" d="M75.86.38V7.9c0,1.95-1,2.91-3.23,2.91s-3.24-1-3.24-2.91V.39l.1-.11h.93l.12.11v7.5c0,1.34.78,1.84,2.09,1.84s2.08-.55,2.08-1.84V.39l.11-.11h.93Z"/>
  <path class="cls-1" d="M84,8c0,1.87-.86,2.81-3.26,2.81s-3.12-1-3.17-2.56l.12-.1h1l.1.1c.06,1,.73,1.41,2,1.41,1.7,0,2.14-.42,2.14-1.69A1.45,1.45,0,0,0,82,6.52c-.9-.47-1.79-.87-2.91-1.41a2.26,2.26,0,0,1-1.35-2.35c0-1.52.73-2.61,3-2.61s3.06.62,3.12,2.47l-.12.12h-1l-.11-.14c0-1-.38-1.33-1.94-1.33s-1.88.53-1.88,1.41a1.46,1.46,0,0,0,.91,1.45c.72.35,1.87.85,2.62,1.2A2.44,2.44,0,0,1,84,8Z"/>
  <path class="cls-1" d="M85.68,10.51V.38l.12-.1h5.89l.1.1v.93l-.1.15H86.87V4.6h4.5l.1.1v.93l-.1.12h-4.5V9.52h4.82l.11.13v.89l-.1.11H85.88Z"/>
  <path class="cls-1" d="M100.05.38V7.9c0,1.95-1,2.91-3.23,2.91s-3.25-1-3.25-2.91V.39l.1-.11h.93l.11.11v7.5c0,1.34.79,1.84,2.1,1.84s2.08-.55,2.08-1.84V.39L99,.28h.93Z"/>
  <path class="cls-1" d="M110,.38V10.56l-.12.12h-1l-.1-.1V2.18l-.22.67c-.68,1.41-1.5,3-2.18,4.47h-1l-2.18-4.47L103,2.12v8.43l-.12.1H102l-.13-.11V.39l.1-.11h1.39L106,5.66,108.54.28h1.34Z"/>
  <path class="cls-1" d="M34.8,23V13l.3-.3h5.75l.28.3V14l-.29.31H36.47v2.38h4l.29.3v1.09l-.29.29h-4v4.3l-.3.31Z"/>
  <path class="cls-1" d="M47.11,13l2.24,9.6v.5H47.71l-.63-2.74H43.79c-.19.91-.39,1.81-.6,2.74H41.54v-.5L43.72,13l.35-.32h2.68Zm-.42,5.65c-.15-.69-.29-1.34-.45-2s-.32-1.46-.5-2.26h-.62l-.93,4.3Z"/>
  <path class="cls-1" d="M57.08,23H56l-2.11-3.49L51.74,23h-1l-.35-.28V22l2.55-4.19-2.55-4.2V13l.28-.36h1.09l2.11,3.47c1-1.63,1.56-2.46,2.19-3.47h1l.3.36v.68l-2.54,4.09c.86,1.36,1.65,2.75,2.54,4.16v.79Z"/>
  <path class="cls-1" d="M58.71,22.69V13l.3-.3h5.76L65,13V14l-.29.31H60.4v2.38h4l.29.3v1.09l-.29.29h-4v2.91h4.37l.26.33v1l-.28.3H59Z"/>
  <use width="671.51" height="83.75" transform="matrix(0.07, 0, 0, -0.07, 34.94, 31.63)" xlink:href="#Kalklandet_navn_hvid_9"/>
  <use width="111.14" height="117.29" transform="matrix(0.27, 0, 0, -0.27, 0.01, 31.63)" xlink:href="#New_Symbol_35"/>
</svg>
