<svg id="stevnsfort" xmlns="http://www.w3.org/2000/svg" xmlns:xlink="http://www.w3.org/1999/xlink" width="116.77mm" height="19.75mm" viewBox="0 0 331 56">
  <defs>
    <style>
      .cls-1 {
        fill: #39728d;
      }

      .cls-2 {
        fill: #fff;
      }
    </style>
    <symbol id="New_Symbol_16" data-name="New Symbol 16" viewBox="0 0 111.11 117.28">
      <polygon class="cls-1" points="1.23 0 109.87 0 111.11 1.23 111.11 9.26 64.81 55.56 64.81 61.73 111.11 108.02 111.11 116.05 109.87 117.28 1.23 117.28 0 116.05 0 1.23 1.23 0"/>
    </symbol>
  </defs>
  <title>logo-koldkrig-mobile</title>
  <g>
    <path class="cls-2" d="M59.12,24.85v.3l4.74,6v.64l-.14.16h-1.2c-1.74-2-3.2-4-4.84-6h-1.3v5.88l-.14.16H54.92l-.14-.16V17.86l.16-.16h1.3l.14.16v6.52h1.1l4.66-6.68h1.18a.83.83,0,0,0,.12.16v.6Z"/>
    <path class="cls-2" d="M69.88,32.25c-3.18,0-4.44-1.84-4.44-3.78V21.08c0-1.78,1.2-3.76,4.46-3.76s4.44,1.86,4.44,3.78v7.41C74.34,30.41,73.08,32.25,69.88,32.25Zm2.86-11.13c0-1.82-1.26-2.32-2.84-2.32-1.78,0-2.9.56-2.9,2.32v7.35c0,1.84,1.9,2.3,2.76,2.3H70c.82,0,2.7-.38,2.7-2.28Z"/>
    <path class="cls-2" d="M84.9,30.57v1.24l-.14.16H76.82l-.14-.16V17.86l.14-.16h1.34a.7.7,0,0,0,.1.16V30.41h6.5Z"/>
    <path class="cls-2" d="M95.5,21.48v6.67A3.59,3.59,0,0,1,91.74,32H87s-.14-.14-.16-.16v-14l.2-.16h4.64A3.61,3.61,0,0,1,95.5,21.48Zm-1.56.06a2,2,0,0,0-2.12-2.28H88.4V30.41h3.44a2,2,0,0,0,2.1-2.28Z"/>
    <path class="cls-2" d="M102.17,24.85v.3l4.74,6v.64l-.14.16h-1.2c-1.74-2-3.2-4-4.84-6h-1.3v5.88l-.14.16H98l-.14-.16V17.86L98,17.7h1.3l.14.16v6.52h1.1l4.66-6.68h1.18a.83.83,0,0,0,.12.16v.6Z"/>
    <path class="cls-2" d="M118.41,32h-1.36l-3.56-6.18-1.44,0-.88-.52v6.58L111,32h-1.22l-.18-.16v-14l.14-.14h4.7c3,0,3.68,1.7,3.68,3.58v1.1c0,.83-.34,3.37-2.84,3.37l3.28,5.64v.44Zm-4.18-7.56c1.68,0,2.28-.5,2.28-2.05v-1c0-1.58-.64-2.06-2.12-2.06h-3.22v5.13Z"/>
    <path class="cls-2" d="M122.72,31.81l-.14.16H121.3l-.16-.16V17.86l.16-.16h1.28l.14.16Z"/>
    <path class="cls-2" d="M132.62,25.51l.79-.94h.83c0,2.06,0,6.5,0,7.24l-.17.18-1.46,0v-.68l-2.73.84c-3.68,0-4.32-1.74-4.32-4.06V21.34c0-1.24.58-3.76,4.36-3.76,3.47,0,4.27,1.18,4.32,3.4l-.15.18h-1.26l-.18-.18c-.12-1.6-.87-1.84-2.73-1.84-1.4,0-2.8.26-2.8,2.24v6.69c0,2,.8,2.46,2.8,2.46l2.69-.06Z"/>
    <path class="cls-2" d="M145.55,28.37c0,2.56-1.18,3.86-4.48,3.86s-4.3-1.34-4.36-3.52l.16-.14h1.28l.14.14c.08,1.42,1,1.94,2.76,1.94,2.34,0,2.94-.58,2.94-2.32a2,2,0,0,0-1.22-2c-1.24-.64-2.46-1.21-4-1.95A3.1,3.1,0,0,1,137,21.12c0-2.1,1-3.6,4.14-3.6s4.2.86,4.28,3.4l-.16.16h-1.3l-.16-.18c0-1.44-.52-1.84-2.66-1.84s-2.58.74-2.58,1.94a2,2,0,0,0,1.24,2c1,.49,2.58,1.17,3.6,1.65C144.83,25.39,145.55,26.11,145.55,28.37Z"/>
    <path class="cls-2" d="M159.07,17.84v14l-.16.16h-1.3l-.14-.14V20.28l-.3.92c-.94,1.94-2.06,4.19-3,6.15h-1.36l-3-6.15-.34-1V31.83l-.16.14H148.1l-.18-.16V17.86l.15-.16h1.84l3.6,7.41,3.56-7.41h1.86Z"/>
    <path class="cls-2" d="M170.55,17.84V28.19c0,2.68-1.34,4-4.44,4s-4.46-1.32-4.46-4V17.86l.14-.16h1.28l.16.16V28.17c0,1.84,1.08,2.54,2.88,2.54S169,30,169,28.17V17.86l.14-.16h1.28Z"/>
    <path class="cls-2" d="M181.72,28.37c0,2.56-1.18,3.86-4.48,3.86s-4.3-1.34-4.36-3.52l.16-.14h1.28l.14.14c.08,1.42,1,1.94,2.76,1.94,2.34,0,2.94-.58,2.94-2.32a2,2,0,0,0-1.22-2c-1.24-.64-2.46-1.21-4-1.95a3.1,3.1,0,0,1-1.86-3.22c0-2.1,1-3.6,4.14-3.6s4.2.86,4.28,3.4l-.16.16h-1.3l-.16-.18c0-1.44-.52-1.84-2.66-1.84s-2.58.74-2.58,1.94a2,2,0,0,0,1.24,2c1,.49,2.58,1.17,3.6,1.65C181,25.39,181.72,26.11,181.72,28.37Z"/>
    <path class="cls-2" d="M184.1,31.77V17.84l.16-.14h8.06l.14.14v1.28l-.16.16h-6.62v4.37h6.18l.14.14v1.28l-.14.16h-6.18v5.18h6.62l.16.18v1.22l-.14.16h-8Z"/>
    <path class="cls-2" d="M203.79,17.84V28.19c0,2.68-1.33,4-4.44,4s-4.46-1.32-4.46-4V17.86l.14-.16h1.28l.16.16V28.17c0,1.84,1.08,2.54,2.88,2.54s2.86-.76,2.86-2.54V17.86l.14-.16h1.28Z"/>
    <path class="cls-2" d="M217.46,17.84v14l-.16.16H216l-.14-.14V20.28l-.3.92c-.94,1.94-2.06,4.19-3,6.15h-1.37l-3-6.15-.34-1V31.83l-.16.14h-1.26l-.18-.16V17.86l.14-.16h1.84l3.6,7.41,3.57-7.41h1.86Z"/>
    <path class="cls-2" d="M61.1,41.33c1.58.71,2.32,1.5,2.32,3.84,0,2.7-1.22,4.06-4.64,4.06s-4.46-1.48-4.52-3.9l.42-.4h1.5l.42.4c.06,1.14.82,1.56,2.16,1.56,1.88,0,2.36-.44,2.36-1.76a1.46,1.46,0,0,0-.94-1.54L56.5,41.77a3.3,3.3,0,0,1-2-3.43c0-2.22,1.06-3.78,4.32-3.78s4.36.94,4.44,3.76l-.4.42H61.26l-.38-.48c0-1.14-.36-1.42-2.08-1.42s-2,.52-2,1.4a1.57,1.57,0,0,0,.92,1.55Z"/>
    <path class="cls-2" d="M68.34,49V37.06h-3l-.4-.4V35.14l.4-.44h8.46l.38.42V36.6l-.44.46h-3V48.55l-.4.42Z"/>
    <path class="cls-2" d="M75.93,48.51V35.12l.42-.42h7.9l.38.42v1.5l-.4.42h-6V40.3h5.54l.4.41v1.52l-.4.39H78.27v4.05h6l.36.46v1.42l-.38.42H76.39Z"/>
    <path class="cls-2" d="M97.42,35.14v.76L93.7,49H90.08C87.4,39.34,86.82,37.54,86.4,36v-.84l.42-.48h1.66l3.3,12H92l3.34-12H97Z"/>
    <path class="cls-2" d="M108.58,35.14V48.51l-.32.46H106.1L102,40.71l-.5-1.21v9l-.4.42h-1.5l-.42-.42V35.16l.42-.44h2l4.22,8.41.48,1.34V35.14l.42-.42h1.52Z"/>
    <path class="cls-2" d="M117.51,41.33c1.58.71,2.32,1.5,2.32,3.84,0,2.7-1.22,4.06-4.64,4.06s-4.46-1.48-4.52-3.9l.42-.4h1.5l.42.4c.06,1.14.82,1.56,2.16,1.56,1.88,0,2.36-.44,2.36-1.76a1.46,1.46,0,0,0-.94-1.54l-3.68-1.82a3.3,3.3,0,0,1-2-3.43c0-2.22,1.06-3.78,4.32-3.78s4.36.94,4.44,3.76l-.4.42h-1.58l-.38-.48c0-1.14-.36-1.42-2.08-1.42s-2,.52-2,1.4a1.57,1.57,0,0,0,.92,1.55Z"/>
    <path class="cls-2" d="M122,49V35.12l.42-.42h7.91l.38.42v1.5l-.4.42h-6V40.3h5.54l.4.41v1.52l-.4.39h-5.54v5.93l-.43.42Z"/>
    <path class="cls-2" d="M137.21,49.25c-3.3,0-4.58-2-4.58-4v-7c0-1.88,1.22-3.94,4.6-3.94,3.22,0,4.6,2,4.6,4v7C141.83,47.29,140.53,49.25,137.21,49.25Zm2.28-10.91c0-1.36-1-1.76-2.26-1.76-1.42,0-2.3.44-2.3,1.76v6.91c0,1.4,1.5,1.74,2.16,1.74h.26c.64,0,2.14-.26,2.14-1.72Z"/>
    <path class="cls-2" d="M152.88,49H151.2l-3.36-5.8h-1.12l-.38-.38v5.76l-.4.42h-1.58l-.34-.42V35.12l.4-.42H149c3.12,0,3.86,1.82,3.86,3.8v1c0,.79-.24,3.11-2.42,3.51.54,1,1.1,1.9,1.66,2.84l1.18,2v.68ZM148.8,41c1.28,0,1.72-.37,1.72-1.51v-1c0-1.16-.46-1.52-1.56-1.52h-2.62v4Z"/>
    <path class="cls-2" d="M158.36,49V37.06h-3l-.4-.4V35.14l.4-.44h8.47l.38.42V36.6l-.44.46h-3V48.55l-.41.42Z"/>
  </g>
  <use width="111.11" height="117.28" transform="translate(8.98 5.73) scale(0.37)" xlink:href="#New_Symbol_16"/>
  <g>
    <path class="cls-2" d="M7,28.53H7l.1-.07s0,0,0-.05Z"/>
    <path class="cls-2" d="M41,36.58l0,1.25c-.34.07-.85.16-1.54.24V38l.1-2.91-.11-.1-.1,3v.08c-.43,0-.93.08-1.49.11l.07-4.4c.22.09.42.19.62.29l-.68-.67c-.42-.18-.89-.35-1.4-.52a36.45,36.45,0,0,0-6.19-1.42h0l0,0v0l-.13,0,0-.11L28.93,31l-.06.28-.21,0a48.32,48.32,0,0,1-5.42-1.33.7.7,0,0,0,0-.21v-.06a.25.25,0,0,1,.11,0,.3.3,0,0,0,.2,0l.06,0,0-.09a.21.21,0,0,0-.1-.17V23.79l-.26-.22-.12-1.09-.23-.08a3.76,3.76,0,0,0-.69-.25c-.07.11,0,.45-.09.54l-.06,0v.05c-.15,0,0,.51-.07.72a.43.43,0,0,0,.07-.24v.24l-.17.12v-.12c-.2.17-.11.6-.11.89,0,1.38-.05,3.07-.07,4.5,0,.21.12.11.14.22s-.05.14,0,.28,0-.31.15-.28.09.41.25.45,0-.36,0-.5c-.13,0-.17-.07-.28-.06a.13.13,0,0,1,0-.06l1.25.37a2.77,2.77,0,0,0,0,.3,1.94,1.94,0,0,1,0,.24l-.33-.11-.08,0h0l-.61-.2h0l-1.31-.44a65.29,65.29,0,0,1-7.31-3.43,5.87,5.87,0,0,0-4.45-1V25a3.88,3.88,0,0,1,1-.14h0L9.75,30l-.53,0,0,.06L9,29.91v.19l.14.1L9,30.46v.27l.24-.45.49.37v2.68c-.26-.25-.5-.5-.73-.75v.21c.23.24.47.49.74.75l.08,1L9,33v.27l.71,1.37c-.25-.25-.48-.5-.71-.75v.42a39.4,39.4,0,0,0,5.79,5v0h0l.48.32A29,29,0,0,0,17.82,41l.41,3.59,1.35,1.83L21.52,49H20.28v.52h8.86V49H28.06l2.63-4.62,0,.12.35-.81v0l.18-.3,0,0c5-.38,9.36-2,9.91-2.61s.73-2.12.24-3.76ZM22.23,22.65a.57.57,0,0,1,0-.13v.13ZM9.72,30.47l-.32-.24h.33ZM41.11,36.8l.08.26a6.14,6.14,0,0,1,.17.68l-.29.07ZM41,38l0,1.35c-.34.09-.83.2-1.41.33l-.09-1.45C40.11,38.16,40.62,38.07,41,38Zm-1.64.24.09,1.46L37.89,40l-.07-1.66C38.39,38.33,38.89,38.29,39.32,38.25Zm-3-5h0c.45.14.86.29,1.24.44l-1.28.75Zm0,1.38,1.44-.83-.08,4.39a14.36,14.36,0,0,0-1.42-.74Zm-.18,3.79.12,1.9c-.48.08-1,.15-1.49.21V38.36Zm-1.37-.2v0l0-1.19c.51.2,1,.4,1.34.58l0,.68Zm1.51,2.27.26,1L34.93,41l-.09-.37Zm0-2.07h.08c.49,0,.94,0,1.36,0L37.79,40c-.44.08-.91.16-1.4.23Zm0-.8c.54.26.94.47,1.19.61l-1.21,0ZM35,32.79c.4.11.83.24,1.31.4l0,1.29-1.36.79Zm1.29,1.88-.06,2.7c-.38-.18-.83-.38-1.34-.58l0-1.34Zm-1.81-2,.41.11-.07,2.57-.49.29Zm-.16,3.16.5-.29,0,1.23-.5-.2Zm-.13,2.34.08-1.43.51.2,0,1.23v0l-.56,0ZM34,32.54l-.17,3.34-.49.29.12-3.76Zm-2.42,6.21.23-.58,0,2.62-.57,0,0-.38.18-1Zm-.08-1.56.05-1.32.26.07v1.3ZM31.84,41l.12.55-.76.43.06-.95Zm.08-3.7V36c.46.13.9.26,1.31.4v1.72L31.92,38V37.5l0-.23Zm0-1.46L32,34.45l1.14,1.72C32.76,36,32.35,35.92,31.92,35.8ZM32,41l1.1-.08-1,.58Zm0-.17,0-2.64,1.32.12.12,2.36v.05Zm1.85-4.21-.08,1.55h0l-.37,0V36.41Zm-.33-.29.36-.21,0,.33Zm-.12,2,.38,0,.11,2.32-.36,0v-.07Zm0-5.89-.12,3.68L32,34.24l.14-2.1C32.58,32.22,33,32.29,33.35,32.38Zm-2.57-.48,1.28.22-.13,2-1.18-1.78Zm-1.67,6.45.62-.4.21.5,0,.46L29.75,40l-.52.55v.05l-.27.27h0l-.13-2.46.29-.21Zm-3.91,7,.24-.23.74,1.21-.2.33h-.07l0,0Zm-1.95-.54-1.57-.28-.52-.78,2.37.5Zm.28,1.37-.32.31-.22,0-.79-1.16,1,.19ZM20.7,42.93l-.19-.77a22.17,22.17,0,0,0,3.59.89l-.26.54Zm-.84-1.73-.11-1.87c.32.11.66.22,1,.32l.11,1-.73.87Zm.19.42,0,0-.15-.06v-.16Zm-1.59-9,1-.6-.07.92V33Zm1,.55v.26l-.59-.49Zm0,.45,0,1.67-.08,0,0-.07-.89-2.36Zm-.19,1.56,0,0-.83-.29v-2Zm-.09.19L18.39,37l0-1.85v0Zm.12,0,.14.05.07,1L18.4,37.72v-.48Zm.22,1.26.15,2.48c-.41-.14-.81-.29-1.2-.44v-.74Zm5.91-1.9v.37l-1.24.65v-.14Zm-1.21.68,0-1,1.1.22Zm1.22-.14,0,.94v.68l-1.31-.3,0-.66ZM29,37.57l-.23,0,0-.88.17.24,0,.37Zm0,.18,0,.28-.27.2,0-.52h0Zm0,4.92.06.42H28.8Zm0-1.06.19-.19v0l-.17.28Zm-.67,1.23h-.54v-.05l1.12-1.09,0,.19Zm-.62.68-.05-.12H28Zm.11.13,0,.05v0Zm-2.59-2.9-.86,1.72-.2-1.92C24.54,40.63,24.89,40.69,25.25,40.75Zm-1.07-.37,0-2,1.29,2.24v0C25,40.55,24.59,40.47,24.18,40.38Zm.58,2.77c.54.08,1.09.14,1.66.18L24.9,44.81,24.4,44ZM25.88,37l-.32-.07,0-1.27v-.44l.55-.29v.26Zm.2-.86V37L26,37Zm-.52,1,.3.07-.28,2.64,0-1.52Zm.41.09.12,0,.08,2.44-.54.73Zm.21,2.69v.2l-.33.23Zm0,.38v.46l-.56-.07Zm1.1-1-1,.71v-.28l1-1.29Zm0-4-.63-.46.37.06.27.05Zm1.38,2.42v0l0,.58-1.26.9-.05-.92.53-.72ZM28,37.41l.67-.91h0l0,1ZM26.75,43h0l0,0-.05-.1-.4-2q.54.06,1.08.09l.18,1.21Zm.76.59-.9.35.58-.57h.23Zm-1-1.15-.78-1.54,0-.09.42.06Zm.8-4.38,0-.62.43.08Zm0,2.67v.07c-.36,0-.71-.05-1.06-.09l0-.55,1-.72ZM26.29,39.5l-.08-2.27,1,.2,0,.78Zm-.6,1.56.94,1.85,0,.1-.57,0-.42-1.83Zm.62,3.18,1.26-.48.08.19-.57.91h0L26,44.59ZM27.53,41l1.26,0L27.7,42.09Zm0-.17v-.11l-.07-1.33,1.26-.9.13,2.39C28.38,40.86,27.94,40.85,27.5,40.82ZM28.72,35c-.5-.1-.91-.18-1.34-.25v0l.05-.8,1.26-1,.06,1.53Zm0,.17,0,1,0,.13-1.28-.93v-.42C27.81,35,28.22,35.07,28.71,35.18Zm-.14,1.23-.72,1-.54-.1.05-1.75ZM27.28,34.7v0l-.26,0-.5-.08.81-.62Zm0,.75-.05,1.81-1-.2,0-1.94,0-.28.06,0,0,0Zm-1.18-.9-.53-.09L26.22,32Zm0,.17v0l-.55.29v-.41Zm-.48,6.59L26,43c-.36,0-.7-.07-1.05-.12Zm-.14-1-1.3-2.23,0-1.33,1.31.3v3.26ZM24.3,42.67l0,.07-1-.17-.25-2.28,1,.24ZM24,36l0,.56-.69-.17h0Zm-.61.14.62-.45v.12Zm-.12.42.7.17,0,1.15-.77-1.33ZM24,38.14l0,2.22-1-.25,0-3.49,0-.09.05,0h0Zm0-2.64L23,36.27l0-2.14,1.1.22Zm-.86,7-.86-.2h0L22,40l.92.24Zm-3-6.85.27.08.23,3.67v0l-1-.33-.16-2.64Zm-.67.61,0-.85.58.19Zm.78-.75.18-.22v.27Zm1.36.57,1.16.32h0v.15l-1,2.38Zm.16,3.68-.14,0,.12-.28,0,.27ZM21.7,36l0-.45.83.69Zm0-2.12h0Zm0,0v0l-.07,1.32-.61-.5Zm-.78.75-.25-.21,0-.88c.28.09.57.17.89.25Zm-.1.12-.18.22,0-.36Zm.11.08.69.57,0,.52-1-.29,0-.44Zm-.31,1,1,.29h0l.23,3.12-.2.51-.76-.23v-.08Zm.89,4.07-.54.65-.1-.84Zm.15,0,.23.07.32,2.33c-.36-.09-.72-.19-1.07-.3L21,40.71Zm.33-.08,0-.11,0-.49.94-2.34.05,3.19Zm.88-3.58-1.13-.94.08-1.39v-.07l1.07.24Zm-1.14-2.6-1-.27.18-2.24.34-.2.71.34Zm-1.12-.31A11.38,11.38,0,0,1,19.53,33v-.08l.07-1,1.18-.69Zm0,.17,0,.83-1-.87v-.31Zm-.05,1,0,.59-.33.39-.7-.22,0-1.62Zm-.92,4.76.11,1.77-1.24-1.4-.07-.81C18.82,39,19.22,39.15,19.63,39.29Zm.13,2v.25l-1.15-.48-.1-1.17Zm1.13-.46L21,42l-.6-.2,0-.07-.06,0-.11-.13Zm-.47,2.82.15.63-.95-.17Zm3.6.66h0l.51.86-.63.61-.28-.64Zm.8,1.37.56.94h-.87l-.25,0-.11-.26Zm.9-.65,1.16.15-.54.87Zm1.6.41.29.46-.46.71h-.47l-.05-.07Zm.16-.25,0,0,.5.12-.25.39ZM27.6,45l.29-.46.23.56,0,0Zm.45-.71.51-.83.32.46-.6.93Zm.81-.86h.33l-.16.25Zm.29-.9,0-.06v0l.13.56-.08,0h0ZM29,36.7l-.18-.26v-.25l.28-.87Zm0-1.47-.16.53V35.2Zm-.34-3.69.18,0-.14.72,0,.46-1.25,1,.14-2.36C27.93,31.42,28.29,31.49,28.63,31.54Zm-1.16-.22-.14,2.48-1,.79-.12-.09L27,31.22Zm-.57-.12-.65,2.58.25-2.68Zm-.62-.15,0,.42-.77,2.74.19-3.31Zm-1.81-.47,1.09.29-.18,3.37-.44-1.12L24.37,32Zm.38,2.64.47,1.2-1.1-.21v0l.14-2Zm-.5-2.68,0,.58-.75-.8Zm-1.17,1.14,1,.11h0l.1.21-.15,2.18h0L23,34Zm-1.11-.33.55.26.44.05-.17,2.27-1.05-.24Zm0-1.51,0,.37-.75-.1-.16.75-.18.1L21,29.51C21.26,29.59,21.6,29.71,22,29.84Zm-1.34-.44.23.08L20.8,31l-1.18.69.2-2.63C20.15,29.22,20.45,29.33,20.69,29.4Zm-1-.35-.22,2.74-1.12.66.24-3.87ZM17.33,28c.4.2.8.38,1.18.56l-.23,3.72-1-3.53ZM17,37.15l0-2.6.22.09.31,3.67h0Zm.31,1.09-.3-.13v-.63ZM17,34.38l.06-1.54.14,1.62Zm.33.31.6.22-.33,3Zm0-.18-.2-2.35h0l1.06.47L18,34.75Zm.94-1.44v1.79l-.19-.07Zm0-.59L17.17,32l-.06,0h0l.16-2.9Zm-1-4.56,0,.48L17,27.83Zm-1.14-.56.61.3-.64.31Zm.79.39,0,0,.28,1L17,31.93l-1.16-.52v-.07l.2-3.18Zm.06,9.45v.86c-.43-.19-.85-.39-1.25-.59l0-3.32ZM15.8,34.06l1.09.45,0,2.36Zm1.1.28-1.11-.46,0,0L17,32.17Zm-1.18-.68.11-2.07c.37.15.72.31,1.07.47Zm-.21-6.59.47.24,0,.72-.52.25Zm-.11,1.39.52-.25-.19,3.12v0l-.53-.2Zm.32,3.08-.11,2.18-.56-.5.14-1.88Zm-.36,2.32L15,34v-.25ZM15,33.54V33.4l.32.28Zm.53.43L15,35.7V34.13Zm-2.2-8,.64.34-.19,2.75-1.31.63.31-4ZM12.2,32.09c-.39-.23-.75-.45-1.09-.67l.06-1.06.5.08.62.54Zm0,3.49Zm0-.19-.43-.31L12.2,35ZM13.6,32l-1.19-1.06,0-.31c.39.08.8.17,1.25.29Zm0,1.09.95.47v.58l-1,.29Zm-.05-.91-.05.68h0l-1.23-.67v0l.08-1Zm-1.25-1.74-.63-.12,0,0,.69-.33Zm-.4.09.38.07,0,.25Zm.37,4.45,1.17-.34-.06,1.61-1.11-.73Zm1.12,1.46.06.46-1.15-1.14v0C12.68,35.91,13,36.15,13.43,36.39Zm.05-2-1.17.35V32.33c.39.21.79.44,1.23.66Zm.11.14,1-.29v2.63c-.37-.21-.73-.42-1.06-.63h0Zm1,2.52v0l-.2.64.1.08.13-.42.05.62-1.05-1-.07-.51C13.88,36.66,14.23,36.87,14.59,37.07Zm0-3.73-.95-.47v0l0-.61.93.82Zm-.91-2.64c-.44-.12-.86-.21-1.25-.29l.05-.54,1.3-.63Zm-1-5.09-.32,4.13-.85.41-.36,0,.29-5A8.25,8.25,0,0,1,12.71,25.61Zm-2.55-.72a5.33,5.33,0,0,1,1.21.19l-.3,5-1.22-.07Zm-.32,5.35a12,12,0,0,1,1.22.11l-.06,1c-.43-.27-.82-.54-1.18-.8Zm0,.49c.36.26.75.53,1.17.8l0,3c-.33-.26-.63-.52-.9-.77l-.3-.28h0Zm0,2.92.21.2c.3.27.62.55,1,.84v.22l-1.11-.12ZM10.06,35l1,.1,0,.88Zm1-3.38c.35.22.71.44,1.1.66v2.53l-.58.17c-.17-.13-.34-.25-.49-.38Zm0,3.18.21.17-.2,0Zm.08,1.28-.06-1,.4,0,.68.67.15,1.25C12,36.74,11.61,36.41,11.22,36.06Zm1.29,1.1-.15-1.23,1.16,1.15.14,1C13.29,37.79,12.9,37.49,12.51,37.16Zm1.27,1-.13-1,1,1,.05.64C14.45,38.66,14.12,38.43,13.78,38.17Zm.86-5.31L13.71,32l.08-1.14.37.1.6.19ZM14.77,31l-.59-.19-.38-.1.11-1.55,1-.5Zm-.85-2,.18-2.65,1.05.54h-.07L15,28.5Zm1.11,8v-1l.57-1.84,0,3.17L15,37.13Zm0,.27.54.27L15.68,39l-.53-.53Zm.3,2-.14-.1-.05-.49.54.53,0,.28Zm.48.29v-.23l.57.56C16.2,39.8,16,39.68,15.83,39.57Zm1,.6L15.8,39.12l-.1-1.47c.4.2.82.4,1.26.59l.16,1.44-.24.5Zm.13.07.16-.34.05.46Zm.08-2,.36.16.13.31,0,0v0l-.34.69Zm.25,2.13-.08-.7.35-.73v0h0l.19,1.65Zm.42-2h0l-.06,0L18.05,35l.21.08v.08l0,2.08Zm.55-.92v.38l-.41.5Zm-.32,1,.33-.4v.57L18,38.5Zm0,.22.32.13.06.71-.33-.37Zm.08.71.32.37L18.51,41l-.26-.12Zm.51,4.54-.3-2.68c.52.25,1,.47,1.57.67l.35,1.13-1.53.89Zm1.28,2-.95-1.27,1.83.33L21,46.17,19.93,46Zm.63.83.71.1.3,1.24Zm1-.54-.29-1.14.26,0,.81,1.2Zm.17.7,1,.13-.57,1.44Zm.7,2.07L23,47.59,23.24,49Zm.93-1.86.7.1.11.23-.51,1.16ZM24,49l.41-.93.42.93Zm.88,0,.18-.2.12.2Zm-.14-1.7h2l-1,1.6ZM27.48,49H26.23l.93-1.44H28.3Zm-.11-1.78.53-.82.5.83Zm1.22-.17-.54-.89.47-.72h1Zm.14-1.95.47-.72.49.73Zm1.11-.24-.49-.72.31-.48.7-.06.08.2ZM30.59,33l-.09-.09-.29-.9,0-.23h0l.36.55Zm.06-.87-.21-.31.23,0Zm0,1,0-.61,1.18,1.78-.09,1.34-.42-1.78ZM31.13,43l.06-.89.8-.46.26,1.25Zm1.23-.11-.27-1.3,1.3-.76.3,1.88C33.25,42.8,32.81,42.86,32.36,42.91Zm1.43-.19-.29-1.88.39.1.33,1.71Zm.36-4.4.55,0v2.17l-.43,0Zm.14,2.42.44-.06.08.32-.49-.12Zm.37,1.83-.3-1.51.5.13.33,1.28Zm.64-.13L35,41.22l1.64.42.12.47Q36.05,42.29,35.3,42.44Zm1.55-.35-.11-.42.85.22Zm1-.29-1.21-.31-.27-1.05,1.38-.24.3,1.54Zm.26-.08,0,0-.29-1.52,1.53-.3.29,1.29C39.29,41.34,38.77,41.53,38.16,41.72ZM41,40.47a4,4,0,0,1-1.2.66l-.29-1.27,1.39-.32.2.81Zm.18-.26-.17-.7.42-.11A2.14,2.14,0,0,1,41.21,40.21Zm.27-1-.44.12,0-1.36.34-.08A5.62,5.62,0,0,1,41.48,39.22Z"/>
  </g>
</svg>
