<svg id="geomuseum" xmlns="http://www.w3.org/2000/svg" xmlns:xlink="http://www.w3.org/1999/xlink" width="111.99" height="32.1" viewBox="0 0 111.99 32.1">
  <defs>
    <style>
      .cls-1 {
        fill: #00a5a3;
      }

      .cls-2 {
        fill: #00acaf;
      }

      .cls-3 {
        fill: #fff;
      }
    </style>
    <symbol id="Kalklandet_navn_hvid_9" data-name="Kalklandet navn hvid 9" viewBox="0 0 671.51 83.75">
      <path class="cls-1" d="M15.27,83.58l2-2.34V48.3H21.5L47.22,83.58H60l2-1.76V75.75l-23.72-34V40.12L63,8.33V2L60.9,0h-13L23.71,30.24H17.24V1.75L15.24,0H1.84L0,1.75V81.82l1.84,1.76Z"/>
      <path class="cls-1" d="M231.81,83.58l2-2.34V48.3H238l25.76,35.28h12.78l2-1.76V75.75l-23.72-34V40.12L279.49,8.35V2L277.4,0h-13L240.25,30.24h-6.47V1.75l-2-1.75h-13.4l-1.84,1.75V81.82l1.84,1.76Z"/>
      <path class="cls-1" d="M143.37,0h-17L122,19.57H91.67L87.23,0H70.12v2.8L89.93,83.58h33.63L143.37,2.94ZM118.43,34.75l-7.49,34.5h-8.26l-7.59-34.5Z"/>
      <path class="cls-1" d="M205.43,14.75v-13L203,0H154.81L153,1.75v80l2,1.88h14l2-1.76V16.42h32.43Z"/>
      <path class="cls-1" d="M389.59,83.7H365.38l-19-82.64V.12h10.48l5.39,23.45H392.7L398.09.12h10.45V1.18q-9.68,41.15-19,82.52ZM364.38,32.75,373.79,75h7.39l9.41-42.2Z"/>
      <path class="cls-1" d="M521.53,83.7H492.66l-1.18-1V.94a8.34,8.34,0,0,1,.94-.94H522c18.41,0,22,15.13,22,22.39v39C544,68.58,540.41,83.7,521.53,83.7Zm12.91-60.95c0-11-7.18-13.16-12-13.16H501.2V74h21.15c4.79,0,12.09-2.19,12.09-13.16Z"/>
      <path class="cls-1" d="M474.47,83.7h-8.39l-.94-.82V15l-2,6L432.62,83.7h-12l-.93-.93V1.06l.93-.94h8.51l.82.94V68.35L431.7,63,462.12.24,474.44.12l.82,1.06v81.7Z"/>
      <path class="cls-1" d="M649,.12l.94.94V73.24h20.39l1.18,1.17v8.47l-.82.82H620l-.82-.93V74.06l.82-.82h19.63V.12Z"/>
      <path class="cls-1" d="M339.79,10.27H303.21V82.75a3.76,3.76,0,0,0-.59.93h-9.37l-.82-.93V1.06l.82-.94h46.54l.82.94V9.33Z"/>
      <polygon class="cls-1" points="558.36 48.43 558.36 36.7 603.85 36.7 604.67 37.7 604.67 47.54 603.85 48.43 558.36 48.43"/>
      <polygon class="cls-1" points="558.36 11.4 558.36 1.29 559.54 0.12 606.54 0.12 607.36 1.06 607.36 10.34 606.43 11.4 558.36 11.4"/>
      <polygon class="cls-1" points="606.23 83.75 558.99 83.75 558.05 82.93 558.05 72.02 567.32 72.02 567.32 72.02 606.12 72.02 607.05 72.96 607.05 82.93 606.23 83.75"/>
    </symbol>
    <symbol id="New_Symbol_2" data-name="New Symbol 2" viewBox="0 0 111.11 117.28">
      <polygon class="cls-2" points="1.23 0 109.87 0 111.11 1.23 111.11 9.26 64.81 55.56 64.81 61.73 111.11 108.02 111.11 116.05 109.87 117.28 1.23 117.28 0 116.05 0 1.23 1.23 0"/>
    </symbol>
  </defs>
  <title>logo-geo-grønt</title>
  <path class="cls-1" d="M40,6l.58-.68h.6v5.27l-.13.13H40v-.48l-2,.61c-2.68,0-3.15-1.27-3.15-3V2.91c0-.9.42-2.74,3.17-2.74,2.52,0,3.1.86,3.15,2.48L41,2.78h-.9L40,2.66c-.09-1.16-.63-1.34-2-1.34-1,0-2,.19-2,1.63V7.81c0,1.46.59,1.79,2,1.79l2,0Z"/>
  <path class="cls-1" d="M43.18,10.51V.38l.12-.1h5.86l.1.1v.93l-.11.15H44.33V4.6h4.5l.1.1v.93l-.1.12h-4.5V9.52h4.82l.11.13v.89l-.1.11H43.34Z"/>
  <path class="cls-1" d="M54.43,10.86c-2.32,0-3.23-1.34-3.23-2.75V2.74c0-1.28.87-2.74,3.24-2.74s3.23,1.35,3.23,2.75V8.13C57.67,9.52,56.76,10.86,54.43,10.86Zm2.08-8.1c0-1.32-.92-1.68-2.07-1.68s-2.11.4-2.11,1.68V8.11c0,1.33,1.39,1.67,2,1.67h.24c.6,0,2-.28,2-1.66Z"/>
  <path class="cls-1" d="M67.48.38V10.56l-.12.12h-.94l-.1-.1V2.18l-.22.67c-.69,1.41-1.5,3-2.18,4.47h-1L60.76,2.85l-.25-.73v8.43l-.12.1h-.88l-.13-.11V.39l.1-.11h1.34l2.62,5.38L66,.28h1.35Z"/>
  <path class="cls-1" d="M75.86.38V7.9c0,1.95-1,2.91-3.23,2.91s-3.24-1-3.24-2.91V.39l.1-.11h.93l.12.11v7.5c0,1.34.78,1.84,2.09,1.84s2.08-.55,2.08-1.84V.39l.11-.11h.93Z"/>
  <path class="cls-1" d="M84,8c0,1.87-.86,2.81-3.26,2.81s-3.12-1-3.17-2.56l.12-.1h1l.1.1c.06,1,.73,1.41,2,1.41,1.7,0,2.14-.42,2.14-1.69A1.45,1.45,0,0,0,82,6.52c-.9-.47-1.79-.87-2.91-1.41a2.26,2.26,0,0,1-1.35-2.35c0-1.52.73-2.61,3-2.61s3.06.62,3.12,2.47l-.12.12h-1l-.11-.14c0-1-.38-1.33-1.94-1.33s-1.88.53-1.88,1.41a1.46,1.46,0,0,0,.91,1.45c.72.35,1.87.85,2.62,1.2A2.44,2.44,0,0,1,84,8Z"/>
  <path class="cls-1" d="M85.68,10.51V.38l.12-.1h5.89l.1.1v.93l-.1.15H86.87V4.6h4.5l.1.1v.93l-.1.12h-4.5V9.52h4.82l.11.13v.89l-.1.11H85.88Z"/>
  <path class="cls-1" d="M100.05.38V7.9c0,1.95-1,2.91-3.23,2.91s-3.25-1-3.25-2.91V.39l.1-.11h.93l.11.11v7.5c0,1.34.79,1.84,2.1,1.84s2.08-.55,2.08-1.84V.39L99,.28h.93Z"/>
  <path class="cls-1" d="M110,.38V10.56l-.12.12h-1l-.1-.1V2.18l-.22.67c-.68,1.41-1.5,3-2.18,4.47h-1l-2.18-4.47L103,2.12v8.43l-.12.1H102l-.13-.11V.39l.1-.11h1.39L106,5.66,108.54.28h1.34Z"/>
  <path class="cls-1" d="M34.8,23V13l.3-.3h5.75l.28.3V14l-.29.31H36.47v2.38h4l.29.3v1.09l-.29.29h-4v4.3l-.3.31Z"/>
  <path class="cls-1" d="M47.11,13l2.24,9.6v.5H47.71l-.63-2.74H43.79c-.19.91-.39,1.81-.6,2.74H41.54v-.5L43.72,13l.35-.32h2.68Zm-.42,5.65c-.15-.69-.29-1.34-.45-2s-.32-1.46-.5-2.26h-.62l-.93,4.3Z"/>
  <path class="cls-1" d="M57.08,23H56l-2.11-3.49L51.74,23h-1l-.35-.28V22l2.55-4.19-2.55-4.2V13l.28-.36h1.09l2.11,3.47c1-1.63,1.56-2.46,2.19-3.47h1l.3.36v.68l-2.54,4.09c.86,1.36,1.65,2.75,2.54,4.16v.79Z"/>
  <path class="cls-1" d="M58.71,22.69V13l.3-.3h5.76L65,13V14l-.29.31H60.4v2.38h4l.29.3v1.09l-.29.29h-4v2.91h4.37l.26.33v1l-.28.3H59Z"/>
  <use width="671.51" height="83.75" transform="matrix(0.07, 0, 0, -0.07, 34.94, 31.63)" xlink:href="#Kalklandet_navn_hvid_9"/>
  <g>
    <use width="111.11" height="117.28" transform="translate(0.62 -0.12) scale(0.27)" xlink:href="#New_Symbol_2"/>
    <path class="cls-3" d="M18.79,13.74c-.09-.23-.2-.54-.22-.62a3.9,3.9,0,0,0-.47-.85c-.21-.33-.48-.75-.58-.87l-.19-.24c-1-1.28-1.25-1.51-1.43-1.53a.44.44,0,0,1-.26-.15l0-.05a6.69,6.69,0,0,0-1.07-1.15,4.48,4.48,0,0,0-1.38-.85c-.34-.11-1.32-.49-1.47-.55l-.32-.2a2.87,2.87,0,0,0-1.11-.29l-.23,0-.23,0A12.67,12.67,0,0,0,8,6.2a4.07,4.07,0,0,0-1.05.12l-.29.06a.63.63,0,0,0-.43.15l-.06,0a.27.27,0,0,1-.09,0H6l-.13,0h-.2a5.68,5.68,0,0,0-1.59.57l-.53.26L3,7.59a5,5,0,0,0-.73.6,2.53,2.53,0,0,0-.74.44c-.25.26-.76.89-.85,1l0,.06v.79c.15-.23.32-.47.4-.58s.58-.73.8-.95a1.8,1.8,0,0,1,.62-.35l0,0,0,0,.05-.05h0l.15.06.12.06A.8.8,0,0,1,3,9a.85.85,0,0,1-.17.42l-.13.22a2.73,2.73,0,0,1-.23.38,3.93,3.93,0,0,0-.29.55,2,2,0,0,1-.12.25,3.33,3.33,0,0,0-.18.61.84.84,0,0,0,0,.1,4.88,4.88,0,0,0-.05.81.36.36,0,0,0,.05.19s0,0,0,.09a.27.27,0,0,0,.23.21l.11,0h.06a.53.53,0,0,0,.4-.18l.15-.11L3,12.53c.22-.13.55-.32.73-.44l.2-.14c.22-.14.46-.3.61-.42a2.27,2.27,0,0,1,.68-.37,1.19,1.19,0,0,1,.5-.05l.09,0a1.66,1.66,0,0,1,.3.21s.08.12.11.21l0,.1a.82.82,0,0,1,0,.35.06.06,0,0,0,0,0,6.23,6.23,0,0,1-.1.7,2.9,2.9,0,0,0,0,.72s0,.12,0,.19a2,2,0,0,0,0,.32,2.06,2.06,0,0,1,0,.38v0H6.16a.28.28,0,0,0-.13,0H6s-.08-.06-.14-.13l-.06-.08a1.64,1.64,0,0,1-.24-.52l-.05-.16a2.07,2.07,0,0,1-.1-.26c-.11-.28-.18-.48-.22-.55s-.55-.36-.57-.37a.2.2,0,0,0-.11,0,.92.92,0,0,0-.43.08h0a1.54,1.54,0,0,0-.53.37,1.44,1.44,0,0,0-.3.41h0a3.34,3.34,0,0,0-.17.33L3,13.7l-.08.17a1.8,1.8,0,0,1-.21.38,2.31,2.31,0,0,1-.18.23,3.13,3.13,0,0,0-.23.31A.57.57,0,0,1,1.9,15h0s-.14-.16-.19-.25l-.2-.27a1.06,1.06,0,0,1-.22-.65v0a4.74,4.74,0,0,1,0-.88,4,4,0,0,0-.05-1.16.68.68,0,0,0-.55-.48v.33l.07.07a1,1,0,0,0,.18.16l0,0H1a.46.46,0,0,0,0,.3,1.35,1.35,0,0,1,0,.63l0,.28a5.22,5.22,0,0,0,0,.78,4,4,0,0,0,.17.72,2.87,2.87,0,0,0,.41.65.62.62,0,0,0,.33.22H2c.14,0,.26-.15.38-.31l0-.07A6.12,6.12,0,0,0,3,14.19a8.67,8.67,0,0,1,.71-1.27.89.89,0,0,1,.6-.36l.08,0h.07a.72.72,0,0,0,.22.09.67.67,0,0,1,.36.34l0,0a0,0,0,0,0,0,0,2.15,2.15,0,0,0,.07.26,1.2,1.2,0,0,1,.06.2.9.9,0,0,0,.06.18,1.34,1.34,0,0,1,.07.18l.09.21a.93.93,0,0,1,0,.1,1.44,1.44,0,0,0,.12.26,1.16,1.16,0,0,0,.22.26s0,0,0,.05a.2.2,0,0,0,0,.11.6.6,0,0,1,0,.23l0,.24h0a1.88,1.88,0,0,1-.36-.24l0,0-.37-.35-.23-.23-.22-.15-.11-.06a1.89,1.89,0,0,0-.38-.16h0a.89.89,0,0,0-.56.22l0,0a.91.91,0,0,0-.26.43l0,.09a2.51,2.51,0,0,0-.12.57h0a2,2,0,0,0,0,.42,1.77,1.77,0,0,1,0,.22c0,.08,0,.23,0,.38s0,.24,0,.35a.9.9,0,0,1-.13.41.26.26,0,0,0-.05.09c0,.08-.06.08-.14.07h-.2a1.51,1.51,0,0,1-.46-.23,1.14,1.14,0,0,1-.3-.28l-.16-.18a2,2,0,0,1-.3-.56,1.48,1.48,0,0,0-.12-.25c-.06-.09-.2-.39-.28-.55a.89.89,0,0,0-.05-.1,1.86,1.86,0,0,0-.19-.3v.47l.12.2.4.85c0,.08.49.75.57.85a3.52,3.52,0,0,0,.53.45,1.11,1.11,0,0,0,.42.15H2.9c.24,0,.33-.39.35-.49s0-.41.08-.68,0-.35,0-.38a4.27,4.27,0,0,0,0-.53c0-.15,0-.32,0-.35a5,5,0,0,1,.16-.79A1,1,0,0,1,4,14.33h.19l.26.06h0l.09,0,.09.11.09.1L5,15c.1.08.32.3.34.32l.26.2.22.17h0a.11.11,0,0,1,0,.06s0,0,0,.09l-.05.1-.08,0H5.64l-.15,0h0l-.1,0a2.83,2.83,0,0,0-.44-.11l-.41,0a.23.23,0,0,0-.22.06.07.07,0,0,1,0,0,.41.41,0,0,0-.17.14s0,0,0,0a1.24,1.24,0,0,0-.16.41.12.12,0,0,1,0,.07,1.55,1.55,0,0,0,0,.43v0s.09.4.11.47H4l.42.92a10,10,0,0,0-1.07.4,5.74,5.74,0,0,0-.82.52s-.54.13-.68-.08-.8-1-1.14-1.41v.41a3.45,3.45,0,0,1,.28.26c.25.26.53,1,.72,1.11s.15.25.48.17v0l-.08.15h0a2.5,2.5,0,0,0-.2.49,1.19,1.19,0,0,0,.12.75c-.06.05-.1.09-.15.08l-.06-.05a1.86,1.86,0,0,0-.25-.26,9.69,9.69,0,0,1-.82-1.15l0-.05v.76A7.85,7.85,0,0,0,2.36,22.1a12.94,12.94,0,0,1,1.2.95c1.68,1.46,3.85,1.61,3.77,2.32-.07.52,0,.58-.38,1a18.58,18.58,0,0,1-2.38,1.18,19,19,0,0,0-3.12,1.73,4.41,4.41,0,0,0-.77,1.13v1.51a3.19,3.19,0,0,1,.14-.35A2.16,2.16,0,0,1,1,31.24a9.46,9.46,0,0,1,.62-.76l.46-.24a5.36,5.36,0,0,1,1.12-.53l.16,0h0a14.54,14.54,0,0,0,2.36-.43l.18-.08a17.12,17.12,0,0,0,2.77-1.41,3.53,3.53,0,0,1,.47-.33c.48-.3,1-.63.85-1.28-.08-.31-.55-.7-1.42-1.19a.43.43,0,0,0-.22-.14h0l-.26-.14c-.45-.23-1.21-.6-2.33-1.06a10.65,10.65,0,0,1-1.91-1.13C3,21.87,2.42,21.33,2.46,21c.13-1.08.66-1.42.94-1.53S4,19.2,4.33,19l.33-.15,0,.07,0-.09.34-.14.17-.07a9,9,0,0,0,1-.42,2.93,2.93,0,0,0,.92-.68.48.48,0,0,1,.21.11s0,.08-.12.32a3.37,3.37,0,0,1-.28.44,15.6,15.6,0,0,1-1.37,1.29,2.06,2.06,0,0,0-.76,1.53c-.08.59.46,1.12.82,1.46l.08.08a7.27,7.27,0,0,0,2.15.82l.07,0c.32,0,1.32.05,1.85.06h.35a24.34,24.34,0,0,1,2.44.67c.13.09.14.41,0,.79a8,8,0,0,1-1,1.63,4.79,4.79,0,0,1-.6.59l-.31.27a9.71,9.71,0,0,1-1,.74h0A21.18,21.18,0,0,0,8.13,30.1L8,30.31A5.63,5.63,0,0,0,7.27,32a3,3,0,0,1-.09.57.45.45,0,0,1-.14.13h.47a1.49,1.49,0,0,0,0-.21,5.13,5.13,0,0,1,0-.52q0-.15,0-.27a3.67,3.67,0,0,1,.53-.87l.19-.26C8.46,30.38,9.8,29,9.9,28.87l.33-.28c.43-.36,1.24-1,1.84-1.6A5.59,5.59,0,0,0,13.4,24.5c.08-.32-.27-.65-.47-.78a2.33,2.33,0,0,0-.7-.14c-.69-.09-1.67-.16-1.74-.16l-2-.12a14.66,14.66,0,0,1-1.9-.58,4.41,4.41,0,0,1-1.17-.94,1.49,1.49,0,0,1-.06-1.26c.07-.27.53-.64.83-.89l.3-.26c0-.07.19-.22.35-.39.36-.4.64-.71.7-.81a1.58,1.58,0,0,0,.15-.39,1.9,1.9,0,0,1,.17-.43.48.48,0,0,1,.37-.09s0,.06.07.28a2.13,2.13,0,0,1,0,.41,5.86,5.86,0,0,1-.25.92c0,.06-.12.3-.25.69-.07.21-.13.41-.16.47a4.41,4.41,0,0,0-.06,1.19c0,.38.5.8.68,1l0,0a1.81,1.81,0,0,0,.83.32h.09a9.29,9.29,0,0,0,1.89-.38c.2-.08,1.78-.58,2.69-.87a5.05,5.05,0,0,1,1.52-.2s.08.05.14.38a.81.81,0,0,1,0,.09c0,.11,0,1.11,0,1.24s-.22.93-.27,1.06a1.14,1.14,0,0,0-.08.2l-.32.82a7.31,7.31,0,0,1-.47.68l-.18.26a6,6,0,0,1-.69.87,6.42,6.42,0,0,0-.86,1.86l0,0a1.85,1.85,0,0,0-.06.6,2.63,2.63,0,0,1,0,.31,5.85,5.85,0,0,0,0,.8c0,.16,0,.32,0,.39a3.5,3.5,0,0,0,.14.71l0,0-.42.44a7.71,7.71,0,0,1-1,.61,5.68,5.68,0,0,1-.66.26h1.13a6.9,6.9,0,0,0,.83-.53c.11-.1.32-.33.41-.43H13a.85.85,0,0,0,.67-.2l.48-.36c.17-.12.34-.24.5-.37a8.44,8.44,0,0,0,1.19-1.33,5.16,5.16,0,0,1,.44-.55,3.68,3.68,0,0,0,.36-.47A5.57,5.57,0,0,1,17,28a2.68,2.68,0,0,0,.32-.38,7.45,7.45,0,0,0,.38-1.12,1.34,1.34,0,0,0,.35-.1,2.12,2.12,0,0,0,.58-.54,4.57,4.57,0,0,0,.7-1.53c.05-.21.14-.52.23-.8a3.61,3.61,0,0,0,.16-.59c.11-.88.21-1.54.26-1.74a1,1,0,0,0,0-.59.43.43,0,0,0,.12-.28c0-.1,0-.21,0-.32v-.2c0-.17-.06-.86-.14-1.74V18l-.49-.5.06.61c0,.57.14,1.52.14,1.67a1.76,1.76,0,0,0,0,.23v.16a.18.18,0,0,0-.05-.07A1.08,1.08,0,0,0,19.4,20c-.17-.14-.41-.32-.49-.41a6.14,6.14,0,0,1-.57-.81,4,4,0,0,1-.23-.79,6,6,0,0,0-.3-1.12c-.17-.56-.36-1.18-.47-1.51A8.45,8.45,0,0,0,15.75,13a1,1,0,0,0-.51-.34h-.3c-.24,0-.32.3-.37.5a.46.46,0,0,1,0,.09s0,.2-.1.39a7.79,7.79,0,0,1-.22.84,4.16,4.16,0,0,0-.21.86c0,.14,0,.31-.09.47s-.05.28-.07.38a4,4,0,0,1-.29.81l0,.06a1.5,1.5,0,0,1-.52.58.8.8,0,0,1-.51.17,1.56,1.56,0,0,1-.72-.23l-.28-.25a1.41,1.41,0,0,0-.25-.2c-.07-.06-.57-.68-.87-1.05L10,15.68a1.8,1.8,0,0,0-.51-.17H9.3l-.18,0a1.81,1.81,0,0,1-.19-.4A.74.74,0,0,1,9.11,15l.18-.13s0,0,.27,0l.59.12.24.06a6.49,6.49,0,0,1,.87.31c.49.19.8.3.89.32a2.07,2.07,0,0,0,.7,0c.25-.05.49-.33.79-.91s-.48-2.4-.49-2.42h0c0-.12-.4-1.52-.39-1.66s.14-.28.27-.28h0a2.81,2.81,0,0,1,.46.17l.56.22a7.74,7.74,0,0,1,1.56,1.12l.17.14c.06.05.44.52.78.94h0a3.9,3.9,0,0,1,.74.79,2.73,2.73,0,0,0,1.11.77l.18,0a1.84,1.84,0,0,0,.15.33l0,.09.33-.34a1,1,0,0,1-.09-.2A5.94,5.94,0,0,0,18.79,13.74ZM6,11a1.21,1.21,0,0,0-.35-.09.72.72,0,0,0-.41,0h0a3.37,3.37,0,0,0-.63.3l-.43.28L4,11.58c-.13.08-.61.4-.72.49a3.52,3.52,0,0,1-.64.34.41.41,0,0,1-.26.06l-.09,0c-.07,0-.14-.06-.19-.4a4.19,4.19,0,0,1,.3-1.3c0-.09.15-.27.25-.44s.17-.28.21-.36l0-.07a4,4,0,0,0,.3-.79A.62.62,0,0,0,3,8.39H3a.37.37,0,0,0-.14-.06A3.11,3.11,0,0,1,3.24,8l.48-.24a6.12,6.12,0,0,0,.58-.29A6.18,6.18,0,0,1,5.66,7h.25L6,7h.18a.4.4,0,0,1,0,.2,1.09,1.09,0,0,1,0,.22,1.4,1.4,0,0,1-.29.33c-.08.06-.29.16-.44.24a5.94,5.94,0,0,0-.58.36l-.23.16A3.24,3.24,0,0,0,4.14,9L4,9.11a2.74,2.74,0,0,0-.42.61s-.33.64-.11.82a.57.57,0,0,0,.31.1h.14l.13,0a2.31,2.31,0,0,0,.75-.06l.05,0,.46-.07.44-.07a7.2,7.2,0,0,1,1.07-.08h.06a.67.67,0,0,1,.24.1l.08,0a.82.82,0,0,1,.35.33,1.1,1.1,0,0,1,.08.48.25.25,0,0,1,0,.08,1.67,1.67,0,0,1-.1.4l0,.16a1.09,1.09,0,0,1-.17.4l-.14.22c-.05.09-.11.19-.19.31a.66.66,0,0,0-.16.38c0,.05,0,.11,0,.18a3.35,3.35,0,0,0,0,.34v.11s0,0,0,.06h0l-.11.06-.1,0,0,0,0-.05a1.41,1.41,0,0,1-.06-.51v-.15a2.22,2.22,0,0,1,0-.39c0-.05,0-.09,0-.12,0-.34.11-.92.1-1A.89.89,0,0,0,6,11ZM4.68,18.26h0l-.07-.18c-.09-.2-.19-.42-.26-.59s-.11-.24-.13-.29a2.52,2.52,0,0,1-.08-.44,3.66,3.66,0,0,0-.07-.42.1.1,0,0,1,0-.09,1.08,1.08,0,0,1,.44-.31,2.77,2.77,0,0,1,.58.12c0,.05.09.08.3.1s.57,0,.61.05l.17,0a1,1,0,0,1,.15.29h0a.21.21,0,0,1-.12,0,1.39,1.39,0,0,0-.19.06H5.9a1.07,1.07,0,0,0-.93.45.56.56,0,0,0-.18.44,1,1,0,0,0,.37.64C4.88,18.24,4.71,18.32,4.68,18.26Zm2.07-1.33a.37.37,0,0,0-.07.14l-.3.48a6,6,0,0,1-1,.54l-.22-.25-.06-.44A3,3,0,0,0,5.44,17a1.09,1.09,0,0,1,.28,0l.34,0,.16,0,.53-.19.09.12Zm.56-3.24a.87.87,0,0,1-.35.16c0-.07,0-.2.07-.29a1.89,1.89,0,0,0,0-.23,3.4,3.4,0,0,1,.38-.71l0,0,.24-.5a1.85,1.85,0,0,0,.13-1.13c-.11-.51-.84-.79-1-.82h0a10.74,10.74,0,0,0-1.56.19,4,4,0,0,1-.85.06.43.43,0,0,1-.4-.24c-.09-.15,0-.33.07-.52s.06-.13.08-.19.6-.6.8-.76l.13-.1A5.55,5.55,0,0,1,5.9,8.1a2.37,2.37,0,0,0,.54-.56,1.26,1.26,0,0,0,0-.6l.07-.05s.06,0,.21-.06L7,6.76A3.48,3.48,0,0,1,8,6.65a15.81,15.81,0,0,1,1.78.13l.23,0,.23,0a2.54,2.54,0,0,1,.94.23l.14.09a2.43,2.43,0,0,1-.29.22,1,1,0,0,1-.38.14l-.15,0a1.34,1.34,0,0,1-.49,0H9.83a3.83,3.83,0,0,0-.57,0H8.9c-.24,0-.64,0-.84,0a4,4,0,0,0-.64.17l-.07,0L6.87,8l-.1,0a1.75,1.75,0,0,0-.37.28l-.14.11a1,1,0,0,0-.26.4c0,.13.13.33.28.41a6.36,6.36,0,0,0,.79.33l.34.08.32.07a4.5,4.5,0,0,1,.6.18l.08,0a2,2,0,0,1,.63.31c.18.15.18.21.17.5V11c0,.29,0,.34-.1.43a1.65,1.65,0,0,0-.15.26.89.89,0,0,1-.25.34l-.11.1-.66.68a1.45,1.45,0,0,1-.19.17.57.57,0,0,0-.22.25h0A2.58,2.58,0,0,1,7.31,13.69Zm.81.07-.1,0H8l0,0H7.83a1.16,1.16,0,0,1-.31-.08,1.93,1.93,0,0,1,.31-.49c.06-.08.86-.83.91-.88l.45-.5h0v0s.2-.42.23-.53a3.21,3.21,0,0,0,0-1c-.06-.26-.54-.44-1.06-.6L8.12,9.6a5.54,5.54,0,0,0-.76-.22l-.18,0a3.71,3.71,0,0,1-.67-.4h0l0,0a.73.73,0,0,0,.11-.15,1,1,0,0,1,.42-.32l.07,0a4.67,4.67,0,0,1,.81-.28A9.7,9.7,0,0,1,9,8c.17,0,.91-.06,1.09-.06a4.31,4.31,0,0,0,.83-.09,3.73,3.73,0,0,0,.64-.42v0l.05,0c.23.09,1.12.43,1.45.54a4.48,4.48,0,0,1,1.24.77,7,7,0,0,1,1,1.08l.05.07a.33.33,0,0,0,.06.06v0h0l-.22,0L15,9.8h0c-.14,0-.55-.11-.68-.15a2.7,2.7,0,0,1-.38-.21c-.16-.09-.32-.19-.43-.24A2.93,2.93,0,0,1,13.12,9l-.33-.19a5,5,0,0,0-.89-.27l-.42-.1-.4-.1H11a4.59,4.59,0,0,0-.9,0l-.2,0a.82.82,0,0,0-.48.2l-.09.06a.2.2,0,0,0-.11.2A.63.63,0,0,0,9.3,9l.08.13a1.61,1.61,0,0,0,.45.51,1.12,1.12,0,0,1,.21.18l.12.14a2.19,2.19,0,0,1,.21.23c.13.14.24.26.35.36l.2.2a2.74,2.74,0,0,0,.25.27l0,0c.1.14.39.58.58.89h0a1.26,1.26,0,0,1,.1.38c0,.07,0,.16,0,.27s0,.19,0,.28a1.28,1.28,0,0,0-.11.21c-.07.17-.1.18-.2.21a1,1,0,0,0-.16.07,2.81,2.81,0,0,1-.59.13l-.15,0a.39.39,0,0,1-.18,0l-.17,0h-.17a6.76,6.76,0,0,0-.89.13c-.21,0-.36.09-.49.12h0l-.22.05-.13,0S8.35,13.79,8.12,13.76Zm1.17,2.15.12-.08h0a1.07,1.07,0,0,1,.42.29,13.5,13.5,0,0,1,1,1.27,4.37,4.37,0,0,0,.78.63l.14.1h0a1.8,1.8,0,0,0,.66.19h.1a1.66,1.66,0,0,0,.95-.47,5.74,5.74,0,0,0,.74-1.74c0-.05.09-.36.16-.62s.19-.71.21-.82.42-1.22.49-1.38h0a1.34,1.34,0,0,1,.27.1h0a5.87,5.87,0,0,1,.86.87c0,.07.39.69.44.8a4,4,0,0,0,.19.39l.21.42.2.64c.06.2.12.37.14.42s.05.21.1.41a13,13,0,0,0,.38,1.38c.1.19.3.46.42.64l.06.08a3.11,3.11,0,0,0,.41.4l.08.07a2.13,2.13,0,0,0,.28.2,1.86,1.86,0,0,1,.19.14l.09.08-.1,0,.17.27a.73.73,0,0,1,.06.48,17.84,17.84,0,0,0-.27,1.81c0,.07-.09.31-.15.52s-.19.6-.24.84a4.13,4.13,0,0,1-.6,1.32,2.32,2.32,0,0,1-.43.43l-.39.1-.13,0v0l-.17-.24a7.64,7.64,0,0,1-.4-1.09,8,8,0,0,1,0-1.09,8.43,8.43,0,0,1,.37-1.4,6.69,6.69,0,0,0,.24-1.55v-.05A10,10,0,0,0,17.27,19a12,12,0,0,0-.73-2.24c-.11-.16-.17-.22-.26-.23h-.05l-.06,0c-.12,0-.29.07-.56.21a2.72,2.72,0,0,0-.71.65c-.08.11-.25.29-.39.44l-.29.33c-.13.16-.44.54-.56.71s-.31.33-.5.53l-.32.33a5,5,0,0,1-.79.54,3.1,3.1,0,0,1-.88.14l-.22,0a.06.06,0,0,1-.06,0,1,1,0,0,1-.51-.37L10.3,20a2.54,2.54,0,0,1-.33-.77A1.84,1.84,0,0,0,9.9,19a4.15,4.15,0,0,1-.1-.69,4,4,0,0,0-.07-.56c-.07-.24-.44-1.18-.48-1.29a.91.91,0,0,1-.07-.14.35.35,0,0,1-.07-.2C9.12,16,9.22,16,9.29,15.91ZM9,16.7c0,.06.2.49.22.54s.27,1,.27,1.1.14.84.16.94a4.45,4.45,0,0,0,.68,1.19.94.94,0,0,0,.63.29,2.16,2.16,0,0,0,.57,0h.08a5.26,5.26,0,0,0,1.3-.59C13,20.08,14,18.94,14,18.84a10.68,10.68,0,0,1,.84-.9l.39-.33c.22-.19.52-.45.57-.48a.49.49,0,0,1,.35,0c.08,0,.19.32.25.49s.08.19.11.28a9.13,9.13,0,0,1,.4,1.7,13.94,13.94,0,0,1-.05,1.93,4.7,4.7,0,0,1-.25,1.14c-.05.06-.07.17-.1.44a6.81,6.81,0,0,1-.11.75,3.24,3.24,0,0,0,.16,1.48c0,.05,0,.1,0,.15a2.92,2.92,0,0,0,.49.82l0,.06.16-.09h0c-.14.48-.31,1-.36,1.13s-.17.2-.28.31a3.8,3.8,0,0,0-.49.59,3.77,3.77,0,0,1-.29.36,4.11,4.11,0,0,0-.48.63,8.54,8.54,0,0,1-1.08,1.19,5.46,5.46,0,0,1-.48.36l-.5.38a.45.45,0,0,1-.34.11h0l-.06,0h0a.2.2,0,0,0,0-.08,2.65,2.65,0,0,1-.11-.63c0-.14,0-1.68.07-1.95a10.68,10.68,0,0,1,.75-1.58l.76-.87.5-.75.47-.72h0a7.08,7.08,0,0,0,.25-.74c.1-.37.25-.93.35-1.52a2.72,2.72,0,0,0,0-1.3.87.87,0,0,0-.4-.56l-.1,0a3.52,3.52,0,0,0-.95.13l-.73.22-.63.19c-.13,0-1.31.44-1.45.51s-1.18.41-1.36.44a10.23,10.23,0,0,1-1.24,0H9a1,1,0,0,1-.4-.16l-.16-.09a1.68,1.68,0,0,1-.59-1,3,3,0,0,1,.18-1,9.73,9.73,0,0,0,.33-1l.16-.54a1.7,1.7,0,0,0,0-.54v-.24a2.43,2.43,0,0,0-.18-.66l.07-.1.3-.18A1.2,1.2,0,0,1,9,16.7Zm9.25-2.52a1.48,1.48,0,0,0-.26-.13,12,12,0,0,1-1.1-1.15c0-.06-.25-.31-.58-.7l-.36-.42a15.94,15.94,0,0,0-1.42-1.15l-.15-.11c-.11-.09-1.49-.57-1.57-.59h0c-.17,0-.31.25-.37.37s-.06.13.21,1.14A9.51,9.51,0,0,0,13,12.5a10.9,10.9,0,0,1,.4,1.84,1.27,1.27,0,0,1-.31.84.69.69,0,0,1-.35.14l-.18,0-.21.06h-.06a2.62,2.62,0,0,1-.71-.22c-.1-.06-1-.54-1.19-.58a8.11,8.11,0,0,0-.93-.18H9.35a.65.65,0,0,0-.51.1l-.08,0h0s0,0,0,0-.1-.42,0-.51a2.86,2.86,0,0,1,.84-.25l.12,0a7,7,0,0,1,.78,0h0a4.62,4.62,0,0,0,1-.11,1.53,1.53,0,0,0,.73-.43c.13-.17,0-.54-.08-.92a.58.58,0,0,1,0-.14,1.3,1.3,0,0,0-.16-.3c0-.05,0-.1-.06-.13a1.35,1.35,0,0,0-.21-.38,1.59,1.59,0,0,1-.11-.16,1.44,1.44,0,0,0-.22-.25c-.05-.07-.21-.32-.24-.35s-.31-.35-.54-.57A6.62,6.62,0,0,1,10,9.35l-.2-.24c-.1-.12-.07-.16,0-.3l0,0s0,0,.31-.07a4.73,4.73,0,0,1,.53,0H11a7.14,7.14,0,0,1,1.2.29,6.36,6.36,0,0,1,.9.38l0,0,.65.29.33.15a9.38,9.38,0,0,0,1.09.24.74.74,0,0,0,.2,0s.07,0,.12-.12a.66.66,0,0,0,.28.11,3.76,3.76,0,0,1,.5.53c.24.28.5.61.67.83a2.23,2.23,0,0,0,.2.26,15.8,15.8,0,0,1,.94,1.51c0,.08.07.22.25.69l.16.44Z"/>
  </g>
</svg>
