<svg id="stevnsfort" xmlns="http://www.w3.org/2000/svg" xmlns:xlink="http://www.w3.org/1999/xlink" width="304.8mm" height="19.75mm" viewBox="0 0 864 56">
  <defs>
    <style>
      .cls-1 {
        fill: #fff;
      }

      .cls-2 {
        fill: #39728d;
      }
    </style>
    <symbol id="Kalklandet_navn_hvid_3" data-name="Kalklandet_navn_hvid 3" viewBox="0 0 671.53 83.75">
      <g>
        <path class="cls-1" d="M15.27.17l2,2.34V35.45H21.5L47.22.17H60l2,1.76V8L38.28,42v1.63L63,75.42v6.33l-2.1,2h-13L23.71,53.51H17.24V82l-2,1.75H1.84L0,82V1.93L1.84.17Z"/>
        <path class="cls-1" d="M231.81.17l2,2.34V35.45H238L263.76.17h12.78l2,1.76V8L254.82,42v1.63l24.67,31.77v6.33l-2.09,2h-13L240.25,53.51h-6.47V82l-2,1.75H218.38L216.54,82V1.93L218.38.17Z"/>
        <path class="cls-1" d="M143.37,83.74h-17L122,64.18H91.67L87.23,83.74H70.12v-2.8L89.93.17h33.63l19.81,80.64ZM118.43,49l-7.49-34.5h-8.26L95.09,49Z"/>
        <path class="cls-1" d="M205.43,69V82L203,83.74H154.81L153,82V2.05l2-1.88h14l2,1.76v65.4h32.43Z"/>
        <path class="cls-1" d="M389.59.05H365.38l-19,82.64v.94h10.48l5.39-23.45H392.7l5.39,23.45h10.45V82.57q-9.68-41.14-19-82.52ZM364.38,51l9.41-42.2h7.39L390.59,51Z"/>
        <path class="cls-1" d="M521.53.05H492.66L491.48,1V82.81a7.57,7.57,0,0,0,.94.94H522c18.41,0,22-15.13,22-22.39v-39C544,15.17,540.41.05,521.53.05ZM534.44,61c0,11-7.18,13.16-12,13.16H501.2V9.8h21.15c4.79,0,12.09,2.19,12.09,13.16Z"/>
        <path class="cls-1" d="M474.47.05h-8.39l-.94.82V68.74l-2-6L432.62.05h-12l-.93.93V82.69l.93.94h8.51l.82-.94V15.4l1.75,5.39,30.42,62.72,12.32.12.82-1.06V.87Z"/>
        <path class="cls-1" d="M649,83.63l.94-.94V10.51h20.39l1.18-1.17V.87l-.82-.82H620l-.82.93V9.69l.82.82h19.63V83.63Z"/>
        <path class="cls-1" d="M339.79,73.48H303.21V1a4,4,0,0,1-.59-.93h-9.37l-.82.93V82.69l.82.94h46.54l.82-.94V74.42Z"/>
        <g>
          <polygon class="cls-1" points="558.36 35.32 558.36 47.05 603.85 47.05 604.67 46.05 604.67 36.21 603.85 35.32 558.36 35.32"/>
          <polygon class="cls-1" points="558.36 72.35 558.36 82.46 559.54 83.63 606.54 83.63 607.36 82.69 607.36 73.41 606.43 72.35 558.36 72.35"/>
          <polygon class="cls-1" points="606.23 0 558.99 0 558.05 0.82 558.05 11.73 567.32 11.73 567.32 11.73 606.12 11.73 607.05 10.79 607.05 0.82 606.23 0"/>
        </g>
      </g>
    </symbol>
    <symbol id="New_Symbol_16" data-name="New Symbol 16" viewBox="0 0 111.11 117.28">
      <polygon class="cls-2" points="1.23 0 109.87 0 111.11 1.23 111.11 9.26 64.81 55.56 64.81 61.73 111.11 108.02 111.11 116.05 109.87 117.28 1.23 117.28 0 116.05 0 1.23 1.23 0"/>
    </symbol>
  </defs>
  <title>logo-koldkrig</title>
  <g>
    <path class="cls-1" d="M61.13,13.5v.31l4.92,6.25v.67l-.14.16H64.66c-1.81-2.09-3.32-4.15-5-6.27H58.29v6.11l-.15.16H56.77l-.15-.16V6.26l.17-.17h1.35l.15.17V13h1.14l4.84-6.93h1.22a.88.88,0,0,0,.12.17v.62Z"/>
    <path class="cls-1" d="M72.3,21.18c-3.3,0-4.61-1.91-4.61-3.92V9.6c0-1.85,1.24-3.9,4.63-3.9s4.61,1.93,4.61,3.92V17.3C76.93,19.27,75.62,21.18,72.3,21.18Zm3-11.54c0-1.89-1.31-2.41-3-2.41-1.85,0-3,.58-3,2.41v7.62c0,1.91,2,2.39,2.86,2.39h.29c.85,0,2.81-.4,2.81-2.37Z"/>
    <path class="cls-1" d="M87.89,19.44v1.29l-.15.16H79.5l-.15-.16V6.26l.15-.17h1.39a.75.75,0,0,0,.1.17v13h6.75Z"/>
    <path class="cls-1" d="M98.89,10v6.92a3.74,3.74,0,0,1-3.91,4H90s-.14-.14-.16-.16V6.24l.2-.17H94.9A3.75,3.75,0,0,1,98.89,10Zm-1.62.07a2.08,2.08,0,0,0-2.2-2.37H91.52V19.27h3.57a2.07,2.07,0,0,0,2.18-2.36Z"/>
    <path class="cls-1" d="M105.81,13.5v.31l4.92,6.25v.67l-.14.16h-1.25c-1.8-2.09-3.32-4.15-5-6.27H103v6.11l-.15.16h-1.37l-.14-.16V6.26l.16-.17h1.35l.15.17V13h1.14L109,6.09h1.22a1,1,0,0,0,.13.17v.62Z"/>
    <path class="cls-1" d="M122.67,20.89h-1.41l-3.7-6.41-1.49,0-.92-.54v6.83l-.18.16H113.7l-.19-.16V6.24l.15-.15h4.88c3.09,0,3.82,1.77,3.82,3.72V11c0,.85-.36,3.49-3,3.49l3.4,5.85v.46Zm-4.34-7.84c1.74-.05,2.37-.52,2.37-2.12V9.87c0-1.64-.67-2.14-2.2-2.14h-3.35v5.32Z"/>
    <path class="cls-1" d="M127.14,20.73l-.15.16h-1.32l-.17-.16V6.26l.17-.17H127l.15.17Z"/>
    <path class="cls-1" d="M137.41,14.19l.83-1h.85c0,2.14,0,6.75,0,7.52l-.19.18-1.51,0v-.7l-2.83.87c-3.82,0-4.48-1.81-4.48-4.22v-7c0-1.29.6-3.9,4.53-3.9,3.59,0,4.42,1.22,4.48,3.52l-.17.19h-1.3l-.19-.19c-.13-1.66-.89-1.9-2.82-1.9-1.46,0-2.91.27-2.91,2.32v6.93c0,2.06.83,2.56,2.91,2.56l2.78-.06Z"/>
    <path class="cls-1" d="M150.83,17.16c0,2.65-1.23,4-4.65,4s-4.47-1.39-4.53-3.65l.17-.15h1.33l.14.15c.09,1.47,1.06,2,2.87,2,2.43,0,3.05-.6,3.05-2.41A2,2,0,0,0,147.94,15c-1.28-.67-2.55-1.25-4.11-2a3.22,3.22,0,0,1-1.93-3.34c0-2.18,1.06-3.74,4.3-3.74s4.36.9,4.44,3.53l-.16.17h-1.35L149,9.41c0-1.49-.54-1.91-2.76-1.91s-2.68.77-2.68,2a2,2,0,0,0,1.29,2.11c1.08.5,2.68,1.21,3.73,1.71C150.08,14.06,150.83,14.81,150.83,17.16Z"/>
    <path class="cls-1" d="M164.86,6.24V20.73l-.17.16h-1.35l-.14-.14v-12l-.31,1c-1,2-2.14,4.34-3.1,6.38h-1.41l-3.07-6.38-.35-1v12l-.17.14h-1.31l-.18-.16V6.26l.14-.17h1.91l3.74,7.68,3.69-7.68h1.93Z"/>
    <path class="cls-1" d="M176.78,6.24V17c0,2.78-1.39,4.13-4.61,4.13s-4.63-1.37-4.63-4.15V6.26l.14-.17H169l.17.17V17c0,1.91,1.12,2.63,3,2.63s3-.78,3-2.63V6.26l.14-.17h1.33Z"/>
    <path class="cls-1" d="M188.37,17.16c0,2.65-1.22,4-4.65,4-3.28,0-4.46-1.39-4.52-3.65l.16-.15h1.33l.15.15c.08,1.47,1.06,2,2.86,2,2.43,0,3.05-.6,3.05-2.41A2,2,0,0,0,185.49,15c-1.29-.67-2.56-1.25-4.11-2a3.22,3.22,0,0,1-1.93-3.34c0-2.18,1.05-3.74,4.29-3.74s4.36.9,4.45,3.53L188,9.6h-1.35l-.17-.19c0-1.49-.54-1.91-2.76-1.91s-2.67.77-2.67,2a2,2,0,0,0,1.28,2.11c1.08.5,2.68,1.21,3.74,1.71C187.63,14.06,188.37,14.81,188.37,17.16Z"/>
    <path class="cls-1" d="M190.84,20.68V6.24l.17-.15h8.36l.15.15V7.56l-.17.17h-6.87v4.53h6.42l.14.14v1.33l-.14.17h-6.42v5.37h6.87l.17.19v1.27l-.15.16h-8.32Z"/>
    <path class="cls-1" d="M211.28,6.24V17c0,2.78-1.39,4.13-4.61,4.13S202,19.73,202,17V6.26l.15-.17h1.32l.17.17V17c0,1.91,1.12,2.63,3,2.63s3-.78,3-2.63V6.26l.14-.17h1.33Z"/>
    <path class="cls-1" d="M225.46,6.24V20.73l-.17.16h-1.35l-.15-.14v-12l-.31,1c-1,2-2.13,4.34-3.09,6.38H219l-3.07-6.38-.36-1v12l-.16.14h-1.31l-.19-.16V6.26l.15-.17H216l3.73,7.68,3.7-7.68h1.93Z"/>
    <path class="cls-1" d="M63.39,30.6c1.64.75,2.41,1.56,2.41,4,0,2.8-1.26,4.21-4.82,4.21-3.4,0-4.62-1.53-4.69-4l.44-.42h1.56l.43.42c.06,1.18.85,1.62,2.24,1.62,2,0,2.45-.46,2.45-1.83a1.51,1.51,0,0,0-1-1.6c-.44-.21-2.49-1.22-3.82-1.89a3.4,3.4,0,0,1-2.1-3.55c0-2.3,1.1-3.92,4.49-3.92s4.52,1,4.6,3.9l-.41.44H63.56l-.4-.5c0-1.19-.37-1.48-2.15-1.48s-2.08.54-2.08,1.46a1.6,1.6,0,0,0,1,1.6Z"/>
    <path class="cls-1" d="M70.91,38.54V26.18H67.75l-.41-.41V24.19l.41-.46h8.78l.4.44v1.54l-.46.47H73.34V38.1l-.42.44Z"/>
    <path class="cls-1" d="M78.78,38.06V24.17l.44-.44h8.2l.39.44v1.56l-.41.43H81.21v3.39H87l.42.41v1.58L87,32H81.21v4.2h6.23l.37.47V38.1l-.39.44H79.26Z"/>
    <path class="cls-1" d="M101.09,24.19V25L97.23,38.54H93.47c-2.78-10-3.38-11.86-3.82-13.44v-.87l.44-.5h1.72l3.43,12.42h.2l3.47-12.42h1.72Z"/>
    <path class="cls-1" d="M112.67,24.19V38.06l-.33.48H110.1L105.82,30l-.52-1.24V38.1l-.41.44h-1.56l-.43-.44V24.21l.43-.46h2.08l4.38,8.72.5,1.39V24.19l.43-.44h1.58Z"/>
    <path class="cls-1" d="M121.94,30.6c1.64.75,2.41,1.56,2.41,4,0,2.8-1.27,4.21-4.82,4.21s-4.63-1.53-4.69-4l.43-.42h1.56l.44.42c.06,1.18.85,1.62,2.24,1.62,1.95,0,2.45-.46,2.45-1.83a1.52,1.52,0,0,0-1-1.6c-.43-.21-2.49-1.22-3.82-1.89a3.41,3.41,0,0,1-2.09-3.55c0-2.3,1.1-3.92,4.48-3.92s4.53,1,4.61,3.9l-.42.44H122.1l-.39-.5c0-1.19-.37-1.48-2.16-1.48s-2.08.54-2.08,1.46a1.61,1.61,0,0,0,1,1.6Z"/>
    <path class="cls-1" d="M126.59,38.54V24.17l.44-.44h8.2l.39.44v1.56l-.41.43H129v3.39h5.75l.42.41v1.58l-.42.41H129V38.1l-.43.44Z"/>
    <path class="cls-1" d="M142.38,38.83c-3.42,0-4.75-2-4.75-4.16v-7.2c0-1.95,1.27-4.09,4.78-4.09,3.34,0,4.77,2,4.77,4.11v7.23C147.18,36.79,145.83,38.83,142.38,38.83Zm2.37-11.32c0-1.41-1.06-1.83-2.34-1.83-1.48,0-2.39.46-2.39,1.83v7.16c0,1.46,1.56,1.81,2.24,1.81h.27c.66,0,2.22-.27,2.22-1.79Z"/>
    <path class="cls-1" d="M158.65,38.54H156.9l-3.49-6h-1.16l-.39-.4v6l-.42.44H149.8l-.35-.44V24.17l.42-.44h4.75c3.24,0,4,1.89,4,3.95v1.08c0,.81-.25,3.21-2.52,3.63.56,1,1.15,2,1.73,3l1.22,2.07v.71Zm-4.24-8.25c1.33,0,1.79-.37,1.79-1.55v-1c0-1.2-.48-1.58-1.62-1.58h-2.72v4.13Z"/>
    <path class="cls-1" d="M164.34,38.54V26.18h-3.16l-.41-.41V24.19l.41-.46H170l.4.44v1.54l-.46.47h-3.13V38.1l-.42.44Z"/>
  </g>
  <use width="671.53" height="83.75" transform="translate(56.51 42.99) scale(0.09)" xlink:href="#Kalklandet_navn_hvid_3"/>
  <use width="111.11" height="117.28" transform="translate(6.24 5.95) scale(0.38)" xlink:href="#New_Symbol_16"/>
  <g>
    <path class="cls-1" d="M4.19,29.06h0v0L4.3,29s0,0,0-.05Z"/>
    <path class="cls-1" d="M38.7,37.22l-.05,1.27c-.34.07-.86.16-1.56.24v-.08l.1-2.94-.1-.11L37,38.66v.08c-.43,0-.94.08-1.51.11l.08-4.46a5.92,5.92,0,0,1,.62.3L35.49,34c-.44-.18-.91-.35-1.43-.52A36.34,36.34,0,0,0,27.78,32h-.05l0,0,0,0-.13,0,0-.1-1.07-.37-.06.28-.22,0a45.46,45.46,0,0,1-5.49-1.35.48.48,0,0,0,0-.21v-.06a.25.25,0,0,1,.11,0,.32.32,0,0,0,.21,0l.06,0,0-.09a.27.27,0,0,0-.1-.17V24.26L20.69,24l-.12-1.1-.23-.08a3.34,3.34,0,0,0-.71-.26c-.07.11,0,.46-.08.54l-.06,0v.06c-.16,0,0,.51-.07.73a.69.69,0,0,0,.07-.24v.24l-.17.12a.49.49,0,0,1,0-.12c-.2.17-.11.61-.11.9,0,1.4-.05,3.12-.07,4.56,0,.21.12.11.14.23s-.05.14,0,.28,0-.31.14-.28.09.41.25.45,0-.36,0-.51c-.14,0-.17-.07-.29-.06a.15.15,0,0,0,0-.06l1.27.38a2.77,2.77,0,0,0,0,.3,1.79,1.79,0,0,1,0,.24l-.33-.1-.08,0h0l-.61-.2h0c-.81-.26-1.32-.44-1.33-.45a64.79,64.79,0,0,1-7.41-3.47,6,6,0,0,0-4.51-1v.35a4,4,0,0,1,1-.14h0L7,30.59l-.53,0,0,.06-.21-.17v.19l.14.11L6.24,31v.27l.24-.46c.15.13.32.25.5.38v2.72c-.27-.26-.52-.52-.74-.76v.2c.23.25.48.51.75.77l.08,1-.83-1.62v.27L7,35.22c-.25-.25-.48-.5-.71-.75v.41a39.44,39.44,0,0,0,5.87,5.06h0l.49.32a28.37,28.37,0,0,0,2.58,1.46l.41,3.64L17,47.22l2,2.59H17.69v.53h9v-.53h-1.1l2.67-4.69.05.12.35-.82h0l.18-.31,0,0c5.08-.38,9.49-2,10-2.64s.74-2.16.25-3.82Zm-19-14.12v0ZM7,31c-.11-.08-.21-.17-.32-.24H7ZM38.8,37.44l.09.26a6.46,6.46,0,0,1,.17.7l-.3.07Zm-.15,1.22,0,1.38-1.44.33L37.1,38.9C37.79,38.82,38.31,38.73,38.65,38.66ZM37,38.91l.09,1.48c-.46.1-1,.21-1.54.31L35.48,39C36.05,39,36.56,39,37,38.91Zm-3-5.1h0c.45.14.88.29,1.26.45L34,35Zm0,1.4,1.46-.84-.08,4.45a15.12,15.12,0,0,0-1.44-.76Zm-.18,3.84L33.92,41c-.48.08-1,.15-1.51.21V39Zm-1.39-.2v0l0-1.21c.51.21,1,.41,1.36.59l0,.69Zm1.53,2.3.26,1-1.66-.43-.09-.37C33,41.3,33.46,41.23,33.94,41.15Zm0-2.1H34c.5,0,.95,0,1.38,0l.07,1.7c-.45.08-.92.17-1.41.24Zm0-.81c.55.26.95.48,1.2.62-.38,0-.78,0-1.22,0Zm-1.36-4.86c.41.11.84.24,1.33.4l0,1.31-1.38.8Zm1.3,1.9,0,2.73c-.39-.18-.84-.38-1.36-.58l0-1.35ZM32,33.23l.41.12L32.38,36l-.5.3Zm-.17,3.21.51-.3,0,1.25c-.16-.07-.33-.14-.51-.2Zm-.13,2.37.08-1.45.52.2,0,1.25v0l-.56,0Zm-.14-5.69-.18,3.39-.49.29L31.05,33Zm-2.45,6.3.23-.59,0,2.66-.57,0,0-.39.18-1Zm-.08-1.59.05-1.33.26.07v1.32Zm.34,3.83.12.55-.77.45.06-1Zm.08-3.75V36.6c.47.13.91.27,1.33.41v1.74l-1.33-.12v-.48l0-.23Zm0-1.49.09-1.36,1.16,1.75Zm0,5.23q.57,0,1.11-.09l-1,.59Zm0-.17,0-2.68,1.33.12L31,41.31v0C30.48,41.41,30,41.45,29.51,41.48Zm1.88-4.28-.09,1.58h0l-.37,0V37Zm-.34-.29.36-.21V37Zm-.12,2,.38,0,.12,2.35-.36,0v-.06Zm0-6-.12,3.73L29.6,34.84l.14-2.12Q30.35,32.83,30.94,33Zm-2.61-.48,1.3.22-.13,2-1.2-1.8ZM26.64,39l.63-.4.21.51,0,.46-.21,1.1-.52.56v.06l-.27.27h0l-.14-2.5.3-.21Zm-4,7.06.25-.24.75,1.23-.21.33H23.4l0,0Zm-2-.55-1.59-.29-.53-.79L21,45ZM21,46.9l-.33.32-.22,0L19.64,46l1,.19Zm-2.87-3.24-.19-.79a22.53,22.53,0,0,0,3.64.91l-.27.54Zm-.85-1.76L17.15,40q.5.18,1,.33l.12,1-.74.87Zm.19.42,0,0-.15-.05v-.17Zm-1.61-9.16,1-.61-.07.93v.06C16.47,33.42,16.15,33.29,15.85,33.16Zm1,.56V34l-.6-.5Zm0,.46,0,1.69-.08,0,0-.07-.91-2.39Zm-.19,1.58,0,0-.85-.29v-2Zm-.09.2-.75,1.64,0-1.88v0Zm.11,0,.15,0,.07,1-1.07,1.3v-.48Zm.23,1.27L17,39.78c-.43-.14-.83-.29-1.23-.44v-.75Zm6-1.93v.38l-1.25.66v-.15Zm-1.23.7L21.68,35l1.11.22Zm1.24-.15,0,1v.7l-1.33-.31,0-.67Zm3.64,2.33-.23,0,0-.89.17.25,0,.37Zm0,.18.05.29-.28.2,0-.52h0Zm.05,5,.06.43h-.32Zm0-1.07.19-.2v.05l-.17.28Zm-.68,1.24h-.55v-.05l1.14-1.1,0,.19Zm-.63.69,0-.12h.31v0Zm.11.14,0,0v0Zm-2.62-3-.87,1.75-.2-1.94C22,41.32,22.37,41.39,22.73,41.44Zm-1.08-.37,0-2.06,1.31,2.26v0C22.49,41.24,22.06,41.16,21.65,41.07Zm.58,2.81c.55.08,1.11.13,1.69.18l-1.54,1.5-.51-.86Zm1.13-6.25L23,37.56l0-1.29v-.44l.55-.3v.27Zm.21-.86v.91l-.11,0Zm-.53,1,.31.06-.28,2.68,0-1.54Zm.41.09.13,0,.08,2.48-.54.74Zm.22,2.72v.2l-.33.24Zm0,.39v.46l-.57-.07Zm1.12-1-1,.72v-.28l1-1.31Zm0-4.06-.65-.46.39.06.27,0Zm1.4,2.45v0l0,.59-1.29.92-.05-.94.54-.73Zm-.65-.28.68-.92h0l0,1Zm-1.27,5.68h0l.05-.06-.06-.1-.4-2c.36,0,.72.07,1.09.09l.18,1.22Zm.77.6-.92.35.6-.58h.23Zm-1-1.17-.8-1.56,0-.09.43,0Zm.81-4.44,0-.63.44.08Zm0,2.7v.08c-.36,0-.72-.06-1.08-.09l0-.57,1-.72Zm-1.11-1.25-.08-2.3,1,.2,0,.79Zm-.6,1.58.95,1.87,0,.1-.58,0-.43-1.85ZM23.8,45l1.28-.49.08.2-.58.92h0l-1.1-.28ZM25,41.69l1.27.05-1.1,1.07Zm0-.17v-.11l-.08-1.35,1.29-.92.13,2.43Zm1.24-5.9-1.36-.24v-.06l.05-.81,1.28-1,.06,1.55Zm0,.18,0,1,0,.13L24.87,36l0-.42C25.32,35.62,25.74,35.69,26.24,35.8Zm-.14,1.25-.73,1-.55-.1.05-1.77Zm-1.32-1.74v0l-.26,0L24,35.23l.82-.63Zm0,.77-.05,1.83-1-.21,0-2,0-.29.06,0,0,0Zm-1.2-.92L23,35.07l.69-2.48Zm0,.17v0l-.56.3v-.42ZM23.06,42l.38,1.65c-.36,0-.71-.07-1.06-.12Zm-.14-1L21.6,38.74l0-1.34,1.33.31V41Zm-1.16,2.38,0,.07-1-.17L20.5,41l1,.24Zm-.27-6.76,0,.57L20.77,37h0Zm-.62.14.63-.45v.12Zm-.12.43.71.17,0,1.16-.78-1.34Zm.74,1.6,0,2.25-1.05-.25-.05-3.54,0-.09.05,0h0Zm0-2.68-1.08.78,0-2.17,1.11.23Zm-.87,7.14c-.29-.06-.59-.12-.88-.2h0l-.33-2.35.93.24Zm-3-6.94.28.09.23,3.72v0c-.34-.1-.68-.21-1-.33L17,37.14Zm-.68.62-.05-.86.59.2Zm.8-.76.17-.21v.26Zm1.37.59,1.18.31h0v.15l-1,2.41Zm.16,3.72-.14,0,.12-.28,0,.27Zm-.16-3.9,0-.46.84.7Zm0-2.14v0h0Zm0,0v0l-.07,1.34-.62-.51Zm-.8.76L18.08,35l0-.89.91.25Zm-.09.12-.18.22v-.36Zm.11.09.7.58,0,.52-1-.29,0-.45Zm-.32,1,1,.29h0l.24,3.16-.21.52-.77-.23V40.1Zm.91,4.12-.55.66-.1-.85Zm.15,0,.23.07L19.65,43l-1.09-.31-.15-1.32Zm.33-.08v-.11l0-.49.95-2.37,0,3.22Zm.89-3.62L19.17,36l.08-1.42v-.07l1.07.25Zm-1.15-2.64c-.37-.09-.71-.19-1-.28l.18-2.26.34-.21.73.35ZM18,34c-.4-.12-.76-.24-1.1-.37v-.09l.08-1,1.19-.7Zm0,.17L18,35l-1.06-.88v-.32C17.26,33.88,17.62,34,18,34.12Zm-.05,1,0,.59-.33.41-.71-.23,0-1.64ZM17,40l.11,1.8-1.26-1.42-.07-.82C16.21,39.67,16.62,39.82,17,40Zm.12,2,0,.26c-.39-.15-.78-.32-1.17-.49l-.1-1.18Zm1.15-.46.14,1.16-.62-.2v-.07l-.06,0-.12-.13Zm-.48,2.86L18,45l-1-.17Zm3.65.66h0l.52.88-.64.61-.29-.65Zm.82,1.39.56,1H22l-.25,0-.12-.27Zm.9-.66,1.18.15-.55.88Zm1.63.42.29.47-.46.72h-.48l-.05-.08ZM25,46l0-.05.51.13-.26.4Zm.12-.2.29-.47.24.57,0,0Zm.45-.72.53-.84.32.47-.61.94Zm.83-.87h.34l-.17.25Zm.29-.91,0-.06v0l.13.56-.07,0h0Zm-.18-5.91-.19-.26v-.26l.28-.88Zm0-1.49-.17.54,0-.57Zm-.34-3.74.18,0-.14.73v.47l-1.26,1,.14-2.4ZM25,31.89l-.15,2.51-1,.8-.13-.09.83-3.32Zm-.58-.13-.65,2.62L24,31.67Zm-.62-.15,0,.43L23,34.81l.18-3.35Zm-1.84-.48,1.1.3-.18,3.41-.45-1.13-.57-1.17Zm.38,2.68L22.8,35l-1.12-.22h0l.14-2Zm-.5-2.71,0,.59L21,30.87Zm-1.19,1.15,1,.11h0l.11.22-.15,2.2h0l-1.11-.23Zm-1.13-.34.56.27.45,0-.17,2.3-1.07-.24Zm0-1.52,0,.37-.77-.1-.16.76-.18.1.12-1.46Zm-1.35-.45.23.08-.13,1.57-1.19.7.21-2.66C17.56,29.76,17.86,29.87,18.11,29.94Zm-1-.36-.22,2.78L15.76,33,16,29.1C16.4,29.28,16.78,29.45,17.12,29.58ZM14.7,28.49c.4.2.81.39,1.2.57l-.24,3.76-1-3.57Zm-.29,9.3,0-2.63.22.09L14.91,39l0,0Zm.31,1.11-.3-.13v-.64ZM14.37,35l.07-1.56.14,1.64Zm.34.31.61.23-.34,3Zm0-.18-.2-2.38h0l1.07.49-.24,2.13Zm1-1.46v1.81l-.19-.07Zm0-.6-1.07-.48-.07,0h0l.17-2.94Zm-1-4.62,0,.48-.16-.57Zm-1.15-.56.61.3-.65.31Zm.8.39h0l.28,1-.17,3.22L13.19,32v-.07l.2-3.23Zm.06,9.58v.87c-.44-.2-.87-.4-1.27-.6l0-3.37Zm-1.15-3.19,1.11.46,0,2.39Zm1.11.29-1.12-.47,0,0,1.25-1.7Zm-1.19-.69.11-2.1c.38.15.73.31,1.09.48Zm-.22-6.68.48.24,0,.73-.53.25ZM12.75,29l.53-.26-.2,3.16v.05l-.54-.21Zm.32,3.12L13,34.32l-.57-.51.14-1.91Zm-.37,2.35-.33.1v-.25Zm-.33-.33V34l.32.28Zm.54.45-.54,1.74V34.74Zm-2.24-8.13.65.34-.19,2.8-1.32.64.31-4.08C10.3,26.24,10.49,26.34,10.67,26.45ZM9.51,32.66c-.4-.23-.77-.45-1.12-.67l.07-1.07L9,31l.63.55Zm0,3.55Zm0-.2-.44-.31.44-.13Zm1.41-3.49L9.71,31.45l0-.32c.4.08.82.18,1.27.3ZM11,33.63q.45.24,1,.48v.58l-1,.3Zm-.06-.92-.05.69h0l-1.24-.67v0l.08-1ZM9.64,30.94,9,30.82H9l.7-.34Zm-.4.1.39.07,0,.25Zm.38,4.5,1.18-.34-.06,1.63c-.4-.25-.78-.49-1.12-.74ZM10.75,37l.06.47L9.64,36.33v0C10,36.54,10.35,36.78,10.75,37Zm.05-2-1.18.35V32.91c.38.22.8.44,1.24.67Zm.11.14,1-.3v2.67l-1.09-.63h0Zm1,2.55v0l-.21.66.1.07L12,38l.05.62-1.06-1-.07-.51C11.21,37.3,11.56,37.51,11.93,37.71Zm0-3.78-1-.47v-.05l0-.61.94.83ZM11,31.26q-.67-.18-1.26-.3l0-.55,1.33-.63ZM10,26.1l-.32,4.18-.86.42-.36,0,.3-5.07A6.31,6.31,0,0,1,10,26.1Zm-2.58-.73a5.58,5.58,0,0,1,1.23.19l-.3,5.11-1.24-.08Zm-.32,5.42c.3,0,.72,0,1.24.11l-.06,1q-.66-.42-1.2-.81Zm0,.5c.36.26.75.53,1.19.81l0,3c-.33-.27-.63-.53-.91-.78L7.09,34h0Zm0,3,.21.2c.3.28.63.56,1,.85v.23L7.2,35.41Zm.22,1.34,1,.11.05.89C8,36.26,7.67,35.93,7.33,35.59Zm1.06-3.42c.35.22.72.45,1.11.67V35.4l-.6.18-.5-.39Zm0,3.22.21.17-.2,0Zm.08,1.3-.06-1,.4,0,.69.68.15,1.27C9.3,37.38,8.9,37,8.51,36.69Zm1.3,1.12-.14-1.25,1.17,1.16.14,1C10.61,38.45,10.21,38.14,9.81,37.81Zm1.29,1-.13-1,1,1,.06.65ZM12,33.45,11,32.62l.08-1.16.37.1.62.19Zm.14-1.87-.61-.19-.38-.1.11-1.57,1.06-.51Zm-.87-2,.19-2.69,1.06.55h-.07L12.3,29Zm1.13,8.15v-1L13,34.84l0,3.22-.56-.28Zm0,.27.54.28.1,1.44-.54-.54Zm.31,2-.15-.09-.05-.5.55.54,0,.28C12.94,40.11,12.82,40,12.7,40Zm.48.3V40l.58.57Zm1.05.61L13.15,39.8l-.1-1.5c.4.21.83.41,1.28.6l.16,1.46-.25.51Zm.12.07.17-.34.05.45Zm.09-2,.36.16.13.32,0,0,0,0-.35.7Zm.25,2.16-.08-.71.36-.73h0l.19,1.68Zm.42-2h0L15,39l.39-3.46.21.08v.07l0,2.11Zm.57-.94v.39l-.41.5Zm-.33,1,.34-.41v.57l-.33-.13Zm0,.21.32.13.07.73-.34-.37Zm.08.73.33.37.11,1.26-.27-.12ZM16,44.66,15.67,42c.53.25,1.06.47,1.6.67l.35,1.15-1.55.9Zm1.29,2-.95-1.28,1.85.33.29,1.19-1.12-.15Zm.65.85.71.1.31,1.25Zm1-.55-.28-1.16.25,0,.82,1.21Zm.18.71,1,.13-.58,1.46Zm.71,2.1.57-1.43.29,1.43Zm.94-1.88.71.09.11.24-.52,1.17Zm.67,1.88.42-1,.42,1Zm.89,0,.19-.2.12.2Zm-.13-1.73h2l-1,1.63ZM25,49.81H23.72l.94-1.46h1.16ZM24.88,48l.54-.84.51.85Zm1.24-.18-.55-.9.47-.74h1Zm.14-2,.47-.72.5.73Zm1.12-.24-.5-.73.32-.48.71-.07.08.2Zm.76-12-.09-.1-.29-.91v-.23h0l.38.56Zm.06-.88L28,32.42l.23,0Zm0,1,.05-.62,1.19,1.81-.09,1.36L29,34.46Zm.45,10,.06-.89.81-.48.26,1.28C29.45,43.69,29.07,43.72,28.69,43.74Zm1.24-.11-.27-1.32L31,41.54l.3,1.91Q30.62,43.56,29.93,43.63Zm1.46-.19-.29-1.9.38.1.35,1.73ZM31.75,39l.55,0v2.2l-.43,0Zm.15,2.45.44,0,.08.32-.49-.12Zm.37,1.86L32,41.76l.51.13.33,1.29Zm.64-.13-.32-1.24,1.66.42.13.49C33.91,42.94,33.42,43.06,32.91,43.16Zm1.58-.36-.11-.42.85.22Zm1.06-.3-1.22-.31-.28-1.06,1.4-.24.3,1.55Zm.27-.08h0l-.3-1.54c.57-.1,1.09-.21,1.55-.31l.29,1.31A16.62,16.62,0,0,1,35.82,42.42Zm2.9-1.26a4.09,4.09,0,0,1-1.21.67l-.29-1.29,1.41-.33.19.82A.64.64,0,0,1,38.72,41.16Zm.19-.26-.17-.71.42-.11A2.47,2.47,0,0,1,38.91,40.9Zm.27-1-.44.11,0-1.37.34-.08A5.26,5.26,0,0,1,39.18,39.9Z"/>
  </g>
</svg>
