<svg id="stevnsfort" xmlns="http://www.w3.org/2000/svg" width="98mm" height="120.28mm" viewBox="0 0 277.8 340.96">
  <defs>
    <style>
      .cls-1 {
        fill: #fff;
      }
    </style>
  </defs>
  <title>kalk_logo_burgermenu</title>
  <polygon class="cls-1" points="11.31 6.67 266.37 6.67 269.28 9.57 269.28 28.41 160.58 137.11 160.58 151.6 269.28 260.29 269.28 279.13 266.37 282.03 11.31 282.03 8.41 279.13 8.41 9.57 11.31 6.67"/>
  <g id="Kalklandet_navn_hvid_4" data-name="Kalklandet_navn_hvid 4">
    <g>
      <path class="cls-1" d="M14.29,296.33l.76.92v12.8h1.66l10-13.72h5l.76.69v2.37L23.23,312.6v.64l9.6,12.35v2.46l-.82.78H27l-9.38-11.76H15.05v11.07l-.76.69H9.07l-.72-.69V297l.72-.69Z"/>
      <path class="cls-1" d="M98.48,296.33l.76.92v12.8h1.66l10-13.72h5l.76.69v2.37l-9.21,13.21v.64l9.6,12.35v2.46l-.82.78h-5.06l-9.38-11.76H99.24v11.07l-.76.69H93.26l-.72-.69V297l.72-.69Z"/>
      <path class="cls-1" d="M64.09,328.83H57.48l-1.71-7.61H44l-1.73,7.61H35.61v-1.09l7.71-31.41H56.39l7.7,31.36ZM54.4,315.32l-2.91-13.41H48.27l-3,13.41Z"/>
      <path class="cls-1" d="M88.22,323.09v5.05l-1,.69H68.54l-.72-.69V297.06l.77-.73H74l.77.69v25.43H87.41Z"/>
      <path class="cls-1" d="M159.82,296.29h-9.41L143,328.42v.36h4.07l2.1-9.11H161l2.1,9.11h4.06v-.41q-3.76-16-7.37-32.08ZM150,316.11l3.66-16.41h2.87l3.66,16.41Z"/>
      <path class="cls-1" d="M211.12,296.29H199.9l-.46.36v31.81a2.55,2.55,0,0,0,.36.37h11.5c7.16,0,8.57-5.88,8.57-8.71V305c0-2.79-1.41-8.66-8.75-8.66Zm5,23.67c0,4.27-2.79,5.12-4.65,5.12h-8.27v-25h8.22c1.86,0,4.7.85,4.7,5.11Z"/>
      <path class="cls-1" d="M192.82,296.29h-3.26l-.36.31V323l-.78-2.32-11.87-24.38H171.9l-.36.36v31.77l.36.36h3.31l.32-.36V302.26l.68,2.09L188,328.74l4.79,0,.32-.41V296.6Z"/>
      <path class="cls-1" d="M260.69,328.78l.36-.36V300.35H269l.46-.45v-3.3l-.32-.31H249.39l-.32.36V300l.32.32H257v28.43Z"/>
      <path class="cls-1" d="M140.46,324.84H126.24V296.65a1.66,1.66,0,0,1-.23-.36h-3.64l-.32.36v31.77l.32.36h18.09l.32-.36V325.2Z"/>
      <g>
        <polygon class="cls-1" points="225.44 310 225.44 314.56 243.13 314.56 243.44 314.17 243.44 310.35 243.13 310 225.44 310"/>
        <polygon class="cls-1" points="225.44 324.4 225.44 328.33 225.9 328.78 244.17 328.78 244.49 328.42 244.49 324.81 244.13 324.4 225.44 324.4"/>
        <polygon class="cls-1" points="244.05 296.27 225.69 296.27 225.32 296.59 225.32 300.83 228.92 300.83 228.92 300.83 244.01 300.83 244.37 300.46 244.37 296.59 244.05 296.27"/>
      </g>
    </g>
  </g>
</svg>
