<svg id="Øsm" xmlns="http://www.w3.org/2000/svg" width="116.77mm" height="19.75mm" viewBox="0 0 331 56">
  <defs>
    <style>
      .cls-1 {
        fill: #e76126;
      }
    </style>
  </defs>
  <title>kalklogo-kalklandet</title>
  <g id="New_Symbol_15" data-name="New Symbol 15">
    <polygon class="cls-1" points="7.42 6.24 47.8 6.24 48.26 6.7 48.26 9.69 31.05 26.89 31.05 29.19 48.26 46.4 48.26 49.38 47.8 49.84 7.42 49.84 6.96 49.38 6.96 6.7 7.42 6.24"/>
  </g>
  <g id="Kalklandet_navn_hvid_1" data-name="Kalklandet_navn_hvid 1">
    <g>
      <path class="cls-1" d="M55.62,21l.35.41v5.72h.74L61.18,21H63.4l.34.31v1.06l-4.12,5.91v.28L63.91,34v1.1l-.36.35H61.28l-4.19-5.26H56v5l-.35.31H53.29L53,35.17V21.26l.32-.31Z"/>
      <path class="cls-1" d="M93.26,21l.34.41v5.72h.74L98.81,21H101l.34.31v1.06l-4.11,5.91v.28L101.54,34v1.1l-.36.35H98.92l-4.2-5.26H93.6v5l-.34.31H90.92l-.32-.31V21.26l.32-.31Z"/>
      <path class="cls-1" d="M77.89,35.48h-3l-.76-3.4H68.9l-.77,3.4h-3V35L68.6,21h5.84l3.45,14Zm-4.34-6-1.3-6H70.81l-1.31,6Z"/>
      <path class="cls-1" d="M88.67,32.91v2.26l-.42.31H79.87l-.32-.31V21.28L79.9,21h2.43l.34.31V32.63h5.64Z"/>
      <path class="cls-1" d="M120.68,20.93h-4.21l-3.3,14.37v.16H115l.94-4.08h5.29l.94,4.08H124v-.18q-1.68-7.16-3.29-14.35Zm-4.38,8.86,1.63-7.33h1.29l1.63,7.33Z"/>
      <path class="cls-1" d="M143.61,20.93h-5l-.2.17V35.32s.14.16.16.16h5.14a3.66,3.66,0,0,0,3.83-3.89V24.8a3.68,3.68,0,0,0-3.91-3.87Zm2.24,10.59a2,2,0,0,1-2.08,2.29h-3.69V22.63h3.67a2,2,0,0,1,2.1,2.28Z"/>
      <path class="cls-1" d="M135.43,20.93H134l-.16.15V32.87l-.35-1-5.3-10.9h-2.08l-.16.17V35.3l.16.16h1.48l.14-.16V23.6l.3.94,5.29,10.9,2.14,0,.14-.18V21.08Z"/>
      <path class="cls-1" d="M165.77,35.46l.16-.16V22.75h3.55l.2-.2V21.08l-.14-.15h-8.82l-.15.17v1.51l.15.14h3.41V35.46Z"/>
      <path class="cls-1" d="M112,33.7h-6.35V21.1a.82.82,0,0,1-.11-.17h-1.62l-.15.17V35.3l.15.16H112l.15-.16V33.86Z"/>
      <g>
        <polygon class="cls-1" points="150.01 27.06 150.01 29.1 157.92 29.1 158.06 28.93 158.06 27.22 157.92 27.06 150.01 27.06"/>
        <polygon class="cls-1" points="150.01 33.5 150.01 35.26 150.22 35.46 158.39 35.46 158.53 35.3 158.53 33.68 158.37 33.5 150.01 33.5"/>
        <polygon class="cls-1" points="158.33 20.93 150.12 20.93 149.96 21.07 149.96 22.96 151.57 22.96 151.57 22.96 158.31 22.96 158.47 22.8 158.47 21.07 158.33 20.93"/>
      </g>
    </g>
  </g>
</svg>
