<svg id="stevnsfort" xmlns="http://www.w3.org/2000/svg" width="221.21" height="44.81" viewBox="0 0 221.21 44.81">
  <defs>
    <style>
      .cls-1 {
        fill: #fff;
      }

      .cls-2 {
        fill: #39728d;
      }
    </style>
  </defs>
  <title>logo-koldkrig</title>
  <g>
    <path class="cls-1" d="M52.47,37.29l-.16.16v7.21l.16.15h1.21l.18-.15V42.09h.58l2.18,2.72h1.17l.18-.18v-.56l-2.22-2.86v-.15L57.88,38v-.55l-.18-.16H56.55l-2.31,3.18h-.38v-3l-.18-.22Z"/>
    <path class="cls-1" d="M72,37.29l-.16.16v7.21l.16.15h1.21l.18-.15V42.09h.58l2.18,2.72h1.17l.18-.18v-.57l-2.22-2.85v-.15L77.37,38v-.55l-.18-.16H76l-2.32,3.18h-.38v-3l-.18-.22Z"/>
    <path class="cls-1" d="M65.21,44.55l-1.79-7.26h-3l-1.78,7.27v.25h1.53l.4-1.76h2.73l.4,1.76h1.53Zm-4.35-2.86.68-3.11h.75L63,41.69Z"/>
    <path class="cls-1" d="M70.61,43.34H67.69V37.45l-.18-.16H66.25l-.18.17v7.2l.17.15h4.33l.22-.15V43.49Z"/>
    <path class="cls-1" d="M87.35,37.28c.56,2.49,1.13,5,1.71,7.43v.09h-.94l-.48-2.11H84.9l-.49,2.11h-.94v-.08l1.71-7.44h2.17Zm.1,4.59-.85-3.8h-.66l-.85,3.8Z"/>
    <path class="cls-1" d="M101.25,39.29V42.8a1.89,1.89,0,0,1-2,2H96.61a.3.3,0,0,1-.08-.08V37.37l.1-.09h2.6A1.9,1.9,0,0,1,101.25,39.29Zm-.86.06a1,1,0,0,0-1.09-1.19H97.4V44h1.91c.44,0,1.08-.19,1.08-1.18Z"/>
    <path class="cls-1" d="M95.07,37.36v7.35L95,44.8h-1.1l-2.74-5.64L91,38.67v6l-.07.08h-.77l-.08-.08V37.37l.08-.09h1.08L94,42.92l.18.54v-6.1l.08-.08H95Z"/>
    <path class="cls-1" d="M109.86,44.8V38.23h-1.77l-.07-.08v-.78l.07-.09h4.56l.08.08v.76l-.11.11h-1.84v6.49l-.08.08Z"/>
    <path class="cls-1" d="M83,44v.74l-.07.08H78.69l-.07-.08V37.37l.07-.08h.84l.06.08v6.52h3.29Z"/>
    <g>
      <polygon class="cls-1" points="106.64 40.46 106.71 40.54 106.71 41.42 106.64 41.51 102.54 41.51 102.54 40.46 106.64 40.46"/>
      <polygon class="cls-1" points="106.87 43.79 106.95 43.88 106.95 44.72 106.88 44.8 102.65 44.8 102.54 44.7 102.54 43.79 106.87 43.79"/>
      <polygon class="cls-1" points="106.92 37.35 106.92 38.25 106.84 38.34 103.35 38.34 103.35 38.34 102.52 38.34 102.52 37.35 102.6 37.28 106.85 37.28 106.92 37.35"/>
    </g>
    <polygon class="cls-2" points="2.05 0.72 2.05 44.34 2.52 44.8 43.79 44.8 44.26 44.34 44.26 41.29 26.67 23.7 26.67 21.36 44.26 3.77 44.26 0.72 43.79 0.25 2.52 0.25 2.05 0.72"/>
    <path class="cls-1" d="M56.92,7.8v.31l4.92,6.25V15l-.14.16H60.45c-1.81-2.09-3.32-4.15-5-6.27H54.08V15l-.15.16H52.57L52.42,15V.56l.17-.17h1.34l.15.17V7.3h1.14L60.06.37h1.22l.12.17v.62Z"/>
    <path class="cls-1" d="M68.09,15.48c-3.3,0-4.61-1.91-4.61-3.92V3.9c0-1.85,1.24-3.9,4.63-3.9s4.61,1.93,4.61,3.92V11.6C72.72,13.57,71.41,15.48,68.09,15.48Zm3-11.54c0-1.89-1.31-2.41-3-2.41-1.85,0-3,.58-3,2.41v7.62c0,1.91,2,2.39,2.86,2.39h.29c.85,0,2.81-.4,2.81-2.37Z"/>
    <path class="cls-1" d="M83.68,13.74V15l-.15.16H75.29L75.14,15V.56l.15-.17h1.39a.59.59,0,0,0,.1.17v13h6.75Z"/>
    <path class="cls-1" d="M94.67,4.3v6.92a3.73,3.73,0,0,1-3.46,4H85.79l-.16-.16V.54l.2-.17h4.85a3.75,3.75,0,0,1,4,3.5A3.08,3.08,0,0,1,94.67,4.3Zm-1.62.07A2.06,2.06,0,0,0,91.29,2a1.61,1.61,0,0,0-.44,0H87.31V13.57h3.56a2.07,2.07,0,0,0,2.2-1.94,2,2,0,0,0,0-.42Z"/>
    <path class="cls-1" d="M101.59,7.8v.31l4.92,6.25V15l-.14.16h-1.25c-1.8-2.09-3.32-4.15-5-6.27H98.78V15l-.15.16H97.26L97.12,15V.56l.16-.17h1.35l.15.17V7.3h1.14L104.78.39H106a1.09,1.09,0,0,0,.13.17v.62Z"/>
    <path class="cls-1" d="M118.45,15.19H117l-3.7-6.41h-1.49l-.92-.54v6.83l-.18.16h-1.27l-.19-.16V.54l.15-.15h4.88c3.09,0,3.82,1.77,3.82,3.72V5.3c0,.85-.36,3.49-3,3.49l3.4,5.85v.46Zm-4.34-7.84c1.74,0,2.37-.52,2.37-2.12V4.17c0-1.64-.67-2.14-2.2-2.14h-3.35V7.35Z"/>
    <path class="cls-1" d="M122.92,15l-.15.16h-1.32l-.17-.16V.56l.17-.17h1.33l.15.17Z"/>
    <path class="cls-1" d="M133.18,8.49l.83-1h.85V15l-.19.18h-1.51v-.7l-2.83.87c-3.82,0-4.48-1.81-4.48-4.22v-7c0-1.29.6-3.9,4.53-3.9,3.59,0,4.42,1.22,4.48,3.52l-.17.19h-1.3l-.19-.19c-.13-1.66-.89-1.9-2.82-1.9-1.46,0-2.91.27-2.91,2.32v6.93c0,2.06.83,2.56,2.91,2.56l2.78-.06Z"/>
    <path class="cls-1" d="M146.6,11.46c0,2.65-1.23,4-4.65,4s-4.47-1.39-4.53-3.65l.17-.15h1.33l.14.15c.09,1.47,1.06,2,2.87,2,2.43,0,3-.6,3-2.41a2,2,0,0,0-1.27-2.1c-1.28-.67-2.55-1.25-4.11-2A3.22,3.22,0,0,1,137.67,4c0-2.18,1.06-3.74,4.3-3.74s4.36.9,4.44,3.53l-.16.17H144.9l-.13-.21c0-1.49-.54-1.91-2.76-1.91s-2.68.77-2.68,2a2,2,0,0,0,1.29,2.11c1.08.5,2.68,1.21,3.73,1.71C145.85,8.36,146.6,9.11,146.6,11.46Z"/>
    <path class="cls-1" d="M160.62.54V15l-.17.16h-1.34l-.14-.14v-12l-.31,1c-1,2-2.14,4.34-3.1,6.38h-1.41l-3.07-6.38-.35-1v12l-.17.14h-1.31l-.18-.16V.56l.14-.17h1.91l3.74,7.68L158.55.39h1.92Z"/>
    <path class="cls-1" d="M172.54.54V11.3c0,2.78-1.39,4.13-4.61,4.13s-4.63-1.37-4.63-4.15V.56l.14-.17h1.32l.17.17V11.3c0,1.91,1.12,2.63,3,2.63s3-.78,3-2.63V.56l.14-.17h1.33Z"/>
    <path class="cls-1" d="M184.13,11.46c0,2.65-1.22,4-4.65,4-3.28,0-4.46-1.39-4.52-3.65l.16-.15h1.33l.15.15c.08,1.47,1.06,2,2.86,2,2.43,0,3-.6,3-2.41a2,2,0,0,0-1.26-2.1c-1.29-.67-2.56-1.25-4.11-2A3.22,3.22,0,0,1,175.21,4c0-2.18,1-3.74,4.29-3.74s4.36.9,4.45,3.53l-.19.15h-1.35l-.17-.19c0-1.49-.54-1.91-2.76-1.91s-2.67.77-2.67,2a2,2,0,0,0,1.28,2.11c1.08.5,2.68,1.21,3.74,1.71C183.39,8.36,184.13,9.11,184.13,11.46Z"/>
    <path class="cls-1" d="M186.6,15V.54l.17-.15h8.36l.15.15V1.86l-.17.17h-6.87V6.56h6.42l.14.14V8l-.14.17h-6.42v5.37h6.87l.17.19V15l-.15.16h-8.32Z"/>
    <path class="cls-1" d="M207,.54V11.3c0,2.78-1.39,4.13-4.61,4.13s-4.67-1.4-4.67-4.13V.56l.15-.17h1.32l.17.17V11.3c0,1.91,1.12,2.63,3,2.63s3-.78,3-2.63V.56l.14-.17h1.33Z"/>
    <path class="cls-1" d="M221.21.54V15l-.17.16h-1.35l-.15-.14v-12l-.31,1c-1,2-2.13,4.34-3.09,6.38h-1.39l-3.07-6.38-.36-1v12l-.16.14h-1.31l-.19-.16V.56l.15-.17h1.94l3.73,7.68,3.7-7.68h1.93Z"/>
    <path class="cls-1" d="M59.18,24.89c1.64.75,2.41,1.56,2.41,4,0,2.8-1.26,4.21-4.82,4.21-3.4,0-4.61-1.53-4.68-4l.44-.42h1.55l.43.42c.06,1.18.85,1.62,2.24,1.62,2,0,2.45-.46,2.45-1.83a1.5,1.5,0,0,0-1-1.6c-.44-.21-2.49-1.22-3.82-1.89a3.4,3.4,0,0,1-2.09-3.55c0-2.3,1.09-3.92,4.48-3.92s4.52,1,4.6,3.9l-.41.44H59.35l-.4-.5c0-1.19-.37-1.48-2.15-1.48s-2.08.54-2.08,1.46a1.6,1.6,0,0,0,1,1.6Z"/>
    <path class="cls-1" d="M66.7,32.83V20.47H63.54l-.41-.41V18.48l.41-.46h8.78l.4.44V20l-.46.47H69.13V32.39l-.42.44Z"/>
    <path class="cls-1" d="M74.57,32.35V18.46L75,18h8.2l.39.44V20l-.41.43H77v3.39h5.79l.42.41v1.58l-.42.46H77v4.2h6.23l.37.47v1.43l-.39.44H75.05Z"/>
    <path class="cls-1" d="M96.87,18.48v.81L93,32.83H89.25c-2.77-10-3.37-11.86-3.81-13.44v-.87l.44-.5H87.6L91,30.44h.2L94.69,18h1.72Z"/>
    <path class="cls-1" d="M108.45,18.48V32.35l-.33.48h-2.24l-4.28-8.54-.52-1.24v9.34l-.41.44H99.11l-.43-.44V18.5l.43-.46h2.08l4.38,8.72.5,1.39V18.48l.43-.44h1.58Z"/>
    <path class="cls-1" d="M117.72,24.89c1.64.75,2.41,1.56,2.41,4,0,2.8-1.27,4.21-4.82,4.21s-4.63-1.53-4.69-4l.43-.42h1.56l.44.42c.06,1.18.85,1.62,2.24,1.62,1.95,0,2.45-.46,2.45-1.83a1.54,1.54,0,0,0-1-1.6c-.43-.21-2.49-1.22-3.82-1.89a3.41,3.41,0,0,1-2.09-3.55c0-2.3,1.1-3.92,4.48-3.92s4.53,1,4.61,3.9l-.42.44h-1.62l-.39-.5c0-1.19-.37-1.48-2.16-1.48s-2.08.54-2.08,1.46a1.59,1.59,0,0,0,1,1.6Z"/>
    <path class="cls-1" d="M122.37,32.83V18.46l.44-.44H131l.39.44V20l-.41.43h-6.21v3.39h5.75l.42.41v1.58l-.42.41h-5.75v6.15l-.42.44Z"/>
    <path class="cls-1" d="M138.15,33.12c-3.42,0-4.75-2-4.75-4.16v-7.2c0-2,1.27-4.08,4.78-4.08,3.34,0,4.77,2,4.77,4.1V29C143,31.08,141.6,33.12,138.15,33.12Zm2.37-11.32c0-1.41-1.06-1.83-2.34-1.83-1.48,0-2.39.46-2.39,1.83V29c0,1.46,1.56,1.81,2.24,1.81h.27c.66,0,2.22-.27,2.22-1.79Z"/>
    <path class="cls-1" d="M154.42,32.83h-1.75l-3.49-6H148l-.39-.4v6l-.42.44h-1.64l-.35-.44v-14l.42-.44h4.75c3.24,0,4,1.89,4,3.95v1.08c0,.81-.25,3.21-2.52,3.63.56,1,1.15,2,1.73,3l1.22,2.07v.71Zm-4.24-8.25c1.33,0,1.79-.37,1.79-1.55V22c0-1.2-.48-1.58-1.62-1.58h-2.72v4.13Z"/>
    <path class="cls-1" d="M160.1,32.83V20.47H157l-.41-.41V18.48L157,18h8.81l.4.44V20l-.46.47h-3.13V32.39l-.42.44Z"/>
    <path class="cls-1" d="M0,23.35H0l.11-.06v-.05Z"/>
    <path class="cls-1" d="M34.5,31.51l0,1.27c-.34.07-.86.16-1.56.24v-.08L33,30l-.1-.11L32.8,33V33c-.43,0-.94.08-1.51.11l.08-4.46c.21.09.42.19.62.3l-.7-.69c-.44-.18-.91-.35-1.43-.52a36.3,36.3,0,0,0-6.28-1.48H23.4v-.1l-1.07-.37-.06.28h-.22a43.38,43.38,0,0,1-5.48-1.35.74.74,0,0,0,0-.21v-.06a.2.2,0,0,1,.11,0,.26.26,0,0,0,.21,0H17v-.09a.42.42,0,0,0-.1-.17V18.55l-.35-.26-.12-1.09-.23-.08a2.77,2.77,0,0,0-.71-.26c-.07.11,0,.46-.08.54H15.3v.06c-.16,0,0,.5-.07.72a.84.84,0,0,0,.07-.24v.24l-.17.12a.24.24,0,0,1,0-.12c-.2.17-.11.61-.11.9,0,1.4,0,3.12-.07,4.56,0,.21.12.11.14.23s-.05.14,0,.28,0-.31.14-.28.09.41.25.45,0-.36,0-.51c-.14,0-.17-.07-.29-.06v-.06l1.27.38a1.5,1.5,0,0,0,0,.3v.24l-.33-.1h-.08l-.61-.2h0c-.81-.26-1.32-.44-1.33-.45A63.21,63.21,0,0,1,6.7,20.39a6,6,0,0,0-4.51-1v.35a4.82,4.82,0,0,1,1-.14h0l-.38,5.28H2.28v.06l-.21-.17V25l.14.11-.16.22v.27l.24-.46c.15.13.32.25.5.38V28.2c-.27-.26-.52-.52-.74-.76v.2c.23.25.48.51.75.77l.08,1-.83-1.62v.27l.76,1.45c-.25-.25-.48-.5-.71-.75v.41A38.79,38.79,0,0,0,8,34.23H8l.49.32A27.17,27.17,0,0,0,11,36l.41,3.64,1.36,1.86,2,2.59H13.5v.53h9V44.1h-1.1l2.67-4.69.05.12.35-.82h0l.18-.31h0c5.08-.38,9.49-2,10-2.64a4.64,4.64,0,0,0,.25-3.82Zm-19-14.11ZM2.81,25.29c-.11-.08-.21-.17-.32-.24h.32ZM34.6,31.73l.09.26a5.49,5.49,0,0,1,.17.7l-.3.07ZM34.45,33v1.38L33,34.66l-.11-1.47C33.59,33.11,34.11,33,34.45,33Zm-1.65.25.09,1.48L31.35,35l-.07-1.7A7.91,7.91,0,0,0,32.8,33.2Zm-3-5.1h0c.45.14.88.29,1.26.45l-1.26.74Zm0,1.4,1.46-.84-.08,4.45a15.19,15.19,0,0,0-1.44-.76Zm-.18,3.84.1,1.95c-.48.08-1,.15-1.51.21V33.29Zm-1.39-.2h0V31.93c.51.21,1,.41,1.36.59v.69Zm1.53,2.3.26,1L28.36,36l-.09-.37c.53,0,1-.12,1.47-.2Zm0-2.1h1.42l.07,1.7c-.45.08-.92.17-1.41.24Zm0-.81c.55.26.95.48,1.2.62H29.74ZM28.4,27.67c.41.11.84.24,1.33.4v1.31l-1.38.8Zm1.3,1.9V32.3c-.39-.18-.84-.38-1.36-.58V30.37Zm-1.9-2.05.41.12,0,2.65-.5.3Zm-.17,3.21.51-.3v1.25c-.16-.07-.33-.14-.51-.2ZM27.5,33.1l.08-1.45.52.2V33.1h-.6Zm-.14-5.69-.18,3.39-.49.29.16-3.8Zm-2.45,6.3.23-.59v2.66h-.57v-.39l.18-1Zm-.08-1.59.05-1.33.26.07v1.32ZM25.17,36l.12.55-.77.45.06-1Zm.08-3.75V30.89c.47.13.91.27,1.33.41V33l-1.33-.12v-.71Zm0-1.49.09-1.36L26.5,31.1Zm0,5.23a6.74,6.74,0,0,0,1.11-.09l-1,.59Zm0-.17V33.09l1.33.12.22,2.39h0a11.34,11.34,0,0,1-1.49.17Zm1.88-4.28L27,33.07h-.37V31.29Zm-.34-.29.36-.21v.3Zm-.12,2h.38l.12,2.35h-.36v-.06Zm0-6-.12,3.73-1.15-1.8L25.54,27c.41.08.81.17,1.2.28Zm-2.61-.48,1.3.22-.13,2L24,27.14Zm-1.62,6.57.63-.4.21.51v.46L23.07,35l-.52.56v.06l-.27.27h0l-.14-2.5.3-.21Zm-4,7.06.25-.24.75,1.23-.21.33h0Zm-2-.55-1.59-.29-.53-.79,2.48.57Zm.36,1.39-.33.32h-.22l-.81-1.22,1,.19ZM13.94,38l-.19-.79a22.54,22.54,0,0,0,3.64.91l-.27.54Zm-.85-1.76L13,34.29c.33.12.66.23,1,.33l.12,1-.74.87Zm.19.42h0l-.15,0v-.17Zm-1.61-9.16,1-.61-.07.93v.06l-.94-.38Zm1,.56v.28l-.6-.5Zm0,.46v1.69h-.08v-.07l-.91-2.39Zm-.19,1.58h0l-.85-.29v-2Zm-.09.2-.75,1.64V30h0Zm.11,0h.15l.07,1-1.07,1.3v-.48Zm.23,1.27.08,2.55c-.43-.14-.83-.29-1.23-.44v-.75Zm6-1.93V30l-1.24.66v-.15Zm-1.22.7v-1l1.1.22Zm1.23-.15v1.7l-1.32-.31v-.67Zm3.64,2.33h-.23v-.89l.17.25v.37Zm0,.18.05.29-.28.2v-.52h0Zm.05,5,.06.43h-.32Zm0-1.07.19-.2v0l-.17.28Zm-.68,1.24h-.55v0l1.14-1.1v.19Zm-.63.69v-.12h.31Zm.11.14Zm-2.62-3-.86,1.75-.2-1.94a2.87,2.87,0,0,0,1,.27Zm-1.07-.37V33.22l1.3,2.26h0a4.16,4.16,0,0,1-1.37-.12Zm.57,2.81c.55.08,1.11.13,1.69.18l-1.54,1.5-.5-.86Zm1.13-6.25H18.8V30.12l.55-.3v.27Zm.21-.86v.91h-.11Zm-.53,1,.31.06-.28,2.68V33.18Zm.41.09h.13l.08,2.48-.54.74Zm.22,2.72V35l-.33.24Zm0,.39v.46L19,35.57Zm1.12-1-1,.72v-.28l1-1.31Zm0-4.06L20,29.66l.39.06h.27Zm1.4,2.45h0v.59l-1.29.92-.05-.94.54-.73Zm-.65-.28.68-.92h0v1ZM20.14,38h0l.05-.06-.06-.1-.4-2c.36,0,.72.07,1.09.09L21,37.12Zm.77.6-.92.35.6-.58h.23Zm-1-1.17-.8-1.56v-.09h.43ZM20.72,33v-.63l.44.08Zm0,2.7v.08c-.36,0-.72-.06-1.08-.09v-.57l1-.72Zm-1.11-1.25-.08-2.3,1,.2v.79ZM19,36,20,37.86V38h-.58L19,36.11Zm.59,3.3,1.28-.49L21,39l-.58.92h0l-1.1-.28ZM20.8,36l1.27.05L21,37.1Zm0-.17V35.7l-.08-1.35L22,33.43l.13,2.43ZM22,29.91l-1.36-.24v-.06l.05-.81,1.28-1,.06,1.55Zm0,.18v1.13l-1.37-.93v-.42A10.49,10.49,0,0,1,22,30.09Zm-.14,1.25-.73,1-.55-.1.05-1.77ZM20.58,29.6h-.26l-.52-.08.82-.63Zm0,.77,0,1.83-1-.21V29.7h.06Zm-1.2-.92-.58-.09.69-2.48Zm0,.17h0l-.56.3V29.5Zm-.52,6.67.38,1.65a7.48,7.48,0,0,1-1.06-.12Zm-.14-1L17.41,33V31.69l1.32.31v3.29Zm-1.15,2.38v.07l-1-.17-.26-2.28,1,.24Zm-.27-6.76v.57l-.72-.19h0Zm-.62.14.63-.45v.12Zm-.12.43.71.17v1.16l-.78-1.34Zm.74,1.6v2.25l-1.05-.25-.05-3.54v-.09h.05Zm0-2.68-1.08.78V29l1.11.23Zm-.87,7.14c-.29-.06-.59-.12-.88-.2h0L15.22,35l.93.24Zm-3-6.94.28.09.23,3.72h0c-.34-.1-.68-.21-1-.33l-.13-2.65Zm-.68.62-.05-.86.59.2Zm.8-.76.17-.21v.26Zm1.37.59,1.18.31h0v.15l-1,2.41Zm.16,3.72h-.14l.12-.28v.27Zm-.16-3.9v-.46l.84.7Zm0-2.14Zm0,0h0l-.07,1.34-.62-.51Zm-.8.76-.23-.2V28.4l.91.25Zm-.09.12-.18.22v-.36Zm.11.09.7.58v.52l-1-.29v-.45Zm-.32,1,1,.29h0l.24,3.16-.21.52-.77-.23v0Zm.91,4.12-.55.66-.1-.85Zm.15,0,.23.07.35,2.4L14.37,37l-.15-1.32Zm.33-.08v-.6l.95-2.37V35Zm.89-3.62L15,30.29l.08-1.42V28.8l1.07.25ZM15,28.48c-.37-.09-.71-.19-1-.28l.18-2.26.34-.21.73.35Zm-1.14-.19c-.4-.12-.76-.24-1.1-.37v-.09l.08-1,1.19-.7Zm0,.17v.83l-1.06-.88v-.32c.32.08.68.2,1.06.32Zm-.05,1v.59l-.33.41-.71-.23V28.59Zm-.95,4.83.11,1.8-1.26-1.42-.07-.82A6.78,6.78,0,0,1,12.81,34.29Zm.12,2v.26c-.39-.15-.78-.32-1.17-.49l-.1-1.18Zm1.15-.46L14.22,37l-.62-.2v-.07h-.06l-.12-.13Zm-.48,2.86.21.6-1-.17Zm3.65.66h0l.52.88-.64.61-.29-.65Zm.81,1.39.56,1H17.56l-.12-.27Zm.9-.66,1.18.15-.55.88Zm1.63.42.29.47-.46.72h-.48l-.05-.08Zm.21-.21v0l.51.13-.26.4Zm.12-.2.29-.47.24.57h0Zm.45-.72.53-.84.32.47-.61.94Zm.83-.87h.34l-.17.25Zm.29-.91v-.06h0l.13.56h-.07Zm-.18-5.91-.19-.26v-.26l.28-.88Zm0-1.49-.17.54v-.57ZM22,26.45h.18l-.14.73v.47l-1.26,1,.14-2.4Zm-1.17-.27-.15,2.51-1,.8-.13-.09.83-3.32Zm-.58-.13-.65,2.62L19.8,26Zm-.62-.15v.43l-.8,2.77L19,25.75Zm-1.83-.48,1.09.3-.18,3.41L18.23,28l-.56-1.17Zm.37,2.68.46,1.19-1.11-.22h0l.14-2Zm-.49-2.71V26l-.84-.82Zm-1.19,1.15,1,.11h0l.11.22-.15,2.2h0l-1.11-.23Zm-1.13-.34.56.27h.45l-.17,2.3-1.07-.24Zm0-1.52v.37l-.77-.1-.16.76-.18.1.12-1.46ZM14,24.23l.23.08-.13,1.57-1.19.7.21-2.66a5.23,5.23,0,0,0,.82.31Zm-1-.36-.22,2.78-1.19.64.24-3.9c.4.18.78.35,1.12.48Zm-2.47-1.09,1.2.57-.24,3.76-1-3.57Zm-.29,9.3V29.45l.22.09.28,3.75h0Zm.31,1.11-.3-.13v-.64Zm-.35-3.9.07-1.56.14,1.64Zm.34.31.61.23-.34,3Zm0-.18L10.32,27h0l1.07.49-.24,2.13Zm1-1.46v1.81l-.19-.07Zm0-.6-1.07-.48h-.07l.17-2.94Zm-1-4.62v.48l-.16-.57Zm-1.15-.56.61.3-.65.31Zm.8.39h0l.28,1-.17,3.22L9,26.29v-.07L9.2,23Zm.06,9.58V33c-.44-.2-.87-.4-1.27-.6V29.05ZM9.08,29l1.11.46v2.39Zm1.11.29-1.12-.47h0l1.25-1.7ZM9,28.56l.11-2.1c.38.15.73.31,1.09.48Zm-.22-6.68.48.24v.73l-.53.25Zm-.22,1.41L9.09,23l-.2,3.16v0L8.35,26Zm.32,3.12-.07,2.2-.57-.51.14-1.91Zm-.37,2.35-.33.1v-.25Zm-.33-.33v-.14l.32.28Zm.54.45-.54,1.74V29ZM6.48,20.75l.65.34-.19,2.8-1.32.64.31-4.08a4.86,4.86,0,0,1,.55.29ZM5.32,27c-.4-.23-.77-.45-1.12-.67l.07-1.07.54.08.63.55Zm0,3.35L4.88,30l.44-.13Zm1.41-3.49L5.52,25.74v-.32c.4.08.82.18,1.27.3Zm.08,1.11c.3.16.63.32,1,.48V29l-1,.3ZM6.75,27l0,.69h0L5.46,27h0l.08-1Zm-1.3-1.77-.64-.12h0l.7-.34Zm-.4.1.39.07v.25Zm.38,4.5,1.18-.34-.06,1.63c-.4-.25-.78-.49-1.12-.74Zm1.13,1.46.06.47L5.45,30.62h0C5.81,30.83,6.16,31.07,6.56,31.29Zm.05-2-1.18.35V27.2c.38.22.8.44,1.24.67Zm.11.14,1-.3V31.8l-1.09-.63h0Zm1,2.55h0l-.21.66.1.07.2-.42.05.62-1.06-1-.07-.51c.29.19.64.4,1,.6Zm0-3.78-1-.47v-.66l.94.83Zm-.91-2.65q-.67-.18-1.26-.3V24.7l1.33-.63Zm-1-5.16-.32,4.18L4.63,25H4.27l.3-5.07A6.88,6.88,0,0,1,5.81,20.39Zm-2.58-.73a6.42,6.42,0,0,1,1.23.19L4.16,25l-1.24-.08Zm-.32,5.42a5.64,5.64,0,0,1,1.24.11l-.06,1q-.66-.42-1.2-.81Zm0,.5c.36.26.75.53,1.19.81v3c-.33-.27-.63-.53-.91-.78l-.29-.32h0Zm0,3,.21.2c.3.28.63.56,1,.85v.23L3,29.7Zm.22,1.34,1,.11,0,.89-1-1ZM4.19,26.5c.35.22.72.45,1.11.67v2.52l-.6.18-.5-.39Zm0,3.22.21.17H4.2ZM4.27,31l-.06-1h.4l.69.68L5.45,32c-.34-.3-.74-.68-1.13-1Zm1.3,1.12-.14-1.25L6.6,32.05l.14,1c-.32-.31-.72-.62-1.12-.95Zm1.29,1-.13-1,1,1,.06.65Zm.95-5.4-1-.83.08-1.16.37.1.62.19ZM8,25.87l-.61-.19L7,25.58,7.07,24l1.06-.51Zm-.87-2,.19-2.69,1.06.55H8.26l-.15,1.56ZM8.21,32V31l.6-1.89v3.22l-.56-.28Zm0,.27.54.28L8.85,34l-.54-.54Zm.31,2-.15-.09,0-.5.55.54v.28c-.12-.12-.24-.23-.36-.23Zm.48.3v-.3l.58.57Zm1.05.61L9,34.09l-.1-1.5c.4.21.83.41,1.28.6l.16,1.46-.25.51Zm.12.07.17-.34.05.45Zm.09-2,.36.16.13.32h0l-.35.7Zm.25,2.16-.08-.71.36-.73h0L11,35.67Zm.42-2h0l-.12-.14.39-3.46.21.08v2.18Zm.57-.94v.39l-.41.5Zm-.33,1,.34-.41v.57l-.33-.13Zm0,.21.32.13.07.73-.34-.37Zm.08.73.33.37.11,1.26-.27-.12ZM11.81,39l-.33-2.66c.53.25,1.06.47,1.6.67l.35,1.15-1.55.9Zm1.29,2-.95-1.28L14,40l.29,1.19L13.17,41Zm.65.85.71.1.31,1.25Zm1-.55-.28-1.16h.25l.82,1.21Zm.18.71,1,.13-.58,1.46Zm.71,2.1.57-1.43.29,1.43Zm.94-1.88.71.09.11.24-.52,1.17Zm.67,1.88.42-1,.41,1Zm.88,0,.19-.2.12.2ZM18,42.33h2L19,44Zm2.8,1.77H19.52l.94-1.46h1.16Zm-.12-1.81.54-.84.51.85Zm1.24-.18-.55-.9.47-.74h1Zm.14-2,.47-.72.5.73Zm1.12-.24-.5-.73.32-.48.71-.07.08.2Zm.76-12-.09-.1-.29-.91v-.23h0l.38.56ZM24,27l-.2-.28H24Zm0,1,.05-.62,1.19,1.81-.09,1.36-.35-1.79Zm.45,10,.06-.89.81-.48.26,1.28a6.14,6.14,0,0,1-1.09.13Zm1.24-.11-.27-1.32,1.38-.73.3,1.91c-.45.07-.91.13-1.37.18Zm1.46-.19-.29-1.9.38.1.35,1.73Zm.4-4.4h.55v2.2h-.43Zm.15,2.45h.44l.08.32-.49-.12Zm.37,1.86-.27-1.55.51.13.33,1.29Zm.64-.13-.32-1.24,1.66.42.13.49-1.47.31Zm1.58-.36-.11-.42.85.22Zm1.06-.3-1.22-.31-.28-1.06,1.4-.24.3,1.55Zm.27-.08h0l-.3-1.54c.57-.1,1.09-.21,1.55-.31l.29,1.31c-.5.2-1,.37-1.54.52Zm2.9-1.26a4,4,0,0,1-1.21.67L33,34.85l1.41-.33.19.82a.52.52,0,0,1-.1.11Zm.19-.26-.17-.71.42-.11a2.49,2.49,0,0,1-.25.8Zm.27-1-.44.11V33l.34-.08a5.31,5.31,0,0,1,.1,1.32Z"/>
  </g>
</svg>
