<svg id="stevnsfort" xmlns="http://www.w3.org/2000/svg" xmlns:xlink="http://www.w3.org/1999/xlink" width="75.06mm" height="15.43mm" viewBox="0 0 212.76 43.74">
  <defs>
    <style>
      .cls-1 {
        fill: #39728d;
      }

      .cls-2 {
        fill: #fff;
      }
    </style>
    <symbol id="New_Symbol_16" data-name="New Symbol 16" viewBox="0 0 111.11 117.28">
      <polygon class="cls-1" points="1.23 0 109.87 0 111.11 1.23 111.11 9.26 64.81 55.56 64.81 61.73 111.11 108.02 111.11 116.05 109.87 117.28 1.23 117.28 0 116.05 0 1.23 1.23 0"/>
    </symbol>
    <symbol id="Kalklandet_navn_hvid_3" data-name="Kalklandet_navn_hvid 3" viewBox="0 0 671.53 83.75">
      <g>
        <path class="cls-1" d="M15.27.17l2,2.34V35.45H21.5L47.22.17H60l2,1.76V8L38.28,42v1.63L63,75.42v6.33l-2.1,2h-13L23.71,53.51H17.24V82l-2,1.75H1.84L0,82V1.93L1.84.17Z"/>
        <path class="cls-1" d="M231.81.17l2,2.34V35.45H238L263.76.17h12.78l2,1.76V8L254.82,42v1.63l24.67,31.77v6.33l-2.09,2h-13L240.25,53.51h-6.47V82l-2,1.75H218.38L216.54,82V1.93L218.38.17Z"/>
        <path class="cls-1" d="M143.37,83.74h-17L122,64.18H91.67L87.23,83.74H70.12v-2.8L89.93.17h33.63l19.81,80.64ZM118.43,49l-7.49-34.5h-8.26L95.09,49Z"/>
        <path class="cls-1" d="M205.43,69V82L203,83.74H154.81L153,82V2.05l2-1.88h14l2,1.76v65.4h32.43Z"/>
        <path class="cls-1" d="M389.59.05H365.38l-19,82.64v.94h10.48l5.39-23.45H392.7l5.39,23.45h10.45V82.57q-9.68-41.14-19-82.52ZM364.38,51l9.41-42.2h7.39L390.59,51Z"/>
        <path class="cls-1" d="M521.53.05H492.66L491.48,1V82.81a7.57,7.57,0,0,0,.94.94H522c18.41,0,22-15.13,22-22.39v-39C544,15.17,540.41.05,521.53.05ZM534.44,61c0,11-7.18,13.16-12,13.16H501.2V9.8h21.15c4.79,0,12.09,2.19,12.09,13.16Z"/>
        <path class="cls-1" d="M474.47.05h-8.39l-.94.82V68.74l-2-6L432.62.05h-12l-.93.93V82.69l.93.94h8.51l.82-.94V15.4l1.75,5.39,30.42,62.72,12.32.12.82-1.06V.87Z"/>
        <path class="cls-1" d="M649,83.63l.94-.94V10.51h20.39l1.18-1.17V.87l-.82-.82H620l-.82.93V9.69l.82.82h19.63V83.63Z"/>
        <path class="cls-1" d="M339.79,73.48H303.21V1a4,4,0,0,1-.59-.93h-9.37l-.82.93V82.69l.82.94h46.54l.82-.94V74.42Z"/>
        <g>
          <polygon class="cls-1" points="558.36 35.32 558.36 47.05 603.85 47.05 604.67 46.05 604.67 36.21 603.85 35.32 558.36 35.32"/>
          <polygon class="cls-1" points="558.36 72.35 558.36 82.46 559.54 83.63 606.54 83.63 607.36 82.69 607.36 73.41 606.43 72.35 558.36 72.35"/>
          <polygon class="cls-1" points="606.23 0 558.99 0 558.05 0.82 558.05 11.73 567.32 11.73 567.32 11.73 606.12 11.73 607.05 10.79 607.05 0.82 606.23 0"/>
        </g>
      </g>
    </symbol>
  </defs>
  <title>logo-kold-blåt</title>
  <g>
    <path class="cls-1" d="M54.42,7.6v.3l4.74,6v.64l-.14.16h-1.2c-1.74-2-3.2-4-4.84-6h-1.3v5.88l-.14.16H50.22l-.14-.16V.62l.16-.16h1.3l.14.16V7.14h1.1L57.44.46h1.18a.83.83,0,0,0,.12.16v.6Z"/>
    <path class="cls-1" d="M65.18,15c-3.18,0-4.44-1.85-4.44-3.79V3.84c0-1.78,1.2-3.76,4.46-3.76s4.44,1.86,4.44,3.78v7.4C69.64,13.16,68.38,15,65.18,15ZM68,3.88c0-1.82-1.26-2.32-2.84-2.32-1.78,0-2.9.56-2.9,2.32v7.34c0,1.84,1.9,2.3,2.76,2.3h.28c.82,0,2.7-.38,2.7-2.28Z"/>
    <path class="cls-1" d="M80.2,13.32v1.24l-.14.16H72.12L72,14.56V.62l.14-.16h1.34a.7.7,0,0,0,.1.16V13.16h6.5Z"/>
    <path class="cls-1" d="M90.8,4.24V10.9A3.59,3.59,0,0,1,87,14.72H82.28a.8.8,0,0,1-.16-.16V.6l.2-.16H87A3.61,3.61,0,0,1,90.8,4.24Zm-1.56.06A2,2,0,0,0,87.12,2H83.7V13.16h3.44a2,2,0,0,0,2.1-2.28Z"/>
    <path class="cls-1" d="M97.47,7.6v.3l4.74,6v.64l-.14.16h-1.2c-1.74-2-3.2-4-4.84-6h-1.3v5.88l-.14.16H93.27l-.14-.16V.62l.16-.16h1.3l.14.16V7.14h1.1L100.49.46h1.18a.83.83,0,0,0,.12.16v.6Z"/>
    <path class="cls-1" d="M113.71,14.72h-1.36l-3.56-6.18-1.44,0L106.47,8v6.58l-.18.16h-1.22l-.18-.16V.6L105,.46h4.7c3,0,3.68,1.7,3.68,3.58v1.1c0,.82-.34,3.36-2.84,3.36l3.28,5.64v.45Zm-4.18-7.56c1.68,0,2.28-.5,2.28-2v-1c0-1.58-.64-2.06-2.12-2.06h-3.22V7.16Z"/>
    <path class="cls-1" d="M118,14.56l-.14.16H116.6l-.16-.16V.62l.16-.16h1.28l.14.16Z"/>
    <path class="cls-1" d="M127.92,8.26l.8-.94h.82c0,2.06,0,6.5,0,7.24l-.18.18-1.46,0v-.67l-2.72.83c-3.69,0-4.33-1.74-4.33-4.06V4.1c0-1.24.58-3.76,4.37-3.76,3.46,0,4.26,1.18,4.32,3.4l-.16.18h-1.26L128,3.74c-.12-1.6-.86-1.84-2.72-1.84-1.4,0-2.81.26-2.81,2.24v6.68c0,2,.8,2.46,2.81,2.46l2.68-.06Z"/>
    <path class="cls-1" d="M140.85,11.12c0,2.56-1.18,3.86-4.48,3.86s-4.3-1.34-4.36-3.52l.16-.14h1.28l.14.14c.08,1.42,1,1.94,2.76,1.94,2.34,0,2.94-.58,2.94-2.32a2,2,0,0,0-1.22-2c-1.24-.64-2.46-1.2-4-1.94a3.1,3.1,0,0,1-1.86-3.22c0-2.1,1-3.6,4.14-3.6s4.2.86,4.28,3.4l-.16.16h-1.3l-.16-.18c0-1.44-.52-1.84-2.66-1.84s-2.58.74-2.58,1.94a2,2,0,0,0,1.24,2c1,.48,2.58,1.16,3.6,1.64C140.13,8.14,140.85,8.86,140.85,11.12Z"/>
    <path class="cls-1" d="M154.37.6v14l-.16.16h-1.3l-.14-.13V3l-.3.92c-.94,1.94-2.06,4.18-3,6.14h-1.36l-3-6.14-.34-1V14.59l-.16.13h-1.26l-.18-.16V.62l.14-.16h1.84l3.6,7.4,3.56-7.4h1.86Z"/>
    <path class="cls-1" d="M165.85.6V10.94c0,2.68-1.34,4-4.44,4s-4.46-1.32-4.46-4V.62l.14-.16h1.28l.16.16v10.3c0,1.84,1.08,2.54,2.88,2.54s2.86-.76,2.86-2.54V.62l.14-.16h1.28Z"/>
    <path class="cls-1" d="M177,11.12c0,2.56-1.18,3.86-4.48,3.86s-4.3-1.34-4.36-3.52l.16-.14h1.28l.14.14c.08,1.42,1,1.94,2.76,1.94,2.34,0,2.95-.58,2.95-2.32a2,2,0,0,0-1.23-2c-1.24-.64-2.46-1.2-4-1.94a3.1,3.1,0,0,1-1.86-3.22c0-2.1,1-3.6,4.14-3.6s4.2.86,4.28,3.4l-.16.16h-1.3l-.16-.18c0-1.44-.52-1.84-2.66-1.84S170,2.56,170,3.76a2,2,0,0,0,1.24,2c1,.48,2.58,1.16,3.6,1.64C176.3,8.14,177,8.86,177,11.12Z"/>
    <path class="cls-1" d="M179.4,14.52V.6l.16-.14h8.06l.14.14V1.88L187.6,2H181V6.4h6.18l.14.14V7.82l-.14.16H181v5.18h6.62l.16.18v1.22l-.14.16h-8Z"/>
    <path class="cls-1" d="M199.1.6V10.94c0,2.68-1.34,4-4.44,4s-4.47-1.32-4.47-4V.62l.14-.16h1.28l.16.16v10.3c0,1.84,1.08,2.54,2.89,2.54s2.86-.76,2.86-2.54V.62l.14-.16h1.28Z"/>
    <path class="cls-1" d="M212.76.6v14l-.16.16h-1.3l-.14-.13V3l-.3.92c-.94,1.94-2.06,4.18-3,6.14h-1.36l-3-6.14-.33-1V14.59l-.17.13h-1.26l-.18-.16V.62l.15-.16h1.83l3.61,7.4,3.56-7.4h1.86Z"/>
    <path class="cls-1" d="M56.6,24.08c1.58.72,2.32,1.5,2.32,3.84,0,2.7-1.22,4.06-4.64,4.06s-4.46-1.48-4.52-3.9l.42-.4h1.5l.42.4c.06,1.14.82,1.56,2.16,1.56,1.88,0,2.36-.44,2.36-1.76a1.46,1.46,0,0,0-.94-1.54L52,24.52a3.28,3.28,0,0,1-2-3.42c0-2.22,1.06-3.78,4.32-3.78s4.36.94,4.44,3.76l-.4.42H56.76L56.38,21c0-1.14-.36-1.42-2.08-1.42s-2,.52-2,1.4a1.54,1.54,0,0,0,.92,1.54Z"/>
    <path class="cls-1" d="M63.84,31.72V19.82h-3l-.4-.4V17.9l.4-.44h8.46l.38.42v1.48l-.44.46h-3V31.3l-.4.42Z"/>
    <path class="cls-1" d="M71.43,31.26V17.88l.42-.42h7.9l.38.42v1.5l-.4.42h-6v3.26h5.54l.4.4V25l-.4.4H73.77v4h6l.36.46V31.3l-.38.42H71.89Z"/>
    <path class="cls-1" d="M92.92,17.9v.76L89.2,31.72H85.58C82.9,22.1,82.32,20.3,81.9,18.78v-.84l.42-.48H84l3.3,12h.2l3.34-12h1.66Z"/>
    <path class="cls-1" d="M104.08,17.9V31.26l-.32.46H101.6l-4.12-8.26-.5-1.2v9l-.4.42h-1.5l-.42-.42V17.92l.42-.44h2l4.22,8.4.48,1.34V17.9l.42-.42h1.52Z"/>
    <path class="cls-1" d="M113,24.08c1.58.72,2.32,1.5,2.32,3.84,0,2.7-1.22,4.06-4.64,4.06s-4.46-1.48-4.52-3.9l.42-.4h1.5l.42.4c.06,1.14.82,1.56,2.16,1.56,1.88,0,2.36-.44,2.36-1.76a1.46,1.46,0,0,0-.94-1.54l-3.68-1.82a3.28,3.28,0,0,1-2-3.42c0-2.22,1.06-3.78,4.32-3.78s4.36.94,4.44,3.76l-.4.42h-1.58l-.38-.48c0-1.14-.36-1.42-2.08-1.42s-2,.52-2,1.4a1.54,1.54,0,0,0,.92,1.54Z"/>
    <path class="cls-1" d="M117.5,31.72V17.88l.42-.42h7.9l.38.42v1.5l-.4.42h-6v3.26h5.54l.4.4V25l-.4.4h-5.54V31.3l-.42.42Z"/>
    <path class="cls-1" d="M132.71,32c-3.3,0-4.58-2-4.58-4V21.06c0-1.88,1.22-3.94,4.6-3.94,3.22,0,4.6,2,4.6,4v7C137.33,30,136,32,132.71,32ZM135,21.1c0-1.36-1-1.76-2.26-1.76-1.42,0-2.3.44-2.3,1.76V28c0,1.4,1.5,1.74,2.16,1.74h.26c.64,0,2.14-.26,2.14-1.72Z"/>
    <path class="cls-1" d="M148.38,31.72H146.7l-3.36-5.8h-1.12l-.38-.38V31.3l-.4.42h-1.58l-.34-.42V17.88l.4-.42h4.58c3.12,0,3.86,1.82,3.86,3.8v1c0,.78-.24,3.1-2.42,3.5.54,1,1.1,1.9,1.66,2.84l1.18,2v.68Zm-4.08-7.94c1.28,0,1.72-.36,1.72-1.5v-1c0-1.16-.46-1.52-1.56-1.52h-2.62v4Z"/>
    <path class="cls-1" d="M153.87,31.72V19.82h-3l-.41-.4V17.9l.41-.44h8.46l.38.42v1.48l-.44.46h-3V31.3l-.4.42Z"/>
    <use width="111.11" height="117.28" transform="translate(2.26) scale(0.37)" xlink:href="#New_Symbol_16"/>
    <use width="671.53" height="83.75" transform="translate(49.96 36.02) scale(0.09)" xlink:href="#Kalklandet_navn_hvid_3"/>
    <path class="cls-2" d="M0,23.52H0l.09-.07s0,0,0,0Z"/>
    <path class="cls-2" d="M32.86,31.46l-.4-.39.06.11-.05,1.23a14.22,14.22,0,0,1-1.47.22v-.07l.1-2.85-.1-.1-.1,3v.07c-.41,0-.89.08-1.42.11l.07-4.21a7.91,7.91,0,0,1,.77.39l-.67-.68a15.89,15.89,0,0,0-1.5-.56,34.05,34.05,0,0,0-5.92-1.36h0l0,0v0l-.13,0,0-.1-1-.35-.05.27-.21,0a47.14,47.14,0,0,1-5.17-1.27.66.66,0,0,0,0-.2.09.09,0,0,0,0-.05.14.14,0,0,1,.11,0,.29.29,0,0,0,.19,0l.06,0v-.09a.25.25,0,0,0-.1-.15V19l-.25-.22-.11-1-.22-.08a3,3,0,0,0-.67-.24c-.07.1,0,.43-.08.51l-.05,0V18c-.15,0,0,.48-.07.69a.7.7,0,0,0,.07-.23v.23l-.17.11V18.7c-.19.16-.11.57-.11.85,0,1.32,0,2.93-.06,4.3,0,.19.11.1.13.21s-.05.14,0,.26,0-.29.13-.26.09.39.24.42,0-.33,0-.47c-.13,0-.16-.07-.27-.06a.09.09,0,0,1,0-.05l1.19.35a2.64,2.64,0,0,0,0,.28c0,.08,0,.16,0,.23l-.32-.1-.07,0h0l-.58-.19h0L13.16,24a63.31,63.31,0,0,1-7-3.28,5.88,5.88,0,0,0-3.95-1v.32A3.82,3.82,0,0,1,2.91,20H3L2.66,25l-.43,0v.32l.4.29v2.56c-.14-.13-.27-.27-.4-.4v.2l.4.4.08,1-.48-.94v.26l.37.72-.37-.39v.39a37.35,37.35,0,0,0,5.23,4.44v0h0l.46.31a27.39,27.39,0,0,0,2.43,1.37l.39,3.43,1.3,1.75,1.85,2.44H12.72v.66h8.47v-.66h-1l2.52-4.42,0,.11.34-.77h0l.16-.29v0c4.78-.36,9-1.91,9.46-2.49s.7-2.06.22-3.66A.64.64,0,0,1,32.86,31.46ZM14.58,17.9v0ZM2.63,25.38l-.3-.23h.32Zm30,6.05a2.25,2.25,0,0,1,.08.24,5.68,5.68,0,0,1,.17.65l-.28.07Zm-.14,1.14,0,1.3-1.36.31L31,32.79A14.38,14.38,0,0,0,32.47,32.57Zm-1.56.23L31,34.21c-.43.09-.91.19-1.45.28l-.06-1.58C30,32.88,30.5,32.85,30.91,32.8ZM28.09,28h0c.43.13.82.28,1.19.43l-1.23.71Zm0,1.32,1.37-.8-.07,4.2c-.18-.11-.64-.37-1.36-.71Zm-.17,3.62L28,34.76,26.6,35V32.91Zm-1.3-.19v0l0-1.14c.48.19.91.38,1.28.55l0,.65ZM28,34.92l.25.95-1.56-.4-.09-.35Zm0-2h.07c.47,0,.9,0,1.3,0l.06,1.6c-.42.08-.86.16-1.33.23Zm0-.76c.52.24.9.45,1.14.58l-1.15,0Zm-1.27-4.59c.38.11.79.23,1.25.38l0,1.24L26.67,30ZM28,29.38,27.91,32c-.37-.17-.79-.36-1.28-.55l0-1.27Zm-1.72-1.92.39.1L26.56,30l-.47.28Zm-.16,3,.48-.27,0,1.17L26,31.18ZM26,32.71,26,31.35l.48.18,0,1.18v0l-.53,0Zm-.13-5.36-.17,3.2-.47.27.12-3.59Zm-2.31,5.94.22-.56,0,2.51-.54,0,0-.37.17-1Zm-.08-1.5,0-1.26.24.07v1.25Zm.33,3.61.1.52-.72.42.06-.91Zm.07-3.53V30.63c.44.12.86.25,1.25.38v1.65l-1.25-.12v-.45l0-.22Zm0-1.41.09-1.28L25,30.82Zm0,4.93,1.05-.08-1,.55Zm0-.16,0-2.53,1.26.12.11,2.25v0Zm1.77-4-.08,1.49h0l-.36,0V31.05Zm-.32-.28.34-.2V31Zm-.11,1.91.36,0,.11,2.22-.35,0V35Zm0-5.63-.12,3.51L23.94,29l.14-2Zm-2.46-.46L24,27l-.12,1.88-1.13-1.7Zm-1.6,6.17.59-.39.2.48,0,.44-.2,1-.5.52v.06l-.26.25h0L20.85,33l.28-.2Zm-3.73,6.64.23-.22.71,1.16-.2.31H18.1l0,0ZM15.56,39l-1.5-.28-.5-.74,2.27.48Zm.27,1.3-.31.3-.21,0-.75-1.11,1,.18Zm-2.7-3.06-.19-.74a21.51,21.51,0,0,0,3.43.86l-.25.51Zm-.81-1.66-.11-1.78,1,.31.11.94-.7.83Zm.18.4,0,0-.14,0v-.15ZM11,27.39l1-.58-.07.88v.06Zm.92.53v.25l-.56-.47Zm0,.43,0,1.59-.07,0,0-.07L11,27.59Zm-.18,1.49,0,0-.8-.28V27.68Zm-.09.18-.7,1.55,0-1.77v0Zm.12,0,.13.05.06,1-1,1.23v-.46Zm.21,1.2.14,2.37-1.15-.42V32.5Zm5.64-1.82v.36l-1.18.62v-.14Zm-1.15.66,0-1,1.05.21ZM17.6,30l0,.9v.65l-1.25-.29,0-.63ZM21,32.16l-.21,0,0-.84.17.23,0,.35Zm0,.17,0,.27-.26.18,0-.49h0Zm.05,4.7.06.4h-.31Zm0-1,.18-.18v0l-.17.26Zm-.64,1.17h-.52v0l1.07-1,0,.17Zm-.59.65-.05-.11h.29Zm.1.13,0,.05v0Zm-2.47-2.78-.82,1.65L16.46,35C16.79,35.08,17.13,35.14,17.47,35.19Zm-1-.35,0-1.94L17.65,35v0C17.24,35,16.84,34.93,16.45,34.84ZM17,37.49c.51.07,1,.13,1.59.17l-1.45,1.41-.48-.81Zm1.07-5.89-.31-.06,0-1.22V29.9l.53-.28v.25Zm.19-.82v.87l-.1,0Zm-.5.92.29.06-.26,2.53,0-1.45Zm.39.08.12,0,.08,2.34-.52.7Zm.21,2.57v.19l-.32.23Zm0,.36,0,.45-.54-.07Zm1.06-.92-1,.68v-.26L19.38,33Zm0-3.83-.61-.44.36.06.26,0Zm1.32,2.31v0l0,.55-1.21.87-.05-.88.51-.69ZM20.1,32l.63-.86h0l0,1Zm-1.2,5.36h0l0-.06-.05-.09-.38-1.88c.34,0,.68.07,1,.09l.17,1.15Zm.72.56-.86.33.56-.54h.22Zm-.92-1.1L18,35.35l0-.08.41,0Zm.77-4.18,0-.6.41.08Zm0,2.54v.08l-1-.09,0-.53,1-.68Zm-1-1.18-.08-2.17.95.19,0,.75Zm-.57,1.49.9,1.77,0,.09-.55,0-.4-1.75Zm.59,3,1.2-.46.08.18-.55.87h0l-1-.26Zm1.17-3.11c.39,0,.79,0,1.19,0l-1,1Zm0-.16v-.1l-.07-1.27L20.75,33l.12,2.28C20.45,35.3,20,35.29,19.62,35.26Zm1.16-5.55c-.47-.1-.86-.17-1.27-.23v-.05l0-.77,1.21-.93,0,1.46Zm0,.16,0,.93,0,.12L19.49,30v-.4C19.91,29.71,20.3,29.77,20.78,29.87Zm-.14,1.18L20,32l-.52-.1,0-1.67ZM19.4,29.41v.05l-.25,0-.48-.08.77-.59Zm0,.73-.05,1.72-.95-.19,0-1.85,0-.27.05,0,0,0Zm-1.13-.87-.5-.09.65-2.33Zm0,.16v0l-.52.27v-.39Zm-.46,6.3.36,1.57c-.34,0-.67-.07-1-.12Zm-.13-.94-1.24-2.14,0-1.27c.42.11.84.2,1.25.29v3.12ZM16.56,37l0,.07-.9-.17-.25-2.17,1,.22Zm-.26-6.37,0,.54L15.62,31h0Zm-.58.13.59-.43v.12Zm-.12.4.68.17,0,1.09-.74-1.27Zm.7,1.51,0,2.12-1-.23,0-3.34,0-.09.05,0h0Zm0-2.52-1,.73,0-2,1.05.21Zm-.82,6.73-.83-.19h0l-.31-2.22.88.23Zm-2.83-6.54.27.08.21,3.5v0l-1-.31L12,31.14ZM12,31l0-.81.56.19Zm.75-.71L13,30v.25Zm1.3.54q.54.16,1.11.3h0v.14l-.91,2.27Zm.15,3.52-.13,0,.11-.27,0,.26Zm-.15-3.68,0-.43.8.66Zm0-2v0h0Zm0,0v0L14,29.92l-.58-.48Zm-.75.72-.24-.2,0-.84.85.24Zm-.09.11-.17.21v-.34Zm.1.08.66.55,0,.49L13,30.31l0-.41Zm-.3.93.92.27h0l.23,3-.2.49L13.27,34v-.08Zm.86,3.88-.52.62-.09-.8A6.13,6.13,0,0,0,13.9,34.36Zm.14,0,.22.07.31,2.23-1-.29-.14-1.25Zm.31-.07v-.11l0-.47.9-2.23,0,3Zm.84-3.42L14.11,30l.08-1.33v-.07c.31.08.65.16,1,.23ZM14.1,28.42c-.34-.08-.66-.17-1-.26L13.31,26l.33-.2.68.33ZM13,28.13c-.38-.11-.72-.23-1-.34V27.7l.08-.95,1.12-.66Zm0,.16,0,.79-1-.83V28C12.32,28.07,12.66,28.18,13,28.29Zm0,1,0,.55-.31.38L12,30V28.43ZM12.1,33.8l.11,1.69L11,34.16,11,33.38Zm.12,1.91,0,.24c-.37-.14-.74-.3-1.1-.46L11,34.38Zm1.08-.44.13,1.1-.58-.19v-.07l-.06,0L12.67,36ZM12.85,38l.15.6-.91-.16Zm3.44.63h0l.49.82-.6.58-.27-.61Zm.77,1.3.53.9h-.83l-.24,0-.1-.24Zm.85-.62,1.12.14-.52.83Zm1.54.39.27.45-.44.67h-.44l-.05-.08Zm.15-.23,0,0,.49.12-.24.38Zm.11-.19.28-.44.22.54v0Zm.43-.68.5-.79.29.44-.57.89Zm.78-.82h.31l-.15.24Zm.27-.86,0,0h0l.13.54-.08,0h0ZM21,31.32l-.17-.24v-.24l.26-.83Zm0-1.4-.16.51,0-.54ZM20.7,26.4l.17,0-.14.69,0,.43-1.19.92.13-2.26C20,26.28,20.37,26.35,20.7,26.4Zm-1.11-.21-.14,2.37-1,.75-.12-.09.78-3.13ZM19,26.07l-.61,2.47L18.66,26Zm-.58-.14,0,.4-.73,2.61.18-3.15Zm-1.74-.45,1,.28L17.59,29l-.42-1.06-.54-1.1ZM17.08,28l.46,1.15-1.06-.21h0L16.61,27Zm-.47-2.55,0,.55-.71-.77Zm-1.12,1.08.93.1h0l.1.21-.15,2.08h0l-1-.21Zm-1.06-.32.52.25.43.05-.16,2.17c-.36-.07-.69-.15-1-.23Zm0-1.43,0,.35-.73-.1-.15.72-.17.1.11-1.39Zm-1.27-.43.21.08-.12,1.48-1.12.66.19-2.51C12.6,24.18,12.88,24.28,13.12,24.35ZM12.18,24,12,26.63l-1.08.64.23-3.7ZM9.9,23c.38.19.76.36,1.13.53l-.22,3.55-1-3.37Zm-.27,8.76,0-2.47.21.08.3,3.51h0Zm.29,1-.28-.12v-.6Zm-.33-3.68.06-1.47.14,1.55Zm.32.29.58.22-.32,2.85Zm0-.17L9.7,27h0l1,.45-.22,2Zm.9-1.37v1.71l-.18-.07Zm0-.56-1-.46-.06,0h0L9.84,24Zm-1-4.36,0,.45-.15-.53Zm-1.09-.53.58.29L8.68,23Zm.76.37h0l.27.94-.17,3-1.11-.49v-.07l.19-3Zm0,9,0,.82c-.42-.18-.82-.37-1.21-.56l0-3.17Zm-1.08-3c.34.15.69.29,1.05.43l0,2.26Zm1.05.27-1.06-.44,0,0L9.58,27Zm-1.12-.65.1-2,1,.45Zm-.21-6.29.45.23,0,.68-.5.24Zm-.1,1.33.5-.24-.18,3v0L7.87,26Zm.31,2.94-.11,2.08L7.72,28l.14-1.8ZM8,28.62l-.32.09v-.24ZM7.7,28.3v-.12l.3.26Zm.52.42L7.7,30.37v-1.5ZM6.11,21.06l.61.33L6.54,24l-1.25.6.3-3.84ZM5,26.92l-1-.64.06-1,.48.08.59.52Zm0,3.34Zm0-.18-.41-.3L5,29.66Zm1.33-3.29-1.14-1,0-.3c.37.07.77.16,1.2.28Zm0,1,.91.45v.55l-1,.28Zm0-.87,0,.65h0L5.11,27v0l.08-1ZM5.13,25.3c-.21-.05-.41-.08-.6-.11l0,0,.66-.32Zm-.37.09.36.07,0,.23Zm.35,4.24,1.11-.32,0,1.54c-.38-.24-.73-.47-1.06-.7ZM6.18,31l.06.44L5.13,30.38v0Q5.63,30.69,6.18,31Zm.05-1.89-1.12.33V27.15q.56.32,1.17.63Zm.1.14,1-.29v2.52q-.54-.3-1-.6h0Zm1,2.4v0l-.19.61.09.07L7.31,32l.05.58-1-1-.07-.49C6.61,31.29,6.94,31.49,7.29,31.68Zm0-3.56-.9-.45v0l0-.58.89.78ZM6.43,25.6c-.43-.12-.83-.21-1.19-.28l0-.52,1.25-.6Zm-.94-4.87-.31,3.95-.81.39-.34,0,.28-4.79A7.42,7.42,0,0,1,5.49,20.73ZM3.05,20a5.5,5.5,0,0,1,1.16.19L3.93,25,2.76,25Zm-.3,5.12c.28,0,.68,0,1.16.1l-.05,1c-.41-.26-.79-.52-1.13-.77Zm0,.47c.34.24.71.5,1.12.76l0,2.83L3,28.48l-.29-.27h0Zm0,2.79.2.19c.28.25.59.52.93.8v.21L2.84,29.5ZM3,29.68l.94.1.06.84C3.62,30.31,3.28,30,3,29.68Zm1-3.23c.33.21.68.43,1.06.64V29.5l-.57.17L4,29.3Zm0,3a1.66,1.66,0,0,0,.21.16l-.2,0Zm.08,1.22L4,29.79l.38.05.65.64.14,1.19Q4.63,31.22,4.07,30.71ZM5.3,31.77l-.14-1.18,1.11,1.1.12.95C6,32.37,5.67,32.08,5.3,31.77Zm1.21,1-.12-.93,1,1,0,.62Zm.82-5.07-.89-.78.08-1.1.35.1.58.18Zm.13-1.76-.57-.18-.36-.1.1-1.47,1-.48ZM6.65,24l.17-2.53,1,.52H7.76l-.12,1.54Zm1,7.69v-.92L8.25,29l0,3-.52-.27Zm0,.25.52.27.09,1.35L7.82,33ZM8,33.79l-.15-.09,0-.47.52.51V34Zm.45.28v-.22l.54.53Zm1,.57-1-1-.1-1.41,1.21.57.16,1.37-.24.48Zm.12.07.15-.32,0,.43Zm.08-1.86L10,33l.12.31,0,0h0L9.79,34Zm.24,2-.08-.67.33-.69h0l.17,1.57ZM10.29,33h0l-.07,0,.37-3.26.2.07v.07l0,2Zm.53-.89v.37l-.39.48Zm-.3.95.31-.38v.54L10.52,33Zm0,.21.31.12.06.68-.32-.35Zm.08.68.31.35.1,1.19-.25-.12Zm.49,4.33-.29-2.55c.5.23,1,.44,1.5.64l.34,1.07-1.47.85Zm1.22,1.92-.91-1.21,1.75.31.27,1.12-1-.14Zm.6.8.68.09.29,1.18Zm1-.52-.27-1.09.24,0,.78,1.15Zm.17.67.92.12-.55,1.38Zm.67,2,.53-1.35.28,1.35Zm.88-1.78.67.09.11.23-.49,1.1Zm.63,1.78.4-.9.4.9Zm.84,0,.18-.19.11.19ZM17,41.45h1.9l-1,1.53Zm2.63,1.63H18.4l.89-1.38h1.09Zm-.1-1.7.5-.79.48.8Zm1.16-.17-.51-.85.44-.69h.94Zm.14-1.86.44-.69.47.7Zm1.05-.23-.47-.68.3-.46.67-.07.08.19Zm.72-11.3-.09-.09-.27-.86v-.21h0l.35.53Zm.06-.83-.2-.3.21,0Zm0,.93,0-.58L23.83,29l-.08,1.28-.41-1.71Zm.42,9.44.05-.84.77-.45.24,1.2C23.8,37.31,23.45,37.34,23.09,37.36Zm1.17-.1L24,36l1.25-.72.28,1.8Zm1.37-.19-.28-1.79.37.09L26,37ZM26,32.88l.52,0V35l-.41.05Zm.14,2.3.41,0,.08.31-.46-.12Zm.35,1.75-.29-1.44.48.12L27,36.83Zm.61-.12-.31-1.17,1.56.4.12.46C28,36.61,27.55,36.71,27.07,36.81Zm1.48-.34-.1-.4.8.21Zm1-.28L28.4,35.9l-.26-1c.46-.07.9-.15,1.32-.23l.28,1.47Zm.25-.07,0,0-.28-1.45L31,34.36l.28,1.24C30.88,35.76,30.38,35.94,29.8,36.12Zm2.74-1.19a4,4,0,0,1-1.14.62l-.28-1.21,1.33-.3.18.77Zm.17-.25L32.55,34l.4-.1A2.11,2.11,0,0,1,32.71,34.68Zm.26-.94-.42.1,0-1.29.32-.07A4.64,4.64,0,0,1,33,33.74Z"/>
  </g>
</svg>
