<svg id="Layer_1" data-name="Layer 1" xmlns="http://www.w3.org/2000/svg" width="35mm" height="35mm" viewBox="0 0 99.2 99.2"><defs><style>.cls-1{fill:#9ab04c;}.cls-2{fill:#fff;}.cls-3{isolation:isolate;}</style></defs><title>Artboard 1</title><rect class="cls-1" width="99.2" height="99.2"/><path class="cls-2" d="M97.09,20.27a11.25,11.25,0,0,0-8.78-.57.5.5,0,0,0-.11.8c.64.46,1.27,1,1.91,1.48V21.3c-.74.57-1.59,1-2.33,1.59a.44.44,0,0,0,.21.8c1.8-.11,4-.11,5.29,1.25,1.06,1.25.74,3,.63,4.67,0,.34.43.57.64.34a21.54,21.54,0,0,1,2.22-2.27c.69-.77,1.57-1.09,1.59.34a5,5,0,0,0-.11.68c0,1.48-1.16,2.85-1.16,4.44s.74,3.19,1,4.79a2.19,2.19,0,0,1,0,1.59,24.38,24.38,0,0,1-2.43,1.25c-1.06.46-5.93,2.39-5.5-1.14a.61.61,0,0,0-.32-.45c-1.59-.34-3.81-1.48-5.08,0-.85,1-1.16,3.19-1.8,4.44a38.8,38.8,0,0,1-2.85,5.12c.21.12.38,0,.6.14a18.27,18.27,0,0,0-.39-6.74c-.64-2.28-1.8-4.21-2.22-6.49s-1.17-5.13-1-7.29c.21-1.82.53-2.85-.21-4.67-1.06-2.85-2.86-6.15-6-6.49s-5.82,1.93-7.09,5c-.1.23,0,.68.32.68,1.27-.11,2.54-1.25,3.07.57.1.23.32.46.63.23.85-.68,3,3.42,3.49,4,.11.22.53.45.64.68s.21.11.32.23c1.27.79,1,2.27-.85,4.21a.48.48,0,0,0-.53.46c0,2.62-1.37,3.41-3,5.12-.85.91-.85,2-1.06,3.3-.63,4.1-1.16,8.2-1.69,12.19.21.11.4.13.61.25C66.6,47.28,70.53,41,76.56,38.49L76,37.93c-1.38,4.32-3.28,9-3.71,13.43-.1,1.37.43,3.42,1.91,2.17l-.64-.34a28.42,28.42,0,0,1,.21,4.32c-.31,2.51-.74,3.08-3.06,3.31-3.18.23-6.25-.91-7.3-4.44-.11-.35-.43-.46-.64-.23-2.54,2.39-4.44-3.65-5.82-4.9a2.57,2.57,0,0,0-2.75-.68c-.21,0-.32.34-.32.57.64,1.59,3.18,9.11,5.82,7.51.95-.57,1.17-2.39,1.48-3.3,1.06-3.19,2-6.38,3.07-9.45.11-.34-.42-.69-.63-.46a5.35,5.35,0,0,1-6.46,1.94c.11.23.11.45.22.68,1.58-1.59,3.8-1.71,5.28-3.53a8.75,8.75,0,0,0,1.7-4.9c.1-2.5-1.48-5-.74-7.4.53-1.82,1.69-2.73,1.37-4.78-.63-4.1-4-4.44-7-3.19-1.69.8-3.39,1.71-4.13,3.76-.52,1.36.32,2.62-.63,3.76-.11.11-.11.22-.11.45a15.83,15.83,0,0,0,.11,2.28.41.41,0,0,0,.42.57c2.33.23,1.38,4.33,1.48,6,.22,2.17.53,3.88-.63,5.93-1.8,3.19-3.69,6.4-5.49,9.59a1.1,1.1,0,0,0,.78,0c.21-2.73.48-6.19-1.53-8.24-1-.91-2.12-1-3.28-1.48a5.8,5.8,0,0,1-3.6-2.84c-1.27-2.28-.32-3.54.42-5.59a3.35,3.35,0,0,0,.22-2.84,20,20,0,0,0-3.28-5.47c-1.91-2.16-5.59.14-7.7.82.21.23.2.64.41.87,2-6.26,9.08-7.16,12.15-1.46a9.25,9.25,0,0,1,1.17,4.44c0,1.59-.64,2.62-1,4.1-.53,2.51,1.06,4.67-1.37,6.83C41.12,47,39.64,47.49,38.37,49c-.53.69-.84,1.82-1.9,1.26S35.09,47.61,35,46.47c-.11-2.17,0-1.66,1.45-2.23,1.06-.34,2.25-.28,2.57-1.3.1-.35-.32-.57-.64-.46-3,1.48-5.18-1.94-5.71-4.55a27,27,0,0,1-.32-5.81c0-.46-.74-.57-.74-.12-.32,2.28-.74,4.67-1.06,7-.31,1.71-1.48,2.85-1.9,4.33a2.33,2.33,0,0,0,.32,2c.31.45,1.05.68,1.16,1.14.32,1.36-2.43,4-3.17,5a15.35,15.35,0,0,0-2.12,3.64,13.21,13.21,0,0,0,0,9.23c.11.23.42.45.64.23a10.13,10.13,0,0,0,2.11-7.75c-.42-4-2.75-6.15-5.08-9-.53-.68-.74-.34-.84-1.36a16.85,16.85,0,0,1,.74-2.17,13.85,13.85,0,0,0,.31-5.12,27.7,27.7,0,0,0-4-10.71c-.63-1-1.9-4-3.49-2.73s-1,5.92-.21,7.4c.95,1.82,2,1.25,2,4.56a14.38,14.38,0,0,1-.53,3.07c-.31,1.71-.95,4-.63,5.7s1.58,3,3.07,1.82L18.27,48c-.32,5.92-9.41,6.26-12.48,3C2.19,47,4,40.66,5.79,36.33c.74-1.71,1.48-3.3,2.11-5,.43-1.14.74-2.39,1.17-3.64.1-.23.1-.57.21-.8.21-2.05,1.48-2.51,3.7-1.25.32,1-.74,3.18-.74,4.21a2.49,2.49,0,0,0,.66,1.92c.1-.22.19-.21.4-.44-4.23-.91-5.4,6.26-5,9.45A8.39,8.39,0,0,0,9.7,44.3c.85,1.26,2.12,3.08.53,4-.63.45-1.8.45-2.54.8a19.46,19.46,0,0,0-2.22,1.14c-3,1.82-6.14,4.32-7.93,7.4-1,1.59-1.06,3.42,1.05,3.42.53,0,.53-.8,0-.92-2.85-.11,2.75-5.8,3.6-6.49C4.62,51.48,7.9,49,11.18,49c.11,0,.32-.11.32-.23.85-1.93,0-3.41-1.06-5a9.6,9.6,0,0,1-1.37-5.92c.21-2.05,1.16-6.49,4-5.92.42.11.63-.34.42-.68-1.48-1.94,1.06-4.9.11-7.18a2.18,2.18,0,0,0-3.49-.68c-2,1.59-2.33,5.92-3.28,8.2-1.27,3.19-3,6.26-3.6,9.68-1,5.24.63,11.05,6,12,3.81.68,9.41-.8,9.73-5.7a.38.38,0,0,0-.63-.34c-2.54,2.05-1.59-4.21-1.59-4.44l.32-2.05a21.22,21.22,0,0,0,.63-4.44A3.17,3.17,0,0,0,17,34.05c-.42-.57-1.16-1-1.59-1.71-.63-1-.52-2.5-.52-3.64.1-1.48.63-2.62,2.11-1.37a6.42,6.42,0,0,1,1.17,2.05,32.1,32.1,0,0,1,2.43,5c1.37,3.88,1.69,8.32-.32,12a.53.53,0,0,0,.11.57c4.55,3.65,8.78,11,4.12,16.52.21.11.43.11.64.22a12.43,12.43,0,0,1,2-11.95c1.48-1.94,3-3.65,3.6-6.15a.45.45,0,0,0-.43-.57c-2.85,0-.1-3.31.11-4a9.69,9.69,0,0,0,.42-1.71c.42-2.5.67-5.83,1.09-8.33-.21,0-.45.31-.66.31-.1,3.19-.22,7.34,1.79,10,1.38,1.71,3.39,2.5,5.29,1.48-.21-.12-.58.17-.79.06-1.06.45-2.06.28-3.12.74a.53.53,0,0,0-.54.33c-.53,3,.22,5.7,2.55,7.41a.46.46,0,0,0,.53-.11c1.58-2.74,3.59-3.76,5.92-5.58a3.23,3.23,0,0,0,1.48-3.08c-.1-1.37-.63-2.39-.31-3.87A33.4,33.4,0,0,0,45,35.19a9.06,9.06,0,0,0-.95-5c-3.07-6.95-11.54-6.6-14,.68-.11.35.21.57.53.57,2-.57,4.23-1.82,6.14-1.14,1.58.57,3,2.74,3.7,4.45,1.06,2.73-.64,3.41-1,5.69A5.31,5.31,0,0,0,40,43.62a6.69,6.69,0,0,0,4.44,3.64c1.91.57,3.49,1.14,4.13,3.53a18.81,18.81,0,0,1,.21,5.47.4.4,0,0,0,.74.23c1.69-3,3.39-5.92,5.08-9,1.16-2.05,1.59-3.3,1.16-5.69s.53-5.36-1.06-7.41c-.21-.22-.74-.45-.84-.56-.32-.57,0-2.28.53-2.51.21-.11.21-.34.1-.57C51.91,25.17,64,20.61,63.87,28c0,1.48-1.06,2.27-1.48,3.53a4.42,4.42,0,0,0,0,2.62c.42,2.73,1.37,5.12.31,8-1.26,3.3-4.12,3.07-6.24,5.12a.43.43,0,0,0,.21.69,6,6,0,0,0,7.2-2.17c-.21-.11-.29.24-.51,0-1,3-2,5.46-3.09,8.54-.1.34-.53,2.5-.84,2.61-1,.35-2.44-1.13-3-1.82-.31-.45-.65-1.28-1-1.82s-.51-1.14-.61-1.48c.84-.8,1.44-.21,2,.68,1.69,1.71,3.17,6.84,6.24,4-.21-.11-.36,0-.57-.13,1.59,5.47,6.7,5.37,11.15,4.46.1,0,.21-.12.31-.34a30.7,30.7,0,0,0,.22-7.64.39.39,0,0,0-.64-.34,2.43,2.43,0,0,1-.42-2.73c.21-.68.32-1.37.53-1.94.21-1,.53-1.93.84-3,.64-2.28,1.49-4.55,2.23-6.72a.45.45,0,0,0-.53-.57C69.9,40.2,65.88,46.69,65,53.76c-.1.57.74.79.74.22L67,45.1a28.6,28.6,0,0,1,.64-4.44c1.37-4,1.06-1.37,2.22-3a6.64,6.64,0,0,0,1.27-2.05c.1-.23.32-1.6.42-1.82.42-.46,1.17-.46,1.8-1,2.12-2,.11-4.21-1.27-5.81-1.16-1.36-1.8-3.53-3.28-4.55-1.16-.8-.74.34-1.48-1.37-.11-.23-.32-.23-.53-.11a4.51,4.51,0,0,1-2.64.79l.31.69c1.7-3.88,6.25-6.38,9.42-2.74,1.27,1.48,2.86,4.33,2.75,6.38,0,1.14-.63,2.28-.53,3.42.11,1.48.64,3,.85,4.44a15.49,15.49,0,0,0,.63,3.76c.53,1.59,1.38,3,1.8,4.55a19.5,19.5,0,0,1,.42,6.61.4.4,0,0,0,.74.23A37.21,37.21,0,0,0,84.29,42a12.89,12.89,0,0,1,.63-1.94,3.5,3.5,0,0,1,3.18-.46c1.05.46.63.57,1.05,1.37,2.12,3.42,7.51,0,9.95-1.48.21-.11.21-.34.1-.57-1.16-2.85-2-5.58-1-8.54.31-1.14,1.16-2.73.74-4-1.06-3-4,1.73-4.85,2.64.22.12.19.21.4.32,0-1.59.11-3.3.11-4.89,0-.12-.11-.35-.21-.35A12.23,12.23,0,0,0,88,22.85c.11.23-.2.38-.1.61.74-.57,1.59-1,2.33-1.59a.4.4,0,0,0,0-.69c-.63-.45-1.27-1-1.9-1.48,0,.23-.11.57-.11.8a10.63,10.63,0,0,1,8.15.46c.84.34,1.27-.46.74-.69Z"/><g class="cls-3"><g class="cls-3"><path class="cls-2" d="M40.17,79.36v6.15l-.06.08h-.79L36.9,80.86l-.13-.4v5.06l-.06.07h-.58l-.07-.07V79.37l.07-.07h.77L39.32,84l.15.45V79.36l.07-.06h.57Z"/><path class="cls-2" d="M43.12,82.5v-.09l1.53-3.13h.52l.07.07v.29c-.59,1.19-1.08,2.32-1.67,3.5h-.11v2.35l-.08.08h-.64V83.14h-.13l-1.76-3.52v-.27l.07-.07h.55l1.61,3.13v.09Z"/><path class="cls-2" d="M45.93,85.49V79.35l.07-.06h3.63l.06.06v.57l-.07.07h-3v1.92h2.78l.07.06v.57l-.07.07H46.64v2.28h3l.07.08v.54l-.06.07H46Z"/><path class="cls-2" d="M54.82,85.58H54.2l-1.6-2.73H52l-.39-.23v2.9l-.09.07h-.54l-.08-.07V79.35l.06-.06H53c1.35,0,1.66.75,1.66,1.58v.48c0,.37-.15,1.49-1.28,1.49l1.48,2.48v.2Zm-1.89-3.33c.76,0,1-.23,1-.9V80.9c0-.7-.29-.91-1-.91H51.56v2.26Z"/><path class="cls-2" d="M55.64,85.49V79.35l.07-.06h3.63l.07.06v.57l-.08.07h-3v1.92h2.79l.06.06v.57l-.06.07H56.35v2.28h3l.08.08v.54l-.07.07H55.73Z"/><path class="cls-2" d="M63.56,85.58V80H62l-.06-.07v-.57l.06-.07h3.9l.06.06v.56l-.09.09H64.28v5.51l-.07.07Z"/><path class="cls-2" d="M67.57,85.51l-.07.07h-.57l-.07-.07V79.36l.07-.07h.57l.07.07Z"/><path class="cls-2" d="M72.9,81v2.93a1.59,1.59,0,0,1-1.69,1.69H69.07L69,85.51V79.35l.09-.07h2.09A1.6,1.6,0,0,1,72.9,81Zm-.7,0a.89.89,0,0,0-1-1H69.71v4.91h1.55a.88.88,0,0,0,.94-1Z"/><path class="cls-2" d="M77.69,84c0,1.13-.53,1.7-2,1.7s-1.94-.59-2-1.55l.08-.06h.57l.07.06c0,.63.45.86,1.24.86,1,0,1.32-.26,1.32-1a.86.86,0,0,0-.55-.9c-.56-.28-1.11-.53-1.78-.85a1.36,1.36,0,0,1-.84-1.42c0-.93.46-1.59,1.86-1.59s1.9.38,1.93,1.5l-.07.07H77l-.07-.08c0-.63-.23-.81-1.2-.81s-1.16.33-1.16.86a.88.88,0,0,0,.56.9l1.62.72A1.46,1.46,0,0,1,77.69,84Z"/></g><g class="cls-3"><path class="cls-2" d="M38,90.34h0c.38.48.81,1,2,2.5v.39l-.17.18h-.71c-.7-.79-1.34-1.65-2-2.5h-.27v2.32l-.18.18h-.7l-.18-.18V87.33l.19-.2h.69l.18.2v2.58H37l2-2.78h.66l.18.2v.37Z"/><path class="cls-2" d="M45,87.32v4.35c0,1.24-.63,1.84-2.08,1.84s-2.07-.61-2.07-1.84V87.33l.18-.2h.68l.19.2v4.34c0,.61.39.85,1,.85s1-.25,1-.85V87.33l.18-.2h.69Z"/><path class="cls-2" d="M49.59,92.58v.66l-.17.18H45.91l-.18-.18V87.32l.21-.19h.68l.17.2v5.08h2.65Z"/><path class="cls-2" d="M50.87,93.42V88.17H49.5L49.32,88v-.67l.18-.2h3.81l.17.19V88l-.19.2H51.93v5.07l-.18.18Z"/><path class="cls-2" d="M58,87.32v4.35c0,1.24-.63,1.84-2.08,1.84s-2.07-.61-2.07-1.84V87.33l.18-.2h.67l.19.2v4.34c0,.61.39.85,1,.85s1-.25,1-.85V87.33l.18-.2h.68Z"/><path class="cls-2" d="M62.82,93.42h-.76l-1.51-2.56H60l-.17-.16v2.54l-.18.18H59l-.15-.18V87.32l.18-.19h2.06c1.4,0,1.74.8,1.74,1.68v.46a1.47,1.47,0,0,1-1.09,1.54c.24.42.49.84.75,1.25l.53.88v.3ZM61,89.92c.58,0,.77-.16.77-.66v-.43c0-.51-.2-.67-.7-.67H59.87v1.76Z"/><path class="cls-2" d="M68.94,87.32v5.92l-.19.18h-.69l-.18-.18V89.13l-.2.58L66.8,91.5H66l-.91-1.84-.18-.53v4.11l-.14.18H64l-.15-.18V87.33l.18-.2h1L66.39,90l1.39-2.82h1Z"/><path class="cls-2" d="M74,87.32v4.35c0,1.24-.63,1.84-2.08,1.84s-2.07-.61-2.07-1.84V87.33l.18-.2h.67l.19.2v4.34c0,.61.39.85,1,.85s1-.25,1-.85V87.33l.18-.2h.68Z"/><path class="cls-2" d="M77.65,90.05a1.52,1.52,0,0,1,1,1.7c0,1.19-.55,1.79-2.09,1.79s-2-.66-2-1.72l.19-.18h.67l.19.18c0,.5.37.68,1,.68.84,0,1.06-.19,1.06-.77a.63.63,0,0,0-.43-.68l-1.65-.8a1.45,1.45,0,0,1-.91-1.51c0-1,.47-1.67,1.94-1.67s2,.42,2,1.66l-.18.18h-.71l-.17-.21c0-.5-.16-.62-.94-.62s-.9.23-.9.61a.67.67,0,0,0,.42.68Z"/><path class="cls-2" d="M79.47,93.22v-5.9l.19-.19h3.56l.17.19V88l-.18.18H80.53V89.6H83l.18.18v.67l-.18.18H80.53v1.78h2.7l.16.2v.63l-.17.18H79.68Z"/><path class="cls-2" d="M88.23,87.32v4.35c0,1.24-.63,1.84-2.08,1.84s-2.07-.61-2.07-1.84V87.33l.18-.2h.68l.19.2v4.34c0,.61.38.85,1,.85s1-.25,1-.85V87.33l.18-.2H88Z"/><path class="cls-2" d="M94.1,87.32v5.92l-.19.18h-.68l-.18-.18V89.13l-.2.58c-.28.55-.63,1.27-.88,1.79h-.82l-.91-1.84-.18-.53v4.11l-.15.18h-.75L89,93.24V87.33l.17-.2h1L91.55,90l1.39-2.82h1Z"/></g></g></svg>
