<svg id="stevnsfort" xmlns="http://www.w3.org/2000/svg" width="155.91" height="99.21" viewBox="0 0 155.91 99.21">
  <defs>
    <style>
      .cls-1 {
        fill: #9ab04c;
      }

      .cls-2 {
        fill: #fff;
      }
    </style>
  </defs>
  <title>nyere-kultur-desktop</title>
  <rect class="cls-1" x="-0.06" y="-3.66" width="159.3" height="110.1"/>
  <rect class="cls-1" x="56.62" width="99.21" height="99.21"/>
  <path class="cls-2" d="M153.72,20.27a11.27,11.27,0,0,0-8.78-.57.51.51,0,0,0-.2.68.27.27,0,0,0,.09.12c.64.46,1.27,1,1.91,1.48V21.3c-.74.57-1.59,1-2.33,1.59a.45.45,0,0,0-.11.62.44.44,0,0,0,.32.18c1.8-.11,4-.11,5.29,1.25,1.06,1.25.74,3,.63,4.67,0,.34.43.57.64.34a22.67,22.67,0,0,1,2.22-2.27c.69-.77,1.57-1.09,1.59.34a5.35,5.35,0,0,0-.11.68c0,1.48-1.16,2.85-1.16,4.44s.74,3.19,1,4.79a2.21,2.21,0,0,1,0,1.6,26.49,26.49,0,0,1-2.43,1.25c-1.06.46-5.93,2.39-5.5-1.14a.64.64,0,0,0-.32-.46c-1.59-.34-3.81-1.48-5.08,0-.85,1-1.16,3.2-1.8,4.45a39.47,39.47,0,0,1-2.85,5.12c.21.12.38,0,.6.14a18.2,18.2,0,0,0-.39-6.74c-.64-2.28-1.8-4.22-2.22-6.5s-1.17-5.13-1-7.29c.21-1.82.53-2.85-.21-4.67-1.06-2.85-2.86-6.15-6-6.49s-5.82,1.93-7.09,5c-.1.23,0,.68.32.68,1.27-.11,2.54-1.25,3.07.57.1.23.32.46.63.23.85-.68,3,3.42,3.49,4,.11.22.53.45.64.68s.21.11.32.23c1.27.79,1,2.27-.85,4.21a.5.5,0,0,0-.53.43v0c0,2.62-1.37,3.41-3,5.12-.85.91-.85,2-1.06,3.31-.63,4.1-1.16,8.2-1.69,12.19.21.11.4.13.61.25.85-6.84,4.78-13.12,10.81-15.64l-.56-.56c-1.38,4.33-3.28,9-3.71,13.44-.1,1.37.43,3.42,1.91,2.17l-.64-.34a28.29,28.29,0,0,1,.21,4.32c-.31,2.51-.74,3.08-3.06,3.31-3.18.23-6.25-.91-7.3-4.44-.11-.35-.43-.46-.64-.23-2.54,2.39-4.44-3.65-5.82-4.9a2.56,2.56,0,0,0-2.75-.68c-.21,0-.32.34-.32.57.64,1.59,3.18,9.11,5.82,7.51,1-.57,1.17-2.39,1.48-3.3,1.06-3.19,2-6.38,3.07-9.45.11-.34-.42-.69-.63-.46a5.36,5.36,0,0,1-6.46,1.94c.11.23.11.45.22.68,1.58-1.59,3.8-1.71,5.28-3.53a8.79,8.79,0,0,0,1.7-4.9c.1-2.51-1.48-5-.74-7.41.53-1.82,1.69-2.73,1.37-4.78-.63-4.1-4-4.44-7-3.19-1.69.8-3.39,1.71-4.13,3.76-.52,1.36.32,2.62-.63,3.76-.11.11-.11.22-.11.45a15.69,15.69,0,0,0,.11,2.28.41.41,0,0,0,.21.54.39.39,0,0,0,.21,0c2.33.23,1.38,4.34,1.48,6,.22,2.17.53,3.88-.63,5.93-1.8,3.19-3.69,6.4-5.49,9.59a1.16,1.16,0,0,0,.78,0c.21-2.73.48-6.19-1.53-8.24-1-.91-2.12-1-3.28-1.48A5.8,5.8,0,0,1,98,44.05c-1.27-2.28-.32-3.54.42-5.6a3.36,3.36,0,0,0,.22-2.84,20.33,20.33,0,0,0-3.29-5.47c-1.91-2.16-5.59.14-7.7.82.21.23.2.64.41.87,2-6.26,9.09-7.16,12.16-1.46a9.46,9.46,0,0,1,1.17,4.44c0,1.59-.64,2.62-1,4.1-.53,2.52,1.06,4.68-1.37,6.84C97.75,47,96.26,47.5,95,49c-.53.69-.84,1.82-1.9,1.26s-1.38-2.65-1.47-3.79c-.11-2.17,0-1.66,1.45-2.23,1.06-.34,2.25-.28,2.57-1.3.1-.35-.32-.57-.64-.46-3,1.48-5.18-1.94-5.71-4.56A27.5,27.5,0,0,1,89,32.12c0-.46-.74-.57-.74-.12-.32,2.28-.74,4.67-1.06,7-.31,1.72-1.48,2.86-1.9,4.34a2.37,2.37,0,0,0,.32,2c.31.45,1,.68,1.16,1.14.32,1.36-2.43,4-3.17,5a15.4,15.4,0,0,0-2.12,3.64,13.21,13.21,0,0,0,0,9.23c.11.23.42.45.64.23a10.11,10.11,0,0,0,2.11-7.75c-.42-4-2.75-6.15-5.08-9-.53-.68-.74-.34-.84-1.36A17.88,17.88,0,0,1,79,44.3a13.85,13.85,0,0,0,.31-5.13,27.63,27.63,0,0,0-4-10.71c-.63-1-1.9-4-3.49-2.73s-1,5.92-.21,7.4c1,1.82,2,1.25,2,4.56a14.09,14.09,0,0,1-.53,3.08c-.31,1.71-1,4-.63,5.7s1.58,3,3.07,1.82L74.89,48c-.32,5.92-9.41,6.26-12.48,3-3.6-4-1.79-10.34,0-14.68.74-1.71,1.48-3.3,2.11-5,.43-1.14.74-2.39,1.17-3.64.1-.23.1-.57.21-.8.21-2.05,1.48-2.51,3.7-1.25.32,1-.74,3.18-.74,4.21a2.49,2.49,0,0,0,.66,1.92c.1-.22.19-.21.4-.44-4.23-.91-5.4,6.26-5,9.46a8.42,8.42,0,0,0,1.4,3.52c.85,1.26,2.12,3.08.53,4-.63.45-1.8.45-2.54.8a19.38,19.38,0,0,0-2.22,1.14c-3,1.82-6.14,4.32-7.93,7.4-1,1.59-1.06,3.42,1.05,3.42.53,0,.53-.8,0-.92-2.85-.11,2.75-5.8,3.6-6.49,2.43-2.17,5.71-4.65,9-4.65.11,0,.32-.11.32-.23.85-1.93,0-3.41-1.06-5a9.65,9.65,0,0,1-1.37-5.93c.21-2.05,1.16-6.49,4-5.92.42.11.63-.34.42-.68-1.48-1.94,1.06-4.9.11-7.18A2.19,2.19,0,0,0,67.34,23a2.33,2.33,0,0,0-.61.41c-2,1.59-2.33,5.92-3.28,8.2-1.27,3.19-3,6.26-3.6,9.69-1,5.24.63,11,6,12,3.81.68,9.41-.8,9.73-5.7a.39.39,0,0,0-.32-.44.4.4,0,0,0-.31.1c-2.54,2-1.59-4.21-1.59-4.44l.32-2a20.94,20.94,0,0,0,.63-4.45,3.17,3.17,0,0,0-.69-2.25c-.42-.57-1.16-1-1.59-1.71-.63-1-.52-2.5-.52-3.64.1-1.48.63-2.62,2.11-1.37a6.35,6.35,0,0,1,1.17,2.05,31.6,31.6,0,0,1,2.43,5c1.37,3.88,1.69,8.33-.32,12A.55.55,0,0,0,77,47c4.55,3.65,8.78,11,4.12,16.52.21.11.43.11.64.22a12.44,12.44,0,0,1,2-12c1.48-1.94,3-3.65,3.6-6.15a.45.45,0,0,0-.31-.56h-.12c-2.85,0-.1-3.31.11-4a8.47,8.47,0,0,0,.42-1.72c.42-2.5.67-5.83,1.09-8.33-.21,0-.45.31-.66.31-.1,3.19-.22,7.34,1.79,10C91.07,43,93.08,43.8,95,42.78c-.21-.12-.58.17-.79.06-1.06.45-2.06.28-3.12.74a.52.52,0,0,0-.54.33c-.53,3,.22,5.7,2.55,7.41a.47.47,0,0,0,.53-.11c1.58-2.74,3.6-3.76,5.93-5.58A3.24,3.24,0,0,0,101,42.55c-.1-1.37-.63-2.39-.31-3.88.36-1.14.67-2.3.92-3.48a9.22,9.22,0,0,0-.95-5c-3.07-7-11.55-6.6-14,.68-.11.35.21.57.53.57,2-.57,4.23-1.82,6.14-1.14,1.58.57,3,2.74,3.71,4.45,1.06,2.73-.65,3.41-1,5.7a5.34,5.34,0,0,0,.59,3.18,6.69,6.69,0,0,0,4.44,3.64c1.91.57,3.49,1.14,4.13,3.53a19.28,19.28,0,0,1,.21,5.47.4.4,0,0,0,.38.42.44.44,0,0,0,.36-.19c1.69-3,3.39-5.92,5.08-9,1.16-2,1.59-3.3,1.16-5.69s.53-5.37-1.06-7.42c-.21-.22-.74-.45-.84-.56-.32-.57,0-2.28.53-2.51.21-.11.21-.34.1-.57-2.58-5.58,9.51-10.14,9.38-2.75,0,1.48-1.06,2.27-1.48,3.53a4.34,4.34,0,0,0,0,2.62c.42,2.73,1.37,5.12.31,8-1.26,3.3-4.12,3.07-6.24,5.12a.42.42,0,0,0,0,.6.51.51,0,0,0,.16.09,6,6,0,0,0,7.2-2.17c-.21-.11-.29.24-.51,0-1,3-2,5.46-3.09,8.54-.1.34-.53,2.5-.84,2.61-1,.35-2.44-1.13-3-1.82-.31-.45-.65-1.28-1-1.82a5.45,5.45,0,0,1-.61-1.48c.84-.8,1.44-.21,2,.68,1.69,1.71,3.17,6.84,6.24,4-.21-.11-.36,0-.57-.13,1.59,5.47,6.7,5.37,11.15,4.46.1,0,.21-.12.31-.34a31,31,0,0,0,.22-7.64.39.39,0,0,0-.35-.43.35.35,0,0,0-.29.09,2.44,2.44,0,0,1-.42-2.73c.21-.68.32-1.37.53-1.94.21-1,.53-1.93.84-3,.64-2.28,1.49-4.55,2.23-6.73a.46.46,0,0,0-.3-.56.59.59,0,0,0-.23,0c-6.28,2.66-10.3,9.15-11.18,16.22-.1.57.74.79.74.22l1.26-8.88a28.79,28.79,0,0,1,.64-4.44c1.37-4,1.06-1.38,2.22-3a6.78,6.78,0,0,0,1.27-2c.1-.23.32-1.6.42-1.82.42-.46,1.17-.46,1.8-1,2.12-2,.11-4.21-1.27-5.81-1.16-1.36-1.8-3.53-3.28-4.55-1.16-.8-.74.34-1.48-1.37-.11-.23-.32-.23-.53-.11a4.46,4.46,0,0,1-2.64.79l.31.69c1.7-3.88,6.25-6.38,9.42-2.74,1.27,1.48,2.86,4.33,2.75,6.38,0,1.14-.63,2.28-.53,3.42.11,1.48.64,3,.85,4.44a15.41,15.41,0,0,0,.63,3.76c.53,1.59,1.38,3,1.8,4.56a19.33,19.33,0,0,1,.42,6.61.41.41,0,0,0,.38.42.42.42,0,0,0,.36-.19A37.49,37.49,0,0,0,140.92,42a12.56,12.56,0,0,1,.63-1.94,3.47,3.47,0,0,1,3.18-.46c1.05.46.63.57,1.05,1.37,2.12,3.42,7.51,0,9.95-1.48.21-.11.21-.35.1-.58-1.16-2.85-2-5.58-1-8.54.31-1.14,1.16-2.73.74-4-1.06-3-4,1.73-4.85,2.64.22.12.19.21.4.32,0-1.59.11-3.3.11-4.89,0-.12-.11-.35-.21-.35a12.27,12.27,0,0,0-6.39-1.25c.11.23-.2.38-.1.61.74-.57,1.59-1,2.33-1.59a.38.38,0,0,0,.14-.54.4.4,0,0,0-.14-.15c-.63-.45-1.27-1-1.9-1.48,0,.23-.11.57-.11.8A10.67,10.67,0,0,1,153,21c.84.34,1.27-.46.74-.69Z"/>
  <g>
    <g>
      <path class="cls-2" d="M96.8,79.37v6.15l-.06.08h-.8l-2.42-4.73-.13-.4v5.06l-.06.07h-.58l-.07-.07V79.38l.07-.07h.77L95.94,84l.15.45V79.37l.07-.06h.58Z"/>
      <path class="cls-2" d="M99.75,82.51v-.09l1.53-3.13h.52l.07.07v.29c-.59,1.19-1.08,2.32-1.67,3.5h-.11V85.5l-.08.08h-.64V83.15h-.13l-1.76-3.52v-.27l.07-.07h.55l1.61,3.13v.09Z"/>
      <path class="cls-2" d="M102.56,85.5V79.36l.07-.06h3.63l.06.06v.57l-.07.07h-3v1.92H106l.07.06v.57l-.07.07h-2.76V84.9h3l.07.08v.54l-.06.07h-3.65Z"/>
      <path class="cls-2" d="M111.45,85.59h-.62l-1.6-2.73h-.6l-.39-.23v2.9l-.09.07h-.54l-.08-.07V79.36l.06-.06h2c1.35,0,1.66.75,1.66,1.58v.48c0,.37-.15,1.49-1.28,1.49l1.48,2.48v.2Zm-1.89-3.33c.76,0,1-.23,1-.9v-.45c0-.7-.29-.91-1-.91h-1.37v2.26Z"/>
      <path class="cls-2" d="M112.27,85.5V79.36l.07-.06H116l.07.06v.57L116,80h-3v1.92h2.79l.06.06v.57l-.06.07H113V84.9h3l.08.08v.54l-.07.07h-3.63Z"/>
      <path class="cls-2" d="M120.19,85.59V80h-1.56l-.06-.07v-.57l.06-.07h3.9l.06.06v.56l-.09.09h-1.59v5.51l-.07.07Z"/>
      <path class="cls-2" d="M124.2,85.52l-.07.07h-.57l-.07-.07V79.37l.07-.07h.57l.07.07Z"/>
      <path class="cls-2" d="M129.53,81v2.93a1.59,1.59,0,0,1-1.48,1.69.74.74,0,0,1-.21,0H125.7l-.07-.11V79.36l.09-.07h2.09a1.6,1.6,0,0,1,1.72,1.47A1,1,0,0,1,129.53,81Zm-.7,0a.9.9,0,0,0-.77-1,.88.88,0,0,0-.23,0h-1.49v4.91h1.55a.88.88,0,0,0,1-.81,1.21,1.21,0,0,0,0-.19Z"/>
      <path class="cls-2" d="M134.32,84c0,1.13-.53,1.7-2,1.7s-1.94-.59-2-1.55l.08-.06H131l.07.06c0,.63.45.86,1.24.86,1,0,1.32-.26,1.32-1a.86.86,0,0,0-.55-.9c-.56-.28-1.11-.53-1.78-.85a1.36,1.36,0,0,1-.84-1.42c0-.93.46-1.59,1.86-1.59s1.9.38,1.93,1.5l-.07.07h-.52l-.07-.08c0-.63-.23-.81-1.2-.81s-1.16.33-1.16.86a.87.87,0,0,0,.56.9l1.62.72A1.46,1.46,0,0,1,134.32,84Z"/>
    </g>
    <g>
      <path class="cls-2" d="M94.62,90.35h0l2,2.5v.39l-.18.18h-.71c-.7-.79-1.34-1.65-2-2.5h-.27v2.32l-.18.18h-.7l-.18-.18v-5.9l.19-.2h.69l.18.2v2.58h.15l2-2.78h.66l.18.2v.37Z"/>
      <path class="cls-2" d="M101.63,87.33v4.35c0,1.24-.63,1.84-2.08,1.84s-2.07-.61-2.07-1.84V87.34l.18-.2h.68l.19.2v4.34c0,.61.39.85,1,.85s1-.25,1-.85V87.34l.18-.2h.69Z"/>
      <path class="cls-2" d="M106.22,92.59v.66l-.17.18h-3.51l-.18-.18V87.33l.21-.19h.68l.17.2v5.08h2.65Z"/>
      <path class="cls-2" d="M107.5,93.43V88.18h-1.37L106,88v-.67l.18-.2h3.81l.17.19V88l-.19.2h-1.36v5.07l-.18.18Z"/>
      <path class="cls-2" d="M114.63,87.33v4.35c0,1.24-.63,1.84-2.08,1.84s-2.07-.61-2.07-1.84V87.34l.18-.2h.67l.19.2v4.34c0,.61.39.85,1,.85s1-.25,1-.85V87.34l.18-.2h.68Z"/>
      <path class="cls-2" d="M119.45,93.43h-.76l-1.51-2.56h-.55l-.17-.16v2.54l-.18.18h-.65l-.15-.18V87.33l.18-.19h2.06c1.4,0,1.74.8,1.74,1.68v.46a1.46,1.46,0,0,1-1.09,1.54c.24.42.49.84.75,1.25l.53.88v.3Zm-1.82-3.5c.58,0,.77-.16.77-.66v-.43c0-.51-.2-.67-.7-.67h-1.2v1.76Z"/>
      <path class="cls-2" d="M125.57,87.33v5.92l-.19.18h-.69l-.18-.18V89.14l-.2.58-.88,1.79h-.8l-.91-1.84-.18-.53v4.11l-.14.18h-.77l-.15-.18V87.34l.18-.2h1L123,90l1.39-2.82h1Z"/>
      <path class="cls-2" d="M130.63,87.33v4.35c0,1.24-.63,1.84-2.08,1.84s-2.07-.61-2.07-1.84V87.34l.18-.2h.67l.19.2v4.34c0,.61.39.85,1,.85s1-.25,1-.85V87.34l.18-.2h.68Z"/>
      <path class="cls-2" d="M134.28,90.06a1.52,1.52,0,0,1,1,1.7c0,1.19-.55,1.79-2.09,1.79s-2-.66-2-1.72l.19-.18h.67l.19.18c0,.5.37.68,1,.68.84,0,1.06-.19,1.06-.77a.63.63,0,0,0-.43-.68l-1.65-.8a1.45,1.45,0,0,1-.91-1.51c0-1,.47-1.67,1.94-1.67s2,.42,2,1.66l-.18.18h-.71l-.17-.21c0-.5-.16-.62-.94-.62s-.9.23-.9.61a.65.65,0,0,0,.42.68Z"/>
      <path class="cls-2" d="M136.1,93.23v-5.9l.19-.19h3.56l.17.19V88l-.18.18h-2.68v1.42h2.47l.18.18v.67l-.18.18h-2.47v1.78h2.7l.16.2v.63l-.17.18h-3.54Z"/>
      <path class="cls-2" d="M144.86,87.33v4.35c0,1.24-.63,1.84-2.08,1.84s-2.07-.61-2.07-1.84V87.34l.18-.2h.68l.19.2v4.34c0,.61.38.85,1,.85s1-.25,1-.85V87.34l.18-.2h.69Z"/>
      <path class="cls-2" d="M150.73,87.33v5.92l-.19.18h-.68l-.18-.18V89.14l-.2.58c-.28.55-.63,1.27-.88,1.79h-.82l-.91-1.84-.18-.53v4.11l-.15.18h-.75l-.16-.18V87.34l.17-.2h1L148.18,90l1.39-2.82h1Z"/>
    </g>
  </g>
</svg>
