<svg id="Layer_2" data-name="Layer 2" xmlns="http://www.w3.org/2000/svg" width="28.99" height="28.99" viewBox="0 0 28.99 28.99">
  <defs>
    <style>
      .cls-1 {
        fill: #1d1d1b;
      }

      .cls-1, .cls-2 {
        stroke: #f4f4f4;
        stroke-miterlimit: 10;
      }

      .cls-2 {
        fill: #020202;
      }
    </style>
  </defs>
  <title>pil_hvid</title>
  <g>
    <path class="cls-1" d="M14.49,28.49a14,14,0,1,1,14-14,14,14,0,0,1-14,14Zm0-27a13,13,0,1,0,13,13,13,13,0,0,0-13-13h0Z"/>
    <polygon class="cls-2" points="14.58 16.64 9.14 11.32 9.86 10.59 14.59 15.22 19.6 10.51 20.3 11.26 14.58 16.64"/>
    <polygon class="cls-2" points="14.58 20.53 9.14 15.21 9.86 14.47 14.59 19.11 19.6 14.4 20.3 15.14 14.58 20.53"/>
  </g>
</svg>
