<svg id="stevnsfort" xmlns="http://www.w3.org/2000/svg" width="55mm" height="35mm" viewBox="0 0 155.91 99.21">
  <defs>
    <style>
      .cls-1 {
        fill: #0082ae;
      }

      .cls-2, .cls-3 {
        fill: #fff;
      }

      .cls-2 {
        fill-rule: evenodd;
      }
    </style>
  </defs>
  <title>stevns-sidebar-desktop</title>
  <rect class="cls-1" x="-0.11" width="156.67" height="98.99"/>
  <g id="New_Symbol_36" data-name="New Symbol 36">
    <g>
      <polygon class="cls-2" points="86.33 40.51 87.96 41.47 89 42.8 90.34 43.83 92.2 44.27 90.78 44.49 90.93 45.01 87.81 44.49 87.44 43.9 87.37 44.12 86.33 40.51 86.33 40.51"/>
      <polygon class="cls-2" points="95.02 51.72 95.32 52.31 94.87 51.87 95.02 51.72 95.02 51.72"/>
      <polygon class="cls-2" points="67.82 52.46 67.89 53.2 69.31 55.41 67.59 53.56 66.85 53.42 66.93 52.75 67.82 52.46 67.82 52.46"/>
      <path class="cls-2" d="M61.53-.72,71.84,5.8l2.22,3.37-.22,2.72.74,1.7L74,15.07,76,17l-.44,1.26,1.11,3.91-.15,3.09.23,1.26,1-.52.44.07.3-.22,2.53-.07,4.23.88L86,28.12l.52-.3,3.13.67v1.1l1.56.52.37.89h1l.6,1-.08.81.38,1,.44-.44,1,1.77-.07,1.4,2,.74L98,37l6.77,1,3,1.55,1.26-.66,2.38,1.32h1.86l.89.89,2.16,1.33-2,3.76-.22,2.29-1,1.47,2.31,1.7h19.83l.71.82-11.49.1-8.08-.19s6.43.51,7.12.77l.17.77L113,54.61l-3-.6-6.9.36.67-.29,5.28-.44-1.49-.08-.44-.44h-1.86l-1.64.44-9.07-.07.67.15L77.18,56.07l-3.42,2.07L58.51,69.79,56.62,70l.05-3.48L61,61.83l1.49-.89h2.9l3.19-1.48L70.2,57.7l-.75-2.07,4.54-2,.37.22,6.39-.66.45.44,8.17-.74,1-.37,24.53-.37L113.6,51l-1.71.23-.89-.37-1.64.07.45-.3h-2.08l.3.89-1.12-.37-5-.29.15.73h-2.9l-2.9-1-7.43-1.25-1.11-.88-2.9-1,.07.15L84,47.15l-11.82-2-1.26.07-4,1.25-5.43.89,1.26,1-4-.45-2.08.89V40.29l.52,1.4,12.12.52,2.75-.3,1,.81L76.59,44l.74-.45,1.86.45h.67l1.93.73,3.27.67,4,2.43,1.19.07.74.45,1.63.51,2.75.23-1.11-.74.37-.37-2.16-1.55.15-1.84L91.16,39l-2.08.29-3-2.07-.59.15-3.2-2.87-.15-.89L79.26,32,76,30.63,72.8,36l.3-2.88-1.34-.51,2.9-2.51-3.35-1.92L72.72,26l-.66-1.11-2.9-2.36-1.94-1L65.66,19l-4.53-3.76L57.56,14l-.89-.51L56.76.07ZM73.69,34l.82-1.7L73.69,34ZM94.2,41.76l.6.67-.15,3.39,1.63.59,4.24,2.66,1.86.22.07.73h9.07l.67-.58.74-1.41.38-1.91L112,44h-2.82l-.75-.67-.59.74-2.6-.66-1,1,.15,1,.52.81,1.12.81-4.91-.37-2.08-.51.82-1.33,1.18.15.45-.74-.52-.67-.22.37-2.16-.29.6-1.18-1.64-.37-.59.15-3.27-1.92.44,1.47ZM101.26,50l-.81-.14.81.14Zm13.9,2.14h0Zm4.54,1.18-2.61-.59-4.68.67.23-.3-2.46.3,3.2.44.22.37,9.81-.52-.52-.51-3.19.14ZM79.86,55l3.71-1-3.71,1Z"/>
      <polygon class="cls-2" points="97.77 53.56 95.25 53.93 97.77 53.56 97.77 53.56"/>
    </g>
  </g>
  <g>
    <path class="cls-3" d="M103.52,81.63c0,1.15-.53,1.74-2,1.74s-1.94-.61-2-1.59l.08-.06h.57l.07.06c0,.64.45.87,1.24.87,1,0,1.32-.26,1.32-1a.88.88,0,0,0-.55-.92c-.56-.29-1.11-.54-1.78-.87a1.4,1.4,0,0,1-.84-1.45c0-1,.46-1.62,1.87-1.62s1.89.38,1.92,1.53l-.07.07h-.58l-.08-.08c0-.65-.23-.83-1.19-.83s-1.17.33-1.17.87a.89.89,0,0,0,.56.92l1.62.74A1.5,1.5,0,0,1,103.52,81.63Z"/>
    <path class="cls-3" d="M105.65,83.25v-5.7h-1.59l-.06-.06V76.9l.06-.07H108l.06.06v.57l-.09.09h-1.56v5.63l-.08.07Z"/>
    <path class="cls-3" d="M108.67,83.16V76.89l.07-.06h3.63l.06.06v.58l-.07.07h-3v2h2.78l.07.07v.57l-.07.07h-2.78v2.34h3l.07.08v.55l-.06.07h-3.61Z"/>
    <path class="cls-3" d="M117.82,76.9v.24l-1.7,6.11h-1.48c-.55-2-1.15-4.07-1.69-6v-.29l.08-.08h.53c.5,1.78,1.11,3.83,1.61,5.61v.11h.39v-.11l1.63-5.61h.55Z"/>
    <path class="cls-3" d="M122.5,76.9v6.28l-.07.08h-.79l-2.41-4.82-.14-.41v5.16l-.06.08h-.58l-.07-.08V76.91l.07-.07h.77l2.42,4.81.15.46V76.9l.08-.06h.56Z"/>
    <path class="cls-3" d="M127.36,81.63c0,1.15-.53,1.74-2,1.74s-1.94-.61-2-1.59l.07-.06H124l.07.06c0,.64.46.87,1.24.87,1,0,1.32-.26,1.32-1a.88.88,0,0,0-.55-.92c-.56-.29-1.1-.54-1.78-.87a1.4,1.4,0,0,1-.84-1.45c0-1,.46-1.62,1.87-1.62s1.89.38,1.92,1.53l-.07.07h-.58l-.08-.08c0-.65-.23-.83-1.19-.83s-1.16.33-1.16.87a.88.88,0,0,0,.55.92l1.62.74A1.5,1.5,0,0,1,127.36,81.63Z"/>
    <path class="cls-3" d="M132,80v.14l2.13,2.71v.29l-.06.07h-.54c-.78-.91-1.44-1.8-2.18-2.72h-.58v2.65l-.07.07h-.59l-.07-.07V76.9l.08-.07h.58l.07.07v2.94h.49l2.1-3h.53a.3.3,0,0,0,.05.07v.27Z"/>
    <path class="cls-3" d="M138.63,82.62v.56l-.06.07H135l-.06-.07V76.9l.06-.07h.61a.25.25,0,0,0,0,.07v5.65h2.93Z"/>
    <path class="cls-3" d="M140.31,83.18l-.06.07h-.57l-.08-.07V76.9l.08-.07h.57l.06.07Z"/>
    <path class="cls-3" d="M145.71,76.9v6.28l-.07.08h-.79l-2.41-4.82L142.3,78v5.16l-.06.08h-.58l-.07-.08V76.91l.07-.07h.77l2.42,4.81.15.46V76.9l.08-.06h.56Z"/>
    <path class="cls-3" d="M148,83.25v-5.7H146.4l-.06-.06V76.9l.06-.07h3.9l.06.06v.57l-.09.09H148.7v5.63l-.07.07Z"/>
  </g>
  <g>
    <path class="cls-3" d="M73.18,85.06V89.5c0,1.26-.63,1.87-2.08,1.87S69,90.75,69,89.49V85.06l.18-.19h.68l.18.19v4.43c0,.63.39.88,1,.88s1-.26,1-.88V85.06l.18-.19H73Z"/>
    <path class="cls-3" d="M78.21,85.06v6l-.14.2h-1l-1.86-3.71L75,87V91.1l-.18.18h-.68L74,91.1v-6l.19-.2h.9L77,88.66l.22.6v-4.2l.19-.19h.68Z"/>
    <path class="cls-3" d="M79.11,91.08v-6l.19-.19h3.56l.17.19v.67l-.18.19H80.16v1.47h2.5l.18.18v.68l-.18.18h-2.5v1.82h2.7l.17.21v.64l-.17.18H79.32Z"/>
    <path class="cls-3" d="M86.66,87.85a1.55,1.55,0,0,1,1,1.72c0,1.22-.55,1.83-2.09,1.83s-2-.66-2-1.75l.19-.18h.68l.19.18c0,.51.37.7,1,.7.85,0,1.06-.2,1.06-.79a.67.67,0,0,0-.42-.7L84.59,88a1.48,1.48,0,0,1-.91-1.54c0-1,.48-1.7,1.95-1.7s2,.43,2,1.7l-.18.18h-.72l-.17-.21c0-.52-.16-.64-.93-.64s-.9.23-.9.63a.69.69,0,0,0,.41.69Z"/>
    <path class="cls-3" d="M92.56,89.48a1.81,1.81,0,0,1-2,1.89,1.76,1.76,0,0,1-2-1.91V86.69a1.8,1.8,0,0,1,2-1.85c1.48,0,2,.8,2,1.81l-.19.19h-.69l-.18-.17c0-.56-.25-.79-1-.8h-.11a.78.78,0,0,0-.89.84v2.75a.79.79,0,0,0,.89.86h.11c.69,0,.93-.25,1-.84l.22-.2h.66Z"/>
    <path class="cls-3" d="M95.31,91.41c-1.48,0-2.06-.88-2.06-1.8V86.49c0-.85.55-1.78,2.07-1.78a1.82,1.82,0,0,1,2.07,1.79v3.13C97.39,90.53,96.81,91.41,95.31,91.41Zm1-4.91c0-.61-.46-.79-1-.79s-1,.2-1,.79v3.11c0,.63.68.78,1,.78h.11c.29,0,1-.11,1-.77Z"/>
    <path class="cls-3" d="M104.75,85.06v.35l-1.67,5.87h-1.63c-1.21-4.33-1.47-5.14-1.66-5.82v-.38l.19-.21h.75l1.48,5.38h.09l1.51-5.38h.74Z"/>
    <path class="cls-3" d="M105.16,91.08v-6l.19-.19h3.56l.17.19v.67l-.18.19h-2.68v1.47h2.49l.18.18v.68l-.18.18h-2.49v1.82h2.7l.16.21v.64l-.17.18h-3.54Z"/>
    <path class="cls-3" d="M113.82,91.28h-.76l-1.51-2.61H111l-.17-.17v2.6l-.18.18H110l-.15-.18v-6l.18-.19h2.06a1.52,1.52,0,0,1,1.74,1.71V87c0,.36-.11,1.4-1.09,1.58.24.43.49.86.74,1.28l.54.9v.31ZM112,87.71c.57,0,.77-.16.77-.67V86.6c0-.52-.2-.68-.7-.68h-1.18v1.79Z"/>
    <path class="cls-3" d="M119,86.67v2.81a1.7,1.7,0,0,1-1.79,1.8h-2l-.22-.17V85l.22-.18h2A1.72,1.72,0,0,1,119,86.67Zm-1,0a.69.69,0,0,0-.72-.78H116v4.34h1.26a.68.68,0,0,0,.71-.77Z"/>
    <path class="cls-3" d="M119.86,91.08v-6l.19-.19h3.56l.17.19v.67l-.18.19h-2.69v1.47h2.5l.18.18v.68l-.18.18h-2.5v1.82h2.71l.16.21v.64l-.17.18h-3.54Z"/>
    <path class="cls-3" d="M128.75,85.06v6l-.15.2h-1l-1.85-3.71-.23-.54V91.1l-.18.18h-.67l-.19-.18v-6l.19-.2h.9l1.89,3.79.22.6v-4.2l.19-.19h.68Z"/>
    <path class="cls-3" d="M132.53,87.85a1.54,1.54,0,0,1,1.05,1.72c0,1.22-.55,1.83-2.09,1.83s-2-.66-2-1.75l.18-.18h.68l.19.18c0,.51.37.7,1,.7.85,0,1.06-.2,1.06-.79a.66.66,0,0,0-.42-.7L130.46,88a1.48,1.48,0,0,1-.91-1.54c0-1,.48-1.7,1.95-1.7s2,.43,2,1.7l-.18.18h-.71l-.17-.21c0-.52-.17-.64-.94-.64s-.9.23-.9.63a.69.69,0,0,0,.41.69Z"/>
    <path class="cls-3" d="M137.63,85.06,139,91v.3h-1l-.39-1.69h-2c-.12.56-.25,1.12-.37,1.69h-1V91l1.37-5.93.22-.19h1.65Zm-.26,3.49c-.09-.43-.18-.83-.28-1.26s-.2-.89-.31-1.4h-.38l-.58,2.66Z"/>
    <path class="cls-3" d="M143.63,91.28h-.75l-1.52-2.61h-.5l-.17-.17v2.6l-.18.18h-.71l-.16-.18v-6l.18-.19h2.07a1.51,1.51,0,0,1,1.73,1.71V87c0,.36-.11,1.4-1.09,1.58l.75,1.28.53.9v.31Zm-1.83-3.57c.57,0,.77-.16.77-.67V86.6c0-.52-.21-.68-.7-.68h-1.18v1.79Z"/>
    <path class="cls-3" d="M149.32,85.06v.35l-1.67,5.87H146c-1.21-4.33-1.47-5.14-1.66-5.82v-.38l.19-.21h.75l1.48,5.38h.09l1.5-5.38h.75Z"/>
  </g>
</svg>
