<svg id="stevnsfort" xmlns="http://www.w3.org/2000/svg" width="55mm" height="35mm" viewBox="0 0 155.91 99.21">
  <defs>
    <style>
      .cls-1 {
        fill: #14a6a2;
      }

      .cls-2 {
        fill: #fff;
      }
    </style>
  </defs>
  <title>geo-sidebar-desktop</title>
  <rect class="cls-1" x="-18.09" width="175.65" height="99.21"/>
  <path class="cls-2" d="M151.68,22.85a14.63,14.63,0,0,0-.83-2.18c-.28-.67-.66-1.57-.72-1.79s-.15-.5-1.53-2.51a30.94,30.94,0,0,0-1.86-2.53l-.61-.7c-3.24-3.74-4-4.4-4.64-4.47a1.33,1.33,0,0,1-.82-.44l-.13-.15a20.27,20.27,0,0,0-3.44-3.37,15.46,15.46,0,0,0-4.46-2.48c-1.1-.33-4.28-1.44-4.75-1.6l-1-.58a10.19,10.19,0,0,0-3.58-.86l-.75-.08L121.77-1a46.52,46.52,0,0,0-5.92-.39,13.51,13.51,0,0,0-3.39.35,6.85,6.85,0,0,1-.94.16,2.54,2.54,0,0,0-1.39.44.38.38,0,0,1-.18.09.73.73,0,0,1-.3,0l-.23,0A4,4,0,0,0,109-.4a4.92,4.92,0,0,0-.67,0,21.07,21.07,0,0,0-5.12,1.67c-.29.16-1,.48-1.73.77s-1.22.52-1.62.72a12.79,12.79,0,0,0-2.34,1.75,7.53,7.53,0,0,0-2.42,1.28c-.8.75-2.45,2.6-2.73,2.95L92.15,9v2.3c.5-.69,1.11-1.47,1.38-1.8s1.89-2.15,2.59-2.79a6.81,6.81,0,0,1,2-1l.15,0,.12-.11.16-.15h0c.17,0,.32.12.47.18l.4.16a2.41,2.41,0,0,1,.26,1.17A2.26,2.26,0,0,1,99.2,8.1c-.12.18-.27.42-.42.67A10.36,10.36,0,0,1,98,9.86a10.93,10.93,0,0,0-.93,1.61c-.16.31-.3.6-.39.73a7.67,7.67,0,0,0-.59,1.8c0,.12,0,.22-.07.27a12.32,12.32,0,0,0-.15,2.39,1,1,0,0,0,.16.53,1.06,1.06,0,0,1,.16.28.82.82,0,0,0,.74.6l.36.09.18,0a2,2,0,0,0,1.31-.52,4.45,4.45,0,0,1,.48-.32l.42-.22c.7-.37,1.77-.93,2.36-1.29.18-.12.41-.25.66-.4a21.93,21.93,0,0,0,2-1.23,7.39,7.39,0,0,1,2.23-1.07,4,4,0,0,1,1.59-.15l.32.06a4.85,4.85,0,0,1,1,.6,1.8,1.8,0,0,1,.33.62l.12.28a2,2,0,0,1,0,1,.69.69,0,0,0,0,.13c-.18,1.3-.28,1.82-.33,2a7.88,7.88,0,0,0,0,2.11c0,.15,0,.36.06.55a7.34,7.34,0,0,0,.13.93,6,6,0,0,1,.16,1.11c0,.05,0,.07,0,.08a1.3,1.3,0,0,1-.29,0,1.43,1.43,0,0,0-.41,0s0,0,0,0-.25-.18-.45-.4l-.22-.23a4.72,4.72,0,0,1-.76-1.52l-.18-.45c-.07-.15-.19-.46-.32-.78-.34-.82-.58-1.41-.7-1.6-.27-.46-1.78-1.06-1.84-1.09a1.28,1.28,0,0,0-.35-.08,3.88,3.88,0,0,0-1.4.22h0a5.6,5.6,0,0,0-1.69,1.07,4.89,4.89,0,0,0-1,1.2l0,0c-.18.28-.36.63-.56,1s-.22.43-.33.63-.19.34-.27.5a6.58,6.58,0,0,1-.68,1.12,6.87,6.87,0,0,1-.59.68,8.2,8.2,0,0,0-.76.88,1.74,1.74,0,0,1-1.18.7l-.13,0c-.13,0-.44-.46-.63-.71a8.44,8.44,0,0,0-.63-.8,3.06,3.06,0,0,1-.72-1.9V21a11.07,11.07,0,0,1,.13-2.59A10.29,10.29,0,0,0,94,15c-.23-.82-.9-1.19-1.86-1.41v.9a1.87,1.87,0,0,1,.33.28,3.52,3.52,0,0,0,.58.47l.12.09h0a1.21,1.21,0,0,0,0,.87,3.69,3.69,0,0,1,0,1.84c0,.27-.09.55-.12.83a13,13,0,0,0,0,2.26,8,8,0,0,0,.55,2.11A7.5,7.5,0,0,0,95,25.11a1.67,1.67,0,0,0,1.07.64l.18,0,.2,0h.08c.43.06.82-.43,1.2-.9l.18-.21a18,18,0,0,0,2-2.7,23.45,23.45,0,0,1,2.29-3.7,3,3,0,0,1,1.95-1.07l.26,0,.19,0h0a2.44,2.44,0,0,0,.71.26,2.1,2.1,0,0,1,1.17,1l.08.12a.62.62,0,0,1,0,.1,5.19,5.19,0,0,0,.26.76,3.6,3.6,0,0,1,.19.57,2.12,2.12,0,0,0,.19.52c.08.19.16.38.23.53s.18.44.28.62.1.19.15.3a4.41,4.41,0,0,0,.41.75,2.73,2.73,0,0,0,.7.76c.07,0,.07,0,.06.15a.94.94,0,0,0,0,.33,1.87,1.87,0,0,1,.06.66l-.1.71h0a6.28,6.28,0,0,1-1.16-.7.72.72,0,0,0-.15-.11c-.19-.14-.75-.64-1.2-1s-.62-.55-.76-.66a4.61,4.61,0,0,0-.71-.44,1.82,1.82,0,0,0-.37-.18,6,6,0,0,0-1.2-.46l-.1,0a3.24,3.24,0,0,0-1.82.67.41.41,0,0,0-.11.07,2.67,2.67,0,0,0-.87,1.27l-.12.25a7.4,7.4,0,0,0-.39,1.66v.05a6.22,6.22,0,0,0,0,1.22,4.79,4.79,0,0,1,0,.63c0,.26,0,.68,0,1.13s0,.7,0,1a2.2,2.2,0,0,1-.44,1.2l-.16.28c-.13.22-.2.22-.43.21a1.61,1.61,0,0,0-.48,0h-.17a5.08,5.08,0,0,1-1.5-.67,3.65,3.65,0,0,1-1-.82l-.51-.51a5.77,5.77,0,0,1-1-1.65,4.43,4.43,0,0,0-.38-.72c-.2-.28-.66-1.16-.91-1.62L92.87,25a8.73,8.73,0,0,0-.67-.94l0-.06v1.37c.25.37.45.65.47.7s1.21,2.29,1.3,2.48,1.6,2.21,1.85,2.5a9.39,9.39,0,0,0,1.73,1.3,3.32,3.32,0,0,0,1.36.46,3.68,3.68,0,0,0,.57,0c.78-.09,1.07-1.12,1.14-1.43s.16-1.19.26-2c.06-.53.12-1,.15-1.14s0-.72,0-1.52a9.24,9.24,0,0,1,0-1,12.61,12.61,0,0,1,.52-2.3,3.44,3.44,0,0,1,1.43-1.05,2.11,2.11,0,0,1,.62,0,4.84,4.84,0,0,1,.83.18l.06,0,.29.14a1.7,1.7,0,0,1,.3.3,4,4,0,0,0,.29.3c.36.32.73.63,1.05.87s1,.87,1.08.95a7.43,7.43,0,0,0,.84.58l.73.49,0,0a.21.21,0,0,1,.06.16c0,.11,0,.11-.1.26s-.1.17-.18.31a.59.59,0,0,0-.25,0,.54.54,0,0,1-.29,0,2.39,2.39,0,0,1-.48-.12l-.17,0-.32-.08a13.76,13.76,0,0,0-1.41-.32c-.47-.05-.81-.09-1.33-.13a.74.74,0,0,0-.71.2.83.83,0,0,1-.17.11,1.47,1.47,0,0,0-.54.39l-.13.14a2.74,2.74,0,0,0-.51,1.18l-.07.2c0,.12,0,.35.08,1.28a.46.46,0,0,1,0,.1c0,.16.3,1.16.35,1.37v0L104.25,34c-1.21.34-3.18,1-3.45,1.17a15.73,15.73,0,0,0-2.66,1.54s-1.76.38-2.21-.24-2.71-3.17-3.78-4.23v1.24a8.62,8.62,0,0,1,1,.82c.81.77,1.73,3,2.35,3.25s.46.73,1.56.51c0,0,0,.08,0,.11s-.18.28-.26.43h0a8.11,8.11,0,0,0-.62,1.45,3.27,3.27,0,0,0,.36,2.21.68.68,0,0,1-.48.22l-.18-.15a4.79,4.79,0,0,0-.81-.75,28.62,28.62,0,0,1-2.66-3.36L92.15,38v2.25a25.2,25.2,0,0,0,5.52,4.89,44,44,0,0,1,3.9,2.79c5.44,4.25,12.46,4.69,12.18,6.79-.2,1.52,0,1.7-1.22,2.94-.68.68-4.09,1.83-7.69,3.44-4.53,2-8.8,3.94-10.1,5.08a12.85,12.85,0,0,0-2.59,3.48v4.49c.15-.41.32-.85.53-1.3s.32-.68.49-1c.57-.68,1.27-1.47,2-2.22.45-.2,1-.45,1.47-.71a20,20,0,0,1,3.65-1.54l.52-.1H101A50.22,50.22,0,0,0,108.61,66l.58-.23c2-.81,7.44-3,9-4.15a14,14,0,0,1,1.53-.95c1.55-.87,3.3-1.85,2.75-3.75-.27-.91-1.77-2.05-4.59-3.48a1.3,1.3,0,0,0-.74-.39H117l-.84-.4c-1.45-.67-3.94-1.76-7.54-3.1a35.75,35.75,0,0,1-6.21-3.31c-2.64-1.78-4.59-3.37-4.46-4.38.42-3.16,2.14-4.16,3.07-4.49.77-.27,1.9-.73,3-1.18l1.06-.43.09.18.08-.25c.43-.18.81-.33,1.09-.42l.56-.19a29.25,29.25,0,0,0,3.32-1.24,9,9,0,0,0,3-2,1.43,1.43,0,0,1,.68.33s.06.23-.37.94a11.36,11.36,0,0,1-.93,1.27,44.6,44.6,0,0,1-4.43,3.77,5.89,5.89,0,0,0-2.46,4.47c-.26,1.73,1.5,3.27,2.67,4.29l.26.23c1.34,1.18,6.9,2.38,7,2.39l.23,0c1,.12,4.24.15,6,.17l1.14,0h0c.63.07,7.35,1.65,7.88,2s.47,1.19.08,2.32a23.56,23.56,0,0,1-3.24,4.75,13.69,13.69,0,0,1-2,1.72l-1,.8a30.3,30.3,0,0,1-3.3,2.15h0a63.93,63.93,0,0,0-5.06,5l-.59.61c-1,1.1-2.13,4.62-2.18,5a8.51,8.51,0,0,1-.3,1.68,5.08,5.08,0,0,1-.8.64l-.26.19-.24-.17-.41.53H114a2.6,2.6,0,0,0,.38-1.44,14.92,14.92,0,0,1,.13-1.51c0-.28.06-.54.08-.78a11,11,0,0,1,1.74-2.56c.25-.31.47-.57.59-.75.46-.63,4.8-4.77,5.11-5,.08-.06.51-.4,1.07-.81,1.41-1.07,4-3,6-4.69,3.09-2.6,4.28-7.24,4.3-7.29.23-.94-.9-1.89-1.53-2.26a7,7,0,0,0-2.28-.42c-2.24-.26-5.38-.47-5.64-.48s-5.86-.28-6.41-.34a55.5,55.5,0,0,1-6.15-1.69,13.63,13.63,0,0,1-3.8-2.76c-.83-1.07-.55-2.41-.19-3.68.22-.78,1.7-1.88,2.69-2.61a9.5,9.5,0,0,0,1-.76c.18-.19.63-.63,1.15-1.14,1.17-1.16,2.08-2.07,2.27-2.35a5.73,5.73,0,0,0,.48-1.15,5,5,0,0,1,.54-1.24,1.59,1.59,0,0,1,1.19-.27s.18.16.23.8a7.56,7.56,0,0,1,0,1.2,19.88,19.88,0,0,1-.81,2.69,19.54,19.54,0,0,0-.82,2c-.22.61-.43,1.18-.52,1.36a11.89,11.89,0,0,0-.19,3.48c.07,1.11,1.61,2.34,2.2,2.8l.06,0a6.16,6.16,0,0,0,2.69.95l.28,0a32.5,32.5,0,0,0,6.14-1.11c.62-.23,5.75-1.7,8.69-2.54a17.26,17.26,0,0,1,4.91-.58c.07,0,.25.13.47,1.1a2.06,2.06,0,0,0,.07.26c0,.33-.07,3.25-.15,3.62s-.72,2.73-.88,3.1c0,.11-.13.32-.25.59-.32.76-.86,2-1,2.4a23.3,23.3,0,0,1-1.5,2c-.27.35-.49.62-.59.76a17.66,17.66,0,0,1-2.25,2.53c-.61.52-1.54,2.36-2.78,5.46l-.06.13a5.41,5.41,0,0,0-.17,1.77,5.72,5.72,0,0,1,0,.9,15,15,0,0,0,.06,2.32c0,.49.06,1,0,1.14a10.81,10.81,0,0,0,.45,2.08l-.09.08c-.27.27-1.05,1-1.36,1.3a24.22,24.22,0,0,1-3.25,1.78c-1,.42-3.35,1.18-4.62,1.55l-.1,0h4.36l1-.38a23.7,23.7,0,0,0,3.61-2c.34-.28,1-1,1.31-1.24l.06,0a1.18,1.18,0,0,0,.21,0,3.06,3.06,0,0,0,2.16-.59c.49-.34,1-.7,1.56-1s1.1-.72,1.61-1.1a24.26,24.26,0,0,0,3.85-3.89,20.63,20.63,0,0,1,1.41-1.61,8.27,8.27,0,0,0,1.16-1.37c.16-.21.89-.93,1.33-1.37a13.75,13.75,0,0,0,1.06-1.1,23.45,23.45,0,0,0,1.21-3.28,8.69,8.69,0,0,0,1.15-.29,7.08,7.08,0,0,0,1.88-1.6,13.1,13.1,0,0,0,2.27-4.45,24,24,0,0,1,.73-2.34,12.26,12.26,0,0,0,.53-1.75,50.17,50.17,0,0,1,.84-5.08,3,3,0,0,0,0-1.73,1.2,1.2,0,0,0,.38-.8,7.37,7.37,0,0,0,0-.95c0-.21,0-.41,0-.58,0-.44-.14-2.09-.37-4.27l-1.6-1.48c0,.24.06.5.09.8.18,1.67.48,4.46.46,4.89,0,.21,0,.44,0,.66s0,.31,0,.48a1,1,0,0,0-.14-.21c-.07-.07-.29-.22-.72-.52a17.87,17.87,0,0,1-1.61-1.19,20.87,20.87,0,0,1-1.84-2.37,11.15,11.15,0,0,1-.73-2.32c0-.09,0-.27-1-3.28-.55-1.63-1.18-3.44-1.52-4.39-.74-2-3.8-5.37-5.17-6.66a3.12,3.12,0,0,0-1.64-1,2.39,2.39,0,0,0-.55,0,1,1,0,0,1-.39,0h0c-.76-.09-1,.89-1.2,1.47l-.08.25c-.06.16-.17.6-.33,1.16a24.09,24.09,0,0,1-.71,2.45,9.84,9.84,0,0,0-.67,2.5c-.06.43-.18.92-.29,1.39s-.19.8-.23,1.11a10.35,10.35,0,0,1-1,2.36l-.08.17a4.68,4.68,0,0,1-1.67,1.7,2.81,2.81,0,0,1-1.66.5,5.28,5.28,0,0,1-2.35-.67c-.32-.24-.63-.5-.91-.73a4.89,4.89,0,0,0-.78-.59c-.23-.18-1.86-2-2.83-3.06s-1.18-1.3-1.24-1.34a6.38,6.38,0,0,0-1.63-.5h-.09a4.66,4.66,0,0,0-.54,0c-.18,0-.43.05-.56.05a6.84,6.84,0,0,1-.64-1.18,2.73,2.73,0,0,1,.59-.43c.2-.13.4-.25.58-.39,0,0,.15-.1.88,0s1.35.23,1.9.35c.36.08.64.14.8.16s1.65.51,2.79.91a26.74,26.74,0,0,0,2.9.93,7.31,7.31,0,0,0,2.25,0c.81-.16,1.6-1,2.56-2.67.84-1.47-1.56-7-1.59-7.07a0,0,0,0,0,0,0,39.67,39.67,0,0,1-1.26-4.85,1,1,0,0,1,.85-.82h.09a8.8,8.8,0,0,1,1.49.47c.48.18,1.09.41,1.81.65a23.76,23.76,0,0,1,5,3.29,6.51,6.51,0,0,0,.53.39c.2.15,1.44,1.52,2.53,2.75l0,0h0a13.22,13.22,0,0,1,2.39,2.31,9.26,9.26,0,0,0,3.6,2.25l.57.15a9,9,0,0,0,.48,1c.12.21.28.52.39.74l1.07-1-.18-.35C151.92,23.32,151.74,23,151.68,22.85ZM109.33,12.63a4.83,4.83,0,0,0-1.13-.29,3,3,0,0,0-1.33.14l-.09,0a11.12,11.12,0,0,0-2.06.89c-.41.27-1,.59-1.39.82l-.24.13c-.43.24-2,1.2-2.33,1.46a15.28,15.28,0,0,1-2.07,1,1.65,1.65,0,0,1-.85.17l-.28-.06c-.23-.05-.46-.19-.62-1.19a10.85,10.85,0,0,1,1-3.77,13.54,13.54,0,0,1,.8-1.28c.29-.43.56-.83.69-1.08l.11-.2a11.49,11.49,0,0,0,1-2.3,1.69,1.69,0,0,0-.82-2h0a1.71,1.71,0,0,0-.46-.17,7.64,7.64,0,0,1,1.36-1c.35-.18,1-.44,1.54-.68.79-.34,1.52-.66,1.87-.85A22.17,22.17,0,0,1,108.36.89a3.85,3.85,0,0,1,.48,0l.33,0,.31.05a2.37,2.37,0,0,0,.59,0s0,0,0,0a1.17,1.17,0,0,1,.06.59,2.63,2.63,0,0,1-.14.65,4.37,4.37,0,0,1-.94,1,9.88,9.88,0,0,1-1.42.7A20.49,20.49,0,0,0,105.76,5l-.75.46a9.85,9.85,0,0,0-1.56,1.3l-.42.38a8.2,8.2,0,0,0-1.39,1.81c0,.07-1.06,1.86-.33,2.38a2,2,0,0,0,1,.3l.21,0,.25,0,.41.05a7.34,7.34,0,0,0,2.42-.18l.17,0c.39-.07.92-.14,1.49-.22l1.44-.2a26.39,26.39,0,0,1,3.44-.23h.2a2.14,2.14,0,0,1,.79.28,2.26,2.26,0,0,0,.26.14,2.76,2.76,0,0,1,1.13,1,3.1,3.1,0,0,1,.27,1.4c0,.08,0,.16,0,.24a3.31,3.31,0,0,1-.31,1.14,5,5,0,0,0-.17.49,3,3,0,0,1-.54,1.16,6.87,6.87,0,0,0-.45.65,10.17,10.17,0,0,1-.63.89,2,2,0,0,0-.52,1.13c0,.15-.06.31-.11.53a3.84,3.84,0,0,0-.16,1,1.89,1.89,0,0,1,0,.32,1.57,1.57,0,0,1,0,.16l0,0a2.29,2.29,0,0,0-.38.18.92.92,0,0,1-.32.14.54.54,0,0,1-.14-.11l-.16-.13c-.12-.1-.18-.6-.19-1.49a3.68,3.68,0,0,0,0-.45,7.22,7.22,0,0,1,.13-1.13c0-.15,0-.28.06-.37.13-1,.35-2.68.34-3A2.6,2.6,0,0,0,109.33,12.63Zm-4.14,21.25h0c-.07-.15-.14-.33-.24-.53-.27-.59-.59-1.23-.85-1.75l-.4-.83a6.44,6.44,0,0,1-.26-1.28,10.48,10.48,0,0,0-.23-1.25.29.29,0,0,1,.07-.25,3.31,3.31,0,0,1,1.42-.9,7.85,7.85,0,0,1,1.89.36c.09.12.29.21,1,.28s1.84.12,2,.13l.56.06a2.21,2.21,0,0,1,.46.87v0a1.47,1.47,0,0,1-.36.1,2.31,2.31,0,0,0-.64.16,1.1,1.1,0,0,1-.39,0,3.82,3.82,0,0,0-3,1.31,1.62,1.62,0,0,0-.59,1.32,3,3,0,0,0,1.22,1.85C105.83,33.85,105.29,34.08,105.19,33.88ZM111.9,30a1.18,1.18,0,0,0-.25.39l-1,1.41a19.06,19.06,0,0,1-3.33,1.57l-.68-.74-.19-1.28a8.21,8.21,0,0,0,1.14-1.25,5.15,5.15,0,0,1,.91-.16l1.09-.09.53-.12,1.71-.57.31.35Zm1.78-9.48a2.52,2.52,0,0,1-1.1.46,7.22,7.22,0,0,1,.21-.83c.06-.23.13-.47.18-.68a8.14,8.14,0,0,1,1.23-2.08l.1-.15c.08-.13.51-.93.78-1.45a5.16,5.16,0,0,0,.44-3.31c-.36-1.5-2.73-2.31-3.37-2.4h0a35.59,35.59,0,0,0-5.06.56,14.67,14.67,0,0,1-2.76.18,1.43,1.43,0,0,1-1.29-.72c-.27-.43,0-1,.24-1.5A4.06,4.06,0,0,0,103.5,8c.16-.48,1.93-1.73,2.6-2.21l.42-.3a20.27,20.27,0,0,1,2.61-1.35,6.51,6.51,0,0,0,1.74-1.62c.22-.36,0-1.26-.13-1.76A1.63,1.63,0,0,0,111,.65c.1-.08.19-.13.66-.18a7.39,7.39,0,0,0,1.13-.19A12.61,12.61,0,0,1,115.85,0a46,46,0,0,1,5.74.38l.75.08.75.08a9.35,9.35,0,0,1,3,.69l.45.25a6.15,6.15,0,0,1-.91.66,4,4,0,0,1-1.25.41l-.49.11a4.9,4.9,0,0,1-1.58,0l-.26,0-.23,0a12.76,12.76,0,0,0-1.83,0l-.76,0h-.4c-.78,0-2.08,0-2.71.1a10.21,10.21,0,0,0-2.08.51,1.53,1.53,0,0,1-.24.07c-.36.12-1.08.41-1.56.61l-.29.12a7,7,0,0,0-1.22.82l-.45.33a3,3,0,0,0-.85,1.15c-.16.4.43,1,.93,1.22a25.2,25.2,0,0,0,2.55,1c.24.07.64.15,1.1.23L115,9a19.57,19.57,0,0,1,2,.51l.26.08a6.24,6.24,0,0,1,2,.91c.57.43.57.61.55,1.44,0,.19,0,.42,0,.68,0,.85-.1,1-.32,1.27a3.45,3.45,0,0,0-.49.74,2.22,2.22,0,0,1-.79,1,3.74,3.74,0,0,0-.38.31c-.57.52-1.6,1.47-2.11,2a4.21,4.21,0,0,1-.64.51,2,2,0,0,0-.72.72h0A7.68,7.68,0,0,1,113.68,20.54Zm2.63.2-.33,0-.18,0-.06.11a1.83,1.83,0,0,1-.36,0,4.17,4.17,0,0,1-1-.22,6.71,6.71,0,0,1,1-1.44c.22-.23,2.79-2.44,2.94-2.56s1.25-1.26,1.48-1.48l0,0,0,0c.06-.12.63-1.25.73-1.56a8.39,8.39,0,0,0,0-2.87c-.18-.77-1.73-1.27-3.44-1.76-.33-.09-.63-.18-.76-.23a19.94,19.94,0,0,0-2.45-.63l-.6-.13a11.62,11.62,0,0,1-2.17-1.18h0l.1-.11a2.46,2.46,0,0,0,.34-.45,3.48,3.48,0,0,1,1.36-.94l.23-.11a14.52,14.52,0,0,1,2.63-.82c.88-.18,2.71-.4,3.3-.45s2.95-.16,3.51-.15a14.78,14.78,0,0,0,2.69-.29,12.42,12.42,0,0,0,2.08-1.22l0,0,.14-.13c.75.26,3.62,1.25,4.7,1.58a14.2,14.2,0,0,1,4,2.26,19,19,0,0,1,3.18,3.14l.18.21a1.73,1.73,0,0,0,.19.18.26.26,0,0,0,0,.07v0h-.1a6.77,6.77,0,0,1-.73-.15l-.27-.06-.11,0c-.44-.09-1.79-.34-2.2-.45a10.23,10.23,0,0,1-1.24-.61,15.11,15.11,0,0,0-1.4-.7c-.36-.15-.8-.39-1.22-.62s-.75-.42-1.07-.55a17.3,17.3,0,0,0-2.87-.8c-.33,0-.83-.16-1.35-.28s-.88-.2-1.3-.28l-.25,0a18.2,18.2,0,0,0-2.93.08l-.63.05a2.88,2.88,0,0,0-1.57.6,2.29,2.29,0,0,1-.29.18.57.57,0,0,0-.34.56,1.37,1.37,0,0,0,.26.51c.07.11.16.23.24.38a4.62,4.62,0,0,0,1.47,1.48,3.71,3.71,0,0,1,.66.55l.42.41.66.65c.42.41.79.77,1.15,1.07a7,7,0,0,1,.62.59c.22.22.47.47.83.77l.06.06c.31.41,1.26,1.7,1.88,2.61v0a3.4,3.4,0,0,1,.33,1.1c.05.23.09.48.17.8.13.5.09.56-.08.82a4.84,4.84,0,0,0-.33.61c-.24.51-.35.54-.67.63a4.72,4.72,0,0,0-.52.18,7.54,7.54,0,0,1-1.89.38l-.49.06a1.34,1.34,0,0,1-.58-.06,3.27,3.27,0,0,0-.54-.1,3.46,3.46,0,0,0-.56,0,28.24,28.24,0,0,0-2.89.39c-.66.11-1.17.25-1.59.36l-.08,0c-.23.06-.5.11-.71.15l-.43.09A8,8,0,0,1,116.31,20.74ZM120.12,27a2.45,2.45,0,0,0,.38-.24h.1a3.55,3.55,0,0,1,1.36.84,49.39,49.39,0,0,1,3.3,3.7,12.55,12.55,0,0,0,2.51,1.86l.46.3,0,0a6.12,6.12,0,0,0,2.13.58l.31,0a5.63,5.63,0,0,0,3.09-1.39c.88-.64,2.35-4.68,2.4-5.08,0-.15.28-1,.52-1.82.3-1,.61-2.06.67-2.4.1-.54,1.36-3.57,1.58-4h0a5,5,0,0,1,.9.28h0a18,18,0,0,1,2.8,2.55c.13.2,1.25,2,1.4,2.35s.35.64.63,1.14.61,1.07.67,1.23.4,1.11.66,1.87c.2.57.37,1.07.43,1.22s.18.6.33,1.19a31.8,31.8,0,0,0,1.25,4,18,18,0,0,0,1.36,1.86l.18.24a9,9,0,0,0,1.34,1.17l.25.2a8.27,8.27,0,0,0,.9.59l.64.4.27.23-.32.06.53.8a2,2,0,0,1,.21,1.41,48.9,48.9,0,0,0-.88,5.28c0,.2-.27.89-.48,1.51-.29.83-.61,1.77-.77,2.46a11.85,11.85,0,0,1-2,3.86,6.57,6.57,0,0,1-1.38,1.25,10.94,10.94,0,0,1-1.28.3l-.42.08,0,.08,0-.06s-.26-.33-.53-.72a20,20,0,0,1-1.32-3.17,21.51,21.51,0,0,1,0-3.2,21.83,21.83,0,0,1,1.21-4.09,18,18,0,0,0,.77-4.52l0-.16a29.79,29.79,0,0,0-.4-5,36.11,36.11,0,0,0-2.37-6.54c-.35-.48-.57-.65-.84-.68h-.1l-.06,0a.65.65,0,0,0-.21-.06,4.21,4.21,0,0,0-1.79.61,9,9,0,0,0-2.31,1.92c-.27.3-.8.83-1.26,1.29s-.78.76-1,1c-.41.46-1.41,1.58-1.81,2.06-.22.27-1,1-1.61,1.55l-1,1A16.68,16.68,0,0,1,129,39.72a11.45,11.45,0,0,1-2.81.41l-.72.06a.74.74,0,0,1-.21,0,3.4,3.4,0,0,1-1.65-1.09l-.25-.24a6.84,6.84,0,0,1-1.06-2.25c-.09-.28-.18-.52-.25-.71a10.41,10.41,0,0,1-.31-2,9.55,9.55,0,0,0-.22-1.62c-.23-.7-1.43-3.46-1.58-3.79q-.1-.21-.21-.39a1.17,1.17,0,0,1-.23-.59C119.54,27.36,119.89,27.16,120.12,27Zm-1,2.32c.1.17.65,1.44.71,1.58s.86,2.93.87,3.2.44,2.45.52,2.75a12.6,12.6,0,0,0,2.19,3.49,3.31,3.31,0,0,0,2,.86,10.32,10.32,0,0,0,1.85,0l.28,0a17.34,17.34,0,0,0,4.21-1.73c.41-.27,3.44-3.59,3.68-3.89s2.46-2.48,2.7-2.63.56-.42,1.27-1,1.68-1.3,1.85-1.39a1.7,1.7,0,0,1,1.13-.05c.25.06.6.92.82,1.43.12.27.24.56.36.82a25.5,25.5,0,0,1,1.29,5,39.66,39.66,0,0,1-.16,5.64,15,15,0,0,1-.81,3.34c-.17.17-.22.5-.32,1.29a18.64,18.64,0,0,1-.37,2.2,8.32,8.32,0,0,0,.51,4.3l.14.45a8.81,8.81,0,0,0,1.57,2.41l.14.15.52-.24h0c-.45,1.41-1,3-1.16,3.3-.11.13-.57.59-.91.93a10.22,10.22,0,0,0-1.58,1.72c-.11.16-.59.67-.94,1a16.94,16.94,0,0,0-1.57,1.82,24.86,24.86,0,0,1-3.49,3.51c-.49.35-1,.71-1.56,1.05s-1.1.72-1.61,1.09a1.54,1.54,0,0,1-1.11.32l-.14,0-.21-.08h0a1.46,1.46,0,0,0-.13-.25,7.68,7.68,0,0,1-.36-1.84,55.77,55.77,0,0,1,.22-5.7,34.19,34.19,0,0,1,2.42-4.61c.22-.21,2.26-2.28,2.47-2.54s.71-.95,1.61-2.2c.68-.94,1.46-2,1.54-2.1h0a14.6,14.6,0,0,0,.8-2.19,41,41,0,0,0,1.15-4.43,7,7,0,0,0-.15-3.81,2.59,2.59,0,0,0-1.29-1.62,1.31,1.31,0,0,0-.31-.06,11.68,11.68,0,0,0-3.07.38l-2.37.64-2.05.56c-.41.1-4.23,1.27-4.69,1.49A41.73,41.73,0,0,1,123.2,45a33.48,33.48,0,0,1-4,0h-.07a3.23,3.23,0,0,1-1.3-.46c-.14-.07-.3-.16-.51-.25a4.79,4.79,0,0,1-1.92-2.85,7.61,7.61,0,0,1,.59-2.94,23.53,23.53,0,0,0,1.06-3c.22-.69.47-1.48.52-1.59a4.72,4.72,0,0,0,.13-1.58,4.58,4.58,0,0,1,0-.68,6.64,6.64,0,0,0-.61-1.93l.24-.31,1-.52A7.41,7.41,0,0,1,119.11,29.34ZM149,22l-.83-.38a37.56,37.56,0,0,1-3.57-3.35c-.1-.17-.81-.91-1.88-2-.52-.55-1.11-1.16-1.17-1.24A50.66,50.66,0,0,0,137,11.59l-.48-.34c-.34-.25-4.83-1.64-5.07-1.7h-.05c-.54-.06-1,.73-1.19,1.07,0,.11-.2.4.67,3.35A23.73,23.73,0,0,0,131.94,17a28.13,28.13,0,0,1,1.31,5.39,3.56,3.56,0,0,1-1,2.46,2.58,2.58,0,0,1-1.12.42c-.13,0-.35.08-.6.15l-.67.17h-.21a9.18,9.18,0,0,1-2.28-.65c-.35-.16-3.37-1.57-3.85-1.69s-2-.42-3-.53l-.18,0a2.29,2.29,0,0,0-1.65.29l-.25.13,0,0a.47.47,0,0,0-.09-.12c-.12-.2-.32-1.22,0-1.51a10.52,10.52,0,0,1,2.7-.71l.39-.07c.21-.06,1.65-.07,2.52-.08h.1a17.47,17.47,0,0,0,3.13-.32,5.21,5.21,0,0,0,2.36-1.27c.4-.48.09-1.58-.26-2.67-.06-.19-.11-.36-.12-.42s0-.17-.51-.88c-.08-.15-.14-.27-.19-.39a4.43,4.43,0,0,0-.69-1.11l-.35-.45a4.52,4.52,0,0,0-.71-.75c-.15-.19-.68-.91-.77-1s-1-1-1.74-1.66c-.48-.42-1.24-1.28-1.8-1.91-.25-.29-.47-.54-.63-.71-.33-.35-.24-.46.08-.87l.06-.08s.13-.15,1-.22c.56,0,1.2,0,1.73,0h.62a2.52,2.52,0,0,1,.45,0,27.62,27.62,0,0,1,3.88.88,19.44,19.44,0,0,1,2.91,1.09l.12.06c.41.18,1.35.55,2.1.85l1.08.44c.53.23,3.5.7,3.52.71a4.31,4.31,0,0,0,.66,0c.09,0,.22,0,.37-.35a2.63,2.63,0,0,0,.91.3,12.12,12.12,0,0,1,1.62,1.56c.78.83,1.61,1.8,2.17,2.43.31.36.53.62.65.74a49.18,49.18,0,0,1,3.05,4.43c.05.22.23.65.79,2l.53,1.27C149.69,22.27,149.3,22.08,149,22Z"/>
  <g>
    <path class="cls-2" d="M65,83.81l.35-.41h.36c0,.91,0,2.87,0,3.2l-.08.08H65v-.3l-1.21.37c-1.62,0-1.91-.77-1.91-1.79V82c0-.54.26-1.66,1.93-1.66s1.89.52,1.91,1.5l-.07.08H65L65,81.81c0-.7-.38-.81-1.2-.81-.62,0-1.24.12-1.24,1v3c0,.87.36,1.09,1.24,1.09L65,86Z"/>
    <path class="cls-2" d="M66.89,86.58V80.43l.07-.07h3.57l.06.07V81l-.07.07H67.59V83h2.74l.06.06v.57l-.06.07H67.59V86h2.93l.07.08v.54l-.06.07H67Z"/>
    <path class="cls-2" d="M73.73,86.8c-1.41,0-2-.82-2-1.68V81.86c0-.79.53-1.66,2-1.66s2,.82,2,1.67v3.27C75.7,86,75.15,86.8,73.73,86.8ZM75,81.88c0-.81-.56-1-1.26-1s-1.28.25-1.28,1v3.24c0,.82.84,1,1.22,1h.12c.36,0,1.2-.17,1.2-1Z"/>
    <path class="cls-2" d="M81.67,80.43V86.6l-.07.07H81L81,86.61v-5.1l-.13.4c-.42.86-.92,1.85-1.32,2.72h-.6L77.6,81.91l-.15-.42v5.12l-.08.06h-.55l-.08-.07V80.43l.06-.07h.81l1.6,3.28,1.57-3.28h.82Z"/>
    <path class="cls-2" d="M86.76,80.43V85c0,1.19-.59,1.76-2,1.76s-2-.58-2-1.77V80.43l.07-.07h.56l.07.07V85c0,.82.48,1.12,1.28,1.12s1.26-.33,1.26-1.12V80.43l.06-.07h.57Z"/>
    <path class="cls-2" d="M91.68,85.08c0,1.13-.52,1.71-2,1.71s-1.9-.6-1.93-1.56l.07-.06h.57l.06.06c0,.63.45.86,1.22.86,1,0,1.3-.26,1.3-1a.87.87,0,0,0-.54-.9L88.7,83.3a1.37,1.37,0,0,1-.83-1.42c0-.93.46-1.6,1.84-1.6s1.85.38,1.89,1.51l-.07.07H91l-.07-.08c0-.64-.23-.81-1.17-.81s-1.15.32-1.15.85a.89.89,0,0,0,.55.91l1.6.72A1.48,1.48,0,0,1,91.68,85.08Z"/>
    <path class="cls-2" d="M92.73,86.58V80.43l.07-.07h3.57l.06.07V81l-.07.07H93.43V83h2.73l.07.06v.57l-.07.07H93.43V86h2.93l.07.08v.54l-.06.07H92.82Z"/>
    <path class="cls-2" d="M101.46,80.43V85c0,1.19-.59,1.76-2,1.76s-2-.58-2-1.77V80.43l.06-.07h.56l.07.07V85c0,.82.48,1.12,1.28,1.12s1.26-.33,1.26-1.12V80.43l.07-.07h.56Z"/>
    <path class="cls-2" d="M107.5,80.43V86.6l-.07.07h-.57l-.06-.06v-5.1l-.14.4c-.41.86-.91,1.85-1.31,2.72h-.61l-1.31-2.72-.15-.42v5.12l-.07.06h-.55l-.08-.07V80.43l.06-.07h.81L105,83.64l1.58-3.28h.82Z"/>
    <path class="cls-2" d="M61.8,94.19V88.07l.18-.19h3.5l.17.19v.66l-.18.19H62.83v1.44h2.45l.18.18v.67l-.18.18H62.83V94l-.18.18Z"/>
    <path class="cls-2" d="M69.28,88.07l1.36,5.82v.3h-1l-.38-1.66h-2c-.11.55-.24,1.1-.36,1.66h-1V93.9l1.35-5.82.21-.2h1.63ZM69,91.5c-.08-.41-.17-.81-.27-1.24s-.19-.87-.3-1.37h-.38L67.5,91.5Z"/>
    <path class="cls-2" d="M75.34,94.19H74.7l-1.29-2.12L72.1,94.19h-.63L71.26,94v-.44L72.81,91l-1.55-2.55V88.1l.17-.22h.66L73.39,90c.62-1,.94-1.5,1.31-2.12h.64l.18.22v.42L74,91c.52.82,1,1.67,1.54,2.53V94Z"/>
    <path class="cls-2" d="M76.33,94V88.07l.19-.19H80l.17.19v.66l-.18.19H77.37v1.44h2.45l.17.18v.67l-.17.18H77.37v1.78H80l.16.21V94l-.17.18H76.53Z"/>
  </g>
</svg>
