<?xml version="1.0" encoding="utf-8"?>
<!-- Generator: Adobe Illustrator 23.0.3, SVG Export Plug-In . SVG Version: 6.00 Build 0)  -->
<svg version="1.1" id="stevnsfort" xmlns="http://www.w3.org/2000/svg" xmlns:xlink="http://www.w3.org/1999/xlink" x="0px" y="0px"
	 viewBox="0 0 155.9 99.2" style="enable-background:new 0 0 155.9 99.2;" xml:space="preserve">
<style type="text/css">
	.st0{fill:#14A6A2;}
	.st1{fill:#FFFFFF;}
	.st2{clip-path:url(#SVGID_2_);}
	.st3{clip-path:url(#SVGID_4_);fill:#FFFFFF;}
</style>
<title>geo-sidebar-desktop</title>
<rect x="-18.1" y="0" class="st0" width="175.6" height="99.2"/>
<g>
	<path class="st1" d="M65,83.8l0.3-0.4h0.4c0,0.9,0,2.9,0,3.2l-0.1,0.1H65v-0.3l-1.2,0.4c-1.6,0-1.9-0.8-1.9-1.8v-3
		c0-0.5,0.3-1.7,1.9-1.7c1.7,0,1.9,0.5,1.9,1.5l-0.1,0.1H65v-0.1c0-0.7-0.4-0.8-1.2-0.8c-0.6,0-1.2,0.1-1.2,1v3
		c0,0.9,0.4,1.1,1.2,1.1L65,86V83.8z"/>
	<path class="st1" d="M66.9,86.6v-6.1l0.1-0.1h3.6l0.1,0.1V81l-0.1,0.1h-2.9V83h2.7l0.1,0.1v0.6l-0.1,0.1h-2.7V86h2.9l0.1,0.1v0.5
		l-0.1,0.1H67L66.9,86.6z"/>
	<path class="st1" d="M73.7,86.8c-1.4,0-2-0.8-2-1.7v-3.3c0-0.8,0.5-1.7,2-1.7c1.5,0,2,0.8,2,1.7v3.3C75.7,86,75.1,86.8,73.7,86.8z
		 M75,81.9c0-0.8-0.6-1-1.3-1c-0.7,0-1.3,0.2-1.3,1v3.2c0,0.8,0.8,1,1.2,1h0.1c0.4,0,1.2-0.2,1.2-1V81.9z"/>
	<path class="st1" d="M81.7,80.4v6.2l-0.1,0.1H81v-0.1v-5.1l-0.1,0.4c-0.4,0.9-0.9,1.8-1.3,2.7h-0.6l-1.3-2.7l-0.1-0.4v5.1l-0.1,0.1
		h-0.5l-0.1-0.1v-6.2l0.1-0.1h0.8l1.6,3.3l1.6-3.3L81.7,80.4L81.7,80.4z"/>
	<path class="st1" d="M86.8,80.4V85c0,1.2-0.6,1.8-2,1.8s-2-0.6-2-1.8v-4.6l0.1-0.1h0.6l0.1,0.1V85c0,0.8,0.5,1.1,1.3,1.1
		S86,85.8,86,85v-4.6l0.1-0.1h0.6L86.8,80.4z"/>
	<path class="st1" d="M91.7,85.1c0,1.1-0.5,1.7-2,1.7c-1.5,0-1.9-0.6-1.9-1.6l0.1-0.1h0.6l0.1,0.1c0,0.6,0.4,0.9,1.2,0.9
		c1,0,1.3-0.3,1.3-1c0-0.4-0.2-0.8-0.5-0.9l-1.7-0.9c-0.6-0.2-0.9-0.8-0.8-1.4c0-0.9,0.5-1.6,1.8-1.6c1.4,0,1.8,0.4,1.9,1.5
		l-0.1,0.1H91l-0.1-0.1c0-0.6-0.2-0.8-1.2-0.8c-0.9,0-1.1,0.3-1.1,0.8c0,0.4,0.2,0.8,0.5,0.9l1.6,0.7C91.4,83.7,91.8,84.4,91.7,85.1
		z"/>
	<path class="st1" d="M92.7,86.6v-6.1l0.1-0.1h3.6l0.1,0.1V81l-0.1,0.1h-2.9V83h2.7l0.1,0.1v0.6l-0.1,0.1h-2.7V86h2.9l0.1,0.1v0.5
		l-0.1,0.1h-3.5L92.7,86.6z"/>
	<path class="st1" d="M101.5,80.4V85c0,1.2-0.6,1.8-2,1.8c-1.4,0-2-0.6-2-1.8v-4.6l0.1-0.1h0.6l0.1,0.1V85c0,0.8,0.5,1.1,1.3,1.1
		s1.3-0.3,1.3-1.1v-4.6l0.1-0.1h0.6L101.5,80.4z"/>
	<path class="st1" d="M107.5,80.4v6.2l-0.1,0.1h-0.6l-0.1-0.1v-5.1l-0.1,0.4c-0.4,0.9-0.9,1.8-1.3,2.7h-0.6l-1.3-2.7l-0.2-0.4v5.1
		l-0.1,0.1h-0.5l-0.1-0.1v-6.2l0.1-0.1h0.8l1.5,3.3l1.6-3.3L107.5,80.4L107.5,80.4z"/>
	<path class="st1" d="M61.8,94.2v-6.1l0.2-0.2h3.5l0.2,0.2v0.7l-0.2,0.2h-2.6v1.4h2.4l0.2,0.2v0.7l-0.2,0.2h-2.4V94l-0.2,0.2
		L61.8,94.2z"/>
	<path class="st1" d="M69.3,88.1l1.4,5.8v0.3h-1l-0.4-1.7h-2c-0.1,0.5-0.2,1.1-0.4,1.7h-1v-0.3l1.3-5.8l0.2-0.2h1.6L69.3,88.1z
		 M69,91.5c-0.1-0.4-0.2-0.8-0.3-1.2c-0.1-0.4-0.2-0.9-0.3-1.4H68l-0.5,2.6H69z"/>
	<path class="st1" d="M75.3,94.2h-0.6l-1.3-2.1l-1.3,2.1h-0.6L71.3,94v-0.4l1.5-2.6l-1.5-2.5v-0.3l0.2-0.2h0.7l1.3,2.1
		c0.6-1,0.9-1.5,1.3-2.1h0.6l0.2,0.2v0.4L74,91c0.5,0.8,1,1.7,1.5,2.5V94L75.3,94.2z"/>
	<path class="st1" d="M76.3,94v-5.9l0.2-0.2H80l0.2,0.2v0.7L80,88.9h-2.6v1.4h2.4l0.2,0.2v0.7l-0.2,0.2h-2.4v1.8H80l0.2,0.2V94
		L80,94.2h-3.5L76.3,94z"/>
</g>
<g id="Vector_Smart_Object_1_">
	<g>
		<defs>
			<rect id="SVGID_1_" x="84.4" y="-4.4" width="65.2" height="80.5"/>
		</defs>
		<clipPath id="SVGID_2_">
			<use xlink:href="#SVGID_1_"  style="overflow:visible;"/>
		</clipPath>
		<g class="st2">
			<defs>
				<rect id="SVGID_3_" x="84.4" y="-4.4" width="65.2" height="80.5"/>
			</defs>
			<clipPath id="SVGID_4_">
				<use xlink:href="#SVGID_3_"  style="overflow:visible;"/>
			</clipPath>
			<path class="st3" d="M139.2,59.6L139.2,59.6c0.1,0,0.2,0,0.2-0.1c0.4-0.1,1.1-0.3,1.6-1.2c0.3-0.5,0.6-0.9,0.9-1.4
				c0.3-0.5,0.7-1,1-1.4c0.6-0.9,1.8-3.8,1.9-4.6c0.1-0.3,0.4-1.2,0.7-1.9c0.4-1,0.5-1.3,0.5-1.6c0.1-0.2,0.4-1.1,0.7-1.6
				c0.3-0.8,0.5-1.1,0.5-1.3c0.1-0.3,0.1-1.4,0-3.3c0.3-0.2,0.7-0.4,0.9-0.6c0.3-0.3,0.6-0.9,1-2c0.4-1,0.6-3.4,0.5-4.6
				c-0.1-0.6-0.1-1.5-0.1-2.3c0-0.9-0.1-1.4-0.1-1.7c-0.5-2.4-0.9-4.2-0.9-4.8c0-0.6-0.3-1.2-0.6-1.5c0.1-0.2,0.1-0.5,0.1-0.8
				c-0.1-0.3-0.2-0.6-0.3-0.8c-0.1-0.2-0.1-0.4-0.2-0.5c-0.1-0.4-0.9-2.2-2-4.4c-0.4-0.8-0.7-1.4-0.7-1.6c-0.1-0.3-0.8-1.2-2.2-3.3
				c-0.6-0.8-1.2-1.8-1.3-2c-0.1-0.3-0.4-0.5-1-1.1c-0.2-0.2-0.4-0.4-0.5-0.5c-0.1-0.2-0.4-0.5-1.4-1.7c-0.4-0.5-1-1.2-1.2-1.4
				c-0.1-0.1-0.3-0.4-2.1-1.8c-0.8-0.7-2-1.5-2.3-1.7c-0.1-0.1-0.4-0.2-0.7-0.4c-3.9-2.4-4.7-2.7-5.3-2.6c-0.4,0.1-0.7-0.1-0.8-0.2
				c0,0-0.1-0.1-0.1-0.1c-0.6-0.4-2.3-1.5-3.9-2c-2.1-0.7-3.4-0.9-4.5-0.9c-1,0-4,0-4.4,0l-1-0.2c-0.9-0.2-1.9,0-3.2,0.3
				c-0.2,0-0.4,0.1-0.6,0.1c-0.2,0-0.4,0.1-0.6,0.1c-1.6,0.3-2.9,0.6-5,1.4c-1.5,0.5-2.1,1-2.7,1.3c-0.3,0.2-0.5,0.3-0.7,0.4
				c-0.6,0.3-0.8,0.5-1,0.8c0,0.1-0.1,0.1-0.1,0.1c-0.1,0-0.1,0.1-0.2,0.1c-0.1,0-0.1,0-0.2,0c-0.1,0-0.2,0-0.4,0.1
				c-0.2,0-0.4,0.1-0.6,0.2c-0.9,0.3-3.4,2.6-3.7,3c-0.2,0.2-0.7,0.7-1.2,1.2C91,5.3,90.6,5.7,90.4,6c-0.5,0.6-1.2,1.8-1.4,2.3
				c-0.3,0.3-1.2,1.1-1.6,1.9c-0.4,0.9-1.2,3-1.3,3.4c0,0-0.7,2.4-0.8,3.3c-0.1,0.6-0.3,1.4-0.6,2.4c-0.2,0.5-0.1,1,0,1.2
				c0,0,0,0.1,0,0.1c-0.5,0.5-0.2,1.3,0,1.9c0,0.1,0.1,0.3,0.1,0.4c-0.1,0.7,0.2,3,0.2,3.4c0.1,0.5,0.2,1,0.4,1.8
				c0.1,0.3,0.2,0.7,0.3,1.2c0.3,1.2,0.5,1.5,1.1,2.5c0.3,0.5,0.8,1.3,1.5,2.5c1.1,1.9,3.9,4.7,6.3,6.4c3.7,2.7,7.3,3.5,7.3,3.5
				c0,0,1.4,0.3,4.1,1.3c5.8,2.2,11.8,0.5,12.2,2.5c0.3,1.4,0.6,1.5-0.1,3c-0.3,0.8-2.8,2.8-5.3,5.3c-3.1,3.1-6,6.1-6.7,7.5
				c-1.4,2.7-1.2,7.3-1.2,7.5l0,0.1l0.6,2.6l1.7,1.9l0.4-0.1c0,0,1.1-0.3,1.8-0.4c0.6-0.1,0.7-0.2,0.8-0.2c0,0,0.2,0,0.4,0
				c0.8,0,2.2,0,3.1-0.2c0.2,0,0.4-0.1,0.6-0.2c0.1-0.1,0.4-0.2,1.3-0.4c1.1-0.2,2.4-0.5,2.4-0.5l0.1,0l0.1,0c1.1-0.5,3-1.2,3.5-1.3
				c0,0,0,0,0,0c0,0,0.1,0,0.1,0c0.3-0.1,0.6-0.2,1.6-1.5c0.4-0.6,1-1.3,1.1-1.5c0,0,0,0,0,0c0.1,0.1,0.2,0.1,0.2,0.1
				c0.2,0.2,0.5,0.3,0.9,0.2c0.2,0,0.3-0.1,0.5-0.2c0.2-0.1,0.4-0.2,0.7-0.2c0.8-0.2,1.4-0.3,2.3-0.7c0.9-0.4,2.5-1.5,3.5-2.2
				c0.8-0.6,2.7-2.1,3.5-2.9c0.7-0.7,2.1-2.3,2.3-2.8C138.7,60.7,139,59.9,139.2,59.6 M146.5,24.2c0,0,0.6,0.5,0.6,1.2
				c0.1,0.9,0.6,3.5,1,5c0,0.2,0.1,0.9,0.1,1.5c0,0.8,0.1,1.8,0.2,2.4c0.2,1.1-0.1,3.3-0.4,4c-0.4,1-0.7,1.5-0.7,1.5
				c-0.1,0.1-0.6,0.4-1,0.6l-0.3,0.2l0,0.1l-0.1,0c0,0-0.3-0.2-0.7-0.5c-0.3-0.2-2-2.2-2.1-2.4c-0.2-0.6-0.8-2.1-1-2.9
				c-0.2-0.8-0.4-3.3-0.3-4c0.1-0.7-0.4-2.6-0.8-4.3l0-0.1c-0.2-0.8-1.4-3.5-1.9-4.3c-0.5-0.8-3.3-4.6-4-5.1
				c-0.4-0.3-0.7-0.4-0.9-0.4c0,0,0,0-0.1,0c0,0,0,0,0,0c0,0,0,0-0.1,0c-0.1,0-0.1,0-0.2,0c-0.3,0.1-0.7,0.5-1.3,1.1
				c-0.7,0.7-1.2,2-1.3,2.4c-0.1,0.3-0.4,1-0.6,1.5c-0.2,0.5-0.4,0.9-0.5,1.1c-0.2,0.5-0.7,1.8-0.8,2.4c-0.1,0.3-0.5,1.2-0.8,1.9
				c-0.3,0.5-0.5,1-0.5,1.2c-0.1,0.3-1.1,1.6-1.6,2.2c-0.3,0.3-1.4,0.9-2.2,1.2c-0.2,0.1-0.4,0.2-0.6,0.3c-0.1,0-0.1,0-0.2,0.1
				c-0.5,0.1-1.2-0.2-1.7-0.5c-0.1,0-0.2-0.1-0.3-0.1c-0.5-0.2-1.1-1.1-1.6-1.7c-0.2-0.2-0.3-0.4-0.4-0.6c-0.2-0.3-0.6-1-0.9-1.7
				c-0.3-0.6-0.5-1.1-0.7-1.4c-0.4-0.6-2.3-2.7-2.5-2.9c-0.1-0.1-0.2-0.2-0.3-0.3c-0.2-0.2-0.3-0.3-0.4-0.5c0-0.1,0.2-0.4,0.3-0.6
				c0.1-0.1,0.2-0.2,0.2-0.3c0,0,0.1,0,0.1,0c0.2-0.1,0.8,0.1,1.4,0.3c0.6,0.3,3.4,1.9,3.9,2.3c0.4,0.3,1.6,0.6,2.7,0.9
				c0.2,0.1,0.4,0.1,0.5,0.1c0,0,0,0,0,0c0.2,0.1,1.4,0,1.9-0.1c0.1,0,0.2,0,0.3-0.1c0.6-0.2,1.3-0.9,2.1-2.1
				c0.5-0.8,0.5-4.9,0.4-5.2c0-0.1-0.1-1-0.2-1.8c-0.1-1-0.1-2-0.2-2.3c-0.1-0.5,0-3.6,0-4.1c0,0,0,0,0,0c0.2,0,0.5,0,0.8,0l0,0
				c0.5,0,2.9,1.3,3.1,1.4c0.2,0.1,1.7,1.4,1.9,1.7c0.1,0.1,0.5,0.5,0.9,0.8c0.4,0.4,0.8,0.8,1,0.9c0.1,0.1,0.7,0.9,1.1,1.5
				c0.3,0.5,0.6,0.8,0.7,1c0.1,0.1,0.3,0.5,0.7,1c1,1.5,2,2.9,2.3,3.2c0.4,0.4,1.2,0.9,1.7,1.3c0.1,0.1,0.2,0.1,0.2,0.2
				c0.3,0.2,1.1,0.5,1.5,0.7c0.1,0,0.2,0.1,0.3,0.1c0.1,0,0.4,0.1,0.9,0.3c0.3,0.1,0.6,0.1,0.7,0.2c0.1,0,0.2,0.1,0.3,0.1l-0.2,0.1
				L146.5,24.2z M138.5,9.4c0.1,0.2,0.3,0.4,0.7,0.7c0.2,0.2,0.6,0.6,0.7,0.7c0.1,0.2,0.4,0.6,1.4,2.2c0.8,1.1,2,2.8,2.1,3.1
				c0.1,0.2,0.4,0.8,0.8,1.6c0.7,1.4,1.8,3.8,1.9,4.2c0.1,0.2,0.1,0.4,0.2,0.6c0,0.1,0.1,0.3,0.2,0.4c0-0.1-0.1-0.1-0.2-0.1
				c-0.1,0-0.3-0.1-0.8-0.3c-0.6-0.2-1.4-0.4-1.7-0.6c-0.5-0.3-2.1-1.4-2.3-1.6c-0.3-0.3-1.3-1.6-1.3-1.8c0-0.1-0.1-0.3-1.8-2.6
				c-1-1.3-2.1-2.7-2.7-3.5c-1.3-1.6-4.8-3.7-6.4-4.4c-0.7-0.4-1.3-0.5-1.7-0.4c-0.2,0-0.3,0.1-0.4,0.2c-0.1,0.1-0.2,0.1-0.3,0.1
				c0,0,0,0,0,0c-0.7,0.1-0.6,1.1-0.5,1.7c0,0.1,0,0.2,0,0.2c0,0.2,0,0.6,0.1,1.1c0.1,0.9,0.2,2.1,0.2,2.4c0,0.6,0.1,1.6,0.2,2.4
				c0.1,0.4,0.1,0.9,0.2,1.3c0.1,0.4,0.1,0.8,0.2,1.1c0.1,0.5,0,1.6,0,2.4l0,0.2c-0.1,0.8-0.6,1.6-0.8,2c-0.3,0.4-0.7,0.8-1.2,0.9
				c-0.5,0.1-1.5,0.3-2.2,0.1c-0.3-0.1-0.7-0.3-1-0.4c-0.4-0.2-0.7-0.3-0.8-0.3c-0.3-0.1-2.2-1.2-3.3-1.9c-1.2-0.7-1.4-0.8-1.4-0.8
				c-0.2-0.1-1.2,0-1.5,0c0,0-0.1,0-0.1,0c-0.1,0-0.3,0.1-0.4,0.2c-0.1,0.1-0.3,0.2-0.4,0.2c-0.2-0.1-0.8-0.7-0.9-0.9
				c0-0.1,0.2-0.4,0.4-0.6c0.1-0.2,0.3-0.3,0.4-0.5c0,0,0.1-0.1,0.7-0.3c0.5-0.1,1.2-0.2,1.7-0.2c0.3,0,0.6-0.1,0.7-0.1
				c0.2,0,1.5,0,2.6,0c1.5,0,2.4,0,2.7,0c0.5-0.1,1.2-0.3,1.9-0.7c0.6-0.4,1-1.3,1.3-3.1c0.2-1.6-3.5-5.8-3.6-5.8c0,0,0,0,0,0
				c-0.2-0.3-2.5-3.6-2.6-4c-0.1-0.4,0.1-0.9,0.4-1c0,0,0,0,0.1,0c0.3-0.1,0.7,0,1.4,0c0.5,0,1,0,1.7,0c1.4,0,4.1,1,5.2,1.4
				c0.4,0.1,0.5,0.2,0.6,0.2c0.2,0.1,1.7,0.9,3,1.7l0,0l0,0c0,0,1.8,0.7,2.7,1.4c1,0.8,3.5,1,3.7,0.9C138.1,9.4,138.3,9.4,138.5,9.4
				 M104.3,28.8c-0.2,0.5-0.2,0.9-0.1,1.3c0.3,0.6,0.9,1,1.6,1.3c-0.7,0.5-1,0.9-1.2,0.7l0,0c-0.1-0.1-0.2-0.2-0.4-0.4
				c-0.4-0.4-0.9-0.9-1.3-1.3c-0.3-0.3-0.5-0.5-0.6-0.6c-0.2-0.2-0.4-0.6-0.6-1.1c-0.2-0.4-0.4-0.8-0.6-1c0-0.1,0-0.1,0-0.2
				c0.1-0.5,0.7-1.1,0.9-1.2c0.9-0.2,1.5-0.3,1.7-0.2c0.1,0.1,0.3,0.1,0.9,0c0.7-0.2,1.6-0.4,1.7-0.5l0.5-0.1
				c0.2,0.1,0.5,0.4,0.7,0.6c0,0,0,0,0,0c0,0-0.2,0.1-0.3,0.2c-0.2,0.1-0.3,0.2-0.5,0.3c-0.1,0.1-0.2,0.1-0.3,0.1
				C105.9,26.9,105.1,27.2,104.3,28.8 M105.5,30.7l-0.6-1.1c0.4-1,0.5-1.3,0.5-1.5c0.1-0.1,0.4-0.3,0.7-0.4l0.9-0.4l0.4-0.3l1.2-1
				l0.4,0.2l-0.1,0.5c-0.1,0.1-0.1,0.3-0.1,0.4l-0.3,1.5c-0.6,0.8-1.6,1.9-2.2,2.4L105.5,30.7z M125.8,0.7c0.1,0,0.2-0.1,0.2-0.4
				c0.2,0,0.5,0.1,0.8,0c0.1,0,0.6,0.2,1.8,0.9c0.9,0.5,1.9,1.1,2.6,1.5c0.4,0.2,0.6,0.4,0.8,0.5c0.5,0.3,3.5,2.6,3.9,3
				c0.1,0.2,0.4,0.5,1.3,1.6c0.3,0.3,0.6,0.7,0.8,1c-0.3,0-0.7-0.1-1-0.1c-0.4,0-0.7-0.1-0.8-0.1c-0.4,0-3.7-1.7-4-1.9
				c-0.1-0.1-1-0.6-2.2-1.3c-0.6-0.3-1.3-0.7-1.4-0.8c-0.1-0.1-0.5-0.2-4.9-1.6c-0.3-0.1-0.4-0.1-0.5-0.2c-0.4-0.1-4.5,0-4.7,0
				c0,0,0,0,0,0c-0.5,0.1-0.6,0.9-0.6,1.3c0,0.1,0,0.4,1.6,2.8c0.1,0.1,1.5,2.2,1.9,2.4c0.3,0.2,2.3,3.3,2.8,4.4
				c0.4,1,0.1,2.1,0,2.5c-0.1,0.2-0.4,0.5-0.8,0.7c-0.1,0.1-0.3,0.2-0.4,0.3c-0.2,0.1-0.4,0.3-0.5,0.4c0,0,0,0-0.2,0.1
				c-0.5,0.1-1.5,0.2-2.1,0.1c-0.3,0-3.3-0.4-3.7-0.4c-0.4,0-1.8,0.2-2.7,0.4c-0.1,0-0.1,0-0.2,0c-0.8,0.2-0.9,0.4-1.3,0.7
				c0,0.1-0.1,0.1-0.2,0.2c0,0,0,0,0,0c0,0-0.1-0.1-0.1-0.1c-0.2-0.1-0.7-1-0.5-1.4c0.2-0.4,1.5-1.1,2-1.4c0.2-0.1,0.3-0.2,0.3-0.2
				c0.2-0.1,1.3-0.5,2.1-0.8l0.1,0c0.9-0.3,2-0.9,2.5-1.2c0.5-0.3,1.3-1.1,1.5-1.8c0.2-0.5-0.4-1.4-1.1-2.3
				c-0.1-0.1-0.2-0.3-0.2-0.3c0-0.1-0.1-0.1-0.7-0.6c-0.1-0.1-0.2-0.2-0.3-0.3c-0.2-0.3-0.4-0.5-0.9-0.8c-0.2-0.1-0.3-0.2-0.4-0.3
				c-0.2-0.2-0.4-0.3-0.8-0.5c-0.2-0.1-0.9-0.6-1-0.7c-0.2-0.1-1.2-0.6-2-1c-0.5-0.2-1.4-0.8-2.1-1.2c-0.3-0.2-0.6-0.3-0.7-0.4
				c-0.4-0.2-0.4-0.3-0.2-0.8c0,0,0-0.1,0-0.1c0,0,0.1-0.2,0.8-0.5c0.4-0.2,1-0.4,1.4-0.5c0.2-0.1,0.4-0.1,0.5-0.2
				c0.1,0,0.2-0.1,0.4-0.1c0.8-0.2,2.4-0.3,3.5-0.4c1.2,0,2.1,0,2.7,0.1l0.1,0c0.4,0,1.3,0.1,2,0.1c0.5,0,0.9,0.1,1,0.1
				c0.5,0,3.1-0.4,3.1-0.4C125.5,0.8,125.7,0.7,125.8,0.7 M112.8-2.7L112.8-2.7c0-0.1,0.1-0.1,0.1-0.2c0.7,0,3.4,0,4.4,0
				c1,0,2.1,0.2,4,0.8c1.5,0.5,3.1,1.5,3.6,1.9c0.1,0.1,0.2,0.1,0.2,0.1c0,0,0.1,0.1,0.2,0.1c0,0,0,0.1,0,0.1c0,0,0,0,0,0
				c0,0,0,0,0,0c0,0,0,0-0.1,0c-0.2,0-0.5,0.1-0.7,0.1c-0.1,0-0.2,0-0.2,0l-0.1,0c-0.4,0.1-1.6,0.2-2,0.3c-0.2,0-0.7-0.1-1.2-0.2
				c-0.5-0.1-1-0.2-1.4-0.2c-0.3,0-0.8-0.1-1.2-0.2c-0.4-0.1-0.8-0.1-1.1-0.2c-0.7-0.1-2.1,0-2.6,0.1c-0.3,0.1-0.7,0.1-1.2,0.1
				c-0.4,0-0.8,0.1-1.2,0.1c-0.1,0-0.1,0-0.2,0c-0.7,0.2-1.7,0.6-2.4,0.9c-0.2,0.1-0.4,0.2-0.5,0.2c-0.6,0.3-0.9,0.7-1.1,1
				c-0.1,0.1-0.1,0.2-0.2,0.3c-0.2,0.2-0.2,0.4-0.1,0.6c0.1,0.1,0.2,0.3,0.4,0.4c0.1,0.1,0.2,0.2,0.3,0.3c0.5,0.5,1.2,0.7,1.7,0.9
				c0.3,0.1,0.4,0.1,0.7,0.3c0.1,0.1,0.3,0.1,0.5,0.2c0.3,0.1,0.5,0.3,0.8,0.4c0.5,0.2,0.9,0.5,1.3,0.6c0.3,0.1,0.5,0.2,0.7,0.3
				c0.3,0.1,0.5,0.3,0.9,0.5c0,0,0,0,0.1,0c0.4,0.3,1.6,1.1,2.4,1.8l0,0c0.3,0.3,0.4,0.5,0.6,0.9c0.1,0.2,0.2,0.4,0.4,0.7
				c0.3,0.4,0.3,0.5,0.2,0.8c0,0.1-0.1,0.3-0.1,0.6c0,0.5-0.1,0.6-0.3,0.8c-0.1,0.1-0.2,0.2-0.4,0.3c-0.3,0.3-1,0.7-1.4,0.9
				c-0.2,0.1-0.3,0.1-0.4,0.2c-0.1,0.1-0.3,0.1-0.5,0.1c-0.1,0-0.3,0-0.5,0.1c-0.2,0-0.3,0.1-0.5,0.2c-0.7,0.3-1.7,0.9-2.3,1.2
				c-0.5,0.3-0.9,0.6-1.2,0.8l-0.1,0c-0.2,0.1-0.4,0.2-0.5,0.3c-0.1,0.1-0.3,0.2-0.3,0.2c0,0-0.2,0.1-0.8,0.2
				c-0.2,0-0.3,0.1-0.3,0.1l-0.2,0l0,0.1c0,0-0.1,0.1-0.3,0.1c-0.3,0.1-0.7,0.1-0.9,0.1c0-0.3,0.2-1.3,0.4-1.6
				c0.1-0.3,1.5-3,1.6-3.1c0.1-0.2,0.6-1.5,0.7-1.8l0,0l0,0c0-0.1,0.1-1.3,0.1-1.6c0-0.3-0.5-1.8-1-2.5c-0.4-0.6-1.8-0.6-3.4-0.6
				c-0.3,0-0.6,0-0.7,0c-0.5,0-1.5,0.1-2.2,0.2c-0.3,0-0.5,0.1-0.5,0.1c-0.3,0-1.9-0.3-2.2-0.4c0,0,0,0,0,0c0,0,0-0.1,0-0.1
				c0-0.1,0.1-0.3,0.1-0.5c0.1-0.4,0.5-0.9,0.8-1.2c0.1-0.1,0.1-0.1,0.2-0.2c0.3-0.4,1.2-1.1,1.9-1.5c0.7-0.4,2.1-1.2,2.6-1.4
				c0.4-0.2,2.4-1,2.9-1.2c0.5-0.2,1.8-0.8,2.1-1.1C111.8-1.2,112.7-2.5,112.8-2.7 M99.4,0.5c0.3-0.2,0.6-0.3,0.9-0.5
				c0.5-0.3,1.1-0.7,2.4-1.2c2-0.7,3.4-1,4.9-1.4c0.2,0,0.4-0.1,0.6-0.1c0.2,0,0.4-0.1,0.6-0.1c1-0.2,2-0.4,2.7-0.3L112-3
				c-0.1,0.3-0.3,0.6-0.5,0.9c-0.2,0.3-0.5,0.5-0.9,0.7c-0.1,0.1-0.2,0.2-0.4,0.2c-0.3,0.2-0.8,0.4-1.3,0.5c-0.1,0-0.2,0-0.2,0
				c-0.1,0-0.1,0-0.2,0c-0.4,0.1-1,0.3-1.5,0.6c-0.2,0.1-0.5,0.2-0.6,0.3c-0.1,0-0.2,0.1-0.3,0.1c-0.6,0.2-1.7,0.7-2.2,0.9
				c-0.5,0.2-1.2,0.8-1.6,1.1c-0.1,0.1-0.1,0.1-0.2,0.1c-0.3,0.2-0.8,0.7-1.1,1c-0.1,0.1-0.2,0.1-0.2,0.2c-0.2,0.2-0.4,0.6-0.7,1.1
				c-0.1,0.2-0.2,0.3-0.3,0.4c-0.3,0.4-0.3,1.1-0.3,1.3c0,0.4,0.7,0.7,1.2,0.8c0.5,0.1,2,0.1,2.4,0.1c0.2,0,0.6-0.1,1-0.1
				c0.3,0,0.6-0.1,0.9-0.1c0.7-0.1,1.4-0.1,1.8-0.1c0.1,0,0.1,0,0.2,0c0.5,0,1.3,0,2,0.2c0.6,0.2,0.7,0.4,0.9,1.1
				c0.1,0.2,0.1,0.4,0.2,0.6c0.3,0.8,0.2,0.9,0.1,1.2c-0.1,0.2-0.1,0.4-0.2,0.8c-0.1,0.7-0.2,0.9-0.3,1.1c-0.1,0.1-0.1,0.2-0.2,0.4
				c-0.3,0.6-0.8,1.8-1.1,2.4c-0.1,0.2-0.2,0.5-0.4,0.6c-0.2,0.3-0.4,0.6-0.4,0.9v0c0,0.3,0,1.1-0.1,1.5c-0.1,0.2-0.5,0.6-0.8,0.7
				c0-0.2-0.1-0.5-0.1-0.8c0-0.2,0-0.5-0.1-0.7c0-0.3,0.1-1.1,0.4-2.2c0-0.1,0-0.1,0-0.2c0-0.1,0.1-1,0.2-1.5c0-0.4,0.1-1.8-0.7-3.1
				c-0.8-1.2-3-1.3-3.5-1.2c0,0,0,0,0,0c-0.6,0.1-3.7,1.7-4,2c-0.3,0.2-1.8,0.9-2.2,1c-0.4,0.1-0.8,0.2-1.3-0.3
				C95,11.4,95,10.8,95,10.2c0-0.2,0-0.4,0-0.6c0-0.5,1-2.1,1.4-2.7c0.1-0.2,0.2-0.3,0.3-0.4c0.3-0.4,1.4-1.7,1.7-2
				c0.4-0.4,0.9-1.6,0.9-2c0.1-0.4-0.4-1.1-0.7-1.5c0.1-0.1,0.1-0.2,0.2-0.2C99,0.8,99,0.7,99.4,0.5 M91.3,6.8
				c0.2-0.3,0.7-0.7,1.1-1.1c0.5-0.5,1-1,1.3-1.3C94,4,96.2,2.1,96.8,1.8c0.1-0.1,0.3-0.1,0.4-0.1c0.1,0,0.2,0,0.3-0.1
				c0.1,0,0.2,0,0.3-0.1c0.1,0,0.3-0.1,0.5-0.2c0,0,0,0,0,0c0.1,0.1,0.2,0.2,0.2,0.5c0.1,0.3,0.1,0.4,0.1,0.6c0,0.2-0.3,0.9-0.5,1.1
				c-0.1,0.2-0.6,0.7-1,1C96.9,5,96.4,5.7,96,6.3c-0.2,0.2-0.4,0.5-0.5,0.6c-0.3,0.4-0.6,1.1-0.9,1.6c-0.1,0.2-0.2,0.4-0.2,0.5
				c-0.3,0.5-0.5,1.4-0.6,2c0,0.1-0.3,2,0.5,2.2c0.3,0.1,0.6,0.1,0.9,0c0.1,0,0.1,0,0.2,0c0.1,0,0.1,0,0.2-0.1
				c0.1,0,0.2-0.1,0.4-0.1c0.7-0.1,1.4-0.5,1.9-0.9l0.1-0.1c0.3-0.2,0.7-0.4,1.2-0.6c0.4-0.2,0.8-0.4,1.1-0.6c0.8-0.4,2.2-1,2.8-1.2
				c0.1,0,0.1,0,0.2,0c0.3-0.1,0.5,0,0.7,0c0.1,0,0.2,0,0.3,0c0.2,0,0.9,0.2,1.2,0.5c0.3,0.3,0.5,0.8,0.7,1.2c0,0.1,0.1,0.1,0.1,0.2
				c0.1,0.3,0.1,0.8,0.1,1.1c0,0.2,0,0.4,0,0.5c0,0.1,0.1,0.7-0.1,1.2c-0.1,0.2-0.1,0.5-0.2,0.7c-0.1,0.3-0.1,0.6-0.2,1
				c-0.2,0.6-0.1,0.8-0.1,1.2c0,0.1,0.1,0.3,0.1,0.5c0.1,0.5,0.1,0.7,0.2,0.9c0,0.1,0.1,0.2,0.1,0.3c0,0.1,0,0.1,0,0.2c0,0,0,0,0,0
				c-0.1,0.1-0.1,0.1-0.3,0.3c-0.2,0.2-0.2,0.2-0.2,0.2c0,0-0.1,0-0.1-0.1c0,0-0.1,0-0.2-0.1c-0.1-0.1-0.3-0.5-0.6-1.3
				c-0.1-0.2-0.1-0.3-0.2-0.4c-0.1-0.1-0.2-0.7-0.3-1c0-0.1-0.1-0.3-0.1-0.4c-0.2-0.9-0.6-2.5-0.7-2.8c-0.1-0.4-0.7-1.6-2.2-1.6
				c-0.4,0-0.7,0-1,0.1c-0.6,0.1-0.9,0.4-1.1,0.5c0,0-0.1,0-0.1,0.1c-0.2,0.1-1.1,0.9-1.4,1.4c-0.3,0.4-0.6,0.8-0.9,1.1
				c-0.1,0.1-0.1,0.1-0.2,0.2c-0.3,0.3-1.2,1.7-1.5,2c-0.2,0.3-0.8,1-1.4,1.5c-0.3,0.3-0.5,0.4-0.7,0.4c-0.1,0-0.1,0-0.3,0
				c-0.2,0-0.4,0-0.9-0.9c-0.4-0.7-0.5-3-0.4-3.6c0-0.3,0.1-0.9,0.3-1.4c0.1-0.5,0.2-0.9,0.2-1.2c0-0.1,0-0.1,0-0.2
				c0.1-0.5,0.2-1.3,0.1-2.3c0-0.6-0.3-1.3-1.3-1.6l0,0c-0.1,0-0.3,0-0.4,0C90.7,7.6,91,7.1,91.3,6.8 M86.7,18
				c-0.2,0-0.4,0.1-0.5,0.2c0.1-0.4,0.2-0.8,0.2-1.2c0.1-0.7,0.6-2.5,0.8-3.1c0.1-0.4,0.9-2.5,1.3-3.3c0.3-0.6,1.1-1.3,1.3-1.5L90,9
				L90,8.9c0-0.1,0.1-0.1,0.1-0.2c0,0,0,0,0,0c0.2,0,0.3,0,0.4,0c0.1,0,0.3,0,0.4,0c0.1,0.1,0.4,0.5,0.6,1c0.1,0.3,0.1,0.7-0.1,1.3
				c0,0.2-0.1,0.5-0.1,0.7c-0.1,0.4-0.2,0.8-0.3,1.2c-0.1,0.4-0.2,1.1-0.3,1.7c0,0.3-0.1,0.6-0.1,0.8c-0.1,0.3,0,1.1,0.1,1.8
				c0,0.1,0,0.2,0,0.3c0,0.3,0.4,1.7,0.6,2.2c0.1,0.3,0.2,0.3,0.3,0.4c0,0,0.1,0.1,0.2,0.2c0.3,0.3,0.5,0.4,0.8,0.3
				c0.1,0,0.2,0,0.3,0c0.1,0,0.1,0,0.2,0c0.4-0.1,0.7-0.5,0.9-0.8c0.1-0.1,0.2-0.3,0.3-0.4c0.1-0.1,0.2-0.2,0.3-0.3
				c0.5-0.5,1.2-1.3,1.5-1.8c0.1-0.2,0.3-0.3,0.4-0.5c0.4-0.6,0.9-1.2,1.2-1.7c0.4-0.6,1-1.2,1.5-1.6c0.5-0.4,1-0.5,1.3-0.6
				c0.1,0,0.2,0,0.3,0c0,0,0.2,0,1,0.2c0.1,0,0.3,0.3,0.5,0.5c0.1,0.1,0.1,0.1,0.2,0.2c0.2,0.2,0.3,0.6,0.4,0.9c0,0,0,0.1,0,0.1
				c0.3,1.2,0.4,1.7,0.4,1.9c0.1,0.5,0.5,1.5,0.6,1.9c0.1,0.1,0.2,0.3,0.2,0.5c0.2,0.3,0.3,0.6,0.4,0.8c0.1,0.2,0.3,0.5,0.5,0.9
				c0,0,0,0.1,0,0.1c0,0-0.2,0.1-0.2,0.1c-0.1,0-0.2,0.1-0.3,0.1c0,0,0,0,0,0c-0.1,0-0.3-0.1-0.5-0.2c-0.1,0-0.2-0.1-0.2-0.1
				c-0.4-0.2-0.8-0.7-1.1-1.1c-0.1-0.1-0.2-0.3-0.3-0.4c-0.1-0.1-0.3-0.4-0.5-0.6c-0.5-0.6-0.9-1.1-1.1-1.2
				c-0.4-0.3-1.8-0.4-1.9-0.4c-0.1,0-0.2,0-0.3,0c-0.4,0.1-0.8,0.4-1.1,0.6l0,0c-0.3,0.2-0.6,0.7-1.1,1.5c-0.3,0.5-0.3,0.9-0.4,1.4
				l0,0c-0.1,0.3-0.1,0.7-0.1,1c0,0.2-0.1,0.4-0.1,0.7c0,0.2,0,0.4-0.1,0.5c0,0.4-0.1,0.7-0.2,1.2c-0.1,0.3-0.2,0.5-0.3,0.8
				c-0.1,0.3-0.2,0.6-0.3,1c-0.2,0.6-0.5,0.8-0.8,1c0,0-0.1,0-0.1,0.1c-0.1,0-0.5-0.3-0.7-0.4c-0.2-0.2-0.5-0.4-0.8-0.5
				c-0.7-0.4-1-1-1.2-1.5l0-0.1c-0.2-0.5-0.5-1.4-0.7-2.3c-0.2-1-0.8-2.3-1.2-3c-0.5-0.8-1.4-0.8-2.5-0.6C86.9,18,86.8,18,86.7,18
				 M86.3,23.5C86.3,23.5,86.3,23.5,86.3,23.5c-0.1-0.1-0.2-0.1-0.3-0.2c0,0,0-0.1,0-0.1c0.1-0.3-0.1-0.6-0.3-1
				c-0.1-0.2-0.1-0.6-0.1-0.8c0.3-0.4,0.3-0.8,0.2-1.1c0-0.1,0.1-0.3,0.1-0.4c0-0.1,0.1-0.3,0.1-0.4c0,0,0-0.1,0-0.1
				c0.1-0.2,0.1-0.3,0.1-0.3c0-0.1,0.1-0.1,0.1-0.3c0-0.1,0.1-0.1,0.3-0.1c0.2,0,0.5-0.1,0.9,0c0.3,0,0.4,0.1,0.6,0.2
				c0.2,0.1,0.3,0.2,0.6,0.3c0.1,0,0.1,0,0.1,0v0c0,0.2,0,0.4,0.3,0.8c0.3,0.4,0.5,1,0.6,1.6c0,0.3,0.1,0.5,0.2,0.8
				c0.2,0.9,0.5,1.5,0.7,2c0.2,0.5,0.8,1.3,1.1,1.7c0.4,0.4,1,0.9,1.7,1.3c0.4,0.3,0.8,0.3,1.1,0.3c0.1,0,0.1,0,0.1,0
				c0.1,0,0.1,0,0.2,0c0,0,0,0,0.1,0c0.4-0.1,0.5-0.6,0.7-1.2c0-0.1,0.1-0.2,0.1-0.2c0.2-0.6,0.7-2.2,0.8-3c0.1-1,0.3-2.8,0.7-4
				c0.3-1,0.9-1.3,1.3-1.5c0.1,0,0.1-0.1,0.2-0.1c0.1-0.1,0.1-0.1,0.1-0.1c0,0,0,0,0,0c0.1,0,0.3,0.1,0.7,0c0.6-0.1,1.1,0.4,1.3,0.5
				c0,0,0.1,0.1,0.1,0.1c0,0,0,0.1,0.1,0.1c0.1,0.1,0.2,0.3,0.5,0.6c0.2,0.2,0.3,0.3,0.3,0.4c0.1,0.1,0.1,0.2,0.3,0.4
				c0.1,0.1,0.3,0.3,0.4,0.4c0.2,0.2,0.3,0.3,0.4,0.5c0.1,0.1,0.1,0.1,0.2,0.2c0.2,0.2,0.3,0.4,0.6,0.5c0.4,0.3,0.5,0.4,0.8,0.5
				c0.1,0,0.1,0,0.1,0.1c0,0.1,0,0.2,0.1,0.3c0.1,0.2,0.2,0.4,0.3,0.6l0.2,0.7l0,0c-0.2,0-0.9-0.2-1.2-0.3c-0.1,0-0.1,0-0.2-0.1
				c-0.2-0.1-0.8-0.3-1.3-0.6c-0.4-0.2-0.7-0.3-0.8-0.4c-0.1-0.1-0.4-0.1-0.7-0.2c-0.1,0-0.2-0.1-0.4-0.1c-0.3,0-0.8-0.1-1.1-0.1
				c0,0-0.1,0-0.1,0c-0.6,0.1-1,0.7-1.3,1.1c0,0,0,0.1-0.1,0.1c-0.3,0.4-0.3,1-0.3,1.4c0,0.1,0,0.2,0,0.3c0,0.4,0.1,1,0.2,1.6l0,0
				c0.1,0.4,0.2,0.8,0.4,1.1c0.1,0.2,0.2,0.4,0.2,0.6c0.1,0.2,0.2,0.6,0.3,1c0.1,0.3,0.2,0.6,0.3,0.9c0.1,0.5,0.1,0.8,0,1.2
				c0,0.1,0,0.2,0,0.3c0,0.2-0.1,0.3-0.3,0.3c-0.1,0-0.2,0.1-0.4,0.2c0,0-0.1,0-0.1,0.1c-0.4,0.1-1,0-1.5-0.2
				c-0.4-0.1-0.7-0.2-1.1-0.4c-0.2-0.1-0.4-0.2-0.6-0.3c-0.4-0.2-1-0.8-1.3-1.2c-0.2-0.2-0.4-0.4-0.5-0.5c-0.3-0.2-0.9-0.8-1.3-1.2
				c-0.1-0.1-0.2-0.2-0.2-0.2c-0.1-0.1-0.5-0.4-0.8-0.6c-0.3-0.2-0.6-0.4-0.7-0.5c-0.2-0.2-1.5-1.3-1.8-1.6
				C88.1,25,86.4,23.6,86.3,23.5 M87.9,31.3c-0.6-1-0.7-1.1-1-2.2c-0.1-0.5-0.2-0.9-0.3-1.2c-0.2-0.9-0.3-1.3-0.4-1.7
				c0-0.1,0-0.3-0.1-0.5c0.1,0,0.2,0,0.4,0c0.4,0,0.5,0.1,0.8,0.2c0.2,0.1,0.4,0.2,0.7,0.3c0.5,0.1,0.7,0.4,1.1,0.7
				c0.1,0.1,0.3,0.3,0.5,0.4c0.5,0.4,2.1,1.6,2.2,1.7c0.1,0.1,1.7,1.7,1.9,1.8c0.2,0.2,2,1.5,2.3,1.7c0.2,0.2,0.8,0.4,1.8,0.6
				c0.4,0.1,0.8,0.1,1.3,0c0.2,0,0.3-0.1,0.5-0.2c0.6-0.3,0.5-1.3,0.5-1.6c0-0.3-0.2-1.1-0.4-1.8c-0.1-0.5-0.2-0.9-0.2-1.1
				c0-0.2-0.2-0.7-0.5-1.4c-0.1-0.4-0.3-0.8-0.3-0.9c-0.1-0.4-0.4-1.9-0.3-2.2c0.1-0.3,0.6-1.2,0.8-1.4c0.1-0.1,0.3-0.1,0.5-0.2
				c0.2,0,0.4-0.1,0.7-0.1c0,0,0,0,0.1,0c0.1,0,0.2,0,0.3,0c0.1,0,0.2,0.1,0.3,0.2c0.1,0.1,0.2,0.1,0.3,0.2c0.4,0.2,0.8,0.3,1.1,0.5
				c0.3,0.1,1.1,0.5,1.2,0.5c0.1,0,0.1,0.1,0.9,0.3c0.3,0.1,0.7,0.2,0.8,0.2c0,0,0,0,0,0c0,0,0.1,0.1,0.1,0.1c0,0.1,0,0.1,0,0.3
				c0,0.1,0,0.2,0,0.3c-0.1,0-0.1,0.1-0.2,0.1c0,0-0.1,0.1-0.2,0.1c-0.2,0-0.3,0-0.4,0c-0.1,0-0.1,0-0.2,0c0,0-0.2,0-0.3,0
				c-0.4,0-1,0.1-1.3,0.1c-0.4,0.1-0.7,0.2-1.1,0.3c-0.4,0.1-0.4,0.2-0.5,0.4c0,0.1,0,0.1-0.1,0.1c-0.2,0.2-0.3,0.4-0.3,0.5
				c0,0.1,0,0.1-0.1,0.2c-0.1,0.2-0.1,0.6,0,1.2c0,0.1,0,0.2,0,0.2c0,0.1,0.1,0.3,0.5,1.1c0,0,0,0.1,0,0.1c0.1,0.1,0.6,1,0.7,1.1
				l0,0l2,2c-0.9,0.7-2.3,1.9-2.5,2.1c-0.8,0.9-1.4,1.6-1.7,2.1c0,0-1.3,0.9-1.9,0.4c-0.6-0.4-4.3-2.7-5-2.9
				c-0.6-0.2-1.7-0.6-2.2-0.5c-0.3,0-0.6,0.3-0.8,0.5c-0.1-0.2-0.3-0.4-0.4-0.6C88.8,32.6,88.3,31.9,87.9,31.3 M95.5,39.9
				c-1.6-1.1-3.5-2.8-4.8-4.4c0.4-0.5,1.1-0.2,1.6-0.1c0.5,0,1.6,0.3,2.5,0.8c0.9,0.5,2.4,2.2,3,2.2c0.5,0,0.6,0.5,1.4,0
				c0,0,0,0.1,0,0.1c0,0.1-0.1,0.3-0.1,0.5c0,0,0,0,0,0c0,0,0,0,0,0c-0.1,0.4-0.1,0.9-0.1,1.5c0,0.6,0.4,1.2,1,1.9
				c-0.1,0.2-0.2,0.3-0.3,0.3c-0.1,0-0.2-0.1-0.2-0.1c-0.2-0.1-0.5-0.3-0.9-0.4C98,41.8,96.8,40.8,95.5,39.9 M121.6,71.6
				c0,0-0.1,0-0.1,0c-0.7,0.2-3.1,1.2-3.7,1.4c-0.3,0-1.4,0.2-2.5,0.5c-0.7,0.2-1.2,0.3-1.5,0.5c0,0-0.1,0.1-0.3,0.1
				c-0.8,0.2-2.1,0.2-2.8,0.2c-0.3,0-0.4,0-0.5,0c-0.1,0-0.3,0-0.9,0.2c-0.9-0.1-1.9-0.2-2.3-0.4l-0.2-0.2c0,0,0,0,0,0
				c-0.1-0.3-0.3-1.6-0.2-3.1c0-0.4,0.1-0.7,0.1-1c0.2-0.8,0.6-1.7,1-2.6c0.3-0.3,0.6-0.7,1-1.1c0.8-0.9,1.7-1.9,2.5-2.4
				c0.1-0.1,0.3-0.2,0.4-0.2c0,0,0.1,0,0.1-0.1c1.4-0.7,5.2-2.7,5.9-3.4c0.1-0.1,0.2-0.2,0.4-0.4c1.4-1.3,5.2-4.8,6.1-6.3
				c0.3-0.4,0.6-0.8,1-1.3c1-1.2,2.1-2.6,1.1-4.2c-0.5-0.7-2.1-1.3-4.9-1.7c-0.3-0.2-0.6-0.2-0.7-0.1c0,0,0,0-0.1,0
				c-0.3,0-0.5-0.1-0.8-0.1c-1.4-0.2-3.8-0.4-7.2-0.5c-1.1,0-3.7-0.4-6.2-1.1c-2.7-0.8-4.9-1.6-5.1-2.6c-0.7-2.9,0.4-4.3,1.1-4.9
				c0.5-0.5,1.3-1.2,2.1-1.9c0.3-0.2,0.5-0.5,0.7-0.7l0.1,0.1l0-0.2c0.3-0.3,0.6-0.5,0.8-0.7c0.1-0.1,0.2-0.2,0.4-0.3
				c0.6-0.5,1.5-1.2,2.3-2.1c0.9-0.9,1.5-1.8,1.8-2.6c0.2,0,0.4,0,0.7,0.1c0,0,0.1,0.2,0,0.9c-0.1,0.5-0.2,1-0.4,1.4
				c-0.2,0.6-1.1,2.2-2.5,4.7c-1.1,1.9-0.9,3.1-0.6,4.7c0.3,1.6,2.3,2.5,3.6,3c0.1,0,0.2,0.1,0.3,0.1c1.5,0.7,6.5,0.1,6.5,0.1
				c0.1,0,0.1,0,0.2,0c0.9-0.2,3.6-1.1,5-1.6c0.5-0.2,0.9-0.3,0.9-0.3l0,0c0.5-0.1,6.6-0.7,7.1-0.6c0.5,0.1,0.8,0.9,0.8,2
				c0,1.1-0.7,4-1.2,5.2c-0.2,0.7-0.7,1.4-1.1,2.1c-0.2,0.3-0.4,0.7-0.6,1c-0.5,1-2,2.9-2,2.9l0,0c-0.4,0.5-1.5,3.2-2.6,6
				c-0.1,0.3-0.2,0.5-0.3,0.7c-0.5,1.3-0.3,4.7-0.2,5.1c0.3,1.2,0.3,1.5,0.3,1.6c0,0.1-0.3,0.6-0.5,0.8c-0.1,0.2-0.1,0.2-0.2,0.2
				l-0.2-0.1l-0.2,0.6c0,0-0.1,0.2-0.2,0.5C123.3,69.6,122,71.3,121.6,71.6 M135.3,63c-0.7,0.7-2.4,2-3.3,2.7
				c-0.9,0.7-2.5,1.7-3.3,2.1c-0.8,0.4-1.3,0.5-2,0.6c-0.3,0.1-0.6,0.2-0.9,0.3c-0.1,0-0.2,0.1-0.2,0.1c-0.1-0.1-0.2-0.1-0.3-0.2
				c0.1-0.1,0.2-0.1,0.2-0.2c0.4-0.3,0.4-1.2,0.1-1.9c-0.1-0.4-0.3-0.9-0.4-1.4c-0.1-0.3-0.1-0.5-0.2-0.7c-0.1-0.4,0.4-2,0.6-2.8
				c0.1-0.4,0.2-0.7,0.2-0.8c0.2-0.7,2.4-5.7,2.6-6c0-0.1,0.3-0.5,0.6-1c0.8-1.4,2.4-3.9,3.5-5.9c1.7-3.2,1.2-7.7,1.2-7.8
				c-0.1-0.9-1.3-1.4-2-1.6c-0.2,0-0.5,0-2,0.3c-1.9,0.4-4.6,1.2-4.8,1.2c-0.3,0.1-4.9,1.5-5.4,1.6c-0.5,0.1-5,0.4-5.6,0.3
				c-0.8-0.1-2.9-0.6-4-1.3c-1-0.7-1.2-2-1.3-3.2c-0.1-0.8,0.8-2.2,1.4-3.1c0.3-0.4,0.5-0.8,0.5-1c0.1-0.2,0.3-0.7,0.6-1.4
				c0.6-1.4,1.1-2.5,1.1-2.8c0.1-0.2,0-0.7,0-1.2c0-0.4,0-1.1,0-1.3c0.2-0.3,0.5-0.5,0.9-0.6c0,0,0.2,0.1,0.4,0.6
				c0.2,0.4,0.3,0.9,0.3,1.1c0.1,0.4,0.2,2.4,0.2,2.6c0,0.2,0,0.9,0,2c0,0.6,0,1.2,0,1.4c0,0.6,0.6,2.4,0.9,3.2
				c0.4,1,2.1,1.6,2.7,1.8l0.1,0c0.6,0.2,1.7,0.2,2.5,0c0.1,0,0.2,0,0.2-0.1c1-0.3,4.2-2.4,4.7-2.8c0.4-0.4,4.2-3.2,6.4-4.8
				c1.5-1.1,3.5-1.9,3.9-2c0.1,0,0.2,0,0.7,0.8c0.1,0.1,0.1,0.2,0.1,0.2c0.1,0.3,1,2.9,1,3.3c0.1,0.4,0.3,2.6,0.3,3
				c0,0.1,0,0.3,0,0.6c0,0.8-0.1,2.1-0.1,2.4c0,0.3-0.4,1.5-0.6,2.2c-0.1,0.4-0.2,0.7-0.2,0.9c-0.1,0.5-0.6,2-1.1,2.9
				c-0.3,0.6-0.5,2.6-0.6,5.7l0,0.1c0,0.5,0.2,1.1,0.4,1.6c0.1,0.3,0.2,0.6,0.3,0.8c0.1,0.4,0.4,1.3,0.8,2.1c0.2,0.4,0.4,0.8,0.4,1
				c0.1,0.4,0.7,1.2,1,1.7l0,0.1c-0.1,0.3-0.5,1.2-0.7,1.6C137.2,60.8,136,62.3,135.3,63 M139.1,58.3c-0.1,0-0.1,0-0.1,0l-0.2,0l0,0
				c-0.1-0.1-0.1-0.1-0.2-0.2c-0.2-0.1-0.7-1.2-0.9-1.5c-0.1-0.3-1.5-4.4-1.6-5.1c-0.1-0.7,0.5-4.5,0.5-4.8c0.1-0.3,1.1-2.7,1.2-3
				c0-0.1,0.3-1.1,0.6-2.4c0.3-1,0.6-2.2,0.6-2.3c0,0,0,0,0,0c0.1-0.2,0-1.8,0-2.2c-0.1-1-0.2-2.6-0.5-4.3c-0.3-1.7-0.9-2.8-1.3-3.4
				c-0.6-0.8-1.2-1.1-1.6-1.1c-0.1,0-0.2,0-0.3,0c-0.7,0.2-1.9,0.9-2.4,1.3c-0.2,0.1-1,0.7-1.8,1.3c-0.7,0.5-1.4,1-1.5,1.1
				c-0.3,0.2-3.1,2.4-3.4,2.7c-0.3,0.3-2.8,2.2-3.2,2.4c-0.4,0.2-2.6,1-3.3,1.2c0,0,0,0-0.1,0c-0.5,0.1-0.5,0.1-1.2,0
				c-0.1,0-0.3,0-0.5-0.1c-1-0.1-2.1-1.4-2.5-2c-0.3-0.5-0.5-2.5-0.5-2.8c0.1-0.3,0-1.4-0.1-3c0-0.7-0.1-1.5-0.1-1.6
				c0-0.2-0.1-0.7-0.4-1.4c-0.1-0.3-0.2-0.5-0.2-0.6c-0.1-0.3-0.8-1.2-1.1-1.5l0.1-0.3l0.6-0.8c0.3,0.1,0.7,0.1,0.8,0.2
				c0.1,0.1,1,1.1,1.1,1.2c0.1,0.2,1.6,2.4,1.7,2.6c0.1,0.3,1.1,2.1,1.3,2.3c0.2,0.2,1.7,1.8,2.9,2.5c0.5,0.3,1.2,0.3,1.9,0.2
				c0.6-0.1,1.1-0.4,1.5-0.5c0.1,0,0.2-0.1,0.2-0.1c0.8-0.3,2.7-2.4,2.9-2.8c0.3-0.4,1.7-4.2,1.8-4.6c0.1-0.4,1.2-2.9,1.4-3.1
				c0.1-0.1,0.3-0.5,0.7-1.2c0.4-0.7,1-1.7,1.1-1.8c0.2-0.2,0.5-0.3,0.9-0.4c0.2,0,0.8,0.6,1.1,1c0.2,0.2,0.4,0.4,0.6,0.6
				c0.6,0.6,2.3,3.2,2.6,4c0.3,0.7,1.5,4.2,1.7,5.1c0.4,2.5,0.4,3.1,0.4,3.2c-0.1,0.2,0,0.5,0.1,1.3c0.1,0.6,0.3,1.3,0.4,2.1
				c0.2,1.5,1.2,2.9,1.8,3.7c0.1,0.1,0.2,0.3,0.3,0.4c0.5,0.8,2,1.6,2.1,1.7l0.2,0.1l0.4-0.4l0,0c0.1,1.4,0.1,3,0.1,3.3
				c0,0.1-0.3,0.7-0.5,1.1c-0.6,1.4-0.7,1.8-0.8,2c0,0.2-0.3,0.8-0.4,1.2c-0.4,1-0.6,1.7-0.7,2.1c-0.1,0.5-1.2,3.3-1.8,4.2
				c-0.3,0.5-0.6,0.9-0.9,1.4c-0.3,0.5-0.7,1-1,1.4C139.7,58.1,139.4,58.2,139.1,58.3"/>
		</g>
	</g>
</g>
</svg>
