<?xml version="1.0" encoding="utf-8"?>
<!-- Generator: Adobe Illustrator 23.0.3, SVG Export Plug-In . SVG Version: 6.00 Build 0)  -->
<svg version="1.1" id="geomuseum" xmlns="http://www.w3.org/2000/svg" xmlns:xlink="http://www.w3.org/1999/xlink" x="0px" y="0px"
	 viewBox="0 0 311.8 70.9" style="enable-background:new 0 0 311.8 70.9;" xml:space="preserve">
<style type="text/css">
	.st0{fill:#539996;}
	.st1{fill:#FFFFFF;}
</style>
<title>geo_museum_menu_logo</title>
<rect x="-5.8" y="-8.4" class="st0" width="320.3" height="87.8"/>
<path class="st1" d="M85.6,27.6l0.8-0.9h0.8c0,2.1,0,6.5,0,7.2L87,34.1h-1.4v-0.7l-2.7,0.8c-3.7,0-4.3-1.7-4.3-4.1v-6.7
	c0-1.2,0.6-3.8,4.4-3.8c3.5,0,4.3,1.2,4.3,3.4l-0.2,0.2h-1.3L85.6,23c-0.1-1.6-0.9-1.8-2.7-1.8c-1.4,0-2.8,0.3-2.8,2.2v6.7
	c0,2,0.8,2.5,2.8,2.5l2.7-0.1L85.6,27.6z"/>
<path class="st1" d="M90,33.9V20l0.2-0.1h8.1l0.1,0.1v1.3l-0.2,0.2h-6.6v4.4h6.2l0.1,0.1v1.3l-0.1,0.2h-6.2v5.2h6.6l0.2,0.2V34
	l-0.1,0.2h-8L90,33.9z"/>
<path class="st1" d="M105.5,34.4c-3.2,0-4.4-1.8-4.4-3.8v-7.4c0-1.8,1.2-3.8,4.5-3.8s4.4,1.9,4.4,3.8v7.4
	C109.9,32.5,108.7,34.4,105.5,34.4z M108.3,23.2c0-1.8-1.3-2.3-2.8-2.3c-1.8,0-2.9,0.6-2.9,2.3v7.3c0,1.8,1.9,2.3,2.8,2.3h0.3
	c0.8,0,2.7-0.4,2.7-2.3L108.3,23.2z"/>
<path class="st1" d="M123.4,20v14l-0.2,0.2h-1.3l-0.1-0.2V22.4l-0.3,0.9c-0.9,1.9-2.1,4.2-3,6.1h-1.4l-3-6.1l-0.3-1V34l-0.2,0.1
	h-1.3l-0.2-0.2V20l0.1-0.2h1.8l3.6,7.4l3.6-7.4h1.9L123.4,20z"/>
<path class="st1" d="M134.9,20v10.3c0,2.7-1.3,4-4.4,4c-3.1,0-4.5-1.3-4.5-4V20l0.1-0.2h1.3l0.2,0.2v10.3c0,1.8,1.1,2.5,2.9,2.5
	c1.8,0,2.9-0.8,2.9-2.5V20l0.1-0.2h1.3L134.9,20z"/>
<path class="st1" d="M146,30.5c0,2.6-1.2,3.9-4.5,3.9s-4.3-1.3-4.4-3.5l0.2-0.1h1.2l0.1,0.1c0.1,1.4,1,1.9,2.8,1.9
	c2.3,0,2.9-0.6,2.9-2.3c0.1-0.9-0.4-1.7-1.2-2c-1.2-0.6-2.5-1.2-4-1.9c-1.3-0.5-2-1.9-1.9-3.2c0-2.1,1-3.6,4.1-3.6s4.2,0.9,4.3,3.4
	l-0.2,0.2h-1.3l-0.2-0.2c0-1.4-0.5-1.8-2.7-1.8c-2.1,0-2.6,0.7-2.6,1.9c-0.1,0.9,0.4,1.7,1.2,2c1,0.5,2.6,1.2,3.6,1.6
	C145.3,27.5,146,28.2,146,30.5z"/>
<path class="st1" d="M148.4,33.9V20l0.2-0.1h8l0.1,0.1v1.3l-0.2,0.2h-6.6v4.4h6.2l0.1,0.1v1.3l-0.1,0.2h-6.2v5.2h6.6l0.2,0.2V34
	l-0.1,0.2h-8L148.4,33.9z"/>
<path class="st1" d="M168.2,20v10.3c0,2.7-1.3,4-4.4,4c-3.1,0-4.5-1.3-4.5-4V20l0.1-0.2h1.3l0.2,0.2v10.3c0,1.8,1.1,2.5,2.9,2.5
	c1.8,0,2.9-0.8,2.9-2.5V20l0.1-0.2h1.3L168.2,20z"/>
<path class="st1" d="M181.8,20v14l-0.2,0.2h-1.3l-0.1-0.1V22.4l-0.3,0.9c-0.9,1.9-2.1,4.2-3,6.1h-1.3l-3-6.1l-0.3-1V34l-0.2,0.1
	h-1.3l-0.2-0.2V20l0.1-0.2h1.8l3.6,7.4l3.6-7.4h1.9L181.8,20z"/>
<path class="st1" d="M78.5,51.1V37.2l0.4-0.4h7.9l0.4,0.4v1.5l-0.4,0.4h-6v3.3h5.5l0.4,0.4v1.5l-0.4,0.4h-5.5v5.9L80.4,51L78.5,51.1
	z"/>
<path class="st1" d="M95.4,37.2l3.1,13.2v0.7h-2.3l-0.9-3.8h-4.5c-0.3,1.2-0.5,2.5-0.8,3.8h-2.3v-0.7l3-13.2l0.5-0.4h3.7L95.4,37.2z
	 M94.8,45c-0.2-0.9-0.4-1.8-0.6-2.8s-0.4-2-0.7-3.1h-0.9L91.3,45C91.3,45,94.8,45,94.8,45z"/>
<path class="st1" d="M109.1,51.1h-1.5l-2.9-4.8l-3,4.8h-1.4l-0.5-0.4v-1l3.5-5.8l-3.5-5.8v-0.9l0.4-0.5h1.5l2.9,4.8
	c1.4-2.2,2.1-3.4,3-4.8h1.4l0.4,0.5v0.9l-3.5,5.6c1.2,1.9,2.3,3.8,3.5,5.7v1.1L109.1,51.1z"/>
<path class="st1" d="M111.3,50.6V37.2l0.4-0.4h7.9l0.4,0.4v1.5l-0.4,0.4h-6v3.3h5.5l0.4,0.4v1.5l-0.4,0.4h-5.5v4h6l0.4,0.5v1.4
	l-0.4,0.4h-7.8L111.3,50.6z"/>
<g id="New_Symbol_19">
	<path class="st1" d="M56.5,54.2L56.5,54.2h0.2c0.5-0.1,1-0.5,1.2-0.9c0.2-0.3,0.5-0.7,0.7-1.1c0.2-0.3,0.5-0.7,0.7-1.1
		c0.7-1.1,1.2-2.3,1.5-3.5c0.2-0.5,0.3-0.9,0.5-1.4c0.2-0.4,0.3-0.7,0.4-1.2c0.1-0.2,0.3-0.8,0.5-1.2c0.2-0.3,0.2-0.7,0.3-1
		c0.1-0.8,0.1-1.7,0-2.5c0.2-0.2,0.4-0.3,0.7-0.5c0.3-0.4,0.6-1,0.7-1.5c0.3-1.2,0.4-2.3,0.3-3.6c-0.1-0.4-0.1-1.2-0.1-1.7
		c0-0.4,0-0.9-0.1-1.3c-0.4-1.8-0.7-3.1-0.7-3.6c0-0.4-0.2-0.8-0.4-1.2c0.1-0.2,0.1-0.4,0-0.7c-0.1-0.2-0.2-0.4-0.2-0.7
		c-0.1-0.2-0.1-0.2-0.2-0.4c-0.1-0.3-0.7-1.7-1.5-3.3c-0.2-0.6-0.5-1.1-0.6-1.2c-0.1-0.2-0.6-0.9-1.7-2.6c-0.4-0.7-0.9-1.3-1-1.5
		c-0.2-0.3-0.5-0.6-0.7-0.8l-0.3-0.4c-0.3-0.5-0.7-0.9-1.1-1.3c-0.3-0.4-0.7-0.9-0.9-1.1c-0.2-0.2-0.2-0.3-1.6-1.3
		c-0.7-0.5-1.5-1.2-1.7-1.3c-0.1-0.1-0.3-0.2-0.6-0.3c-2.9-1.8-3.6-2.1-4-2c-0.2,0.1-0.4,0-0.6-0.1l-0.1-0.1c-0.9-0.7-1.9-1.2-3-1.5
		c-1.1-0.4-2.2-0.7-3.4-0.7c-0.7,0-3.1,0-3.4,0l-0.9-0.1c-0.8-0.1-1.7,0-2.5,0.2l-0.5,0.1L32.2,6c-1.3,0.2-2.6,0.7-3.8,1.1
		c-0.7,0.2-1.5,0.6-2.2,1c-0.2,0.1-0.3,0.2-0.6,0.3C25.3,8.5,25,8.7,24.9,9L24.8,9c-0.1,0-0.1,0.1-0.2,0.1h-0.2
		c-0.1,0-0.2,0-0.2,0.1c-0.2,0-0.3,0.1-0.4,0.1c-1.1,0.7-2,1.4-2.8,2.2c-0.2,0.2-0.6,0.6-0.9,0.9s-0.7,0.7-0.8,0.8
		c-0.4,0.5-0.7,1.1-1.1,1.7c-0.5,0.4-0.9,0.9-1.2,1.4c-0.3,0.7-0.9,2.2-1,2.6c-0.2,0.8-0.5,1.7-0.7,2.6c-0.1,0.7-0.2,1.2-0.4,1.8
		c-0.1,0.3-0.2,0.7-0.1,1v0.1c-0.3,0.4-0.2,1,0,1.5c0,0.1,0.1,0.2,0.1,0.3c0,0.8,0.1,1.7,0.2,2.6c0.1,0.3,0.2,0.7,0.3,1.4
		c0.1,0.2,0.2,0.6,0.2,0.9c0.2,0.7,0.4,1.3,0.9,1.9c0.2,0.4,0.7,1,1.2,1.9c1.3,1.9,3,3.6,4.8,4.9c1.7,1.2,3.6,2.1,5.5,2.7
		c1.1,0.2,2.1,0.6,3.1,1c4.5,1.7,8.9,0.4,9.3,1.9c0.2,1.1,0.4,1.2-0.1,2.2c-0.2,0.6-2.2,2.2-4,4.1c-2.4,2.4-4.6,4.6-5.1,5.7
		c-1.1,2-0.9,5.5-0.9,5.7v0.1l0.4,2l1.3,1.4l0.2-0.1l1.4-0.3c0.2-0.1,0.4-0.1,0.6-0.1c0.1,0,0.2,0,0.3,0c0.7,0,1.6,0,2.3-0.2
		c0.2,0,0.2-0.1,0.4-0.2c0.3-0.1,0.7-0.2,1-0.2c0.8-0.2,1.8-0.3,1.8-0.3h0.1h0.1c0.9-0.3,2.2-0.9,2.7-1l0,0h0.1
		c0.2,0,0.4-0.2,1.2-1.2c0.3-0.3,0.6-0.7,0.8-1.2l0,0l0.2,0.1c0.2,0.2,0.4,0.2,0.7,0.2c0.2,0,0.2-0.1,0.4-0.2s0.3-0.2,0.5-0.2
		c0.6-0.1,1.2-0.3,1.7-0.6c0.9-0.5,1.8-1.1,2.7-1.7c0.6-0.5,2.1-1.6,2.7-2.2c0.7-0.7,1.2-1.4,1.7-2.2C56.1,55.1,56.3,54.5,56.5,54.2
		z M62.1,27.3c0.2,0.2,0.4,0.6,0.5,0.9c0.1,0.7,0.5,2.7,0.7,3.8c0.1,0.4,0.1,0.7,0.1,1.2c0,0.7,0.1,1.3,0.1,1.8c0.1,1,0,2.1-0.2,3.1
		c-0.2,0.4-0.3,0.8-0.6,1.2c-0.2,0.2-0.5,0.3-0.7,0.5l-0.2,0.2v0.1h-0.1l-0.5-0.3c-0.6-0.6-1.1-1.2-1.6-1.8
		c-0.3-0.7-0.6-1.4-0.7-2.2c-0.2-1-0.2-2-0.2-3.1c-0.1-1.1-0.2-2.2-0.6-3.2v-0.1c-0.4-1.2-0.9-2.2-1.5-3.3c-0.9-1.4-1.9-2.7-3.1-3.9
		c-0.3-0.2-0.5-0.3-0.7-0.2l0,0h-0.2c-0.2,0.1-0.6,0.3-1,0.8c-0.4,0.6-0.7,1.2-1,1.8c-0.1,0.2-0.3,0.7-0.5,1.2
		c-0.2,0.4-0.3,0.7-0.3,0.8c-0.2,0.4-0.5,1.4-0.7,1.8c-0.1,0.2-0.4,0.9-0.7,1.4c-0.2,0.5-0.3,0.7-0.4,0.9c-0.3,0.6-0.7,1.2-1.2,1.7
		c-0.5,0.4-1.1,0.7-1.7,0.9l-0.4,0.2l-0.2,0.1c-0.5,0-0.9-0.1-1.3-0.3L42.8,33c-0.5-0.3-0.9-0.8-1.2-1.3l-0.3-0.4
		c-0.2-0.4-0.5-0.9-0.7-1.3c-0.2-0.3-0.3-0.7-0.5-1.1c-0.3-0.4-1.7-2.1-1.9-2.2c-0.1-0.1-0.2-0.2-0.2-0.2c-0.2-0.2-0.2-0.2-0.2-0.3
		c0-0.1,0.2-0.3,0.2-0.4c0.1-0.2,0.2-0.2,0.2-0.2c0,0,0,0,0.1,0c0.3,0,0.7,0.1,1.1,0.2c1,0.6,2,1.2,3,1.7c0.7,0.3,1.3,0.6,2.1,0.7
		l0.3,0.1l0,0c0.5,0.1,1,0,1.5-0.1l0.2-0.1c0.5-0.2,1-0.7,1.6-1.7c0.4-0.7,0.3-3.7,0.2-4c0-0.1-0.1-0.7-0.1-1.3
		c-0.1-0.7-0.1-1.5-0.2-1.7c-0.1-1-0.1-2.1,0-3.1l0,0c0.2,0,0.4,0,0.7,0l0,0c0.8,0.2,1.7,0.7,2.4,1.1c0.2,0.1,1.2,1.1,1.5,1.2
		l0.7,0.7c0.3,0.2,0.7,0.6,0.7,0.7c0.1,0.1,0.5,0.7,0.9,1.2l0.6,0.7c0.1,0.1,0.2,0.3,0.5,0.7c0.5,0.8,1.2,1.7,1.7,2.5
		c0.4,0.3,0.8,0.7,1.3,1l0.2,0.1c0.3,0.2,0.7,0.3,1.2,0.5l0.2,0.1c0.2,0.1,0.5,0.2,0.7,0.2l0.5,0.2l0.2,0.1l-0.2,0.1L62.1,27.3z
		 M56,16c0.2,0.2,0.3,0.4,0.5,0.6c0.2,0.2,0.4,0.3,0.6,0.6c0.1,0.2,0.2,0.4,1.1,1.7c0.6,0.8,1.5,2.2,1.6,2.4l0.6,1.2
		c0.5,1.1,1.4,2.9,1.5,3.2c0.1,0.2,0.1,0.3,0.2,0.4l0.1,0.3c0-0.1-0.1-0.1-0.2-0.1l-0.6-0.2c-0.4-0.1-0.9-0.2-1.3-0.4
		c-0.6-0.3-1.2-0.7-1.7-1.2c-0.4-0.4-0.7-0.9-1-1.4c0-0.1-0.1-0.2-1.4-2c-0.7-1-1.6-2.1-2-2.7c-1-1.2-3.7-2.8-4.9-3.4
		c-0.4-0.2-0.8-0.3-1.2-0.3c-0.1,0-0.2,0.1-0.3,0.2C47.3,15,47.2,15,47.1,15l0,0c-0.5,0.1-0.4,0.8-0.4,1.2c0,0.1,0,0.2,0,0.2
		s0,0.4,0.1,0.8c0.1,0.7,0.2,1.6,0.2,1.8c0,0.6,0.1,1.2,0.2,1.8c0.1,0.3,0.1,0.7,0.2,1c0,0.2,0.1,0.6,0.2,0.8c0.1,0.6,0.1,1.2,0,1.8
		v0.2c-0.1,0.6-0.3,1.1-0.7,1.5c-0.2,0.3-0.6,0.6-0.9,0.7c-0.5,0.2-1.1,0.2-1.7,0.1c-0.2-0.1-0.5-0.2-0.7-0.2
		c-0.2-0.1-0.4-0.2-0.7-0.2c-0.2-0.1-1.7-0.9-2.6-1.4l-1.1-0.7c-0.4-0.1-0.7-0.1-1.2,0H38l-0.3,0.2c-0.1,0.1-0.2,0.1-0.3,0.2
		c-0.2-0.2-0.5-0.4-0.7-0.7c0.1-0.2,0.2-0.3,0.2-0.4c0.1-0.2,0.2-0.2,0.2-0.4c0,0,0.1-0.1,0.6-0.2c0.5-0.1,0.9-0.2,1.3-0.2
		c0.2,0,0.4-0.1,0.5-0.1s1.2,0,2,0c0.7,0,1.4,0,2.1,0c0.5-0.1,0.9-0.2,1.3-0.5c0.5-0.2,0.7-1,1-2.4c0.2-1.2-2.7-4.4-2.7-4.5l0,0
		c-0.7-1-1.4-2-2-3.1c-0.1-0.3,0.1-0.6,0.3-0.7h0.1c0.3,0,0.7,0,1.1,0c0.3,0,0.7,0,1.3,0c1.3,0.2,2.7,0.6,4,1.1
		c0.2,0.1,0.2,0.1,0.4,0.2c0.2,0.1,1.2,0.7,2.2,1.3l0,0c0.7,0.2,1.4,0.7,2.1,1.1c0.8,0.5,1.8,0.7,2.8,0.7L56,16z M29.9,30.8
		c-0.2,0.3-0.2,0.7-0.1,1c0.2,0.5,0.7,0.8,1.2,1c-0.5,0.4-0.8,0.7-0.9,0.6l0,0l-0.2-0.3l-0.9-1l-0.4-0.5c-0.2-0.2-0.3-0.5-0.5-0.8
		c-0.2-0.2-0.2-0.6-0.4-0.8c0-0.1,0-0.1,0-0.2c0.2-0.3,0.4-0.7,0.7-0.9c0.4-0.1,0.8-0.2,1.2-0.2c0.1,0.1,0.2,0.1,0.7,0
		s1.2-0.4,1.2-0.4l0.3-0.1c0.2,0.1,0.3,0.2,0.5,0.5l0,0c0,0.1-0.1,0.2-0.2,0.2c-0.2,0.1-0.2,0.2-0.3,0.2c-0.1,0.1-0.2,0.1-0.2,0.1
		C30.7,29.4,30.2,30.1,29.9,30.8z M30.8,32.2l-0.4-0.8c0.2-0.3,0.3-0.7,0.4-1.1c0.2-0.1,0.3-0.2,0.5-0.3l0.7-0.3l0.3-0.2l0.9-0.7
		l0.2,0.2l-0.1,0.4c-0.1,0.1-0.1,0.2-0.1,0.3l-0.2,1.1c-0.5,0.7-1.1,1.2-1.7,1.8L30.8,32.2z M46.3,9.4c0.1,0,0.2-0.1,0.2-0.3
		c0.2,0,0.4,0,0.7,0c0.5,0.2,1,0.4,1.4,0.7c0.7,0.4,1.4,0.8,1.9,1.2l0.6,0.3c1.1,0.7,2.1,1.5,3.1,2.3c0.1,0.2,0.3,0.4,1,1.2
		c0.2,0.2,0.4,0.5,0.7,0.7L55,15.3l-0.6-0.1c-1.1-0.4-2.1-0.9-3.1-1.4c-0.1-0.1-0.7-0.4-1.7-1l-1.1-0.6c-1.2-0.5-2.5-0.9-3.7-1.2
		l-0.4-0.2c-0.2-0.1-3.5,0-3.6,0l0,0c-0.3,0.1-0.5,0.7-0.5,1c0,0.1,0,0.3,1.2,2.2c0.4,0.7,0.8,1.2,1.3,1.8c0.8,1.1,1.5,2.2,2.2,3.4
		c0.2,0.6,0.2,1.3,0,1.9c-0.2,0.2-0.3,0.4-0.6,0.6L44.2,22c-0.2,0.1-0.3,0.2-0.5,0.2h-0.2c-0.5,0.1-1.1,0.2-1.6,0.1
		c-0.2,0-2.5-0.3-2.8-0.2c-0.7,0.1-1.3,0.2-2.1,0.3H37c-0.4,0.1-0.7,0.3-1,0.6l-0.2,0.2l0,0c0,0-0.1,0-0.1-0.1
		c-0.2-0.1-0.5-0.7-0.3-1.1c0.4-0.4,1-0.8,1.5-1.1l0.2-0.2c0.1-0.1,1-0.4,1.6-0.6h0.1c0.7-0.2,1.3-0.6,1.9-0.9
		c0.5-0.3,0.9-0.8,1.2-1.4c0.2-0.4-0.3-1.1-0.8-1.7l-0.2-0.2c0-0.1-0.1-0.1-0.5-0.5c-0.1-0.1-0.2-0.2-0.2-0.2
		c-0.2-0.2-0.4-0.4-0.7-0.6c-0.2-0.1-0.2-0.2-0.3-0.2c-0.2-0.2-0.4-0.2-0.7-0.3c-0.2-0.1-0.7-0.5-0.7-0.5c-0.1,0-0.9-0.5-1.5-0.7
		c-0.6-0.2-1.1-0.6-1.6-0.9l-0.6-0.3c-0.2-0.2-0.2-0.2-0.1-0.7v-0.1c0,0,0.1-0.2,0.6-0.3c0.3-0.2,0.7-0.3,1.1-0.4L36,9.8
		c0.1,0,0.2-0.1,0.2-0.1c0.9-0.2,1.7-0.2,2.7-0.2c0.7,0,1.4,0,2.1,0.1h0.1c0.3,0,1,0.1,1.5,0.1l0.8,0.2c0.8-0.1,1.6-0.2,2.4-0.3
		C46,9.5,46.2,9.5,46.3,9.4z M36.5,6.8L36.5,6.8C36.5,6.8,36.5,6.7,36.5,6.8c0.6-0.1,2.7-0.1,3.4-0.1c1.1,0,2.1,0.2,3.1,0.6
		c1,0.3,1.9,0.8,2.7,1.4l0.2,0.1L46,8.9c0,0,0,0,0,0.1l0,0l0,0l0,0C45.8,9,45.7,9,45.5,9h-0.2h-0.1c-0.3,0.1-1.2,0.2-1.5,0.2
		c-0.3,0-0.6-0.1-0.9-0.1C42.4,9,42,9,41.8,9c-0.3,0-0.6-0.1-0.9-0.2S40.3,8.7,40,8.6c-0.7,0-1.3,0-2,0.1c-0.2,0-0.6,0.1-0.9,0.1
		l-0.9,0.1H36c-0.7,0.2-1.2,0.4-1.8,0.7l-0.3,0.2c-0.3,0.2-0.7,0.4-0.8,0.7l-0.2,0.2c-0.1,0.1-0.2,0.3-0.1,0.4
		c0.1,0.1,0.2,0.2,0.3,0.3l0.2,0.2c0.3,0.3,0.8,0.6,1.3,0.7c0.2,0.1,0.4,0.2,0.6,0.2l0.3,0.2l0.6,0.3c0.3,0.2,0.7,0.3,1,0.5
		c0.2,0.1,0.3,0.2,0.5,0.2c0.2,0.2,0.5,0.2,0.7,0.3h0.1c0.2,0.2,1.2,0.9,1.8,1.3l0,0c0.2,0.2,0.3,0.4,0.5,0.7
		c0.1,0.2,0.2,0.3,0.3,0.5c0.2,0.3,0.2,0.3,0.2,0.6c0,0.2-0.1,0.3-0.1,0.5c0,0.4-0.1,0.4-0.2,0.6c-0.1,0.1-0.2,0.2-0.2,0.2
		c-0.3,0.2-0.7,0.5-1.1,0.7c-0.1,0.1-0.2,0.1-0.3,0.2c-0.1,0.1-0.2,0.1-0.4,0.1c-0.1,0-0.2,0-0.3,0.1c-0.1,0-0.2,0.1-0.3,0.1
		c-0.6,0.2-1.2,0.6-1.7,0.9c-0.3,0.2-0.6,0.4-0.9,0.6h-0.1c-0.2,0.1-0.2,0.2-0.4,0.2c-0.1,0.1-0.2,0.1-0.2,0.2
		c-0.2,0.1-0.4,0.2-0.7,0.2L34,21.7h-0.1v0.1c-0.1,0-0.2,0.1-0.2,0.1c-0.4,0.3-0.7,0.3-0.9,0.3c0-0.4,0.2-0.8,0.2-1.2
		c0.1-0.2,1.2-2.2,1.2-2.4c0.1-0.1,0.5-1.2,0.6-1.3l0,0l0,0c0-0.1,0.1-1,0.1-1.2c-0.2-0.7-0.4-1.3-0.7-1.9c-0.3-0.5-1.4-0.5-2.6-0.4
		c-0.2,0-0.4,0-0.5,0c-0.6,0-1.2,0.1-1.7,0.2L29,13.9c-0.6-0.1-1.1-0.2-1.7-0.3l0,0v-0.1c0.1-0.2,0.1-0.2,0.1-0.4
		c0.2-0.3,0.3-0.7,0.6-0.9l0.1-0.2c0.5-0.4,1-0.8,1.5-1.2c0.5-0.3,1.6-0.9,2-1.1c0.3-0.2,1.8-0.7,2.2-0.9c0.6-0.2,1.1-0.5,1.7-0.8
		C35.8,7.7,36.1,7.3,36.5,6.8L36.5,6.8z M26.2,9.3c0.2-0.1,0.4-0.2,0.7-0.4C27.4,8.5,28,8.2,28.7,8c1.2-0.4,2.5-0.7,3.7-1l0.5-0.1
		l0.5-0.1c0.7-0.3,1.3-0.3,2.1-0.3l0.3,0.1c-0.1,0.2-0.2,0.4-0.4,0.7S35,7.6,34.7,7.8c-0.1,0.1-0.2,0.1-0.2,0.2
		c-0.3,0.2-0.7,0.3-1,0.3h-0.2h-0.2c-0.4,0.1-0.7,0.2-1.2,0.4L31.5,9l-0.2,0.1c-0.5,0.2-1.3,0.5-1.7,0.7c-0.4,0.2-0.8,0.5-1.2,0.8
		l-0.2,0.1c-0.2,0.2-0.6,0.5-0.8,0.7l-0.2,0.2c-0.2,0.2-0.4,0.5-0.6,0.8l-0.2,0.3c-0.2,0.3-0.2,0.7-0.2,1s0.5,0.6,0.9,0.6
		c0.6,0.1,1.2,0.1,1.8,0.1c0.2,0,0.4-0.1,0.7-0.1l0.7-0.1c0.4-0.1,0.9-0.1,1.3-0.1h0.2c0.5-0.1,1,0,1.5,0.2c0.5,0.2,0.5,0.2,0.7,0.8
		c0.1,0.2,0.1,0.2,0.2,0.5c0.2,0.6,0.2,0.7,0.1,0.9c-0.1,0.2-0.1,0.4-0.2,0.6c0,0.3-0.1,0.6-0.2,0.8c-0.1,0.1-0.1,0.2-0.2,0.3
		c-0.2,0.5-0.7,1.3-0.8,1.8c-0.1,0.2-0.2,0.3-0.2,0.5c-0.2,0.2-0.2,0.4-0.2,0.7l0,0c0,0.4-0.1,0.7-0.1,1.1c-0.2,0.2-0.3,0.4-0.6,0.6
		c0-0.2-0.1-0.4-0.1-0.6c0-0.2,0-0.3-0.1-0.5c0-0.6,0.1-1.2,0.2-1.7c0-0.1,0-0.1,0-0.2c0-0.1,0.1-0.7,0.2-1.2
		c0.1-0.8-0.1-1.7-0.5-2.3c-0.6-0.9-2.2-1-2.7-0.9l0,0c-1.1,0.4-2.1,0.9-3.1,1.5c-0.5,0.3-1.1,0.6-1.7,0.7c-0.3,0.2-0.7,0.1-1-0.2
		c-0.2-0.2-0.2-0.7-0.2-1.1c0-0.2,0-0.3,0-0.4c0.2-0.7,0.7-1.5,1.1-2.1C24,14,24,13.9,24,13.8c0.4-0.5,0.8-1.1,1.3-1.5
		c0.3-0.5,0.6-1,0.7-1.5c0.1-0.2-0.3-0.8-0.5-1.2c0.1-0.1,0.1-0.1,0.1-0.2C25.9,9.5,25.9,9.4,26.2,9.3z M20,14.1
		c0.2-0.2,0.5-0.5,0.8-0.8c0.3-0.3,0.8-0.7,1-1c0.7-0.7,1.6-1.4,2.4-2c0.1,0,0.2-0.1,0.3-0.1l0.2-0.1h0.2c0.2,0,0.2-0.1,0.3-0.2l0,0
		c0.1,0.1,0.2,0.2,0.2,0.4c0.1,0.2,0.1,0.3,0.1,0.5c-0.1,0.3-0.2,0.6-0.3,0.8c-0.2,0.2-0.5,0.5-0.7,0.7c-0.2,0.2-0.6,0.7-0.9,1.2
		c-0.2,0.2-0.2,0.3-0.3,0.5c-0.2,0.4-0.5,0.8-0.7,1.2c-0.1,0.2-0.2,0.2-0.2,0.3c-0.2,0.5-0.3,1-0.4,1.5c0,0.1-0.2,1.5,0.3,1.7
		c0.2,0.1,0.5,0.1,0.7,0h0.2h0.2l0.2-0.1c0.5-0.2,1-0.3,1.5-0.7l0.1-0.1c0.2-0.2,0.6-0.3,0.9-0.5l0.8-0.5c0.7-0.3,1.4-0.7,2.2-0.9
		h0.2c0.2-0.1,0.4-0.1,0.6,0c0.1,0,0.2,0,0.2,0c0.3,0.1,0.7,0.2,0.9,0.4c0.2,0.2,0.4,0.6,0.5,0.9l0.1,0.2c0.1,0.2,0.1,0.6,0.1,0.8
		c0,0.1,0,0.2,0,0.3c0.1,0.3,0,0.6-0.1,0.9c-0.1,0.2-0.1,0.3-0.1,0.6c0,0.2-0.1,0.4-0.2,0.7c-0.1,0.2-0.2,0.6-0.1,0.9
		c0,0.1,0,0.2,0.1,0.4c0,0.2,0.1,0.5,0.2,0.7c0,0.1,0.1,0.2,0.1,0.2v0.1l0,0c-0.1,0.1-0.2,0.2-0.2,0.2c-0.1,0.2-0.2,0.2-0.2,0.2H31
		l-0.2-0.1c-0.2-0.2-0.4-0.6-0.5-1c0-0.1-0.1-0.2-0.1-0.3c-0.1-0.2-0.2-0.5-0.2-0.7c0-0.1,0-0.2-0.1-0.2c-0.2-0.7-0.4-1.9-0.5-2.2
		c-0.2-0.7-0.9-1.2-1.7-1.2c-0.2,0-0.5,0-0.7,0.1c-0.3,0.1-0.6,0.2-0.8,0.4h-0.1c-0.4,0.3-0.7,0.7-1.1,1.1c-0.2,0.2-0.5,0.6-0.7,0.8
		l-0.1,0.2c-0.2,0.2-0.9,1.2-1.1,1.5c-0.3,0.4-0.7,0.7-1.1,1.2c-0.2,0.2-0.3,0.2-0.5,0.3h-0.2c-0.2,0-0.3,0-0.7-0.7
		c-0.2-0.9-0.3-1.8-0.3-2.8c0-0.2,0.1-0.7,0.2-1.1c0.1-0.4,0.2-0.7,0.2-0.9l0,0c0.1-0.6,0.1-1.2,0.1-1.7s-0.4-1.1-1-1.2l0,0
		c-0.1,0-0.2,0-0.3,0C19.6,14.7,19.8,14.3,20,14.1z M16.6,22.6c-0.2,0-0.2,0.1-0.4,0.2c0.1-0.3,0.2-0.7,0.2-0.9
		c0.2-0.8,0.3-1.6,0.6-2.4c0.1-0.3,0.7-1.9,1-2.5c0.2-0.4,0.6-0.8,1-1.2l0.1-0.1l0.1-0.1l0.1-0.2l0,0c0.1,0,0.2,0,0.3,0h0.2
		c0.2,0.2,0.3,0.5,0.4,0.7c0.1,0.3,0.1,0.7,0,1c0,0.2-0.1,0.3-0.1,0.6c-0.1,0.3-0.1,0.6-0.2,0.9c-0.1,0.4-0.2,0.8-0.2,1.3
		c0,0.2-0.1,0.5-0.1,0.6c0,0.4,0,0.9,0.1,1.3c0,0.1,0,0.2,0,0.2c0.2,0.6,0.3,1.1,0.5,1.7c0.1,0.2,0.2,0.2,0.2,0.3
		c0.1,0.1,0.1,0.1,0.2,0.2c0.2,0.2,0.4,0.3,0.6,0.2h0.2c0.1,0,0.1,0,0.2,0c0.3-0.1,0.5-0.3,0.7-0.7c0.1-0.1,0.2-0.2,0.2-0.3l0.2-0.2
		c0.3-0.4,0.9-1,1.2-1.4l0.3-0.4c0.3-0.4,0.7-0.8,0.9-1.2c0.3-0.5,0.7-0.9,1.2-1.2c0.2-0.2,0.6-0.4,1-0.4h0.2c0.2,0,0.5,0.1,0.7,0.2
		c0.2,0.1,0.2,0.2,0.3,0.3l0.2,0.2c0.2,0.2,0.2,0.4,0.2,0.7V20c0.2,0.9,0.2,1.3,0.2,1.4c0.1,0.5,0.2,1,0.5,1.4
		c0.1,0.1,0.1,0.2,0.2,0.3c0.1,0.2,0.2,0.4,0.3,0.6c0.2,0.2,0.2,0.5,0.3,0.7c0,0,0,0,0,0.1c-0.1,0-0.1,0.1-0.2,0.1
		c-0.1,0-0.2,0.1-0.2,0.1l0,0c-0.1,0-0.2-0.1-0.4-0.2l-0.2-0.1c-0.3-0.2-0.6-0.5-0.8-0.8c-0.1-0.1-0.2-0.2-0.2-0.2L28,23
		c-0.4-0.5-0.7-0.8-0.8-0.9c-0.4-0.2-0.9-0.3-1.4-0.3c-0.1,0-0.2,0-0.2,0c-0.3,0.1-0.6,0.2-0.8,0.5l0,0c-0.3,0.3-0.6,0.7-0.8,1.2
		c-0.2,0.3-0.2,0.7-0.3,1l0,0c-0.1,0.2-0.1,0.5-0.1,0.8c0,0.2,0,0.3-0.1,0.5l-0.1,0.4c0,0.3-0.1,0.6-0.2,0.9
		c-0.1,0.2-0.2,0.4-0.2,0.6c-0.1,0.2-0.2,0.5-0.2,0.7c-0.1,0.3-0.2,0.6-0.6,0.7L22,29.2c-0.1,0-0.4-0.2-0.6-0.3
		c-0.2-0.2-0.4-0.2-0.6-0.4c-0.4-0.2-0.7-0.7-0.9-1.2v-0.1c-0.2-0.6-0.4-1.2-0.6-1.8c-0.2-0.8-0.5-1.6-0.9-2.2
		C18,22.5,17.3,22.5,16.6,22.6L16.6,22.6z M16.2,26.8L16.2,26.8c-0.1-0.1-0.1-0.1-0.2-0.1v-0.1c0.1-0.2-0.1-0.5-0.2-0.7
		c-0.1-0.2-0.1-0.4-0.1-0.7c0.2-0.2,0.2-0.6,0.2-0.8c0-0.1,0-0.2,0.1-0.3c0-0.1,0.1-0.2,0.1-0.3v-0.1c0-0.1,0.1-0.2,0.1-0.2
		c0-0.1,0.1-0.2,0.1-0.2c0-0.1,0.1-0.1,0.2-0.1c0.2,0,0.4,0,0.7,0c0.2,0,0.3,0.1,0.5,0.2c0.2,0.1,0.3,0.2,0.5,0.2h0.1l0,0
		c0,0.2,0.1,0.4,0.2,0.6c0.2,0.3,0.4,0.7,0.4,1.2c0,0.2,0.1,0.4,0.2,0.6c0.2,0.5,0.3,1,0.6,1.5c0.2,0.5,0.5,0.9,0.8,1.3
		c0.4,0.4,0.8,0.7,1.3,1c0.2,0.2,0.6,0.2,0.8,0.2h0.1c0.1,0,0.1,0,0.2,0h0.1c0.2-0.1,0.4-0.5,0.5-0.9l0.1-0.2
		c0.2-0.7,0.5-1.5,0.6-2.2c0.1-1,0.2-2.1,0.6-3.1c0.2-0.5,0.5-0.9,1-1.2l0.1,0l0.1-0.1l0,0c0.2,0,0.3,0,0.5,0c0.3,0,0.7,0.2,1,0.4
		l0.1,0.1l0.1,0.1c0.1,0.2,0.2,0.3,0.3,0.5c0.1,0.1,0.2,0.2,0.2,0.3c0.1,0.1,0.2,0.2,0.2,0.3l0.2,0.3c0.1,0.2,0.2,0.2,0.3,0.3
		c0.1,0.1,0.1,0.1,0.2,0.2c0.2,0.2,0.2,0.2,0.4,0.4c0.2,0.2,0.4,0.2,0.7,0.3c0.1,0,0.1,0,0.1,0.1c0,0.1,0,0.2,0.1,0.2
		c0.1,0.2,0.2,0.2,0.2,0.4l0.1,0.5l0,0c-0.3-0.1-0.6-0.1-0.9-0.2h-0.1c-0.2-0.1-0.7-0.2-1-0.4l-0.7-0.2c-0.2-0.1-0.3-0.1-0.6-0.2
		c-0.1,0-0.2-0.1-0.2-0.1c-0.2-0.1-0.6-0.1-0.8-0.1h-0.1c-0.4,0.1-0.7,0.6-1,0.8v0.1c-0.2,0.3-0.2,0.7-0.2,1.1c0,0.1,0,0.2,0,0.2
		c0,0.4,0.1,0.8,0.2,1.2l0,0c0.1,0.2,0.2,0.6,0.2,0.8c0.1,0.2,0.1,0.2,0.2,0.4c0.1,0.2,0.2,0.5,0.2,0.7c0.1,0.2,0.2,0.5,0.2,0.7
		c0.1,0.3,0.1,0.6,0,0.9c0,0.1,0,0.2,0,0.2c0,0.2-0.1,0.2-0.2,0.2c-0.1,0-0.2,0.1-0.3,0.2h-0.1c-0.3,0-0.7,0-1.1-0.1
		c-0.2-0.1-0.6-0.2-0.8-0.3c-0.2-0.1-0.2-0.2-0.4-0.2c-0.4-0.2-0.7-0.6-1-0.9c-0.2-0.2-0.2-0.2-0.4-0.4c-0.2-0.2-0.7-0.7-1-0.9
		L20.4,30c-0.2-0.2-0.4-0.3-0.7-0.5c-0.2-0.2-0.4-0.3-0.5-0.3c-0.1-0.1-1.2-0.9-1.4-1.2C17.6,27.8,16.3,26.8,16.2,26.8z M17.5,32.7
		c-0.4-0.5-0.7-1.1-0.7-1.7c-0.1-0.3-0.2-0.7-0.2-0.9c-0.2-0.7-0.2-1-0.3-1.3c0-0.1,0-0.2-0.1-0.3h0.2c0.2,0,0.4,0.1,0.7,0.2
		c0.2,0.1,0.3,0.2,0.6,0.2c0.3,0.1,0.6,0.2,0.8,0.5c0.1,0.1,0.2,0.2,0.3,0.3c0.4,0.2,1.6,1.2,1.7,1.3l1.4,1.4
		c0.2,0.2,1.5,1.2,1.7,1.3c0.4,0.2,0.9,0.4,1.4,0.5c0.3,0.1,0.7,0.1,1,0c0.2,0,0.2-0.1,0.3-0.1c0.5-0.2,0.4-1,0.3-1.2
		c0-0.2-0.2-0.8-0.3-1.4c-0.1-0.3-0.2-0.7-0.2-0.8c-0.1-0.3-0.2-0.7-0.3-1.1c-0.1-0.3-0.2-0.7-0.2-0.7c-0.2-0.6-0.2-1.1-0.2-1.7
		c0.1-0.4,0.3-0.7,0.7-1.1c0.2-0.1,0.2-0.1,0.4-0.2c0.2,0,0.4-0.1,0.6-0.1H27h0.2c0.1,0,0.2,0.1,0.2,0.2c0.1,0.1,0.2,0.1,0.2,0.2
		l0.9,0.3c0.2,0.1,0.8,0.3,0.9,0.4c0.2,0.1,0.4,0.2,0.7,0.2c0.2,0.1,0.5,0.2,0.6,0.2l0,0l0.1,0.1c0,0.1,0,0.2,0,0.2
		c0,0.1,0,0.2,0,0.2c-0.1,0-0.1,0.1-0.2,0.1c-0.1,0-0.2,0-0.2,0s-0.2,0-0.3,0h-0.1h-0.2c-0.3,0-0.7,0.1-1,0.1
		c-0.2,0-0.5,0.1-0.9,0.2c-0.3,0.1-0.3,0.2-0.4,0.3c0,0.1-0.1,0.1-0.1,0.1c-0.1,0.1-0.2,0.2-0.2,0.4c0,0.1,0,0.1-0.1,0.1
		c-0.1,0.3-0.1,0.6,0,0.9c0,0.1,0,0.2,0,0.2s0.1,0.2,0.3,0.8v0.1c0.1,0.1,0.5,0.7,0.6,0.8l0,0l1.5,1.5c-0.7,0.5-1.2,1.1-1.8,1.7
		c-0.5,0.5-0.9,1.1-1.3,1.7c0,0-1,0.7-1.4,0.3c-1.2-0.8-2.5-1.6-3.8-2.2c-0.6-0.2-1.1-0.3-1.7-0.3c-0.2,0.1-0.4,0.2-0.6,0.4
		c-0.1-0.2-0.2-0.2-0.2-0.4C18.1,33.7,17.7,33.1,17.5,32.7z M23.2,39.2c-1.3-1-2.6-2.1-3.6-3.3l0,0c0.3-0.4,0.8-0.1,1.2-0.1
		c0.7,0.1,1.3,0.2,1.9,0.6c0.7,0.3,1.8,1.7,2.2,1.7s0.5,0.4,1.1,0v0.1c0,0.1-0.1,0.2-0.1,0.3l0,0c-0.1,0.3-0.1,0.7-0.1,1.2
		c0.1,0.6,0.3,1.1,0.7,1.4c0.1,0.2,0,0.2-0.1,0.2l-0.2-0.1c-0.2-0.2-0.4-0.2-0.7-0.3C24.9,40.3,24,39.8,23.2,39.2z M43.1,63.4
		L43.1,63.4c-0.7,0.2-2.5,0.9-2.9,1.1c-0.2,0-1.1,0.2-1.8,0.3c-0.4,0.1-0.7,0.2-1.2,0.3L37,65.2c-0.7,0.1-1.4,0.2-2.2,0.1
		c-0.2,0-0.2,0-0.4,0c-0.2,0-0.4,0.1-0.7,0.1c-0.6,0-1.2-0.1-1.7-0.3l-0.1-0.2l0,0c-0.2-0.7-0.2-1.6-0.2-2.4c0-0.2,0.1-0.5,0.1-0.7
		c0.2-0.6,0.4-1.2,0.7-2c0.2-0.2,0.5-0.5,0.7-0.8c0.6-0.7,1.2-1.3,1.9-1.8l0.4-0.1l0.1-0.1c1.6-0.7,3.1-1.6,4.5-2.6l0.3-0.2
		c1.1-1,4-3.7,4.6-4.8c0.2-0.3,0.5-0.7,0.7-1c0.7-0.9,1.7-2,0.8-3.1c-0.4-0.6-1.6-1-3.7-1.3c-0.2-0.1-0.3-0.2-0.6-0.1h-0.1l-0.7-0.1
		c-1.1-0.2-2.9-0.3-5.5-0.4c-1.6-0.1-3.1-0.4-4.7-0.8c-2.1-0.6-3.7-1.2-3.9-2c-0.5-2.2,0.3-3.3,0.8-3.7c0.5-0.4,1-0.9,1.6-1.5
		l0.6-0.5l0.1,0.1v-0.2c0.2-0.2,0.4-0.4,0.6-0.5l0.3-0.2c0.7-0.5,1.2-1,1.8-1.6c0.6-0.6,1.1-1.2,1.4-2c0.2,0,0.3,0,0.5,0.1
		c0,0,0.1,0.2,0,0.7c-0.1,0.4-0.2,0.7-0.4,1.1c-0.6,1.2-1.2,2.4-1.9,3.6c-0.7,1.1-0.8,2.4-0.5,3.6c0.2,1.2,1.7,1.9,2.7,2.3l0.2,0.1
		c1.2,0.5,4.9,0.1,5,0.1h0.2c0.7-0.2,2.7-0.8,3.8-1.2c0.3-0.1,0.7-0.2,0.7-0.2l0,0c1.8-0.2,3.6-0.4,5.5-0.4c0.3,0.1,0.6,0.7,0.6,1.6
		c-0.2,1.3-0.4,2.7-0.9,4c-0.2,0.6-0.5,1.1-0.8,1.6c-0.2,0.2-0.3,0.5-0.4,0.7c-0.5,0.7-1,1.5-1.6,2.2l0,0c-0.7,1.5-1.4,3-2,4.6
		l-0.2,0.6c-0.4,1-0.2,3.6-0.2,3.9c0.1,0.4,0.2,0.8,0.2,1.2c-0.1,0.2-0.2,0.4-0.3,0.6c-0.1,0.1-0.1,0.1-0.1,0.2L44.7,61l-0.2,0.5
		c0,0.1-0.1,0.2-0.2,0.3C44.1,62.2,43.6,62.9,43.1,63.4L43.1,63.4z M53.5,56.8c-0.5,0.5-1.8,1.5-2.6,2.1c-0.8,0.6-1.7,1.1-2.5,1.6
		c-0.5,0.2-1,0.4-1.5,0.5c-0.2,0.1-0.4,0.2-0.7,0.2l-0.2,0.1c-0.1-0.1-0.2-0.1-0.2-0.2l0.2-0.1c0.3-0.2,0.3-0.9,0.1-1.4
		c-0.1-0.2-0.2-0.7-0.2-1.1c-0.1-0.2-0.1-0.4-0.2-0.6c0.1-0.7,0.2-1.4,0.5-2.2c0.1-0.2,0.2-0.5,0.2-0.7c0.2-0.5,1.8-4.3,2-4.6
		c0-0.1,0.2-0.4,0.5-0.7c0.7-1.1,1.8-3,2.7-4.6c1.3-2.5,0.9-5.9,0.9-5.9c-0.1-0.7-1-1.1-1.5-1.2c-0.5,0-1,0.1-1.5,0.2
		c-1.5,0.3-3.5,0.9-3.6,0.9c-0.2,0-3.8,1.2-4.1,1.2c-1.4,0.2-2.8,0.2-4.3,0.2c-1.1-0.2-2.1-0.5-3.1-1c-0.7-0.5-0.9-1.5-1-2.5
		c-0.1-0.6,0.6-1.7,1.1-2.4c0.2-0.2,0.3-0.5,0.4-0.7c0.1-0.2,0.2-0.6,0.4-1c0.4-1.1,0.8-1.9,0.8-2.1c0-0.3,0-0.6,0-0.9
		c0-0.3,0-0.7,0-1c0.2-0.2,0.4-0.4,0.7-0.4c0,0,0.2,0.1,0.3,0.5c0.1,0.2,0.2,0.5,0.2,0.8c0.1,0.7,0.2,1.3,0.2,2c0,0.2,0,0.7,0,1.6
		c0,0.5,0,0.9,0,1.1c0.2,0.8,0.3,1.7,0.7,2.4c0.3,0.7,1.6,1.2,2.1,1.4h0.1c0.7,0.2,1.3,0.2,1.9,0l0.2-0.1c1.2-0.6,2.4-1.3,3.5-2.2
		c0.3-0.3,3.2-2.5,4.9-3.6c0.9-0.7,1.9-1.2,3-1.5c0.1,0,0.2,0,0.6,0.7l0.1,0.2c0.1,0.2,0.7,2.2,0.7,2.5s0.2,2,0.2,2.3
		c0,0.1,0,0.2,0,0.4c0,0.6-0.1,1.6-0.1,1.8c-0.1,0.6-0.2,1.2-0.4,1.7c-0.1,0.3-0.2,0.5-0.2,0.7c-0.2,0.7-0.5,1.5-0.8,2.2
		c-0.2,0.5-0.4,1.9-0.4,4.3v0.1c0,0.4,0.2,0.8,0.3,1.2c0.1,0.2,0.2,0.5,0.2,0.6c0.2,0.5,0.3,1.1,0.6,1.6c0.2,0.3,0.2,0.7,0.3,0.7
		c0.2,0.4,0.5,0.9,0.7,1.3v0.1c-0.1,0.2-0.4,0.9-0.6,1.2C54.6,55.6,54.1,56.2,53.5,56.8L53.5,56.8z M56.5,53.3h-0.2h-0.2l0,0
		L56,53.1c-0.2-0.3-0.5-0.7-0.7-1.2c-0.1-0.2-1.2-3.3-1.2-3.9c0.1-1.2,0.2-2.5,0.4-3.6c0.1-0.2,0.9-2.1,0.9-2.2
		c0.1-0.2,0.2-0.8,0.5-1.8c0.2-0.8,0.4-1.7,0.4-1.7l0,0c0-0.6,0-1.1,0-1.7c-0.1-0.8-0.2-2-0.3-3.2c-0.1-0.9-0.5-1.8-1-2.6
		c-0.2-0.4-0.7-0.7-1.2-0.8h-0.2c-0.7,0.2-1.2,0.6-1.8,1l-1.4,1l-1.2,0.8c-0.2,0.2-2.3,1.8-2.6,2.1c-0.7,0.7-1.6,1.2-2.4,1.8
		c-0.8,0.3-1.7,0.7-2.6,0.9h-0.1c-0.3,0.1-0.6,0.1-0.9,0l-0.4-0.1c-0.8-0.2-1.5-0.8-1.9-1.5c-0.1-0.9-0.2-1.6-0.2-2.3s0-1.5-0.1-2.2
		c0-0.5-0.1-1.1-0.1-1.2c-0.1-0.4-0.2-0.7-0.3-1.1c-0.1-0.2-0.2-0.4-0.2-0.5c-0.2-0.4-0.5-0.8-0.8-1.2l0.1-0.2l0.5-0.6
		c0.2,0,0.4,0.1,0.6,0.2c0.1,0.1,0.7,0.8,0.8,0.9s1.2,1.8,1.3,2c0.1,0.2,0.8,1.6,1,1.7c0.7,0.7,1.4,1.4,2.2,1.9
		c0.5,0.2,1,0.2,1.5,0.1c0.4-0.1,0.7-0.2,1.2-0.4l0.2-0.1c0.8-0.6,1.6-1.3,2.2-2.2c0.2-0.2,1.3-3.2,1.4-3.5c0.1-0.2,0.9-2.2,1.1-2.4
		c0.1-0.2,0.2-0.4,0.6-0.9c0.3-0.5,0.7-1.2,0.8-1.4c0.2-0.2,0.4-0.2,0.7-0.2c0.2,0,0.6,0.5,0.8,0.7c0.2,0.2,0.2,0.3,0.4,0.5
		c0.7,1,1.4,2,2,3.1c0.5,1.2,0.9,2.6,1.2,3.9c0.2,0.8,0.2,1.7,0.3,2.5c-0.1,0.2,0,0.4,0.1,0.9c0.1,0.5,0.2,1.1,0.2,1.6
		c0.2,1,0.7,2,1.3,2.8c0.1,0.1,0.2,0.2,0.2,0.2c0.4,0.5,1,0.9,1.6,1.2l0.2,0.1l0.2-0.2l0,0c0.1,1.1,0.1,2.2,0.1,2.5
		c0,0.1-0.2,0.5-0.3,0.8c-0.2,0.5-0.4,1-0.6,1.5c0,0.2-0.2,0.6-0.3,0.9c-0.2,0.5-0.4,1.1-0.6,1.6c-0.3,1.1-0.8,2.2-1.3,3.1
		c-0.2,0.3-0.5,0.7-0.7,1.1c-0.2,0.3-0.5,0.7-0.7,1.1C56.9,53,56.7,53.2,56.5,53.3L56.5,53.3z"/>
</g>
</svg>
