<svg id="geomuseum" xmlns="http://www.w3.org/2000/svg" width="110mm" height="25mm" viewBox="0 0 311.81 70.87"><defs><style>.cls-1{fill:#539996;}.cls-2{fill:#fff;}</style></defs><title>geo_museum_menu_logo</title><rect class="cls-1" x="-3.42" y="-8.45" width="320.31" height="87.84"/><path class="cls-2" d="M101,27.62l.8-.93h.82c0,2.06,0,6.5,0,7.24l-.18.18-1.46,0v-.68l-2.72.84c-3.68,0-4.32-1.74-4.32-4.06V23.46c0-1.24.58-3.76,4.36-3.76,3.46,0,4.26,1.18,4.32,3.4l-.16.18h-1.26L101,23.1c-.12-1.6-.86-1.84-2.72-1.84-1.4,0-2.8.26-2.8,2.24v6.69c0,2,.8,2.46,2.8,2.46l2.68-.06Z"/><path class="cls-2" d="M105.4,33.89V20l.16-.14h8.06l.14.14v1.28l-.16.16H107v4.37h6.18l.14.13v1.29l-.14.16H107v5.17h6.62l.16.19v1.22l-.14.16h-8Z"/><path class="cls-2" d="M120.86,34.37c-3.18,0-4.44-1.85-4.44-3.78V23.2c0-1.78,1.2-3.76,4.46-3.76s4.44,1.86,4.44,3.78v7.4C125.32,32.52,124.06,34.37,120.86,34.37Zm2.86-11.13c0-1.82-1.26-2.32-2.84-2.32-1.78,0-2.9.56-2.9,2.32v7.35c0,1.84,1.9,2.3,2.76,2.3H121c.82,0,2.7-.38,2.7-2.28Z"/><path class="cls-2" d="M138.8,20v14l-.16.16h-1.3L137.2,34V22.4l-.3.92c-.94,1.94-2.06,4.19-3,6.14h-1.36l-3-6.14-.34-1V34l-.16.14h-1.26l-.18-.16V20l.14-.16h1.84l3.6,7.4,3.56-7.4h1.86Z"/><path class="cls-2" d="M150.32,20V30.3c0,2.69-1.34,4-4.44,4s-4.46-1.32-4.46-4V20l.14-.16h1.28L143,20v10.3c0,1.85,1.08,2.55,2.88,2.55s2.86-.76,2.86-2.55V20l.14-.16h1.28Z"/><path class="cls-2" d="M161.44,30.49c0,2.56-1.18,3.86-4.48,3.86s-4.3-1.34-4.36-3.52l.16-.14H154l.14.14c.08,1.42,1,1.94,2.76,1.94,2.34,0,2.94-.58,2.94-2.33a2,2,0,0,0-1.22-2c-1.24-.63-2.46-1.2-4-1.94a3.1,3.1,0,0,1-1.86-3.22c0-2.1,1-3.6,4.14-3.6s4.2.86,4.28,3.4l-.16.16h-1.3l-.16-.18c0-1.44-.52-1.84-2.66-1.84s-2.58.74-2.58,1.94a2,2,0,0,0,1.24,2c1,.48,2.58,1.16,3.6,1.64C160.72,27.51,161.44,28.22,161.44,30.49Z"/><path class="cls-2" d="M163.82,33.89V20l.16-.14H172l.14.14v1.28l-.16.16H165.4v4.37h6.18l.14.13v1.29l-.14.16H165.4v5.17H172l.16.19v1.22l-.14.16h-8Z"/><path class="cls-2" d="M183.56,20V30.3c0,2.69-1.34,4-4.44,4s-4.46-1.32-4.46-4V20l.13-.16h1.29l.16.16v10.3c0,1.85,1.08,2.55,2.88,2.55s2.86-.76,2.86-2.55V20l.14-.16h1.28Z"/><path class="cls-2" d="M197.22,20v14l-.16.16h-1.3l-.14-.14V22.4l-.3.92c-.94,1.94-2.06,4.19-3,6.14H191l-3-6.14-.34-1V34l-.16.14h-1.27l-.17-.16V20l.14-.16h1.84l3.6,7.4,3.56-7.4h1.86Z"/><path class="cls-2" d="M93.88,51.09V37.24l.42-.42h7.9l.38.42v1.5l-.4.42h-6v3.26h5.54l.4.4v1.53l-.4.39H96.22v5.93l-.42.42Z"/><path class="cls-2" d="M110.8,37.24l3.08,13.17v.68h-2.26l-.86-3.76h-4.52c-.26,1.24-.54,2.48-.82,3.76h-2.28v-.66l3-13.17.48-.44h3.68ZM110.22,45c-.2-.95-.4-1.85-.62-2.81s-.44-2-.68-3.1h-.86L106.78,45Z"/><path class="cls-2" d="M124.5,51.09H123l-2.9-4.81-3,4.81h-1.42l-.48-.38v-1l3.5-5.77-3.5-5.76v-.86l.38-.5h1.5l2.92,4.78c1.42-2.24,2.14-3.38,3-4.78h1.44l.4.5v.94l-3.48,5.62c1.18,1.87,2.26,3.79,3.48,5.73v1.08Z"/><path class="cls-2" d="M126.74,50.63V37.24l.42-.42h7.9l.38.42v1.5l-.4.42h-6v3.26h5.54l.4.4v1.53l-.4.39h-5.54v4h6l.36.47v1.42l-.38.42H127.2Z"/><g id="New_Symbol_19" data-name="New Symbol 19"><path class="cls-2" d="M62.88,60.22l0,0,.18,0A2.59,2.59,0,0,0,64.71,59c.29-.46.63-.94,1-1.41s.68-1,1-1.45a22.62,22.62,0,0,0,2-4.63,18,18,0,0,1,.65-1.86,7.13,7.13,0,0,0,.53-1.58c.07-.23.44-1.09.67-1.61A10.72,10.72,0,0,0,71,45.14a20.72,20.72,0,0,0,0-3.29,7.26,7.26,0,0,0,.86-.61,6,6,0,0,0,1-2,12.73,12.73,0,0,0,.46-4.66c-.08-.6-.11-1.51-.14-2.31a11.27,11.27,0,0,0-.12-1.73c-.54-2.41-.88-4.2-.93-4.8a3,3,0,0,0-.57-1.54,1.15,1.15,0,0,0,0-.83,6.6,6.6,0,0,0-.28-.86c-.07-.19-.14-.37-.19-.52-.13-.45-.95-2.18-2-4.41-.37-.77-.68-1.44-.75-1.6-.14-.32-.77-1.25-2.23-3.37-.58-.84-1.24-1.8-1.35-2a4.45,4.45,0,0,0-1-1.1L63.28,9a13.71,13.71,0,0,0-1.39-1.71c-.44-.52-1-1.22-1.17-1.39s-.28-.41-2.07-1.8c-.84-.66-2-1.51-2.35-1.72-.12-.06-.39-.23-.74-.44C51.68-.43,50.79-.78,50.28-.67a1.12,1.12,0,0,1-.82-.15l-.15-.09a18.43,18.43,0,0,0-3.94-2,13.49,13.49,0,0,0-4.51-.9c-1,0-4,0-4.45,0l-1-.21a8.52,8.52,0,0,0-3.26.29l-.65.15-.64.15a38.78,38.78,0,0,0-5,1.4A11.41,11.41,0,0,0,23.06-.73a6.83,6.83,0,0,1-.72.43,2.06,2.06,0,0,0-1,.8.38.38,0,0,1-.12.13.67.67,0,0,1-.24.1l-.21,0a3.08,3.08,0,0,0-.35.07,3.7,3.7,0,0,0-.57.16,17.62,17.62,0,0,0-3.72,3c-.19.23-.72.75-1.19,1.21s-.85.83-1.12,1.12a12,12,0,0,0-1.38,2.27,6.54,6.54,0,0,0-1.6,1.87c-.43.9-1.2,3-1.32,3.44a31.15,31.15,0,0,0-.85,3.36,16.6,16.6,0,0,1-.59,2.45A2.27,2.27,0,0,0,8,21a.59.59,0,0,1,0,.13c-.47.51-.21,1.3,0,1.94,0,.14.12.34.14.43a21.6,21.6,0,0,0,.25,3.41c.08.47.2,1,.42,1.85.08.34.18.73.3,1.21a6.44,6.44,0,0,0,1.15,2.55c.35.54.83,1.29,1.55,2.53a26.61,26.61,0,0,0,6.36,6.44A23.23,23.23,0,0,0,25.54,45a35.26,35.26,0,0,1,4.14,1.34c5.88,2.19,11.84.51,12.28,2.47.32,1.42.56,1.51-.07,3-.35.82-2.81,2.85-5.28,5.37-3.12,3.16-6.05,6.14-6.77,7.54-1.37,2.67-1.23,7.37-1.22,7.57v.06L29.21,75l1.7,1.87.36-.09,1.85-.44a6.1,6.1,0,0,1,.76-.15,2.56,2.56,0,0,1,.4,0A16.68,16.68,0,0,0,37.36,76a2.73,2.73,0,0,0,.55-.18,7.23,7.23,0,0,1,1.27-.37c1.12-.25,2.44-.45,2.46-.45h.07l.07,0c1.16-.48,3-1.24,3.55-1.35h0l.15,0c.25,0,.59-.22,1.62-1.51a12.58,12.58,0,0,0,1.12-1.55h0l.22.13a1,1,0,0,0,.92.23,3,3,0,0,0,.52-.19,4,4,0,0,1,.67-.22,9.53,9.53,0,0,0,2.29-.75,28.16,28.16,0,0,0,3.5-2.23c.82-.62,2.69-2.09,3.47-2.86a21,21,0,0,0,2.35-2.86C62.37,61.37,62.73,60.57,62.88,60.22Zm7.37-35.58a1.9,1.9,0,0,1,.62,1.19c.06.92.62,3.53.95,5a12.69,12.69,0,0,1,.09,1.49c0,.83.06,1.77.15,2.44a11.36,11.36,0,0,1-.38,4,6.11,6.11,0,0,1-.75,1.54A11,11,0,0,1,70,41l-.33.19v.08l-.06,0-.66-.49a20.26,20.26,0,0,1-2.11-2.45,23.17,23.17,0,0,1-1-2.88,22.47,22.47,0,0,1-.3-4,18.83,18.83,0,0,0-.8-4.27l0-.15a30.34,30.34,0,0,0-1.93-4.37,35.78,35.78,0,0,0-4.06-5.15c-.45-.33-.68-.42-.92-.37l-.05,0h-.28c-.34.08-.72.46-1.3,1.08a8.18,8.18,0,0,0-1.3,2.41c-.13.35-.4,1-.64,1.53s-.4.91-.48,1.14c-.2.54-.68,1.84-.85,2.38-.09.31-.51,1.18-.84,1.87s-.47,1-.54,1.18a15,15,0,0,1-1.63,2.18,9.81,9.81,0,0,1-2.21,1.21l-.57.27-.18.06a3,3,0,0,1-1.72-.49l-.29-.14a6.5,6.5,0,0,1-1.59-1.71l-.44-.56A9.59,9.59,0,0,1,42,27.78a9.75,9.75,0,0,0-.71-1.38c-.41-.56-2.29-2.68-2.53-2.93a2.72,2.72,0,0,0-.3-.29c-.18-.17-.34-.31-.37-.46s.19-.42.34-.6.17-.22.24-.33a.12.12,0,0,1,.08,0,3,3,0,0,1,1.4.35,45.23,45.23,0,0,1,3.93,2.34,11.58,11.58,0,0,0,2.68.92l.47.13,0,0a5.23,5.23,0,0,0,1.95-.11l.27-.07c.62-.19,1.32-.9,2.12-2.16.53-.84.45-4.89.37-5.26,0-.15-.1-1-.15-1.79-.08-1-.16-2-.21-2.35a39.62,39.62,0,0,1,0-4.08h0a4.32,4.32,0,0,1,.83,0h0a16.47,16.47,0,0,1,3.13,1.45c.18.13,1.69,1.44,1.92,1.69l.88.83c.4.36.86.78,1,.9s.69.88,1.15,1.48l.74,1c.06.07.34.49.66,1a32.43,32.43,0,0,0,2.33,3.26,16,16,0,0,0,1.73,1.26l.22.16a7.71,7.71,0,0,0,1.49.65l.27.11a8.86,8.86,0,0,0,.93.26l.66.17.31.12-.25.15Zm-8-14.91a6.74,6.74,0,0,0,.7.72,8,8,0,0,1,.72.72c.09.18.36.59,1.45,2.17.79,1.14,2,2.85,2.1,3.14L68,18.13c.68,1.44,1.82,3.85,1.94,4.24.06.19.13.4.21.6l.15.42a.58.58,0,0,0-.17-.14L69.35,23a15.77,15.77,0,0,1-1.71-.58,20,20,0,0,1-2.3-1.59A11.86,11.86,0,0,1,64,19c0-.09-.06-.26-1.86-2.66-1-1.29-2.08-2.73-2.67-3.48-1.26-1.61-4.87-3.68-6.42-4.43A2.68,2.68,0,0,0,51.37,8a1.81,1.81,0,0,0-.44.19,1.08,1.08,0,0,1-.32.13h0c-.65.15-.57,1.11-.53,1.68,0,.1,0,.19,0,.25s0,.59.1,1.13c.09.88.21,2.09.19,2.41a10,10,0,0,0,.24,2.44c.09.4.15.87.21,1.33A9.86,9.86,0,0,0,51,18.63a11,11,0,0,1,0,2.4v.18a4.26,4.26,0,0,1-.85,2,2.33,2.33,0,0,1-1.22.94,4.32,4.32,0,0,1-2.16.09c-.35-.12-.69-.26-1-.38a4.9,4.9,0,0,0-.83-.3c-.26-.09-2.18-1.22-3.34-1.9l-1.45-.84a6.06,6.06,0,0,0-1.52,0l-.07,0-.44.2a2.51,2.51,0,0,1-.45.21,6.23,6.23,0,0,1-.91-.86,2.55,2.55,0,0,1,.35-.56,5.41,5.41,0,0,0,.36-.52s.09-.13.72-.28,1.2-.19,1.7-.25c.32,0,.58-.07.71-.1s1.54,0,2.61,0a27.06,27.06,0,0,0,2.71,0A6.23,6.23,0,0,0,47.72,18c.62-.37,1-1.34,1.27-3.14.22-1.57-3.54-5.83-3.58-5.86h0a42.35,42.35,0,0,1-2.6-4,.9.9,0,0,1,.45-1l.07,0a7.24,7.24,0,0,1,1.39,0c.46,0,1,0,1.72,0a21.14,21.14,0,0,1,5.24,1.44,4.94,4.94,0,0,0,.57.2c.21.08,1.68.93,3,1.71h0A12.38,12.38,0,0,1,58,8.81a8,8,0,0,0,3.71.95ZM27.85,29.3a1.61,1.61,0,0,0-.06,1.35,2.81,2.81,0,0,0,1.6,1.29c-.68.53-1.05.9-1.19.75h0l-.37-.41L26.56,31l-.6-.62a7.05,7.05,0,0,1-.63-1.08,9,9,0,0,0-.59-1.05.3.3,0,0,1,0-.24,3,3,0,0,1,.89-1.23,6.11,6.11,0,0,1,1.69-.24c.11.08.31.1.88,0S29.75,26,29.86,26l.49-.11a2.12,2.12,0,0,1,.66.64v0a1.11,1.11,0,0,1-.27.19,2.42,2.42,0,0,0-.48.33.74.74,0,0,1-.32.14A3.27,3.27,0,0,0,27.85,29.3Zm1.2,1.84-.57-1.08A7.18,7.18,0,0,0,29,28.59a4.66,4.66,0,0,1,.71-.4l.88-.42.4-.26,1.23-1,.37.23-.08.52a1,1,0,0,0-.08.42l-.34,1.55a15.35,15.35,0,0,1-2.26,2.39ZM49.43,1c.07,0,.18-.09.2-.42a2.42,2.42,0,0,0,.85,0,10,10,0,0,1,1.85.91C53.24,2,54.24,2.62,54.9,3l.78.47a49.63,49.63,0,0,1,4,3.06c.11.18.39.51,1.29,1.57.28.31.6.69.85,1L60.8,9,60,8.9A33.92,33.92,0,0,1,56,7c-.14-.11-1-.57-2.21-1.26l-1.38-.76a47.32,47.32,0,0,0-4.89-1.65L47,3.12c-.36-.12-4.54,0-4.76,0h0c-.47.11-.61.95-.64,1.31,0,.12-.05.42,1.62,2.81A28.19,28.19,0,0,0,45,9.67a28.54,28.54,0,0,1,2.82,4.43,3.57,3.57,0,0,1-.05,2.5,2.06,2.06,0,0,1-.8.72l-.45.31c-.18.13-.37.27-.5.35l-.18.05a7.56,7.56,0,0,1-2.1.1c-.34,0-3.31-.41-3.74-.37a26.55,26.55,0,0,0-2.68.42l-.16,0A2,2,0,0,0,35.9,19l-.17.2,0,0a.41.41,0,0,0-.11-.07c-.17-.15-.66-1-.46-1.37a8.87,8.87,0,0,1,2-1.44l.3-.18c.16-.11,1.35-.55,2.07-.81l.09,0a15.23,15.23,0,0,0,2.49-1.22,4.54,4.54,0,0,0,1.56-1.83c.17-.55-.43-1.45-1.07-2.32l-.24-.34c0-.06-.08-.14-.71-.64a3.33,3.33,0,0,1-.27-.29,4.65,4.65,0,0,0-.94-.79c-.2-.13-.33-.22-.43-.3a3.49,3.49,0,0,0-.83-.46c-.18-.13-.86-.62-1-.67s-1.15-.62-2-1a24,24,0,0,1-2.11-1.18l-.75-.45C33,3.6,33,3.48,33.16,3l0-.1s.06-.17.77-.49c.45-.2,1-.39,1.42-.54l.52-.19a2.84,2.84,0,0,1,.38-.1,24.33,24.33,0,0,1,3.51-.38,18.18,18.18,0,0,1,2.76.12l.12,0c.4,0,1.3.1,2,.14l1,.07a27.29,27.29,0,0,0,3.16-.41A2.72,2.72,0,0,0,49.43,1Zm-13-3.37,0,0c0-.05,0-.1.08-.16.7,0,3.41.05,4.41,0A12.39,12.39,0,0,1,45-1.72,17.42,17.42,0,0,1,48.63.15l.21.13.21.11s0,0,0,.06v0h0L49,.5c-.19,0-.46.06-.66.08l-.24,0-.1,0c-.4.06-1.6.23-2,.25A7.32,7.32,0,0,1,44.79.69c-.51-.09-1-.19-1.38-.21A10,10,0,0,1,42.2.29c-.4-.08-.77-.15-1.08-.18a13.93,13.93,0,0,0-2.63.14c-.29,0-.74.1-1.21.15L36.11.53l-.23,0a15,15,0,0,0-2.4.94L33,1.74a2.45,2.45,0,0,0-1.11,1L31.68,3a.54.54,0,0,0-.11.6A1.35,1.35,0,0,0,32,4l.32.27a4.27,4.27,0,0,0,1.7.9,2.7,2.7,0,0,1,.72.3l.48.23.76.39c.48.25.9.46,1.29.62a5.79,5.79,0,0,1,.71.34,9.5,9.5,0,0,0,.94.45l.07,0c.38.28,1.59,1.15,2.39,1.78l0,0a3.69,3.69,0,0,1,.63.89c.11.19.23.4.39.66.27.41.26.48.2.76a3.64,3.64,0,0,0-.08.64c0,.53-.12.6-.35.77a2,2,0,0,0-.38.32,6.74,6.74,0,0,1-1.44.9,3.43,3.43,0,0,0-.39.2,1.28,1.28,0,0,1-.51.12,3.29,3.29,0,0,0-.48.06,2.9,2.9,0,0,0-.47.16A18.85,18.85,0,0,0,36.2,16a10.74,10.74,0,0,0-1.2.8l-.07.05c-.17.12-.38.24-.54.34a2.53,2.53,0,0,0-.32.21,5.62,5.62,0,0,1-.85.22l-.28.06-.16,0,0,.11a3,3,0,0,1-.3.1,4.81,4.81,0,0,1-.9.1,6.19,6.19,0,0,1,.36-1.6c.11-.27,1.54-3,1.62-3.16s.64-1.5.75-1.77l0,0v0c0-.13.13-1.31.11-1.62a8.66,8.66,0,0,0-1-2.56c-.39-.63-1.83-.62-3.41-.55-.31,0-.58,0-.71,0a18.41,18.41,0,0,0-2.24.17l-.54.06a10,10,0,0,1-2.18-.41h0a.84.84,0,0,1,0-.12,5,5,0,0,0,.15-.51,3,3,0,0,1,.82-1.24l.16-.17A12.33,12.33,0,0,1,27.45,3c.68-.43,2.13-1.17,2.6-1.38s2.4-1,2.87-1.18A12.55,12.55,0,0,0,35.06-.66,10.05,10.05,0,0,0,36.4-2.37ZM22.87.84a7.28,7.28,0,0,0,.88-.51A10.12,10.12,0,0,1,26.2-.87a38,38,0,0,1,4.89-1.36l.65-.15.64-.15a7.7,7.7,0,0,1,2.73-.28l.46.09a6,6,0,0,1-.55.86,3.67,3.67,0,0,1-.9.74,4,4,0,0,0-.38.24,3.84,3.84,0,0,1-1.31.48l-.22.05L32-.31a10.83,10.83,0,0,0-1.5.57l-.62.27-.33.13c-.64.24-1.71.66-2.22.89a8.92,8.92,0,0,0-1.56,1.08l-.18.14c-.26.2-.77.68-1.1,1l-.21.2a6.67,6.67,0,0,0-.74,1.09l-.27.42a3,3,0,0,0-.34,1.29c0,.41.67.75,1.16.82a22.74,22.74,0,0,0,2.43.11c.22,0,.58-.07,1-.12l.9-.12a15.15,15.15,0,0,1,1.79-.12h.25a5.18,5.18,0,0,1,2,.21c.61.22.66.38.91,1.13.06.18.13.38.22.62.28.76.23.9.13,1.22a3.66,3.66,0,0,0-.17.81,2.12,2.12,0,0,1-.33,1.13c-.06.11-.14.22-.22.39-.3.64-.85,1.8-1.12,2.4a4.29,4.29,0,0,1-.36.64,1.78,1.78,0,0,0-.37.86h0A8,8,0,0,1,31,18.22a2.2,2.2,0,0,1-.77.74c0-.2-.07-.55-.09-.81s0-.46-.07-.66a8,8,0,0,1,.35-2.23.69.69,0,0,0,0-.17c0-.14.13-1,.19-1.53a5.24,5.24,0,0,0-.7-3.09c-.78-1.24-3-1.26-3.56-1.15h0a31.37,31.37,0,0,0-4,2,11.53,11.53,0,0,1-2.23,1,1.26,1.26,0,0,1-1.31-.26c-.36-.31-.32-.87-.28-1.42a4,4,0,0,0,0-.59A10.52,10.52,0,0,1,20,7.29c.12-.18.21-.31.26-.4a18.87,18.87,0,0,1,1.73-2,5.91,5.91,0,0,0,.93-2c.07-.38-.39-1.12-.67-1.53a2,2,0,0,0,.16-.21C22.44,1.09,22.49,1,22.87.84ZM14.73,7.19c.24-.26.66-.67,1.07-1.07s1.05-1,1.28-1.3a18.12,18.12,0,0,1,3.19-2.64c.13-.05.26-.08.4-.12L21,2l.27,0a2,2,0,0,0,.49-.18v0a1.1,1.1,0,0,1,.24.51,2.58,2.58,0,0,1,.09.63,4.33,4.33,0,0,1-.47,1.13,10.16,10.16,0,0,1-1,1c-.28.29-.78.94-1.22,1.52-.18.25-.35.48-.47.63a9.54,9.54,0,0,0-.89,1.63c-.08.19-.16.36-.22.47a7.59,7.59,0,0,0-.57,2c0,.08-.29,2,.48,2.23a1.69,1.69,0,0,0,.92,0l.19,0,.21-.05.36-.07a5.9,5.9,0,0,0,1.95-.88l.13-.08c.3-.19.72-.41,1.16-.64l1.14-.61A22.15,22.15,0,0,1,26.59,10l.17-.05a1.68,1.68,0,0,1,.75,0,1.27,1.27,0,0,0,.26,0,2.6,2.6,0,0,1,1.25.55,3.2,3.2,0,0,1,.67,1.17l.09.21a3.35,3.35,0,0,1,.1,1.13,3,3,0,0,0,0,.47,2.84,2.84,0,0,1-.08,1.21c-.07.24-.11.47-.16.72s-.13.6-.24,1a1.94,1.94,0,0,0-.07,1.17c0,.14,0,.29.07.5a4,4,0,0,0,.19.94c0,.09.06.17.09.29a1.3,1.3,0,0,0,0,.15l0,0a2.65,2.65,0,0,0-.26.28c-.16.19-.21.22-.22.22L29.06,20l-.17-.07a3.23,3.23,0,0,1-.64-1.29,3.43,3.43,0,0,0-.16-.39,7.45,7.45,0,0,1-.25-1c0-.14-.05-.27-.07-.35-.21-.92-.57-2.51-.69-2.81a2.46,2.46,0,0,0-2.24-1.62,4.24,4.24,0,0,0-1,.09,2.25,2.25,0,0,0-1.06.52l-.06.05a9.17,9.17,0,0,0-1.43,1.41c-.25.36-.62.81-.89,1.14l-.16.19c-.28.35-1.25,1.66-1.47,2a13.62,13.62,0,0,1-1.4,1.5,1.29,1.29,0,0,1-.65.4l-.26,0c-.2,0-.44,0-.89-.88a10.91,10.91,0,0,1-.41-3.67c0-.28.15-.87.26-1.39s.19-.91.22-1.16l0-.22a10.9,10.9,0,0,0,.07-2.35,1.67,1.67,0,0,0-1.34-1.59h0a1.85,1.85,0,0,0-.44,0A8.26,8.26,0,0,1,14.73,7.19ZM10.17,18.45a3.63,3.63,0,0,0-.5.17c.11-.45.18-.84.23-1.18a32.25,32.25,0,0,1,.8-3.15c.13-.41.89-2.49,1.26-3.27A5.6,5.6,0,0,1,13.32,9.5l.11-.09.06-.13.09-.19h0a2.2,2.2,0,0,1,.45,0l.38,0a2.37,2.37,0,0,1,.59,1A2.23,2.23,0,0,1,15,11.36c-.05.2-.09.46-.14.73a10.12,10.12,0,0,1-.26,1.2A10.32,10.32,0,0,0,14.31,15c0,.33-.06.63-.09.77a7.94,7.94,0,0,0,.09,1.79,2.36,2.36,0,0,0,0,.26A13,13,0,0,0,15,20a1,1,0,0,0,.31.43,1,1,0,0,1,.22.2.75.75,0,0,0,.81.32l.32,0a.86.86,0,0,0,.17,0c.44-.1.68-.48.92-.85a2.74,2.74,0,0,1,.3-.43l.27-.32c.47-.54,1.17-1.36,1.55-1.86l.42-.55a16.74,16.74,0,0,0,1.23-1.69A6.29,6.29,0,0,1,23,13.6a3.11,3.11,0,0,1,1.27-.6l.28-.05a3.94,3.94,0,0,1,1,.25,2,2,0,0,1,.48.46l.19.22a2,2,0,0,1,.35.91l0,.12c.27,1.22.36,1.71.38,1.91a7.86,7.86,0,0,0,.64,1.9c.07.14.16.31.24.48a7.28,7.28,0,0,0,.4.8,5.61,5.61,0,0,1,.49.95.39.39,0,0,1,0,.06.75.75,0,0,1-.24.1,1.36,1.36,0,0,0-.33.14l-.05,0c-.08,0-.27-.09-.5-.23l-.25-.14a4.85,4.85,0,0,1-1.13-1.13c-.11-.14-.2-.26-.29-.36l-.52-.6c-.54-.63-.93-1.09-1.09-1.23a4.77,4.77,0,0,0-1.87-.42,1.17,1.17,0,0,0-.32,0,3,3,0,0,0-1.09.62h0A4.75,4.75,0,0,0,20,19.28a4.37,4.37,0,0,0-.43,1.36v0c-.06.31-.1.68-.15,1.06,0,.22-.05.44-.08.66l-.06.53a6.13,6.13,0,0,1-.2,1.2,6.58,6.58,0,0,1-.28.79,7.39,7.39,0,0,0-.34,1,1.51,1.51,0,0,1-.76,1l-.1.06c-.12,0-.51-.27-.75-.44a6.64,6.64,0,0,0-.78-.53,3.12,3.12,0,0,1-1.21-1.49l0-.1A11.35,11.35,0,0,1,14.1,22a10.33,10.33,0,0,0-1.24-3c-.54-.79-1.39-.83-2.5-.65Zm-.46,5.49,0,0a.47.47,0,0,0-.23-.13v-.1c.07-.31-.13-.62-.27-1a3.71,3.71,0,0,1-.12-.77,1.22,1.22,0,0,0,.23-1.1c0-.13.05-.27.08-.41s.09-.27.13-.39a.83.83,0,0,1,0-.12,1.35,1.35,0,0,1,.13-.31,1.62,1.62,0,0,0,.1-.3c0-.06.12-.11.26-.14a2.63,2.63,0,0,1,.89,0,1.56,1.56,0,0,1,.61.21,2.83,2.83,0,0,0,.63.25l.13,0h0a1.21,1.21,0,0,0,.32.77A3.82,3.82,0,0,1,13.18,22c.05.26.1.52.17.79a12.86,12.86,0,0,0,.72,2,8.25,8.25,0,0,0,1.13,1.72,7.13,7.13,0,0,0,1.7,1.3,1.48,1.48,0,0,0,1.1.26l.15,0a.59.59,0,0,1,.17,0h.07c.38-.09.55-.63.71-1.16l.08-.25a16.68,16.68,0,0,0,.78-3,22.5,22.5,0,0,1,.72-4A2.54,2.54,0,0,1,22,18.09l.21-.13.14-.09h0a1.71,1.71,0,0,0,.67,0,1.92,1.92,0,0,1,1.29.54.48.48,0,0,0,.11.08l.06.09a5,5,0,0,0,.45.61,3.2,3.2,0,0,1,.34.45,3.23,3.23,0,0,0,.33.41l.36.41c.16.17.29.33.43.47a2.28,2.28,0,0,1,.22.22,5.24,5.24,0,0,0,.58.55,2.52,2.52,0,0,0,.83.47c.08,0,.08,0,.1.12a.7.7,0,0,0,.11.29,1.82,1.82,0,0,1,.25.58l.15.66h0a5.68,5.68,0,0,1-1.18-.3l-.16-.05c-.21-.06-.83-.34-1.33-.57l-.84-.37a4.73,4.73,0,0,0-.73-.17,1.15,1.15,0,0,0-.37-.06,5.24,5.24,0,0,0-1.14-.06l-.09,0c-.56.12-1,.73-1.3,1.13l-.07.1a2.58,2.58,0,0,0-.32,1.4c0,.1,0,.19,0,.25a6.83,6.83,0,0,0,.2,1.61v0a5.22,5.22,0,0,0,.38,1.09,5.36,5.36,0,0,1,.21.57c.06.23.19.62.32,1s.21.63.29.91a2.24,2.24,0,0,1,0,1.2,2.68,2.68,0,0,0-.05.3c0,.24-.09.26-.29.31a1.78,1.78,0,0,0-.39.17.46.46,0,0,1-.14.05,4.34,4.34,0,0,1-1.46-.15,3.38,3.38,0,0,1-1.07-.45c-.17-.09-.36-.2-.59-.31a5.73,5.73,0,0,1-1.34-1.19,5.25,5.25,0,0,0-.55-.54c-.25-.18-.92-.83-1.27-1.18l-.22-.21a10.57,10.57,0,0,0-.85-.64c-.28-.2-.57-.4-.66-.48S12.12,26,11.8,25.69,9.86,24.05,9.71,23.94Zm1.67,7.87a5.17,5.17,0,0,1-1-2.17c-.11-.48-.21-.88-.3-1.21-.21-.86-.33-1.33-.4-1.76,0-.12,0-.28-.06-.47l.35,0a1.7,1.7,0,0,1,.83.19,4,4,0,0,0,.72.26,2.41,2.41,0,0,1,1.05.69c.15.14.3.28.47.41.51.36,2.13,1.64,2.22,1.72l1.87,1.84c.17.18,2,1.51,2.34,1.7a9.36,9.36,0,0,0,1.85.65,2.72,2.72,0,0,0,1.27,0,2.08,2.08,0,0,0,.48-.16c.63-.31.53-1.32.49-1.62s-.24-1.11-.41-1.84c-.12-.49-.23-.95-.24-1.06a12,12,0,0,0-.49-1.37c-.14-.39-.31-.83-.33-.92a13.09,13.09,0,0,1-.31-2.22,3.07,3.07,0,0,1,.85-1.37,2.26,2.26,0,0,1,.52-.19,5.94,5.94,0,0,1,.75-.09H24l.28.05a1.87,1.87,0,0,1,.35.17,3.45,3.45,0,0,0,.34.19l1.15.47c.33.12,1.12.47,1.2.52a4.75,4.75,0,0,0,.89.28c.28.07.65.18.75.22l0,0a.22.22,0,0,1,.1.13.43.43,0,0,1,0,.26c0,.08,0,.19-.05.33a.66.66,0,0,0-.2.11.48.48,0,0,1-.23.11,4.2,4.2,0,0,1-.44,0H28l-.29,0c-.39,0-1,.07-1.28.13s-.71.16-1.15.28-.45.22-.52.39a.63.63,0,0,1-.11.15,1.24,1.24,0,0,0-.32.51.77.77,0,0,1-.07.16,3.08,3.08,0,0,0-.05,1.21c0,.09,0,.18,0,.21s.07.33.47,1.12l.05.08c.07.13.61,1,.72,1.12l0,0,2,2A31.1,31.1,0,0,0,25,35.18a13.58,13.58,0,0,0-1.72,2.16s-1.33.87-1.91.44a50.43,50.43,0,0,0-5-2.9,7.21,7.21,0,0,0-2.23-.49,1.68,1.68,0,0,0-.8.54,6.39,6.39,0,0,1-.36-.55C12.22,33.12,11.73,32.36,11.38,31.81ZM19,40.42A26.61,26.61,0,0,1,14.16,36h0c.39-.51,1.1-.16,1.62-.13a7.82,7.82,0,0,1,2.55.77c.91.46,2.4,2.19,3,2.22s.61.52,1.45,0a.52.52,0,0,1,0,.11c0,.15-.06.3-.08.46h0a7.78,7.78,0,0,0-.06,1.48,3.35,3.35,0,0,0,1,1.87c-.1.18-.19.31-.33.35l-.2-.09a4.49,4.49,0,0,0-.9-.43A26.72,26.72,0,0,1,19,40.42Zm26.21,31.9-.11,0c-.72.17-3.16,1.17-3.68,1.38-.31,0-1.45.24-2.46.46a7.84,7.84,0,0,0-1.53.46l-.3.09a15.94,15.94,0,0,1-2.79.16,3.87,3.87,0,0,0-.5,0,5.44,5.44,0,0,0-.85.16,6.18,6.18,0,0,1-2.34-.44l-.16-.18h0a10.88,10.88,0,0,1-.18-3.14c0-.36.06-.71.1-1,.25-.77.58-1.69,1-2.58.31-.32.65-.69,1-1.08a16.62,16.62,0,0,1,2.54-2.46l.4-.24.12-.06a43,43,0,0,0,5.94-3.38l.4-.38c1.43-1.34,5.23-4.87,6.13-6.38a11.36,11.36,0,0,1,1-1.3c1-1.24,2.15-2.64,1.08-4.18-.51-.73-2.12-1.31-4.92-1.76a1.13,1.13,0,0,0-.73-.13h-.07l-.83-.11c-1.42-.17-3.83-.41-7.25-.54a30.87,30.87,0,0,1-6.22-1.13c-2.76-.81-4.89-1.64-5.1-2.59-.67-3,.44-4.37,1.11-4.93s1.34-1.23,2.11-2l.74-.7.13.14v-.25c.31-.28.57-.53.77-.7l.41-.33a26.93,26.93,0,0,0,2.36-2.1,8,8,0,0,0,1.84-2.66,1.36,1.36,0,0,1,.67.09s.13.19,0,1A10.46,10.46,0,0,1,34.53,31a43.68,43.68,0,0,1-2.47,4.68,5.79,5.79,0,0,0-.62,4.74c.34,1.63,2.3,2.48,3.59,3.05l.29.13c1.49.66,6.5.09,6.55.08l.2,0c.9-.2,3.58-1.12,5-1.61.48-.16.86-.3,1-.32h0a69.75,69.75,0,0,1,7.17-.59c.45.11.78.93.81,2.06a22,22,0,0,1-1.17,5.21,12.13,12.13,0,0,1-1.07,2.13c-.2.35-.4.68-.57,1a27.47,27.47,0,0,1-2.06,2.91h0a59.32,59.32,0,0,0-2.59,6l-.29.72c-.52,1.29-.29,4.77-.21,5.14a10.31,10.31,0,0,1,.29,1.59,4.31,4.31,0,0,1-.47.81,2.08,2.08,0,0,0-.15.25l-.25-.08-.18.62a3,3,0,0,1-.19.46A16.16,16.16,0,0,1,45.16,72.32Zm13.78-8.63c-.67.66-2.4,2-3.34,2.76a28.17,28.17,0,0,1-3.29,2.09,7.54,7.54,0,0,1-2,.65,5,5,0,0,0-.86.3l-.25.09a1.71,1.71,0,0,0-.35-.21l.22-.16c.45-.35.39-1.2.14-1.9-.13-.38-.26-.9-.37-1.39-.06-.26-.12-.51-.18-.72a10.23,10.23,0,0,1,.63-2.81c.1-.35.2-.66.25-.85.17-.7,2.46-5.7,2.62-6,0-.08.3-.51.63-1,.83-1.37,2.37-3.91,3.47-6,1.74-3.25,1.24-7.77,1.24-7.81-.1-.91-1.35-1.43-2-1.57a5.9,5.9,0,0,0-2,.29c-1.94.44-4.62,1.18-4.83,1.25s-5,1.49-5.44,1.59a46.94,46.94,0,0,1-5.65.32,12.19,12.19,0,0,1-4-1.35c-1-.71-1.23-2-1.34-3.24-.06-.76.82-2.19,1.4-3.14a7.77,7.77,0,0,0,.55-1c.09-.22.32-.75.59-1.36.6-1.39,1.07-2.47,1.14-2.78a6.64,6.64,0,0,0,0-1.17,6,6,0,0,1,0-1.28,1.39,1.39,0,0,1,.91-.59s.2.09.44.65a6.25,6.25,0,0,1,.35,1.08,19.57,19.57,0,0,1,.19,2.66c0,.19,0,.91,0,2.06,0,.61,0,1.18,0,1.37a12.13,12.13,0,0,0,.95,3.18c.42,1,2.09,1.61,2.72,1.85l.06,0a5.26,5.26,0,0,0,2.55.05l.23-.06A26.37,26.37,0,0,0,49,36.72c.45-.39,4.24-3.23,6.4-4.85a14.51,14.51,0,0,1,3.9-2c.06,0,.25,0,.74.85l.14.21c.14.29,1,2.94,1,3.28s.27,2.67.26,3.05c0,.1,0,.32,0,.6,0,.77-.07,2.07-.1,2.46a21.35,21.35,0,0,1-.6,2.23c-.12.39-.22.7-.25.85a17.42,17.42,0,0,1-1.06,2.94c-.34.65-.53,2.57-.57,5.72v.13a5.36,5.36,0,0,0,.42,1.64c.11.32.22.62.26.81a14.7,14.7,0,0,0,.79,2.07c.18.43.35.83.41,1a11.35,11.35,0,0,0,1,1.72l0,.1c-.14.33-.54,1.24-.72,1.57A20.73,20.73,0,0,1,58.94,63.69Zm3.89-4.76-.13,0-.2,0v0l-.19-.19a7.2,7.2,0,0,1-.89-1.54c-.13-.34-1.55-4.4-1.65-5.17a36.17,36.17,0,0,1,.54-4.85c.12-.26,1.15-2.72,1.25-3s.28-1.06.63-2.45c.26-1.05.56-2.23.6-2.34h0a16.28,16.28,0,0,0,0-2.19c-.07-1.06-.2-2.66-.47-4.31a7.32,7.32,0,0,0-1.34-3.38,2.4,2.4,0,0,0-1.59-1.06l-.29,0a9.85,9.85,0,0,0-2.42,1.26L54.88,31l-1.53,1.11c-.31.21-3.11,2.39-3.42,2.73a33.88,33.88,0,0,1-3.22,2.44,30.3,30.3,0,0,1-3.34,1.2h-.06a2.82,2.82,0,0,1-1.22,0l-.5-.08a4.55,4.55,0,0,1-2.51-2,7.6,7.6,0,0,1-.46-2.81,21.79,21.79,0,0,0-.08-3c0-.69-.08-1.46-.07-1.57a5,5,0,0,0-.41-1.46c-.09-.26-.18-.51-.21-.61a6.51,6.51,0,0,0-1.12-1.55l.1-.35.65-.75a4,4,0,0,1,.82.18c.14.12,1,1.09,1.1,1.21s1.65,2.37,1.75,2.61,1.14,2.07,1.31,2.31A12.21,12.21,0,0,0,45.4,33.1a2.83,2.83,0,0,0,2,.16,8.61,8.61,0,0,0,1.53-.55l.23-.1a14.72,14.72,0,0,0,2.94-2.79c.26-.37,1.71-4.24,1.82-4.59s1.24-2.95,1.39-3.15.33-.54.75-1.24,1-1.67,1.09-1.81a1.39,1.39,0,0,1,.92-.37c.22,0,.8.64,1.14,1,.19.22.38.44.56.63a25.88,25.88,0,0,1,2.66,4.07,40.61,40.61,0,0,1,1.68,5.1,15.13,15.13,0,0,1,.39,3.23c-.09.2,0,.52.15,1.25A20.13,20.13,0,0,1,65,36.05a8.49,8.49,0,0,0,1.8,3.7c.1.14.19.26.26.37a8.64,8.64,0,0,0,2.08,1.69l.17.09.35-.37h0c.08,1.4.13,3,.1,3.31-.05.15-.29.69-.46,1.09a8.51,8.51,0,0,0-.76,2c-.05.18-.28.78-.45,1.23a15.79,15.79,0,0,0-.72,2.1,23.5,23.5,0,0,1-1.78,4.18c-.29.45-.63.93-1,1.4s-.69,1-1,1.45A1.32,1.32,0,0,1,62.83,58.93Z"/></g></svg>
