<svg id="stevnsfort" xmlns="http://www.w3.org/2000/svg" width="55mm" height="35mm" viewBox="0 0 155.91 99.21">
  <defs>
    <style>
      .cls-1 {
        fill: #e66126;
      }

      .cls-2 {
        fill: #fff;
      }
    </style>
  </defs>
  <title>kalklandet-sidebar-desktop</title>
  <rect class="cls-1" x="-6.12" y="-0.1" width="162.47" height="99.42"/>
  <polygon class="cls-2" points="75.17 17.21 135.74 17.21 136.43 17.8 136.43 21.57 110.62 43.35 110.62 46.25 136.43 68.03 136.43 71.81 135.74 72.39 75.17 72.39 74.49 71.81 74.49 17.8 75.17 17.21"/>
  <g>
    <path class="cls-2" d="M76.15,77l.18.23v3.22h.39L79.06,77h1.17l.18.17v.6l-2.16,3.33v.16l2.25,3.11V85l-.19.2H79.12l-2.2-3h-.59V85l-.18.17H74.93L74.76,85V77.19l.17-.17Z"/>
    <path class="cls-2" d="M95.89,77l.18.23v3.22h.39L98.8,77H100l.18.17v.6L98,81.12v.16l2.25,3.11V85l-.19.2H98.86l-2.2-3h-.59V85l-.18.17H94.67L94.5,85V77.19l.17-.17Z"/>
    <path class="cls-2" d="M87.83,85.2H86.28l-.4-1.91H83.11l-.4,1.91H81.15v-.27L83,77H86l1.81,7.89Zm-2.28-3.4-.68-3.38h-.75l-.69,3.38Z"/>
    <path class="cls-2" d="M93.49,83.75V85l-.23.17H88.87L88.7,85V77.2l.18-.18h1.28l.18.17v6.4h3Z"/>
    <path class="cls-2" d="M110.28,77h-2.21l-1.73,8.09v.09h1l.5-2.3h2.77l.49,2.3h1v-.1c-.58-2.69-1.16-5.39-1.72-8.08ZM108,82l.86-4.13h.67l.86,4.13Z"/>
    <path class="cls-2" d="M122.31,77h-2.64l-.1.09v8a.73.73,0,0,0,.08.09h2.7a2,2,0,0,0,2-2.19V79.19a2,2,0,0,0-2-2.18Zm1.17,6c0,1.07-.65,1.29-1.09,1.29h-1.94V78h1.93c.44,0,1.1.22,1.1,1.29Z"/>
    <path class="cls-2" d="M118,77h-.76l-.09.08v6.64l-.18-.58L114.2,77h-1.09l-.09.09v8l.09.09h.77l.08-.09V78.51l.16.53,2.77,6.14H118l.08-.1v-8Z"/>
    <path class="cls-2" d="M133.93,85.19l.08-.09V78h1.86l.11-.11v-.83l-.07-.08h-4.63l-.08.09V78l.08.08h1.79v7.16Z"/>
    <path class="cls-2" d="M105.74,84.2H102.4V77.1l-.05-.09h-.86l-.07.09v8l.07.09h4.25l.07-.09v-.81Z"/>
    <g>
      <polygon class="cls-2" points="125.66 80.46 125.66 81.61 129.81 81.61 129.89 81.51 129.89 80.55 129.81 80.46 125.66 80.46"/>
      <polygon class="cls-2" points="125.66 84.08 125.66 85.07 125.77 85.19 130.06 85.19 130.13 85.1 130.13 84.19 130.05 84.08 125.66 84.08"/>
      <polygon class="cls-2" points="130.03 77 125.72 77 125.64 77.08 125.64 78.15 126.48 78.15 126.48 78.15 130.02 78.15 130.1 78.06 130.1 77.08 130.03 77"/>
    </g>
  </g>
</svg>
