<?xml version="1.0" encoding="utf-8"?>
<!-- Generator: Adobe Illustrator 23.0.2, SVG Export Plug-In . SVG Version: 6.00 Build 0)  -->
<svg version="1.1" id="stevnsfort" xmlns="http://www.w3.org/2000/svg" xmlns:xlink="http://www.w3.org/1999/xlink" x="0px" y="0px"
	 viewBox="0 0 155.9 99.2" style="enable-background:new 0 0 155.9 99.2;" xml:space="preserve">
<style type="text/css">
	.st0{fill:#B5A984;}
	.st1{fill:#FFFFFF;}
</style>
<title>kalklandet-sidebar-desktop</title>
<rect x="-6.1" y="-0.1" class="st0" width="162.5" height="99.4"/>
<polygon class="st1" points="75.2,17.2 135.7,17.2 136.4,17.8 136.4,21.6 110.6,43.4 110.6,46.3 136.4,68 136.4,71.8 135.7,72.4
	75.2,72.4 74.5,71.8 74.5,17.8 "/>
<g>
	<path class="st1" d="M76.1,77l0.2,0.2v3.2h0.4L79,77h1.2l0.2,0.2v0.6l-2.2,3.3v0.2l2.2,3.1V85l-0.2,0.2H79l-2.2-3h-0.6V85L76,85.2
		h-1.2l0-0.2v-7.8L75,77H76.1z"/>
	<path class="st1" d="M95.9,77l0.2,0.2v3.2h0.4l2.3-3.4h1.2l0.2,0.2v0.6L98,81.1v0.2l2.2,3.1V85l-0.2,0.2h-1.2l-2.2-3H96V85
		l-0.2,0.2h-1.2L94.5,85v-7.8l0.2-0.2H95.9z"/>
	<path class="st1" d="M87.8,85.2h-1.5l-0.4-1.9h-2.8l-0.4,1.9h-1.6v-0.3L83,77h3l1.8,7.9V85.2z M85.5,81.8l-0.7-3.4h-0.7l-0.7,3.4
		H85.5z"/>
	<path class="st1" d="M93.5,83.8V85l-0.2,0.2h-4.4L88.7,85v-7.8l0.2-0.2h1.3l0.2,0.2v6.4h3L93.5,83.8z"/>
	<path class="st1" d="M110.3,77h-2.2l-1.7,8.1v0.1h1l0.5-2.3h2.8l0.5,2.3h1v-0.1C111.5,82.4,110.9,79.7,110.3,77L110.3,77z M108,82
		l0.9-4.1h0.7l0.9,4.1H108z"/>
	<path class="st1" d="M122.3,77h-2.6l-0.1,0.1v8l0.1,0.1h2.7c1.1,0,2-0.9,2-2c0-0.1,0-0.1,0-0.2v-3.8c0.1-1.1-0.7-2.1-1.8-2.2
		C122.5,77,122.4,77,122.3,77L122.3,77z M123.5,83c0,1.1-0.6,1.3-1.1,1.3h-1.9V78h1.9c0.4,0,1.1,0.2,1.1,1.3V83z"/>
	<path class="st1" d="M118,77h-0.8l-0.1,0.1v6.6l-0.2-0.6l-2.8-6.1H113l-0.1,0.1v8l0.1,0.1h0.8l0.1-0.1v-6.6l0.2,0.5l2.8,6.1h1.1
		l0.1-0.1L118,77L118,77z"/>
	<path class="st1" d="M133.9,85.2L133.9,85.2L134,78h1.9l0.1-0.1v-0.8l-0.1-0.1h-4.6l-0.1,0.1V78l0.1,0.1h1.8v7.2L133.9,85.2z"/>
	<path class="st1" d="M105.7,84.2h-3.3v-7.1l-0.1-0.1h-0.9l-0.1,0.1v8l0.1,0.1h4.2l0.1-0.1L105.7,84.2L105.7,84.2z"/>
	<g>
		<polygon class="st1" points="125.7,80.5 125.7,81.6 129.8,81.6 129.9,81.5 129.9,80.6 129.8,80.5 		"/>
		<polygon class="st1" points="125.7,84.1 125.7,85.1 125.8,85.2 130.1,85.2 130.1,85.1 130.1,84.2 130,84.1 		"/>
		<polygon class="st1" points="130,77 125.7,77 125.6,77.1 125.6,78.2 126.5,78.2 126.5,78.2 130,78.2 130.1,78.1 130.1,77.1 		"/>
	</g>
</g>
</svg>
