<?xml version="1.0" encoding="utf-8"?>
<!-- Generator: Adobe Illustrator 23.0.3, SVG Export Plug-In . SVG Version: 6.00 Build 0)  -->
<svg version="1.1" id="Layer_1" xmlns="http://www.w3.org/2000/svg" xmlns:xlink="http://www.w3.org/1999/xlink" x="0px" y="0px"
	 viewBox="0 0 300 68" style="enable-background:new 0 0 300 68;" xml:space="preserve">
<style type="text/css">
	.st0{fill:#FE6400;}
	.st1{fill:#FFFFFF;}
</style>
<title>Artboard 2</title>
<rect x="-10.5" y="-4.8" class="st0" width="329" height="79.3"/>
<polygon class="st1" points="18.5,11.8 58.9,11.8 59.4,12.2 59.4,15.2 42.2,32.5 42.2,34.7 59.4,52 59.4,54.9 58.9,55.4 18.5,55.4
	18.1,54.9 18.1,12.2 "/>
<path class="st1" d="M77.7,26.5l0.3,0.4v5.7h0.7l4.5-6.1h2.2l0.3,0.3v1.1l-4.1,5.9v0.3l4.3,5.4v1.1L85.7,41h-2.3l-4.2-5.3h-1.1v5
	L77.8,41h-2.4l-0.3-0.3V26.8l0.3-0.3H77.7z"/>
<path class="st1" d="M115.4,26.5l0.3,0.4v5.7h0.7l4.5-6.1h2.2l0.3,0.3v1.1l-4.1,5.9v0.3l4.3,5.4v1.1l-0.4,0.3H121l-4.2-5.3h-1.1v5
	l-0.3,0.3H113l-0.3-0.3V26.8l0.3-0.3H115.4z"/>
<path class="st1" d="M100,41h-3l-0.8-3.4H91L90.2,41h-3v-0.5l3.5-14h5.8l3.4,14L100,41L100,41z M95.7,35l-1.3-6H93l-1.3,6H95.7z"/>
<path class="st1" d="M110.8,38.5v2.3l-0.4,0.3H102l-0.3-0.3v-14l0.3-0.3h2.4l0.3,0.3v11.4h5.6L110.8,38.5z"/>
<path class="st1" d="M142.8,26.5h-4.2l-3.3,14.4V41h1.8l0.9-4.1h5.3l0.9,4.1h1.8v-0.2C145,36.1,143.9,31.3,142.8,26.5L142.8,26.5z
	 M138.4,35.3L140,28h1.3l1.6,7.3H138.4z"/>
<path class="st1" d="M165.7,26.5h-5l-0.2,0.2v14.2c0,0,0.1,0.2,0.2,0.2h5.1c2,0.1,3.7-1.5,3.8-3.5c0-0.1,0-0.3,0-0.4v-6.8
	c0.1-2-1.4-3.8-3.5-3.9C166,26.5,165.9,26.5,165.7,26.5L165.7,26.5z M168,37.1c0.2,1.1-0.6,2.1-1.7,2.3c-0.1,0-0.3,0-0.4,0h-3.7
	V28.2h3.7c1.1-0.1,2.1,0.8,2.1,1.9c0,0.1,0,0.3,0,0.4L168,37.1L168,37.1z"/>
<path class="st1" d="M157.5,26.5h-1.4l-0.2,0.1v11.8l-0.4-1l-5.3-10.9h-2.1l-0.2,0.2v14.2l0.2,0.2h1.5l0.1-0.2V29.1L150,30l5.3,10.9
	h2.1l0.1-0.2V26.6L157.5,26.5z"/>
<path class="st1" d="M187.9,41l0.2-0.2V28.3h3.6l0.2-0.2v-1.5l-0.1-0.1H183l-0.1,0.2v1.5l0.1,0.1h3.4V41H187.9z"/>
<path class="st1" d="M134.1,39.2h-6.4V26.6c0-0.1-0.1-0.1-0.1-0.2H126l-0.1,0.2v14.2L126,41h8.1l0.1-0.2v-1.4L134.1,39.2z"/>
<polygon class="st1" points="172.1,32.6 172.1,34.6 180,34.6 180.2,34.5 180.2,32.8 180,32.6 "/>
<polygon class="st1" points="172.1,39 172.1,40.8 172.3,41 180.5,41 180.6,40.8 180.6,39.2 180.5,39 "/>
<polygon class="st1" points="180.4,26.5 172.2,26.5 172.1,26.6 172.1,28.5 173.7,28.5 173.7,28.5 180.4,28.5 180.6,28.3 180.6,26.6
	"/>
</svg>
