<?xml version="1.0" encoding="utf-8"?>
<!-- Generator: Adobe Illustrator 23.0.2, SVG Export Plug-In . SVG Version: 6.00 Build 0)  -->
<svg version="1.1" id="Layer_1" xmlns="http://www.w3.org/2000/svg" xmlns:xlink="http://www.w3.org/1999/xlink" x="0px" y="0px"
	 viewBox="0 0 300 68" style="enable-background:new 0 0 300 68;" xml:space="preserve">
<style type="text/css">
	.st0{fill:#B5A984;}
	.st1{fill:#FFFFFF;}
</style>
<title>Artboard 2</title>
<rect x="-10.5" y="-4.8" class="st0" width="329" height="79.3"/>
<polygon class="st1" points="18.5,11.8 58.9,11.8 59.4,12.2 59.4,15.2 42.2,32.5 42.2,34.7 59.4,52 59.4,54.9 58.9,55.4 18.5,55.4
	18.1,54.9 18.1,12.2 "/>
<path class="st1" d="M69.7,40.5l0.3,0.4v5.7h0.7l4.5-6.1h2.2l0.3,0.3v1.1l-4.1,5.9v0.3l4.3,5.4v1.1L77.7,55h-2.3l-4.2-5.3h-1.1v5
	L69.8,55h-2.4l-0.3-0.3V40.8l0.3-0.3H69.7z"/>
<path class="st1" d="M107.4,40.5l0.3,0.4v5.7h0.7l4.5-6.1h2.2l0.3,0.3v1.1l-4.1,5.9v0.3l4.3,5.4v1.1l-0.4,0.3H113l-4.2-5.3h-1.1v5
	l-0.3,0.3H105l-0.3-0.3V40.8l0.3-0.3H107.4z"/>
<path class="st1" d="M92,55h-3l-0.8-3.4H83L82.2,55h-3v-0.5l3.5-14h5.8l3.4,14L92,55L92,55z M87.7,49l-1.3-6H85l-1.3,6H87.7z"/>
<path class="st1" d="M102.8,52.5v2.3l-0.4,0.3H94l-0.3-0.3v-14l0.3-0.3h2.4l0.3,0.3v11.4h5.6L102.8,52.5z"/>
<path class="st1" d="M134.8,40.5h-4.2l-3.3,14.4V55h1.8l0.9-4.1h5.3l0.9,4.1h1.8v-0.2C137,50.1,135.9,45.3,134.8,40.5L134.8,40.5z
	 M130.4,49.3L132,42h1.3l1.6,7.3H130.4z"/>
<path class="st1" d="M157.7,40.5h-5l-0.2,0.2v14.2c0,0,0.1,0.2,0.2,0.2h5.1c2,0.1,3.7-1.5,3.8-3.5c0-0.1,0-0.3,0-0.4v-6.8
	c0.1-2-1.4-3.8-3.5-3.9C158,40.5,157.9,40.5,157.7,40.5L157.7,40.5z M160,51.1c0.2,1.1-0.6,2.1-1.7,2.3c-0.1,0-0.3,0-0.4,0h-3.7
	V42.2h3.7c1.1-0.1,2.1,0.8,2.1,1.9c0,0.1,0,0.3,0,0.4L160,51.1L160,51.1z"/>
<path class="st1" d="M149.5,40.5h-1.4l-0.2,0.1v11.8l-0.4-1l-5.3-10.9h-2.1l-0.2,0.2v14.2l0.2,0.2h1.5l0.1-0.2V43.1L142,44l5.3,10.9
	h2.1l0.1-0.2L149.5,40.5L149.5,40.5z"/>
<path class="st1" d="M179.9,55l0.2-0.2V42.3h3.6l0.2-0.2v-1.5l-0.1-0.1H175l-0.1,0.2v1.5l0.1,0.1h3.4V55H179.9z"/>
<path class="st1" d="M126.1,53.2h-6.4V40.6c0-0.1-0.1-0.1-0.1-0.2H118l-0.1,0.2v14.2L118,55h8.1l0.1-0.2v-1.4L126.1,53.2z"/>
<polygon class="st1" points="164.1,46.6 164.1,48.6 172,48.6 172.2,48.5 172.2,46.8 172,46.6 "/>
<polygon class="st1" points="164.1,53 164.1,54.8 164.3,55 172.5,55 172.6,54.8 172.6,53.2 172.5,53 "/>
<polygon class="st1" points="172.4,40.5 164.2,40.5 164.1,40.6 164.1,42.5 165.7,42.5 165.7,42.5 172.4,42.5 172.6,42.3 172.6,40.6
	"/>
</svg>
