<?xml version="1.0" encoding="utf-8"?>
<!-- Generator: Adobe Illustrator 23.0.3, SVG Export Plug-In . SVG Version: 6.00 Build 0)  -->
<svg version="1.1" id="geomuseum" xmlns="http://www.w3.org/2000/svg" xmlns:xlink="http://www.w3.org/1999/xlink" x="0px" y="0px"
	 viewBox="0 0 311.8 70.9" style="enable-background:new 0 0 311.8 70.9;" xml:space="preserve">
<style type="text/css">
	.st0{fill:#537589;}
	.st1{fill:#FFFFFF;}
</style>
<title>koldkrig_menu_logo</title>
<rect x="-1.6" y="-7.2" class="st0" width="317.3" height="85.5"/>
<g id="New_Symbol_38">
	<path class="st1" d="M70.3,44.1C69,39.6,65.7,37,59,34.8c-4.6-1.5-9.3-2.6-14.2-3.2h-0.1l-0.1-0.1v0.1c-1-0.2-2.2-0.3-3.4-0.6
		c-4.2-0.8-8.4-1.8-12.4-3.1c0-0.2,0-0.3,0-0.5c0-0.1,0-0.1,0-0.2c0.1,0,0.2,0,0.3,0.1c0.2,0.1,0.3,0.1,0.4,0.1h0.2l-0.1-0.2
		c0-0.3-0.3-0.4-0.5-0.5c-0.1,0-0.2-0.1-0.3-0.2v-0.9l-0.3,0.6c-0.1,0.3-0.1,0.6-0.1,1c0,0.2,0,0.3-0.1,0.5l-0.7-0.2l-0.2-0.1l0,0
		c-2.6-0.8-4.4-1.4-4.4-1.5c-4.5-1.3-16.7-7.8-16.7-7.8c-4-2.4-7.7-3.1-10.7-2h-0.2v0.1c-0.6,0.2-1.1,0.4-1.7,0.8
		c-3,1.8-3.8,8.3-2.8,13.3C-7.9,36,3.7,45.7,9.2,49.5l0,0l0,0c0.4,0.3,0.8,0.5,1.1,0.8c10,6.4,19,8.8,31.9,8.8
		c13.3,0,26-4.5,27.4-6.2C71.2,51.2,71.4,47.9,70.3,44.1z M70.5,49.3l-1,0.3l0.1-3.1c0.3-0.1,0.6-0.2,0.8-0.2
		C70.5,47.3,70.6,48.3,70.5,49.3z M65.9,50.4L65.8,47c1.6-0.2,2.7-0.3,3.5-0.5v3.1C68.5,49.8,67.3,50.1,65.9,50.4z M14,51.5L11.6,49
		l-0.3-3.4c1,0.4,1.9,0.9,2.9,1.4l0.3,3.3L14,51.5L14,51.5z M13,50.9c-0.4-0.3-0.9-0.5-1.3-0.8v-0.4L13,50.9z M-7.7,29.9
		c0.7,1,1.5,2.1,2.4,3.1l0.3,2.9c-0.8-0.9-1.6-1.9-2.3-2.9L-7.7,29.9z M-9,27.1c-0.1-1.1,0-2.2,0.1-3.3c0.2,0.3,0.5,0.6,0.9,1
		l-0.1,4C-8.6,28-8.9,27.4-9,27.1z M-8.9,23.4c0.2-1.2,0.5-2.5,1-3.7L-8,24.3C-8.4,23.9-8.7,23.6-8.9,23.4L-8.9,23.4z M-7.9,29.1
		l0.1-4.1c0.6,0.6,1.4,1.4,2.4,2.4l-0.1,4.4l-0.2,0.4C-6.4,31.3-7.2,30.3-7.9,29.1L-7.9,29.1z M-3.7,28.7l-1.4,2.6v-3.8
		C-4.6,27.9-4.2,28.3-3.7,28.7L-3.7,28.7z M19.9,35c-0.9-0.3-1.6-0.6-2.4-0.9L17.4,34L18,25c0.9,0.4,1.7,0.8,2.5,1l-0.6,8.8V35z
		 M62.3,51.1l-0.2-3.8c1.3-0.1,2.4-0.2,3.4-0.3l0.3,3.4C64.7,50.7,63.6,51,62.3,51.1z M42.4,58.2l-0.7-4.7h1c0.5,0,1,0,1.6,0
		l0.1,3.6L42.4,58.2L42.4,58.2z M30.9,52.3c0.9,0.2,1.8,0.3,2.7,0.5L31.3,57L30.9,52.3z M28.2,51.4l-0.1-8l0.1-0.2l0.1-0.1l0,0
		l2.2,3.8l0.1,5.1C29.7,51.7,29,51.6,28.2,51.4z M9.9,44.5v-0.2v-2.3l1.3-4.3l-0.1,7.3C10.7,44.9,10.3,44.8,9.9,44.5z M6.4,42.6
		L6.4,42.6l0.2-3.9L8.9,38v6C8,43.5,7.1,43,6.4,42.6z M3.6,40.7v-1.3l2.7-0.8l-0.2,3.8C5.2,41.8,4.4,41.3,3.6,40.7z M-2.1,36v-6.2
		c0.8,0.6,1.7,1.2,2.7,1.8l0.1,6.8c-0.8-0.6-1.4-1.2-2.1-1.7C-1.4,36.7-2.1,36-2.1,36z M-3.1,28.7h0.8v0.5L-3.1,28.7z M11.4,31.3
		c-0.4-0.2-0.8-0.3-1.2-0.4l0.4-6.2l1.2-0.6L11.4,31.3L11.4,31.3z M11.4,31.8l-0.3,5l-1.3-1.1l0.3-4.4
		C10.6,31.4,11.1,31.6,11.4,31.8L11.4,31.8z M31,32.8l-0.3,5l0,0l-2.5-0.5l0.6-8.5l0.8,0.9l1.4,2l-0.2,0.6L31,32.8z M45.2,40.9
		l0.2,5.1L44.1,46L44,40.7L45.2,40.9z M54,52.4l-0.3-5.1l1.2,0.1v4.9L54,52.4z M48.6,52.9l-0.1-6c1,0.1,2.1,0.2,3.1,0.3l0.3,5.4v0.1
		C50.8,52.8,49.7,52.9,48.6,52.9z M44.6,53.1l-0.3-6.8l1.1,0.2l-0.2,6.6H44.6z M45.6,46.5c1,0.1,1.8,0.3,2.7,0.3l0.1,6.1
		c-1,0.1-1.9,0.1-3,0.2L45.6,46.5z M52.7,46.9l-0.9-0.1v-3.8l1,0.3L52.7,46.9z M52.2,52.6v-0.2l-0.3-5.3l0.9,0.1l0.3,5.3L52.2,52.6z
		 M55.2,47.4c1.1,0.1,2.2,0.1,3.1,0.1l0.3,4.4c-1,0.2-2.3,0.3-3.4,0.5C55.2,52.3,55.2,47.4,55.2,47.4z M58.3,47c-1,0-2,0-3.1-0.1
		v-0.1l0.1-2.7c1.1,0.4,2.3,1,3.1,1.3V47z M58.6,45.6c1.2,0.5,2.1,1,2.7,1.4c-0.9,0-1.7,0-2.8,0L58.6,45.6z M54.9,46.9L54.9,46.9
		h-1.2l0,0l0.2-3.3L55,44L54.9,46.9z M53.9,43.2l0.1-1.7l1.1-0.7L55,43.5L53.9,43.2z M52.8,42.8l-0.8-0.3l0.8-0.4V42.8z M51.5,42.8
		v3.9c-1-0.1-2-0.2-3-0.3v-4.6C49.6,42.1,50.6,42.5,51.5,42.8z M48.6,41.4l0.2-3.1l2.6,3.9C50.5,42.1,49.5,41.8,48.6,41.4L48.6,41.4
		z M48.3,46.4c-0.9-0.1-1.7-0.2-2.7-0.3L45.3,41l1.7,0.4c0.4,0.1,0.8,0.2,1.2,0.3L48.3,46.4z M42.2,39.9l2.3-7.2l-0.6,7.5L42.2,39.9
		z M43.9,40.6l0.1,5.2l-0.5-0.1l-2-2.8v-0.6l0.6-2.2C42.6,40.3,43.2,40.5,43.9,40.6L43.9,40.6z M30.8,52l-0.1-4.6l3,5.1v0.1
		C32.7,52.3,31.7,52.2,30.8,52z M30.6,38.1l-0.1,2.6l-2.4,1.7v-4.9L30.6,38.1z M35.1,39L35.1,39l-1.2,0.7v-1L35.1,39z M41.1,43.1
		L41.1,43.1L41,45.4c-0.5-0.1-1-0.2-1.5-0.3L41.1,43.1z M39.2,45.1L38,44.8l0.1-4l2.8,2L39.2,45.1z M28.9,42.8L28.9,42.8l1.7-0.9
		l-0.1,1.3L28.9,42.8z M35.1,40.1l-0.4,4.2l-0.8-0.2l-0.1-3v-1l1.2-0.7L35.1,40.1z M35.1,42.3v2.1l-0.3-0.1L35.1,42.3z M34,47.2
		v-2.8l0.7,0.2l-0.6,6L34,47.2z M33.6,40l-2.8,1.5v-0.3l2.8-2V40z M30.5,41.5l-1.4,0.8l1.4-1V41.5z M30.8,41.8l2.9-1.5l0.1,2.2v1.6
		c-1-0.2-2-0.4-3-0.7L30.8,41.8z M34.9,44.7l0.3,0.1l0.2,5.6L34.1,52L34.9,44.7z M35.5,44.8l2.3,0.4l0.1,1.7l-2.3,3L35.5,44.8z
		 M38,45.3l1,0.2l-1,1.2V45.3z M37.8,44.8l-2.3-0.4l-0.1-4.5l0.1-0.6l0.2-0.1l0.1-0.1l2.2,1.6L37.8,44.8z M30.8,40.6l0.1-2.4
		c1,0.2,1.7,0.3,2.5,0.5L30.8,40.6z M27.8,42.9L27.8,42.9v0.3l-2.2,5.5l-0.4-6.5C26,42.5,26.9,42.8,27.8,42.9L27.8,42.9z M25.2,41.9
		l0.1-1l1.9,1.6C26.4,42.2,25.8,42.1,25.2,41.9L25.2,41.9z M28.8,43.2l1.7,0.4l0.1,2.6L28.8,43.2L28.8,43.2z M30.7,43.7
		c1,0.3,2,0.4,3.1,0.7V46v5.9l-3-5.1L30.7,43.7z M34.7,51.8l0.8-1v0.4L34.7,51.8z M35.4,51.6v1l-1.3-0.2L35.4,51.6z M35.7,50.4
		l2.3-3l0.1,2l-2.3,1.7L35.7,50.4z M38.1,47.1l1.2-1.7l1.7,0.3v0.1l0.1,1.3l-2.9,2.1L38.1,47.1z M41.2,45.9L41.2,45.9l1.4,0.3
		L41.3,47L41.2,45.9z M41.2,45.5l0.1-2l1.7,2.3L41.2,45.5z M41.4,41.4v-1.3l0.3,0.1L41.4,41.4z M41.2,42.2l-0.1,0.3l-3-2.1v-1
		c1,0.2,1.9,0.3,3.1,0.5V42.2z M37.8,40.2l-1.5-1l0.9,0.2l0.6,0.1V40.2z M35.1,38.6l-1.2-0.2l1.6-5.6L35.1,38.6z M30.9,37.9
		L30.9,37.9l0.3-4.5l1.1,2.3l1,2.7L30.9,37.9z M27.8,42.6l-2.6-2.2l0.2-3.2V37c0.8,0.2,1.6,0.3,2.4,0.5V42.6z M25.1,37L25.1,37
		L25.1,37L25.1,37z M25.1,37.2l-0.2,3.1l-1.4-1.1L25.1,37.2L25.1,37.2z M24.9,40.6v1.2c-0.8-0.2-1.5-0.4-2.3-0.7l0.1-1l0.6-0.9
		L24.9,40.6z M17.6,48.1v-1.7l2.4-3l0.3,5.7C19.4,48.8,18.5,48.4,17.6,48.1z M9.9,37.3v-0.6l0.8,0.3L9.9,37.3z M11.1,37.3l-1.2,3.9
		v-3.6L11.1,37.3z M2.4,39.8l1-0.3v1L2.4,39.8z M2,39.5c-0.4-0.3-0.8-0.6-1.1-0.9l0,0l-0.1-6.8c0.8,0.5,1.7,1,2.5,1.6v5.8L2,39.5z
		 M3.6,33.5c0.9,0.5,1.8,1,2.8,1.5l-0.1,3.2l-2.7,0.9V33.5z M3.6,33l0.2-2.4l2.8,2.4l-0.1,1.6l0,0C5.5,34.1,4.5,33.6,3.6,33L3.6,33z
		 M19.4,40c-0.6-0.2-1.3-0.4-1.9-0.7v-4.5L19.4,40L19.4,40z M19.9,40.6l0.2,2.3l-2.4,3v-1.1l1.9-4.3L19.9,40.6z M20.1,40.7l1.3,0.4
		l-1.2,1.5L20.1,40.7z M15.9,47.4l0.9-7.8l0.5,0.2v0.2l0.1,4.8l-1.2,2.8L15.9,47.4z M15.9,47.7L15.9,47.7z M15.8,46.2l-0.6-7.3
		l1.4,0.5L15.8,46.2z M16.8,39.2l0.4-3.9v4.1L16.8,39.2z M17.4,46.2l-1,1.1l1-2V46.2z M17.5,44.1l-0.1-4.3v-0.1
		c0.6,0.2,1.1,0.4,1.7,0.6L17.5,44.1z M16.6,39.1l-1.5-0.5l-0.4-5.4h0.1c0.8,0.3,1.6,0.8,2.4,1.1L16.6,39.1z M14.5,34.7l0.3,3.8
		l-0.4-0.2L14.5,34.7z M14.1,38.1c-0.9-0.3-1.7-0.7-2.5-1L11.5,37l2.8-3.8L14.1,38.1z M9.9,35.9l0.8,0.6l-0.8-0.3V35.9L9.9,35.9z
		 M8.9,35.9c-0.8-0.3-1.5-0.8-2.2-1v-0.1l0.1-1.4l2.1,1.9V35.9z M6.7,35.2c0.7,0.3,1.4,0.8,2.2,1v1.3l-2.3,0.7L6.7,35.2z M14.1,38.6
		l0.1,5.4l-2.5-6.5C12.4,37.9,13.3,38.2,14.1,38.6L14.1,38.6z M14.3,38.7l0.5,0.2l0.8,8.5h-0.1l-1-2.6L14.3,38.7z M17.3,46.7V48
		l-0.8-0.3L17.3,46.7z M20.2,43.1l1.5-1.8l0.6,0.2l0.5,8.5V50c-0.8-0.3-1.6-0.5-2.3-0.8L20.2,43.1z M22,40.9l0.4-0.5V41L22,40.9z
		 M22.7,39.6v-0.8l0.3,0.3L22.7,39.6z M22.4,39.9l-0.8,0.9c-0.5-0.2-1-0.3-1.6-0.5v-3.7l2.4,2L22.4,39.9z M19.8,40.2l-0.2-0.1
		l0.1-0.2l-2-5.4l2.3,1.8L19.8,40.2z M14.7,32.8l-0.2-0.1l0,0l0.3-6.7l2.3,7.8C16.3,33.5,15.5,33.2,14.7,32.8L14.7,32.8z M11.4,36.6
		l0.3-4.7c0.9,0.3,1.7,0.8,2.4,1L11.4,36.6z M8.9,34.7l-2.1-1.9L7,30.2l0.9,0.3c0.5,0.2,1,0.3,1.4,0.4L8.9,34.7z M6.5,32.7l-2.7-2.4
		l0.1-0.8c0.9,0.2,1.8,0.4,2.9,0.7L6.5,32.7z M3.6,30l-0.8-0.8l0.9,0.2L3.6,30z M3.6,30.5L3.4,33c-0.9-0.5-1.7-1-2.5-1.5L1,29.1
		l1.1,0.2L3.6,30.5z M-2,28.7c0.7,0,1.7,0.1,2.8,0.3l-0.2,2.4c-1-0.7-1.9-1.3-2.7-1.9L-2,28.7z M-2.4,36.3l0.2,2.4l-2.4-4.5
		C-3.8,34.7-3.1,35.5-2.4,36.3z M-2,36.6c0.2,0.2,0.3,0.3,0.5,0.4c0.7,0.6,1.4,1.2,2.3,1.9v0.5l-2.7-0.3L-2,36.6z M1,39.2
		c0.2,0.1,0.3,0.3,0.5,0.3L1,39.4L1,39.2z M11.4,37.7l2.8,7v2c-1-0.4-2-0.9-2.9-1.4L11.4,37.7z M14.5,45.4l0.7,1.7l-0.7-0.3V45.4z
		 M15.3,47.5l0.3,0.8v0.1l0,0L14.8,50l-0.3-2.8L15.3,47.5z M16.3,48c0.3,0.2,0.8,0.3,1,0.4l0.2,1.7L16,48.3L16.3,48z M17.6,48.5
		c0.9,0.3,1.8,0.7,2.8,1l0.3,4.1l-2.9-3.2L17.6,48.5z M20.7,49.6c0.8,0.3,1.6,0.5,2.4,0.8l0.3,2.3l-1.7,2L21,53.8L20.7,49.6z
		 M23.3,50.4l1.5,0.4l-1.2,1.5L23.3,50.4z M23.2,50v-0.2l-0.5-8.3c0.8,0.3,1.5,0.4,2.3,0.6l0,0l0.5,7.2l-0.5,1.1
		C24.3,50.3,23.7,50.2,23.2,50z M25.4,49.9l0.1,0.6v0.1l-0.3-0.1L25.4,49.9z M25.7,50.5l-0.1-1.1l2.2-5.3l0.2,7.3
		c-0.7-0.2-1.4-0.3-2.1-0.5L25.7,50.5z M35.5,53.1l0.8,3.6L34.4,53L35.5,53.1z M35.8,52.8l-0.1-1.3l2.3-1.7l0.2,3V53
		C37.3,53,36.5,52.9,35.8,52.8L35.8,52.8z M38.4,52.8l-0.2-3.1l2.9-2.1l0.3,5.5c-1,0-2-0.1-3-0.1L38.4,52.8z M41.3,47.5l1.8-1.3
		l0.8,0.1l0.3,6.8c-0.9,0-1.7,0-2.6,0L41.3,47.5z M44.5,53.5h0.7l0.5,2.8l-1,0.6L44.5,53.5z M45.4,53.5c1,0,1.9-0.1,2.9-0.2l0.3,1.2
		l-2.7,1.7L45.4,53.5z M48.6,53.4c0.9-0.1,1.7-0.1,2.5-0.2l-2.3,1.3L48.6,53.4z M54,52.9l1-0.1l0.2,0.8L54,53.3V52.9z M55.3,52.6
		c1.1-0.2,2.3-0.3,3.4-0.5l0.6,2.3l-3.8-0.9L55.3,52.6z M58.8,51.7l-0.3-4.3h0.2c1.1,0,2.2,0,3.1-0.1l0.2,3.8
		C61,51.4,59.9,51.6,58.8,51.7L58.8,51.7z M62.1,46.9l0.2-10.1c1.2,0.5,2.4,1.2,3.6,2l-0.3,7.7v0.2C64.5,46.9,63.4,46.9,62.1,46.9z
		 M61.8,46.9c-0.4-0.3-1.6-0.9-3.2-1.7l0.1-6.5l3.3-1.9L61.8,46.9z M58.3,45.1c-0.9-0.4-1.9-0.9-3.1-1.3l0.1-3.1l3.1-1.8L58.3,45.1z
		 M55.4,40.2l0.2-5.7c0.9,0.3,1.9,0.5,3,0.9l-0.1,3L55.4,40.2z M55.1,40.4L54,41.1l0.3-6.8l1,0.3L55.1,40.4z M52.9,41.7l-1.1,0.6
		l0.3-8.6c0.4,0.1,0.9,0.2,1.2,0.3L52.9,41.7z M51.6,42.1l-2.8-4.2l0.3-4.8c1,0.2,1.8,0.3,2.7,0.5L51.6,42.1z M48.7,37.6L46,33.5
		l0.1-1c1,0.2,2,0.3,3,0.5L48.7,37.6z M48.7,38l-0.3,3.3c-0.3-0.1-0.8-0.2-1.1-0.3c-0.6-0.2-1.2-0.3-1.7-0.4l0.4-6.7L48.7,38z
		 M45.3,40.6l-1.1-0.3l0.6-7.9h0.1l0.9,1.3L45.3,40.6z M44.1,32.6l-2.3,7.2l-0.3-0.2l0,0l0.3-5.3L44.1,32.6z M41.8,34l0.1-2.2
		l2.2,0.3L41.8,34z M41.2,39.7c-1.1-0.3-2.1-0.4-3.1-0.5V39l0.1-1.8l3.2-2.5L41.2,39.7z M37.9,38.9L37.9,38.9h-0.6l-1.1-0.2l1.8-1.4
		L37.9,38.9z M35.7,38.7l-0.3-0.1l1.8-7.5c0.3,0.1,0.8,0.2,1,0.3L38,36.9L35.7,38.7z M35.6,36.8l0.5-6.1c0.3,0.1,0.6,0.2,0.9,0.2
		L35.6,36.8z M35.6,31.5l-1.7,6.3l0.4-7.6l1.4,0.3L35.6,31.5z M33.6,37.9l-1-2.5l-1.3-2.6l0.2-3.2c0.8,0.3,1.7,0.4,2.5,0.7
		L33.6,37.9z M31,31.5l-1.4-2.1l-0.4-0.5l2,0.6L31,31.5z M28.4,28.6l-0.6,8.5c-0.9-0.2-1.7-0.3-2.4-0.5l0.9-8.7
		C26.9,28.2,27.7,28.4,28.4,28.6L28.4,28.6z M25.2,36.6c-0.8-0.2-1.6-0.4-2.3-0.6l0.8-8.9c0.5,0.2,1.4,0.4,2.4,0.8L25.2,36.6z
		 M24.9,36.9l-1.6,1.9l-0.5-0.4l0.1-2C23.5,36.6,24.2,36.7,24.9,36.9L24.9,36.9z M22.5,38.1l-2.4-2v-0.8c0.8,0.3,1.6,0.5,2.4,0.8
		L22.5,38.1z M19.9,35.9l-1.3-1.1c0.4,0.2,0.9,0.3,1.4,0.5L19.9,35.9z M17.3,33.3L15,25.2l0.1-1.7c1,0.4,1.8,0.9,2.7,1.3L17.3,33.3z
		 M14.8,24.5l-0.3-1.3l0.4,0.2L14.8,24.5z M14.7,25.3l-0.4,7.3c-0.9-0.4-1.7-0.8-2.7-1.1v-0.2L12,24l1.9-1c0,0,0,0,0.1,0L14.7,25.3z
		 M12.2,23.6l0.1-1.4l1.4,0.7L12.2,23.6z M11.9,23.7l-1.2,0.6l0.2-2.8l1,0.5V23.7z M9.9,21l-0.3,3.8L7.3,26l0.4-6.1
		c0.6,0.3,1.5,0.7,2.4,1.2L9.9,21z M9.7,25.2l-0.4,5.3c-0.4-0.2-0.9-0.3-1.4-0.4L7,29.8l0.3-3.6L9.7,25.2z M6.8,29.8
		c-1-0.3-2-0.5-2.9-0.7L4,27.9l3-1.5L6.8,29.8z M3.7,29.1c-0.5-0.1-1-0.2-1.4-0.3l-0.1-0.1l1.6-0.8L3.7,29.1z M1.8,28.5L1,28.4
		L1.7,17c1,0.3,1.9,0.6,2.8,1.1l-0.8,9.4L1.8,28.5z M0.8,28.4L-2,28.3l0.7-11.8c1,0,1.8,0.2,2.8,0.4L0.8,28.4z M-2.4,29.7v6.1
		c-1-1-2-2-2.8-3v-0.9l1.7-3.1L-2.4,29.7z M-5,33.7l2.6,5.1c-0.8-0.8-1.6-1.7-2.3-2.4L-5,33.7z M0.7,39.9l0.1,2
		c-0.8-0.8-1.7-1.5-2.4-2.3L0.7,39.9z M1,39.9l1,0.1l1.6,1.6l0.3,2.9c-0.9-0.8-1.7-1.5-2.7-2.3L1,39.9z M3.7,41.8l2.6,2.6l0.3,2.4
		c-0.9-0.6-1.7-1.3-2.6-2.1L3.7,41.8z M3.7,41.3L3.7,41.3c0.8,0.4,1.7,1,2.5,1.6l0.2,1L3.7,41.3z M6.4,43c0.8,0.4,1.6,1,2.4,1.4v0.1
		L8.4,46l0.2,0.2l0.3-1l0.1,1.4l-2.3-2.4L6.4,43z M9.9,44.9c0.4,0.2,0.8,0.4,1.2,0.6l0.3,3.2l-1.2-1.1L9.9,44.9z M14.6,50.9l0.1,1
		l-0.5-0.3L14.6,50.9z M14.9,50.4l0.8-1.7l0,0l0.1-0.3l1.7,2l0.3,2.9c-0.9-0.4-1.8-0.9-2.7-1.3L14.9,50.4z M17.9,50.9l2.8,3.2v0.6
		c-0.9-0.3-1.7-0.8-2.6-1.1L17.9,50.9z M20.9,54.4l0.4,0.4v0.1L21,54.8L20.9,54.4z M21.8,54.8l1.5-1.8l0.3,2.6
		c-0.5-0.2-1-0.3-1.6-0.5l0,0L21.8,54.8z M23.5,52.8L25,51l0.5,0.2l0.8,5.3c-0.9-0.2-1.7-0.4-2.4-0.7L23.5,52.8z M25.8,51.1
		c0.7,0.2,1.4,0.3,2.1,0.5l0.6,5.2c-0.7-0.2-1.3-0.3-2-0.4l0,0L25.8,51.1z M28.3,51.7c0.8,0.2,1.6,0.3,2.4,0.5l0.5,5.1
		c-0.8-0.1-1.6-0.3-2.3-0.4L28.3,51.7z M31.3,57.1l0.1,0.2l2.4-4.2l1,4.8c-1.2-0.1-2.4-0.3-3.5-0.4V57.1z M34.1,53l2.4,4.7l0.1,0.3
		l-1.3-0.1L34.1,53z M36.8,57.9l-0.1-0.3l-0.9-4.5c0.8,0.1,1.7,0.2,2.4,0.2l0.8,4.8C38.3,58.1,37.6,58,36.8,57.9L36.8,57.9z
		 M38.5,53.4c1,0.1,2,0.1,3,0.1v0.1l0.7,4.6c-1,0-2,0-3-0.1L38.5,53.4z M44.4,57.4v0.8h-1.3L44.4,57.4z M44.7,57.3l1-0.6l0.2,1.4
		c-0.4,0-0.8,0.1-1.2,0.1V57.3z M46,56.5l2.8-1.6l0.6,2.9c-1,0.1-2.1,0.2-3.2,0.3h0.1L46,56.5z M48.9,54.8l3-1.7l0.7,4.4
		c-1,0.2-2,0.3-3.1,0.4L48.9,54.8z M52.2,53l0.9,0.3l0.8,3.9l-1,0.2L52.2,53z M54.2,53.6l1.1,0.3l0.8,3l-1.2,0.3L54.2,53.6z
		 M55.6,53.9l3.8,1l0.3,1.1c-1,0.3-2.2,0.5-3.3,0.8L55.6,53.9z M59.6,55l1.9,0.5l-1.7,0.4L59.6,55z M59.5,54.5l-0.6-2.4
		C60,52,61,51.8,62,51.6l0.7,3.5l-0.4,0.2L59.5,54.5z M62.3,51.6c1.3-0.3,2.4-0.4,3.5-0.7l0.7,3c-1,0.4-2.3,0.8-3.6,1.2L63,55
		L62.3,51.6z M70.2,46l-0.7,0.2l0.1-2.3c0.1,0.2,0.2,0.3,0.2,0.6C69.9,44.9,70.1,45.5,70.2,46z M69.4,43.2l-0.2,3
		c-0.8,0.2-1.9,0.3-3.5,0.5v-0.2L66,39C67.5,40.1,68.6,41.5,69.4,43.2L69.4,43.2z M61.7,36.6l-3,1.7l0.1-2.7l0,0
		C59.8,35.9,60.8,36.2,61.7,36.6z M45.7,32.5v0.6l-0.5-0.8L45.7,32.5z M41.7,31.9l-0.2,2.4l-3.2,2.5l0.3-5.4
		c0.8,0.2,1.7,0.3,2.4,0.4L41.7,31.9z M23.4,27l-0.7,8.9c-0.9-0.3-1.7-0.5-2.5-0.8v-0.3l0.7-8.7c0.8,0.3,1.4,0.5,2,0.7L23.4,27z
		 M7.5,19.7L7.1,26l-3,1.5l0.7-9.2c0.4,0.2,0.9,0.4,1.2,0.7C6,18.9,6.6,19.3,7.5,19.7z M-1.6,16.4l-0.7,11.8l-1.2-0.1l-0.1,0.2
		c-0.5-0.4-1-0.9-1.5-1.2l0.5-10.2c0.9-0.3,1.8-0.4,2.8-0.4L-1.6,16.4z M-6.2,17.7c0.4-0.3,1-0.5,1.4-0.6L-5.3,27
		c-1-1-1.9-1.7-2.4-2.4l0.2-5.3C-7.2,18.6-6.7,18.1-6.2,17.7z M-8.6,29.9c-0.2-0.7-0.3-1.4-0.3-2.1c0.2,0.4,0.5,1,1,1.6l0.5,3.1
		C-8,31.8-8.4,30.9-8.6,29.9z M7,46.9l-0.3-2.3L9.1,47l0.1,1.5C8.5,48.1,7.8,47.5,7,46.9z M10.3,49.2l-0.2-1l1.2,1.2l0.1,0.6
		l-0.9-0.5L10.3,49.2z M69.4,52.2c-0.8,0.6-1.7,1.1-2.7,1.5L66,50.8c1.3-0.3,2.4-0.5,3.1-0.8l0.4,1.8C69.6,52,69.5,52.1,69.4,52.2
		L69.4,52.2z M69.9,51.6L69.5,50l1-0.3C70.4,50.4,70.2,51,69.9,51.6L69.9,51.6z"/>
	<path class="st1" d="M25.5,26.1c0.1,0.3-0.1,0.3-0.1,0.6c0,0.3,0.1-0.7,0.3-0.6c0.3,0.1,0.2,1,0.6,1c0.2-0.2-0.1-0.8-0.1-1.1
		c-0.3,0.1-0.3-0.2-0.6-0.1c0-0.1,0-0.1,0-0.2l3.8,1.1V14l-0.5-0.5l-0.4-2.5l-0.5-0.2c-0.5-0.3-1-0.4-1.6-0.6c-0.2,0.3,0,1-0.2,1.2
		L26,11.4v0.1c-0.3,0.1-0.1,1.1-0.2,1.7c0.1-0.2,0.2-0.3,0.2-0.5v0.5l-0.4,0.3c0-0.1,0-0.2,0-0.3c-0.4,0.3-0.3,1.4-0.3,2
		c0,3.1-0.1,7.1-0.2,10.3C25,26.1,25.4,25.8,25.5,26.1z M26.3,11.4L26.3,11.4c0-0.1,0-0.2,0-0.3V11.4z"/>
	<path class="st1" d="M47.6,44.7l0.1-3.2l0.7,0.1l-1-4.4L45.3,35l-1.1-3.8l-2.4-0.9l-0.6,3.1l0.3,6.3l0.8,0.2l-0.3,5l0.4,2.4l1.4-1
		l0.6,1.6L43.7,51l-1.3,1.4v0.2l-9.9,9.6l-1.1-1.9l3.3-7.5l-1.3-0.2L30,59.3l-7.2-1.5l-0.7-2.8l-0.3,0.2l-1-0.3l1,3.2l-3.5,2H18
		l-1.4-12.8l-1,0.3l1.6,14.1l3.1,4.2l5,6.5l0.1-0.2l0.1,0.3l0.4-0.3l0.4,0.4l1.7-4.3l1.2,5.8l2.1-4.8l1,2.3l0.5-0.5l1.5,2.4l3.4-5.2
		h2.6l-2.9,5.1l0.8,1l7.6-13.4l0.1,0.3l0.8-1.8l0,0l0.4-0.8l-0.3-0.3l0.4-6.3l0.4-2.3l0.3-1.6l0.6-1.7l0.2-1.7L47.6,44.7z
		 M42.6,58.4l-0.8,1.1l-0.8-1l1-1.7l0,0L42.6,58.4z M38.6,62.6l0.7-1l0.5,1.3l-0.1,0.1L38.6,62.6z M39.6,63.2L39,64l-0.6-1l0.1-0.1
		L39.6,63.2z M39.1,59.5L39.1,59.5L39.1,59.5L39.1,59.5z M39.7,60.9l1.2-1.9l0.8,1l-1.4,2.2L39.7,60.9z M42.4,54.4L42.4,54.4l-2,3.2
		H39L42.4,54.4z M39.9,58.4L39.5,59l-0.6,0.2l-0.3-0.8H39.9z M38.1,58.5l0.3,0.9l-2.1,0.8L38.1,58.5z M35.7,60.8l2.9-1.1l0.2,0.4
		l-1.3,2.1h-0.1l-2.5-0.6L35.7,60.8z M37,63l-1.2,2l-1.4-2.4L37,63z M33.7,62.8l1.7,2.8L35,66.4h-0.2l0.1-0.1l-1.7-2.9L33.7,62.8z
		 M30.4,61L30.4,61l1.2,1.9l-1.5,1.5l-0.6-1.5L30.4,61z M29.3,60.8L28.7,62l-3.6-0.6l-1.2-1.7L29.3,60.8z M22.2,59.5l0.3,1.5
		l-2.2-0.4L22.2,59.5z M20.9,64.7l-2.2-2.9l4.2,0.8l0.7,2.7L21.1,65L20.9,64.7z M22.4,66.7l1.7,0.2l0.7,2.8L22.4,66.7z M24.1,62.7
		l0.6,0.1l1.8,2.8l-1.7-0.3L24.1,62.7z M26,70.6L25.1,67l2.3,0.3L26,70.6z M28.1,65.9l-1.8-2.7l2.4,0.4l0.7,1.6L28.5,66L28.1,65.9z
		 M29.6,70.8l-0.7-3.4l1.7,0.2l0.3,0.5L29.6,70.8z M31,66.2l-0.3-0.6l1.6-1.5l1.3,2.2h-2L31,66.2z M34.3,71.4L32,67.8h4.5L34.3,71.4
		z M37.7,66.3h-1.1l-0.1-0.2l1.6-2.5l0.6,1L37.7,66.3z M38.2,67.7l1.2-1.9l1.1,1.9H38.2z M41,67.3l-1.2-2.1l1-1.7h2.3L41,67.3z
		 M41.2,62.8l1-1.7l1.1,1.7H41.2z M43.8,62.3l-1.1-1.7l0.8-1.1l1.6-0.2l0.2,0.4L43.8,62.3z"/>
	<polygon class="st1" points="17.4,34.3 24.1,30.4 27.2,31.9 31,32.3 31.2,30.9 28.4,27.8 26,27.1 25.8,28.6 24.1,28.4 23.7,30.2
		17.4,33.9 	"/>
</g>
<path class="st1" d="M83.4,27.7V28l4.7,6v0.6L88,34.8h-1.2c-1.7-2-3.2-4-4.8-6h-1.3v5.9l-0.1,0.2h-1.3L79,34.7v-14l0.2-0.2h1.3
	l0.1,0.2v6.5h1.1l4.7-6.7h1.2c0,0.1,0.1,0.1,0.1,0.2v0.6L83.4,27.7z"/>
<path class="st1" d="M94.1,35.1c-3.2,0-4.4-1.8-4.4-3.8v-7.4c0-1.8,1.2-3.8,4.5-3.8s4.4,1.8,4.4,3.8v7.4
	C98.6,33.3,97.3,35.1,94.1,35.1z M97,24c0-1.8-1.3-2.3-2.8-2.3c-1.8,0-2.9,0.6-2.9,2.3v7.3c0,1.8,1.9,2.3,2.8,2.3h0.3
	c0.8,0,2.7-0.4,2.7-2.3L97,24L97,24z"/>
<path class="st1" d="M109.1,33.4v1.2l-0.1,0.2h-7.9l-0.1-0.2V20.7l0.1-0.2h1.3c0,0.1,0.1,0.1,0.1,0.2v12.5h6.5L109.1,33.4z"/>
<path class="st1" d="M119.8,24.3V31c0.1,2-1.4,3.7-3.3,3.8c-0.1,0-0.3,0-0.4,0h-4.8c0,0-0.1-0.1-0.2-0.2v-14l0.2-0.2h4.6
	c2-0.1,3.7,1.4,3.8,3.4C119.8,24,119.8,24.2,119.8,24.3z M118.2,24.4c0.2-1.1-0.6-2.1-1.7-2.3c-0.1,0-0.3,0-0.4,0h-3.4v11.1h3.4
	c1.1,0.1,2.1-0.8,2.1-1.9c0-0.1,0-0.3,0-0.4V24.4z"/>
<path class="st1" d="M126.4,27.7V28l4.7,6v0.6l-0.1,0.2h-1.2c-1.7-2-3.2-4-4.8-6h-1.3v5.9l-0.1,0.2h-1.3l-0.1-0.2v-14l0.2-0.2h1.3
	l0.1,0.2v6.5h1.1l4.7-6.7h1.2c0,0.1,0.1,0.1,0.1,0.2v0.6L126.4,27.7z"/>
<path class="st1" d="M142.7,34.8h-1.4l-3.5-6.2h-1.4l-0.9-0.5v6.6l-0.2,0.2h-1.2l-0.2-0.2v-14l0.1-0.1h4.7c3,0,3.7,1.7,3.7,3.6v1.1
	c0,0.8-0.3,3.4-2.8,3.4l3.2,5.6v0.4L142.7,34.8z M138.5,27.3c1.7,0,2.3-0.5,2.3-2v-1c0-1.6-0.6-2.1-2.1-2.1h-3.2v5.1H138.5z"/>
<path class="st1" d="M147,34.7l-0.1,0.2h-1.3l-0.2-0.2v-14l0.2-0.2h1.3l0.1,0.2V34.7z"/>
<path class="st1" d="M156.9,28.4l0.8-0.9h0.8c0,2.1,0,6.5,0,7.2l-0.2,0.2h-1.5v-0.7l-2.7,0.8c-3.7,0-4.3-1.7-4.3-4.1v-6.7
	c0-1.2,0.6-3.8,4.4-3.8c3.5,0,4.3,1.2,4.3,3.4l-0.2,0.2H157l-0.2-0.2c-0.1-1.6-0.9-1.8-2.7-1.8c-1.4,0-2.8,0.3-2.8,2.2v6.7
	c0,2,0.8,2.5,2.8,2.5l2.7-0.1L156.9,28.4z"/>
<path class="st1" d="M169.8,31.2c0,2.6-1.2,3.9-4.5,3.9s-4.3-1.3-4.4-3.5l0.2-0.1h1.3l0.1,0.1c0.1,1.4,1,1.9,2.8,1.9
	c2.3,0,2.9-0.6,2.9-2.3c0.1-0.9-0.4-1.7-1.2-2c-1.2-0.6-2.5-1.2-4-1.9c-1.3-0.6-2-1.9-1.8-3.2c0-2.1,1-3.6,4.1-3.6s4.2,0.9,4.3,3.4
	l-0.2,0.2h-1.3l-0.2-0.2c0-1.4-0.5-1.8-2.7-1.8c-2.1,0-2.6,0.7-2.6,1.9c-0.1,0.9,0.4,1.7,1.2,2c1,0.5,2.6,1.2,3.6,1.6
	C169.1,28.2,169.8,29,169.8,31.2z"/>
<path class="st1" d="M183.3,20.7v14l-0.2,0.2h-1.3l-0.1-0.1V23.1l-0.3,0.9c-0.9,1.9-2.1,4.2-3,6.1h-1.3l-3-6.1l-0.3-1v11.6l-0.2,0.1
	h-1.3l-0.2-0.2V20.7l0.1-0.2h1.8l3.7,7.4l3.6-7.4h1.9L183.3,20.7z"/>
<path class="st1" d="M194.8,20.7V31c0,2.7-1.3,4-4.4,4s-4.5-1.3-4.5-4V20.7l0.1-0.2h1.3l0.2,0.2V31c0,1.8,1.1,2.5,2.9,2.5
	c1.8,0,2.9-0.8,2.9-2.5V20.7l0.1-0.2h1.3L194.8,20.7z"/>
<path class="st1" d="M206,31.2c0,2.6-1.2,3.9-4.5,3.9s-4.3-1.3-4.4-3.5l0.2-0.1h1.3l0.1,0.1c0.1,1.4,1,1.9,2.8,1.9
	c2.3,0,2.9-0.6,2.9-2.3c0.1-0.9-0.4-1.7-1.2-2c-1.2-0.6-2.5-1.2-4-1.9c-1.3-0.6-2-1.9-1.8-3.2c0-2.1,1-3.6,4.1-3.6s4.2,0.9,4.3,3.4
	l-0.2,0.2h-1.3l-0.2-0.2c0-1.4-0.5-1.8-2.7-1.8c-2.1,0-2.6,0.7-2.6,1.9c-0.1,0.9,0.4,1.7,1.2,2c1,0.5,2.6,1.2,3.6,1.6
	C205.3,28.2,206,29,206,31.2z"/>
<path class="st1" d="M208.4,34.6V20.7l0.2-0.1h8.1l0.1,0.1V22l-0.2,0.2H210v4.3h6.2l0.1,0.1v1.3l-0.1,0.2H210v5.2h6.6l0.2,0.2v1.2
	l-0.1,0.2h-8L208.4,34.6z"/>
<path class="st1" d="M228,20.7V31c0,2.7-1.3,4-4.4,4s-4.5-1.3-4.5-4V20.7l0.1-0.2h1.3l0.2,0.2V31c0,1.8,1.1,2.5,2.9,2.5
	c1.8,0,2.9-0.8,2.9-2.5V20.7l0.1-0.2h1.3L228,20.7z"/>
<path class="st1" d="M241.7,20.7v14l-0.2,0.2h-1.3l-0.1-0.1V23.1l-0.3,0.9c-0.9,1.9-2.1,4.2-3,6.1h-1.4l-3-6.1l-0.3-1v11.6l-0.2,0.1
	h-1.2l-0.2-0.2V20.7l0.1-0.2h1.8l3.6,7.4l3.6-7.4h1.9L241.7,20.7z"/>
<path class="st1" d="M85.3,44.2c1.6,0.7,2.3,1.5,2.3,3.8c0,2.7-1.2,4.1-4.6,4.1s-4.5-1.5-4.5-3.9l0.4-0.4h1.5l0.4,0.4
	c0.1,1.1,0.8,1.6,2.2,1.6c1.9,0,2.4-0.4,2.4-1.8c0.1-0.7-0.3-1.3-0.9-1.5l-3.6-1.8c-1.4-0.6-2.2-2-2-3.4c0-2.2,1.1-3.8,4.3-3.8
	s4.4,0.9,4.4,3.8l-0.4,0.4h-1.6l-0.4-0.5c0-1.1-0.4-1.4-2.1-1.4s-2,0.5-2,1.4c-0.1,0.7,0.3,1.3,0.9,1.5L85.3,44.2z"/>
<path class="st1" d="M92.6,51.8V39.9h-3l-0.4-0.4V38l0.4-0.4h8.5l0.4,0.4v1.5L98.1,40h-3v11.5l-0.4,0.4h-2.1V51.8z"/>
<path class="st1" d="M100.2,51.4V38l0.4-0.4h7.9l0.4,0.4v1.5l-0.4,0.4h-6v3.3h5.5l0.4,0.4v1.5l-0.4,0.4h-5.5v4h6l0.4,0.5v1.4
	l-0.4,0.4h-7.9L100.2,51.4z"/>
<path class="st1" d="M121.7,38v0.8l-3.7,13h-3.6c-2.7-9.6-3.3-11.4-3.7-12.9V38l0.4-0.5h1.7l3.3,12h0.2l3.3-12h1.7L121.7,38z"/>
<path class="st1" d="M132.8,38v13.4l-0.3,0.5h-2.2l-4.1-8.3l-0.5-1.2v9l-0.4,0.4h-1.5l-0.4-0.4V38l0.4-0.4h2L130,46l0.5,1.3V38
	l0.4-0.4h1.5L132.8,38z"/>
<path class="st1" d="M141.8,44.2c1.6,0.7,2.3,1.5,2.3,3.8c0,2.7-1.2,4.1-4.6,4.1s-4.5-1.5-4.5-3.9l0.4-0.4h1.5l0.4,0.4
	c0.1,1.1,0.8,1.6,2.2,1.6c1.9,0,2.4-0.4,2.4-1.8c0.1-0.7-0.3-1.3-0.9-1.5l-3.7-1.8c-1.4-0.6-2.2-2-2-3.4c0-2.2,1.1-3.8,4.3-3.8
	c3.3,0,4.4,0.9,4.4,3.8l-0.4,0.4H142l-0.4-0.5c0-1.1-0.4-1.4-2.1-1.4s-2,0.5-2,1.4c-0.1,0.7,0.3,1.3,0.9,1.5L141.8,44.2z"/>
<path class="st1" d="M146.2,51.8V38l0.4-0.4h7.9l0.4,0.4v1.5l-0.4,0.4h-6v3.3h5.5l0.4,0.4v1.5l-0.4,0.4h-5.5v5.9l-0.4,0.4
	C148.1,51.8,146.2,51.8,146.2,51.8z"/>
<path class="st1" d="M161.5,52.1c-3.3,0-4.6-2-4.6-4v-6.9c0-1.9,1.2-3.9,4.6-3.9c3.2,0,4.6,2,4.6,4v7
	C166.1,50.1,164.8,52.1,161.5,52.1z M163.8,41.2c0-1.4-1-1.8-2.3-1.8c-1.4,0-2.3,0.4-2.3,1.8v6.9c0,1.4,1.5,1.7,2.2,1.7h0.3
	c0.6,0,2.1-0.3,2.1-1.7V41.2z"/>
<path class="st1" d="M177.1,51.8h-1.7L172,46h-1l-0.4-0.4v5.8l-0.4,0.4h-1.6l-0.3-0.4V38l0.4-0.4h4.6c3.1,0,3.9,1.8,3.9,3.8v1
	c0,0.8-0.2,3.1-2.4,3.5c0.5,1,1.1,1.9,1.7,2.8l1.2,2v0.7L177.1,51.8z M173,43.9c1.3,0,1.7-0.4,1.7-1.5v-1c0-1.2-0.5-1.5-1.5-1.5
	h-2.6v4H173z"/>
<path class="st1" d="M182.6,51.8V39.9h-3l-0.4-0.4V38l0.4-0.4h8.5l0.4,0.4v1.5l-0.4,0.5h-3v11.5l-0.4,0.4h-2.1V51.8z"/>
</svg>
