<?xml version="1.0" encoding="utf-8"?>
<!-- Generator: Adobe Illustrator 23.0.3, SVG Export Plug-In . SVG Version: 6.00 Build 0)  -->
<svg version="1.1" id="stevnsfort" xmlns="http://www.w3.org/2000/svg" xmlns:xlink="http://www.w3.org/1999/xlink" x="0px" y="0px"
	 viewBox="0 0 155.9 99.2" style="enable-background:new 0 0 155.9 99.2;" xml:space="preserve">
<style type="text/css">
	.st0{fill:#38728D;}
	.st1{fill:#FFFFFF;}
	.st2{clip-path:url(#SVGID_2_);}
	.st3{clip-path:url(#SVGID_4_);fill:#FFFFFF;}
	.st4{clip-path:url(#SVGID_6_);fill:#FFFFFF;}
	.st5{clip-path:url(#SVGID_8_);fill:#FFFFFF;}
	.st6{clip-path:url(#SVGID_10_);fill:#FFFFFF;}
	.st7{clip-path:url(#SVGID_12_);fill:#FFFFFF;}
	.st8{clip-path:url(#SVGID_14_);fill:#FFFFFF;}
</style>
<title>kold-sidebar-desktop</title>
<rect x="-0.3" class="st0" width="156.9" height="99.7"/>
<g>
	<path class="st1" d="M65.8,9.9V10l2.5,3.2v0.4l-0.1,0.1h-0.6c-0.9-1.1-1.7-2.1-2.6-3.2h-0.7v3.1l-0.1,0.1h-0.7l0-0.1V6.1L63.5,6
		h0.7l0.1,0.1v3.4h0.6L67.4,6H68v0.1v0.4L65.8,9.9z"/>
	<path class="st1" d="M71.5,13.8c-1.7,0-2.4-0.9-2.4-2V7.9c0-0.9,0.6-2,2.4-2c1.8,0,2.4,0.9,2.4,2v3.9
		C73.9,12.9,73.2,13.8,71.5,13.8z M73.1,7.9c0-0.9-0.7-1.2-1.5-1.2S70,7,70,7.9v3.9c0,0.9,1.1,1.2,1.4,1.2h0.2
		c0.5,0,1.4-0.2,1.4-1.2V7.9z"/>
	<path class="st1" d="M79.6,12.9v0.7l-0.1,0.1h-4.2v-0.1V6.1V6h0.7v0.1v6.7H79.6L79.6,12.9z"/>
	<path class="st1" d="M85.1,8v3.5c0.1,1.1-0.7,2-1.8,2c-0.1,0-0.1,0-0.2,0h-2.5l-0.1-0.1V6.1L80.6,6h2.5c1.1-0.1,2,0.7,2,1.8
		C85.1,7.9,85.1,8,85.1,8z M84.3,8c0.1-0.6-0.4-1.1-0.9-1.2c-0.1,0-0.1,0-0.2,0h-1.8v5.9h1.8c0.6,0,1.1-0.4,1.2-0.9
		c0-0.1,0-0.1,0-0.2V8z"/>
	<path class="st1" d="M88.8,9.9V10l2.5,3.2v0.4l-0.1,0.1h-0.6c-0.9-1.1-1.7-2.1-2.6-3.2h-0.7v3.1l-0.1,0.1h-0.7l-0.1-0.1V6.1L86.4,6
		h0.7l0.1,0.1v3.4h0.6L90.3,6h0.6c0,0,0,0.1,0.1,0.1v0.4L88.8,9.9z"/>
	<path class="st1" d="M97.4,13.7h-0.7l-1.9-3.3h-0.7l-0.5-0.2v3.5l-0.1,0.1h-0.6l-0.1-0.1V6.1L92.9,6h2.4c1.5,0,2,0.9,2,1.9v0.6
		c0,0.5-0.2,1.8-1.5,1.8l1.8,3L97.4,13.7L97.4,13.7z M95.1,9.7c0.9,0,1.2-0.2,1.2-1.1V8C96.3,7.2,96,7,95.1,7h-1.7v2.7L95.1,9.7z"/>
	<path class="st1" d="M99.6,13.6L99.6,13.6l-0.7,0.1l-0.1-0.1V6.1L98.9,6h0.7l0.1,0.1L99.6,13.6z"/>
	<path class="st1" d="M104.9,10.3l0.5-0.5h0.5c0,1.1,0,3.4,0,3.9l-0.1,0.1h-0.8v-0.4l-1.4,0.5c-1.9,0-2.2-0.9-2.2-2.1V8
		c0-0.7,0.4-2,2.4-2s2.2,0.6,2.4,1.8l-0.1,0.1h-0.7l-0.1-0.1c0-0.8-0.5-0.9-1.4-0.9c-0.7,0-1.5,0.1-1.5,1.2v3.5
		c0,1.1,0.5,1.3,1.5,1.3h1.4L104.9,10.3z"/>
	<path class="st1" d="M111.8,11.7c0,1.3-0.6,2-2.4,2c-1.8,0-2.2-0.7-2.4-1.9l0.1-0.1h0.7l0.1,0.1c0,0.7,0.6,1.1,1.4,1.1
		c1.3,0,1.5-0.4,1.5-1.2c0-0.5-0.2-0.9-0.6-1.1c-0.7-0.4-1.3-0.6-2.1-1.1c-0.7-0.4-1.1-0.9-0.9-1.8c0-1.1,0.6-1.9,2.2-1.9
		s2.2,0.5,2.2,1.8l-0.1,0.1H111l-0.1-0.1c0-0.7-0.2-0.9-1.4-0.9S108,7.1,108,7.8c0,0.5,0.2,0.9,0.7,1.1l1.9,0.8
		C111.4,10,111.9,10.9,111.8,11.7z"/>
	<path class="st1" d="M119,6.1v7.4l-0.1,0.1h-0.7l-0.1-0.1V7.4l-0.1,0.5c-0.5,1.1-1.1,2.2-1.5,3.3h-0.7l-1.5-3.3l-0.2-0.5v6.1
		l-0.1,0.1h-0.7l-0.1-0.1V6.1l0.1-0.1h0.9l1.9,3.9l1.9-3.9L119,6.1L119,6.1z"/>
	<path class="st1" d="M125.1,6.1v5.5c0,1.4-0.7,2.1-2.4,2.1s-2.4-0.7-2.4-2.1V6.1l0.1-0.1h0.7l0.1,0.1v5.4c0,0.9,0.6,1.3,1.5,1.3
		s1.5-0.4,1.5-1.3V6.1l0.1-0.1L125.1,6.1L125.1,6.1z"/>
	<path class="st1" d="M131,11.7c0,1.3-0.6,2-2.4,2c-1.8,0-2.2-0.7-2.4-1.9l0.1-0.1h0.7l0.1,0.1c0,0.7,0.6,1.1,1.4,1.1
		c1.3,0,1.5-0.4,1.5-1.2c0-0.5-0.2-0.9-0.6-1.1c-0.7-0.4-1.3-0.6-2.1-1.1c-0.7-0.4-1.1-0.9-0.9-1.8c0-1.1,0.6-1.9,2.2-1.9
		c1.7,0,2.2,0.5,2.2,1.8l-0.1,0.1h-0.7l-0.1-0.1c0-0.7-0.2-0.9-1.4-0.9s-1.4,0.4-1.4,1.1c0,0.5,0.2,0.9,0.7,1.1l1.9,0.8
		C130.7,10,131.2,10.9,131,11.7z"/>
	<path class="st1" d="M132.3,13.6V6.1l0.1-0.1h4.2l0.1,0.1v0.7L136.7,7h-3.5v2.4h3.3l0.1,0.1v0.7l-0.1,0.1h-3.3V13h3.5l0.1,0.1v0.6
		l-0.1,0.1h-4.2L132.3,13.6z"/>
	<path class="st1" d="M142.8,6.1v5.5c0,1.4-0.7,2.1-2.4,2.1s-2.4-0.7-2.4-2.1V6.1l0.1-0.1h0.7l0.1,0.1v5.4c0,0.9,0.6,1.3,1.5,1.3
		c0.9,0,1.5-0.4,1.5-1.3V6.1l0.1-0.1L142.8,6.1L142.8,6.1z"/>
	<path class="st1" d="M150,6.1v7.4l-0.1,0.1h-0.7l-0.1-0.1V7.4L149,7.9c-0.5,1.1-1.1,2.2-1.5,3.3h-0.7l-1.5-3.3L145,7.4v6.1
		l-0.1,0.1h-0.7l-0.1-0.1V6.1l0.1-0.1h0.9l1.9,3.9l1.9-3.9L150,6.1L150,6.1z"/>
	<path class="st1" d="M66.8,18.6c0.8,0.4,1.3,1.2,1.2,2c0,1.4-0.6,2.1-2.5,2.1c-1.9,0-2.4-0.8-2.4-2.1l0.2-0.2h0.8l0.2,0.2
		c0,0.6,0.5,0.8,1.2,0.8c0.9,0,1.3-0.2,1.3-0.9c0-0.4-0.1-0.7-0.5-0.8l-2-0.9c-0.7-0.4-1.2-1.1-1.1-1.9c0-1.2,0.6-2,2.4-2
		c1.8,0,2.4,0.5,2.4,2l-0.2,0.2h-0.9l-0.2-0.2c0-0.6-0.2-0.7-1.1-0.7s-1.1,0.4-1.1,0.8c0,0.4,0.1,0.7,0.5,0.8L66.8,18.6z"/>
	<path class="st1" d="M70.7,22.7v-6.4h-1.7l-0.2-0.2v-0.8l0.2-0.2h4.5l0.2,0.2v0.8l-0.2,0.2h-1.7v6.1l-0.2,0.2
		C71.7,22.7,70.7,22.7,70.7,22.7z"/>
	<path class="st1" d="M74.7,22.4v-7.1l0.2-0.2h4.2l0.2,0.2v0.8l-0.2,0.2H76v1.8h3l0.2,0.2v0.8L79,19.5h-3v2.1h3.2l0.2,0.2v0.7
		l-0.2,0.2h-4.1L74.7,22.4z"/>
	<path class="st1" d="M86.2,15.3v0.4l-2,7h-1.9c-1.4-5.1-1.8-6-2-6.8v-0.5l0.2-0.2h0.8l1.8,6.4h0.1l1.8-6.4h0.8L86.2,15.3z"/>
	<path class="st1" d="M92.1,15.3v7.1L92,22.7h-1.2l-2.1-4.4l-0.2-0.6v4.8l-0.2,0.1h-0.8l-0.2-0.2v-7.1l0.2-0.2h1.1l2.2,4.5l0.2,0.7
		v-5l0.2-0.2H92L92.1,15.3z"/>
	<path class="st1" d="M96.9,18.6c0.8,0.4,1.3,1.2,1.2,2c0,1.4-0.6,2.1-2.5,2.1s-2.4-0.8-2.4-2.1l0.2-0.2h0.8l0.2,0.2
		c0,0.6,0.5,0.8,1.2,0.8c0.9,0,1.3-0.2,1.3-0.9c0.1-0.4-0.1-0.7-0.5-0.8l-2-0.9c-0.7-0.2-1.2-1.1-1.1-1.8c0-1.2,0.6-2,2.4-2
		c1.8,0,2.4,0.5,2.4,2L98,17.2h-0.8L96.9,17c0-0.6-0.2-0.7-1.1-0.7c-0.9,0-1.1,0.2-1.1,0.7c0,0.4,0.1,0.7,0.5,0.8L96.9,18.6z"/>
	<path class="st1" d="M99.3,22.7v-7.3l0.2-0.2h4.2l0.2,0.2v0.8l-0.2,0.2h-3.2v1.8h3l0.2,0.2v0.8l-0.2,0.2h-3v3.2l-0.2,0.2h-1.1V22.7
		z"/>
	<path class="st1" d="M107.3,22.9c-1.8,0-2.5-1.1-2.5-2.1v-3.7c0-0.9,0.6-2.1,2.5-2.1c1.2-0.1,2.2,0.6,2.5,1.8c0,0.1,0,0.2,0,0.2
		v3.7C109.8,21.8,109.1,22.9,107.3,22.9z M108.5,17c0-0.7-0.6-0.9-1.2-0.9c-0.6,0-1.2,0.2-1.2,0.9v3.7c0,0.7,0.8,0.9,1.2,0.9h0.1
		c0.4,0,1.2-0.1,1.2-0.9L108.5,17z"/>
	<path class="st1" d="M115.7,22.7h-0.9l-1.8-3.1h-0.6l-0.2-0.2v3.1l-0.2,0.2h-0.8l-0.2-0.2v-7.1l0.2-0.2h2.5c0.9-0.1,1.9,0.5,2,1.5
		c0,0.1,0,0.4,0,0.5v0.6c0,0.4-0.1,1.7-1.3,1.9c0.2,0.5,0.6,1.1,0.8,1.5l0.6,1.1v0.4V22.7z M113.6,18.5c0.7,0,0.9-0.2,0.9-0.8v-0.5
		c0-0.6-0.2-0.8-0.8-0.8h-1.4v2.1L113.6,18.5z"/>
	<path class="st1" d="M118.6,22.7v-6.4H117l-0.2-0.2v-0.8L117,15h4.5l0.2,0.2v0.8l-0.2,0.2h-1.7v6.1l-0.2,0.2
		C119.6,22.7,118.6,22.7,118.6,22.7z"/>
</g>
<g id="Vector_Smart_Object_1_">
	<g>
		<g>
			<defs>
				<rect id="SVGID_1_" x="60.9" y="27.8" width="91" height="74.3"/>
			</defs>
			<clipPath id="SVGID_2_">
				<use xlink:href="#SVGID_1_"  style="overflow:visible;"/>
			</clipPath>
			<g class="st2">
				<g>
					<defs>
						<rect id="SVGID_3_" x="60.9" y="27.8" width="91" height="74.3"/>
					</defs>
					<clipPath id="SVGID_4_">
						<use xlink:href="#SVGID_3_"  style="overflow:visible;"/>
					</clipPath>
					<path class="st3" d="M62.2,44L62,44.3l0,0l0,0l0,0L62.2,44C62.2,44,62.2,44,62.2,44"/>
				</g>
				<g>
					<defs>
						<rect id="SVGID_5_" x="60.9" y="27.8" width="91" height="74.3"/>
					</defs>
					<clipPath id="SVGID_6_">
						<use xlink:href="#SVGID_5_"  style="overflow:visible;"/>
					</clipPath>
					<path class="st4" d="M151.1,66c-1.5-5-5.3-8-12.8-10.4c-6.8-2.1-9.7-2.6-16.1-3.7h-0.1l-0.1-0.1v0.1c-1.2-0.2-2.4-0.4-3.9-0.7
						c-4.8-0.8-10-2.2-14-3.4c0-0.2,0-0.3,0-0.5c0-0.1,0-0.1,0-0.2c0.1,0,0.2,0,0.3,0.1c0.1,0.1,0.3,0.1,0.5,0.1h0.2v-0.2
						c-0.1-0.4-0.4-0.5-0.6-0.6c-0.1,0-0.3-0.1-0.3-0.2v-1.1l-0.3,0.7c-0.1,0.3-0.1,0.7-0.2,1.1c0,0.2,0,0.4,0,0.6
						c-0.3-0.1-0.6-0.2-0.9-0.3l-0.2-0.1l0,0c-2.9-0.9-5-1.7-5-1.7c-5.2-1.5-18.8-8.8-19-8.9c-4.6-2.7-8.7-3.5-12.2-2.3h-0.1v0.1
						c-0.7,0.2-1.3,0.5-1.8,0.9c-3.4,2-4.4,9.3-3.1,15C63,56.8,76,67.7,82.2,72l0,0h0.1c0.5,0.3,0.9,0.6,1.3,0.8
						c11.4,7.1,21.5,9.9,36.1,9.9c15.1,0,29.4-5.2,30.9-6.9C152.2,74,152.4,70.3,151.1,66 M151.3,71.9c-0.2,0.1-0.6,0.2-1.2,0.3
						l0.1-3.5c0.4-0.1,0.7-0.2,0.9-0.2C151.3,69.8,151.4,71,151.3,71.9 M146.3,73.1l-0.2-3.8c1.8-0.2,3.1-0.4,4-0.6l-0.1,3.5
						C149,72.5,147.8,72.8,146.3,73.1 M87.6,74.4l-2.7-2.7l-0.3-3.8c1.1,0.5,2.1,1.1,3.3,1.6l0.4,3.7L87.6,74.4L87.6,74.4
						 M86.3,73.7c-0.5-0.3-1-0.6-1.5-0.9v-0.6L86.3,73.7z M63.1,50c0.7,1,1.6,2.2,2.6,3.5l0.4,3.3c-1-1.2-1.8-2.2-2.4-3.3L63.1,50z
						 M61.5,46.7c-0.1-1.3,0-2.5,0.1-3.7c0.2,0.3,0.6,0.7,1,1.2l-0.1,4.6C62,47.8,61.7,47.1,61.5,46.7 M61.7,42.5
						c0.2-1.6,0.6-2.9,1.2-4.1l-0.2,5.2C62.2,43.1,61.9,42.7,61.7,42.5 M62.9,49.1l0.1-4.7c0.7,0.7,1.7,1.7,2.8,2.6l-0.1,5.1
						l-0.3,0.6C64.3,51.3,63.4,50.1,62.9,49.1L62.9,49.1z M67.5,48.6l-1.6,3v-4.3C66.5,47.7,66.9,48.1,67.5,48.6 M94.2,55.7
						c-1-0.4-1.8-0.7-2.6-1.1l-0.1-0.1l0.7-10.2c1,0.5,1.9,0.9,2.8,1.3l-0.8,9.9V55.7z M142.1,74l-0.2-4.3c1.5-0.1,2.7-0.2,3.9-0.3
						l0.2,3.8C144.8,73.5,143.5,73.7,142.1,74 M119.6,82l-0.8-5.4c0.4,0,0.8,0,1.2,0c0.6,0,1.2,0,1.8,0l0.1,4L119.6,82L119.6,82z
						 M106.6,75.3c1,0.2,2,0.4,3.1,0.6l-2.5,4.6L106.6,75.3z M103.5,74.3l-0.1-9.1l0.1-0.3l0.1-0.1l0,0l2.4,4.2l0.1,5.7
						C105.3,74.7,104.4,74.5,103.5,74.3 M82.8,66.5v-0.2v-2.5l1.5-4.8l-0.1,8.3C83.8,67,83.3,66.8,82.8,66.5 M78.9,64.2L78.9,64.2
						l0.2-4.5l2.6-0.8v6.8C80.8,65.3,79.8,64.8,78.9,64.2 M75.8,62.2v-1.4l3-0.9L78.6,64C77.6,63.5,76.7,62.8,75.8,62.2 M69.4,56.9
						v-7c0.9,0.7,1.9,1.4,3,2l0.1,7.7c-0.9-0.7-1.7-1.4-2.3-2C69.9,57.4,69.6,57.1,69.4,56.9L69.4,56.9z M68.2,48.7
						c0.2,0,0.5,0,0.9,0v0.6C68.8,49.1,68.5,48.9,68.2,48.7 M84.7,51.6c-0.5-0.2-0.9-0.4-1.4-0.5l0.5-7l1.4-0.7L84.7,51.6L84.7,51.6
						z M84.7,52l-0.3,5.6l-1.5-1.3l0.4-4.9C83.7,51.7,84.2,51.9,84.7,52 M106.7,53.2l-0.4,5.6l0,0c-0.9-0.2-1.8-0.4-2.8-0.6l0.7-9.5
						l0.9,1l1.6,2.2l-0.2,0.7L106.7,53.2z M122.7,62.5l0.2,5.7c-0.4-0.1-0.9-0.1-1.3-0.2l-0.1-5.9C121.9,62.3,122.3,62.4,122.7,62.5
						 M132.6,75.4l-0.3-5.8c0.5,0,1,0.1,1.4,0.1v5.6C133.4,75.3,133,75.3,132.6,75.4 M126.6,75.9l-0.1-6.8c1.2,0.1,2.3,0.2,3.4,0.3
						l0.3,6.1v0.1C129.1,75.8,127.9,75.9,126.6,75.9 M122,76.2l-0.4-7.7c0.5,0.1,0.9,0.1,1.3,0.2l-0.2,7.5
						C122.5,76.2,122.3,76.2,122,76.2 M123.2,68.7c1.1,0.1,2,0.3,3,0.4l0.1,6.9c-1.1,0.1-2.2,0.1-3.3,0.2L123.2,68.7z M131.2,69.1
						c-0.3,0-0.7,0-1-0.1v-4.4c0.4,0.1,0.8,0.3,1.2,0.4L131.2,69.1L131.2,69.1z M130.6,75.6v-0.2l-0.3-6c0.3,0,0.7,0,1,0.1l0.3,6
						C131.3,75.5,130.9,75.6,130.6,75.6 M134.1,69.7c1.3,0.1,2.4,0.1,3.5,0.1l0.3,5c-1.3,0.2-2.5,0.4-3.8,0.6L134.1,69.7L134.1,69.7
						z M137.6,69.3c-1.1,0-2.2,0-3.5-0.1v-0.1l0.1-3.1c1.4,0.5,2.5,1.1,3.5,1.5L137.6,69.3z M137.9,67.7c1.4,0.7,2.4,1.3,3.1,1.6
						c-1,0-2,0.1-3.1,0.1V67.7z M133.8,69.1L133.8,69.1c-0.5,0.1-1,0-1.5,0l0,0l0.2-3.7c0.5,0.2,0.9,0.3,1.4,0.5L133.8,69.1z
						 M132.5,65l0.1-1.9l1.3-0.8l-0.1,3.2C133.4,65.3,133,65.2,132.5,65 M131.5,64.6c-0.3-0.1-0.6-0.2-0.9-0.3l1-0.6L131.5,64.6z
						 M130,64.5V69c-1.1-0.1-2.2-0.2-3.4-0.3v-5.2C127.8,63.9,128.9,64.1,130,64.5 M126.6,63.1l0.2-3.5l2.9,4.5
						C128.7,63.7,127.7,63.4,126.6,63.1 M126.3,68.6c-1-0.1-2-0.2-3.1-0.4l-0.3-5.7c0.6,0.2,1.3,0.3,1.9,0.5
						c0.5,0.1,0.9,0.2,1.4,0.4L126.3,68.6L126.3,68.6z M119.4,61.2l2.5-8.1l-0.7,8.5C120.6,61.5,120,61.3,119.4,61.2 M121.2,62.1
						l0.1,5.9c-0.2,0-0.4-0.1-0.6-0.1l-2.2-3.2V64l0.8-2.4C119.9,61.8,120.5,61.9,121.2,62.1 M106.6,74.9l-0.1-5.3l3.3,5.7v0.1
						C108.7,75.3,107.6,75.1,106.6,74.9 M106.4,59.3l-0.1,3l-2.7,1.9v-5.5C104.5,58.9,105.5,59.1,106.4,59.3 M111.4,60.3L111.4,60.3
						L110,61V60C110.4,60.1,110.9,60.2,111.4,60.3 M118.1,64.9L118.1,64.9l-0.1,2.6c-0.6-0.1-1.1-0.2-1.7-0.3L118.1,64.9z
						 M116.1,67.2c-0.5-0.1-1-0.2-1.4-0.3l0.1-4.5l3.1,2.2L116.1,67.2z M104.3,64.6C104.3,64.6,104.2,64.5,104.3,64.6l1.8-1.1
						l-0.1,1.5C105.5,64.9,104.9,64.7,104.3,64.6 M111.4,61.4l-0.5,4.7c-0.3-0.1-0.6-0.1-0.8-0.2l-0.1-3.3v-1.2l1.5-0.8L111.4,61.4z
						 M111.4,64v2.3c-0.1,0-0.2,0-0.3-0.1L111.4,64z M110.2,69.5v-3.1c0.3,0.1,0.5,0.1,0.8,0.2l-0.7,6.8L110.2,69.5z M109.7,61.2
						l-3.2,1.7v-0.4l3.1-2.2L109.7,61.2z M106.2,63.1l-1.6,0.9l1.7-1.2L106.2,63.1z M106.5,63.4l3.2-1.8l0.1,2.4v1.8
						c-1.1-0.3-2.2-0.5-3.4-0.8L106.5,63.4z M111.1,66.7c0.1,0,0.2,0,0.3,0.1l0.2,6.3l-1.4,1.8L111.1,66.7z M111.8,66.8
						c0.9,0.2,1.8,0.4,2.5,0.5l0.1,2l-2.4,3.3L111.8,66.8z M114.6,67.4c0.4,0.1,0.8,0.1,1.2,0.2l-1.1,1.4L114.6,67.4z M114.3,66.9
						c-0.9-0.2-1.8-0.3-2.6-0.5l-0.1-5.1l0.1-0.7l0.2-0.1l0.1-0.1l2.4,1.8L114.3,66.9z M106.5,62.1l0.1-2.7c1.1,0.2,2,0.4,2.8,0.6
						L106.5,62.1z M103.1,64.7L103.1,64.7v0.4l-2.4,6.1l-0.6-7.4C101.1,64.1,102.1,64.4,103.1,64.7 M100.1,63.5l0.1-1.2l2.1,1.8
						C101.6,63.9,100.8,63.7,100.1,63.5 M104.2,65c0.6,0.2,1.3,0.3,1.8,0.5l0.1,2.9L104.2,65L104.2,65 M106.4,65.5
						c1.2,0.3,2.3,0.6,3.4,0.8V68v6.7l-3.4-5.8V65.5z M110.9,74.8l0.9-1.2v0.5L110.9,74.8z M111.7,74.6v1.2c-0.5-0.1-1-0.1-1.5-0.2
						L111.7,74.6z M112,73.2l2.5-3.4l0.1,2.2l-2.6,1.8V73.2z M114.7,69.5l1.4-1.8c0.7,0.1,1.3,0.2,1.9,0.4v0.1l0.1,1.6l-3.3,2.3
						L114.7,69.5z M118.3,68L118.3,68c0.6,0.1,1.1,0.2,1.6,0.2l-1.6,1.1V68z M118.4,67.6l0.1-2.2l1.8,2.5
						C119.7,67.7,119,67.7,118.4,67.6 M118.5,63v-1.5c0.1,0,0.3,0.1,0.4,0.1L118.5,63z M118.2,64l-0.1,0.4l-3.3-2.4v-1.1
						c1.1,0.2,2.1,0.4,3.5,0.6L118.2,64z M114.5,61.7l-1.7-1.2c0.4,0.1,0.7,0.1,1,0.2c0.2,0,0.5,0.1,0.7,0.1V61.7z M111.4,59.9
						c-0.4-0.1-0.9-0.2-1.4-0.2l1.8-6.3L111.4,59.9z M106.6,58.9L106.6,58.9l0.4-5.2l1.3,2.6l1.3,3.1
						C108.6,59.3,107.7,59.2,106.6,58.9 M103.1,64.2l-2.9-2.4l0.2-3.6V58c0.9,0.2,1.8,0.4,2.7,0.7V64.2z M100.1,58L100.1,58
						C100.1,57.9,100.1,57.9,100.1,58L100.1,58z M100.1,58.1l-0.2,3.4l-1.6-1.3L100.1,58.1L100.1,58.1z M99.9,62.1l-0.1,1.4
						c-0.9-0.3-1.7-0.5-2.5-0.8l0.1-1.2l0.8-1L99.9,62.1z M91.6,70.5v-1.9l2.7-3.4l0.4,6.4C93.6,71.3,92.6,70.9,91.6,70.5
						 M82.8,58.3v-0.7c0.3,0.1,0.6,0.3,0.9,0.4L82.8,58.3z M84.3,58.3l-1.4,4.5v-4.1L84.3,58.3z M74.4,61.2l1.1-0.3v1.2
						C75.1,61.7,74.7,61.4,74.4,61.2 M73.9,60.8c-0.5-0.3-0.9-0.7-1.3-1l-0.1-7.7c0.9,0.6,1.8,1.2,2.8,1.8v6.5L73.9,60.8z M75.8,54
						c1,0.6,2,1.2,3.2,1.8l-0.1,3.7l-3,0.9L75.8,54L75.8,54z M75.8,53.4l0.2-2.6l3.1,2.7L79,55.3l0,0C77.8,54.7,76.9,54.1,75.8,53.4
						L75.8,53.4z M93.6,61.4c-0.8-0.3-1.5-0.5-2.1-0.8v-5.2L93.6,61.4L93.6,61.4z M94.1,62.1l0.2,2.6L91.6,68v-1.3l2.2-4.9
						C93.9,62,94,62,94.1,62.1 M94.4,62.2c0.5,0.2,1,0.3,1.6,0.5l-1.4,1.7L94.4,62.2z M89.6,69.7l1-8.9c0.2,0.1,0.4,0.1,0.6,0.2v0.2
						l0.1,5.4l-1.5,3.1C89.8,69.8,89.7,69.7,89.6,69.7 M89.7,70.2L89.7,70.2L89.7,70.2C89.6,70.2,89.6,70.2,89.7,70.2 M89.5,68.5
						l-0.7-8.4c0.5,0.2,1.1,0.4,1.6,0.6L89.5,68.5z M90.7,60.4l0.5-4.5v4.7C91,60.5,90.9,60.4,90.7,60.4 M91.3,68.3l-1.1,1.3
						l1.1-2.3V68.3z M91.6,66.1l-0.1-4.8v-0.2c0.7,0.2,1.3,0.5,1.9,0.7L91.6,66.1z M90.4,60.4c-0.6-0.2-1.1-0.4-1.7-0.6l-0.5-6l0,0
						c0.9,0.4,1.8,0.8,2.7,1.3L90.4,60.4z M88.2,55.4l0.4,4.2c-0.2-0.1-0.4-0.1-0.5-0.2L88.2,55.4z M87.7,59.3
						c-1-0.4-1.9-0.8-2.9-1.2L84.7,58l3.2-4.4L87.7,59.3z M82.8,56.8l0.8,0.7c-0.3-0.1-0.6-0.3-0.9-0.4L82.8,56.8L82.8,56.8z
						 M81.7,56.7c-0.9-0.4-1.7-0.8-2.4-1.2v-0.1l0.1-1.6l2.4,2.1L81.7,56.7z M79.2,55.9c0.8,0.4,1.6,0.8,2.4,1.2v1.5L79,59.3
						L79.2,55.9z M87.7,59.7l0.1,6.1l-2.9-7.3C85.7,58.9,86.7,59.3,87.7,59.7 M88,59.9c0.2,0.1,0.4,0.2,0.6,0.2l0.8,9.5h-0.1l-1.2-3
						L88,59.9z M91.3,68.9v1.5c-0.3-0.1-0.6-0.2-0.9-0.4L91.3,68.9z M94.6,64.9l1.8-2.1c0.2,0.1,0.5,0.2,0.7,0.2l0.6,9.5v0.1
						c-0.9-0.3-1.8-0.6-2.6-0.9L94.6,64.9z M96.6,62.4l0.5-0.6v0.7C96.9,62.5,96.7,62.5,96.6,62.4 M97.4,60.9v-1l0.4,0.4L97.4,60.9z
						 M97.1,61.3l-0.9,1.1c-0.6-0.2-1.3-0.4-1.8-0.6v-4.2l2.7,2.2V61.3z M94.1,61.6c-0.1,0-0.1,0-0.2-0.1l0.1-0.2l-2.3-6l2.4,2V61.6
						z M88.4,53.2c-0.1,0-0.1-0.1-0.2-0.1l0,0l0.4-7.5l2.5,8.9C90.2,54,89.2,53.6,88.4,53.2 M84.7,57.5l0.3-5.4
						c1,0.4,1.8,0.8,2.8,1.3L84.7,57.5z M81.8,55.5l-2.4-2.1l0.2-2.9c0.3,0.1,0.7,0.2,1,0.3c0.6,0.2,1.1,0.3,1.6,0.5L81.8,55.5z
						 M79.1,53.1L76,50.3l0.1-0.8c1,0.2,2,0.5,3.2,0.8L79.1,53.1z M75.8,50.1l-1-0.8c0.3,0.1,0.7,0.1,1,0.2V50.1z M75.7,50.6
						l-0.2,2.8c-1-0.6-1.9-1.2-2.8-1.8l0.2-2.7c0.4,0.1,0.9,0.1,1.3,0.2L75.7,50.6z M69.4,48.7c0.8,0,1.8,0.1,3.1,0.3l-0.2,2.6
						c-1.1-0.7-2.1-1.5-3-2L69.4,48.7z M69.1,57.2l0.2,2.6l-2.7-5.2C67.3,55.5,68.2,56.4,69.1,57.2 M69.4,57.5
						c0.2,0.2,0.4,0.4,0.6,0.5c0.8,0.7,1.6,1.5,2.5,2.1v0.6l-2.8-0.3L69.4,57.5z M72.8,60.4c0.2,0.1,0.4,0.3,0.6,0.4l-0.5-0.1
						L72.8,60.4z M75.5,62.5L75.5,62.5L75.5,62.5L75.5,62.5z M84.6,58.8l3.2,7.9v2.2c-1.2-0.5-2.2-1-3.2-1.6V58.8z M88.1,67.4
						l0.8,1.9c-0.3-0.1-0.5-0.2-0.8-0.3V67.4z M89,69.9l0.3,0.8v0.1l0,0l-0.9,1.8l-0.4-3.1C88.4,69.7,88.7,69.8,89,69.9 M90.1,70.4
						c0.4,0.2,0.8,0.3,1.2,0.5l0.2,1.8l-1.8-1.9L90.1,70.4z M91.7,71c1,0.4,2,0.8,3.1,1.2l0.3,4.6l-3.2-3.6L91.7,71z M95.1,72.2
						c0.9,0.3,1.8,0.6,2.6,0.9l0.3,2.5l-1.8,2.2l-0.7-0.8L95.1,72.2z M98,73.1c0.6,0.2,1.1,0.3,1.7,0.5l-1.4,1.7L98,73.1z
						 M97.9,72.7v-0.2l-0.6-9.4c0.8,0.3,1.7,0.5,2.5,0.8l0,0l0.6,8.1l-0.5,1.4C99.3,73.1,98.6,72.9,97.9,72.7 M100.4,72.6l0.1,0.7
						v0.1c-0.1,0-0.2-0.1-0.4-0.1L100.4,72.6z M100.8,73.2l-0.1-1.3l2.4-6l0.1,8.3c-0.8-0.2-1.7-0.4-2.4-0.7V73.2z M111.8,76.2
						l0.8,4.1l-2.1-4.3C110.9,76.1,111.4,76.1,111.8,76.2 M112.1,75.8l-0.1-1.5l2.6-1.8l0.2,3.3V76C113.9,76,113,75.9,112.1,75.8
						 M115.1,75.8l-0.2-3.4l3.3-2.3l0.3,6.2c-1.2,0-2.2-0.1-3.4-0.1L115.1,75.8z M118.4,69.8l2-1.5c0.3,0,0.6,0.1,0.9,0.1l0.4,7.7
						c-1,0-1.9,0-2.9,0L118.4,69.8z M122,76.6c0.3,0,0.5,0,0.8,0l0.5,3.2l-1.2,0.7L122,76.6z M123.1,76.6c1.1,0,2.2-0.1,3.3-0.2
						l0.3,1.4l-3.1,1.8L123.1,76.6z M126.7,76.4c1-0.1,1.9-0.1,2.8-0.2l-2.5,1.5L126.7,76.4z M132.7,75.8c0.4,0,0.8-0.1,1.2-0.1
						l0.2,0.9l-1.3-0.3L132.7,75.8z M134.1,75.6c1.4-0.2,2.6-0.4,3.8-0.6l0.7,2.5l-4.3-1.1L134.1,75.6z M138.2,74.7l-0.3-4.9h0.2
						c1.3,0,2.4,0,3.5-0.1l0.2,4.4C140.6,74.3,139.4,74.5,138.2,74.7 M141.9,69.2l0.2-11.4c1.6,0.7,2.8,1.5,4,2.2l-0.3,8.7v0.2
						C144.6,69.1,143.3,69.2,141.9,69.2 M141.6,69.1c-0.5-0.3-1.8-1-3.7-1.9l0.1-7.3l3.7-2.1L141.6,69.1z M137.6,67.1
						c-1-0.5-2.1-1-3.5-1.5l0.1-3.4l3.5-2L137.6,67.1z M134.3,61.7l0.2-6.4c1.1,0.3,2.1,0.6,3.4,1.1l-0.1,3.4L134.3,61.7z M134,61.8
						l-1.3,0.8l0.4-7.7c0.4,0.1,0.7,0.2,1.1,0.3L134,61.8z M131.6,63.3l-1.3,0.8l0.3-9.7c0.5,0.1,1,0.2,1.4,0.3L131.6,63.3z
						 M130,63.8l-3.1-4.7l0.4-5.4c1.1,0.2,2,0.4,3,0.6L130,63.8z M126.6,58.6l-3-4.6l0.1-1.1c1.2,0.2,2.3,0.4,3.3,0.6L126.6,58.6z
						 M126.6,59.2l-0.3,3.8c-0.4-0.1-0.9-0.2-1.4-0.4c-0.7-0.2-1.4-0.4-2-0.5l0.5-7.5L126.6,59.2z M122.7,62
						c-0.4-0.1-0.8-0.2-1.2-0.3l0.7-9.1h0.1l1,1.5L122.7,62z M121.6,53.1l-2.5,8.2c-0.2,0-0.3-0.1-0.5-0.1l0.4-5.9L121.6,53.1z
						 M118.9,54.6l0.1-2.4c0.9,0.2,1.7,0.3,2.4,0.4L118.9,54.6z M118.3,61c-1.3-0.3-2.3-0.5-3.5-0.6v-0.1l0.1-2l3.7-2.8L118.3,61z
						 M114.5,60.2L114.5,60.2c-0.2,0.1-0.5,0-0.7,0c-0.4-0.1-0.9-0.1-1.3-0.2l2-1.7L114.5,60.2z M112.1,59.9l-0.3-0.2l2.1-8.5
						c0.4,0.1,0.8,0.2,1.2,0.3l-0.4,6.4L112.1,59.9z M111.9,57.8l0.7-6.9c0.4,0.1,0.7,0.2,1.1,0.2L111.9,57.8z M111.9,51.9L110,59
						l0.5-8.6c0.5,0.1,1.1,0.3,1.6,0.4L111.9,51.9z M109.7,59l-1.2-2.9l-1.5-3l0.3-3.6c0.9,0.3,1.8,0.5,2.8,0.8L109.7,59z
						 M106.8,51.8l-1.6-2.3l-0.6-0.6c0.8,0.2,1.5,0.4,2.2,0.7L106.8,51.8z M103.9,48.6l-0.7,9.6c-1-0.2-1.8-0.4-2.7-0.6l1-9.8
						C102.2,48,103,48.3,103.9,48.6 M100.1,57.5c-1-0.2-1.8-0.5-2.6-0.7l0.8-10c0.6,0.2,1.6,0.5,2.7,0.9L100.1,57.5z M99.8,57.9
						l-1.8,2.1l-0.7-0.5l0.1-2.3C98.3,57.4,99.1,57.6,99.8,57.9 M97.2,59.3L94.5,57v-0.8c0.9,0.3,1.8,0.6,2.8,0.9L97.2,59.3z
						 M94.2,56.8l-1.6-1.3c0.5,0.2,1,0.4,1.6,0.6V56.8z M91.3,53.8l-2.5-9.1l0.1-1.9c1.1,0.5,2,1,3.1,1.5L91.3,53.8z M88.4,43.9
						l-0.4-1.5c0.2,0.1,0.3,0.2,0.5,0.2L88.4,43.9z M88.4,44.8l-0.5,8.3c-1-0.5-1.9-0.9-3-1.4v-0.2l0.5-8.3l2.1-1.1c0,0,0,0,0.1,0
						L88.4,44.8z M85.4,42.8l0.1-1.6c0.5,0.3,1.1,0.5,1.6,0.8L85.4,42.8z M85.1,42.9l-1.3,0.7l0.2-3.1c0.4,0.2,0.8,0.4,1.3,0.6
						L85.1,42.9z M83,39.9l-0.3,4.2L80,45.5l0.5-6.9c0.8,0.4,1.7,0.9,2.7,1.4L83,39.9z M82.6,44.6l-0.5,6c-0.5-0.2-1-0.3-1.6-0.5
						c-0.3-0.1-0.7-0.2-1-0.3l0.3-4L82.6,44.6z M79.4,49.8c-1.2-0.3-2.2-0.6-3.2-0.8l0.1-1.4l3.4-1.7L79.4,49.8z M75.9,49.1
						c-0.6-0.1-1.2-0.2-1.7-0.3h-0.1l1.8-0.9L75.9,49.1z M73.8,48.4l-1-0.1l0.8-12.9c1.1,0.3,2.1,0.8,3.2,1.3l-0.9,10.7L73.8,48.4z
						 M72.6,48.4l-3.2-0.2l0.9-13.4c1,0,2,0.2,3.1,0.5L72.6,48.4z M69.1,49.7v6.9c-1.2-1.2-2.2-2.3-3.1-3.3l0,0v-1.1l1.8-3.5
						C68.2,49.1,68.6,49.4,69.1,49.7 M66.1,54.2L69,60c-0.9-0.9-1.8-1.8-2.5-2.7L66.1,54.2z M72.5,61.2l0.1,2.2
						c-0.9-0.9-1.8-1.7-2.7-2.5L72.5,61.2z M72.8,61.2l1.1,0.1l1.8,1.8l0.4,3.2c-1-0.9-2-1.7-3-2.6L72.8,61.2z M75.9,63.4l3,2.9
						l0.4,2.6c-1-0.7-1.9-1.6-3-2.3L75.9,63.4z M75.9,62.8L75.9,62.8c0.9,0.5,1.8,1.2,2.8,1.8l0.2,1.2L75.9,62.8z M79,64.7
						c0.9,0.5,1.8,1.1,2.7,1.6l0,0l-0.5,1.7l0.3,0.2l0.3-1.1l0.1,1.6l-2.7-2.7L79,64.7z M82.9,67c0.5,0.2,0.9,0.5,1.4,0.7l0.3,3.7
						L83.2,70L82.9,67z M88.4,73.7l0.1,1.2c-0.2-0.1-0.4-0.2-0.6-0.3L88.4,73.7z M88.5,73.2l0.9-1.8l0,0l0.1-0.3l1.9,2.2l0.3,3.2
						c-1.1-0.5-2-1-3.1-1.6L88.5,73.2z M91.9,73.7l3.2,3.6V78c-1-0.4-1.9-0.8-3-1.3L91.9,73.7z M95.4,77.6l0.5,0.5v0.1
						c-0.1,0-0.3-0.1-0.4-0.1L95.4,77.6z M96.3,78.2l1.8-2l0.4,3c-0.6-0.2-1.2-0.4-1.8-0.6l0,0L96.3,78.2z M98.3,75.8l1.8-2
						c0.2,0.1,0.4,0.1,0.6,0.2l0.9,6c-1-0.2-1.8-0.5-2.8-0.8L98.3,75.8z M100.9,74c0.8,0.2,1.6,0.4,2.4,0.6l0.7,5.9
						c-0.8-0.2-1.5-0.3-2.2-0.5l0,0L100.9,74z M103.6,74.7c0.9,0.2,1.8,0.4,2.6,0.6l0.6,5.7c-0.9-0.1-1.8-0.3-2.5-0.5L103.6,74.7z
						 M107.1,80.7l0.1,0.2l2.6-4.8l1.3,5.4c-1.4-0.1-2.6-0.3-4-0.5V80.7z M110.2,76.2l2.7,5.3l0.1,0.3c-0.5,0-1-0.1-1.5-0.1
						L110.2,76.2z M113.3,81.6l-0.1-0.3l-1.1-5.1c0.9,0.1,1.8,0.2,2.8,0.2l0.8,5.4C114.8,81.8,113.9,81.7,113.3,81.6L113.3,81.6z
						 M115.2,76.5c1.1,0.1,2.2,0.1,3.3,0.1v0.1l0.8,5.3c-1.2,0-2.2,0-3.3-0.1L115.2,76.5z M121.9,81.1v0.8c-0.5,0-1,0-1.5,0
						L121.9,81.1z M122.2,80.9l1.2-0.7l0.3,1.6c-0.5,0-1,0.1-1.4,0.1L122.2,80.9z M123.7,80.1l3.1-1.8l0.7,3.2
						c-1.2,0.1-2.4,0.2-3.6,0.3h0.1L123.7,80.1z M127,78.1l3.4-1.9l0.8,4.9c-1.2,0.2-2.2,0.3-3.4,0.5L127,78.1z M130.7,76.1l1,0.3
						l0.9,4.4c-0.4,0.1-0.8,0.1-1.1,0.2L130.7,76.1z M132.9,76.7l1.3,0.3l0.9,3.3c-0.5,0.1-0.9,0.2-1.4,0.3L132.9,76.7z M134.5,77.1
						l4.3,1.1l0.3,1.3c-1.2,0.3-2.4,0.6-3.7,0.9L134.5,77.1z M139.1,78.3l2.2,0.6c-0.6,0.2-1.3,0.4-1.9,0.5L139.1,78.3z M139,77.8
						l-0.7-2.7c1.3-0.2,2.4-0.4,3.6-0.6l0.8,4c-0.2,0.1-0.3,0.1-0.5,0.2L139,77.8z M142.1,74.4c1.5-0.3,2.8-0.6,4-0.8l0.8,3.3
						c-1.2,0.5-2.5,1-4.1,1.5h0.1L142.1,74.4z M151,68c-0.2,0-0.4,0.1-0.8,0.2l0.1-2.6c0.1,0.2,0.2,0.4,0.2,0.7
						C150.7,67,150.9,67.6,151,68 M150.1,65l-0.1,3.3c-0.9,0.2-2.2,0.4-4,0.6v-0.2l0.3-8.5C148.1,61.6,149.3,63.2,150.1,65
						 M141.4,57.5l-3.3,1.9l0.1-3.1l0,0C139.3,56.8,140.4,57.1,141.4,57.5 M123.3,53v0.7l-0.6-0.8C122.9,52.9,123.2,52.9,123.3,53
						 M118.8,52.2l-0.2,2.6l-3.7,2.8l0.4-6.1c0.9,0.2,1.8,0.4,2.7,0.5C118.3,52.1,118.5,52.1,118.8,52.2 M98.1,46.7l-0.8,10
						c-1-0.3-1.9-0.6-2.8-1v-0.2l0.8-9.9c0.9,0.3,1.7,0.6,2.2,0.8C97.5,46.5,97.7,46.5,98.1,46.7 M80.2,38.5l-0.5,7.1l-3.4,1.7
						l0.8-10.4c0.5,0.2,1,0.5,1.5,0.8C78.5,37.6,79.1,37.9,80.2,38.5 M70,34.8l-0.8,13.3L67.8,48l-0.1,0.2c-0.6-0.5-1.2-1-1.8-1.4
						l0.7-11.6C67.6,35,68.7,34.8,70,34.8C69.9,34.8,69.9,34.8,70,34.8 M64.7,36.1c0.5-0.3,1.1-0.6,1.6-0.8l-0.6,11.2
						c-1.2-1.1-2.1-1.9-2.8-2.6l0.2-6C63.6,37.1,64.1,36.5,64.7,36.1 M62,50c-0.2-0.8-0.3-1.6-0.4-2.4c0.2,0.5,0.6,1.1,1.1,1.8
						l0.6,3.5C62.6,51.9,62.2,50.9,62,50 M79.6,69.2l-0.3-2.5l2.7,2.6l0.1,1.7C81.3,70.5,80.5,69.9,79.6,69.2 M83.3,71.8l-0.1-1.3
						l1.4,1.4v0.7c-0.3-0.2-0.6-0.4-1-0.6C83.6,72,83.4,71.9,83.3,71.8 M150.1,75.1c-0.4,0.4-1.5,1-3.1,1.7l-0.8-3.3
						c1.5-0.3,2.7-0.6,3.6-0.9l0.5,2.1C150.3,74.9,150.2,75,150.1,75.1 M150.6,74.5l-0.4-1.8c0.5-0.1,0.9-0.2,1.1-0.3
						C151.2,73.2,150.9,73.9,150.6,74.5"/>
				</g>
				<g>
					<defs>
						<rect id="SVGID_7_" x="60.9" y="27.8" width="91" height="74.3"/>
					</defs>
					<clipPath id="SVGID_8_">
						<use xlink:href="#SVGID_7_"  style="overflow:visible;"/>
					</clipPath>
					<path class="st5" d="M100.5,45.7c0.1,0.4-0.1,0.4-0.1,0.7c0.1,0.4,0.1-0.8,0.4-0.7c0.4,0.1,0.2,1.1,0.7,1.2
						c0.2-0.2-0.1-0.9-0.1-1.3c-0.4,0.1-0.4-0.2-0.8-0.2c0-0.1,0-0.1,0-0.2l4.2,1.3V31.9l-0.7-0.6l-0.3-2.8l-0.6-0.2
						c-0.6-0.2-1.2-0.6-1.8-0.7c-0.2,0.3,0,1.2-0.2,1.4l-0.2,0.1v0.1c-0.4,0.1-0.1,1.3-0.2,1.8c0.1-0.1,0.2-0.4,0.2-0.6v0.6
						l-0.5,0.3c0-0.1,0-0.2,0-0.3c-0.5,0.4-0.3,1.6-0.3,2.3c0,3.6-0.1,8-0.2,11.7C100,45.7,100.4,45.4,100.5,45.7 M101.5,29
						L101.5,29c0-0.1,0-0.2,0-0.3V29z"/>
				</g>
				<g>
					<defs>
						<rect id="SVGID_9_" x="60.9" y="27.8" width="91" height="74.3"/>
					</defs>
					<clipPath id="SVGID_10_">
						<use xlink:href="#SVGID_9_"  style="overflow:visible;"/>
					</clipPath>
					<path class="st6" d="M125.5,66.7l0.1-3.6l0.8,0.1l-1.2-5.1l-2.3-2.4l-1.4-4.2l-2.7-1l-0.7,3.4l0.3,7.1l0.8,0.2l-0.4,5.6
						l0.5,2.8l1.6-1.1l0.8,1.8l-0.7,3.5l-1.4,1.5v0.2l-11.2,10.9l-1.3-2.2l3.8-8.5l-1.5-0.1l-3.8,7.6l-8.2-1.7l-0.8-3.1l-0.4,0.2
						l-1.3-0.4l1.2,3.6l-4,2.3h-0.2l-1.7-14.5l-1.1,0.2l1.8,16l3.5,4.8l5.6,7.4l0.1-0.2l0.1,0.3l0.5-0.3l0.5,0.5l1.9-4.8l1.4,6.6
						l2.4-5.4l1.2,2.5l0.6-0.6l1.7,2.7l3.8-5.9h2.9l-3.3,5.7l0.9,1.2l8.7-15.2l0.1,0.3l0.9-2.1l0,0l0.5-0.8l-0.4-0.5L125,75l0.5-2.6
						l0.3-1.8l0.8-1.8l0.2-1.9L125.5,66.7z M119.9,82.2l-0.9,1.3l-0.8-1.2l1.2-1.9l0,0L119.9,82.2z M115.4,86.9l0.8-1.2l0.6,1.5v0.1
						L115.4,86.9z M116.5,87.6l-0.7,1l-0.8-1.3l0.1-0.1L116.5,87.6z M115.9,83.4L115.9,83.4L115.9,83.4L115.9,83.4z M116.6,85.1
						l1.4-2.1l0.8,1.2l-1.6,2.4L116.6,85.1z M119.6,77.6L119.6,77.6l-2.2,3.7h-1.6L119.6,77.6z M116.8,82.2l-0.4,0.7l-0.7,0.3
						l-0.4-0.9L116.8,82.2L116.8,82.2z M114.7,82.2l0.4,1l-2.3,0.9L114.7,82.2z M112,84.9l3.3-1.3l0.2,0.5l-1.5,2.3h-0.1l-2.8-0.7
						L112,84.9z M113.6,87.3l-1.4,2.2l-1.7-2.6L113.6,87.3z M109.8,87.1l1.9,3.1l-0.6,0.9h-0.2L111,91l-1.9-3.2L109.8,87.1z
						 M106.1,85.1L106.1,85.1l1.4,2.2l-1.7,1.6l-0.8-1.7L106.1,85.1z M104.9,84.9l-0.7,1.5l-4.1-0.8l-1.5-2L104.9,84.9z M96.8,83.4
						l0.4,1.7l-2.4-0.5L96.8,83.4z M95.4,89.4L92.9,86l4.8,0.9l0.8,3l-2.9-0.4L95.4,89.4z M97,91.5l1.8,0.2l0.8,3.2L97,91.5z
						 M98.9,87.1l0.7,0.1l2.1,3.1l-2-0.3L98.9,87.1z M101.1,96l-1-4.1l2.5,0.3L101.1,96z M103.4,90.6l-2-3l2.6,0.5l0.8,1.8l-0.9,0.8
						L103.4,90.6z M105.1,96.3l-0.8-3.8l1.8,0.2l0.3,0.6L105.1,96.3z M106.7,91l-0.3-0.7l1.8-1.7l1.5,2.4h-2.2L106.7,91z
						 M110.4,96.9l-2.5-4.1h5.2L110.4,96.9z M114.2,91.1h-1.2l-0.1-0.2l1.8-2.8l0.7,1.2L114.2,91.1z M114.8,92.7l1.4-2.1l1.3,2.1
						H114.8z M117.9,92.2l-1.4-2.3l1.2-1.8h2.5L117.9,92.2z M118.3,87.1l1.2-1.8l1.3,1.8H118.3z M121.1,86.5l-1.3-1.8l0.8-1.3
						l1.8-0.2l0.2,0.5L121.1,86.5z"/>
				</g>
				<g>
					<defs>
						<rect id="SVGID_11_" x="60.9" y="27.8" width="91" height="74.3"/>
					</defs>
					<clipPath id="SVGID_12_">
						<use xlink:href="#SVGID_11_"  style="overflow:visible;"/>
					</clipPath>
					<polygon class="st7" points="91.4,54.9 99,50.5 102.5,52.2 106.8,52.7 107,51.1 103.8,47.7 101,46.7 100.9,48.6 99,48.3
						98.5,50.2 91.3,54.5 					"/>
				</g>
				<g>
					<defs>
						<rect id="SVGID_13_" x="60.9" y="27.8" width="91" height="74.3"/>
					</defs>
					<clipPath id="SVGID_14_">
						<use xlink:href="#SVGID_13_"  style="overflow:visible;"/>
					</clipPath>
					<rect x="96.4" y="97.2" class="st8" width="23" height="4.8"/>
				</g>
			</g>
		</g>
	</g>
</g>
</svg>
