<svg id="stevnsfort" xmlns="http://www.w3.org/2000/svg" width="55mm" height="35mm" viewBox="0 0 155.91 99.21">
  <defs>
    <style>
      .cls-1 {
        fill: #38728d;
      }

      .cls-2 {
        fill: #fff;
      }
    </style>
  </defs>
  <title>kold-sidebar-desktop</title>
  <rect class="cls-1" x="-0.33" width="156.89" height="99.67"/>
  <g>
    <path class="cls-2" d="M51.37,44.72h0v0l.27-.19a.22.22,0,0,0,0-.12Z"/>
    <path class="cls-2" d="M146.71,65.37l-.13,3.22c-.94.18-2.37.41-4.31.6V69l.29-7.45-.29-.27L142,69v.21c-1.21.12-2.6.22-4.18.28L138,58.2c.61.25,1.18.51,1.72.77l-1.89-1.73c-1.19-.47-2.49-.91-3.93-1.33a108.58,108.58,0,0,0-17.35-3.65l-.13,0-.08-.1,0,.09-.37-.06-.09-.26-3-.93-.15.7-.61-.09A142.33,142.33,0,0,1,97,48.17a1.28,1.28,0,0,0,0-.52v-.16a.73.73,0,0,1,.31.09.89.89,0,0,0,.57.08l.17,0,0-.24A.62.62,0,0,0,97.7,47V32.56L97,32l-.31-2.78L96,29A9.29,9.29,0,0,0,94,28.35c-.2.28,0,1.15-.24,1.37l-.16.05v.14c-.43.1-.1,1.3-.2,1.86a1.32,1.32,0,0,0,.2-.62v.62l-.48.29c0-.1,0-.19,0-.29-.55.43-.3,1.53-.3,2.27,0,3.54-.13,7.89-.2,11.55-.1.53.34.28.4.57s-.14.37-.1.71.11-.78.4-.71c.46.06.26,1.05.7,1.14.19-.19-.09-.9-.1-1.28-.38.1-.48-.18-.8-.15a.76.76,0,0,1,0-.15l3.48,1c0,.23,0,.5-.07.76a5.79,5.79,0,0,1-.05.61l-.93-.26-.22-.09v0l-1.7-.52v0C91.4,46.57,90,46.11,90,46.1c-5.54-1.49-20.32-8.73-20.46-8.8C64.86,34.79,60.62,34,57,34.83v.87a11.69,11.69,0,0,1,2.87-.35H60l-.85,13.22-1.47-.07-.1.16L57,48.25v.48c.12.1.25.19.38.28l-.38.67v.68l.66-1.15,1.38,1V57c-.74-.66-1.41-1.3-2-1.92v.53c.63.62,1.32,1.27,2.07,1.92l.23,2.63L57,56.11v.69l2,3.51c-.68-.63-1.34-1.27-2-1.9v1.05A106.65,106.65,0,0,0,73.25,72.25v0h.06c.49.31.94.58,1.34.81,2.41,1.4,4.78,2.62,7.14,3.7L82.92,86l3.8,4.68,5.43,6.56H88.67v1.33h24.82V97.26h-3l7.37-11.88.14.31,1-2.08v0l.49-.79,0,0c14-1,26.22-5.13,27.73-6.69,1.79-1.84,2.05-5.45.69-9.67ZM94.12,29.62c0-.11,0-.22,0-.33l0,.33Zm-35,20.08-.89-.61h.93ZM147,66c.09.21.16.43.24.65.19.6.36,1.19.48,1.76l-.82.18ZM146.57,69l-.06,3.49c-1,.22-2.33.51-4,.84l-.24-3.74C144.2,69.43,145.63,69.21,146.57,69Zm-4.57.62.24,3.77c-1.26.24-2.69.51-4.25.78l-.19-4.27C139.39,69.87,140.79,69.76,142,69.65Zm-8.27-12.89h0c1.27.36,2.43.75,3.5,1.15l-3.6,1.91Zm-.07,3.54,4-2.15-.21,11.27c-.53-.29-1.89-1-4-1.9ZM133.18,70l.32,4.89c-1.33.19-2.72.37-4.15.54V69.93C130.7,70,132,70,133.18,70Zm-3.83-.51v-.09l.09-3.06c1.43.52,2.68,1,3.76,1.49l0,1.74C132,69.57,130.69,69.55,129.35,69.5Zm4.2,5.83.74,2.55-4.58-1.07-.27-.94C130.86,75.7,132.24,75.52,133.55,75.33ZM133.49,70h.22c1.36,0,2.63,0,3.79-.08l.19,4.31c-1.22.2-2.53.41-3.89.61Zm0-2c1.53.66,2.65,1.21,3.34,1.56-1.05,0-2.17,0-3.37,0Zm-3.73-12.32c1.11.29,2.32.62,3.67,1L133.36,60l-3.79,2Zm3.59,4.82-.15,6.92c-1.07-.46-2.33-1-3.75-1.48l.1-3.42Zm-5-5.19,1.15.29-.2,6.61-1.39.74Zm-.47,8.11,1.4-.74-.09,3.15-1.42-.5Zm-.34,6,.21-3.67,1.43.5-.1,3.17v.08l-1.54-.08ZM127.11,55l-.5,8.59-1.37.73.34-9.65Zm-6.79,16,.64-1.5.07,6.74-1.57.08.06-1L120,72.7Zm-.22-4,.14-3.39.72.17v3.36Zm1,9.68.31,1.39-2.11,1.13.17-2.44Zm.2-9.49V63.8c1.29.34,2.52.69,3.67,1v4.41c-1.18-.08-2.4-.18-3.67-.31V67.73l.07-.59Zm0-3.77.26-3.45,3.19,4.42C123.63,64,122.48,63.68,121.27,63.36Zm.09,13.24c1-.06,2.06-.14,3.07-.22l-2.78,1.49Zm0-.43-.07-6.79c1.27.12,2.5.23,3.68.31l.34,6,0,.12C124,76,122.68,76.08,121.34,76.17Zm5.17-10.83-.23,4h0l-1-.06V64.93Zm-.93-.74,1-.54,0,.84Zm-.33,5.11,1,.07.33,6-1,.09,0-.16Zm0-15.11L124.94,64l-3.38-4.66L122,54C123.1,54.18,124.18,54.37,125.28,54.6Zm-7.21-1.23c1.3.2,2.48.38,3.59.57l-.37,5L118,54.41Zm-4.68,16.55,1.74-1,.58,1.29.06,1.18-.57,2.78-1.46,1.41v.15l-.77.69h-.1l-.38-6.33.83-.54ZM102.45,87.78l.68-.6,2.08,3.11-.59.84h-.19l.09-.12ZM97,86.4l-4.4-.73-1.47-2L97.77,85Zm.78,3.5-.91.81-.61-.08-2.19-3,2.85.47Zm-7.91-8.23-.54-2A65.82,65.82,0,0,0,99.38,82l-.74,1.37Zm-2.37-4.45-.32-4.8c.92.29,1.87.57,2.84.84l.31,2.54-2,2.22ZM88,78.3l0,0-.41-.14,0-.41ZM83.57,55.11l2.88-1.55-.2,2.36v.15C85.3,55.75,84.41,55.43,83.57,55.11Zm2.68,1.41v.68l-1.65-1.26C85.12,56.13,85.67,56.33,86.25,56.52Zm0,1.17,0,4.27L86,61.9l.09-.18-2.5-6.07Zm-.54,4-.06.1c-.79-.24-1.57-.49-2.33-.74V55.9Zm-.25.49-2.06,4.16-.08-4.76v-.09C84,61.73,84.73,62,85.45,62.18Zm.33.1.41.13L86.36,65,83.42,68.3l0-1.24Zm.62,3.22.43,6.37c-1.16-.37-2.28-.74-3.37-1.13l0-1.89Zm16.54-4.88,0,1-3.45,1.68,0-.38Zm-3.38,1.76.12-2.67c1.16.22,2.18.39,3.09.55ZM103,62l.07,2.41,0,1.75c-1.2-.24-2.42-.51-3.67-.78l.08-1.68Zm10,5.9-.63-.09.07-2.25.49.63-.07.93Zm.08.45.13.72-.77.51-.08-1.32v0ZM113.26,81l.17,1.08h-.91Zm-.13-2.72.55-.48v.11l-.49.71Zm-1.86,3.15h-1.52l0-.12,3.13-2.78.08.46Zm-1.74,1.75-.13-.3.86,0,0,0Zm.3.35-.09.12,0-.09Zm-7.24-7.46-2.4,4.43-.56-4.93C100.6,75.77,101.59,75.93,102.59,76.07Zm-3-.94-.1-5.23,3.63,5.73v.09C101.93,75.55,100.75,75.36,99.6,75.13Zm1.61,7.11c1.51.19,3.07.34,4.66.45l-4.26,3.79-1.4-2.17Zm3.13-15.81-.89-.18L103.34,63l0-1.13,1.55-.75v.66Zm.57-2.2,0,2.31-.28-.06Zm-1.46,2.46.84.17-.77,6.78-.07-3.9Zm1.14.22.35.07.23,6.28-1.51,1.88Zm.61,6.9,0,.51-.92.6Zm0,1,0,1.18c-.53,0-1.06-.12-1.58-.18Zm3.09-2.5-2.79,1.82,0-.69,2.69-3.34ZM108.22,62l-1.78-1.18,1.06.15.74.12Zm3.87,6.2v.07l.09,1.5-3.56,2.31-.14-2.36,1.5-1.85Zm-1.8-.72,1.87-2.32,0,0-.07,2.59Zm-3.5,14.38h0l.12-.14-.14-.26-1.12-5c1,.09,2,.18,3,.24l.5,3.09Zm2.12,1.52-2.52.89L108,82.82l.63,0Zm-2.71-3-2.19-4,.11-.22,1.19.13Zm2.25-11.25-.09-1.59,1.21.2Zm.11,6.85,0,.19c-1-.06-2-.14-3-.24l0-1.42,2.8-1.83Zm-3.07-3.18L105.27,67l2.78.51.12,2Zm-1.66,4,2.63,4.75.05.26-1.61-.12-1.17-4.69ZM105.56,85l3.52-1.23.23.5-1.61,2.34h-.11l-3-.7ZM109,76.69c1.17.07,2.34.11,3.52.12l-3,2.72Zm-.07-.44-.05-.27-.2-3.42,3.55-2.31.37,6.13C111.34,76.37,110.12,76.32,108.9,76.25Zm3.41-14.91c-1.4-.26-2.55-.44-3.75-.62v-.15l.13-2,3.54-2.5.16,3.92Zm0,.44-.08,2.48-.11.34-3.58-2.38,0-1.07C109.75,61.33,110.9,61.51,112.29,61.78Zm-.4,3.16-2,2.49-1.52-.26.14-4.48Zm-3.63-4.39v.12l-.73-.11-1.42-.21,2.26-1.6Zm-.06,1.94-.14,4.63c-.92-.17-1.85-.33-2.8-.52l-.06-5,.08-.72.16-.08.13-.09Zm-3.31-2.33-1.48-.23,1.91-6.28Zm0,.44v.06l-1.54.74,0-1Zm-1.35,16.92,1,4.2c-1-.08-2-.19-2.93-.31ZM103.13,75l-3.65-5.74-.06-3.4,3.68.78,0,1.71Zm-3.22,6-.09.17c-.9-.13-1.79-.27-2.66-.44l-.72-5.84,2.85.61Zm-.75-17.13-.06,1.45-1.93-.43-.07,0Zm-1.7.37L99.2,63.1l0,.31Zm-.34,1.07,2,.45.06,2.94L97,65.29Zm2,4.05.11,5.69-2.89-.61-.13-9,.1-.24.14-.06h0Zm.06-6.77-3,2,.05-5.49,3.07.58Zm-2.4,18.08c-.82-.15-1.62-.32-2.42-.5h0l-.91-6c.84.21,1.7.42,2.58.62ZM88.53,63.1l.77.22.64,9.42v.07c-1-.27-1.9-.55-2.81-.84l-.46-6.78Zm-1.88,1.57L86.5,62.5l1.64.49Zm2.2-1.92.48-.55,0,.68Zm3.79,1.48c1.06.27,2.15.54,3.26.8v.39l-2.68,6.11Zm.46,9.43-.39-.1.32-.72,0,.7Zm-.44-9.87.07-1.17,2.32,1.77C94.24,64.2,93.44,64,92.66,63.79Zm0-5.43,0,0h0Zm0,.11v.05l-.21,3.39-1.7-1.29Zm-2.2,1.93-.69-.53.11-2.26c.78.21,1.61.42,2.5.63Zm-.26.29-.5.57,0-.92Zm.29.22,1.94,1.47-.09,1.32c-.93-.24-1.84-.49-2.73-.74l.06-1.12Zm-.87,2.5c.88.25,1.78.49,2.69.73v0l.67,8-.58,1.31-2.12-.58,0-.22Zm2.51,10.43L90.6,75.51l-.27-2.15C90.92,73.52,91.51,73.69,92.12,73.84Zm.4.11.65.16.92,6c-1-.24-2-.5-3-.78L90.66,76Zm.93-.21,0-.28-.11-1.25,2.63-6,.13,8.16Q94.73,74.07,93.45,73.74Zm2.47-9.18-3.17-2.41L93,58.57v-.18c.94.21,1.92.42,3,.62Zm-3.2-6.68c-1-.23-2-.47-2.82-.7l.49-5.74,1-.51,2,.88ZM89.6,57.1c-1.1-.31-2.11-.61-3-.93V56l.22-2.56,3.29-1.77Zm0,.43-.11,2.12-2.92-2.23v-.8C87.48,56.92,88.48,57.23,89.57,57.53Zm-.13,2.59-.07,1.5-.92,1-2-.58.05-4.15Zm-2.58,12.2.31,4.56-3.48-3.6-.2-2.08C84.58,71.58,85.7,72,86.86,72.32Zm.34,5.13,0,.65c-1.08-.37-2.15-.79-3.22-1.24l-.28-3Zm3.18-1.17.37,3-1.69-.53,0-.17-.16.09-.32-.34Zm-1.33,7.25.44,1.62-2.66-.44Zm10.09,1.68h0l1.42,2.21L98.81,89,98,87.34Zm2.26,3.51L103,91.14h-2.43l-.7-.09-.32-.66Zm2.49-1.66,3.26.38-1.52,2.23Zm4.51,1,.78,1.2-1.27,1.82H106.6l-.13-.19Zm.42-.62.09-.12,1.41.32-.7,1Zm.35-.5.81-1.19.65,1.44,0,.07Zm1.25-1.83L111.87,83l.88,1.18-1.68,2.4ZM112.7,83h.93l-.45.64Zm.81-2.32.1-.14v0L114,82l-.22.11h0Zm-.51-15-.51-.65,0-.65.77-2.24Zm0-3.76-.47,1.37,0-1.44Zm-1-9.46.5.08-.4,1.85,0,1.17L108.73,58l.38-6.08C110.1,52.13,111.09,52.3,112.06,52.45Zm-3.25-.57-.4,6.37-2.84,2-.34-.23,2.28-8.41Zm-1.61-.32-1.8,6.64.69-6.88Zm-1.72-.37-.07,1.07-2.14,7,.51-8.48ZM100.4,50c1,.25,2,.51,3,.75l-.51,8.64-1.23-2.86-1.58-3Zm1.06,6.78,1.32,3.07-3.08-.54v0l.39-5.07Zm-1.38-6.86L100,51.37l-2.1-2.07Zm-3.3,2.9,2.72.29h0l.3.55-.43,5.57v0l-3.06-.58ZM93.68,52l1.54.67,1.24.13L96,58.58c-1-.21-2-.41-2.95-.63Zm-.11-3.86L93.5,49l-2.12-.25-.45,1.92-.49.27.32-3.72C91.41,47.44,92.37,47.74,93.57,48.09ZM89.83,47l.63.2-.35,4L86.82,52.9l.57-6.74C88.32,46.49,89.14,46.76,89.83,47Zm-2.74-.9-.59,7-3.16,1.69L84,44.83C85.1,45.29,86.14,45.7,87.09,46.05ZM80.4,43.29l3.31,1.42-.64,9.54-2.78-9Zm-.8,23.54-.11-6.66.62.23L81,69.83l-.09,0Zm.86,2.79-.83-.32,0-1.62Zm-1-9.89.18-3.95.38,4.15Zm.93.78,1.69.59-.93,7.65Zm-.05-.46-.56-6,.05,0c1,.4,1.93.81,3,1.22l-.66,5.4C81.57,60.47,81,60.26,80.38,60.05ZM83,56.37V61l-.54-.18Zm-.09-1.52c-1-.41-2-.82-3-1.22l-.18-.07h0l.45-7.44ZM80.11,43.16,80,44.37l-.44-1.44Zm-3.19-1.43,1.7.77-1.8.79Zm2.21,1,.07,0L80,45.28l-.5,8.15c-1.07-.45-2.13-.88-3.25-1.31v-.19l.55-8.17ZM79.3,67l0,2.21c-1.22-.5-2.4-1-3.52-1.52l.07-8.51ZM76.13,58.9c1,.39,2,.78,3.05,1.16l.1,6Zm3.07.72c-1.07-.39-2.11-.78-3.11-1.18l-.1-.08,3.46-4.3Zm-3.29-1.74.3-5.32c1,.39,2,.8,3,1.21ZM75.3,41l1.32.61-.11,1.84-1.46.64ZM75,44.54l1.46-.64-.53,8V52l-1.48-.53Zm.9,7.91L75.6,58,74,56.76l.4-4.84C74.92,52.09,75.42,52.27,75.91,52.45Zm-1,5.95-.93.25V58ZM74,57.56v-.34l.89.72Zm1.5,1.13L74,63.11v-4ZM69.28,38.11l1.8.88-.54,7.07-3.66,1.62.87-10.33C68.26,37.59,68.77,37.84,69.28,38.11ZM66.06,53.84c-1.1-.58-2.12-1.15-3.08-1.71l.17-2.71c.45,0,.92.12,1.41.19L66.29,51Zm0,9Zm0-.49-1.2-.8,1.2-.32ZM70,53.49l-3.35-2.71.07-.81c1.08.2,2.25.45,3.49.75Zm.12,2.81c.85.39,1.73.8,2.65,1.2V59L70,59.73ZM69.94,54l-.13,1.74h0c-1.21-.57-2.36-1.14-3.44-1.71v-.11l.22-2.65Zm-3.51-4.48c-.62-.11-1.22-.21-1.77-.29l-.06,0,1.93-.85Zm-1.1.25,1.06.18-.06.64Zm1,11.4,3.26-.87-.17,4.14c-1.09-.63-2.13-1.26-3.09-1.88Zm3.13,3.75.17,1.18-3.23-2.93,0-.1C67.37,63.65,68.4,64.26,69.49,64.88Zm.15-5.07-3.28.88V54.46c1.07.56,2.22,1.13,3.43,1.7Zm.29.36,2.81-.75v6.75c-1-.53-2-1.07-3-1.61h0Zm2.81,6.46v0l-.56,1.66.27.19.37-1.06L73,69,70,66.38l-.19-1.31Q71.21,65.85,72.74,66.63Zm0-9.57L70.1,55.85v-.11l.12-1.55,2.59,2.1Zm-2.54-6.77c-1.24-.3-2.41-.55-3.49-.75l.11-1.39,3.67-1.62ZM67.46,37.22l-.9,10.6-2.36,1-1,0L64,36A22.43,22.43,0,0,1,67.46,37.22Zm-7.14-1.85a16,16,0,0,1,3.39.5l-.82,12.92-3.42-.19Zm-.88,13.74c.83,0,2,.11,3.41.27L62.68,52c-1.2-.71-2.3-1.4-3.29-2.06Zm-.06,1.26c1,.66,2.08,1.34,3.28,2L62.73,60c-.91-.69-1.75-1.35-2.51-2l-.84-.72h0Zm0,7.49.6.51c.82.69,1.73,1.41,2.72,2.15l0,.58-3.1-.31Zm.62,3.4,2.77.27L63,63.77C62,63,61,62.11,60.05,61.26ZM63,52.59c1,.56,2,1.13,3.08,1.71v6.47l-1.66.45c-.47-.33-.92-.65-1.36-1Zm.11,8.17.59.43-.57-.06ZM63.3,64l-.17-2.47,1.12.11,1.9,1.72.41,3.21C65.48,65.79,64.39,64.93,63.3,64Zm3.6,2.83-.4-3.16,3.24,2.94.38,2.56C69.09,68.49,68,67.71,66.9,66.87Zm3.56,2.58L70.1,67,73,69.6l.15,1.65Q71.91,70.46,70.46,69.45Zm2.4-13.63-2.6-2.1.22-2.93,1,.27c.59.15,1.16.31,1.69.48Zm.39-4.72c-.54-.16-1.09-.32-1.67-.47l-1.06-.27.3-4,2.92-1.29Zm-2.39-5.18.51-6.79,2.93,1.38-.19,0-.33,4.15ZM74,66.57V64.1l1.61-4.74-.06,8.15L74,66.79Zm.06.69c.49.24,1,.48,1.5.71l.28,3.63-1.51-1.36Zm.85,5-.41-.25-.12-1.25,1.51,1.36,0,.72Zm1.34.76,0-.61,1.6,1.45Zm2.89,1.53-3-2.69-.29-3.78c1.12.51,2.3,1,3.53,1.52l.46,3.68-.68,1.29Zm.35.17.46-.86.15,1.16C79.86,75,79.65,74.87,79.45,74.76Zm.24-5,1,.39.36.81L81,71l0,0-.94,1.78Zm.7,5.45-.23-1.79,1-1.86v0h0l.52,4.24ZM81.55,70h0L81.35,70l1.07-8.77.59.19v.2l.08,5.34Zm1.56-2.37v1L82,69.92Zm-.9,2.55.92-1,0,1.45-.93-.34Zm.07.55.9.33.17,1.84-.92-1Zm.23,1.83.9.94.3,3.2L83,76.41Zm1.42,11.64-.84-6.86c1.47.63,2.93,1.2,4.41,1.72l1,2.89-4.3,2.29Zm3.58,5.15-2.64-3.25L90,87l.81,3-3.1-.37Zm1.78,2.16,2,.24L92.13,95Zm2.84-1.4-.79-2.94.71.12,2.27,3.08Zm.49,1.8,2.69.32L93.71,96Zm1.95,5.32,1.58-3.63.8,3.63Zm2.6-4.77,2,.23.29.61-1.43,3ZM99,97.26l1.16-2.4,1.17,2.4Zm2.46,0,.52-.51.34.51Zm-.36-4.38,5.57,0L103.82,97Zm7.72,4.38h-3.51l2.6-3.71,3.19,0Zm-.31-4.58L110,90.57l1.4,2.14Zm3.42-.44L110.44,90l1.31-1.86,2.75,0Zm.4-5,1.29-1.85L115,87.26Zm3.09-.62-1.37-1.84.86-1.23,2-.17.24.51Zm2.1-30.36-.25-.24-.81-2.3,0-.58h.1l1,1.43Zm.17-2.23-.59-.8.64.09Zm.11,2.5.12-1.57,3.31,4.57L121,63l-1.18-4.58Zm1.25,25.37.15-2.27,2.24-1.2.72,3.22C121.16,81.75,120.12,81.83,119.07,81.9Zm3.42-.28-.75-3.34,3.65-2,.82,4.84C125,81.34,123.76,81.49,122.49,81.62Zm4-.5-.82-4.81,1.07.25,1,4.38Zm1-11.28,1.52.08v5.56l-1.2.13Zm.4,6.2,1.21-.14.23.83L128,76.41Zm1,4.7-.85-3.87,1.4.33.92,3.28Zm1.78-.32-.89-3.14,4.58,1.07.34,1.23C133.49,79.87,132.14,80.16,130.73,80.42Zm4.34-.91-.3-1.07,2.37.55C136.47,79.17,135.78,79.34,135.07,79.51Zm3-.75-3.39-.8-.77-2.68c1.37-.2,2.67-.4,3.89-.61l.82,3.94Zm.73-.21.11,0-.81-3.89c1.57-.26,3-.53,4.27-.78l.81,3.31C141.91,77.6,140.44,78.08,138.75,78.55Zm8-3.19A11.57,11.57,0,0,1,143.42,77l-.8-3.26c1.6-.32,2.92-.6,3.89-.82l.54,2.08Zm.5-.67-.47-1.8,1.17-.28A5.49,5.49,0,0,1,147.28,74.69Zm.76-2.53-1.22.29.06-3.48c.44-.08.74-.15.93-.2A12.31,12.31,0,0,1,148,72.16Z"/>
  </g>
  <g>
    <path class="cls-2" d="M68,10.55v.14l2.14,2.71v.29l-.06.07h-.54c-.79-.91-1.45-1.8-2.19-2.72h-.58v2.65l-.07.07h-.59l-.07-.07V7.4l.08-.07h.58l.07.07v2.94h.49l2.1-3h.54s0,.07,0,.07v.27Z"/>
    <path class="cls-2" d="M72.89,13.89c-1.43,0-2-.83-2-1.71V8.86c0-.81.54-1.7,2-1.7s2,.84,2,1.71V12.2C74.91,13.06,74.34,13.89,72.89,13.89Zm1.29-5c0-.82-.56-1-1.28-1s-1.31.25-1.31,1v3.31c0,.83.86,1,1.25,1H73c.37,0,1.21-.17,1.21-1Z"/>
    <path class="cls-2" d="M79.67,13.13v.56l-.07.07H76L76,13.69V7.4L76,7.33h.61s0,.07,0,.07v5.66H79.6Z"/>
    <path class="cls-2" d="M84.45,9v3a1.62,1.62,0,0,1-1.7,1.72H80.6l-.07-.07V7.4l.09-.08h2.09A1.64,1.64,0,0,1,84.45,9Zm-.71,0a.9.9,0,0,0-.95-1H81.24v5h1.55a.9.9,0,0,0,.95-1Z"/>
    <path class="cls-2" d="M87.46,10.55v.14l2.13,2.71v.29l-.06.07H89c-.79-.91-1.44-1.8-2.18-2.72h-.59v2.65l-.06.07h-.6l-.06-.07V7.4l.07-.07h.59l.06.07v2.94h.5l2.1-3h.53s0,.07.05.07v.27Z"/>
    <path class="cls-2" d="M94.78,13.76h-.62L92.56,11l-.65,0-.4-.24v3l-.08.07h-.55l-.08-.07V7.4l.06-.07H93c1.35,0,1.66.77,1.66,1.62v.49c0,.37-.15,1.52-1.28,1.52l1.48,2.54v.2Zm-1.89-3.41c.76,0,1-.22,1-.92V9c0-.71-.29-.93-1-.93H91.51v2.31Z"/>
    <path class="cls-2" d="M96.72,13.69l-.06.07h-.58L96,13.69V7.4l.07-.07h.58l.06.07Z"/>
    <path class="cls-2" d="M101.18,10.85l.36-.42h.37c0,.92,0,2.93,0,3.26l-.08.08h-.66v-.3l-1.23.38C98.3,13.84,98,13.05,98,12V9c0-.56.26-1.69,2-1.69s1.92.53,2,1.53l-.07.08h-.57l-.08-.08c0-.72-.39-.83-1.23-.83-.63,0-1.26.12-1.26,1v3c0,.9.36,1.11,1.26,1.11l1.21,0Z"/>
    <path class="cls-2" d="M107,12.14c0,1.15-.53,1.74-2,1.74s-1.94-.6-2-1.59l.07-.06h.58l.06.06c0,.64.46.88,1.24.88,1.06,0,1.33-.26,1.33-1.05a.89.89,0,0,0-.55-.92c-.56-.29-1.11-.54-1.79-.87a1.42,1.42,0,0,1-.84-1.46c0-.94.46-1.62,1.87-1.62s1.9.39,1.93,1.53l-.07.08h-.59l-.07-.08c0-.65-.23-.83-1.2-.83s-1.16.33-1.16.87a.88.88,0,0,0,.56.92l1.62.74A1.5,1.5,0,0,1,107,12.14Z"/>
    <path class="cls-2" d="M113.11,7.4v6.29l-.07.07h-.59l-.06-.06V8.5l-.14.41c-.42.88-.93,1.89-1.34,2.77h-.62L109,8.91l-.15-.43V13.7l-.08.06h-.56l-.09-.07V7.4l.07-.07H109l1.62,3.34,1.61-3.34h.84Z"/>
    <path class="cls-2" d="M118.29,7.4v4.66c0,1.21-.61,1.79-2,1.79s-2-.59-2-1.8V7.4l.07-.07h.57l.07.07v4.65c0,.83.49,1.14,1.3,1.14s1.29-.34,1.29-1.14V7.4l.07-.07h.57Z"/>
    <path class="cls-2" d="M123.32,12.14c0,1.15-.53,1.74-2,1.74s-1.94-.6-2-1.59l.07-.06H120l.06.06c0,.64.46.88,1.24.88,1.06,0,1.33-.26,1.33-1.05a.89.89,0,0,0-.55-.92c-.56-.29-1.11-.54-1.79-.87a1.42,1.42,0,0,1-.83-1.46c0-.94.46-1.62,1.86-1.62s1.9.39,1.93,1.53l-.07.08h-.59l-.07-.08c0-.65-.23-.83-1.2-.83s-1.16.33-1.16.87a.89.89,0,0,0,.56.92l1.62.74A1.5,1.5,0,0,1,123.32,12.14Z"/>
    <path class="cls-2" d="M124.4,13.67V7.4l.07-.07h3.63l.07.07V8l-.08.07h-3v2h2.79l.06.06v.58l-.06.07h-2.79v2.34h3l.08.08v.55l-.07.07h-3.61Z"/>
    <path class="cls-2" d="M133.28,7.4v4.66c0,1.21-.61,1.79-2,1.79s-2-.59-2-1.8V7.4l.07-.07h.57l.07.07v4.65c0,.83.49,1.14,1.3,1.14s1.29-.34,1.29-1.14V7.4l.07-.07h.57Z"/>
    <path class="cls-2" d="M139.44,7.4v6.29l-.08.07h-.58l-.07-.06V8.5l-.13.41c-.43.88-.93,1.89-1.35,2.77h-.61l-1.33-2.77-.16-.43V13.7l-.07.06h-.57l-.08-.07V7.4l.06-.07h.83l1.63,3.34,1.6-3.34h.84Z"/>
    <path class="cls-2" d="M68.93,18a1.56,1.56,0,0,1,1,1.73c0,1.22-.55,1.84-2.09,1.84s-2-.67-2-1.76l.19-.18h.68l.19.18c0,.51.37.7,1,.7.85,0,1.06-.2,1.06-.79a.65.65,0,0,0-.42-.7l-1.66-.82A1.48,1.48,0,0,1,66,16.64c0-1,.48-1.71,2-1.71s2,.43,2,1.7l-.18.19H69l-.17-.22c0-.51-.17-.64-.94-.64s-.9.24-.9.63a.7.7,0,0,0,.41.7Z"/>
    <path class="cls-2" d="M72.2,21.43V16.06H70.83l-.18-.18V15.2l.18-.2h3.81l.17.19v.66l-.19.21H73.25v5.18l-.18.19Z"/>
    <path class="cls-2" d="M75.62,21.22v-6l.19-.19h3.56l.18.19v.67l-.19.19H76.68v1.47h2.5l.18.18v.69l-.18.18h-2.5v1.82h2.7l.17.21v.64l-.18.19H75.83Z"/>
    <path class="cls-2" d="M85.31,15.2v.34l-1.67,5.89H82c-1.21-4.34-1.47-5.15-1.66-5.84v-.38l.19-.21h.75l1.49,5.39h.09L84.37,15h.74Z"/>
    <path class="cls-2" d="M90.35,15.2v6l-.15.21h-1L87.37,17.7l-.23-.54v4.08l-.18.19h-.67l-.19-.19v-6l.19-.19h.9l1.9,3.78.22.61V15.2L89.5,15h.68Z"/>
    <path class="cls-2" d="M94.37,18a1.57,1.57,0,0,1,1,1.73c0,1.22-.55,1.84-2.1,1.84s-2-.67-2-1.76l.19-.18h.67l.19.18c0,.51.37.7,1,.7.84,0,1.06-.2,1.06-.79A.67.67,0,0,0,94,19l-1.66-.82a1.47,1.47,0,0,1-.92-1.54c0-1,.48-1.71,2-1.71s2,.43,2,1.7l-.18.19h-.72l-.17-.22c0-.51-.16-.64-.94-.64s-.9.24-.9.63a.69.69,0,0,0,.42.7Z"/>
    <path class="cls-2" d="M96.39,21.43V15.19l.19-.19h3.56l.18.19v.67l-.18.19H97.45v1.47H100l.18.18v.69l-.18.18h-2.5v2.67l-.19.19Z"/>
    <path class="cls-2" d="M103.25,21.55c-1.48,0-2.06-.88-2.06-1.8V16.62c0-.85.55-1.78,2.07-1.78a1.82,1.82,0,0,1,2.08,1.79v3.14C105.34,20.67,104.75,21.55,103.25,21.55Zm1-4.91c0-.61-.46-.8-1-.8s-1,.2-1,.8v3.11c0,.63.67.79,1,.79h.12c.29,0,1-.12,1-.78Z"/>
    <path class="cls-2" d="M110.32,21.43h-.76l-1.51-2.62h-.51l-.17-.17v2.6l-.18.19h-.71l-.16-.19v-6l.18-.19h2.07a1.52,1.52,0,0,1,1.74,1.71v.47c0,.35-.11,1.4-1.09,1.58.24.43.49.86.75,1.28l.53.9v.31Zm-1.84-3.58c.58,0,.77-.17.77-.68v-.43c0-.53-.2-.69-.7-.69h-1.18v1.8Z"/>
    <path class="cls-2" d="M112.79,21.43V16.06h-1.37l-.18-.18V15.2l.18-.2h3.82l.17.19v.66l-.2.21h-1.36v5.18l-.18.19Z"/>
  </g>
</svg>
