<?xml version="1.0" encoding="utf-8"?>
<!-- Generator: Adobe Illustrator 23.0.3, SVG Export Plug-In . SVG Version: 6.00 Build 0)  -->
<svg version="1.1" id="stevnsfort" xmlns="http://www.w3.org/2000/svg" xmlns:xlink="http://www.w3.org/1999/xlink" x="0px" y="0px"
	 viewBox="0 0 155.9 99.2" style="enable-background:new 0 0 155.9 99.2;" xml:space="preserve">
<style type="text/css">
	.st0{fill:#38728D;}
	.st1{fill:#FFFFFF;}
	.st2{clip-path:url(#SVGID_2_);}
	.st3{clip-path:url(#SVGID_4_);fill:#FFFFFF;}
</style>
<title>kold-sidebar-desktop</title>
<rect x="-0.3" y="0" class="st0" width="156.9" height="99.7"/>
<g>
	<path class="st1" d="M68,10.6v0.1l2.1,2.7v0.3l-0.1,0.1h-0.5c-0.8-0.9-1.4-1.8-2.2-2.7h-0.6v2.6l-0.1,0.1h-0.6L66,13.7V7.4l0.1-0.1
		h0.6l0.1,0.1v2.9h0.5l2.1-3h0.5v0.1v0.3L68,10.6z"/>
	<path class="st1" d="M72.9,13.9c-1.4,0-2-0.8-2-1.7V8.9c0-0.8,0.5-1.7,2-1.7c1.5,0,2,0.8,2,1.7v3.3C74.9,13.1,74.3,13.9,72.9,13.9z
		 M74.2,8.9c0-0.8-0.6-1-1.3-1s-1.3,0.2-1.3,1v3.3c0,0.8,0.9,1,1.2,1H73c0.4,0,1.2-0.2,1.2-1L74.2,8.9z"/>
	<path class="st1" d="M79.7,13.1v0.6l-0.1,0.1H76v-0.1V7.4V7.3h0.6v0.1v5.7L79.7,13.1L79.7,13.1z"/>
	<path class="st1" d="M84.4,9v3c0.1,0.9-0.6,1.7-1.5,1.7c-0.1,0-0.1,0-0.2,0h-2.1l-0.1-0.1V7.4l0.1-0.1h2.1c0.9-0.1,1.7,0.6,1.7,1.5
		C84.4,8.9,84.4,9,84.4,9z M83.7,9c0.1-0.5-0.3-0.9-0.8-1c-0.1,0-0.1,0-0.2,0h-1.5v5h1.5c0.5,0,0.9-0.3,1-0.8c0-0.1,0-0.1,0-0.2V9z"
		/>
	<path class="st1" d="M87.5,10.6v0.1l2.1,2.7v0.3l-0.1,0.1H89c-0.8-0.9-1.4-1.8-2.2-2.7h-0.6v2.6l-0.1,0.1h-0.6l-0.1-0.1V7.4
		l0.1-0.1h0.6l0.1,0.1v2.9h0.5l2.1-3h0.5c0,0,0,0.1,0.1,0.1v0.3L87.5,10.6z"/>
	<path class="st1" d="M94.8,13.8h-0.6L92.6,11h-0.6l-0.4-0.2v3l-0.1,0.1h-0.5l-0.1-0.1V7.4l0.1-0.1H93c1.3,0,1.7,0.8,1.7,1.6v0.5
		c0,0.4-0.2,1.5-1.3,1.5l1.5,2.5L94.8,13.8L94.8,13.8z M92.9,10.4c0.8,0,1-0.2,1-0.9V9c0-0.7-0.3-0.9-1-0.9h-1.4v2.3L92.9,10.4z"/>
	<path class="st1" d="M96.7,13.7L96.7,13.7l-0.6,0.1L96,13.7V7.4l0.1-0.1h0.6l0.1,0.1L96.7,13.7z"/>
	<path class="st1" d="M101.2,10.9l0.4-0.4h0.4c0,0.9,0,2.9,0,3.3l-0.1,0.1h-0.7v-0.3l-1.2,0.4c-1.6,0-1.9-0.8-1.9-1.8V9
		c0-0.6,0.3-1.7,2-1.7c1.7,0,1.9,0.5,2,1.5l-0.1,0.1h-0.6l-0.1-0.1c0-0.7-0.4-0.8-1.2-0.8c-0.6,0-1.3,0.1-1.3,1v3
		c0,0.9,0.4,1.1,1.3,1.1h1.2L101.2,10.9z"/>
	<path class="st1" d="M107,12.1c0,1.1-0.5,1.7-2,1.7c-1.5,0-1.9-0.6-2-1.6l0.1-0.1h0.6l0.1,0.1c0,0.6,0.5,0.9,1.2,0.9
		c1.1,0,1.3-0.3,1.3-1c0-0.4-0.2-0.8-0.5-0.9c-0.6-0.3-1.1-0.5-1.8-0.9c-0.6-0.3-0.9-0.8-0.8-1.5c0-0.9,0.5-1.6,1.9-1.6
		s1.9,0.4,1.9,1.5l-0.1,0.1h-0.6l-0.1-0.1c0-0.6-0.2-0.8-1.2-0.8s-1.2,0.3-1.2,0.9c0,0.4,0.2,0.8,0.6,0.9l1.6,0.7
		C106.7,10.7,107.1,11.4,107,12.1z"/>
	<path class="st1" d="M113.1,7.4v6.3l-0.1,0.1h-0.6l-0.1-0.1V8.5l-0.1,0.4c-0.4,0.9-0.9,1.9-1.3,2.8h-0.6L109,8.9l-0.2-0.4v5.2
		l-0.1,0.1h-0.6l-0.1-0.1V7.4l0.1-0.1h0.8l1.6,3.3l1.6-3.3L113.1,7.4L113.1,7.4z"/>
	<path class="st1" d="M118.3,7.4v4.7c0,1.2-0.6,1.8-2,1.8s-2-0.6-2-1.8V7.4l0.1-0.1h0.6l0.1,0.1v4.6c0,0.8,0.5,1.1,1.3,1.1
		s1.3-0.3,1.3-1.1V7.4l0.1-0.1L118.3,7.4L118.3,7.4z"/>
	<path class="st1" d="M123.3,12.1c0,1.1-0.5,1.7-2,1.7c-1.5,0-1.9-0.6-2-1.6l0.1-0.1h0.6l0.1,0.1c0,0.6,0.5,0.9,1.2,0.9
		c1.1,0,1.3-0.3,1.3-1c0-0.4-0.2-0.8-0.5-0.9c-0.6-0.3-1.1-0.5-1.8-0.9c-0.6-0.3-0.9-0.8-0.8-1.5c0-0.9,0.5-1.6,1.9-1.6
		s1.9,0.4,1.9,1.5l-0.1,0.1h-0.6l-0.1-0.1c0-0.6-0.2-0.8-1.2-0.8c-1,0-1.2,0.3-1.2,0.9c0,0.4,0.2,0.8,0.6,0.9l1.6,0.7
		C123,10.7,123.4,11.4,123.3,12.1z"/>
	<path class="st1" d="M124.4,13.7V7.4l0.1-0.1h3.6l0.1,0.1V8l-0.1,0.1h-3v2h2.8l0.1,0.1v0.6l-0.1,0.1h-2.8v2.3h3l0.1,0.1v0.5
		l-0.1,0.1h-3.6L124.4,13.7z"/>
	<path class="st1" d="M133.3,7.4v4.7c0,1.2-0.6,1.8-2,1.8c-1.4,0-2-0.6-2-1.8V7.4l0.1-0.1h0.6l0.1,0.1v4.6c0,0.8,0.5,1.1,1.3,1.1
		c0.8,0,1.3-0.3,1.3-1.1V7.4l0.1-0.1L133.3,7.4L133.3,7.4z"/>
	<path class="st1" d="M139.4,7.4v6.3l-0.1,0.1h-0.6l-0.1-0.1V8.5l-0.1,0.4c-0.4,0.9-0.9,1.9-1.3,2.8h-0.6l-1.3-2.8l-0.2-0.4v5.2
		l-0.1,0.1h-0.6l-0.1-0.1V7.4l0.1-0.1h0.8l1.6,3.3l1.6-3.3L139.4,7.4L139.4,7.4z"/>
	<path class="st1" d="M68.9,18c0.7,0.3,1.1,1,1,1.7c0,1.2-0.5,1.8-2.1,1.8s-2-0.7-2-1.8l0.2-0.2h0.7l0.2,0.2c0,0.5,0.4,0.7,1,0.7
		c0.8,0,1.1-0.2,1.1-0.8c0-0.3-0.1-0.6-0.4-0.7l-1.7-0.8c-0.6-0.3-1-0.9-0.9-1.6c0-1,0.5-1.7,2-1.7c1.5,0,2,0.4,2,1.7l-0.2,0.2H69
		l-0.2-0.2c0-0.5-0.2-0.6-0.9-0.6S67,16.2,67,16.6c0,0.3,0.1,0.6,0.4,0.7L68.9,18z"/>
	<path class="st1" d="M72.2,21.4v-5.4h-1.4l-0.2-0.2v-0.7l0.2-0.2h3.8l0.2,0.2v0.7l-0.2,0.2h-1.4v5.2l-0.2,0.2H72.2z"/>
	<path class="st1" d="M75.6,21.2v-6l0.2-0.2h3.6l0.2,0.2v0.7l-0.2,0.2h-2.7v1.5h2.5l0.2,0.2v0.7l-0.2,0.2h-2.5v1.8h2.7l0.2,0.2v0.6
		l-0.2,0.2h-3.5L75.6,21.2z"/>
	<path class="st1" d="M85.3,15.2v0.3l-1.7,5.9H82c-1.2-4.3-1.5-5.1-1.7-5.8v-0.4l0.2-0.2h0.7l1.5,5.4h0.1l1.5-5.4h0.7L85.3,15.2z"/>
	<path class="st1" d="M90.3,15.2v6l-0.1,0.2h-1l-1.8-3.7l-0.2-0.5v4.1L87,21.4h-0.7l-0.2-0.2v-6l0.2-0.2h0.9l1.9,3.8l0.2,0.6v-4.2
		l0.2-0.2h0.7L90.3,15.2z"/>
	<path class="st1" d="M94.4,18c0.7,0.3,1.1,1,1,1.7c0,1.2-0.5,1.8-2.1,1.8s-2-0.7-2-1.8l0.2-0.2h0.7l0.2,0.2c0,0.5,0.4,0.7,1,0.7
		c0.8,0,1.1-0.2,1.1-0.8c0.1-0.3-0.1-0.6-0.4-0.7l-1.7-0.8c-0.6-0.2-1-0.9-0.9-1.5c0-1,0.5-1.7,2-1.7c1.5,0,2,0.4,2,1.7l-0.2,0.2
		h-0.7l-0.2-0.2c0-0.5-0.2-0.6-0.9-0.6c-0.8,0-0.9,0.2-0.9,0.6c0,0.3,0.1,0.6,0.4,0.7L94.4,18z"/>
	<path class="st1" d="M96.4,21.4v-6.2l0.2-0.2h3.6l0.2,0.2v0.7l-0.2,0.2h-2.7v1.5h2.5l0.2,0.2v0.7l-0.2,0.2h-2.5v2.7l-0.2,0.2H96.4z
		"/>
	<path class="st1" d="M103.2,21.6c-1.5,0-2.1-0.9-2.1-1.8v-3.1c0-0.8,0.5-1.8,2.1-1.8c1-0.1,1.9,0.5,2.1,1.5c0,0.1,0,0.2,0,0.2v3.1
		C105.3,20.7,104.7,21.6,103.2,21.6z M104.2,16.6c0-0.6-0.5-0.8-1-0.8s-1,0.2-1,0.8v3.1c0,0.6,0.7,0.8,1,0.8h0.1c0.3,0,1-0.1,1-0.8
		L104.2,16.6z"/>
	<path class="st1" d="M110.3,21.4h-0.8l-1.5-2.6h-0.5l-0.2-0.2v2.6l-0.2,0.2h-0.7l-0.2-0.2v-6l0.2-0.2h2.1c0.8-0.1,1.6,0.4,1.7,1.3
		c0,0.1,0,0.3,0,0.4v0.5c0,0.3-0.1,1.4-1.1,1.6c0.2,0.4,0.5,0.9,0.7,1.3l0.5,0.9v0.3L110.3,21.4z M108.5,17.9c0.6,0,0.8-0.2,0.8-0.7
		v-0.4c0-0.5-0.2-0.7-0.7-0.7h-1.2v1.8L108.5,17.9z"/>
	<path class="st1" d="M112.8,21.4v-5.4h-1.4l-0.2-0.2v-0.7l0.2-0.2h3.8l0.2,0.2v0.7l-0.2,0.2h-1.4v5.2l-0.2,0.2H112.8z"/>
</g>
<g id="Vector_Smart_Object_1_">
	<g>
		<defs>
			<rect id="SVGID_1_" x="58.4" y="25.7" width="93.5" height="76.4"/>
		</defs>
		<clipPath id="SVGID_2_">
			<use xlink:href="#SVGID_1_"  style="overflow:visible;"/>
		</clipPath>
		<g class="st2">
			<defs>
				<rect id="SVGID_3_" x="58.4" y="25.7" width="93.5" height="76.4"/>
			</defs>
			<clipPath id="SVGID_4_">
				<use xlink:href="#SVGID_3_"  style="overflow:visible;"/>
			</clipPath>
			<path class="st3" d="M59.7,42.4l-0.2,0.3l0,0v0l0,0l0.3-0.2C59.7,42.4,59.7,42.4,59.7,42.4"/>
			<path class="st3" d="M151.1,65c-1.5-5.1-5.4-8.2-13.2-10.7c-7-2.2-10-2.7-16.5-3.8c0,0-0.1,0-0.1,0l-0.1-0.1l0,0.1
				c-1.2-0.2-2.5-0.4-4-0.7c-4.9-0.8-10.3-2.3-14.4-3.5c0-0.2,0-0.3,0-0.5c0-0.1,0-0.1,0-0.2c0.1,0,0.2,0,0.3,0.1
				c0.1,0.1,0.3,0.1,0.5,0.1l0.2,0l0-0.2c-0.1-0.4-0.4-0.5-0.6-0.6c-0.1,0-0.3-0.1-0.3-0.2v-1.1l-0.3,0.7c-0.1,0.3-0.1,0.7-0.2,1.1
				c0,0.2,0,0.4,0,0.6c-0.3-0.1-0.6-0.2-0.9-0.3l-0.2-0.1l0,0c-3-0.9-5.1-1.7-5.1-1.7c-5.3-1.5-19.3-9-19.5-9.1
				c-4.7-2.8-8.9-3.6-12.5-2.4l-0.1,0l0,0.1c-0.7,0.2-1.3,0.5-1.9,0.9c-3.5,2.1-4.5,9.6-3.2,15.4c1.5,6.7,14.9,17.9,21.3,22.3l0,0
				l0.1,0c0.5,0.3,0.9,0.6,1.3,0.8c11.7,7.3,22.1,10.2,37.1,10.2c15.5,0,30.2-5.3,31.8-7.1C152.2,73.2,152.4,69.4,151.1,65
				 M151.3,71.1c-0.2,0.1-0.6,0.2-1.2,0.3l0.1-3.6c0.4-0.1,0.7-0.2,0.9-0.2C151.3,68.9,151.4,70.1,151.3,71.1 M146.1,72.3l-0.2-3.9
				c1.8-0.2,3.2-0.4,4.1-0.6l-0.1,3.6C148.9,71.7,147.7,72,146.1,72.3 M85.8,73.6L83,70.8l-0.3-3.9c1.1,0.5,2.2,1.1,3.4,1.6l0.4,3.8
				L85.8,73.6C85.8,73.6,85.8,73.6,85.8,73.6 M84.5,72.9c-0.5-0.3-1-0.6-1.5-0.9l0-0.6L84.5,72.9z M60.6,48.6c0.7,1,1.6,2.3,2.7,3.6
				l0.4,3.4c-1-1.2-1.9-2.3-2.5-3.4L60.6,48.6z M59,45.2c-0.1-1.3,0-2.6,0.1-3.8c0.2,0.3,0.6,0.7,1,1.2l-0.1,4.7
				C59.5,46.3,59.2,45.6,59,45.2 M59.2,40.9c0.2-1.6,0.6-3,1.2-4.2L60.2,42C59.7,41.5,59.4,41.1,59.2,40.9 M60.4,47.6l0.1-4.8
				c0.7,0.7,1.7,1.7,2.9,2.7l-0.1,5.2L63,51.3C61.9,49.9,61,48.7,60.4,47.6L60.4,47.6z M65.2,47.1l-1.6,3.1l0-4.4
				C64.1,46.2,64.6,46.6,65.2,47.1 M92.6,54.4c-1-0.4-1.9-0.7-2.7-1.1l-0.1-0.1l0.7-10.5c1,0.5,2,0.9,2.9,1.3l-0.8,10.2V54.4z
				 M141.8,73.2l-0.2-4.4c1.5-0.1,2.8-0.2,4-0.3l0.2,3.9C144.6,72.7,143.3,72.9,141.8,73.2 M118.7,81.4l-0.8-5.5c0.4,0,0.8,0,1.2,0
				c0.6,0,1.2,0,1.8,0l0.1,4.1L118.7,81.4L118.7,81.4z M105.3,74.6c1,0.2,2.1,0.4,3.2,0.6l-2.6,4.7L105.3,74.6z M102.2,73.5
				l-0.1-9.3l0.1-0.3l0.1-0.1c0,0,0,0,0,0l2.5,4.3l0.1,5.9C104,73.9,103.1,73.7,102.2,73.5 M80.9,65.5l0-0.2v-2.6l1.5-4.9l-0.1,8.5
				C81.9,66,81.4,65.8,80.9,65.5 M76.9,63.2L76.9,63.2l0.2-4.6l2.7-0.8v7C78.8,64.3,77.8,63.8,76.9,63.2 M73.7,61.1v-1.4l3.1-0.9
				L76.6,63C75.6,62.4,74.6,61.7,73.7,61.1 M67.1,55.7l0-7.2c0.9,0.7,2,1.4,3.1,2.1l0.1,7.9c-0.9-0.7-1.7-1.4-2.4-2.1
				C67.6,56.2,67.3,55.9,67.1,55.7L67.1,55.7z M65.9,47.2c0.2,0,0.5,0,0.9,0l0,0.6C66.5,47.6,66.2,47.4,65.9,47.2 M82.8,50.2
				c-0.5-0.2-0.9-0.4-1.4-0.5l0.5-7.2l1.4-0.7l-0.5,8.3L82.8,50.2z M82.8,50.6l-0.3,5.8L81,55.1l0.4-5
				C81.8,50.3,82.3,50.5,82.8,50.6 M105.5,51.9l-0.4,5.8v0c-0.9-0.2-1.8-0.4-2.9-0.6l0.7-9.8l0.9,1l1.6,2.3l-0.2,0.7L105.5,51.9z
				 M121.9,61.4l0.2,5.9c-0.4-0.1-0.9-0.1-1.3-0.2l-0.1-6.1C121.1,61.2,121.5,61.3,121.9,61.4 M132.1,74.7l-0.3-6
				c0.5,0,1,0.1,1.4,0.1v5.8C132.9,74.6,132.5,74.6,132.1,74.7 M125.9,75.2l-0.1-7c1.2,0.1,2.4,0.2,3.5,0.3l0.3,6.3l0,0.1
				C128.5,75.1,127.2,75.2,125.9,75.2 M121.2,75.5l-0.4-7.9c0.5,0.1,0.9,0.1,1.3,0.2l-0.2,7.7C121.7,75.5,121.5,75.5,121.2,75.5
				 M122.4,67.8c1.1,0.1,2.1,0.3,3.1,0.4l0.1,7.1c-1.1,0.1-2.3,0.1-3.4,0.2L122.4,67.8z M130.6,68.2c-0.3,0-0.7,0-1-0.1l0-4.5
				c0.4,0.1,0.8,0.3,1.2,0.4L130.6,68.2L130.6,68.2z M130,74.9l0-0.2l-0.3-6.2c0.3,0,0.7,0,1,0.1l0.3,6.2
				C130.7,74.8,130.3,74.9,130,74.9 M133.6,68.8c1.3,0.1,2.5,0.1,3.6,0.1l0.3,5.1c-1.3,0.2-2.6,0.4-3.9,0.6V68.8z M137.2,68.4
				c-1.1,0-2.3,0-3.6-0.1v-0.1l0.1-3.2c1.4,0.5,2.6,1.1,3.6,1.5L137.2,68.4z M137.5,66.7c1.4,0.7,2.5,1.3,3.2,1.6
				c-1,0-2.1,0.1-3.2,0.1L137.5,66.7z M133.3,68.2L133.3,68.2c-0.5,0.1-1,0-1.5,0v0l0.2-3.8c0.5,0.2,0.9,0.3,1.4,0.5L133.3,68.2z
				 M132,64l0.1-2l1.3-0.8l-0.1,3.3C132.9,64.3,132.5,64.2,132,64 M130.9,63.6c-0.3-0.1-0.6-0.2-0.9-0.3l1-0.6L130.9,63.6z
				 M129.4,63.5l0,4.6c-1.1-0.1-2.3-0.2-3.5-0.3v-5.3C127.1,62.8,128.3,63.1,129.4,63.5 M125.9,62l0.2-3.6l3,4.6
				C128.1,62.6,127,62.3,125.9,62 M125.6,67.7c-1-0.1-2.1-0.2-3.2-0.4l-0.3-5.9c0.6,0.2,1.3,0.3,2,0.5c0.5,0.1,0.9,0.2,1.4,0.4V67.7
				z M118.5,60.1l2.6-8.3l-0.7,8.7C119.7,60.4,119.1,60.2,118.5,60.1 M120.4,61l0.1,6.1c-0.2,0-0.4-0.1-0.6-0.1l-2.3-3.3l0-0.7
				l0.8-2.5C119,60.7,119.6,60.8,120.4,61 M105.3,74.2l-0.1-5.4l3.4,5.9v0.1C107.5,74.6,106.4,74.4,105.3,74.2 M105.1,58.1l-0.1,3.1
				l-2.8,2l0-5.7C103.2,57.7,104.2,57.9,105.1,58.1 M110.3,59.1L110.3,59.1l-1.5,0.8l0-1.1C109.3,58.9,109.8,59,110.3,59.1
				 M117.2,63.9L117.2,63.9l-0.1,2.7c-0.6-0.1-1.1-0.2-1.7-0.3L117.2,63.9z M115.1,66.2c-0.5-0.1-1-0.2-1.4-0.3l0.1-4.6l3.2,2.3
				L115.1,66.2z M103,63.6C103,63.6,102.9,63.5,103,63.6l1.9-1.1l-0.1,1.5C104.2,63.9,103.6,63.7,103,63.6 M110.3,60.3l-0.5,4.8
				c-0.3-0.1-0.6-0.1-0.8-0.2l-0.1-3.4l0-1.2l1.5-0.8L110.3,60.3z M110.3,62.9l0,2.4c-0.1,0-0.2,0-0.3-0.1L110.3,62.9z M109,68.6
				v-3.2c0.3,0.1,0.5,0.1,0.8,0.2l-0.7,7L109,68.6z M108.5,60.1l-3.3,1.7l0-0.4l3.2-2.3L108.5,60.1z M104.9,62l-1.6,0.9l1.7-1.2
				L104.9,62z M105.2,62.3l3.3-1.8l0.1,2.5l0,1.8c-1.1-0.3-2.3-0.5-3.5-0.8L105.2,62.3z M110,65.7c0.1,0,0.2,0,0.3,0.1l0.2,6.5
				l-1.4,1.9L110,65.7z M110.7,65.8c0.9,0.2,1.8,0.4,2.6,0.5l0.1,2.1l-2.5,3.4L110.7,65.8z M113.6,66.4c0.4,0.1,0.8,0.1,1.2,0.2
				l-1.1,1.4L113.6,66.4z M113.3,65.9c-0.9-0.2-1.8-0.3-2.7-0.5l-0.1-5.2l0.1-0.7l0.2-0.1l0.1-0.1l2.5,1.8L113.3,65.9z M105.2,61
				l0.1-2.8c1.1,0.2,2.1,0.4,2.9,0.6L105.2,61z M101.8,63.7L101.8,63.7l0,0.4l-2.5,6.3l-0.6-7.6C99.7,63.1,100.7,63.4,101.8,63.7
				 M98.7,62.4l0.1-1.2L101,63C100.2,62.8,99.4,62.6,98.7,62.4 M102.9,64c0.6,0.2,1.3,0.3,1.9,0.5l0.1,3l-2.1-3.5
				C102.8,64,102.9,64,102.9,64 M105.1,64.5c1.2,0.3,2.4,0.6,3.5,0.8l0,1.8V74l-3.5-6L105.1,64.5z M109.8,74l0.9-1.2l0,0.5L109.8,74
				z M110.6,73.8l0,1.2c-0.5-0.1-1-0.1-1.5-0.2L110.6,73.8z M110.9,72.4l2.6-3.5l0.1,2.3l-2.7,1.9L110.9,72.4z M113.7,68.6l1.4-1.9
				c0.7,0.1,1.3,0.2,2,0.4l0,0.1l0.1,1.6l-3.4,2.4L113.7,68.6z M117.4,67.1L117.4,67.1c0.6,0.1,1.1,0.2,1.6,0.2l-1.6,1.1L117.4,67.1
				z M117.5,66.6l0.1-2.3l1.9,2.6C118.8,66.8,118.1,66.7,117.5,66.6 M117.6,61.9l0-1.5c0.1,0,0.3,0.1,0.4,0.1L117.6,61.9z
				 M117.3,62.9l-0.1,0.4l-3.4-2.5l0-1.1c1.1,0.2,2.2,0.4,3.6,0.6L117.3,62.9z M113.5,60.6l-1.7-1.2c0.4,0.1,0.7,0.1,1,0.2
				c0.2,0,0.5,0.1,0.7,0.1L113.5,60.6z M110.3,58.7c-0.4-0.1-0.9-0.2-1.4-0.2l1.8-6.5L110.3,58.7z M105.4,57.7L105.4,57.7l0.4-5.3
				l1.3,2.7l1.3,3.2C107.4,58.1,106.5,58,105.4,57.7 M101.8,63.2l-3-2.5L99,57l0-0.2c0.9,0.2,1.8,0.4,2.8,0.7L101.8,63.2z
				 M98.7,56.8L98.7,56.8C98.7,56.7,98.7,56.7,98.7,56.8L98.7,56.8z M98.7,56.9l-0.2,3.5l-1.6-1.3L98.7,56.9L98.7,56.9z M98.5,61
				l-0.1,1.4c-0.9-0.3-1.7-0.5-2.6-0.8l0.1-1.2l0.8-1L98.5,61z M89.9,69.6l0-2l2.8-3.5l0.4,6.6C92,70.4,91,70,89.9,69.6 M80.9,57.1
				v-0.7c0.3,0.1,0.6,0.3,0.9,0.4L80.9,57.1z M82.4,57.1l-1.4,4.6v-4.2L82.4,57.1z M72.3,60.1l1.1-0.3l0,1.2
				C73,60.6,72.6,60.3,72.3,60.1 M71.8,59.7c-0.5-0.3-0.9-0.7-1.3-1l-0.1-7.9c0.9,0.6,1.9,1.2,2.9,1.8l0,6.7L71.8,59.7z M73.7,52.7
				c1,0.6,2.1,1.2,3.3,1.8l-0.1,3.8l-3.1,0.9V52.7z M73.7,52.1l0.2-2.7l3.2,2.8L77,54l0,0c-1.2-0.6-2.2-1.2-3.3-1.8V52.1z M92,60.3
				c-0.8-0.3-1.5-0.5-2.2-0.8v-5.3l2.3,6L92,60.3z M92.5,61l0.2,2.7l-2.8,3.4l0-1.3l2.3-5C92.3,60.9,92.4,60.9,92.5,61 M92.8,61.1
				c0.5,0.2,1,0.3,1.6,0.5L93,63.3L92.8,61.1z M87.9,68.8l1-9.1c0.2,0.1,0.4,0.1,0.6,0.2v0.2l0.1,5.5l-1.5,3.2
				C88.1,68.9,88,68.8,87.9,68.8 M88,69.3L88,69.3L88,69.3C87.9,69.3,87.9,69.3,88,69.3 M87.8,67.6L87.1,59c0.5,0.2,1.1,0.4,1.6,0.6
				L87.8,67.6z M89,59.3l0.5-4.6v4.8C89.3,59.4,89.2,59.3,89,59.3 M89.6,67.4l-1.1,1.3l1.1-2.4L89.6,67.4z M89.9,65.1l-0.1-4.9V60
				c0.7,0.2,1.3,0.5,2,0.7L89.9,65.1z M88.7,59.2c-0.6-0.2-1.1-0.4-1.7-0.6l-0.5-6.2c0,0,0,0,0,0c0.9,0.4,1.8,0.8,2.8,1.3L88.7,59.2
				z M86.4,54.1l0.4,4.3c-0.2-0.1-0.4-0.1-0.5-0.2L86.4,54.1z M85.9,58.1c-1-0.4-2-0.8-3-1.2l-0.1-0.1l3.3-4.5L85.9,58.1z
				 M80.9,55.6l0.8,0.7c-0.3-0.1-0.6-0.3-0.9-0.4v-0.2L80.9,55.6z M79.8,55.4c-0.9-0.4-1.7-0.8-2.5-1.2l0-0.1l0.1-1.6l2.5,2.2
				L79.8,55.4z M77.2,54.6c0.8,0.4,1.6,0.8,2.5,1.2v1.5l-2.7,0.8L77.2,54.6z M85.9,58.5l0.1,6.3l-3-7.5
				C83.9,57.7,84.9,58.1,85.9,58.5 M86.2,58.7c0.2,0.1,0.4,0.2,0.6,0.2l0.8,9.8c0,0-0.1,0-0.1,0l-1.2-3.1L86.2,58.7z M89.6,68l0,1.5
				c-0.3-0.1-0.6-0.2-0.9-0.4L89.6,68z M93,63.9l1.8-2.2c0.2,0.1,0.5,0.2,0.7,0.2l0.6,9.8l0,0.1c-0.9-0.3-1.8-0.6-2.7-0.9L93,63.9z
				 M95.1,61.3l0.5-0.6l0,0.7C95.4,61.4,95.2,61.4,95.1,61.3 M95.9,59.8l0-1l0.4,0.4L95.9,59.8z M95.6,60.2l-0.9,1.1
				c-0.6-0.2-1.3-0.4-1.9-0.6l0-4.3l2.8,2.3L95.6,60.2z M92.5,60.5c-0.1,0-0.1,0-0.2-0.1l0.1-0.2L90,54l2.5,2.1L92.5,60.5z
				 M86.6,51.9c-0.1,0-0.1-0.1-0.2-0.1v0l0.4-7.7l2.6,9.1C88.5,52.7,87.5,52.3,86.6,51.9 M82.8,56.3l0.3-5.5c1,0.4,1.9,0.8,2.9,1.3
				L82.8,56.3z M79.9,54.2L77.4,52l0.2-3c0.3,0.1,0.7,0.2,1,0.3c0.6,0.2,1.1,0.3,1.6,0.5L79.9,54.2z M77.1,51.7l-3.2-2.8l0.1-0.8
				c1,0.2,2.1,0.5,3.3,0.8L77.1,51.7z M73.7,48.7l-1-0.8c0.3,0.1,0.7,0.1,1,0.2L73.7,48.7z M73.6,49.2l-0.2,2.9
				c-1-0.6-2-1.2-2.9-1.8l0.2-2.8c0.4,0.1,0.9,0.1,1.3,0.2L73.6,49.2z M67.1,47.2c0.8,0,1.9,0.1,3.2,0.3l-0.2,2.7
				c-1.1-0.7-2.2-1.5-3.1-2.1L67.1,47.2z M66.8,56l0.2,2.7l-2.8-5.3C65,54.2,65.9,55.1,66.8,56 M67.1,56.3c0.2,0.2,0.4,0.4,0.6,0.5
				c0.8,0.7,1.6,1.5,2.6,2.2l0,0.6l-2.9-0.3L67.1,56.3z M70.6,59.3c0.2,0.1,0.4,0.3,0.6,0.4l-0.5-0.1L70.6,59.3z M73.4,61.4
				L73.4,61.4L73.4,61.4L73.4,61.4z M82.7,57.6l3.3,8.1l0,2.3c-1.2-0.5-2.3-1-3.3-1.6L82.7,57.6z M86.3,66.4l0.8,2
				c-0.3-0.1-0.5-0.2-0.8-0.3L86.3,66.4z M87.3,69l0.3,0.8l0,0.1l0,0l-0.9,1.9l-0.4-3.2C86.7,68.8,87,68.9,87.3,69 M88.4,69.5
				c0.4,0.2,0.8,0.3,1.2,0.5l0.2,1.9l-1.8-2L88.4,69.5z M90,70.1c1,0.4,2.1,0.8,3.2,1.2l0.3,4.7l-3.3-3.7L90,70.1z M93.5,71.4
				c0.9,0.3,1.8,0.6,2.7,0.9l0.3,2.6l-1.9,2.3l-0.7-0.8L93.5,71.4z M96.5,72.3c0.6,0.2,1.1,0.3,1.7,0.5l-1.4,1.7L96.5,72.3z
				 M96.4,71.9l0-0.2L95.8,62c0.8,0.3,1.7,0.5,2.6,0.8v0l0.6,8.3l-0.5,1.4C97.8,72.3,97.1,72.1,96.4,71.9 M99,71.8l0.1,0.7l0,0.1
				c-0.1,0-0.2-0.1-0.4-0.1L99,71.8z M99.4,72.4l-0.1-1.3l2.5-6.2l0.1,8.5c-0.8-0.2-1.7-0.4-2.5-0.7L99.4,72.4z M110.7,75.5l0.8,4.2
				l-2.2-4.4C109.8,75.4,110.3,75.4,110.7,75.5 M111,75.1l-0.1-1.5l2.7-1.9l0.2,3.4l0,0.2C112.9,75.3,111.9,75.2,111,75.1
				 M114.1,75.1l-0.2-3.5l3.4-2.4l0.3,6.4c-1.2,0-2.3-0.1-3.5-0.1L114.1,75.1z M117.5,68.9l2.1-1.5c0.3,0,0.6,0.1,0.9,0.1l0.4,7.9
				c-1,0-2,0-3,0L117.5,68.9z M121.2,75.9c0.3,0,0.5,0,0.8,0l0.5,3.3l-1.2,0.7L121.2,75.9z M122.3,75.9c1.1,0,2.3-0.1,3.4-0.2
				l0.3,1.4l-3.2,1.9L122.3,75.9z M126,75.7c1-0.1,2-0.1,2.9-0.2l-2.6,1.5L126,75.7z M132.2,75.1c0.4,0,0.8-0.1,1.2-0.1l0.2,0.9
				l-1.3-0.3L132.2,75.1z M133.6,74.9c1.4-0.2,2.7-0.4,3.9-0.6l0.7,2.6l-4.4-1.1L133.6,74.9z M137.8,73.9l-0.3-5h0.2
				c1.3,0,2.5,0,3.6-0.1l0.2,4.5C140.3,73.5,139.1,73.7,137.8,73.9 M141.6,68.3l0.2-11.7c1.6,0.7,2.9,1.5,4.1,2.3l-0.3,8.9l0,0.2
				C144.4,68.2,143.1,68.3,141.6,68.3 M141.3,68.2c-0.5-0.3-1.8-1-3.8-2l0.1-7.5l3.8-2.2L141.3,68.2z M137.2,66.1
				c-1-0.5-2.2-1-3.6-1.5l0.1-3.5l3.6-2.1L137.2,66.1z M133.8,60.6L134,54c1.1,0.3,2.2,0.6,3.5,1.1l-0.1,3.5L133.8,60.6z
				 M133.5,60.7l-1.3,0.8l0.4-7.9c0.4,0.1,0.7,0.2,1.1,0.3L133.5,60.7z M131,62.2l-1.3,0.8l0.3-10c0.5,0.1,1,0.2,1.4,0.3L131,62.2z
				 M129.4,62.7l-3.2-4.8l0.4-5.6c1.1,0.2,2.1,0.4,3.1,0.6L129.4,62.7z M125.9,57.4l-3.1-4.7l0.1-1.1c1.2,0.2,2.4,0.4,3.4,0.6
				L125.9,57.4z M125.9,58l-0.3,3.9c-0.4-0.1-0.9-0.2-1.4-0.4c-0.7-0.2-1.4-0.4-2.1-0.5l0.5-7.7L125.9,58z M121.9,60.9
				c-0.4-0.1-0.8-0.2-1.2-0.3l0.7-9.3c0,0,0.1,0,0.1,0l1,1.5L121.9,60.9z M120.8,51.7l-2.6,8.4c-0.2,0-0.3-0.1-0.5-0.1l0.4-6.1
				L120.8,51.7z M118,53.3l0.1-2.5c0.9,0.2,1.7,0.3,2.5,0.4L118,53.3z M117.4,59.9c-1.3-0.3-2.4-0.5-3.6-0.6l0-0.1l0.1-2.1l3.8-2.9
				L117.4,59.9z M113.5,59l0,0.1c-0.2,0-0.5-0.1-0.7-0.1c-0.4-0.1-0.9-0.1-1.3-0.2l2.1-1.7L113.5,59z M111,58.7l-0.3-0.2l2.2-8.7
				c0.4,0.1,0.8,0.2,1.2,0.3l-0.4,6.6L111,58.7z M110.8,56.6l0.7-7.1c0.4,0.1,0.7,0.2,1.1,0.2L110.8,56.6z M110.8,50.5l-2,7.3
				l0.5-8.8c0.5,0.1,1.1,0.3,1.6,0.4L110.8,50.5z M108.5,57.8l-1.2-3l-1.5-3.1l0.3-3.7c0.9,0.3,1.9,0.5,2.9,0.8L108.5,57.8z
				 M105.6,50.4L104,48l-0.6-0.6c0.8,0.2,1.5,0.4,2.3,0.7L105.6,50.4z M102.6,47.1l-0.7,9.9c-1-0.2-1.9-0.4-2.8-0.6l1-10.1
				C100.8,46.5,101.7,46.8,102.6,47.1 M98.7,56.3c-1-0.2-1.8-0.5-2.7-0.7l0.8-10.3c0.6,0.2,1.6,0.5,2.8,0.9L98.7,56.3z M98.4,56.7
				l-1.8,2.2l-0.7-0.5L96,56C96.8,56.2,97.6,56.4,98.4,56.7 M95.7,58.1l-2.8-2.3l0-0.8c0.9,0.3,1.8,0.6,2.9,0.9L95.7,58.1z
				 M92.6,55.6L91,54.3c0.5,0.2,1,0.4,1.6,0.6L92.6,55.6z M89.6,52.5l-2.6-9.4l0.1-2c1.1,0.5,2.1,1,3.2,1.5L89.6,52.5z M86.7,42.3
				l-0.4-1.5c0.2,0.1,0.3,0.2,0.5,0.2L86.7,42.3z M86.6,43.2l-0.5,8.5c-1-0.5-2-0.9-3.1-1.4l0-0.2l0.5-8.5l2.2-1.1c0,0,0,0,0.1,0
				L86.6,43.2z M83.6,41.2l0.1-1.6c0.5,0.3,1.1,0.5,1.6,0.8L83.6,41.2z M83.3,41.3L82,42l0.2-3.2c0.4,0.2,0.8,0.4,1.3,0.6L83.3,41.3
				z M81.1,38.2l-0.3,4.3L78,43.9l0.5-7.1c0.8,0.4,1.7,0.9,2.8,1.4L81.1,38.2z M80.7,43l-0.5,6.2c-0.5-0.2-1-0.3-1.6-0.5
				c-0.3-0.1-0.7-0.2-1-0.3l0.3-4.1L80.7,43z M77.4,48.4c-1.2-0.3-2.3-0.6-3.3-0.8l0.1-1.4l3.5-1.7L77.4,48.4z M73.8,47.6
				c-0.6-0.1-1.2-0.2-1.7-0.3l-0.1,0l1.8-0.9L73.8,47.6z M71.6,46.9l-1-0.1l0.8-13.3c1.1,0.3,2.2,0.8,3.3,1.3l-0.9,11L71.6,46.9z
				 M70.4,46.9l-3.3-0.2L68,32.9c1,0,2.1,0.2,3.2,0.5L70.4,46.9z M66.8,48.3v7.1c-1.2-1.2-2.3-2.4-3.2-3.4l0,0l0-1.1l1.9-3.6
				C65.9,47.6,66.3,47.9,66.8,48.3 M63.7,52.9l3,5.9c-0.9-0.9-1.8-1.9-2.6-2.8L63.7,52.9z M70.3,60.1l0.1,2.3
				c-0.9-0.9-1.9-1.7-2.8-2.6L70.3,60.1z M70.6,60.1l1.1,0.1l1.8,1.8l0.4,3.3c-1-0.9-2.1-1.7-3.1-2.7L70.6,60.1z M73.8,62.3l3.1,3
				l0.4,2.7c-1-0.7-2-1.6-3.1-2.4L73.8,62.3z M73.8,61.7l0-0.1c0.9,0.6,1.9,1.3,2.9,1.9l0.2,1.2L73.8,61.7z M77,63.7
				c0.9,0.5,1.8,1.1,2.8,1.6l0,0l-0.5,1.7l0.3,0.2l0.3-1.1l0.1,1.6l-2.8-2.8L77,63.7z M81,66c0.5,0.2,0.9,0.5,1.4,0.7l0.3,3.8
				l-1.4-1.4L81,66z M86.6,72.9l0.1,1.2c-0.2-0.1-0.4-0.2-0.6-0.3L86.6,72.9z M86.8,72.4l0.9-1.9l0,0l0.1-0.3l2,2.3l0.3,3.3
				c-1.1-0.5-2.1-1-3.2-1.6L86.8,72.4z M90.2,72.9l3.3,3.7l0,0.7c-1-0.4-2-0.8-3.1-1.3L90.2,72.9z M93.8,76.9l0.5,0.5l0,0.1
				c-0.1,0-0.3-0.1-0.4-0.1L93.8,76.9z M94.8,77.5l1.8-2.1l0.4,3.1c-0.6-0.2-1.2-0.4-1.8-0.6l0,0L94.8,77.5z M96.8,75.1l1.8-2.1
				c0.2,0.1,0.4,0.1,0.6,0.2l0.9,6.2c-1-0.2-1.9-0.5-2.9-0.8L96.8,75.1z M99.5,73.2c0.8,0.2,1.6,0.4,2.5,0.6l0.7,6.1
				c-0.8-0.2-1.5-0.3-2.3-0.5l0,0L99.5,73.2z M102.3,73.9c0.9,0.2,1.8,0.4,2.7,0.6l0.6,5.9c-0.9-0.1-1.8-0.3-2.6-0.5L102.3,73.9z
				 M105.9,80.1l0.1,0.2l2.7-4.9L110,81c-1.4-0.1-2.7-0.3-4.1-0.5L105.9,80.1z M109.1,75.5l2.8,5.4l0.1,0.3c-0.5,0-1-0.1-1.5-0.1
				L109.1,75.5z M112.2,81l-0.1-0.3l-1.1-5.2c0.9,0.1,1.9,0.2,2.9,0.2l0.8,5.5c-0.9,0-1.8-0.1-2.6-0.1L112.2,81z M114.2,75.8
				c1.1,0.1,2.3,0.1,3.4,0.1l0,0.1l0.8,5.4c-1.2,0-2.3,0-3.4-0.1L114.2,75.8z M121.1,80.5l0,0.8c-0.5,0-1,0-1.5,0L121.1,80.5z
				 M121.4,80.3l1.2-0.7l0.3,1.6c-0.5,0-1,0.1-1.4,0.1L121.4,80.3z M122.9,79.5l3.2-1.9l0.7,3.3c-1.2,0.1-2.5,0.2-3.7,0.3l0.1,0
				L122.9,79.5z M126.3,77.4l3.5-2l0.8,5c-1.2,0.2-2.3,0.3-3.5,0.5L126.3,77.4z M130.1,75.4l1,0.3l0.9,4.5c-0.4,0.1-0.8,0.1-1.1,0.2
				L130.1,75.4z M132.4,76l1.3,0.3l0.9,3.4c-0.5,0.1-0.9,0.2-1.4,0.3L132.4,76z M134,76.4l4.4,1.1l0.3,1.3c-1.2,0.3-2.5,0.6-3.8,0.9
				L134,76.4z M138.7,77.6l2.3,0.6c-0.6,0.2-1.3,0.4-2,0.5L138.7,77.6z M138.6,77.1l-0.7-2.8c1.3-0.2,2.5-0.4,3.7-0.6l0.8,4.1
				c-0.2,0.1-0.3,0.1-0.5,0.2L138.6,77.1z M141.8,73.6c1.5-0.3,2.9-0.6,4.1-0.8l0.8,3.4c-1.2,0.5-2.6,1-4.2,1.5l0.1,0L141.8,73.6z
				 M151,67.1c-0.2,0-0.4,0.1-0.8,0.2l0.1-2.7c0.1,0.2,0.2,0.4,0.2,0.7C150.7,66,150.9,66.6,151,67.1 M150.1,64l-0.1,3.4
				c-0.9,0.2-2.3,0.4-4.1,0.6l0-0.2l0.3-8.7C148,60.5,149.2,62.1,150.1,64 M141.1,56.3l-3.4,2l0.1-3.2c0,0,0,0,0,0
				C139,55.5,140.1,55.9,141.1,56.3 M122.5,51.6l0,0.7l-0.6-0.8C122.1,51.5,122.4,51.5,122.5,51.6 M117.9,50.8l-0.2,2.7l-3.8,2.9
				l0.4-6.3c0.9,0.2,1.9,0.4,2.8,0.5C117.4,50.7,117.6,50.7,117.9,50.8 M96.6,45.2l-0.8,10.3c-1-0.3-2-0.6-2.9-1l0-0.2l0.8-10.2
				c0.9,0.3,1.7,0.6,2.3,0.8C96,45,96.2,45,96.6,45.2 M78.2,36.7L77.7,44l-3.5,1.7L75,35c0.5,0.2,1,0.5,1.5,0.8
				C76.5,35.8,77.1,36.1,78.2,36.7 M67.7,32.9l-0.8,13.7l-1.4-0.1l-0.1,0.2c-0.6-0.5-1.2-1-1.8-1.4l0.7-11.9c1-0.3,2.1-0.5,3.3-0.5
				C67.6,32.9,67.6,32.9,67.7,32.9 M62.3,34.3c0.5-0.3,1.1-0.6,1.6-0.8l-0.6,11.5c-1.2-1.1-2.2-2-2.9-2.7l0.2-6.2
				C61.2,35.3,61.7,34.7,62.3,34.3 M59.5,48.6c-0.2-0.8-0.3-1.6-0.4-2.5c0.2,0.5,0.6,1.1,1.1,1.8l0.6,3.6
				C60.1,50.5,59.7,49.5,59.5,48.6 M77.6,68.3l-0.3-2.6l2.8,2.7l0.1,1.7C79.4,69.6,78.5,69,77.6,68.3 M81.4,71l-0.1-1.3l1.4,1.4
				l0,0.7c-0.3-0.2-0.6-0.4-1-0.6C81.7,71.2,81.5,71.1,81.4,71 M150.1,74.4c-0.4,0.4-1.5,1-3.2,1.7l-0.8-3.4
				c1.5-0.3,2.8-0.6,3.7-0.9l0.5,2.2C150.3,74.2,150.2,74.3,150.1,74.4 M150.6,73.7l-0.4-1.9c0.5-0.1,0.9-0.2,1.1-0.3
				C151.2,72.4,150.9,73.1,150.6,73.7"/>
			<path class="st3" d="M99.1,44.1c0.1,0.4-0.1,0.4-0.1,0.7c0.1,0.4,0.1-0.8,0.4-0.7c0.4,0.1,0.2,1.1,0.7,1.2
				c0.2-0.2-0.1-0.9-0.1-1.3c-0.4,0.1-0.4-0.2-0.8-0.2c0-0.1,0-0.1,0-0.2l4.3,1.3V30l-0.7-0.6l-0.3-2.9l-0.6-0.2
				c-0.6-0.2-1.2-0.6-1.9-0.7c-0.2,0.3,0,1.2-0.2,1.4l-0.2,0.1v0.1c-0.4,0.1-0.1,1.3-0.2,1.9c0.1-0.1,0.2-0.4,0.2-0.6v0.6l-0.5,0.3
				c0-0.1,0-0.2,0-0.3c-0.5,0.4-0.3,1.6-0.3,2.4c0,3.7-0.1,8.2-0.2,12C98.6,44.1,99,43.8,99.1,44.1 M100.1,27L100.1,27
				c0-0.1,0-0.2,0-0.3L100.1,27z"/>
			<path class="st3" d="M124.8,65.7l0.1-3.7l0.8,0.1l-1.2-5.2l-2.4-2.5l-1.4-4.3l-2.8-1l-0.7,3.5l0.3,7.3l0.8,0.2l-0.4,5.8l0.5,2.9
				l1.6-1.1l0.8,1.8l-0.7,3.6l-1.4,1.5l0,0.2l-11.5,11.2l-1.3-2.3l3.9-8.7l-1.5-0.1l-3.9,7.8L96,81l-0.8-3.2l-0.4,0.2l-1.3-0.4
				l1.2,3.7l-4.1,2.4l-0.2,0l-1.7-14.9L87.6,69l1.8,16.4l3.6,4.9l5.8,7.6l0.1-0.2l0.1,0.3l0.5-0.3l0.5,0.5l2-4.9l1.4,6.8l2.5-5.5
				l1.2,2.6l0.6-0.6l1.7,2.8l3.9-6.1l3,0l-3.4,5.9l0.9,1.2l8.9-15.6l0.1,0.3l0.9-2.2l0,0l0.5-0.8l-0.4-0.5l0.5-7.3l0.5-2.7l0.3-1.8
				l0.8-1.9l0.2-2L124.8,65.7z M119,81.6l-0.9,1.3l-0.8-1.2l1.2-2v0L119,81.6z M114.4,86.5l0.8-1.2l0.6,1.5l0,0.1L114.4,86.5z
				 M115.5,87.2l-0.7,1l-0.8-1.3l0.1-0.1L115.5,87.2z M114.9,82.9l0.1,0L114.9,82.9L114.9,82.9z M115.6,84.6l1.4-2.2l0.8,1.2
				l-1.6,2.5L115.6,84.6z M118.7,76.9l0,0.1l-2.3,3.7h-1.6L118.7,76.9z M115.8,81.6l-0.4,0.7l-0.7,0.3l-0.4-0.9H115.8z M113.7,81.7
				l0.4,1l-2.4,0.9L113.7,81.7z M110.9,84.4l3.4-1.3l0.2,0.5l-1.5,2.4l-0.1,0l-2.9-0.7L110.9,84.4z M112.5,86.9l-1.4,2.3l-1.7-2.7
				L112.5,86.9z M108.6,86.7l2,3.2l-0.6,0.9l-0.2,0l0.1-0.1l-2-3.3L108.6,86.7z M104.8,84.6L104.8,84.6l1.4,2.3l-1.7,1.6l-0.8-1.7
				L104.8,84.6z M103.6,84.4l-0.7,1.5l-4.2-0.8L97.2,83L103.6,84.4z M95.3,82.9l0.4,1.7l-2.5-0.5L95.3,82.9z M93.8,89l-2.5-3.4
				l4.9,0.9l0.8,3.1L94,89.2L93.8,89z M95.5,91.2l1.9,0.2l0.8,3.3L95.5,91.2z M97.4,86.7l0.7,0.1l2.2,3.2l-2.1-0.3L97.4,86.7z
				 M99.7,95.8l-1-4.2l2.6,0.3L99.7,95.8z M102.1,90.3l-2.1-3.1l2.7,0.5l0.8,1.8l-0.9,0.8L102.1,90.3z M103.8,96.1l-0.8-3.9l1.9,0.2
				l0.3,0.6L103.8,96.1z M105.5,90.7l-0.3-0.7l1.8-1.7l1.5,2.5l-2.3,0L105.5,90.7z M109.3,96.8l-2.6-4.2l5.3,0L109.3,96.8z
				 M113.2,90.8l-1.2,0l-0.1-0.2l1.8-2.9l0.7,1.2L113.2,90.8z M113.8,92.4l1.4-2.2l1.3,2.2L113.8,92.4z M117,91.9l-1.4-2.4l1.2-1.9
				l2.6,0L117,91.9z M117.4,86.7l1.2-1.9l1.3,1.9L117.4,86.7z M120.3,86.1l-1.3-1.9l0.8-1.3l1.9-0.2l0.2,0.5L120.3,86.1z"/>
			<polygon class="st3" points="89.7,53.6 97.5,49.1 101.1,50.8 105.6,51.3 105.8,49.7 102.5,46.2 99.6,45.2 99.5,47.1 97.5,46.8
				97,48.8 89.6,53.2 			"/>
			<rect x="94.9" y="97.1" class="st3" width="23.6" height="4.9"/>
		</g>
	</g>
</g>
</svg>
