<svg id="geomuseum" xmlns="http://www.w3.org/2000/svg" width="110mm" height="25mm" viewBox="0 0 311.81 70.87"><defs><style>.cls-1{fill:#537589;}.cls-2{fill:#fff;}</style></defs><title>koldkrig_menu_logo</title><rect class="cls-1" x="-2.34" y="-7.21" width="317.35" height="85.52"/><g id="New_Symbol_38" data-name="New Symbol 38"><path class="cls-2" d="M104.06,35.42c-1.79-5.94-6.22-9.54-15.32-12.43A109.45,109.45,0,0,0,69.6,18.6l-.15,0-.09-.12,0,.1c-1.39-.23-2.9-.47-4.61-.77A146.49,146.49,0,0,1,48,13.67,1.93,1.93,0,0,0,48,13a1.09,1.09,0,0,0,0-.18.88.88,0,0,1,.35.1.88.88,0,0,0,.63.1l.19-.05-.06-.29a.77.77,0,0,0-.7-.65.74.74,0,0,1-.4-.21V10.61l-.31.84a4.88,4.88,0,0,0-.17,1.33c0,.25,0,.5-.06.73l-1-.32-.24-.1v0c-3.53-1.1-5.89-1.93-5.94-1.95C34.12,9.38,17.81.66,17.66.58,12.22-2.64,7.27-3.55,3.15-2.19H3v.07a12,12,0,0,0-2.21,1C-3.26,1.35-4.41,10.1-3,16.74c1.69,7.74,17.33,20.82,24.77,25.93v0h.06c.54.37,1,.71,1.48,1C36.89,52.23,49,55.56,66.4,55.56c18,0,35.05-6.17,36.95-8.3S105.61,40.58,104.06,35.42Zm.29,7.13-1.35.36.07-4.19c.48-.1.82-.19,1-.24A15.39,15.39,0,0,1,104.35,42.55ZM98.28,44,98,39.5c2.11-.23,3.68-.5,4.72-.71l-.07,4.2C101.59,43.26,100.1,43.61,98.28,44Zm-70,1.48L25,42.24l-.32-4.55q1.88.93,3.9,1.83L29.08,44l-.76,1.55Zm-1.47-.83c-.57-.32-1.14-.67-1.72-1l0-.73ZM-1.06,16.41a49.14,49.14,0,0,0,3.17,4.23l.52,3.91a38.07,38.07,0,0,1-3-3.89Zm-1.79-3.88a24.44,24.44,0,0,1,.14-4.47c.27.33.67.79,1.21,1.37l-.08,5.42C-2.24,13.76-2.65,13-2.85,12.53Zm.21-5A16.66,16.66,0,0,1-1.23,2.62l-.25,6.2C-2,8.24-2.4,7.78-2.64,7.48Zm1.39,7.82.08-5.52c.82.86,1.92,1.91,3.33,3.13l-.06,6-.33.63a41.7,41.7,0,0,1-3-4.15Zm5.58-.62L2.44,18.27l.05-5.08C3.06,13.67,3.67,14.16,4.33,14.68Zm31.83,8.5C35,22.78,34,22.36,33,22l-.1-.09.76-12.21c1.2.54,2.35,1,3.4,1.46L36.16,23ZM93.26,45l-.21-5.13c1.76-.08,3.3-.21,4.63-.34L98,44.07C96.55,44.37,95,44.69,93.26,45ZM66.5,54.51l-.93-6.34,1.37,0c.71,0,1.41,0,2.12,0l.16,4.77-2.69,1.58ZM50.92,46.67c1.21.26,2.44.48,3.69.67l-3,5.49Zm-3.58-1.36-.15-10.79.12-.29.15-.08h0l2.94,5.05.12,6.86C49.44,45.82,48.38,45.57,47.34,45.31ZM22.61,36.08l0-.25v-3l1.78-5.71L24.3,37C23.73,36.67,23.16,36.38,22.61,36.08ZM18,33.41h0l.2-5.28,3.1-.91v8.13C20.09,34.7,19,34.05,18,33.41ZM14.2,31V29.28l3.6-1.06-.18,5C16.41,32.45,15.27,31.7,14.2,31ZM6.5,24.67V16.31c1.1.8,2.3,1.62,3.63,2.47l.07,9.16c-1-.83-1.93-1.63-2.78-2.4l-.92-.87Zm-1.3-9.9h1l-.05.73Zm19.57,3.51c-.53-.21-1.08-.42-1.64-.62l.62-8.36,1.61-.78-.58,9.63Zm0,.54-.34,6.73L22.65,24l.44-5.83C23.66,18.39,24.21,18.6,24.74,18.82Zm26.37,1.42L50.64,27v0l-3.38-.69L48.1,14.9l1,1.19L51,18.81l-.19.77Zm19.07,11,.29,6.89L68.9,38l-.14-7ZM82.06,46.72l-.36-6.95,1.68.09v6.69Zm-7.18.66-.08-8.17c1.41.14,2.77.27,4.07.37l.38,7.28,0,.16C77.83,47.16,76.36,47.28,74.88,47.38Zm-5.51.25-.44-9.16,1.55.22-.24,8.92Zm1.44-8.9c1.26.17,2.48.31,3.66.44l.07,8.24c-1.31.08-2.63.15-4,.19Zm9.52.43-1.15-.08V33.85l1.41.49-.26,4.82ZM79.61,47l0-.19-.38-7.18,1.16.08.36,7.18Zm4.11-7.11c1.49.07,2.9.09,4.23.1l.35,5.89c-1.46.23-3,.45-4.58.65Zm4.2-.42c-1.32,0-2.72,0-4.2-.1v-.1l.1-3.69c1.58.63,3,1.24,4.15,1.8Zm.38-1.94C90,38.3,91.22,39,92,39.4c-1.16,0-2.4.05-3.72.05Zm-4.92,1.73v.1l-1.7-.09h0l.23-4.42,1.58.6ZM81.94,34.3l.12-2.3,1.55-.9-.11,3.8Zm-1.32-.48-1.06-.37,1.11-.64Zm-1.78-.08v5.32c-1.3-.1-2.65-.23-4-.38V32.49C76.22,32.89,77.57,33.32,78.84,33.74Zm-4-1.78.28-4.15,3.52,5.32C77.41,32.73,76.14,32.34,74.81,32Zm-.35,6.69c-1.18-.13-2.4-.28-3.65-.45l-.3-6.84,2.34.6c.55.14,1.09.29,1.61.44ZM66.2,29.8l3-9.6-.77,10.11Zm2.22,1,.15,7.05-.73-.1L65.12,34l0-.78L66,30.3C66.76,30.45,67.55,30.63,68.42,30.84ZM50.89,46.13l-.11-6.29,4,6.89v.11C53.46,46.64,52.16,46.41,50.89,46.13ZM50.62,27.5l-.15,3.55-3.28,2.37.05-6.62Zm6.08,1.13v.07L55,29.6l0-1.27Zm8.06,5.52,0,0-.09,3.11c-.66-.11-1.32-.22-2-.35Zm-2.52,2.71-1.68-.31.15-5.4,3.74,2.72Zm-14-3-.07,0,2.28-1.21-.08,1.75Zm8.51-3.76-.59,5.6-1-.21L55,31.51l0-1.36,1.7-.9Zm0,3,0,2.78-.31-.07Zm-1.61,6.63V36l.93.2-.85,8.17Zm-.53-9.83-3.81,2,0-.44,3.76-2.72ZM50.43,32l-1.9,1,1.92-1.39Zm.35.37,3.85-2,.08,2.9,0,2.1q-2-.43-4.05-.93Zm5.62,3.85.38.08L57,43.88l-1.67,2.26Zm.75.16,3.07.61.13,2.4-3,4Zm3.41.68,1.34.24L60.66,39Zm-.34-.6-3.09-.61-.06-6,.09-.86.18-.1.14-.11,2.91,2.11Zm-9.38-5.7L51,27.57c1.28.26,2.41.47,3.41.65Zm-4,3.2h0v.45l-3,7.36L43.21,33C44.38,33.33,45.58,33.66,46.81,34Zm-3.58-1.5.07-1.41,2.57,2.13C45,33,44.09,32.72,43.23,32.48Zm4.92,1.85,2.18.53.06,3.54L48,34.29Zm2.54.62c1.38.33,2.74.64,4.06.93l0,2.07v8l-4-6.92Zm5.39,10.93,1-1.34,0,.62Zm1-.16,0,1.43-1.74-.22Zm.3-1.65,3-4,.14,2.66-3.09,2.19Zm3.29-4.43,1.65-2.23,2.32.4v.09l.1,1.8-3.92,2.79ZM65,37.89v0l1.91.31-1.83,1.29Zm0-.55.08-2.71,2.18,3.08Zm.16-5.47,0-1.75.46.1ZM64.81,33l-.13.41-4-2.87,0-1.28c1.32.22,2.59.43,4.13.75Zm-4.41-2.7-2-1.42,1.17.19.82.14Zm-3.67-2.23-1.64-.28,2.11-7.57ZM51,27.05V27l.43-6.11L52.94,24,54.4,27.7ZM46.83,33.4l-3.5-2.89.25-4.32,0-.22c1,.25,2.12.51,3.28.76Zm-3.59-7.47,0-.06h0Zm0,.2L43,30.22l-1.88-1.56,2.11-2.59ZM43,30.78l-.09,1.59c-1-.29-2-.59-3-.89l.07-1.35L40.83,29ZM33.08,40.85l0-2.28,3.28-4,.48,7.67C35.51,41.77,34.28,41.31,33.08,40.85ZM22.59,26.29v-.77l1,.47Zm1.66,0-1.66,5.32V26.82Zm-11.7,3.43,1.32-.38v1.34Zm-.5-.38c-.53-.4-1-.78-1.51-1.17h0L10.46,19c1.06.67,2.2,1.36,3.4,2.06v7.8Zm2.15-8.14c1.19.67,2.45,1.36,3.79,2l-.17,4.4L14.2,28.75Zm0-.68.25-3.19,3.7,3.27L18,22.74h0c-1.35-.69-2.61-1.38-3.81-2.06Zm21.29,9.51c-.88-.29-1.74-.59-2.57-.89V23l2.63,7Zm.6.74.19,3.11-3.25,4,0-1.49,2.63-5.76Zm.34.12,1.82.59-1.65,2Zm-5.68,9,1.18-10.56.65.23v.24l.09,6.43L31,40Zm0,.54v0Zm-.19-2-.84-9.92,1.87.71ZM32,28.84l.59-5.3v5.52Zm.71,9.48-1.26,1.54,1.25-2.73Zm.3-2.78-.08-5.72v-.11c.77.28,1.56.56,2.36.83Zm-1.34-6.82-2-.75-.62-7.25.06,0c1.06.49,2.13,1,3.27,1.47ZM28.9,22.84l.43,5-.62-.24Zm-.52,4.62C27.2,27,26.05,26.51,25,26l-.11-.1,3.81-5.17Zm-5.77-2.89,1,.86-1-.45V24.8Zm-1.34-.2c-1-.49-2-1-2.93-1.45v-.14l.13-1.86,2.87,2.53Zm-2.95-.91c.94.47,1.92,1,2.93,1.44v1.78l-3.08.9Zm10,4.53.11,7.29L25,26.59C26.07,27.06,27.2,27.53,28.36,28Zm.34.13.68.27,1,11.36-.1,0-1.43-3.57Zm4,10.85,0,1.74-1.1-.43Zm3.93-4.81,2-2.51.85.26.71,11.35v.08c-1.06-.33-2.1-.66-3.1-1ZM39,31.23l.53-.66,0,.81Zm.92-1.8,0-1.11.5.43Zm-.35.43-1,1.23c-.73-.23-1.46-.46-2.17-.7l0-5,3.2,2.66Zm-3.51.42-.25-.08.1-.22-2.75-7.31,3,2.46Zm-6.88-10-.2-.09h0l.5-9,3,10.53C31.34,21.22,30.27,20.73,29.21,20.24Zm-4.46,5.12L25.07,19c1.15.48,2.23,1,3.33,1.46Zm-3.37-2.48-2.87-2.53.25-3.53,1.14.32c.66.19,1.27.38,1.87.58Zm-3.19-2.81-3.7-3.26.08-1c1.19.25,2.48.54,3.86.91Zm-4-3.54-1.11-1,1.17.21Zm0,.55-.26,3.41c-1.21-.69-2.34-1.38-3.4-2l.2-3.27,1.55.23ZM6.56,14.79c.92.05,2.19.13,3.77.34l-.18,3.1q-2-1.28-3.64-2.48ZM6.19,25l.26,3.17L3.25,22C4.12,22.92,5.1,23.94,6.19,25Zm.37.35c.21.2.43.41.66.61.91.84,1.9,1.7,3,2.59l0,.7-3.43-.38Zm4,3.48c.22.17.43.35.66.52l-.63-.07Zm3.31,2.49Zm10.82-4.43,3.77,9.42,0,2.66c-1.35-.6-2.65-1.21-3.89-1.83Zm4.12,10.29.93,2.33-.91-.39Zm1.19,3,.39,1-.05.06,0,.05-1,2.15-.43-3.71Zm1.29.54c.48.19,1,.39,1.45.57l.2,2.23-2.05-2.31Zm1.8.71c1.2.46,2.44.92,3.72,1.36l.34,5.48-3.84-4.33Zm4.06,1.48c1,.34,2.06.68,3.13,1l.35,3-2.26,2.68-.86-1ZM40.66,44l2,.59-1.67,2Zm-.07-.55,0-.27L39.86,32c1,.3,2,.59,3,.87v0l.73,9.65-.63,1.57C42.14,43.92,41.36,43.69,40.59,43.45Zm3-.08.07.85,0,.14-.44-.12Zm.42.76-.11-1.52,2.9-7.22L47,45.22q-1.47-.36-2.88-.75Zm13.14,3.54,1,4.87-2.56-5.07Zm.33-.48-.06-1.72,3.1-2.2.21,4,0,.23C59.7,47.4,58.61,47.3,57.52,47.19Zm3.58,0L60.88,43l3.92-2.78.4,7.39c-1.35,0-2.7-.08-4-.16Zm4-7.12,2.46-1.75,1,.15L69,47.64c-1.16,0-2.33,0-3.49,0Zm4.27,8.13.92,0L70.9,52l-1.35.79Zm1.26,0c1.32,0,2.63-.11,3.92-.19l.34,1.68-3.69,2.16Zm4.26-.22c1.14-.07,2.27-.16,3.38-.26l-3.07,1.79Zm7.23-.67,1.34-.16.26,1-1.51-.39ZM83.82,47c1.57-.2,3.09-.42,4.54-.65l.81,3.08-5-1.29Zm4.81-1.22L88.29,40h.24c1.51,0,2.9,0,4.19-.09l.21,5.18C91.58,45.32,90.14,45.57,88.63,45.8ZM93,39.35l.23-13.6A26.22,26.22,0,0,1,98,28.4l-.37,10.37V39C96.32,39.16,94.78,39.28,93,39.35Zm-.34-.09c-.59-.35-2.09-1.21-4.39-2.29l.17-8.7,4.45-2.58ZM88,36.81c-1.19-.55-2.57-1.15-4.14-1.78L84,30.91l4.19-2.44Zm-4-6.48.22-7.65c1.23.35,2.56.75,4,1.22l-.08,4Zm-.34.2-1.53.9.49-9.2,1.26.35Zm-2.92,1.7-1.52.88.38-11.62c.55.12,1.12.26,1.69.4Zm-1.84.54-3.73-5.62.44-6.48c1.26.23,2.45.47,3.66.74Zm-4-6.08-3.64-5.5.09-1.27c1.44.24,2.74.47,4,.69Zm0,.66-.3,4.52c-.52-.14-1-.29-1.57-.42-.86-.23-1.66-.44-2.4-.62l.63-9Zm-4.6,3.4-1.43-.36.82-10.75.12,0,1.14,1.73ZM68.88,20l-3,9.75-.59-.13h0l.41-7.12Zm-3.19,1.89L65.85,19l2.9.48Zm-.78,7.66c-1.54-.32-2.81-.54-4.13-.76V28.6l.15-2.46,4.38-3.39Zm-4.46-1v.15l-.81-.13-1.56-.25,2.49-1.93Zm-3-.35L57.1,28l2.52-10.13c.48.11,1,.22,1.43.31l-.44,7.67Zm-.19-2.48.76-8.28c.41.1.82.2,1.22.28Zm0-7.15-2.36,8.46.56-10.22,1.88.47Zm-2.72,8.55L53.22,23.7l-1.74-3.56.29-4.31c1.09.31,2.22.61,3.37.91Zm-3.35-8.66-1.88-2.79L48.7,15l2.72.78Zm-3.48-3.82L46.91,26.2c-1.16-.25-2.24-.5-3.26-.75l1.14-11.71C45.68,14,46.68,14.34,47.75,14.66Zm-4.46,10.7c-1.11-.28-2.14-.56-3.11-.85l1-12c.75.25,1.89.63,3.3,1.08Zm-.38.43-2.12,2.6L40,27.75,40.15,25C41,25.29,41.93,25.54,42.91,25.79Zm-3.21,1.7-3.22-2.68v-1c1,.37,2.13.73,3.33,1.09Zm-3.55-2.95L34.33,23c.58.23,1.19.47,1.83.7ZM32.64,21l-3.06-10.9.12-2.3c1.24.59,2.47,1.17,3.66,1.71ZM29.29,9.09,28.8,7.35l.58.28Zm-.06,1.09L28.69,20c-1.19-.54-2.35-1.06-3.59-1.58v-.23l.6-9.84L28.3,7.11a.19.19,0,0,0,.08,0ZM25.75,7.79l.11-1.89,1.87.93ZM25.4,8l-1.61.78L24.07,5l1.46.73ZM22.76,4.41l-.37,5L19.17,11l.57-8.19c.89.47,2,1,3.23,1.67ZM22.35,10l-.54,7.23c-.59-.19-1.2-.39-1.85-.57l-1.17-.33.34-4.78Zm-3.89,6.25c-1.37-.37-2.66-.67-3.85-.91l.13-1.67,4-2Zm-4.18-1c-.68-.14-1.34-.26-1.95-.36l-.07-.06,2.13-1Zm-2.46-.75-1.11-.06L11.61-1A23.42,23.42,0,0,1,15.42.47l-1,12.77Zm-1.44-.09L6.6,14.19,7.54-1.75a15.9,15.9,0,0,1,3.74.6ZM6.16,16.07v8.28c-1.43-1.39-2.67-2.74-3.73-4V19.12l2.2-4.2Zm-3.6,5.38,3.53,6.84Q4.46,26.64,3,25Zm7.74,8.31.17,2.7c-1.1-1-2.19-2-3.23-3Zm.34,0,1.24.14L14,32l.46,3.87c-1.19-1-2.4-2-3.6-3.11Zm3.72,2.58,3.58,3.54L18.35,39c-1.13-.86-2.33-1.81-3.54-2.81Zm-.08-.7,0-.12c1.07.74,2.19,1.49,3.4,2.24l.19,1.41ZM18,34c1,.63,2.09,1.26,3.22,1.88V36l-.62,2,.3.23.4-1.29.16,1.9-3.25-3.2Zm4.63,2.64c.54.29,1.09.57,1.66.85l.3,4.38L23,40.25Zm6.5,8,.16,1.4-.67-.35Zm.27-.56,1.09-2.24v0l.15-.33L33,44.2l.33,3.86c-1.22-.56-2.44-1.16-3.66-1.81Zm4,.53,3.82,4.31,0,.79c-1.19-.46-2.37-1-3.55-1.5Zm4.18,4.73.54.6,0,.07-.46-.17Zm1.1.59,2-2.42.41,3.56c-.71-.23-1.4-.46-2.1-.71v0ZM41,47.17l2.06-2.46.72.2,1,7.22c-1.13-.29-2.23-.6-3.33-.94ZM44.18,45c.93.25,1.88.5,2.85.74l.79,7.06c-.9-.18-1.79-.39-2.67-.61h0Zm3.22.83c1,.26,2.08.5,3.15.74l.71,6.85c-1-.16-2.06-.34-3.07-.54Zm4.19,7.22.16.22,3.14-5.66,1.46,6.44c-1.61-.15-3.19-.34-4.72-.57Zm3.67-5.44,3.2,6.31.06.31-1.78-.14ZM59,54.09l-.16-.31-1.23-6.07c1.1.11,2.2.22,3.32.29l1,6.43c-1,0-2-.1-3-.16ZM61.23,48c1.33.08,2.66.14,4,.16v.06l.92,6.28c-1.35,0-2.67,0-4-.07Zm8,5.47,0,1-1.77,0Zm.33-.19L71,52.46l.29,1.9c-.55,0-1.1.06-1.66.09Zm1.73-1L75,50.11,75.81,54c-1.42.16-2.86.28-4.31.37l.11,0Zm4-2.36,4-2.35.9,5.83c-1.34.21-2.71.39-4.1.55Zm4.37-2.36,1.18.3,1,5.27-1.32.22Zm2.64.67,1.55.39,1,4-1.62.31Zm1.92.49L89.32,50l.38,1.47c-1.41.36-2.9.7-4.46,1Zm5.44,1.4,2.62.67L90,51.4Zm-.14-.57-.85-3.23c1.5-.24,2.93-.49,4.28-.73l.9,4.73-.6.19Zm3.76-4c1.74-.32,3.32-.64,4.72-.94l.89,4c-1.34.54-3,1.11-4.83,1.69l.12-.06ZM104,38l-.91.21.11-3.11c.1.26.18.52.27.78C103.67,36.59,103.85,37.29,104,38Zm-1.11-3.68-.14,4c-1,.22-2.62.49-4.75.72l0-.22.36-10.12A13.78,13.78,0,0,1,102.88,34.3ZM92.46,25.41l-4,2.3.07-3.7h0C90,24.46,91.28,24.92,92.46,25.41ZM70.93,19.87l-.05.86-.65-1ZM65.52,19l-.18,3.17L61,25.53l.42-7.32c1.1.22,2.19.43,3.26.61ZM40.8,12.44l-.95,12c-1.21-.37-2.32-.74-3.36-1.11V23l.92-11.79c1,.4,1.93.73,2.69.95ZM19.41,2.6l-.59,8.52-4,2,1-12.44c.56.29,1.12.59,1.69.92C17.46,1.58,18.2,2,19.41,2.6ZM7.21-1.77,6.27,14.16l-1.63-.09-.1.2c-.74-.58-1.42-1.13-2-1.66L3.28-1.17a11.85,11.85,0,0,1,3.79-.61ZM1-.12A10.82,10.82,0,0,1,2.93-1L2.18,12.33C.75,11.09-.35,10-1.16,9.16l.29-7.23A5.82,5.82,0,0,1,1-.12ZM-2.33,16.4a25.17,25.17,0,0,1-.44-2.87c.28.54.69,1.27,1.24,2.15l.72,4.22A12.17,12.17,0,0,1-2.33,16.4ZM18.73,39.29l-.39-3,3.2,3.17.17,2C20.8,40.83,19.8,40.1,18.73,39.29Zm4.41,3.14L23,40.92l1.66,1.63.06.87-1.13-.7Zm79.82,4a12.09,12.09,0,0,1-3.7,2l-.89-3.92c1.77-.38,3.22-.73,4.29-1l.6,2.5Q103.11,46.23,103,46.41Zm.56-.8L103,43.44l1.29-.34A7.19,7.19,0,0,1,103.52,45.61Z"/><path class="cls-2" d="M43.65,11.24c.09.48-.16.44-.11.86s.12-.94.44-.86c.5.08.29,1.27.77,1.38.21-.23-.1-1.09-.11-1.55-.41.13-.52-.21-.88-.17a1.15,1.15,0,0,1,0-.19l5,1.5V-5.13L48-5.83l-.35-3.35-.72-.25a9.8,9.8,0,0,0-2.15-.78c-.22.34,0,1.39-.26,1.65l-.18.07v.17c-.48.12-.1,1.56-.22,2.23a1.62,1.62,0,0,0,.22-.74v.74l-.53.35c0-.11,0-.23,0-.35-.6.52-.33,1.84-.33,2.74,0,4.26-.14,9.49-.22,13.91C43.09,11.19,43.58,10.89,43.65,11.24ZM44.87-8.68h0c0-.14,0-.27,0-.4Z"/><path class="cls-2" d="M73.52,36.27l.16-4.34.95.12L73.2,26l-2.79-2.86-1.59-4.95-3.27-1.12-.79,4.09.32,8.43,1,.25-.48,6.7.56,3.34L68,38.62l.87,2.11L68.11,45l-1.61,1.7v.18l-13.38,13-1.55-2.62,4.5-10.08L54.33,47l-4.5,9.07-9.69-2-.93-3.77-.46.27L37.27,50l1.35,4.35-4.75,2.76-.27,0L31.66,39.81l-1.32.36,2.14,19.08,4.19,5.64,6.74,8.87.11-.2.1.4.62-.38.57.54,2.27-5.71,1.6,7.91,2.85-6.43,1.34,3,.67-.72,2,3.26,4.56-7.11,3.52,0-3.9,6.87,1,1.39L71,58.48l.15.37,1.08-2.5v0l.53-1-.43-.61.53-8.44.56-3.1.32-2.11.87-2.23.24-2.35ZM66.87,54.79l-1,1.54-1-1.43,1.45-2.31v0Zm-5.42,5.62.9-1.43.72,1.73L63,60.8Zm1.27.84-.78,1.21L61.07,61l.09-.15Zm-.67-5,.14,0-.11.15Zm.78,1.91,1.6-2.55,1,1.42L63.55,60Zm3.6-8.85v.13l-2.67,4.24H61.92Zm-3.32,5.42-.49.77-.77.29-.44-1.06Zm-2.43.16.48,1.17-2.78,1.06Zm-3.22,3.12,3.89-1.49.26.61L59.83,60l-.12,0-3.36-.84ZM59.23,61l-1.68,2.68L55.63,60.5Zm-4.44-.32,2.29,3.75-.64,1h-.22l.1-.16L54,61.38Zm-4.41-2.36h0L52,60.93,50,62.81l-.88-2ZM48.88,58,48,59.7l-4.85-.87-1.63-2.41Zm-9.63-1.71.48,2-2.93-.53Zm-1.7,7-2.92-3.92,5.64,1,.9,3.62-3.42-.45Zm2,2.6,2.18.29L42.64,70Zm2.26-5.22.78.14,2.5,3.71-2.41-.32Zm2.61,10.55-1.2-4.85,3,.39Zm2.81-6.42-2.43-3.59,3.16.57.94,2.13-1,1Zm1.94,6.81L48.21,67l2.18.29.33.73Zm2-6.29-.35-.8,2.09-2,1.72,2.91-2.68,0Zm4.41,7.1-3-4.91,6.15,0Zm4.52-7H58.61l-.14-.24,2.13-3.4.87,1.44Zm.69,1.89,1.64-2.55,1.54,2.58Zm3.77-.54L62.86,64l1.43-2.23,3,0Zm.44-6,1.42-2.22,1.54,2.25ZM68.37,60l-1.51-2.21,1-1.48L70,56.07l.27.62Z"/><polygon class="cls-2" points="32.8 22.25 41.79 16.98 46.05 19.03 51.23 19.63 51.46 17.7 47.65 13.61 44.31 12.49 44.16 14.69 41.81 14.39 41.32 16.7 32.69 21.77 32.8 22.25"/></g><path class="cls-2" d="M130.59,27.7V28l4.74,6v.64l-.14.16H134c-1.74-2-3.2-4-4.84-6h-1.3v5.88l-.14.16h-1.32l-.14-.16V20.72l.16-.16h1.3l.14.16v6.52H129l4.66-6.68h1.18a.83.83,0,0,0,.12.16v.6Z"/><path class="cls-2" d="M141.35,35.1c-3.18,0-4.44-1.84-4.44-3.78V23.94c0-1.78,1.2-3.76,4.46-3.76S145.81,22,145.81,24v7.4C145.81,33.26,144.55,35.1,141.35,35.1ZM144.21,24c0-1.82-1.26-2.32-2.84-2.32-1.78,0-2.9.56-2.9,2.32v7.34c0,1.84,1.9,2.3,2.76,2.3h.28c.82,0,2.7-.38,2.7-2.28Z"/><path class="cls-2" d="M156.37,33.42v1.24l-.14.16h-7.94l-.14-.16V20.72l.14-.16h1.34a.7.7,0,0,0,.1.16V33.26h6.5Z"/><path class="cls-2" d="M167,24.34V31a3.59,3.59,0,0,1-3.76,3.82h-4.76s-.14-.14-.16-.16v-14l.2-.16h4.64A3.61,3.61,0,0,1,167,24.34Zm-1.56.06a2,2,0,0,0-2.12-2.28h-3.42V33.26h3.44a2,2,0,0,0,2.1-2.28Z"/><path class="cls-2" d="M173.65,27.7V28l4.74,6v.64l-.14.16h-1.2c-1.74-2-3.2-4-4.84-6h-1.3v5.88l-.14.16h-1.32l-.14-.16V20.72l.16-.16h1.3l.14.16v6.52H172l4.66-6.68h1.18a.83.83,0,0,0,.12.16v.6Z"/><path class="cls-2" d="M189.89,34.82h-1.36L185,28.64l-1.44,0-.88-.52v6.58l-.18.16h-1.22l-.18-.16v-14l.14-.14h4.7c3,0,3.68,1.7,3.68,3.58v1.1c0,.82-.34,3.36-2.84,3.36L190,34.24v.44Zm-4.18-7.56c1.68,0,2.28-.5,2.28-2v-1c0-1.58-.64-2.06-2.12-2.06h-3.22v5.12Z"/><path class="cls-2" d="M194.2,34.66l-.14.16h-1.28l-.16-.16V20.72l.16-.16h1.28l.14.16Z"/><path class="cls-2" d="M204.09,28.36l.8-.94h.82c0,2.06,0,6.5,0,7.24l-.18.18-1.46,0v-.68l-2.72.84c-3.68,0-4.32-1.74-4.32-4.06V24.2c0-1.24.58-3.76,4.36-3.76,3.46,0,4.26,1.18,4.32,3.4l-.16.18h-1.26l-.18-.18c-.12-1.6-.86-1.84-2.72-1.84-1.4,0-2.8.26-2.8,2.24v6.68c0,2,.8,2.46,2.8,2.46l2.68-.06Z"/><path class="cls-2" d="M217,31.22c0,2.56-1.18,3.86-4.48,3.86s-4.3-1.34-4.36-3.52l.16-.14h1.28l.14.14c.08,1.42,1,1.94,2.76,1.94,2.34,0,2.94-.58,2.94-2.32a2,2,0,0,0-1.22-2c-1.24-.64-2.46-1.2-4-1.94A3.1,3.1,0,0,1,208.42,24c0-2.1,1-3.6,4.14-3.6s4.2.86,4.28,3.4l-.16.16h-1.3l-.16-.18c0-1.44-.52-1.84-2.66-1.84s-2.58.74-2.58,1.94a2,2,0,0,0,1.24,2c1,.48,2.58,1.16,3.6,1.64C216.3,28.24,217,29,217,31.22Z"/><path class="cls-2" d="M230.54,20.7v14l-.16.16h-1.3l-.14-.14V23.14l-.3.92c-.94,1.94-2.06,4.18-3,6.14H224.3l-3-6.14-.34-1V34.68l-.16.14h-1.26l-.18-.16V20.72l.14-.16h1.84L225,28l3.56-7.4h1.86Z"/><path class="cls-2" d="M242,20.7V31c0,2.68-1.33,4-4.44,4s-4.46-1.32-4.46-4V20.72l.14-.16h1.28l.16.16V31c0,1.84,1.08,2.54,2.88,2.54s2.86-.76,2.86-2.54V20.72l.14-.16h1.28Z"/><path class="cls-2" d="M253.2,31.22c0,2.56-1.18,3.86-4.48,3.86s-4.3-1.34-4.36-3.52l.16-.14h1.28l.14.14c.08,1.42,1,1.94,2.76,1.94,2.34,0,2.94-.58,2.94-2.32a2,2,0,0,0-1.22-2c-1.24-.64-2.46-1.2-4-1.94A3.1,3.1,0,0,1,244.6,24c0-2.1,1-3.6,4.14-3.6s4.2.86,4.28,3.4l-.16.16h-1.3l-.16-.18c0-1.44-.52-1.84-2.66-1.84s-2.58.74-2.58,1.94a2,2,0,0,0,1.24,2c1,.48,2.58,1.16,3.6,1.64C252.48,28.24,253.2,29,253.2,31.22Z"/><path class="cls-2" d="M255.58,34.62V20.7l.16-.14h8.06l.14.14V22l-.16.16h-6.62V26.5h6.18l.14.14v1.28l-.14.16h-6.18v5.18h6.62l.16.18v1.22l-.14.16h-8Z"/><path class="cls-2" d="M275.27,20.7V31c0,2.68-1.34,4-4.44,4s-4.46-1.32-4.46-4V20.72l.14-.16h1.28l.16.16V31c0,1.84,1.08,2.54,2.88,2.54s2.86-.76,2.86-2.54V20.72l.14-.16h1.28Z"/><path class="cls-2" d="M288.93,20.7v14l-.16.16h-1.3l-.14-.14V23.14l-.3.92c-.94,1.94-2.06,4.18-3,6.14h-1.36l-3-6.14-.34-1V34.68l-.16.14H278l-.18-.16V20.72l.14-.16h1.84l3.6,7.4,3.56-7.4h1.86Z"/><path class="cls-2" d="M132.57,44.18c1.58.72,2.32,1.5,2.32,3.84,0,2.7-1.22,4.06-4.64,4.06s-4.46-1.48-4.52-3.9l.42-.4h1.5l.42.4c.06,1.14.82,1.56,2.16,1.56,1.88,0,2.36-.44,2.36-1.76a1.46,1.46,0,0,0-.94-1.54L128,44.62a3.28,3.28,0,0,1-2-3.42c0-2.22,1.06-3.78,4.32-3.78s4.36.94,4.44,3.76l-.4.42h-1.58l-.38-.48c0-1.14-.36-1.42-2.08-1.42s-2,.52-2,1.4a1.54,1.54,0,0,0,.92,1.54Z"/><path class="cls-2" d="M139.81,51.82V39.92h-3l-.4-.4V38l.4-.44h8.46l.38.42v1.48l-.44.46h-3V51.4l-.4.42Z"/><path class="cls-2" d="M147.4,51.36V38l.42-.42h7.9l.38.42v1.5l-.4.42h-6v3.26h5.54l.4.4v1.52l-.4.4h-5.54v4h6l.36.46V51.4l-.38.42h-7.86Z"/><path class="cls-2" d="M168.9,38v.76l-3.72,13.06h-3.63c-2.68-9.62-3.26-11.42-3.68-12.94V38l.42-.48H160l3.3,12h.2l3.35-12h1.66Z"/><path class="cls-2" d="M180.06,38V51.36l-.32.46h-2.16l-4.12-8.26-.5-1.2v9l-.4.42h-1.5l-.42-.42V38l.42-.44h2l4.22,8.4.48,1.34V38l.42-.42h1.52Z"/><path class="cls-2" d="M189,44.18c1.58.72,2.33,1.5,2.33,3.84,0,2.7-1.23,4.06-4.65,4.06s-4.46-1.48-4.52-3.9l.42-.4h1.5l.42.4c.06,1.14.82,1.56,2.16,1.56,1.88,0,2.36-.44,2.36-1.76a1.46,1.46,0,0,0-.94-1.54l-3.68-1.82a3.28,3.28,0,0,1-2-3.42c0-2.22,1.06-3.78,4.32-3.78s4.36.94,4.44,3.76l-.39.42h-1.59l-.38-.48c0-1.14-.36-1.42-2.08-1.42s-2,.52-2,1.4a1.54,1.54,0,0,0,.92,1.54Z"/><path class="cls-2" d="M193.47,51.82V38l.42-.42h7.9l.38.42v1.5l-.4.42h-6v3.26h5.54l.4.4v1.52l-.4.4h-5.54V51.4l-.42.42Z"/><path class="cls-2" d="M208.69,52.1c-3.3,0-4.59-2-4.59-4V41.16c0-1.88,1.23-3.94,4.61-3.94,3.22,0,4.6,2,4.6,4v7C213.31,50.14,212,52.1,208.69,52.1ZM211,41.2c0-1.36-1-1.76-2.26-1.76-1.42,0-2.3.44-2.3,1.76v6.9c0,1.4,1.5,1.74,2.16,1.74h.26c.64,0,2.14-.26,2.14-1.72Z"/><path class="cls-2" d="M224.36,51.82h-1.68L219.31,46h-1.12l-.38-.38V51.4l-.4.42h-1.58l-.34-.42V38l.4-.42h4.59c3.12,0,3.86,1.82,3.86,3.8v1c0,.78-.24,3.1-2.43,3.5.55,1,1.11,1.9,1.67,2.84l1.18,2v.68Zm-4.09-7.94c1.29,0,1.72-.36,1.72-1.5v-1c0-1.16-.46-1.52-1.55-1.52h-2.63v4Z"/><path class="cls-2" d="M229.84,51.82V39.92h-3l-.4-.4V38l.4-.44h8.46l.38.42v1.48l-.44.46h-3V51.4l-.4.42Z"/></svg>
