<?xml version="1.0" encoding="utf-8"?>
<!-- Generator: Adobe Illustrator 23.0.3, SVG Export Plug-In . SVG Version: 6.00 Build 0)  -->
<svg version="1.1" id="stevnsfort" xmlns="http://www.w3.org/2000/svg" xmlns:xlink="http://www.w3.org/1999/xlink" x="0px" y="0px"
	 viewBox="0 0 155.9 99.2" style="enable-background:new 0 0 155.9 99.2;" xml:space="preserve">
<style type="text/css">
	.st0{fill:#9AB04C;}
	.st1{fill:#FFFFFF;}
</style>
<title>nyere-kultur-desktop</title>
<rect x="-0.1" y="-3.7" class="st0" width="159.3" height="110.1"/>
<rect x="56.6" class="st0" width="99.2" height="99.2"/>
<path class="st1" d="M153.7,40.3c-2.7-1.4-5.9-1.6-8.8-0.6c-0.2,0.1-0.3,0.4-0.2,0.7c0,0,0,0.1,0.1,0.1c0.6,0.5,1.3,1,1.9,1.5v-0.7
	c-0.7,0.6-1.6,1-2.3,1.6c-0.2,0.1-0.2,0.4-0.1,0.6c0.1,0.1,0.2,0.2,0.3,0.2c1.8-0.1,4-0.1,5.3,1.2c1.1,1.2,0.7,3,0.6,4.7
	c0,0.3,0.4,0.6,0.6,0.3c0.7-0.8,1.4-1.6,2.2-2.3c0.7-0.8,1.6-1.1,1.6,0.3c-0.1,0.2-0.1,0.5-0.1,0.7c0,1.5-1.2,2.9-1.2,4.4
	c0,1.6,0.7,3.2,1,4.8c0.2,0.5,0.2,1.1,0,1.6c-0.8,0.5-1.6,0.9-2.4,1.2c-1.1,0.5-5.9,2.4-5.5-1.1c0-0.2-0.1-0.4-0.3-0.5
	c-1.6-0.3-3.8-1.5-5.1,0c-0.9,1-1.2,3.2-1.8,4.5c-0.8,1.8-1.8,3.5-2.9,5.1c0.2,0.1,0.4,0,0.6,0.1c0.3-2.3,0.2-4.5-0.4-6.7
	c-0.6-2.3-1.8-4.2-2.2-6.5s-1.2-5.1-1-7.3c0.2-1.8,0.5-2.9-0.2-4.7c-1.1-2.9-2.9-6.1-6-6.5s-5.8,1.9-7.1,5c-0.1,0.2,0,0.7,0.3,0.7
	c1.3-0.1,2.5-1.2,3.1,0.6c0.1,0.2,0.3,0.5,0.6,0.2c0.8-0.7,3,3.4,3.5,4c0.1,0.2,0.5,0.5,0.6,0.7s0.2,0.1,0.3,0.2
	c1.3,0.8,1,2.3-0.9,4.2c-0.3,0-0.5,0.2-0.5,0.4l0,0c0,2.6-1.4,3.4-3,5.1c-0.8,0.9-0.8,2-1.1,3.3c-0.6,4.1-1.2,8.2-1.7,12.2
	c0.2,0.1,0.4,0.1,0.6,0.2c0.8-6.8,4.8-13.1,10.8-15.6l-0.6-0.6c-1.4,4.3-3.3,9-3.7,13.4c-0.1,1.4,0.4,3.4,1.9,2.2l-0.6-0.3
	c0.2,1.4,0.3,2.9,0.2,4.3c-0.3,2.5-0.7,3.1-3.1,3.3c-3.2,0.2-6.2-0.9-7.3-4.4c-0.1-0.3-0.4-0.5-0.6-0.2c-2.5,2.4-4.4-3.7-5.8-4.9
	c-0.7-0.8-1.8-1-2.8-0.7c-0.2,0-0.3,0.3-0.3,0.6c0.6,1.6,3.2,9.1,5.8,7.5c1-0.6,1.2-2.4,1.5-3.3c1.1-3.2,2-6.4,3.1-9.5
	c0.1-0.3-0.4-0.7-0.6-0.5c-1.4,2.1-4.1,2.9-6.5,1.9c0.1,0.2,0.1,0.5,0.2,0.7c1.6-1.6,3.8-1.7,5.3-3.5c1-1.4,1.6-3.1,1.7-4.9
	c0.1-2.5-1.5-5-0.7-7.4c0.5-1.8,1.7-2.7,1.4-4.8c-0.6-4.1-4-4.4-7-3.2c-1.7,0.8-3.4,1.7-4.1,3.8c-0.5,1.4,0.3,2.6-0.6,3.8
	c-0.1,0.1-0.1,0.2-0.1,0.5c0,0.8,0,1.5,0.1,2.3c-0.1,0.2,0,0.4,0.2,0.5c0.1,0,0.1,0,0.2,0c2.3,0.2,1.4,4.3,1.5,6
	c0.2,2.2,0.5,3.9-0.6,5.9c-1.8,3.2-3.7,6.4-5.5,9.6c0.3,0.1,0.5,0.1,0.8,0c0.2-2.7,0.5-6.2-1.5-8.2c-1-0.9-2.1-1-3.3-1.5
	c-1.5-0.4-2.8-1.4-3.6-2.8c-1.3-2.3-0.3-3.5,0.4-5.6c0.5-0.9,0.6-1.9,0.2-2.8c-0.8-2-1.9-3.8-3.3-5.5c-1.9-2.2-5.6,0.1-7.7,0.8
	c0.2,0.2,0.2,0.6,0.4,0.9c2-6.3,9.1-7.2,12.2-1.5c0.7,1.4,1.2,2.9,1.2,4.4c0,1.6-0.6,2.6-1,4.1c-0.5,2.5,1.1,4.7-1.4,6.8
	c-1.3,1.2-2.8,1.8-4,3.2c-0.5,0.7-0.8,1.8-1.9,1.3s-1.4-2.7-1.5-3.8c-0.1-2.2,0-1.7,1.4-2.2c1.1-0.3,2.2-0.3,2.6-1.3
	c0.1-0.3-0.3-0.6-0.6-0.5c-3,1.5-5.2-1.9-5.7-4.6C89,56,88.9,54.1,89,52.1c0-0.5-0.7-0.6-0.7-0.1c-0.3,2.3-0.7,4.7-1.1,7
	c-0.3,1.7-1.5,2.9-1.9,4.3c-0.2,0.7-0.1,1.4,0.3,2c0.3,0.5,1,0.7,1.2,1.1c0.3,1.4-2.4,4-3.2,5c-0.9,1.1-1.6,2.3-2.1,3.6
	c-1.1,3-1.1,6.3,0,9.2c0.1,0.2,0.4,0.4,0.6,0.2c1.7-2.2,2.5-5,2.1-7.8c-0.4-4-2.8-6.2-5.1-9c-0.5-0.7-0.7-0.3-0.8-1.4
	c0.2-0.7,0.4-1.5,0.7-2.2c0.4-1.7,0.5-3.4,0.3-5.1c-0.6-3.8-1.9-7.5-4-10.7c-0.6-1-1.9-4-3.5-2.7s-1,5.9-0.2,7.4c1,1.8,2,1.2,2,4.6
	c-0.1,1-0.2,2.1-0.5,3.1c-0.3,1.7-1,4-0.6,5.7s1.6,3,3.1,1.8L74.9,68c-0.3,5.9-9.4,6.3-12.5,3c-3.6-4-1.8-10.3,0-14.7
	c0.7-1.7,1.5-3.3,2.1-5c0.4-1.1,0.7-2.4,1.2-3.6c0.1-0.2,0.1-0.6,0.2-0.8c0.2-2,1.5-2.5,3.7-1.2c0.3,1-0.7,3.2-0.7,4.2
	c-0.1,0.7,0.2,1.4,0.7,1.9c0.1-0.2,0.2-0.2,0.4-0.4c-4.2-0.9-5.4,6.3-5,9.5c0.2,1.3,0.7,2.5,1.4,3.5c0.8,1.3,2.1,3.1,0.5,4
	c-0.6,0.5-1.8,0.5-2.5,0.8c-0.8,0.3-1.5,0.7-2.2,1.1c-3,1.8-6.1,4.3-7.9,7.4c-1,1.6-0.6,5.2,0.2,3.2c0.8-1.8,1.9-4.5,2.6-5.5
	c2.4-2.2,7.5-6.4,10.8-6.4c0.1,0,0.3-0.1,0.3-0.2c0.8-1.9,0-3.4-1.1-5c-1.1-1.8-1.6-3.9-1.4-5.9s1.2-6.5,4-5.9
	c0.4,0.1,0.6-0.3,0.4-0.7c-1.5-1.9,1.1-4.9,0.1-7.2c-0.5-1.1-1.8-1.6-2.9-1.1c-0.2,0.1-0.4,0.2-0.6,0.4c-2,1.6-2.3,5.9-3.3,8.2
	c-1.3,3.2-3,6.3-3.6,9.7c-1,5.2,0.6,11,6,12c3.8,0.7,9.4-0.8,9.7-5.7c0-0.2-0.1-0.4-0.3-0.4c-0.1,0-0.2,0-0.3,0.1
	c-2.5,2-1.6-4.2-1.6-4.4l0.3-2c0.4-1.5,0.6-2.9,0.6-4.5c0.1-0.8-0.2-1.6-0.7-2.2c-0.4-0.6-1.2-1-1.6-1.7c-0.6-1-0.5-2.5-0.5-3.6
	c0.1-1.5,0.6-2.6,2.1-1.4c0.5,0.6,0.9,1.3,1.2,2c1,1.6,1.8,3.3,2.4,5c1.4,3.9,1.7,8.3-0.3,12c-0.1,0.2,0,0.4,0.1,0.6
	c4.6,3.7,8.8,11,4.1,16.5c0.2,0.1,0.4,0.1,0.6,0.2c-1.5-4.1-0.7-8.6,2-12c1.5-1.9,3-3.7,3.6-6.2c0.1-0.2-0.1-0.5-0.3-0.6l0,0h-0.1
	c-2.8,0-0.1-3.3,0.1-4c0.2-0.6,0.3-1.1,0.4-1.7c0.4-2.5,0.7-5.8,1.1-8.3c-0.2,0-0.4,0.3-0.7,0.3c-0.1,3.2-0.2,7.3,1.8,10
	c1.4,1.7,3.4,2.5,5.3,1.5c-0.2-0.1-0.6,0.2-0.8,0.1c-1.1,0.5-2.1,0.3-3.1,0.7c-0.2,0-0.5,0.1-0.5,0.3c-0.5,3,0.2,5.7,2.6,7.4
	c0.2,0.1,0.4,0,0.5-0.1c1.6-2.7,3.6-3.8,5.9-5.6c1-0.7,1.6-1.9,1.4-3.1c-0.1-1.4-0.6-2.4-0.3-3.9c0.4-1.1,0.7-2.3,0.9-3.5
	c0.2-1.7-0.2-3.5-0.9-5c-3.1-7-11.6-6.6-14,0.7c-0.1,0.4,0.2,0.6,0.5,0.6c2-0.6,4.2-1.8,6.1-1.1c1.6,0.6,3,2.7,3.7,4.5
	c1.1,2.7-0.7,3.4-1,5.7c-0.1,1.1,0.1,2.2,0.6,3.2c0.9,1.8,2.5,3.2,4.4,3.6c1.9,0.6,3.5,1.1,4.1,3.5c0.3,1.8,0.4,3.6,0.2,5.5
	c0,0.2,0.2,0.4,0.4,0.4l0,0c0.1,0,0.3-0.1,0.4-0.2c1.7-3,3.4-5.9,5.1-9c1.2-2,1.6-3.3,1.2-5.7c-0.4-2.4,0.5-5.4-1.1-7.4
	c-0.2-0.2-0.7-0.5-0.8-0.6c-0.3-0.6,0-2.3,0.5-2.5c0.2-0.1,0.2-0.3,0.1-0.6c-2.6-5.6,9.5-10.1,9.4-2.8c0,1.5-1.1,2.3-1.5,3.5
	c-0.3,0.9-0.3,1.8,0,2.6c0.4,2.7,1.4,5.1,0.3,8c-1.3,3.3-4.1,3.1-6.2,5.1c-0.2,0.2-0.2,0.4,0,0.6l0,0c0,0,0.1,0.1,0.2,0.1
	c2.6,1.1,5.6,0.2,7.2-2.2c-0.2-0.1-0.3,0.2-0.5,0c-1,3-2,5.5-3.1,8.5c-0.1,0.3-0.5,2.5-0.8,2.6c-1,0.3-2.4-1.1-3-1.8
	c-0.3-0.5-0.7-1.3-1-1.8s-0.5-1-0.6-1.5c0.8-0.8,1.4-0.2,2,0.7c1.7,1.7,3.2,6.8,6.2,4c-0.2-0.1-0.4,0-0.6-0.1
	c1.6,5.5,6.7,5.4,11.2,4.5c0.1,0,0.2-0.1,0.3-0.3c0.4-2.5,0.5-5.1,0.2-7.6c0-0.2-0.1-0.4-0.3-0.4l0,0c-0.1,0-0.2,0-0.3,0.1
	c-0.7-0.7-0.9-1.8-0.4-2.7c0.2-0.7,0.3-1.4,0.5-1.9c0.2-1,0.5-1.9,0.8-3c0.6-2.3,1.5-4.5,2.2-6.7c0.1-0.2-0.1-0.5-0.3-0.6
	c-0.1,0-0.2,0-0.2,0c-6.3,2.7-10.3,9.2-11.2,16.2c-0.1,0.6,0.7,0.8,0.7,0.2l1.3-8.9c0.1-1.5,0.3-3,0.6-4.4c1.4-4,1.1-1.4,2.2-3
	c0.5-0.6,1-1.3,1.3-2c0.1-0.2,0.3-1.6,0.4-1.8c0.4-0.5,1.2-0.5,1.8-1c2.1-2,0.1-4.2-1.3-5.8c-1.2-1.4-1.8-3.5-3.3-4.6
	c-1.2-0.8-0.7,0.3-1.5-1.4c-0.1-0.2-0.3-0.2-0.5-0.1c-0.8,0.5-1.7,0.8-2.6,0.8l0.3,0.7c1.7-3.9,6.2-6.4,9.4-2.7
	c1.3,1.5,2.9,4.3,2.8,6.4c0,1.1-0.6,2.3-0.5,3.4c0.1,1.5,0.6,3,0.9,4.4c0.1,1.3,0.3,2.5,0.6,3.8c0.5,1.6,1.4,3,1.8,4.6
	c0.5,2.2,0.7,4.4,0.4,6.6c0,0.2,0.2,0.4,0.4,0.4c0.1,0,0.3-0.1,0.4-0.2c1.5-2.2,2.8-4.6,3.8-7.1c0.2-0.7,0.4-1.3,0.6-1.9
	c0.9-0.7,2.1-0.8,3.2-0.5c1.1,0.5,0.6,0.6,1.1,1.4c2.1,3.4,7.5,0,9.9-1.5c0.2-0.1,0.2-0.3,0.1-0.6c-1.2-2.8-2-5.6-1-8.5
	c0.3-1.1,1.2-2.7,0.7-4c-1.1-3-4,1.7-4.9,2.6c0.2,0.1,0.2,0.2,0.4,0.3c0-1.6,0.1-3.3,0.1-4.9c0-0.1-0.1-0.4-0.2-0.4
	c-2-1-4.2-1.4-6.4-1.2c0.1,0.2-0.2,0.4-0.1,0.6c0.7-0.6,1.6-1,2.3-1.6c0.2-0.1,0.3-0.3,0.2-0.5l0,0c0-0.1-0.1-0.1-0.1-0.1
	c-0.6-0.5-1.3-1-1.9-1.5c0,0.2-0.1,0.6-0.1,0.8c2.7-0.9,5.6-0.7,8.2,0.5C153.8,41.3,154.3,40.5,153.7,40.3L153.7,40.3z"/>
<g>
	<g>
		<path class="st1" d="M64.3,7v7.3l-0.1,0.1h-1l-2.9-5.6l-0.2-0.5v6l0.1,0.1h-0.7l-0.1-0.1V7l0.1-0.1h0.9l2.9,5.6l0.2,0.5V7l0.1-0.1
			L64.3,7L64.3,7z"/>
		<path class="st1" d="M67.8,10.8L67.8,10.8L69.5,7h0.6l0.1,0.1v0.3c-0.7,1.4-1.3,2.8-2,4.2h-0.1v2.8L68,14.5h-0.8v-2.9h-0.1L65,7.4
			V7l0.1-0.1h0.7l1.9,3.7v0.2H67.8z"/>
		<path class="st1" d="M71.1,14.3V7l0.1-0.1h4.3L75.6,7v0.7l-0.1,0.1h-3.6v2.3h3.3l0.1,0.1v0.7L75.2,11h-3.3v2.7h3.6l0.1,0.1v0.6
			l-0.1,0.1h-4.4C71.1,14.5,71.1,14.3,71.1,14.3z"/>
		<path class="st1" d="M81.6,14.4h-0.7L79,11.2h-0.7l-0.5-0.3v3.4l-0.1,0.1h-0.6L77,14.3V7h0.1h2.4c1.6,0,2,0.9,2,1.9v0.6
			c0,0.4-0.2,1.8-1.5,1.8l1.8,2.9L81.6,14.4L81.6,14.4z M79.4,10.5c0.9,0,1.2-0.3,1.2-1.1V8.9c0-0.8-0.3-1.1-1.2-1.1h-1.6v2.7H79.4z
			"/>
		<path class="st1" d="M82.6,14.3V7l0.1-0.1h4.4V7v0.7L87,7.8h-3.6v2.3h3.3l0.1,0.1v0.7L86.7,11h-3.3v2.7H87l0.1,0.1v0.6L87,14.5
			h-4.3L82.6,14.3z"/>
		<path class="st1" d="M91.9,14.4V7.8H90l-0.1-0.1V7L90,6.9h4.6L94.7,7v0.7l-0.1,0.1h-1.9v6.6l-0.1,0.1L91.9,14.4z"/>
		<path class="st1" d="M96.7,14.4L96.7,14.4l-0.8,0.1l-0.1-0.1V7l0.1-0.1h0.7L96.7,7C96.7,7,96.7,14.4,96.7,14.4z"/>
		<path class="st1" d="M102.9,9v3.5c0.1,1-0.7,1.9-1.8,2c-0.1,0-0.2,0-0.2,0h-2.5l-0.1-0.1V7l0.1-0.1h2.5c1-0.1,2,0.7,2,1.7
			C102.9,8.8,102.9,8.9,102.9,9z M102.1,9c0.1-0.6-0.3-1.1-0.9-1.2c-0.1,0-0.2,0-0.3,0h-1.8v5.8h1.8c0.6,0.1,1.1-0.3,1.2-0.9
			c0,0,0,0,0-0.1s0-0.2,0-0.2L102.1,9z"/>
		<path class="st1" d="M108.6,12.5c0,1.3-0.6,2-2.4,2c-1.8,0-2.3-0.7-2.4-1.8l0.1-0.1h0.7l0.1,0.1c0,0.7,0.5,1,1.5,1
			c1.2,0,1.6-0.3,1.6-1.2c0.1-0.5-0.2-0.9-0.7-1.1c-0.7-0.3-1.3-0.6-2.1-1c-0.7-0.3-1.1-1-1-1.7c0-1.1,0.5-1.9,2.2-1.9
			c1.7,0,2.3,0.5,2.3,1.8l-0.1,0.1h-0.6l-0.1-0.1c0-0.7-0.3-1-1.4-1c-1.2,0-1.4,0.4-1.4,1c0,0.5,0.2,0.9,0.7,1.1l1.9,0.9
			C108.3,11,108.8,11.7,108.6,12.5z"/>
	</g>
	<g>
		<path class="st1" d="M61.7,20.1L61.7,20.1l2.4,3v0.5l-0.2,0.2h-0.8c-0.8-0.9-1.6-2-2.4-3h-0.3v2.8l-0.2,0.2h-0.8l-0.2-0.2v-7
			l0.2-0.2h0.8l0.2,0.2v3.1h0.2l2.4-3.3h0.8l0.2,0.2V17L61.7,20.1z"/>
		<path class="st1" d="M70,16.5v5.2c0,1.5-0.7,2.2-2.5,2.2c-1.7,0-2.5-0.7-2.5-2.2v-5.2l0.2-0.2h0.9l0.2,0.2v5.2c0,0.7,0.5,1,1.2,1
			s1.2-0.3,1.2-1v-5.2l0.2-0.2h0.8L70,16.5z"/>
		<path class="st1" d="M75.4,22.8v0.8l-0.2,0.2H71l-0.2-0.2v-7l0.2-0.2h0.8l0.2,0.2v6h3.2L75.4,22.8z"/>
		<path class="st1" d="M76.9,23.8v-6.2h-1.6l-0.2-0.2v-0.8l0.2-0.2h4.5l0.2,0.2v0.8l-0.2,0.2h-1.6v6L78,23.8H76.9z"/>
		<path class="st1" d="M85.3,16.5v5.2c0,1.5-0.7,2.2-2.5,2.2c-1.7,0-2.5-0.7-2.5-2.2v-5.2l0.2-0.2h0.8l0.2,0.2v5.2
			c0,0.7,0.5,1,1.2,1s1.2-0.3,1.2-1v-5.2l0.2-0.2h0.8L85.3,16.5z"/>
		<path class="st1" d="M91.1,23.8h-0.9l-1.8-3h-0.7l-0.2-0.2v3l-0.2,0.2h-0.8l-0.2-0.2v-7l0.2-0.2h2.4c1.7,0,2.1,1,2.1,2v0.5
			c0.1,0.8-0.5,1.6-1.3,1.8c0.3,0.5,0.6,1,0.9,1.5l0.6,1v0.4L91.1,23.8z M88.9,19.6c0.7,0,0.9-0.2,0.9-0.8v-0.5
			c0-0.6-0.2-0.8-0.8-0.8h-1.4v2.1C87.6,19.6,88.9,19.6,88.9,19.6z"/>
		<path class="st1" d="M98.3,16.5v7l-0.2,0.2h-0.8l-0.2-0.2v-4.9l-0.2,0.7l-1,2.1h-1l-1.1-2.2l-0.2-0.6v4.9l-0.2,0.2h-0.9l-0.2-0.2
			v-7l0.2-0.2h1.2l1.6,3.4l1.7-3.4h1.2L98.3,16.5z"/>
		<path class="st1" d="M104.2,16.5v5.2c0,1.5-0.7,2.2-2.5,2.2c-1.7,0-2.5-0.7-2.5-2.2v-5.2l0.2-0.2h0.8l0.2,0.2v5.2
			c0,0.7,0.5,1,1.2,1s1.2-0.3,1.2-1v-5.2l0.2-0.2h0.8L104.2,16.5z"/>
		<path class="st1" d="M108.6,19.8c0.8,0.3,1.3,1.1,1.2,2c0,1.4-0.7,2.1-2.5,2.1s-2.4-0.8-2.4-2l0.2-0.2h0.8l0.2,0.2
			c0,0.6,0.4,0.8,1.2,0.8c1,0,1.3-0.2,1.3-0.9c0-0.4-0.2-0.7-0.5-0.8l-2-1c-0.7-0.3-1.2-1-1.1-1.8c0-1.2,0.6-2,2.3-2s2.4,0.5,2.4,2
			l-0.2,0.2h-0.8l-0.2-0.2c0-0.6-0.2-0.7-1.1-0.7c-0.9,0-1.1,0.3-1.1,0.7c0,0.4,0.2,0.7,0.5,0.8L108.6,19.8z"/>
		<path class="st1" d="M110.7,23.5v-7l0.2-0.2h4.2l0.2,0.2v0.8l-0.2,0.2h-3.2v1.7h2.9l0.2,0.2v0.8l-0.2,0.2h-2.9v2.1h3.2l0.2,0.2
			v0.7l-0.2,0.2h-4.2L110.7,23.5z"/>
		<path class="st1" d="M121.1,16.5v5.2c0,1.5-0.7,2.2-2.5,2.2c-1.7,0-2.5-0.7-2.5-2.2v-5.2l0.2-0.2h0.8l0.2,0.2v5.2
			c0,0.7,0.5,1,1.2,1s1.2-0.3,1.2-1v-5.2l0.2-0.2h0.8L121.1,16.5z"/>
		<path class="st1" d="M128,16.5v7l-0.2,0.2H127l-0.2-0.2v-4.9l-0.2,0.7c-0.3,0.7-0.7,1.5-1,2.1h-1l-1.1-2.2l-0.2-0.6v4.9l-0.2,0.2
			h-0.9l-0.2-0.2v-7l0.2-0.2h1.2l1.6,3.4l1.7-3.4h1.2L128,16.5z"/>
	</g>
</g>
</svg>
