<?xml version="1.0" encoding="utf-8"?>
<!-- Generator: Adobe Illustrator 23.0.3, SVG Export Plug-In . SVG Version: 6.00 Build 0)  -->
<svg version="1.1" id="geomuseum" xmlns="http://www.w3.org/2000/svg" xmlns:xlink="http://www.w3.org/1999/xlink" x="0px" y="0px"
	 viewBox="0 0 311.8 70.9" style="enable-background:new 0 0 311.8 70.9;" xml:space="preserve">
<style type="text/css">
	.st0{fill:#95A94E;}
	.st1{fill:#FFFFFF;}
</style>
<title>nyere_tid_menu_logo</title>
<rect x="-3.9" y="-9.5" class="st0" width="319.8" height="90.5"/>
<g>
	<g>
		<path class="st1" d="M88.3,21v14l-0.1,0.2h-1.8l-5.5-10.7l-0.3-0.9V35l-0.1,0.2h-1.3L79,35V21l0.2-0.2h1.7l5.5,10.7l0.3,1V21
			l0.2-0.1h1.3L88.3,21z"/>
		<path class="st1" d="M95,28.1v-0.2l3.5-7.1h1.2l0.2,0.2v0.7c-1.3,2.7-2.4,5.3-3.8,7.9h-0.3v5.3l-0.2,0.2h-1.4v-5.5h-0.3l-4-8V21
			l0.2-0.2h1.3l3.7,7.1L95,28.1L95,28.1z"/>
		<path class="st1" d="M101.4,34.9V21l0.2-0.1h8.2l0.1,0.1v1.3l-0.2,0.2h-6.8v4.4h6.3l0.1,0.1v1.3l-0.1,0.2h-6.3v5.2h6.8l0.2,0.2V35
			l-0.1,0.2h-8.2L101.4,34.9z"/>
		<path class="st1" d="M121.5,35.1h-1.4l-3.6-6.2H115l-0.9-0.5V35l-0.2,0.2h-1.2l-0.2-0.2V21l0.1-0.1h4.8c3,0,3.8,1.7,3.8,3.6v1.1
			c0,0.8-0.3,3.4-2.9,3.4l3.3,5.6V35L121.5,35.1z M117.3,27.5c1.7,0,2.3-0.5,2.3-2v-1c0-1.6-0.7-2.1-2.2-2.1h-3.3v5.1H117.3z"/>
		<path class="st1" d="M123.4,34.9V21l0.2-0.1h8.2l0.1,0.1v1.3l-0.2,0.2h-6.8v4.4h6.3l0.1,0.1v1.3l-0.1,0.2h-6.3v5.2h6.8l0.2,0.2V35
			l-0.1,0.2h-8.2L123.4,34.9z"/>
		<path class="st1" d="M141.4,35.1V22.4h-3.6l-0.1-0.1V21l0.1-0.2h8.8l0.1,0.1v1.3l-0.2,0.2h-3.6v12.5l-0.2,0.2
			C142.7,35.1,141.4,35.1,141.4,35.1z"/>
		<path class="st1" d="M150.5,34.9l-0.1,0.2h-1.3l-0.2-0.2V21l0.2-0.2h1.3l0.1,0.2V34.9z"/>
		<path class="st1" d="M162.6,24.6v6.7c0.1,2-1.4,3.7-3.4,3.8c-0.1,0-0.3,0-0.4,0h-4.9c0,0-0.1-0.1-0.2-0.2V21l0.2-0.2h4.7
			c2-0.2,3.8,1.3,3.9,3.4C162.6,24.3,162.6,24.5,162.6,24.6z M161,24.7c0.2-1.1-0.6-2.1-1.7-2.3c-0.2,0-0.3,0-0.5,0h-3.5v11.2h3.5
			c1.1,0.1,2.1-0.7,2.2-1.8c0-0.1,0-0.3,0-0.4V24.7z"/>
		<path class="st1" d="M173.5,31.5c0,2.6-1.2,3.9-4.6,3.9s-4.4-1.3-4.5-3.5l0.2-0.1h1.3l0.1,0.1c0.1,1.4,1,1.9,2.8,1.9
			c2.4,0,3-0.6,3-2.3c0.1-0.9-0.4-1.7-1.2-2c-1.3-0.6-2.5-1.2-4-1.9c-1.3-0.5-2.1-1.8-1.9-3.2c0-2.1,1-3.6,4.2-3.6s4.3,0.9,4.4,3.4
			l-0.2,0.2h-1.3l-0.2-0.2c0-1.4-0.5-1.8-2.7-1.8s-2.6,0.7-2.6,1.9c-0.1,0.9,0.4,1.7,1.3,2c1.1,0.5,2.6,1.2,3.7,1.6
			C172.7,28.5,173.5,29.2,173.5,31.5z"/>
	</g>
	<g>
		<path class="st1" d="M83.3,45.9L83.3,45.9c0.9,1.1,1.8,2.2,4.6,5.7v0.9l-0.4,0.4h-1.6c-1.6-1.8-3-3.7-4.6-5.7h-0.6v5.3l-0.4,0.4
			h-1.6l-0.4-0.4V39l0.4-0.4h1.6l0.4,0.4v5.9h0.4l4.4-6.3H87l0.4,0.4v0.8L83.3,45.9z"/>
		<path class="st1" d="M99.3,39v9.9c0,2.8-1.4,4.2-4.7,4.2s-4.7-1.4-4.7-4.2V39l0.4-0.4h1.5l0.5,0.4v9.9c0,1.4,0.9,1.9,2.3,1.9
			s2.3-0.6,2.3-1.9V39l0.4-0.4h1.5L99.3,39z"/>
		<path class="st1" d="M109.7,51v1.5l-0.4,0.4h-8l-0.4-0.4V39l0.5-0.4h1.5l0.4,0.4v11.6h6L109.7,51z"/>
		<path class="st1" d="M112.6,52.9V41h-3.1l-0.4-0.4V39l0.4-0.4h8.6l0.4,0.4v1.5l-0.4,0.5H115v11.5l-0.4,0.4H112.6z"/>
		<path class="st1" d="M128.8,39v9.9c0,2.8-1.4,4.2-4.7,4.2s-4.7-1.4-4.7-4.2V39l0.4-0.4h1.5l0.4,0.4v9.9c0,1.4,0.9,1.9,2.3,1.9
			s2.3-0.6,2.3-1.9V39l0.4-0.4h1.5L128.8,39z"/>
		<path class="st1" d="M139.7,52.9H138l-3.4-5.8h-1.1l-0.4-0.4v5.8l-0.4,0.4h-1.6l-0.3-0.4V39l0.4-0.4h4.7c3.2,0,3.9,1.8,3.9,3.8v1
			c0,0.8-0.2,3.1-2.5,3.5c0.5,1,1.1,1.9,1.7,2.8l1.2,2v0.7L139.7,52.9z M135.5,44.9c1.3,0,1.8-0.4,1.8-1.5v-1c0-1.2-0.5-1.5-1.6-1.5
			H133v4H135.5z"/>
		<path class="st1" d="M153.6,39v13.5l-0.4,0.4h-1.6l-0.4-0.4v-9.3l-0.4,1.3c-0.6,1.3-1.4,2.9-2,4.1h-1.9l-2.1-4.2l-0.4-1.2v9.3
			l-0.3,0.4h-1.7l-0.3-0.4V39l0.4-0.4h2.2l3.2,6.4l3.1-6.4h2.2L153.6,39z"/>
		<path class="st1" d="M165,39v9.9c0,2.8-1.4,4.2-4.7,4.2s-4.7-1.4-4.7-4.2V39l0.4-0.4h1.5l0.4,0.4v9.9c0,1.4,0.9,1.9,2.3,1.9
			c1.4,0,2.3-0.6,2.3-1.9V39l0.4-0.4h1.6L165,39z"/>
		<path class="st1" d="M173.4,45.2c1.6,0.7,2.4,1.5,2.4,3.8c0,2.7-1.2,4.1-4.7,4.1c-3.3,0-4.5-1.5-4.6-3.9l0.4-0.4h1.5l0.4,0.4
			c0.1,1.1,0.8,1.6,2.2,1.6c1.9,0,2.4-0.4,2.4-1.8c0.1-0.7-0.3-1.3-1-1.5l-3.8-1.8c-1.4-0.5-2.2-1.9-2.1-3.4c0-2.2,1.1-3.8,4.4-3.8
			s4.5,0.9,4.5,3.8l-0.4,0.4h-1.6l-0.4-0.5c0-1.1-0.4-1.4-2.1-1.4c-1.8,0-2,0.5-2,1.4c-0.1,0.7,0.3,1.3,0.9,1.5L173.4,45.2z"/>
		<path class="st1" d="M177.5,52.4V39l0.4-0.4h8.1l0.4,0.4v1.5l-0.4,0.4h-6.1v3.3h5.7l0.4,0.4v1.5l-0.4,0.4h-5.7v4h6.1l0.4,0.5v1.4
			l-0.4,0.4h-8L177.5,52.4z"/>
		<path class="st1" d="M197.4,39v9.9c0,2.8-1.4,4.2-4.7,4.2s-4.7-1.4-4.7-4.2V39l0.4-0.4h1.5l0.4,0.4v9.9c0,1.4,0.9,1.9,2.3,1.9
			s2.3-0.6,2.3-1.9V39l0.4-0.4h1.5L197.4,39z"/>
		<path class="st1" d="M210.7,39v13.5l-0.4,0.4h-1.5l-0.4-0.4v-9.3l-0.4,1.3c-0.6,1.3-1.4,2.9-2,4.1h-1.9l-2.1-4.2l-0.4-1.2v9.3
			l-0.3,0.4h-1.7l-0.3-0.4V39l0.4-0.4h2.2l3.2,6.4l3.1-6.4h2.2L210.7,39z"/>
	</g>
</g>
<path class="st1" d="M72.1,42.3c0.3-0.4,0.4-0.8,0.6-1.1c0.1-0.1,0.1-0.2,0.1-0.3c0-1.3-0.1-2.6-0.5-3.8c-0.6-2-1.6-3.7-1.9-5.7
	c-0.3-1.9-1-4.5-0.8-6.4c0.2-1.6,0.5-2.5-0.2-4.1c-0.9-2.5-2.5-5.4-5.3-5.7s-5.2,1.7-6.3,4.4c-0.1,0.2,0,0.6,0.3,0.6
	c1.1-0.1,2.3-1.1,2.7,0.5c0.1,0.2,0.3,0.4,0.6,0.2c0.8-0.6,2.6,3,3.1,3.5c0.1,0.2,0.5,0.4,0.6,0.6c0.1,0.1,0.2,0.1,0.3,0.2
	c1.1,0.7,0.8,2-0.8,3.7c-0.3,0-0.5,0.1-0.5,0.4l0,0c0,2.3-1.2,3-2.6,4.5c-0.8,0.8-0.8,1.8-0.9,2.9c-0.5,2.8-0.8,5.5-1.2,8.2
	c0,0,0,0,0,0.1c-0.2,0.8-0.3,1.6-0.4,2.3c-0.1,0.5,0.5,0.6,0.6,0.3l0,0c0.6-5.3,3.4-10.2,7.8-12.8c0.2-0.1,0.5-0.1,0.6,0.2
	c0.1,0.1,0.1,0.3,0.1,0.4c-1.1,3.2-2.3,6.5-2.6,9.8c-0.1,0.9,0.2,2.1,0.8,2.2c0.2,0,0.4,0.2,0.4,0.4c0.1,0.9,0.1,1.9,0.1,2.8
	c-0.3,2.2-0.6,2.7-2.7,2.9c-2.8,0.2-5.5-0.8-6.5-3.9c-0.1-0.3-0.4-0.4-0.6-0.2c-0.3,0.3-0.7,0.5-1.2,0.5c-0.3,0-0.5-0.3-0.4-0.5
	v-0.1c0.1-0.2,0.1-0.5,0.2-0.6c0.9-2.8,1.8-5.6,2.7-8.3c0.1-0.3-0.4-0.6-0.6-0.4c-1.4,1.7-3,2.3-5.1,1.9c1.4-1,3-1.2,4.2-2.7
	c1-1.2,1.5-2.7,1.6-4.3c0.1-2.2-1.3-4.4-0.6-6.5c0.5-1.6,1.5-2.4,1.2-4.2c-0.6-3.6-3.6-3.9-6.2-2.8c-1.5,0.7-3,1.6-3.6,3.3
	c-0.5,1.2,0.3,2.3-0.6,3.3c-0.1,0.1-0.1,0.2-0.1,0.4c0,0.6,0,1.4,0.1,2c-0.1,0.2,0,0.4,0.2,0.5c0.1,0,0.1,0,0.2,0
	c2.1,0.2,1.2,3.8,1.3,5.3c0.2,1.9,0.5,3.4-0.6,5.2s-2.1,3.7-3.2,5.5c-0.1,0.2-0.4,0.3-0.6,0.2c-0.1-0.1-0.3-0.3-0.3-0.4
	c-0.1-1.6-0.4-3-1.5-4.1c-0.8-0.8-1.9-0.9-2.9-1.3c-0.5-0.2-1-0.4-1.5-0.7v-0.8c0.7-0.6,1.1-1.5,1-2.5c-0.1-1.2-0.6-2.1-0.3-3.4
	c0.2-1,0.8-1.9,0.8-3c0.1-1.5-0.1-3-0.8-4.4c-2.7-6.1-10.2-5.8-12.4,0.6c-0.1,0.3,0.2,0.5,0.5,0.5c0.2-0.1,0.3-0.1,0.5-0.2
	c0,0.1,0,0.1,0.1,0.1c0,0.8-0.1,1.6,0,2.5v0.1c-0.2,1.4-0.5,2.7-0.6,4c-0.3,1.5-1.3,2.5-1.7,3.8c-0.2,0.6-0.1,1.3,0.3,1.8
	c0.3,0.4,0.9,0.6,1,1c0.3,1.2-2.1,3.5-2.8,4.4c-0.3,0.3-0.5,0.6-0.8,1c-1-1.5-2.1-2.9-3.2-4.2c-0.5-0.6-0.6-0.3-0.7-1.2
	c0-0.1,0-0.1,0-0.1c0.1-0.5,0.6-1.5,0.6-1.8c0.4-1.5,0.5-3,0.3-4.5c-0.4-3.4-1.9-6.5-3.6-9.4c-0.6-0.9-1.7-3.5-3.1-2.4
	c-1.4,1-0.9,5.2-0.2,6.5c0.8,1.6,1.8,1.1,1.8,4c-0.1,0.9-0.2,1.8-0.5,2.7c-0.3,1.5-0.8,3.5-0.6,5c0.2,1,0.8,1.8,1.6,1.9
	c0.3,0.1,0.5,0.3,0.4,0.6v0.1c-1.4,3.8-7.6,4-10.3,1.7l0.1-0.8c1.3-0.8,2.7-1.3,4.3-1.4c0.1,0,0.3-0.1,0.3-0.2c0.8-1.7,0-3-0.9-4.4
	c-1-1.6-1.4-3.4-1.2-5.2v-0.1c0.2-1.8,1-5.7,3.6-5.2c0.4,0.1,0.6-0.3,0.4-0.6c-1.3-1.7,0.9-4.3,0.1-6.3c-0.6-1.3-2.1-1.4-3.1-0.6
	C9,22,8.7,25.8,7.9,27.8c-1.2,2.8-2.7,5.5-3.2,8.5C3.7,39,4.1,41.9,5.4,44c0.1,0.2,0.1,0.5-0.1,0.6l0,0c-2.3,1.6-4.7,3.5-6.1,5.9
	c-0.5,0.6-0.6,1.4-0.5,2.1c0.2-0.3,0.4-0.5,0.6-0.8c0.1-0.1,0.1-0.1,0.1-0.2c0.5-1.5,3.2-4.3,3.8-4.7c0.8-0.7,1.6-1.4,2.5-2
	c0.2-0.1,0.5-0.1,0.6,0.1c0.9,0.8,2,1.4,3.2,1.6c3.2,0.6,7.8-0.6,8.6-4.3l0,0c0.1-0.3,0.1-0.5,0.1-0.7c0-0.2-0.1-0.4-0.3-0.4
	c-0.1,0-0.2,0-0.3,0.1c-2.2,1.8-1.4-3.6-1.4-3.9l0,0c0.1-0.6,0.2-1.2,0.3-1.8c0.2-1.3,0.6-2.6,0.6-3.9c0-0.7-0.2-1.4-0.6-1.9
	c-0.5-0.5-1-1-1.4-1.5c-0.6-0.9-0.5-2.2-0.5-3.2c0.1-1.3,0.6-2.3,1.9-1.2c0.5,0.5,0.8,1.2,1,1.8v0.1c0.8,1.4,1.6,2.9,2.1,4.3
	c1.2,3.4,1.5,7.3-0.3,10.5c-0.1,0.2-0.1,0.4,0.1,0.5c1.9,1.5,3.4,3.4,4.5,5.6c0.1,0.1,0.1,0.3,0,0.4c-0.2,0.4-0.4,0.7-0.5,1.1
	c-0.9,2.3-1,4.9-0.3,7.3l0,0l0,0c0.1,0.3,0.1,0.5,0.3,0.8c0.1,0.3,0.4,0.4,0.6,0.2c1.6-1.9,2.2-4.3,1.9-6.8c-0.1-1.1-0.5-2.2-1-3.2
	c-0.1-0.1-0.1-0.3,0-0.5c0.2-0.3,0.4-0.5,0.6-0.8c1.3-1.7,2.7-3.2,3.2-5.4c0.1-0.2-0.1-0.4-0.3-0.5c-0.1,0-0.1,0-0.1,0
	c-2.5,0-0.1-2.9,0.1-3.5c0.2-0.5,0.3-1,0.4-1.5c0.1-0.9,0.3-2,0.4-3c0.1,1.7,0.6,3.4,1.6,4.8c0.6,0.8,1.6,1.5,2.7,1.7
	c-0.5,0.1-1,0.1-1.5,0.3c-0.2,0-0.4,0.1-0.5,0.3c-0.5,2.6,0.2,5,2.3,6.5c0.1,0.1,0.3,0.1,0.5-0.1c1.2-2,2.6-3,4.3-4.2
	c0.1-0.1,0.4-0.1,0.5,0c0.6,0.3,1.2,0.6,1.8,0.8c1.7,0.5,3.1,1,3.6,3.1c0.3,1.6,0.4,3.2,0.2,4.8c0,0.2,0.1,0.4,0.3,0.4
	c0.1,0,0.1,0,0.1,0c0.2,0.1,0.4,0.1,0.6,0c0-0.3,0.1-0.5,0.1-0.7c0-0.1,0-0.1,0.1-0.2c1.4-2.3,2.7-4.7,4.1-7.1c1-1.8,1.4-2.9,1-5
	s0.5-4.6-0.9-6.4c-0.1-0.1-0.1-0.1-0.1-0.1c-0.2-0.1-0.4-0.3-0.5-0.3c-0.1-0.1-0.1-0.1-0.2-0.2c-0.2-0.6,0.1-1.9,0.5-2.1
	c0.2-0.1,0.2-0.3,0.1-0.5c-2.3-4.9,8.4-8.9,8.4-2.4c0,1.3-0.9,2-1.3,3.1c-0.3,0.8-0.3,1.6,0,2.3c0.4,2.4,1.2,4.5,0.3,7
	c-1.1,2.9-3.6,2.7-5.5,4.5c-0.1,0.1-0.1,0.4,0,0.5c0.1,0.1,0.1,0.1,0.1,0.1c1.5,0.6,3.1,0.5,4.5-0.3c0.2-0.1,0.5-0.1,0.6,0.2
	c0.1,0.1,0.1,0.3,0.1,0.4c-0.6,1.7-1.3,3.4-2,5.3c-0.1,0.1-0.1,0.6-0.3,1.2c-1-1.2-1.9-3.2-2.6-3.9c-0.8-0.7-1.5-0.9-2.5-0.6
	c-0.2,0-0.3,0.3-0.3,0.5c0.6,1.4,2.8,8,5.2,6.5c0.3-0.3,0.5-0.5,0.6-0.8c0.1-0.2,0.3-0.3,0.5-0.3c0.3,0.1,0.6,0,1-0.2
	c0.3-0.1,0.5,0,0.6,0.2l0,0c1.7,3.8,5.9,3.8,9.5,3c0.1,0,0.2-0.1,0.3-0.3c0.3-2.2,0.4-4.5,0.2-6.7c0-0.2-0.1-0.4-0.3-0.4
	c0,0,0,0-0.1,0c-0.1,0-0.3,0-0.4-0.1c-0.5-0.6-0.6-1.5-0.2-2.2c0.2-0.6,0.3-1.2,0.5-1.7c0.2-0.9,0.5-1.7,0.8-2.6
	c0.6-2,1.3-4,1.9-5.9c0.1-0.2-0.1-0.5-0.3-0.5c-0.1,0-0.1,0-0.2,0c-3.8,1.7-6.9,4.8-8.4,8.7l0.3-2.1c0.2-1.2,0.2-2.8,0.6-3.9
	c1.2-3.5,0.9-1.2,1.9-2.6c0.5-0.5,0.8-1.1,1.1-1.8c0.1-0.2,0.3-1.1,0.3-1.4c0-0.1,0.1-0.2,0.1-0.3c0.4-0.3,1-0.3,1.5-0.8
	c1.9-1.8,0.1-3.7-1.1-5.1c-0.9-1.3-1.5-3.2-2.8-4.1c-1-0.7-0.6,0.3-1.3-1.2c-0.1-0.2-0.3-0.2-0.5-0.1c-0.5,0.4-1.1,0.6-1.7,0.6
	c1.7-3,5.4-4.7,8-1.7c1.1,1.3,2.5,3.8,2.5,5.6c0,1-0.6,2-0.5,3c0.1,1.3,0.6,2.6,0.8,3.9v0.1c0.1,1.1,0.3,2.2,0.6,3.3
	c0.5,1.4,1.2,2.6,1.6,4C72.1,38.8,72.3,40.5,72.1,42.3z M6.1,44.2C3.5,40.8,5,35.5,6.5,32c0.6-1.5,1.3-2.9,1.9-4.4
	c0.4-1,0.6-2.1,1-3.2c0.1-0.2,0.1-0.5,0.2-0.7c0.2-1.7,1.2-2.1,3-1.2c0.1,0.1,0.3,0.3,0.3,0.4c0.1,1-0.7,2.6-0.7,3.4
	c0,0.3,0,0.5,0.1,0.7c0.1,0.3-0.1,0.5-0.3,0.6l0,0c-2.7,0.6-3.5,5.8-3.2,8.3C8.9,37,9.4,38.1,9.9,39c0.8,1.1,1.9,2.7,0.5,3.5
	c-0.6,0.4-1.6,0.4-2.3,0.7c-0.6,0.3-1.4,0.6-1.9,1H6.1z M23.2,54.1c-0.3-1.9-0.2-3.8,0.5-5.6c0.1-0.3,0.4-0.3,0.6-0.3
	c0.1,0.1,0.3,0.2,0.3,0.3c0.6,1.9,0.4,3.9-0.5,5.6c-0.1,0.3-0.4,0.3-0.6,0.2C23.3,54.4,23.2,54.3,23.2,54.1z M35.3,43
	c-0.5,0.6-0.8,1.6-1.7,1.1c-0.8-0.5-1.2-2.3-1.3-3.3c-0.1-1.9,0-1.4,1.3-1.9c0.9-0.3,2-0.3,2.3-1.2c0.1-0.3-0.3-0.5-0.6-0.4
	c-2.7,1.3-4.6-1.7-5.1-4c-0.3-1.7-0.4-3.4-0.3-5.1c0-0.2-0.2-0.4-0.4-0.3h-0.1c0-0.2,0.1-0.5,0.1-0.6c1.4-0.5,3-1.1,4.3-0.6
	s2.7,2.4,3.3,3.9c0.9,2.4-0.6,3-0.8,5c-0.2,1-0.1,1.9,0.4,2.8c0.3,0.7,0.8,1.3,1.4,1.8c0.2,0.2,0.2,0.5,0.1,0.6l-0.1,0.1
	C37.1,41.5,36.2,42.2,35.3,43z M38.1,38.7c-1.1-2-0.3-3.1,0.4-4.9c0.4-1,0.6-1.5,0.2-2.5c-0.7-1.7-1.7-3.4-2.9-4.8
	c-1.2-1.3-3-0.8-4.7-0.1c-0.3,0.1-0.5,0-0.6-0.3c-0.1-0.1-0.1-0.3,0.1-0.5c2.5-3.3,7.3-3.2,9.5,1c0.6,1.2,1,2.5,1,3.9
	c0,1.4-0.6,2.3-0.8,3.6c-0.5,2,0.7,3.8-0.7,5.5c-0.2,0.2-0.5,0.2-0.6,0.1l-0.1-0.1C38.5,39.4,38.3,39,38.1,38.7z M54,50
	c-0.8,0.3-2.1-1-2.6-1.6c-0.3-0.4-0.6-1.1-0.8-1.6c-0.2-0.5-0.4-0.8-0.5-1.3c0.8-0.7,1.3-0.2,1.7,0.6c0.8,0.8,1.6,2.5,2.5,3.4
	C54.2,49.8,54.1,50,54,50z"/>
</svg>
