<svg id="geomuseum" xmlns="http://www.w3.org/2000/svg" width="110mm" height="25mm" viewBox="0 0 311.81 70.87"><defs><style>.cls-1{fill:#2d7b9f;}.cls-2{isolation:isolate;}.cls-3,.cls-4{fill:#fff;}.cls-4{fill-rule:evenodd;}</style></defs><title>stevns_klint_menu_logo</title><rect class="cls-1" x="-2.6" y="-6.53" width="318.44" height="84.75"/><g class="cls-2"><g class="cls-2"><path class="cls-3" d="M101.72,30.3c0,2.44-1.15,3.68-4.36,3.68s-4.17-1.27-4.23-3.35l.15-.13h1.25l.13.13c.08,1.35,1,1.85,2.69,1.85,2.27,0,2.85-.56,2.85-2.21A1.87,1.87,0,0,0,99,28.32c-1.21-.61-2.39-1.14-3.85-1.85a2.93,2.93,0,0,1-1.81-3.06c0-2,1-3.43,4-3.43s4.09.81,4.16,3.24l-.15.15h-1.26L100,23.2c0-1.38-.51-1.76-2.59-1.76s-2.5.71-2.5,1.85a1.88,1.88,0,0,0,1.2,1.95c1,.45,2.51,1.1,3.5,1.56C101,27.47,101.72,28.15,101.72,30.3Z"/><path class="cls-3" d="M106.31,33.74V21.67h-3.43l-.13-.13V20.3l.13-.15h8.42l.14.13v1.2l-.2.19h-3.38V33.58l-.15.16Z"/><path class="cls-3" d="M112.84,33.54V20.28l.15-.13h7.84l.13.13V21.5l-.15.15h-6.44v4.16h6l.14.13v1.22l-.14.15h-6v4.94h6.44l.15.17v1.16l-.13.16H113Z"/><path class="cls-3" d="M132.59,20.3v.51l-3.66,12.93h-3.2c-1.19-4.2-2.47-8.62-3.66-12.81v-.61l.18-.17h1.14c1.09,3.77,2.41,8.12,3.48,11.87v.23h.86V32l3.52-11.87h1.18Z"/><path class="cls-3" d="M142.7,20.3V33.58l-.14.17h-1.71l-5.21-10.2-.29-.88V33.6l-.14.15H134l-.16-.15V20.32l.16-.15h1.65l5.23,10.19.33,1v-11l.15-.13h1.23Z"/><path class="cls-3" d="M153.21,30.3c0,2.44-1.14,3.68-4.35,3.68s-4.18-1.27-4.24-3.35l.16-.13H146l.14.13c.07,1.35,1,1.85,2.68,1.85,2.27,0,2.86-.56,2.86-2.21a1.88,1.88,0,0,0-1.19-1.95c-1.2-.61-2.39-1.14-3.85-1.85a2.93,2.93,0,0,1-1.81-3.06c0-2,1-3.43,4-3.43s4.08.81,4.16,3.24l-.16.15h-1.26l-.16-.17c0-1.38-.5-1.76-2.58-1.76s-2.51.71-2.51,1.85a1.89,1.89,0,0,0,1.21,1.95c1,.45,2.5,1.1,3.5,1.56C152.51,27.47,153.21,28.15,153.21,30.3Z"/><path class="cls-3" d="M163.22,27v.29L167.83,33v.61l-.14.16h-1.16c-1.69-1.93-3.11-3.82-4.71-5.76h-1.26v5.6l-.14.16h-1.28l-.14-.16V20.3l.16-.15h1.26l.14.15v6.21h1.07l4.53-6.36h1.15a.72.72,0,0,0,.11.15v.57Z"/><path class="cls-3" d="M177.55,32.4v1.18l-.14.16H169.7l-.14-.16V20.3l.14-.15H171a.65.65,0,0,0,.1.15v12h6.31Z"/><path class="cls-3" d="M181.19,33.58l-.14.16H179.8l-.15-.16V20.3l.15-.15h1.25l.14.15Z"/><path class="cls-3" d="M192.83,20.3V33.58l-.14.17H191l-5.21-10.2-.29-.88V33.6l-.14.15H184.1L184,33.6V20.32l.15-.15h1.65L191,30.36l.33,1v-11l.16-.13h1.22Z"/><path class="cls-3" d="M197.75,33.74V21.67h-3.42l-.14-.13V20.3l.14-.15h8.41l.14.13v1.2l-.2.19H199.3V33.58l-.15.16Z"/></g><g class="cls-2"><path class="cls-3" d="M101.8,37.48V46.9c0,2.67-1.36,4-4.49,4s-4.48-1.31-4.48-4V37.5l.39-.42h1.46l.41.42v9.38c0,1.33.84,1.85,2.22,1.85s2.21-.55,2.21-1.85V37.5l.39-.42h1.48Z"/><path class="cls-3" d="M112.66,37.5V50.23l-.31.44h-2.1l-4-7.87-.49-1.14v8.61l-.39.4h-1.45l-.41-.4V37.52l.41-.42h1.94l4.1,8,.47,1.28V37.5l.41-.4h1.47Z"/><path class="cls-3" d="M114.61,50.23V37.48l.41-.4h7.67l.37.4v1.43l-.39.4h-5.79v3.11h5.39l.39.38v1.45l-.39.38h-5.39v3.85h5.83l.35.44v1.35l-.37.4h-7.64Z"/><path class="cls-3" d="M130.92,43.39c1.53.69,2.25,1.43,2.25,3.66,0,2.58-1.18,3.87-4.51,3.87s-4.33-1.41-4.39-3.72l.41-.38h1.45l.41.38c.06,1.09.8,1.49,2.1,1.49,1.83,0,2.3-.42,2.3-1.68a1.39,1.39,0,0,0-.92-1.46l-3.57-1.74a3.12,3.12,0,0,1-2-3.26c0-2.11,1-3.6,4.2-3.6s4.24.9,4.32,3.58l-.39.4h-1.54l-.37-.45c0-1.09-.35-1.36-2-1.36s-1.94.5-1.94,1.34a1.49,1.49,0,0,0,.89,1.47Z"/><path class="cls-3" d="M143.65,46.86c-.1,2.29-1.3,4-4.39,4s-4.38-1.73-4.38-4V41c0-1.67,1-3.92,4.39-3.92,3.19,0,4.32,1.69,4.38,3.83l-.41.4h-1.48l-.39-.36c-.07-1.19-.54-1.66-2.1-1.7H139c-1.13,0-1.92.51-1.92,1.79V46.8A1.71,1.71,0,0,0,139,48.63h.23c1.48,0,2-.53,2.1-1.77l.47-.44h1.42Z"/><path class="cls-3" d="M149.6,50.94c-3.21,0-4.45-1.87-4.45-3.81V40.52c0-1.8,1.18-3.76,4.47-3.76,3.13,0,4.47,1.87,4.47,3.77v6.64C154.09,49.07,152.82,50.94,149.6,50.94Zm2.21-10.39c0-1.29-1-1.67-2.19-1.67-1.38,0-2.24.42-2.24,1.67v6.58c0,1.33,1.46,1.66,2.1,1.66h.25c.63,0,2.08-.25,2.08-1.64Z"/><path class="cls-3" d="M170,37.5v.73l-3.62,12.44h-3.52c-2.6-9.16-3.16-10.88-3.57-12.33v-.8l.41-.46h1.61l3.21,11.4h.19L168,37.08h1.61Z"/><path class="cls-3" d="M170.88,50.23V37.48l.41-.4H179l.37.4v1.43l-.39.4h-5.79v3.11h5.38l.39.38v1.45l-.39.38h-5.38v3.85H179l.35.44v1.35l-.37.4h-7.64Z"/><path class="cls-3" d="M189.56,50.67h-1.63l-3.26-5.52h-1.09l-.37-.37v5.49l-.39.4h-1.54l-.33-.4V37.48l.39-.4h4.45c3,0,3.75,1.74,3.75,3.63v1c0,.74-.23,2.95-2.35,3.33.53.92,1.07,1.81,1.62,2.71l1.14,1.9v.65Zm-4-7.56c1.24,0,1.67-.35,1.67-1.43v-.92c0-1.1-.45-1.45-1.52-1.45h-2.54v3.8Z"/><path class="cls-3" d="M200.82,40.9v6A3.62,3.62,0,0,1,197,50.67h-4.43l-.49-.38V37.45l.49-.38h4.35A3.67,3.67,0,0,1,200.82,40.9Zm-2.24.05A1.46,1.46,0,0,0,197,39.3h-2.7v9.18h2.72a1.45,1.45,0,0,0,1.53-1.64Z"/><path class="cls-3" d="M202.63,50.23V37.48l.4-.4h7.68l.37.4v1.43l-.39.4H204.9v3.11h5.39l.38.38v1.45l-.38.38H204.9v3.85h5.83l.35.44v1.35l-.37.4h-7.64Z"/><path class="cls-3" d="M221.81,37.5V50.23l-.31.44h-2.1l-4-7.87-.49-1.14v8.61l-.39.4h-1.46l-.4-.4V37.52l.4-.42H215l4.1,8,.47,1.28V37.5l.41-.4h1.47Z"/><path class="cls-3" d="M230,43.39c1.53.69,2.25,1.43,2.25,3.66,0,2.58-1.18,3.87-4.51,3.87s-4.33-1.41-4.39-3.72l.41-.38h1.45l.41.38c.06,1.09.8,1.49,2.1,1.49,1.83,0,2.3-.42,2.3-1.68a1.39,1.39,0,0,0-.92-1.46l-3.57-1.74a3.12,3.12,0,0,1-2-3.26c0-2.11,1-3.6,4.2-3.6s4.24.9,4.32,3.58l-.39.4h-1.54l-.37-.45c0-1.09-.35-1.36-2-1.36s-1.94.5-1.94,1.34a1.49,1.49,0,0,0,.89,1.47Z"/><path class="cls-3" d="M241,37.48,244,50v.64H241.8L241,47.09h-4.39c-.26,1.18-.53,2.36-.8,3.58h-2.22V50l3-12.54.46-.42h3.58Zm-.57,7.4c-.19-.9-.38-1.75-.6-2.67s-.43-1.89-.66-3h-.83l-1.25,5.62Z"/><path class="cls-3" d="M254,50.67h-1.63l-3.26-5.52H248l-.37-.37v5.49l-.39.4h-1.54l-.33-.4V37.48l.39-.4h4.45c3,0,3.75,1.74,3.75,3.63v1c0,.74-.23,2.95-2.35,3.33.53.92,1.07,1.81,1.62,2.71l1.14,1.9v.65Zm-4-7.56c1.24,0,1.67-.35,1.67-1.43v-.92c0-1.1-.45-1.45-1.52-1.45h-2.54v3.8Z"/><path class="cls-3" d="M266.25,37.5v.73l-3.62,12.44h-3.51c-2.61-9.16-3.17-10.88-3.58-12.33v-.8l.41-.46h1.61l3.21,11.4H261l3.25-11.4h1.61Z"/></g></g><g id="New_Symbol_36" data-name="New Symbol 36"><polygon class="cls-4" points="31.44 41.33 33.18 42.36 34.29 43.78 35.72 44.88 37.71 45.35 36.2 45.59 36.36 46.14 33.02 45.59 32.63 44.96 32.55 45.19 31.44 41.33 31.44 41.33"/><polygon class="cls-4" points="40.72 53.3 41.04 53.94 40.56 53.46 40.72 53.3 40.72 53.3"/><polygon class="cls-4" points="11.67 54.09 11.75 54.88 13.26 57.24 11.44 55.27 10.64 55.12 10.72 54.41 11.67 54.09 11.67 54.09"/><path class="cls-4" d="M5-2.69l11,7,2.37,3.59-.24,2.92.8,1.81-.64,1.57,2.14,2.05-.47,1.34,1.19,4.17L21,25l.24,1.34,1.11-.55.47.08.32-.24,2.7-.08,4.53,1L31,28.1l.56-.31,3.33.71v1.18l1.66.55.4.94h1l.64,1.11-.08.86.4,1.11.47-.48,1.11,1.89-.08,1.5,2.15.79,1.27-.4,7.22,1.11,3.17,1.65,1.35-.71L58.18,41h2l.95.94,2.3,1.42-2.14,4L61,49.84l-1,1.57,2.46,1.82H83.65l.76.87-12.27.11L63.51,54s6.86.55,7.6.82l.18.83-11.35.73-3.2-.64-7.37.39.72-.31,5.63-.48-1.59-.08-.47-.47h-2l-1.74.47-9.68-.07.71.15L21.67,58,18,60.16,1.74,72.6l-2,.24.05-3.71,4.6-5L6,63.15h3.1l3.41-1.58,1.74-1.89-.79-2.2,4.84-2.13.4.24,6.82-.71.48.47,8.73-.79,1.11-.39L62,53.78l-1.43-1.26-1.82.23-1-.39L56,52.44l.48-.32H54.29l.32,1-1.19-.4-5.32-.31.16.79H45.17l-3.1-1-7.94-1.33-1.19-.95-3.09-1.1.08.15L29,48.42,16.36,46.3,15,46.37l-4.29,1.34-5.79.95,1.35,1L2,49.21l-2.22.94v-9l.56,1.49,12.93.55,2.94-.31,1.11.87L21,45l.79-.48,2,.48h.71l2.06.78,3.5.71,4.28,2.6,1.27.08.8.47,1.74.55,2.94.24-1.19-.79.39-.39L38,47.63l.16-2-1.59-5.91-2.22.31-3.17-2.2-.64.16L27.15,35,27,34,23.9,32.2l-3.5-1.42L17,36.53l.32-3.07-1.43-.55L19,30.23,15.4,28.18l1.51-2.36-.71-1.18-3.1-2.52-2.06-1L9.37,18.34l-4.84-4L.72,13.06l-.95-.55.1-14.36Zm13,37,.87-1.81L18,34.32Zm21.9,8.35.63.71L40.32,47l1.75.63,4.52,2.84,2,.24.08.78h9.68l.71-.63.8-1.49.4-2L58.9,45h-3l-.79-.71-.64.78-2.78-.7-1,1,.16,1.1.56.87,1.19.86-5.24-.39-2.22-.55L46,45.9l1.27.16.48-.79-.56-.71-.24.4-2.3-.32.64-1.26L43.5,43l-.64.15-3.49-2,.48,1.57Zm7.54,8.82-.87-.15.87.15Zm14.84,2.29h0ZM67.07,55l-2.78-.63-5,.71.24-.32-2.62.32,3.41.47.24.39L71,55.43l-.56-.55L67.07,55ZM24.53,56.85l4-1-4,1Z"/><polygon class="cls-4" points="43.66 55.27 40.96 55.67 43.66 55.27 43.66 55.27"/></g></svg>
