<?xml version="1.0" encoding="utf-8"?>
<!-- Generator: Adobe Illustrator 23.0.3, SVG Export Plug-In . SVG Version: 6.00 Build 0)  -->
<svg version="1.1" id="stevnsfort" xmlns="http://www.w3.org/2000/svg" xmlns:xlink="http://www.w3.org/1999/xlink" x="0px" y="0px"
	 viewBox="0 0 155.9 99.2" style="enable-background:new 0 0 155.9 99.2;" xml:space="preserve">
<style type="text/css">
	.st0{fill:#0082AE;}
	.st1{fill-rule:evenodd;clip-rule:evenodd;fill:#FFFFFF;}
	.st2{fill:#FFFFFF;}
</style>
<title>stevns-sidebar-desktop</title>
<rect x="-0.1" class="st0" width="156.7" height="99"/>
<g id="New_Symbol_36">
	<g>
		<polygon class="st1" points="84.3,70.5 86,71.5 87,72.8 88.3,73.8 90.2,74.3 88.8,74.5 88.9,75 85.8,74.5 85.4,73.9 85.4,74.1
			"/>
		<polygon class="st1" points="93,81.7 93.3,82.3 92.9,81.9 		"/>
		<polygon class="st1" points="65.8,82.5 65.9,83.2 67.3,85.4 65.6,83.6 64.8,83.4 64.9,82.8 		"/>
		<path class="st1" d="M59.5,29.3l10.3,6.5l2.2,3.4l-0.2,2.7l0.7,1.7L72,45.1l2,1.9l-0.4,1.3l1.1,3.9l-0.2,3.1l0.2,1.3l1-0.5
			l0.4,0.1l0.3-0.2l2.5-0.1l4.2,0.9l0.7,1.5l0.5-0.3l3.1,0.7v1.1l1.6,0.5l0.4,0.9h1l0.6,1L90.9,63l0.4,1l0.4-0.4l1,1.8l-0.1,1.4
			l2,0.7L96,67l6.8,1l3,1.5l1.3-0.7l2.4,1.3h1.9l0.9,0.9l2.2,1.3l-2,3.8l-0.2,2.3l-1,1.5l2.3,1.7h19.8l0.7,0.8l-11.5,0.1l-8.1-0.2
			c0,0,6.4,0.5,7.1,0.8l0.2,0.8L111,84.6l-3-0.6l-6.9,0.4l0.7-0.3l5.3-0.4l-1.5-0.1l-0.4-0.4h-1.9l-1.6,0.4l-9.1-0.1l0.7,0.1
			l-18,2.4l-3.4,2.1L56.5,99.8l-1.9,0.2v-3.5l4.3-4.7l1.5-0.9h2.9l3.2-1.5l1.6-1.8l-0.7-2.1l4.5-2l0.4,0.2l6.4-0.7l0.4,0.4l8.2-0.7
			l1-0.4l24.5-0.4l-1.3-1.1l-1.7,0.2l-0.9-0.4l-1.6,0.1l0.4-0.3h-2.1l0.3,0.9l-1.1-0.4l-5-0.3l0.2,0.7h-2.9l-2.9-1l-7.4-1.2
			l-1.1-0.9l-2.9-1l0.1,0.1L82,77.2l-11.8-2l-1.3,0.1l-4,1.2l-5.4,0.9l1.3,1l-4-0.4l-2.1,0.9v-8.5l0.5,1.4l12.1,0.5L70,72l1,0.8
			l3.5,1.3l0.7-0.4l1.9,0.4h0.7l1.9,0.7l3.3,0.7l4,2.4l1.2,0.1l0.7,0.4l1.6,0.5l2.7,0.2l-1.1-0.7l0.4-0.4l-2.2-1.5l0.2-1.8L89.2,69
			l-2.1,0.3l-3-2.1l-0.6,0.1l-3.2-2.9l-0.1-0.9L77.3,62L74,60.6L70.8,66l0.3-2.9l-1.3-0.5l2.9-2.5l-3.3-1.9l1.4-2.2l-0.7-1.1
			l-2.9-2.4l-1.9-1L63.7,49l-4.5-3.8L55.6,44l-0.9-0.5l0.1-13.4L59.5,29.3z M71.7,64l0.8-1.7L71.7,64z M92.2,71.8l0.6,0.7l-0.1,3.4
			l1.6,0.6l4.2,2.7l1.9,0.2l0.1,0.7h9.1l0.7-0.6l0.7-1.4l0.4-1.9L110,74h-2.8l-0.7-0.7l-0.6,0.7l-2.6-0.7l-1,1l0.1,1l0.5,0.8L104,77
			l-4.9-0.4L97,76.2l0.8-1.3L99,75l0.4-0.7l-0.5-0.7L98.7,74l-2.2-0.3l0.6-1.2l-1.6-0.4L95,72.2l-3.3-1.9L92.2,71.8L92.2,71.8z
			 M99.3,80l-0.8-0.1L99.3,80z M113.2,82.1L113.2,82.1z M117.7,83.3l-2.6-0.6l-4.7,0.7l0.2-0.3l-2.5,0.3l3.2,0.4l0.2,0.4l9.8-0.5
			l-0.5-0.5C120.9,83.2,117.7,83.3,117.7,83.3z M77.9,85l3.7-1L77.9,85z"/>
		<path class="st1" d="M95.8,83.6l-2.6,0.3L95.8,83.6z"/>
	</g>
</g>
<g>
	<path class="st2" d="M63.6,13.3c0,1.3-0.6,2-2.3,2c-1.7,0-2.3-0.7-2.3-1.8l0.1-0.1h0.7l0.1,0.1c0,0.7,0.5,1,1.4,1
		c1.2,0,1.5-0.3,1.5-1.2c0.1-0.5-0.2-0.9-0.6-1.1c-0.7-0.3-1.3-0.6-2.1-1c-0.7-0.3-1.1-1-1-1.7c0-1.2,0.5-1.9,2.2-1.9
		s2.2,0.4,2.2,1.8l-0.1,0.1h-0.7l-0.1-0.1c0-0.8-0.3-1-1.4-1s-1.4,0.4-1.4,1c0,0.5,0.2,0.9,0.7,1.1l1.9,0.9
		C63.3,11.7,63.8,12.5,63.6,13.3z"/>
	<path class="st2" d="M66,15.2V8.7h-1.8l-0.1-0.1V7.9l0.1-0.1h4.6l0.1,0.1v0.7l-0.1,0.1H67v6.5l-0.1,0.1H66V15.2z"/>
	<path class="st2" d="M69.5,15.1V7.9l0.1-0.1h4.2l0.1,0.1v0.7l-0.1,0.1h-3.5V11h3.2l0.1,0.1v0.7l-0.1,0.1h-3.2v2.7h3.5l0.1,0.1v0.6
		l-0.1,0.1h-4.2L69.5,15.1z"/>
	<path class="st2" d="M80.1,7.9v0.3l-2,7h-1.7c-0.6-2.3-1.3-4.7-2-6.9V8l0.1-0.1h0.6c0.6,2.1,1.3,4.5,1.9,6.5v0.1h0.5v-0.1l1.9-6.5
		L80.1,7.9L80.1,7.9z"/>
	<path class="st2" d="M85.5,7.9v7.2l-0.1,0.1h-0.9l-2.8-5.6l-0.2-0.5v6l-0.1,0.1h-0.7l-0.1-0.1V7.9l0.1-0.1h0.9l2.8,5.6l0.2,0.5V7.8
		l0.1-0.1L85.5,7.9L85.5,7.9z"/>
	<path class="st2" d="M91.1,13.3c0,1.3-0.6,2-2.3,2c-1.7,0-2.3-0.7-2.3-1.8l0.1-0.1h0.7l0.1,0.1c0,0.7,0.5,1,1.4,1
		c1.2,0,1.5-0.3,1.5-1.2c0.1-0.5-0.2-0.9-0.6-1.1c-0.7-0.3-1.3-0.6-2.1-1c-0.7-0.3-1.1-1-1-1.7c0-1.2,0.5-1.9,2.2-1.9
		C90.4,7.6,91,8,91,9.4l-0.1,0.1h-0.7l-0.1-0.1c0-0.8-0.3-1-1.4-1s-1.3,0.4-1.3,1c-0.1,0.5,0.2,0.9,0.6,1.1l1.9,0.9
		C90.7,11.7,91.2,12.5,91.1,13.3z"/>
	<path class="st2" d="M96.5,11.4v0.2l2.5,3.2v0.3l-0.1,0.1h-0.6c-0.9-1.1-1.7-2.1-2.5-3.2h-0.7v3.1L95,15.2h-0.7l-0.1-0.1V7.9
		l0.1-0.1H95l0.1,0.1v3.4h0.6l2.4-3.5h0.6c0,0,0,0.1,0.1,0.1v0.3L96.5,11.4z"/>
	<path class="st2" d="M104.1,14.5v0.7l-0.1,0.1h-4.2l-0.1-0.1V8l0.1-0.1h0.7V8v6.5h3.4H104.1z"/>
	<path class="st2" d="M106,15.1L106,15.1l-0.7,0.1l-0.1-0.1V7.9l0.1-0.1h0.7l0.1,0.1L106,15.1L106,15.1z"/>
	<path class="st2" d="M112.3,7.9v7.2l-0.1,0.1h-0.9l-2.8-5.6l-0.2-0.5v6l-0.1,0.1h-0.7l-0.1-0.1V7.9l0.1-0.1h0.9l2.8,5.6l0.2,0.5
		V7.8l0.1-0.1L112.3,7.9L112.3,7.9z"/>
	<path class="st2" d="M115,15.2V8.7h-1.9L113,8.6V7.9l0.1-0.1h4.5l0.1,0.1v0.7l-0.1,0.1h-1.8v6.5l-0.1,0.1H115V15.2z"/>
</g>
<g>
	<path class="st2" d="M63.6,17.3v5.2c0,1.5-0.7,2.2-2.4,2.2s-2.4-0.7-2.4-2.2v-5.2l0.2-0.2h0.8l0.2,0.2v5.2c0,0.7,0.5,1,1.2,1
		s1.2-0.3,1.2-1v-5.2l0.2-0.2h0.9L63.6,17.3z"/>
	<path class="st2" d="M69.4,17.3v6.9l-0.2,0.2H68l-2.2-4.3l-0.2-0.6v4.8l-0.2,0.2h-0.8l-0.2-0.2v-6.9l0.2-0.2h1l2.2,4.4l0.3,0.7
		v-4.9l0.2-0.2L69.4,17.3L69.4,17.3z"/>
	<path class="st2" d="M70.5,24.2v-6.9l0.2-0.2h4.1l0.2,0.2v0.8l-0.2,0.2h-3.1V20h2.9l0.2,0.2V21l-0.2,0.2h-2.9v2.1h3.1l0.2,0.2v0.7
		l-0.2,0.2h-4.1L70.5,24.2z"/>
	<path class="st2" d="M79.1,20.6c0.8,0.3,1.3,1.1,1.2,2c0,1.4-0.6,2.1-2.4,2.1s-2.3-0.8-2.3-2l0.2-0.2h0.8l0.2,0.2
		c0,0.6,0.4,0.8,1.2,0.8c1,0,1.2-0.2,1.2-0.9c0-0.4-0.2-0.7-0.5-0.8l-2-1c-0.7-0.3-1.1-1-1.1-1.8c0-1.2,0.6-2,2.3-2
		c1.7,0,2.3,0.5,2.3,2L80,19.2h-0.8L79,19c0-0.6-0.2-0.7-1.1-0.7s-1,0.3-1,0.7c0,0.3,0.2,0.7,0.5,0.8L79.1,20.6z"/>
	<path class="st2" d="M86,22.5c0.1,1.2-0.8,2.1-2,2.2c-0.1,0-0.2,0-0.3,0c-1.1,0.2-2.2-0.6-2.3-1.7c0-0.2,0-0.3,0-0.5v-3.2
		c0-1.2,0.9-2.1,2-2.2c0.1,0,0.2,0,0.3,0c1.7,0,2.3,0.9,2.3,2.1l-0.2,0.2H85l-0.2-0.2c0-0.7-0.3-0.9-1.2-0.9h-0.1
		c-0.5-0.1-1,0.3-1,0.8c0,0.1,0,0.1,0,0.2v3.2c0,0.5,0.3,1,0.8,1c0.1,0,0.1,0,0.2,0h0.1c0.8,0,1.1-0.3,1.2-1l0.3-0.2h0.8L86,22.5z"
		/>
	<path class="st2" d="M89.1,24.6c-1.7,0-2.4-1-2.4-2.1V19c0-1,0.6-2.1,2.4-2.1c1.2-0.2,2.2,0.6,2.4,1.8c0,0.1,0,0.2,0,0.3v3.6
		C91.5,23.6,90.8,24.6,89.1,24.6z M90.3,19c0-0.7-0.5-0.9-1.2-0.9s-1.2,0.2-1.2,0.9v3.6c0,0.7,0.8,0.9,1.2,0.9h0.1
		c0.3,0,1.2-0.1,1.2-0.9L90.3,19z"/>
	<path class="st2" d="M100,17.3v0.4l-2,6.8h-1.9c-1.4-5-1.7-6-1.9-6.7v-0.4l0.2-0.2h0.9l1.7,6.3h0.1l1.8-6.3h0.9L100,17.3z"/>
	<path class="st2" d="M100.4,24.2v-6.9l0.2-0.2h4.1l0.2,0.2v0.8l-0.2,0.2h-3.1V20h2.9l0.2,0.2V21l-0.2,0.2h-2.9v2.1h3.1l0.2,0.2v0.7
		l-0.2,0.2h-4.1L100.4,24.2z"/>
	<path class="st2" d="M110.5,24.5h-0.9l-1.8-3h-0.6l-0.2-0.2v3l-0.2,0.2H106l-0.2-0.2v-6.9l0.2-0.2h2.4c1-0.2,1.9,0.5,2,1.5
		c0,0.2,0,0.3,0,0.5v0.4c0,0.4-0.1,1.6-1.3,1.8c0.3,0.5,0.6,1,0.9,1.5l0.6,1v0.4L110.5,24.5z M108.4,20.4c0.7,0,0.9-0.2,0.9-0.8
		v-0.5c0-0.6-0.2-0.8-0.8-0.8h-1.4v2.1C107.1,20.4,108.4,20.4,108.4,20.4z"/>
	<path class="st2" d="M116.4,19.2v3.3c0.1,1.1-0.8,2-1.9,2.1c-0.1,0-0.2,0-0.2,0H112l-0.3-0.2v-7l0.3-0.2h2.3c1.1,0,2,0.8,2.1,1.9
		C116.4,19,116.4,19.1,116.4,19.2z M115.3,19.2c0.1-0.4-0.3-0.8-0.7-0.9h-0.1H113v5h1.5c0.4,0,0.8-0.3,0.8-0.7v-0.1V19.2z"/>
	<path class="st2" d="M117.4,24.2v-6.9l0.2-0.2h4.1l0.2,0.2v0.8l-0.2,0.2h-3.1V20h2.9l0.2,0.2V21l-0.2,0.2h-2.9v2.1h3.2l0.2,0.2v0.7
		l-0.2,0.2h-4.1L117.4,24.2z"/>
	<path class="st2" d="M127.7,17.3v6.9l-0.2,0.2h-1.2l-2.2-4.3l-0.3-0.6v4.8l-0.2,0.2h-0.8l-0.2-0.2v-6.9l0.2-0.2h1l2.2,4.4l0.3,0.7
		v-4.9l0.2-0.2h0.8L127.7,17.3z"/>
	<path class="st2" d="M132.1,20.6c0.8,0.3,1.4,1.1,1.2,2c0,1.4-0.6,2.1-2.4,2.1s-2.3-0.8-2.3-2l0.2-0.2h0.8l0.2,0.2
		c0,0.6,0.4,0.8,1.2,0.8c1,0,1.2-0.2,1.2-0.9c0-0.4-0.2-0.7-0.5-0.8l-2-1c-0.7-0.3-1.1-1-1.1-1.8c0-1.2,0.6-2,2.3-2s2.3,0.5,2.3,2
		l-0.2,0.2h-0.8L132,19c0-0.6-0.2-0.7-1.1-0.7s-1,0.3-1,0.7c0,0.3,0.2,0.7,0.5,0.8L132.1,20.6z"/>
	<path class="st2" d="M138,17.3l1.6,6.8v0.3h-1.2l-0.5-2h-2.3c-0.1,0.7-0.3,1.3-0.4,2H134v-0.3l1.6-6.8l0.3-0.2h1.9L138,17.3z
		 M137.7,21.4c-0.1-0.5-0.2-1-0.3-1.5s-0.2-1-0.4-1.6h-0.4l-0.7,3.1H137.7z"/>
	<path class="st2" d="M144.9,24.5H144l-1.8-3h-0.5l-0.2-0.2v3l-0.2,0.2h-0.8l-0.2-0.2v-6.9l0.2-0.2h2.4c1-0.2,1.9,0.5,2,1.5
		c0,0.2,0,0.4,0,0.5v0.4c0,0.4-0.1,1.6-1.3,1.8l0.9,1.5l0.6,1v0.4L144.9,24.5z M142.8,20.4c0.7,0,0.9-0.2,0.9-0.8v-0.5
		c0-0.6-0.2-0.8-0.8-0.8h-1.4v2.1C141.5,20.4,142.8,20.4,142.8,20.4z"/>
	<path class="st2" d="M151.4,17.3v0.4l-1.9,6.7h-1.9c-1.4-5-1.7-6-1.9-6.7v-0.4l0.2-0.2h0.9l1.7,6.3h0.1l1.7-6.3h0.9L151.4,17.3z"/>
</g>
</svg>
