<?xml version="1.0" encoding="utf-8"?>
<!-- Generator: Adobe Illustrator 23.0.3, SVG Export Plug-In . SVG Version: 6.00 Build 0)  -->
<svg version="1.1" id="geomuseum" xmlns="http://www.w3.org/2000/svg" xmlns:xlink="http://www.w3.org/1999/xlink" x="0px" y="0px"
	 viewBox="0 0 311.8 70.9" style="enable-background:new 0 0 311.8 70.9;" xml:space="preserve">
<style type="text/css">
	.st0{fill:#2D7B9F;}
	.st1{fill:#FFFFFF;}
	.st2{fill-rule:evenodd;clip-rule:evenodd;fill:#FFFFFF;}
</style>
<title>stevns_klint_menu_logo</title>
<rect x="-4.6" y="-6.5" class="st0" width="318.4" height="84.7"/>
<g>
	<g>
		<path class="st1" d="M87.7,30.3c0,2.4-1.1,3.7-4.4,3.7s-4.2-1.3-4.2-3.3l0.1-0.1h1.2l0.1,0.1c0.1,1.3,1,1.8,2.7,1.8
			c2.3,0,2.8-0.6,2.8-2.2c0.1-0.8-0.4-1.6-1.2-1.9c-1.2-0.6-2.4-1.1-3.8-1.8c-1.2-0.5-2-1.7-1.8-3.1c0-2,1-3.4,4-3.4
			s4.1,0.8,4.2,3.2l-0.1,0.1H86l0-0.2c0-1.4-0.5-1.8-2.6-1.8s-2.5,0.7-2.5,1.8c-0.1,0.8,0.4,1.6,1.2,1.9c1,0.4,2.5,1.1,3.5,1.6
			C87,27.5,87.7,28.1,87.7,30.3z"/>
		<path class="st1" d="M92.3,33.7v-12h-3.4l-0.1-0.1v-1.2l0.1-0.1h8.4l0.1,0.1v1.2l-0.2,0.2h-3.4v11.9l-0.1,0.2h-1.4V33.7z"/>
		<path class="st1" d="M98.8,33.5V20.3l0.1-0.1h7.8l0.1,0.1v1.2l-0.1,0.1h-6.4v4.2h6l0.1,0.1v1.2l-0.1,0.1h-6v4.9h6.4l0.1,0.2v1.2
			l-0.1,0.2H99L98.8,33.5z"/>
		<path class="st1" d="M118.6,20.3v0.5l-3.7,12.9h-3.2c-1.2-4.2-2.5-8.6-3.7-12.8v-0.6l0.2-0.2h1.1c1.1,3.8,2.4,8.1,3.5,11.9v0.2
			h0.9V32l3.5-11.9h1.2L118.6,20.3z"/>
		<path class="st1" d="M128.7,20.3v13.3l-0.1,0.2h-1.7l-5.2-10.2l-0.3-0.9v10.9l-0.1,0.1H120l-0.2-0.1V20.3l0.2-0.1h1.6l5.2,10.2
			l0.3,1v-11l0.1-0.1h1.2L128.7,20.3z"/>
		<path class="st1" d="M139.2,30.3c0,2.4-1.1,3.7-4.3,3.7s-4.2-1.3-4.2-3.3l0.2-0.1h1.2l0.1,0.1c0.1,1.3,1,1.8,2.7,1.8
			c2.3,0,2.9-0.6,2.9-2.2c0.1-0.8-0.4-1.6-1.2-1.9c-1.2-0.6-2.4-1.1-3.8-1.8c-1.2-0.5-2-1.7-1.8-3.1c0-2,1-3.4,4-3.4
			s4.1,0.8,4.2,3.2l-0.2,0.1h-1.3l-0.2-0.2c0-1.4-0.5-1.8-2.6-1.8s-2.5,0.7-2.5,1.8c-0.1,0.8,0.4,1.6,1.2,1.9c1,0.4,2.5,1.1,3.5,1.6
			C138.5,27.5,139.2,28.1,139.2,30.3z"/>
		<path class="st1" d="M149.2,27v0.3l4.6,5.7v0.6l-0.1,0.2h-1.2c-1.7-1.9-3.1-3.8-4.7-5.8h-1.3v5.6l-0.1,0.2h-1.3l-0.1-0.2V20.3
			l0.2-0.1h1.3l0.1,0.1v6.2h1.1l4.5-6.4h1.1c0,0.1,0.1,0.1,0.1,0.1v0.6L149.2,27z"/>
		<path class="st1" d="M163.5,32.4v1.2l-0.1,0.2h-7.7l-0.1-0.2V20.3l0.1-0.1h1.3c0,0.1,0.1,0.1,0.1,0.1v12h6.3L163.5,32.4z"/>
		<path class="st1" d="M167.2,33.6l-0.1,0.2h-1.2l-0.1-0.2V20.3l0.1-0.1h1.2l0.1,0.1V33.6z"/>
		<path class="st1" d="M178.8,20.3v13.3l-0.1,0.2H177l-5.2-10.2l-0.3-0.9v10.9l-0.1,0.1h-1.3l-0.1-0.1V20.3l0.1-0.1h1.6l5.2,10.2
			l0.3,1v-11l0.2-0.1h1.2L178.8,20.3z"/>
		<path class="st1" d="M183.7,33.7v-12h-3.4l-0.1-0.1v-1.2l0.1-0.1h8.4l0.1,0.1v1.2l-0.2,0.2h-3.4v11.9l-0.1,0.2h-1.4V33.7z"/>
	</g>
	<g>
		<path class="st1" d="M87.8,37.5v9.4c0,2.7-1.4,4-4.5,4s-4.5-1.3-4.5-4v-9.4l0.4-0.4h1.5l0.4,0.4v9.4c0,1.3,0.8,1.8,2.2,1.8
			s2.2-0.5,2.2-1.8v-9.4l0.4-0.4h1.5L87.8,37.5z"/>
		<path class="st1" d="M98.7,37.5v12.7l-0.3,0.4h-2.1l-4-7.9l-0.5-1.1v8.6l-0.4,0.4H90l-0.4-0.4V37.5l0.4-0.4h1.9l4.1,8l0.5,1.3
			v-8.9l0.4-0.4h1.5L98.7,37.5z"/>
		<path class="st1" d="M100.6,50.2V37.5l0.4-0.4h7.7l0.4,0.4v1.4l-0.4,0.4h-5.8v3.1h5.4l0.4,0.4v1.4l-0.4,0.4h-5.4v3.8h5.8l0.3,0.4
			v1.3l-0.4,0.4H101L100.6,50.2z"/>
		<path class="st1" d="M116.9,43.4c1.5,0.7,2.2,1.4,2.2,3.7c0,2.6-1.2,3.9-4.5,3.9s-4.3-1.4-4.4-3.7l0.4-0.4h1.4l0.4,0.4
			c0.1,1.1,0.8,1.5,2.1,1.5c1.8,0,2.3-0.4,2.3-1.7c0.1-0.6-0.3-1.2-0.9-1.5l-3.6-1.7c-1.3-0.5-2.2-1.8-2-3.3c0-2.1,1-3.6,4.2-3.6
			s4.2,0.9,4.3,3.6l-0.4,0.4H117l-0.4-0.4c0-1.1-0.3-1.4-2-1.4s-1.9,0.5-1.9,1.3c0,0.6,0.3,1.2,0.9,1.5L116.9,43.4z"/>
		<path class="st1" d="M129.7,46.9c-0.1,2.3-1.3,4-4.4,4s-4.4-1.7-4.4-4V41c0-1.7,1-3.9,4.4-3.9c3.2,0,4.3,1.7,4.4,3.8l-0.4,0.4
			h-1.5l-0.4-0.4c-0.1-1.2-0.5-1.7-2.1-1.7H125c-1.1,0-1.9,0.5-1.9,1.8v5.8c-0.1,0.9,0.6,1.8,1.6,1.8c0.1,0,0.2,0,0.3,0h0.2
			c1.5,0,2-0.5,2.1-1.8l0.5-0.4h1.4L129.7,46.9z"/>
		<path class="st1" d="M135.6,50.9c-3.2,0-4.4-1.9-4.4-3.8v-6.6c0-1.8,1.2-3.8,4.5-3.8c3.1,0,4.5,1.9,4.5,3.8v6.6
			C140.1,49.1,138.8,50.9,135.6,50.9z M137.8,40.5c0-1.3-1-1.7-2.2-1.7c-1.4,0-2.2,0.4-2.2,1.7v6.6c0,1.3,1.5,1.7,2.1,1.7h0.2
			c0.6,0,2.1-0.2,2.1-1.6L137.8,40.5L137.8,40.5z"/>
		<path class="st1" d="M156,37.5v0.7l-3.6,12.4h-3.5c-2.6-9.2-3.2-10.9-3.6-12.3v-0.8l0.4-0.5h1.6l3.2,11.4h0.2L154,37h1.6L156,37.5
			z"/>
		<path class="st1" d="M156.9,50.2V37.5l0.4-0.4h7.7l0.4,0.4v1.4l-0.4,0.4h-5.8v3.1h5.4l0.4,0.4v1.4l-0.4,0.4h-5.4v3.8h5.8l0.3,0.4
			v1.3l-0.4,0.4h-7.6L156.9,50.2z"/>
		<path class="st1" d="M175.6,50.7H174l-3.3-5.5h-1.1l-0.4-0.4v5.5l-0.4,0.4h-1.5l-0.3-0.4V37.5l0.4-0.4h4.4c3,0,3.7,1.7,3.7,3.6v1
			c0,0.7-0.2,2.9-2.3,3.3c0.5,0.9,1.1,1.8,1.6,2.7l1.1,1.9v0.6L175.6,50.7z M171.6,43.1c1.2,0,1.7-0.3,1.7-1.4v-0.9
			c0-1.1-0.4-1.4-1.5-1.4h-2.5v3.8L171.6,43.1L171.6,43.1z"/>
		<path class="st1" d="M186.8,40.9v6c0.1,2-1.5,3.7-3.5,3.8c-0.1,0-0.2,0-0.4,0h-4.4l-0.5-0.4V37.4l0.5-0.4h4.3
			c2-0.1,3.8,1.4,3.9,3.4C186.8,40.6,186.8,40.8,186.8,40.9z M184.6,40.9c0.1-0.8-0.5-1.5-1.3-1.6c-0.1,0-0.2,0-0.3,0h-2.7v9.2h2.7
			c0.8,0.1,1.5-0.6,1.5-1.4c0-0.1,0-0.2,0-0.3L184.6,40.9z"/>
		<path class="st1" d="M188.6,50.2V37.5l0.4-0.4h7.7l0.4,0.4v1.4l-0.4,0.4h-5.8v3.1h5.4l0.4,0.4v1.4l-0.4,0.4h-5.4v3.8h5.8l0.3,0.4
			v1.3l-0.4,0.4H189L188.6,50.2z"/>
		<path class="st1" d="M207.8,37.5v12.7l-0.3,0.4h-2.1l-4-7.9l-0.5-1.1v8.6l-0.4,0.4H199l-0.4-0.4V37.5l0.4-0.4h1.9l4.1,8l0.5,1.3
			v-8.9l0.4-0.4h1.5L207.8,37.5z"/>
		<path class="st1" d="M216,43.4c1.5,0.7,2.2,1.4,2.2,3.7c0,2.6-1.2,3.9-4.5,3.9s-4.3-1.4-4.4-3.7l0.4-0.4h1.4l0.4,0.4
			c0.1,1.1,0.8,1.5,2.1,1.5c1.8,0,2.3-0.4,2.3-1.7c0.1-0.6-0.3-1.2-0.9-1.5l-3.6-1.7c-1.3-0.5-2.2-1.8-2-3.3c0-2.1,1-3.6,4.2-3.6
			s4.2,0.9,4.3,3.6l-0.4,0.4H216l-0.4-0.4c0-1.1-0.3-1.4-2-1.4s-1.9,0.5-1.9,1.3c0,0.6,0.3,1.2,0.9,1.5L216,43.4z"/>
		<path class="st1" d="M227,37.5l3,12.5v0.6h-2.2l-0.8-3.5h-4.4c-0.3,1.2-0.5,2.4-0.8,3.6h-2.2V50l3-12.5L223,37h3.6L227,37.5z
			 M226.4,44.9c-0.2-0.9-0.4-1.7-0.6-2.7s-0.4-1.9-0.7-3h-0.8l-1.2,5.6L226.4,44.9z"/>
		<path class="st1" d="M240,50.7h-1.6l-3.3-5.5H234l-0.4-0.4v5.5l-0.4,0.4h-1.5l-0.3-0.4V37.5l0.4-0.4h4.4c3,0,3.7,1.7,3.7,3.6v1
			c0,0.7-0.2,2.9-2.3,3.3c0.5,0.9,1.1,1.8,1.6,2.7l1.1,1.9v0.6L240,50.7z M236,43.1c1.2,0,1.7-0.3,1.7-1.4v-0.9
			c0-1.1-0.4-1.4-1.5-1.4h-2.5v3.8L236,43.1L236,43.1z"/>
		<path class="st1" d="M252.2,37.5v0.7l-3.6,12.4h-3.5c-2.6-9.2-3.2-10.9-3.6-12.3v-0.8l0.4-0.5h1.6l3.2,11.4h0.2l3.2-11.4h1.6
			L252.2,37.5z"/>
	</g>
</g>
<g id="New_Symbol_36">
	<polygon class="st2" points="26.1,41.6 27.6,42.5 28.6,43.8 29.8,44.7 31.5,45.1 30.2,45.3 30.3,45.8 27.5,45.3 27.1,44.8 27.1,45
			"/>
	<polygon class="st2" points="34.1,52 34.4,52.5 34,52.1 	"/>
	<polygon class="st2" points="9,52.7 9.1,53.3 10.4,55.4 8.8,53.7 8.2,53.5 8.2,52.9 	"/>
	<path class="st2" d="M3.3,3.7l9.5,6l2,3.1l-0.2,2.5l0.7,1.6l-0.6,1.4l1.8,1.8l-0.4,1.2l1,3.6L17,27.7l0.2,1.2l1-0.5l0.4,0.1
		l0.3-0.2l2.3-0.1l3.9,0.9l0.5,1.3l0.5-0.3l2.9,0.6v1l1.4,0.5l0.3,0.8h0.9l0.6,1l-0.1,0.7l0.3,1l0.4-0.4l1,1.6l-0.1,1.3l1.9,0.7
		l1.1-0.3l6.2,1l2.7,1.4l1.2-0.6l2.3,1.2h1.7l0.8,0.8l2,1.2l-1.8,3.5L51.6,49l-0.9,1.4l2.1,1.6h18.3l0.7,0.8l-10.6,0.1l-7.4-0.2
		c0,0,5.9,0.5,6.6,0.7l0.2,0.7l-9.8,0.6L48,54.1l-6.4,0.3l0.6-0.3l4.9-0.4l-1.4-0.1l-0.4-0.4h-1.7L42,53.7l-8.4-0.1l0.6,0.1L17.7,56
		l-3.2,1.9l-14,10.7l-1.7,0.2v-3.2l4-4.3l1.4-0.8h2.7l2.9-1.4l1.5-1.6l-0.7-1.9l4.2-1.8l0.3,0.2l5.9-0.6l0.4,0.4l7.5-0.7l1-0.3
		l22.6-0.3l-1.2-1.1l-1.6,0.2l-0.9-0.3l-1.5,0.1l0.4-0.3h-1.9l0.3,0.9l-1-0.3l-4.6-0.3l0.1,0.7h-2.7L35.3,51l-6.9-1.1l-1-0.8
		l-2.7-0.9l0.1,0.1L24,47.8L13.1,46h-1.2l-3.7,1.2l-5,0.8l1.2,0.9l-3.7-0.4l-1.9,0.8v-7.8l0.5,1.3l11.2,0.5L13,43l1,0.8l3.2,1.1
		l0.7-0.4l1.7,0.4h0.6l1.8,0.7l3,0.6l3.7,2.2l1.1,0.1l0.7,0.4l1.5,0.5l2.5,0.2l-1-0.7l0.3-0.3l-2-1.4l0.1-1.7l-1.4-5.1l-1.9,0.3
		l-2.7-1.9l-0.6,0.1l-2.9-2.6l-0.1-0.9l-2.7-1.6l-3-1.2l-2.9,5L14,35l-1.2-0.5l2.7-2.3l-3.1-1.8l1.3-2l-0.6-1l-2.7-2.2l-1.8-0.9
		l-1.4-2.4L3,18.4l-3.3-1.1l-0.8-0.5L-1,4.4L3.3,3.7z M14.5,35.6l0.8-1.6L14.5,35.6L14.5,35.6z M33.4,42.8l0.5,0.6l-0.2,3.1l1.5,0.5
		l3.9,2.5l1.7,0.2l0.1,0.7h8.4l0.6-0.5l0.7-1.3l0.3-1.7l-1.2-2h-2.6l-0.7-0.6L46,44.9l-2.4-0.6l-0.9,0.9l0.1,0.9l0.5,0.8l1,0.7
		l-4.5-0.3l-1.9-0.5l0.7-1.2l1.1,0.1l0.4-0.7l-0.5-0.6l-0.2,0.3l-2-0.3l0.6-1.1L36.5,43L36,43.2l-3-1.7L33.4,42.8L33.4,42.8z
		 M39.9,50.4l-0.8-0.1L39.9,50.4z M52.7,52.4L52.7,52.4z M56.8,53.4l-2.4-0.5l-4.3,0.6l0.2-0.3L48,53.5l2.9,0.4l0.2,0.3l9-0.4
		l-0.5-0.5L56.8,53.4z M20.1,55l3.5-0.9L20.1,55z"/>
	<path class="st2" d="M36.6,53.7L34.3,54L36.6,53.7z"/>
</g>
</svg>
