<svg id="stevnsfort" xmlns="http://www.w3.org/2000/svg" width="35mm" height="35mm" viewBox="0 0 99.21 99.21">
  <defs>
    <style>
      .cls-1 {
        fill: #38728d;
      }

      .cls-2 {
        fill: #fff;
      }
    </style>
  </defs>
  <title>kold-sidebar</title>
  <rect class="cls-1" width="99.21" height="99.67"/>
  <path class="cls-2" d="M90.36,65.37l-.12,3.22c-.94.18-2.38.41-4.31.6V69l.28-7.45-.29-.27L85.61,69v.21c-1.21.12-2.6.22-4.18.28l.21-11.3c.61.25,1.18.51,1.73.77l-1.89-1.73c-1.2-.47-2.5-.91-3.94-1.33A108.35,108.35,0,0,0,60.2,52.26l-.13,0-.08-.1,0,.09-.37-.06-.09-.26-3-.93-.15.7-.61-.09a142.13,142.13,0,0,1-15.16-3.42,1.77,1.77,0,0,0,0-.52.81.81,0,0,1,0-.16.66.66,0,0,1,.31.09.91.91,0,0,0,.57.08l.17,0,0-.24a.59.59,0,0,0-.28-.42V32.56L40.61,32l-.32-2.78L39.64,29a9.29,9.29,0,0,0-2-.64c-.2.28,0,1.15-.23,1.37l-.17.05v.14c-.43.1-.09,1.3-.2,1.86a1.32,1.32,0,0,0,.2-.62v.62l-.48.29a2.83,2.83,0,0,0,0-.29c-.54.43-.29,1.53-.29,2.27,0,3.54-.13,7.89-.21,11.55-.1.53.34.28.4.57s-.14.37-.1.71.12-.78.4-.71c.46.06.26,1.05.7,1.14.19-.19-.09-.9-.1-1.28-.38.1-.47-.18-.8-.15,0,0,0-.1,0-.15l3.49,1a6,6,0,0,0-.07.76c0,.21,0,.42-.05.61l-.94-.26L39,47.69v0l-1.7-.52v0c-2.23-.65-3.64-1.11-3.68-1.12-5.55-1.49-20.33-8.73-20.47-8.8C8.51,34.79,4.27,34,.68,34.83v.87a11.75,11.75,0,0,1,2.87-.35h.12L2.82,48.58l-1.47-.07-.09.16-.58-.42v.48l.38.28-.38.67v.68l.66-1.15,1.39,1V57c-.74-.66-1.42-1.3-2-1.92v.53c.64.62,1.32,1.27,2.07,1.92L3,60.2.68,56.11v.69l2,3.51c-.69-.63-1.35-1.27-2-1.9v1.05A106.65,106.65,0,0,0,16.9,72.25v0H17c.49.31.94.58,1.34.81,2.42,1.4,4.78,2.62,7.14,3.7L26.57,86l3.8,4.68,5.44,6.56H32.32v1.33H57.14V97.26h-3l7.36-11.88.14.31,1-2.08v0l.49-.79,0,0c14-1,26.22-5.13,27.74-6.69,1.79-1.84,2-5.45.69-9.67ZM37.77,29.62v-.33l0,.33ZM2.75,49.7c-.31-.2-.61-.41-.9-.61h.94ZM90.65,66c.08.21.16.43.23.65a16,16,0,0,1,.48,1.76l-.82.18ZM90.23,69l-.07,3.49c-1,.22-2.32.51-4,.84L86,69.62C87.86,69.43,89.28,69.21,90.23,69Zm-4.58.62.24,3.77c-1.26.24-2.69.51-4.24.78l-.19-4.27C83.05,69.87,84.44,69.76,85.65,69.65ZM77.39,56.76h0c1.26.36,2.42.75,3.49,1.15l-3.6,1.91Zm-.08,3.54,4-2.15-.21,11.27c-.54-.29-1.89-1-4-1.9ZM76.83,70l.32,4.89c-1.33.19-2.72.37-4.15.54V69.93C74.35,70,75.63,70,76.83,70ZM73,69.5v-.09l.09-3.06c1.43.52,2.68,1,3.76,1.49l0,1.74C75.61,69.57,74.34,69.55,73,69.5Zm4.21,5.83.73,2.55-4.58-1.07-.27-.94C74.51,75.7,75.89,75.52,77.21,75.33ZM77.14,70h.22c1.37,0,2.63,0,3.79-.08l.2,4.31c-1.23.2-2.53.41-3.9.61Zm0-2c1.52.66,2.65,1.21,3.33,1.56-1,0-2.17,0-3.37,0ZM73.42,55.65c1.11.29,2.32.62,3.67,1L77,60l-3.79,2ZM77,60.47l-.15,6.92c-1.08-.46-2.33-1-3.76-1.48l.11-3.42ZM72,55.28l1.15.29-.2,6.61-1.39.74Zm-.47,8.11,1.41-.74-.1,3.15-1.41-.5Zm-.34,6,.21-3.67,1.43.5-.09,3.17v.08l-1.55-.08ZM70.76,55l-.5,8.59-1.37.73.34-9.65ZM64,71l.64-1.5.07,6.74-1.58.08.07-1,.5-2.58Zm-.23-4,.14-3.39.72.17v3.36Zm1,9.68L65,78l-2.11,1.13.17-2.44Zm.21-9.49V63.8c1.29.34,2.51.69,3.66,1v4.41c-1.17-.08-2.39-.18-3.66-.31V67.73l.06-.59Zm0-3.77.26-3.45,3.19,4.42C67.28,64,66.13,63.68,64.92,63.36ZM65,76.6c1-.06,2-.14,3.06-.22L65.3,77.87Zm0-.43-.07-6.79c1.27.12,2.5.23,3.69.31l.34,6,0,.12C67.66,76,66.33,76.08,65,76.17Zm5.17-10.83-.23,4h0l-1-.06V64.93Zm-.93-.74,1-.54,0,.84Zm-.32,5.11,1,.07.33,6-1,.09,0-.16Zm0-15.11L68.59,64l-3.37-4.66.4-5.38C66.76,54.18,67.84,54.37,68.93,54.6Zm-7.21-1.23c1.31.2,2.48.38,3.6.57l-.38,5-3.3-4.57ZM57.05,69.92l1.73-1,.58,1.29.07,1.18-.58,2.78L57.4,75.55v.15l-.77.69h-.09l-.38-6.33.82-.54ZM46.1,87.78l.68-.6,2.08,3.11-.58.84h-.2l.1-.12ZM40.64,86.4l-4.39-.73-1.47-2L41.43,85Zm.79,3.5-.91.81-.61-.08-2.2-3,2.86.47Zm-7.92-8.23-.53-2A65.69,65.69,0,0,0,43,82l-.74,1.37Zm-2.36-4.45-.32-4.8c.92.29,1.86.57,2.83.84L34,75.8l-2,2.22Zm.53,1.08-.05,0-.42-.14,0-.41ZM27.23,55.11l2.88-1.55-.2,2.36v.15C29,55.75,28.07,55.43,27.23,55.11Zm2.67,1.41v.68l-1.65-1.26C28.77,56.13,29.32,56.33,29.9,56.52Zm0,1.17L29.84,62l-.22-.06.09-.18-2.49-6.07Zm-.54,4-.05.1c-.8-.24-1.57-.49-2.33-.74V55.9Zm-.24.49L27,66.34,27,61.58v-.09C27.67,61.73,28.38,62,29.11,62.18Zm.32.1.41.13L30,65,27.07,68.3l0-1.24Zm.62,3.22.43,6.37c-1.16-.37-2.28-.74-3.37-1.13l0-1.89Zm16.54-4.88,0,1-3.45,1.68,0-.38Zm-3.38,1.76.13-2.67c1.16.22,2.18.39,3.08.55ZM46.64,62l.08,2.41,0,1.75c-1.19-.24-2.42-.51-3.67-.78l.08-1.68Zm10,5.9-.62-.09.07-2.25.48.63-.07.93Zm.08.45.14.72-.78.51-.07-1.32v0ZM56.91,81l.17,1.08h-.9Zm-.12-2.72.54-.48v.11l-.49.71Zm-1.87,3.15H53.4l0-.12,3.13-2.78.08.46Zm-1.73,1.75-.14-.3.86,0,0,0Zm.3.35-.09.12,0-.09Zm-7.24-7.46L43.84,80.5l-.56-4.93C44.26,75.77,45.25,75.93,46.25,76.07Zm-3-.94-.1-5.23,3.63,5.73v.09C45.59,75.55,44.41,75.36,43.25,75.13Zm1.62,7.11c1.51.19,3.06.34,4.66.45l-4.27,3.79-1.4-2.17ZM48,66.43l-.9-.18L47,63l0-1.13,1.54-.75v.66Zm.56-2.2,0,2.31-.28-.06Zm-1.45,2.46.84.17-.78,6.78-.06-3.9Zm1.14.22.34.07.24,6.28-1.52,1.88Zm.6,6.9,0,.51-.92.6Zm0,1,0,1.18c-.53,0-1.06-.12-1.59-.18Zm3.1-2.5-2.8,1.82,0-.69,2.69-3.34ZM51.87,62,50.1,60.84l1,.15.75.12Zm3.87,6.2v.07l.09,1.5L52.28,72.1l-.14-2.36,1.49-1.85ZM54,67.5l1.87-2.32,0,0-.08,2.59ZM50.44,81.88h0l.13-.14-.15-.26-1.11-5c1,.09,2,.18,3,.24l.51,3.09Zm2.12,1.52L50,84.29l1.64-1.47.63,0Zm-2.71-3-2.19-4,.11-.22,1.2.13ZM52.1,69.2,52,67.61l1.21.2Zm.11,6.85,0,.19c-1-.06-2-.14-3-.24l0-1.42L52,72.75Zm-3.07-3.18L48.92,67l2.78.51.13,2Zm-1.66,4,2.63,4.75.06.26-1.62-.12-1.16-4.69ZM49.21,85l3.52-1.23.23.5-1.6,2.34h-.11l-3-.7Zm3.42-8.33q1.74.11,3.51.12l-3,2.72Zm-.07-.44L52.51,76l-.2-3.42,3.55-2.31.36,6.13C55,76.37,53.77,76.32,52.56,76.25ZM56,61.34c-1.4-.26-2.55-.44-3.74-.62v-.15l.13-2L55.89,56l.16,3.92Zm0,.44-.07,2.48-.12.34-3.58-2.38,0-1.07C53.4,61.33,54.55,61.51,55.94,61.78Zm-.4,3.16-2,2.49L52,67.17l.14-4.48Zm-3.62-4.39v.12l-.73-.11-1.41-.21L52,58.75Zm-.06,1.94-.15,4.63c-.91-.17-1.85-.33-2.8-.52l-.06-5,.09-.72.16-.08.12-.09Zm-3.32-2.33-1.48-.23L49,53.65Zm0,.44v.06L47,61.4l0-1ZM47.16,77.52l1,4.2c-1-.08-2-.19-2.93-.31ZM46.78,75l-3.64-5.74-.06-3.4,3.67.78,0,1.71Zm-3.21,6-.1.17c-.9-.13-1.78-.27-2.66-.44L40.1,74.9c.93.21,1.88.41,2.84.61Zm-.75-17.13-.07,1.45-1.93-.43-.07,0Zm-1.71.37,1.74-1.15v.31Zm-.34,1.07,2,.45,0,2.94-2.16-3.42Zm2,4.05.1,5.69c-1-.2-1.94-.4-2.88-.61l-.14-9,.11-.24.14-.06h0Zm0-6.77-3,2L40,59.08l3.06.58Zm-2.4,18.08c-.81-.15-1.62-.32-2.42-.5h0l-.92-6,2.58.62ZM32.18,63.1l.77.22.64,9.42v.07c-1-.27-1.9-.55-2.8-.84l-.46-6.78ZM30.3,64.67l-.14-2.17L31.8,63Zm2.2-1.92L33,62.2l0,.68Zm3.79,1.48c1.07.27,2.15.54,3.26.8l0,0v.37L36.9,71.53Zm.46,9.43-.39-.1.32-.72.06.7Zm-.44-9.87.07-1.17,2.32,1.77C37.9,64.2,37.09,64,36.31,63.79Zm0-5.43,0,0h0Zm0,.11v.05l-.2,3.39-1.7-1.29ZM34.1,60.4l-.69-.53.11-2.26c.78.21,1.62.42,2.5.63Zm-.26.29-.5.57,0-.92Zm.29.22,1.94,1.47L36,63.7c-.93-.24-1.84-.49-2.74-.74l.06-1.12Zm-.87,2.5c.88.25,1.78.49,2.7.73v0l.66,8-.57,1.31-2.13-.58,0-.22Zm2.51,10.43-1.52,1.67L34,73.36C34.57,73.52,35.17,73.69,35.77,73.84Zm.41.11.64.16.92,6c-1-.24-2-.5-3-.78L34.31,76Zm.92-.21,0-.28L37,72.21l2.62-6,.13,8.16C38.82,74.17,38,74,37.1,73.74Zm2.47-9.18-3.16-2.41.22-3.58,0-.18c.93.21,1.92.42,3,.62Zm-3.2-6.68c-1-.23-1.94-.47-2.82-.7l.5-5.74,1-.51,2,.88Zm-3.12-.78c-1.1-.31-2.1-.61-3-.93V56l.21-2.56,3.3-1.77Zm0,.43-.1,2.12L30.2,57.42v-.8C31.13,56.92,32.13,57.23,33.22,57.53Zm-.13,2.59L33,61.62l-.91,1-2-.58.05-4.15Zm-2.58,12.2.31,4.56-3.48-3.6-.19-2.08C28.23,71.58,29.35,72,30.51,72.32Zm.35,5.13,0,.65c-1.08-.37-2.15-.79-3.22-1.24l-.28-3ZM34,76.28l.38,3-1.7-.53,0-.17-.16.09-.33-.34Zm-1.32,7.25.43,1.62-2.65-.44Zm10.08,1.68h0l1.43,2.21L42.46,89l-.8-1.64Zm2.26,3.51,1.56,2.42H44.18l-.71-.09-.32-.66Zm2.49-1.66,3.27.38-1.53,2.23Zm4.51,1,.79,1.2-1.27,1.82H50.25l-.13-.19Zm.43-.62.08-.12,1.42.32-.71,1Zm.34-.5.81-1.19.66,1.44,0,.07Zm1.25-1.83L55.53,83l.87,1.18-1.68,2.4ZM56.35,83h.93l-.45.64Zm.81-2.32.1-.14v0L57.64,82l-.21.11h0Zm-.51-15-.5-.65,0-.65.76-2.24Zm0-3.76-.47,1.37,0-1.44Zm-1-9.46.5.08-.39,1.85,0,1.17L52.38,58l.38-6.08C53.76,52.13,54.75,52.3,55.71,52.45Zm-3.25-.57-.4,6.37-2.84,2L48.88,60l2.28-8.41Zm-1.61-.32-1.8,6.64.69-6.88Zm-1.71-.37-.08,1.07-2.13,7,.5-8.48ZM44.05,50c1,.25,2,.51,3.06.75l-.52,8.64L45.36,56.5l-1.57-3Zm1.06,6.78,1.33,3.07-3.09-.54v0l.38-5.07Zm-1.38-6.86-.11,1.48-2.1-2.07Zm-3.3,2.9,2.73.29h0l.29.55L43,59.2v0L40,58.64ZM37.33,52l1.54.67,1.24.13-.47,5.83c-1-.21-2-.41-3-.63Zm-.11-3.86-.07.93L35,48.77l-.45,1.92-.49.27.32-3.72ZM33.48,47l.63.2-.34,4-3.3,1.77L31,46.16C32,46.49,32.8,46.76,33.48,47Zm-2.73-.9-.6,7L27,54.77l.68-9.94C28.75,45.29,29.8,45.7,30.75,46.05Zm-6.7-2.76c1.12.49,2.24,1,3.32,1.42l-.65,9.54-2.78-9Zm-.8,23.54-.11-6.66.62.23.88,9.43-.1,0Zm.86,2.79-.82-.32,0-1.62Zm-.95-9.89.17-3.95.39,4.15Zm.92.78,1.7.59-.94,7.65Zm0-.46-.56-6,.05,0c1,.4,1.94.81,3,1.22l-.66,5.4C25.22,60.47,24.62,60.26,24,60.05Zm2.63-3.68V61l-.53-.18Zm-.08-1.52c-1-.41-2-.82-3-1.22l-.18-.07h0l.45-7.44ZM23.76,43.16l-.08,1.21-.44-1.44Zm-3.18-1.43,1.69.77-1.8.79Zm2.2,1,.07,0,.78,2.52-.5,8.15c-1.07-.45-2.12-.88-3.24-1.31v-.19l.55-8.17ZM23,67l0,2.21c-1.22-.5-2.39-1-3.52-1.52l.07-8.51ZM19.78,58.9c1,.39,2,.78,3.06,1.16l.1,6Zm3.08.72c-1.08-.39-2.11-.78-3.11-1.18l-.1-.08,3.45-4.3Zm-3.29-1.74.29-5.32c1,.39,2,.8,3,1.21ZM19,41c.44.2.87.41,1.33.61l-.12,1.84-1.46.64Zm-.29,3.56,1.47-.64-.54,8V52l-1.49-.53Zm.9,7.91L19.25,58l-1.59-1.28.4-4.84C18.58,52.09,19.08,52.27,19.56,52.45Zm-1,5.95-.93.25V58Zm-.93-.84v-.15l0-.19.89.72Zm1.51,1.13-1.51,4.42v-4ZM12.93,38.11l1.8.88-.54,7.07-3.65,1.62.87-10.33C11.91,37.59,12.42,37.84,12.93,38.11ZM9.71,53.84c-1.09-.58-2.12-1.15-3.08-1.71l.18-2.71,1.41.19L10,51Zm0,9Zm0-.49-1.19-.8,1.19-.32Zm3.92-8.84-3.36-2.71.07-.81c1.09.2,2.25.45,3.5.75Zm.11,2.81c.86.39,1.74.8,2.66,1.2V59l-2.8.75ZM13.59,54l-.13,1.74h0Q11.63,54.86,10,54v-.11l.23-2.65Zm-3.51-4.48c-.62-.11-1.21-.21-1.77-.29l-.06,0,1.93-.85ZM9,49.73l1.06.18,0,.64Zm1,11.4,3.27-.87-.17,4.14C12,63.77,11,63.14,10,62.52Zm3.13,3.75.17,1.18-3.23-2.93,0-.1C11,63.65,12.05,64.26,13.14,64.88Zm.15-5.07L10,60.69V54.46c1.08.56,2.22,1.13,3.43,1.7Zm.29.36,2.82-.75v6.75c-1-.53-2-1.07-3-1.61h0Zm2.82,6.46v0l-.56,1.66.27.19.36-1.06L16.61,69l-2.94-2.65-.19-1.31C14.4,65.59,15.38,66.11,16.4,66.63Zm0-9.57c-.92-.41-1.8-.81-2.65-1.21v-.11l.12-1.55,2.6,2.1Zm-2.54-6.77c-1.24-.3-2.41-.55-3.49-.75l.12-1.39,3.66-1.62ZM11.11,37.22l-.89,10.6-2.37,1-1,0L7.66,36A22.05,22.05,0,0,1,11.11,37.22ZM4,35.37a16,16,0,0,1,3.38.5L6.54,48.79,3.12,48.6ZM3.09,49.11c.83,0,2,.11,3.41.27L6.34,52C5.13,51.25,4,50.56,3,49.9ZM3,50.37c1,.66,2.09,1.34,3.29,2L6.39,60c-.92-.69-1.76-1.35-2.52-2L3,57.31H3Zm.05,7.49.6.51c.83.69,1.73,1.41,2.73,2.15l0,.58-3.11-.31Zm.62,3.4,2.78.27.15,2.24C5.63,63,4.65,62.11,3.7,61.26Zm2.92-8.67c1,.56,2,1.13,3.08,1.71v6.47l-1.65.45c-.48-.33-.93-.65-1.36-1Zm.11,8.17.6.43-.57-.06ZM7,64l-.16-2.47,1.11.11L9.8,63.4l.42,3.21C9.14,65.79,8,64.93,7,64Zm3.61,2.83-.41-3.16,3.25,2.94.37,2.56C12.75,68.49,11.66,67.71,10.56,66.87Zm3.56,2.58L13.76,67l2.9,2.63.15,1.65C16,70.72,15.08,70.12,14.12,69.45Zm2.4-13.63-2.61-2.1.23-2.93c.34.09.69.17,1,.27.6.15,1.16.31,1.7.48Zm.38-4.72c-.53-.16-1.08-.32-1.67-.47l-1.06-.27.3-4,2.92-1.29Zm-2.39-5.18L15,39.13c.8.38,1.8.86,2.93,1.38l-.19,0-.34,4.15Zm3.1,20.65V64.1l1.61-4.74-.06,8.15-1.53-.72Zm.07.69c.48.24,1,.48,1.5.71l.27,3.63-1.51-1.36Zm.85,5-.42-.25L18,70.8l1.5,1.36.05.72Zm1.34.76-.05-.61,1.61,1.45Zm2.89,1.53-3-2.69-.29-3.78c1.13.51,2.3,1,3.53,1.52l.47,3.68-.69,1.29Zm.34.17.46-.86.15,1.16Zm.25-5,1,.39.35.81-.05.06,0,0-.94,1.78ZM24,75.22l-.23-1.79,1-1.86v0h0l.52,4.24ZM25.21,70h0L25,70l1.07-8.77.59.19v.2l.09,5.34Zm1.55-2.37,0,1-1.15,1.28Zm-.89,2.55.91-1,0,1.45-.92-.34Zm.06.55.9.33L27,72.93l-.92-1Zm.23,1.83.9.94.3,3.2-.73-.32Zm1.43,11.64-.84-6.86q2.19.94,4.4,1.72l1,2.89-4.31,2.29Zm3.58,5.15-2.65-3.25,5.11.85.81,3-3.1-.37ZM33,91.54l2,.24L35.78,95Zm2.84-1.4L35,87.2l.7.12L38,90.4Zm.48,1.8,2.69.32L37.36,96Zm2,5.32,1.57-3.63.8,3.63Zm2.6-4.77,2,.23.3.61-1.43,3Zm1.84,4.77,1.17-2.4L45,97.26Zm2.47,0,.51-.51.34.51Zm-.37-4.38,5.58,0L47.47,97Zm7.72,4.38H49l2.59-3.71,3.19,0Zm-.3-4.58,1.48-2.11,1.4,2.14Zm3.41-.44L54.1,90l1.3-1.86,2.76,0Zm.4-5,1.29-1.85,1.4,1.87Zm3.09-.62-1.37-1.84.86-1.23,2-.17.24.51Zm2.1-30.36L60.94,56l-.81-2.3,0-.58h.11l1,1.43ZM61.36,54l-.58-.8.64.09Zm.12,2.5L61.6,55l3.3,4.57L64.65,63l-1.18-4.58ZM62.72,81.9l.16-2.27,2.23-1.2.72,3.22C64.81,81.75,63.77,81.83,62.72,81.9Zm3.43-.28-.76-3.34,3.66-2,.82,4.84C68.65,81.34,67.41,81.49,66.15,81.62Zm4-.5-.81-4.81,1.06.25,1,4.38Zm1-11.28,1.53.08v5.56l-1.21.13Zm.4,6.2,1.22-.14.23.83-1.37-.32Zm1,4.7-.85-3.87,1.4.33.92,3.28Zm1.78-.32-.89-3.14,4.58,1.07.35,1.23C77.14,79.87,75.79,80.16,74.38,80.42Zm4.35-.91-.31-1.07,2.37.55C80.13,79.17,79.44,79.34,78.73,79.51Zm2.94-.75L78.29,78l-.77-2.68c1.36-.2,2.66-.4,3.88-.61l.82,3.94Zm.74-.21.11,0-.82-3.89c1.57-.26,3-.53,4.27-.78l.82,3.31C85.57,77.6,84.09,78.08,82.41,78.55Zm8-3.19A11.46,11.46,0,0,1,87.08,77l-.81-3.26c1.61-.32,2.92-.6,3.89-.82L90.71,75C90.62,75.15,90.53,75.26,90.43,75.36Zm.51-.67-.47-1.8,1.17-.28A5.49,5.49,0,0,1,90.94,74.69Zm.75-2.53-1.22.29L90.53,69c.44-.08.75-.15.93-.2A11.94,11.94,0,0,1,91.69,72.16Z"/>
  <g>
    <path class="cls-2" d="M11.7,10.55v.14l2.13,2.71v.29l-.06.07h-.54c-.79-.91-1.44-1.8-2.18-2.72h-.59v2.65l-.06.07H9.8l-.06-.07V7.4l.07-.07h.59l.06.07v2.94H11l2.1-3h.53l.05.07v.27Z"/>
    <path class="cls-2" d="M16.55,13.89c-1.44,0-2-.83-2-1.71V8.86c0-.81.55-1.7,2-1.7s2,.84,2,1.71V12.2C18.56,13.06,18,13.89,16.55,13.89Zm1.29-5c0-.82-.57-1-1.28-1s-1.31.25-1.31,1v3.31c0,.83.86,1,1.24,1h.13c.37,0,1.22-.17,1.22-1Z"/>
    <path class="cls-2" d="M23.32,13.13v.56l-.06.07H19.68l-.07-.07V7.4l.07-.07h.6s0,.07,0,.07v5.66h2.93Z"/>
    <path class="cls-2" d="M28.1,9v3a1.62,1.62,0,0,1-1.7,1.72H24.26l-.08-.07V7.4l.09-.08h2.1A1.63,1.63,0,0,1,28.1,9Zm-.7,0a.9.9,0,0,0-1-1H24.9v5h1.55a.9.9,0,0,0,.95-1Z"/>
    <path class="cls-2" d="M31.11,10.55v.14l2.14,2.71v.29l-.07.07h-.54c-.78-.91-1.44-1.8-2.18-2.72h-.59v2.65l-.06.07h-.6l-.06-.07V7.4l.07-.07h.59l.06.07v2.94h.5l2.1-3H33a.2.2,0,0,0,.06.07v.27Z"/>
    <path class="cls-2" d="M38.43,13.76h-.61L36.21,11l-.65,0-.39-.24v3l-.08.07h-.55l-.09-.07V7.4l.07-.07h2.12C38,7.33,38.3,8.1,38.3,9v.49C38.3,9.81,38.14,11,37,11L38.5,13.5v.2Zm-1.88-3.41c.75,0,1-.22,1-.92V9c0-.71-.28-.93-1-.93H35.17v2.31Z"/>
    <path class="cls-2" d="M40.37,13.69l-.06.07h-.58l-.07-.07V7.4l.07-.07h.58l.06.07Z"/>
    <path class="cls-2" d="M44.84,10.85l.36-.42h.37v3.26l-.08.08h-.65v-.3l-1.23.38c-1.66,0-2-.79-2-1.84V9c0-.56.26-1.69,2-1.69,1.56,0,1.92.53,1.94,1.53l-.07.08h-.57l-.08-.08C44.8,8.09,44.47,8,43.63,8c-.63,0-1.27.12-1.27,1v3c0,.9.36,1.11,1.27,1.11l1.21,0Z"/>
    <path class="cls-2" d="M50.67,12.14c0,1.15-.54,1.74-2,1.74s-1.94-.6-2-1.59l.07-.06h.58l.06.06c0,.64.46.88,1.25.88,1,0,1.32-.26,1.32-1.05a.89.89,0,0,0-.55-.92c-.56-.29-1.11-.54-1.78-.87a1.41,1.41,0,0,1-.84-1.46c0-.94.46-1.62,1.86-1.62s1.9.39,1.93,1.53l-.07.08h-.58l-.08-.08c0-.65-.23-.83-1.2-.83s-1.16.33-1.16.87a.89.89,0,0,0,.56.92l1.62.74A1.5,1.5,0,0,1,50.67,12.14Z"/>
    <path class="cls-2" d="M56.76,7.4v6.29l-.07.07H56.1L56,13.7V8.5l-.13.41c-.43.88-.93,1.89-1.35,2.77H54L52.61,8.91l-.15-.43V13.7l-.07.06h-.57l-.08-.07V7.4l.06-.07h.83l1.62,3.34,1.61-3.34h.84Z"/>
    <path class="cls-2" d="M61.94,7.4v4.66c0,1.21-.6,1.79-2,1.79s-2-.59-2-1.8V7.4L58,7.33h.58l.07.07v4.65c0,.83.49,1.14,1.3,1.14s1.29-.34,1.29-1.14V7.4l.06-.07h.58Z"/>
    <path class="cls-2" d="M67,12.14c0,1.15-.53,1.74-2,1.74s-1.94-.6-2-1.59l.07-.06h.58l.06.06c0,.64.46.88,1.25.88,1,0,1.32-.26,1.32-1.05a.89.89,0,0,0-.55-.92c-.56-.29-1.11-.54-1.78-.87a1.41,1.41,0,0,1-.84-1.46c0-.94.46-1.62,1.87-1.62s1.89.39,1.93,1.53l-.08.08h-.58l-.07-.08c0-.65-.24-.83-1.2-.83s-1.17.33-1.17.87a.89.89,0,0,0,.56.92c.47.22,1.17.52,1.63.74A1.51,1.51,0,0,1,67,12.14Z"/>
    <path class="cls-2" d="M68.05,13.67V7.4l.07-.07h3.64l.06.07V8L71.75,8h-3v2h2.79l.06.06v.58l-.06.07H68.76v2.34h3l.07.08v.55l-.06.07H68.14Z"/>
    <path class="cls-2" d="M76.93,7.4v4.66c0,1.21-.6,1.79-2,1.79s-2-.59-2-1.8V7.4L73,7.33h.58l.07.07v4.65c0,.83.49,1.14,1.3,1.14s1.29-.34,1.29-1.14V7.4l.06-.07h.58Z"/>
    <path class="cls-2" d="M83.09,7.4v6.29l-.07.07h-.59l-.06-.06V8.5l-.14.41c-.42.88-.93,1.89-1.34,2.77h-.62L78.94,8.91l-.15-.43V13.7l-.08.06h-.56l-.09-.07V7.4l.07-.07H79l1.62,3.34,1.61-3.34H83Z"/>
    <path class="cls-2" d="M12.59,18a1.57,1.57,0,0,1,1.05,1.73c0,1.22-.56,1.84-2.1,1.84s-2-.67-2-1.76l.19-.18h.68l.19.18c0,.51.37.7,1,.7.85,0,1.07-.2,1.07-.79a.66.66,0,0,0-.43-.7l-1.66-.82a1.48,1.48,0,0,1-.91-1.54c0-1,.48-1.71,2-1.71s2,.43,2,1.7l-.18.19h-.71l-.17-.22c0-.51-.16-.64-.94-.64s-.9.24-.9.63a.7.7,0,0,0,.41.7Z"/>
    <path class="cls-2" d="M15.85,21.43V16.06H14.48l-.18-.18V15.2l.18-.2H18.3l.17.19v.66l-.2.21H16.91v5.18l-.18.19Z"/>
    <path class="cls-2" d="M19.28,21.22v-6l.18-.19H23l.17.19v.67l-.18.19H20.33v1.47h2.5l.18.18v.69l-.18.18h-2.5v1.82H23l.16.21v.64l-.17.19H19.48Z"/>
    <path class="cls-2" d="M29,15.2v.34l-1.68,5.89H25.66c-1.21-4.34-1.47-5.15-1.66-5.84v-.38l.19-.21h.74l1.49,5.39h.09L28,15h.75Z"/>
    <path class="cls-2" d="M34,15.2v6l-.15.21h-1L31,17.7l-.22-.54v4.08l-.18.19h-.68l-.19-.19v-6l.19-.19h.9l1.91,3.78.21.61V15.2l.19-.19h.69Z"/>
    <path class="cls-2" d="M38,18a1.56,1.56,0,0,1,1,1.73c0,1.22-.55,1.84-2.09,1.84s-2-.67-2-1.76l.19-.18h.68l.18.18c0,.51.37.7,1,.7.85,0,1.06-.2,1.06-.79a.67.67,0,0,0-.42-.7L36,18.18A1.48,1.48,0,0,1,35,16.64c0-1,.48-1.71,2-1.71s2,.43,2,1.7l-.18.19H38.1l-.18-.22c0-.51-.16-.64-.93-.64s-.91.24-.91.63a.7.7,0,0,0,.42.7Z"/>
    <path class="cls-2" d="M40.05,21.43V15.19l.19-.19H43.8l.17.19v.67l-.18.19H41.1v1.47h2.5l.18.18v.69l-.18.18H41.1v2.67l-.19.19Z"/>
    <path class="cls-2" d="M46.91,21.55c-1.49,0-2.07-.88-2.07-1.8V16.62c0-.85.55-1.78,2.08-1.78A1.82,1.82,0,0,1,49,16.63v3.14C49,20.67,48.4,21.55,46.91,21.55Zm1-4.91c0-.61-.46-.8-1-.8s-1,.2-1,.8v3.11c0,.63.68.79,1,.79H47c.29,0,1-.12,1-.78Z"/>
    <path class="cls-2" d="M54,21.43h-.76L51.7,18.81h-.51L51,18.64v2.6l-.18.19h-.71L50,21.24v-6l.18-.19h2.06A1.52,1.52,0,0,1,54,16.71v.47c0,.35-.1,1.4-1.09,1.58L53.62,20l.53.9v.31Zm-1.84-3.58c.58,0,.78-.17.78-.68v-.43c0-.53-.21-.69-.71-.69H51v1.8Z"/>
    <path class="cls-2" d="M56.45,21.43V16.06H55.07l-.18-.18V15.2l.18-.2h3.82l.17.19v.66l-.2.21H57.5v5.18l-.18.19Z"/>
  </g>
</svg>
